<svg xmlns="http://www.w3.org/2000/svg" xmlns:xlink="http://www.w3.org/1999/xlink" contentStyleType="text/css" data-diagram-type="DESCRIPTION" height="1022px" preserveAspectRatio="none" style="width:720px;height:1022px;background:#FFFFFF;" version="1.1" viewBox="0 0 720 1022" width="720px" zoomAndPan="magnify"><title>Deployment view</title><defs/><g><text fill="#000000" font-family="sans-serif" font-size="14" font-weight="bold" lengthAdjust="spacing" textLength="136.6504" x="284.686" y="22.9951">Deployment view</text><!--cluster IPN1x--><g id="cluster_IPN1x"><polygon fill="transparent" points="16,221.2969,26,211.2969,546,211.2969,546,995.7969,536,1005.7969,16,1005.7969,16,221.2969" style="stroke:#181818;stroke-width:1;"/><line style="stroke:#181818;stroke-width:1;" x1="536" x2="546" y1="221.2969" y2="211.2969"/><line style="stroke:#181818;stroke-width:1;" x1="16" x2="536" y1="221.2969" y2="221.2969"/><line style="stroke:#181818;stroke-width:1;" x1="536" x2="536" y1="221.2969" y2="1005.7969"/><text fill="#000000" font-family="sans-serif" font-size="14" font-weight="bold" lengthAdjust="spacing" textLength="45.958" x="254.021" y="237.292">IPN1x</text></g><!--cluster Application Layer--><g id="cluster_Application Layer"><polygon fill="transparent" points="40,749.7969,50,739.7969,254,739.7969,254,971.7969,244,981.7969,40,981.7969,40,749.7969" style="stroke:#181818;stroke-width:1;"/><line style="stroke:#181818;stroke-width:1;" x1="244" x2="254" y1="749.7969" y2="739.7969"/><line style="stroke:#181818;stroke-width:1;" x1="40" x2="244" y1="749.7969" y2="749.7969"/><line style="stroke:#181818;stroke-width:1;" x1="244" x2="244" y1="749.7969" y2="981.7969"/><text fill="#000000" font-family="sans-serif" font-size="14" font-weight="bold" lengthAdjust="spacing" textLength="138.0654" x="73.9673" y="765.792">Application Layer</text></g><!--cluster Diagnostic App Layer--><g id="cluster_Diagnostic App Layer"><polygon fill="transparent" points="278,749.7969,288,739.7969,522,739.7969,522,971.7969,512,981.7969,278,981.7969,278,749.7969" style="stroke:#181818;stroke-width:1;"/><line style="stroke:#181818;stroke-width:1;" x1="512" x2="522" y1="749.7969" y2="739.7969"/><line style="stroke:#181818;stroke-width:1;" x1="278" x2="512" y1="749.7969" y2="749.7969"/><line style="stroke:#181818;stroke-width:1;" x1="512" x2="512" y1="749.7969" y2="981.7969"/><text fill="#000000" font-family="sans-serif" font-size="14" font-weight="bold" lengthAdjust="spacing" textLength="168.1162" x="311.9419" y="765.792">Diagnostic App Layer</text></g><!--cluster PTP Daemon--><g id="cluster_PTP Daemon"><polygon fill="transparent" points="167,269.2969,177,259.2969,342,259.2969,342,368.2969,332,378.2969,167,378.2969,167,269.2969" style="stroke:#181818;stroke-width:1;"/><line style="stroke:#181818;stroke-width:1;" x1="332" x2="342" y1="269.2969" y2="259.2969"/><line style="stroke:#181818;stroke-width:1;" x1="167" x2="332" y1="269.2969" y2="269.2969"/><line style="stroke:#181818;stroke-width:1;" x1="332" x2="332" y1="269.2969" y2="378.2969"/><text fill="#000000" font-family="sans-serif" font-size="14" font-weight="bold" lengthAdjust="spacing" textLength="99.6816" x="200.6592" y="285.292">PTP Daemon</text></g><!--cluster VehicleTimeDaemon--><g id="cluster_VehicleTimeDaemon"><polygon fill="transparent" points="256,452.2969,266,442.2969,492,442.2969,492,665.7969,482,675.7969,256,675.7969,256,452.2969" style="stroke:#181818;stroke-width:1;"/><line style="stroke:#181818;stroke-width:1;" x1="482" x2="492" y1="452.2969" y2="442.2969"/><line style="stroke:#181818;stroke-width:1;" x1="256" x2="482" y1="452.2969" y2="452.2969"/><line style="stroke:#181818;stroke-width:1;" x1="482" x2="482" y1="452.2969" y2="675.7969"/><text fill="#000000" font-family="sans-serif" font-size="14" font-weight="bold" lengthAdjust="spacing" textLength="160.8564" x="289.5718" y="468.292">VehicleTimeDaemon</text></g><!--cluster Time Grand Master--><g id="cluster_Time Grand Master"><polygon fill="transparent" points="136,53.2969,146,43.2969,372,43.2969,372,152.2969,362,162.2969,136,162.2969,136,53.2969" style="stroke:#181818;stroke-width:1;"/><line style="stroke:#181818;stroke-width:1;" x1="362" x2="372" y1="53.2969" y2="43.2969"/><line style="stroke:#181818;stroke-width:1;" x1="136" x2="362" y1="53.2969" y2="53.2969"/><line style="stroke:#181818;stroke-width:1;" x1="362" x2="362" y1="53.2969" y2="162.2969"/><text fill="#000000" font-family="sans-serif" font-size="14" font-weight="bold" lengthAdjust="spacing" textLength="150.8145" x="174.5928" y="69.292">Time Grand Master</text></g><!--entity hw_counter--><g id="elem_hw_counter"><rect fill="#F1F1F1" height="62.5938" rx="2.5" ry="2.5" style="stroke:#181818;stroke-width:0.5;" width="120.0117" x="98" y="473.7969"/><rect fill="#F1F1F1" height="10" style="stroke:#181818;stroke-width:0.5;" width="15" x="198.0117" y="478.7969"/><rect fill="#F1F1F1" height="2" style="stroke:#181818;stroke-width:0.5;" width="4" x="196.0117" y="480.7969"/><rect fill="#F1F1F1" height="2" style="stroke:#181818;stroke-width:0.5;" width="4" x="196.0117" y="484.7969"/><text fill="#000000" font-family="sans-serif" font-size="14" font-style="italic" lengthAdjust="spacing" textLength="78.0117" x="114" y="506.792">&#171;hw clock&#187;</text><text fill="#000000" font-family="sans-serif" font-size="14" lengthAdjust="spacing" textLength="40.2773" x="132.8672" y="523.0889">EMAC</text></g><!--entity app_bl--><g id="elem_app_bl"><rect fill="#F1F1F1" height="46.2969" rx="2.5" ry="2.5" style="stroke:#181818;stroke-width:0.5;" width="139.1143" x="98.5" y="919.7969"/><rect fill="#F1F1F1" height="10" style="stroke:#181818;stroke-width:0.5;" width="15" x="217.6143" y="924.7969"/><rect fill="#F1F1F1" height="2" style="stroke:#181818;stroke-width:0.5;" width="4" x="215.6143" y="926.7969"/><rect fill="#F1F1F1" height="2" style="stroke:#181818;stroke-width:0.5;" width="4" x="215.6143" y="930.7969"/><text fill="#000000" font-family="sans-serif" font-size="14" lengthAdjust="spacing" textLength="99.1143" x="113.5" y="952.792">Business logic</text></g><!--entity mw--><g id="elem_mw"><rect fill="#F1F1F1" height="62.5938" rx="2.5" ry="2.5" style="stroke:#181818;stroke-width:0.5;" width="136.6533" x="99.5" y="779.7969"/><rect fill="#F1F1F1" height="10" style="stroke:#181818;stroke-width:0.5;" width="15" x="216.1533" y="784.7969"/><rect fill="#F1F1F1" height="2" style="stroke:#181818;stroke-width:0.5;" width="4" x="214.1533" y="786.7969"/><rect fill="#F1F1F1" height="2" style="stroke:#181818;stroke-width:0.5;" width="4" x="214.1533" y="790.7969"/><text fill="#000000" font-family="sans-serif" font-size="14" font-style="italic" lengthAdjust="spacing" textLength="62.3232" x="131.665" y="812.792">&#171;library&#187;</text><text fill="#000000" font-family="sans-serif" font-size="14" lengthAdjust="spacing" textLength="96.6533" x="114.5" y="829.0889">mw::time::svt</text></g><!--entity diag_bl--><g id="elem_diag_bl"><rect fill="#F1F1F1" height="46.2969" rx="2.5" ry="2.5" style="stroke:#181818;stroke-width:0.5;" width="208.0684" x="294" y="919.7969"/><rect fill="#F1F1F1" height="10" style="stroke:#181818;stroke-width:0.5;" width="15" x="482.0684" y="924.7969"/><rect fill="#F1F1F1" height="2" style="stroke:#181818;stroke-width:0.5;" width="4" x="480.0684" y="926.7969"/><rect fill="#F1F1F1" height="2" style="stroke:#181818;stroke-width:0.5;" width="4" x="480.0684" y="930.7969"/><text fill="#000000" font-family="sans-serif" font-size="14" lengthAdjust="spacing" textLength="168.0684" x="309" y="952.792">Diag jobs business logic</text></g><!--entity mw_ext--><g id="elem_mw_ext"><rect fill="#F1F1F1" height="62.5938" rx="2.5" ry="2.5" style="stroke:#181818;stroke-width:0.5;" width="168.4746" x="296" y="779.7969"/><rect fill="#F1F1F1" height="10" style="stroke:#181818;stroke-width:0.5;" width="15" x="444.4746" y="784.7969"/><rect fill="#F1F1F1" height="2" style="stroke:#181818;stroke-width:0.5;" width="4" x="442.4746" y="786.7969"/><rect fill="#F1F1F1" height="2" style="stroke:#181818;stroke-width:0.5;" width="4" x="442.4746" y="790.7969"/><text fill="#000000" font-family="sans-serif" font-size="14" font-style="italic" lengthAdjust="spacing" textLength="62.3232" x="344.0757" y="812.792">&#171;library&#187;</text><text fill="#000000" font-family="sans-serif" font-size="14" lengthAdjust="spacing" textLength="128.4746" x="311" y="829.0889">mw::time::svt::ext</text></g><!--entity ptpd--><g id="elem_ptpd"><rect fill="#F1F1F1" height="62.5938" rx="2.5" ry="2.5" style="stroke:#181818;stroke-width:0.5;" width="116.4365" x="196" y="299.2969"/><rect fill="#F1F1F1" height="10" style="stroke:#181818;stroke-width:0.5;" width="15" x="292.4365" y="304.2969"/><rect fill="#F1F1F1" height="2" style="stroke:#181818;stroke-width:0.5;" width="4" x="290.4365" y="306.2969"/><rect fill="#F1F1F1" height="2" style="stroke:#181818;stroke-width:0.5;" width="4" x="290.4365" y="310.2969"/><text fill="#000000" font-family="sans-serif" font-size="14" font-style="italic" lengthAdjust="spacing" textLength="74.4365" x="212" y="332.292">&#171;daemon&#187;</text><text fill="#000000" font-family="sans-serif" font-size="14" lengthAdjust="spacing" textLength="32.1494" x="233.1436" y="348.5889">ptpd</text></g><!--entity verification_machine--><g id="elem_verification_machine"><rect fill="#F1F1F1" height="46.2969" rx="2.5" ry="2.5" style="stroke:#181818;stroke-width:0.5;" width="178.3525" x="285" y="613.7969"/><rect fill="#F1F1F1" height="10" style="stroke:#181818;stroke-width:0.5;" width="15" x="443.3525" y="618.7969"/><rect fill="#F1F1F1" height="2" style="stroke:#181818;stroke-width:0.5;" width="4" x="441.3525" y="620.7969"/><rect fill="#F1F1F1" height="2" style="stroke:#181818;stroke-width:0.5;" width="4" x="441.3525" y="624.7969"/><text fill="#000000" font-family="sans-serif" font-size="14" lengthAdjust="spacing" textLength="138.3525" x="300" y="646.792">VerificationMachine</text></g><!--entity ptp_machine--><g id="elem_ptp_machine"><rect fill="#F1F1F1" height="46.2969" rx="2.5" ry="2.5" style="stroke:#181818;stroke-width:0.5;" width="130.0498" x="285" y="482.2969"/><rect fill="#F1F1F1" height="10" style="stroke:#181818;stroke-width:0.5;" width="15" x="395.0498" y="487.2969"/><rect fill="#F1F1F1" height="2" style="stroke:#181818;stroke-width:0.5;" width="4" x="393.0498" y="489.2969"/><rect fill="#F1F1F1" height="2" style="stroke:#181818;stroke-width:0.5;" width="4" x="393.0498" y="493.2969"/><text fill="#000000" font-family="sans-serif" font-size="14" lengthAdjust="spacing" textLength="90.0498" x="300" y="515.292">PTP machine</text></g><!--entity ptp_gm--><g id="elem_ptp_gm"><rect fill="#F1F1F1" height="62.5938" rx="2.5" ry="2.5" style="stroke:#181818;stroke-width:0.5;" width="204.6846" x="151.5" y="83.2969"/><rect fill="#F1F1F1" height="10" style="stroke:#181818;stroke-width:0.5;" width="15" x="336.1846" y="88.2969"/><rect fill="#F1F1F1" height="2" style="stroke:#181818;stroke-width:0.5;" width="4" x="334.1846" y="90.2969"/><rect fill="#F1F1F1" height="2" style="stroke:#181818;stroke-width:0.5;" width="4" x="334.1846" y="94.2969"/><text fill="#000000" font-family="sans-serif" font-size="14" font-style="italic" lengthAdjust="spacing" textLength="63.2666" x="217.209" y="116.292">&#171;device&#187;</text><text fill="#000000" font-family="sans-serif" font-size="14" lengthAdjust="spacing" textLength="164.6846" x="166.5" y="132.5889">PTP Grandmaster Clock</text></g><!--entity dlt_records--><g id="elem_dlt_records"><rect fill="#F1F1F1" height="62.5938" rx="2.5" ry="2.5" style="stroke:#181818;stroke-width:0.5;" width="111.8496" x="562" y="779.7969"/><rect fill="#F1F1F1" height="10" style="stroke:#181818;stroke-width:0.5;" width="15" x="653.8496" y="784.7969"/><rect fill="#F1F1F1" height="2" style="stroke:#181818;stroke-width:0.5;" width="4" x="651.8496" y="786.7969"/><rect fill="#F1F1F1" height="2" style="stroke:#181818;stroke-width:0.5;" width="4" x="651.8496" y="790.7969"/><text fill="#000000" font-family="sans-serif" font-size="14" font-style="italic" lengthAdjust="spacing" textLength="69.8496" x="578" y="812.792">&#171;records&#187;</text><text fill="#000000" font-family="sans-serif" font-size="14" lengthAdjust="spacing" textLength="27.1318" x="599.3589" y="829.0889">DLT</text></g><!--link ptp_gm to ptpd--><g id="link_ptp_gm_ptpd"><path d="M254,146.4569 C254,187.1369 254,252.5369 254,293.1969 " fill="transparent" id="ptp_gm-to-ptpd" style="stroke:#800080;stroke-width:1;"/><polygon fill="#800080" points="254,299.1969,258,290.1969,254,294.1969,250,290.1969,254,299.1969" style="stroke:#800080;stroke-width:1;"/><text fill="#000000" font-family="sans-serif" font-size="13" lengthAdjust="spacing" textLength="126.9341" x="255" y="191.3638">PTP sync messages</text></g><!--link ptpd to hw_counter--><g id="link_ptpd_hw_counter"><path d="M195.8,355.4069 C179.69,364.9669 164.13,377.7469 155,394.2969 C141.72,418.3869 143.11,444.3022 147.93,467.5122 " fill="transparent" id="ptpd-to-hw_counter" style="stroke:#181818;stroke-width:1;stroke-dasharray:7.0,7.0;"/><polygon fill="#181818" points="149.15,473.3869,151.2365,463.7616,148.1333,468.4913,143.4036,465.3882,149.15,473.3869" style="stroke:#181818;stroke-width:1;"/><text fill="#000000" font-family="sans-serif" font-size="13" lengthAdjust="spacing" textLength="150.1284" x="156" y="414.8638">Updates local hw timer</text></g><!--link ptpd to ptp_machine--><g id="link_ptpd_ptp_machine"><path d="M286.54,362.5769 C295.34,372.1169 304.28,383.0869 311,394.2969 C327.88,422.4469 337.5234,453.204 343.4234,476.274 " fill="transparent" id="ptpd-to-ptp_machine" style="stroke:#0000FF;stroke-width:1;"/><polygon fill="#0000FF" points="344.91,482.0869,346.5554,472.3764,343.6712,477.2428,338.8048,474.3586,344.91,482.0869" style="stroke:#0000FF;stroke-width:1;"/><text fill="#000000" font-family="sans-serif" font-size="13" lengthAdjust="spacing" textLength="113.8325" x="347.2871" y="407.3638">PTP time updates</text><text fill="#000000" font-family="sans-serif" font-size="13" lengthAdjust="spacing" textLength="154.4067" x="327" y="422.4966">(via shmem and devctl)</text></g><!--link ptp_machine to verification_machine--><g id="link_ptp_machine_verification_machine"><path d="M354.13,528.5569 C358.52,552.2769 364.346,583.7175 368.756,607.4975 " fill="transparent" id="ptp_machine-to-verification_machine" style="stroke:#008000;stroke-width:1;"/><polygon fill="#008000" points="369.85,613.3969,372.1419,603.8184,368.9383,608.4807,364.276,605.2771,369.85,613.3969" style="stroke:#008000;stroke-width:1;"/><text fill="#000000" font-family="sans-serif" font-size="13" lengthAdjust="spacing" textLength="111.6045" x="365" y="579.8638">Time information</text></g><!--link verification_machine to mw--><g id="link_verification_machine_mw"><path d="M284.93,651.8369 C258.41,659.7969 231.09,672.2669 211,691.7969 C186.91,715.2169 177.2868,747.2471 172.6168,773.8671 " fill="transparent" id="verification_machine-to-mw" style="stroke:#008000;stroke-width:1;"/><polygon fill="#008000" points="171.58,779.7769,177.075,771.6034,172.444,774.8521,169.1953,770.2211,171.58,779.7769" style="stroke:#008000;stroke-width:1;"/><text fill="#000000" font-family="sans-serif" font-size="13" lengthAdjust="spacing" textLength="111.6045" x="233.5249" y="704.8638">Time information</text><text fill="#000000" font-family="sans-serif" font-size="13" lengthAdjust="spacing" textLength="154.6543" x="212" y="719.9966">(score::communication)</text></g><!--link verification_machine to mw_ext--><g id="link_verification_machine_mw_ext"><path d="M374.77,659.9969 C375.83,690.4769 377.5305,739.4205 378.7305,773.7605 " fill="transparent" id="verification_machine-to-mw_ext" style="stroke:#008000;stroke-width:1;"/><polygon fill="#008000" points="378.94,779.7569,382.6232,770.6227,378.7654,774.7599,374.6281,770.9021,378.94,779.7569" style="stroke:#008000;stroke-width:1;"/><text fill="#000000" font-family="sans-serif" font-size="13" lengthAdjust="spacing" textLength="111.6045" x="398.5249" y="704.8638">Time information</text><text fill="#000000" font-family="sans-serif" font-size="13" lengthAdjust="spacing" textLength="154.6543" x="377" y="719.9966">(score::communication)</text></g><!--link verification_machine to dlt_records--><g id="link_verification_machine_dlt_records"><path d="M463.37,654.9369 C489.86,663.0269 517.71,674.7969 540,691.7969 C570.06,714.7269 589.5268,747.3462 602.3668,774.1362 " fill="transparent" id="verification_machine-to-dlt_records" style="stroke:#008000;stroke-width:1;"/><polygon fill="#008000" points="604.96,779.5469,604.6772,769.7021,602.799,775.038,597.463,773.1597,604.96,779.5469" style="stroke:#008000;stroke-width:1;"/><text fill="#000000" font-family="sans-serif" font-size="13" lengthAdjust="spacing" textLength="142.0225" x="570" y="712.3638">Data for post analysis</text></g><!--link mw to app_bl--><g id="link_mw_app_bl"><path d="M168,842.9869 C168,866.4769 168,892.3169 168,913.4269 " fill="transparent" id="mw-to-app_bl" style="stroke:#FFA500;stroke-width:1;"/><polygon fill="#FFA500" points="168,919.4269,172,910.4269,168,914.4269,164,910.4269,168,919.4269" style="stroke:#FFA500;stroke-width:1;"/><text fill="#000000" font-family="sans-serif" font-size="13" lengthAdjust="spacing" textLength="38.4541" x="169" y="885.8638">Now()</text></g><!--link mw_ext to diag_bl--><g id="link_mw_ext_diag_bl"><path d="M384.27,842.9869 C387.53,866.4769 391.1351,892.3738 394.0651,913.4838 " fill="transparent" id="mw_ext-to-diag_bl" style="stroke:#FFA500;stroke-width:1;"/><polygon fill="#FFA500" points="394.89,919.4269,397.6147,909.9624,394.2026,914.4744,389.6907,911.0622,394.89,919.4269" style="stroke:#FFA500;stroke-width:1;"/><text fill="#000000" font-family="sans-serif" font-size="13" lengthAdjust="spacing" textLength="118.7964" x="391" y="885.8638">Now(), Callbacks()</text></g><!--SRC=[hLDDQnin4BthLmpf9O4cqEiI3AbTIY4EFhYvk6RHQYThDVf2qdfZIlvxHzAwjh4BFLJ7UM_UlFbGb54XpD0fkzDe8cmb3emPso9SVLiyVNgxWbyCw9NGWtDA2XwbDV38T-ZtS7ghptsG1aC0PJifri03SEVgHXqeUgYgA3LMLTZ6DTpVAzbuxdUJIMBh8JFVZohE9E-C3L4AeE8NYYO2_BHDWEQyV4lWt-jN5RvTCb5J-Cp8Ohc06KTjpKbv5rsR9DeC5OKKEyj_neqK2fTK_8BCCthvCavspiM66bb3qjeU0RKko24jcT9xUgbyGYe6Lb_c3zDaSZE0K5Qy5fkReHQsDn4zUnzNdjp1LyzD2tCUuc7KkL86T8x3DEdand4h1VvflEuqgQrcZyi4UXJMjw6WhOhr662C5IxShZwutZk5wzj97XnKa6g5dH6WQPkymy0oS7StEV9ClE-kvH7JlWLN147Qh2zaqcrKlrVT3sKKJppeI_OFSxsL7C96euRKE3KaehfXnscardb4a-GkRQI2F3bfNgpN6M6NQ2SwT8fdMMGcq83eF8NLkZTZ_is_gAMh_P-AH-kgwF8Z1n85Ht-HniJLBiZ0z40PbiwYovCklvs6_6I7wnjMF9qmnW-vfto4ALUguU8r4Fyt]--></g></svg>