<svg xmlns="http://www.w3.org/2000/svg" xmlns:xlink="http://www.w3.org/1999/xlink" contentStyleType="text/css" data-diagram-type="CLASS" height="868px" preserveAspectRatio="none" style="width:701px;height:868px;background:#FFFFFF;" version="1.1" viewBox="0 0 701 868" width="701px" zoomAndPan="magnify"><title>PTPMachine: Class Diagram</title><defs/><g><text fill="#000000" font-family="sans-serif" font-size="14" font-weight="bold" lengthAdjust="spacing" textLength="219.3379" x="234.0098" y="22.9951">PTPMachine: Class Diagram</text><rect fill="#DDDDDD" height="62.8906" id="_legend" rx="7.5" ry="7.5" style="stroke:#000000;stroke-width:1;" width="292.8574" x="12" y="49.2969"/><text fill="#000000" font-family="sans-serif" font-size="14" font-weight="bold" lengthAdjust="spacing" textLength="41.2139" x="21.874" y="69.292">Color</text><text fill="#000000" font-family="sans-serif" font-size="14" font-weight="bold" lengthAdjust="spacing" textLength="90.5488" x="126.4502" y="69.292">Description</text><rect fill="#F5F5DC" height="16.2969" style="stroke:transparent;stroke-width:1;" width="104.5762" x="17" y="72.5938"/><text fill="#000000" font-family="sans-serif" font-size="14" lengthAdjust="spacing" textLength="44.502" x="17" y="85.5889">&#160;&#160;&#160;&#160;&#160;&#160;&#160;&#160;&#160;&#160;</text><text fill="#000000" font-family="sans-serif" font-size="14" lengthAdjust="spacing" textLength="89.2021" x="126.0264" y="85.5889">Base classes</text><rect fill="#F5DEB3" height="16.2969" style="stroke:transparent;stroke-width:1;" width="104.5762" x="17" y="88.8906"/><text fill="#000000" font-family="sans-serif" font-size="14" lengthAdjust="spacing" textLength="44.502" x="17" y="101.8857">&#160;&#160;&#160;&#160;&#160;&#160;&#160;&#160;&#160;&#160;</text><text fill="#000000" font-family="sans-serif" font-size="14" lengthAdjust="spacing" textLength="81.4229" x="126.0264" y="101.8857">PtpMachine</text><line style="stroke:#000000;stroke-width:1;" x1="17" x2="299.8574" y1="56.2969" y2="56.2969"/><line style="stroke:#000000;stroke-width:1;" x1="17" x2="299.8574" y1="72.5938" y2="72.5938"/><line style="stroke:#000000;stroke-width:1;" x1="17" x2="299.8574" y1="88.8906" y2="88.8906"/><line style="stroke:#000000;stroke-width:1;" x1="17" x2="299.8574" y1="105.1875" y2="105.1875"/><line style="stroke:#000000;stroke-width:1;" x1="17" x2="17" y1="56.2969" y2="105.1875"/><line style="stroke:#000000;stroke-width:1;" x1="121.5762" x2="121.5762" y1="56.2969" y2="105.1875"/><line style="stroke:#000000;stroke-width:1;" x1="299.8574" x2="299.8574" y1="56.2969" y2="105.1875"/><!--class time_info--><g id="elem_time_info"><rect codeLine="10" fill="#F5F5DC" height="96.8906" id="time_info" rx="2.5" ry="2.5" style="stroke:#181818;stroke-width:0.5;" width="151.3574" x="543" y="764.1875"/><ellipse cx="573.9078" cy="780.1875" fill="#ADD1B2" rx="11" ry="11" style="stroke:#181818;stroke-width:1;"/><path d="M576.8765,785.8281 Q576.2984,786.125 575.6578,786.2656 Q575.0171,786.4219 574.314,786.4219 Q571.814,786.4219 570.4859,784.7813 Q569.1734,783.125 569.1734,780 Q569.1734,776.875 570.4859,775.2188 Q571.814,773.5625 574.314,773.5625 Q575.0171,773.5625 575.6578,773.7188 Q576.314,773.875 576.8765,774.1719 L576.8765,776.8906 Q576.2515,776.3125 575.6578,776.0469 Q575.064,775.7656 574.439,775.7656 Q573.0953,775.7656 572.4078,776.8438 Q571.7203,777.9063 571.7203,780 Q571.7203,782.0938 572.4078,783.1719 Q573.0953,784.2344 574.439,784.2344 Q575.064,784.2344 575.6578,783.9688 Q576.2515,783.6875 576.8765,783.1094 L576.8765,785.8281 Z " fill="#000000"/><text fill="#000000" font-family="sans-serif" font-size="14" lengthAdjust="spacing" textLength="84.0068" x="591.4428" y="785.0342">PtpTimeInfo</text><line style="stroke:#181818;stroke-width:0.5;" x1="544" x2="693.3574" y1="796.1875" y2="796.1875"/><ellipse cx="554" cy="809.8359" fill="transparent" rx="3" ry="3" style="stroke:#038048;stroke-width:1;"/><text fill="#000000" font-family="sans-serif" font-size="14" lengthAdjust="spacing" textLength="77.3691" x="563" y="813.1826">ptp: uint64</text><ellipse cx="554" cy="826.1328" fill="transparent" rx="3" ry="3" style="stroke:#038048;stroke-width:1;"/><text fill="#000000" font-family="sans-serif" font-size="14" lengthAdjust="spacing" textLength="125.3574" x="563" y="829.4795">local_time: uint64</text><ellipse cx="554" cy="842.4297" fill="transparent" rx="3" ry="3" style="stroke:#038048;stroke-width:1;"/><text fill="#000000" font-family="sans-serif" font-size="14" lengthAdjust="spacing" textLength="70.4375" x="563" y="845.7764">status: int</text><line style="stroke:#181818;stroke-width:0.5;" x1="544" x2="693.3574" y1="853.0781" y2="853.0781"/></g><!--class base_machine--><g id="elem_base_machine"><rect codeLine="16" fill="#F5F5DC" height="80.5938" id="base_machine" rx="2.5" ry="2.5" style="stroke:#181818;stroke-width:0.5;" width="152.5332" x="113" y="132.1875"/><ellipse cx="140.5271" cy="148.1875" fill="#A9DCDF" rx="11" ry="11" style="stroke:#181818;stroke-width:1;"/><path d="M140.6364,143.5313 L139.4802,148.6094 L141.8083,148.6094 L140.6364,143.5313 Z M139.1521,141.2969 L142.1364,141.2969 L145.4958,153.6875 L143.0427,153.6875 L142.2771,150.625 L138.9958,150.625 L138.2458,153.6875 L135.8083,153.6875 L139.1521,141.2969 Z " fill="#000000"/><text fill="#000000" font-family="sans-serif" font-size="14" font-style="italic" lengthAdjust="spacing" textLength="92.6953" x="157.3108" y="153.0342">BaseMachine</text><line style="stroke:#181818;stroke-width:0.5;" x1="114" x2="264.5332" y1="164.1875" y2="164.1875"/><line style="stroke:#181818;stroke-width:0.5;" x1="114" x2="264.5332" y1="172.1875" y2="172.1875"/><ellipse cx="124" cy="185.8359" fill="#84BE84" rx="3" ry="3" style="stroke:#038048;stroke-width:1;"/><text fill="#000000" font-family="sans-serif" font-size="14" lengthAdjust="spacing" textLength="126.5332" x="133" y="189.1826">GetName(): string</text><ellipse cx="124" cy="202.1328" fill="#84BE84" rx="3" ry="3" style="stroke:#038048;stroke-width:1;"/><text fill="#000000" font-family="sans-serif" font-size="14" lengthAdjust="spacing" textLength="72.3789" x="133" y="205.4795">Init(): bool</text></g><!--class proactive_machine--><g id="elem_proactive_machine"><rect codeLine="21" fill="#F5F5DC" height="80.5938" id="proactive_machine" rx="2.5" ry="2.5" style="stroke:#181818;stroke-width:0.5;" width="155.9219" x="111.5" y="274.1875"/><ellipse cx="126.5" cy="290.1875" fill="#A9DCDF" rx="11" ry="11" style="stroke:#181818;stroke-width:1;"/><path d="M126.6094,285.5313 L125.4531,290.6094 L127.7813,290.6094 L126.6094,285.5313 Z M125.125,283.2969 L128.1094,283.2969 L131.4688,295.6875 L129.0156,295.6875 L128.25,292.625 L124.9688,292.625 L124.2188,295.6875 L121.7813,295.6875 L125.125,283.2969 Z " fill="#000000"/><text fill="#000000" font-family="sans-serif" font-size="14" font-style="italic" lengthAdjust="spacing" textLength="123.9219" x="140.5" y="295.0342">ProactiveMachine</text><line style="stroke:#181818;stroke-width:0.5;" x1="112.5" x2="266.4219" y1="306.1875" y2="306.1875"/><line style="stroke:#181818;stroke-width:0.5;" x1="112.5" x2="266.4219" y1="314.1875" y2="314.1875"/><ellipse cx="122.5" cy="327.8359" fill="#84BE84" rx="3" ry="3" style="stroke:#038048;stroke-width:1;"/><text fill="#000000" font-family="sans-serif" font-size="14" lengthAdjust="spacing" textLength="83.918" x="131.5" y="331.1826">Start(): void</text><ellipse cx="122.5" cy="344.1328" fill="#84BE84" rx="3" ry="3" style="stroke:#038048;stroke-width:1;"/><text fill="#000000" font-family="sans-serif" font-size="14" lengthAdjust="spacing" textLength="81.5459" x="131.5" y="347.4795">Stop(): void</text></g><!--class periodic_machine--><g id="elem_periodic_machine"><rect codeLine="26" fill="#F5F5DC" height="64.2969" id="periodic_machine" rx="2.5" ry="2.5" style="stroke:#181818;stroke-width:0.5;" width="163.9902" x="107.5" y="424.6875"/><ellipse cx="130.4405" cy="440.6875" fill="#A9DCDF" rx="11" ry="11" style="stroke:#181818;stroke-width:1;"/><path d="M130.5499,436.0313 L129.3936,441.1094 L131.7217,441.1094 L130.5499,436.0313 Z M129.0655,433.7969 L132.0499,433.7969 L135.4092,446.1875 L132.9561,446.1875 L132.1905,443.125 L128.9092,443.125 L128.1592,446.1875 L125.7217,446.1875 L129.0655,433.7969 Z " fill="#000000"/><text fill="#000000" font-family="sans-serif" font-size="14" font-style="italic" lengthAdjust="spacing" textLength="114.3447" x="146.205" y="445.5342">PeriodicMachine</text><line style="stroke:#181818;stroke-width:0.5;" x1="108.5" x2="270.4902" y1="456.6875" y2="456.6875"/><line style="stroke:#181818;stroke-width:0.5;" x1="108.5" x2="270.4902" y1="464.6875" y2="464.6875"/><polygon fill="#FFFF44" points="118.5,473.3359,122.5,477.3359,118.5,481.3359,114.5,477.3359" style="stroke:#B38D22;stroke-width:1;"/><text fill="#000000" font-family="sans-serif" font-size="14" lengthAdjust="spacing" textLength="137.9902" x="127.5" y="481.6826">PeriodicTask(): void</text></g><!--class producer--><g id="elem_producer"><rect codeLine="30" fill="#F5F5DC" height="80.5938" id="producer" rx="2.5" ry="2.5" style="stroke:#181818;stroke-width:0.5;" width="265.5859" x="306.5" y="416.1875"/><ellipse cx="398.083" cy="432.1875" fill="#A9DCDF" rx="11" ry="11" style="stroke:#181818;stroke-width:1;"/><path d="M398.1924,427.5313 L397.0361,432.6094 L399.3643,432.6094 L398.1924,427.5313 Z M396.708,425.2969 L399.6924,425.2969 L403.0518,437.6875 L400.5986,437.6875 L399.833,434.625 L396.5518,434.625 L395.8018,437.6875 L393.3643,437.6875 L396.708,425.2969 Z " fill="#000000"/><text fill="#000000" font-family="sans-serif" font-size="14" font-style="italic" lengthAdjust="spacing" textLength="62.5898" x="418.583" y="437.0342">Producer</text><rect fill="#FFFFFF" height="15.9688" style="stroke:#181818;stroke-width:1;stroke-dasharray:2.0,2.0;" width="9.3301" x="565.7559" y="413.1875"/><text fill="#000000" font-family="sans-serif" font-size="12" font-style="italic" lengthAdjust="spacing" textLength="7.3301" x="566.7559" y="425.3262">T</text><line style="stroke:#181818;stroke-width:0.5;" x1="307.5" x2="571.0859" y1="448.1875" y2="448.1875"/><line style="stroke:#181818;stroke-width:0.5;" x1="307.5" x2="571.0859" y1="456.1875" y2="456.1875"/><ellipse cx="317.5" cy="469.8359" fill="#84BE84" rx="3" ry="3" style="stroke:#038048;stroke-width:1;"/><text fill="#000000" font-family="sans-serif" font-size="14" lengthAdjust="spacing" textLength="239.5859" x="326.5" y="473.1826">SetPublishCallback(callback): void</text><polygon fill="#FFFF44" points="317.5,481.1328,321.5,485.1328,317.5,489.1328,313.5,485.1328" style="stroke:#B38D22;stroke-width:1;"/><text fill="#000000" font-family="sans-serif" font-size="14" lengthAdjust="spacing" textLength="149.1191" x="326.5" y="489.4795">Publish(data: T): void</text></g><!--class ptp_machine--><g id="elem_ptp_machine"><rect codeLine="35" fill="#F5DEB3" height="129.4844" id="ptp_machine" rx="2.5" ry="2.5" style="stroke:#181818;stroke-width:0.5;" width="265.5859" x="243.5" y="558.1875"/><ellipse cx="296.5576" cy="574.1875" fill="#ADD1B2" rx="11" ry="11" style="stroke:#181818;stroke-width:1;"/><path d="M299.5264,579.8281 Q298.9482,580.125 298.3076,580.2656 Q297.667,580.4219 296.9639,580.4219 Q294.4639,580.4219 293.1357,578.7813 Q291.8232,577.125 291.8232,574 Q291.8232,570.875 293.1357,569.2188 Q294.4639,567.5625 296.9639,567.5625 Q297.667,567.5625 298.3076,567.7188 Q298.9639,567.875 299.5264,568.1719 L299.5264,570.8906 Q298.9014,570.3125 298.3076,570.0469 Q297.7139,569.7656 297.0889,569.7656 Q295.7451,569.7656 295.0576,570.8438 Q294.3701,571.9063 294.3701,574 Q294.3701,576.0938 295.0576,577.1719 Q295.7451,578.2344 297.0889,578.2344 Q297.7139,578.2344 298.3076,577.9688 Q298.9014,577.6875 299.5264,577.1094 L299.5264,579.8281 Z " fill="#000000"/><text fill="#000000" font-family="sans-serif" font-size="14" lengthAdjust="spacing" textLength="84.041" x="317.0576" y="579.0342">PTPMachine</text><rect fill="#FFFFFF" height="15.9688" style="stroke:#181818;stroke-width:1;stroke-dasharray:2.0,2.0;" width="64.9297" x="447.1563" y="555.1875"/><text fill="#000000" font-family="sans-serif" font-size="12" font-style="italic" lengthAdjust="spacing" textLength="62.9297" x="448.1563" y="567.3262">PTPEngine</text><line style="stroke:#181818;stroke-width:0.5;" x1="244.5" x2="508.0859" y1="590.1875" y2="590.1875"/><rect fill="transparent" height="6" style="stroke:#C82930;stroke-width:1;" width="6" x="251.5" y="600.8359"/><text fill="#000000" font-family="sans-serif" font-size="14" lengthAdjust="spacing" textLength="181.6377" x="263.5" y="607.1826">engine_impl_: PTPEngine*</text><rect fill="transparent" height="6" style="stroke:#C82930;stroke-width:1;" width="6" x="251.5" y="617.1328"/><text fill="#000000" font-family="sans-serif" font-size="14" lengthAdjust="spacing" textLength="188.2754" x="263.5" y="623.4795">publish_callback_: function</text><line style="stroke:#181818;stroke-width:0.5;" x1="244.5" x2="508.0859" y1="630.7813" y2="630.7813"/><ellipse cx="254.5" cy="644.4297" fill="#84BE84" rx="3" ry="3" style="stroke:#038048;stroke-width:1;"/><text fill="#000000" font-family="sans-serif" font-size="14" lengthAdjust="spacing" textLength="72.3789" x="263.5" y="647.7764">Init(): bool</text><ellipse cx="254.5" cy="660.7266" fill="#84BE84" rx="3" ry="3" style="stroke:#038048;stroke-width:1;"/><text fill="#000000" font-family="sans-serif" font-size="14" lengthAdjust="spacing" textLength="239.5859" x="263.5" y="664.0732">SetPublishCallback(callback): void</text><polygon fill="#FFFF44" points="254.5,672.0234,258.5,676.0234,254.5,680.0234,250.5,676.0234" style="stroke:#B38D22;stroke-width:1;"/><text fill="#000000" font-family="sans-serif" font-size="14" lengthAdjust="spacing" textLength="137.9902" x="263.5" y="680.3701">PeriodicTask(): void</text></g><!--class gptp_engine--><g id="elem_gptp_engine"><rect codeLine="43" fill="#F5DEB3" height="96.8906" id="gptp_engine" rx="2.5" ry="2.5" style="stroke:#181818;stroke-width:0.5;" width="256.7881" x="7" y="764.1875"/><ellipse cx="89.0107" cy="780.1875" fill="#ADD1B2" rx="11" ry="11" style="stroke:#181818;stroke-width:1;"/><path d="M91.9795,785.8281 Q91.4014,786.125 90.7607,786.2656 Q90.1201,786.4219 89.417,786.4219 Q86.917,786.4219 85.5889,784.7813 Q84.2764,783.125 84.2764,780 Q84.2764,776.875 85.5889,775.2188 Q86.917,773.5625 89.417,773.5625 Q90.1201,773.5625 90.7607,773.7188 Q91.417,773.875 91.9795,774.1719 L91.9795,776.8906 Q91.3545,776.3125 90.7607,776.0469 Q90.167,775.7656 89.542,775.7656 Q88.1982,775.7656 87.5107,776.8438 Q86.8232,777.9063 86.8232,780 Q86.8232,782.0938 87.5107,783.1719 Q88.1982,784.2344 89.542,784.2344 Q90.167,784.2344 90.7607,783.9688 Q91.3545,783.6875 91.9795,783.1094 L91.9795,785.8281 Z " fill="#000000"/><text fill="#000000" font-family="sans-serif" font-size="14" lengthAdjust="spacing" textLength="84.2666" x="109.5107" y="785.0342">GPTPEngine</text><line style="stroke:#181818;stroke-width:0.5;" x1="8" x2="262.7881" y1="796.1875" y2="796.1875"/><line style="stroke:#181818;stroke-width:0.5;" x1="8" x2="262.7881" y1="804.1875" y2="804.1875"/><ellipse cx="18" cy="817.8359" fill="#84BE84" rx="3" ry="3" style="stroke:#038048;stroke-width:1;"/><text fill="#000000" font-family="sans-serif" font-size="14" lengthAdjust="spacing" textLength="108.5889" x="27" y="821.1826">Initialize(): bool</text><ellipse cx="18" cy="834.1328" fill="#84BE84" rx="3" ry="3" style="stroke:#038048;stroke-width:1;"/><text fill="#000000" font-family="sans-serif" font-size="14" lengthAdjust="spacing" textLength="127.4629" x="27" y="837.4795">Deinitialize(): void</text><ellipse cx="18" cy="850.4297" fill="#84BE84" rx="3" ry="3" style="stroke:#038048;stroke-width:1;"/><text fill="#000000" font-family="sans-serif" font-size="14" lengthAdjust="spacing" textLength="230.7881" x="27" y="853.7764">ReadPTPSnapshot(): PtpTimeInfo</text></g><g id="elem_GMN15"><path d="M299,792.6875 L299,808.6875 L264,812.6875 L299,816.6875 L299,832.9531 A0,0 0 0 0 299,832.9531 L507.7573,832.9531 A0,0 0 0 0 507.7573,832.9531 L507.7573,802.6875 L497.7573,792.6875 L299,792.6875 A0,0 0 0 0 299,792.6875 " fill="#FEFFDD" style="stroke:#181818;stroke-width:0.5;"/><path d="M497.7573,792.6875 L497.7573,802.6875 L507.7573,802.6875 L497.7573,792.6875 " fill="#FEFFDD" style="stroke:#181818;stroke-width:0.5;"/><text fill="#000000" font-family="sans-serif" font-size="13" lengthAdjust="spacing" textLength="187.7573" x="305" y="809.7544">Wrapps the platfrom specific</text><text fill="#000000" font-family="sans-serif" font-size="13" lengthAdjust="spacing" textLength="181.4858" x="305" y="824.8872">GPTP stack interaction logic</text></g><!--reverse link base_machine to proactive_machine--><g id="link_base_machine_proactive_machine"><path codeLine="49" d="M189.5,231.4275 C189.5,250.3475 189.5,254.9175 189.5,273.8475 " fill="transparent" id="base_machine-backto-proactive_machine" style="stroke:#181818;stroke-width:1;"/><polygon fill="transparent" points="189.5,213.4275,183.5,231.4275,195.5,231.4275,189.5,213.4275" style="stroke:#181818;stroke-width:1;"/></g><!--reverse link proactive_machine to periodic_machine--><g id="link_proactive_machine_periodic_machine"><path codeLine="50" d="M189.5,373.4275 C189.5,395.2575 189.5,403.9475 189.5,424.2975 " fill="transparent" id="proactive_machine-backto-periodic_machine" style="stroke:#181818;stroke-width:1;"/><polygon fill="transparent" points="189.5,355.4275,183.5,373.4275,195.5,373.4275,189.5,355.4275" style="stroke:#181818;stroke-width:1;"/></g><!--reverse link periodic_machine to ptp_machine--><g id="link_periodic_machine_ptp_machine"><path codeLine="51" d="M238.6436,500.7852 C260.9036,520.3052 276.83,534.2775 303.85,557.9775 " fill="transparent" id="periodic_machine-backto-ptp_machine" style="stroke:#181818;stroke-width:1;"/><polygon fill="transparent" points="225.11,488.9175,234.6877,505.2964,242.5995,496.274,225.11,488.9175" style="stroke:#181818;stroke-width:1;"/></g><!--reverse link producer to ptp_machine--><g id="link_producer_ptp_machine"><path codeLine="52" d="M417.7964,514.1908 C410.8064,532.3908 408.79,537.6175 400.95,558.0475 " fill="transparent" id="producer-backto-ptp_machine" style="stroke:#181818;stroke-width:1;stroke-dasharray:7.0,7.0;"/><polygon fill="transparent" points="424.25,497.3875,412.1953,512.0396,423.3975,516.342,424.25,497.3875" style="stroke:#181818;stroke-width:1;"/></g><!--reverse link ptp_machine to gptp_engine--><g id="link_ptp_machine_gptp_engine"><path codeLine="54" d="M285.4481,694.718 C253.2181,719.858 226.3,740.8575 196.43,764.1575 " fill="transparent" id="ptp_machine-backto-gptp_engine" style="stroke:#181818;stroke-width:1;"/><polygon fill="#181818" points="294.91,687.3375,287.7189,687.8738,285.4481,694.718,292.6392,694.1817,294.91,687.3375" style="stroke:#181818;stroke-width:1;"/><text fill="#000000" font-family="sans-serif" font-size="13" lengthAdjust="spacing" textLength="29.7832" x="257.5" y="730.2544">uses</text></g><!--link ptp_machine to time_info--><g id="link_ptp_machine_time_info"><path codeLine="56" d="M458.43,687.3375 C490.79,712.4775 522.5919,737.1764 552.5819,760.4764 " fill="transparent" id="ptp_machine-to-time_info" style="stroke:#181818;stroke-width:1;"/><polygon fill="#181818" points="557.32,764.1575,552.667,755.4771,553.3716,761.0899,547.7588,761.7945,557.32,764.1575" style="stroke:#181818;stroke-width:1;"/><text fill="#000000" font-family="sans-serif" font-size="13" lengthAdjust="spacing" textLength="59.96" x="512.5" y="730.2544">produces</text></g><!--SRC=[bLJ1Rjim3BthAuZcadL8JyCEHfP3aw7eOKEm1kZHO6JQ5YfRWiJqi6N_FacsKpj92qmdYIBv7iKdic9DiDrjVw2iLKiPh3Lw3nk5bSD624qLjGMmiQ2fP05X7R_1scZZOBI2RKDUEcLPcHRErx4BXENidbH5gz4DtACda16M_0U1ppKXJmAtR7lQ05S20- -ElH0fEzo4W9rgwB4jpGsW1mw7N8KJTBJWJqBxRDbcS50jV_tI6RIHgFFeFhLxHZxu3899_1K2zvuTIeOUBrRMCqnu-t3Ecvxo5FA1-2SsDF-KGSYXsgepFxQAesrlZBw6i7KcdDJh1COEndUmdXXTolfgL36OZ3rPhk6GKwPGSWBJswwZp8QG7VgN3rCxKnmakULkDR1FvtFInDl3NYjVhr7hFSgNkUmtuqfclTEyGCOCTYFW0UyazcNOVc-hiEkHsRxLakJMWoyeUUMgiJhFu1HssztQ3Z8V-0INyj3A-16kTF7_gddd4VjQ7avKKW5LhA3ZEYqWCL2erM-QyjYGcjoyAU8NOH6oFxLeVMqI_T7tYHmcQbuU5ujBuObBANQEPz8H5rhgtDuQ8awoM1xlxYOtOjotsn0sVeRmNyDOcVei5glHryy6nGMlrZ21KrNDOCfndlGcpmwj3LEZ9h0QkNIc0Mz9gbB9v13R4RvlQ6AS21HL7eUXDbLmY6CqvXV_0000]--></g></svg>