<svg xmlns="http://www.w3.org/2000/svg" xmlns:xlink="http://www.w3.org/1999/xlink" contentStyleType="text/css" data-diagram-type="SEQUENCE" height="526px" preserveAspectRatio="none" style="width:809px;height:526px;background:#FFFFFF;" version="1.1" viewBox="0 0 809 526" width="809px" zoomAndPan="magnify"><title>mw::time::svt: Providing new Vehicle Time to Applications</title><defs/><g><text fill="#000000" font-family="sans-serif" font-size="14" font-weight="bold" lengthAdjust="spacing" textLength="462.458" x="175.269" y="27.9951">mw::time::svt: Providing new Vehicle Time to Applications</text><rect fill="#E6FFE6" height="366.0547" style="stroke:#181818;stroke-width:0.5;" width="796.9961" x="1" y="147.4844"/><text fill="#000000" font-family="sans-serif" font-size="13" font-weight="bold" lengthAdjust="spacing" textLength="82.9194" x="355.7754" y="159.5513">Application</text><g><title>score::time::svt</title><rect fill="#FFFFFF" height="146.6641" style="stroke:#181818;stroke-width:1;" width="10" x="256.8496" y="363.875"/></g><g><title>score::time::svt</title><rect fill="#FFFFFF" height="38.1992" style="stroke:#181818;stroke-width:1;" width="10" x="261.8496" y="463.3398"/></g><g><title>shared_buffer</title><rect fill="#FFFFFF" height="29.1328" style="stroke:#181818;stroke-width:1;" width="10" x="438.6685" y="393.0078"/></g><g><title>IPCMachine:receiver</title><rect fill="#FFFFFF" height="29.1328" style="stroke:#181818;stroke-width:1;" width="10" x="710.5503" y="269.4766"/></g><rect fill="transparent" height="104.5313" style="stroke:#000000;stroke-width:1.5;" width="425.8218" x="378.1743" y="231.2109"/><g><title>Business logic</title><rect fill="transparent" height="305.3281" width="8" x="57.5571" y="214.2109"/><line style="stroke:#181818;stroke-width:0.5;stroke-dasharray:5.0,5.0;" x1="61" x2="61" y1="214.2109" y2="519.5391"/></g><g><title>score::time::svt</title><rect fill="transparent" height="305.3281" width="8" x="257.8496" y="214.2109"/><line style="stroke:#181818;stroke-width:0.5;stroke-dasharray:5.0,5.0;" x1="261.104" x2="261.104" y1="214.2109" y2="519.5391"/></g><g><title>shared_buffer</title><rect fill="transparent" height="305.3281" width="8" x="439.6685" y="214.2109"/><line style="stroke:#181818;stroke-width:0.5;stroke-dasharray:5.0,5.0;" x1="443.1743" x2="443.1743" y1="214.2109" y2="519.5391"/></g><g><title>worker</title><rect fill="transparent" height="305.3281" width="8" x="591.7588" y="214.2109"/><line style="stroke:#181818;stroke-width:0.5;stroke-dasharray:5.0,5.0;" x1="595.6348" x2="595.6348" y1="214.2109" y2="519.5391"/></g><g><title>IPCMachine:receiver</title><rect fill="transparent" height="305.3281" width="8" x="711.5503" y="214.2109"/><line style="stroke:#181818;stroke-width:0.5;stroke-dasharray:5.0,5.0;" x1="715.1045" x2="715.1045" y1="214.2109" y2="519.5391"/></g><rect fill="#FFA07A" height="30.2969" rx="2.5" ry="2.5" style="stroke:#181818;stroke-width:0.5;" width="113.1143" x="5" y="182.9141"/><text fill="#000000" font-family="sans-serif" font-size="14" lengthAdjust="spacing" textLength="99.1143" x="12" y="202.9092">Business logic</text><rect fill="#90EE90" height="30.2969" rx="2.5" ry="2.5" style="stroke:#181818;stroke-width:0.5;" width="123.4912" x="200.104" y="182.9141"/><text fill="#000000" font-family="sans-serif" font-size="14" lengthAdjust="spacing" textLength="109.4912" x="207.104" y="202.9092">score::time::svt</text><rect fill="#90EE90" height="30.2969" rx="2.5" ry="2.5" style="stroke:#181818;stroke-width:0.5;" width="110.9883" x="388.1743" y="182.9141"/><text fill="#000000" font-family="sans-serif" font-size="14" lengthAdjust="spacing" textLength="96.9883" x="395.1743" y="202.9092">shared_buffer</text><rect fill="#90EE90" height="46.5938" rx="2.5" ry="2.5" style="stroke:#181818;stroke-width:0.5;" width="62.248" x="564.6348" y="166.6172"/><text fill="#000000" font-family="sans-serif" font-size="14" lengthAdjust="spacing" textLength="48.248" x="571.6348" y="186.6123">worker</text><text fill="#000000" font-family="sans-serif" font-size="14" lengthAdjust="spacing" textLength="46.1973" x="572.6602" y="202.9092">thread</text><rect fill="#FFB6C1" height="30.2969" rx="2.5" ry="2.5" style="stroke:#181818;stroke-width:0.5;" width="156.8916" x="637.1045" y="182.9141"/><text fill="#000000" font-family="sans-serif" font-size="14" lengthAdjust="spacing" textLength="142.8916" x="644.1045" y="202.9092">IPCMachine:receiver</text><g><title>score::time::svt</title><rect fill="#FFFFFF" height="146.6641" style="stroke:#181818;stroke-width:1;" width="10" x="256.8496" y="363.875"/></g><g><title>score::time::svt</title><rect fill="#FFFFFF" height="38.1992" style="stroke:#181818;stroke-width:1;" width="10" x="261.8496" y="463.3398"/></g><g><title>shared_buffer</title><rect fill="#FFFFFF" height="29.1328" style="stroke:#181818;stroke-width:1;" width="10" x="438.6685" y="393.0078"/></g><g><title>IPCMachine:receiver</title><rect fill="#FFFFFF" height="29.1328" style="stroke:#181818;stroke-width:1;" width="10" x="710.5503" y="269.4766"/></g><path d="M378.1743,231.2109 L454.7983,231.2109 L454.7983,238.3438 L444.7983,248.3438 L378.1743,248.3438 L378.1743,231.2109 " fill="#EEEEEE" style="stroke:#000000;stroke-width:1.5;"/><rect fill="transparent" height="104.5313" style="stroke:#000000;stroke-width:1.5;" width="425.8218" x="378.1743" y="231.2109"/><text fill="#000000" font-family="sans-serif" font-size="13" font-weight="bold" lengthAdjust="spacing" textLength="31.624" x="393.1743" y="244.2778">loop</text><text fill="#000000" font-family="sans-serif" font-size="11" font-weight="bold" lengthAdjust="spacing" textLength="94.2466" x="469.7983" y="243.4214">[each 50 msec]</text><polygon fill="#181818" points="698.5503,265.4766,708.5503,269.4766,698.5503,273.4766,702.5503,269.4766" style="stroke:#181818;stroke-width:1;"/><line style="stroke:#181818;stroke-width:1;" x1="595.7588" x2="704.5503" y1="269.4766" y2="269.4766"/><text fill="#FF0000" font-family="sans-serif" font-size="13" font-weight="bold" lengthAdjust="spacing" textLength="29.9736" x="602.7588" y="264.4106">[01]</text><text fill="#000000" font-family="sans-serif" font-size="13" lengthAdjust="spacing" textLength="57.9351" x="636.7324" y="264.4106">receive()</text><polygon fill="#181818" points="606.7588,294.6094,596.7588,298.6094,606.7588,302.6094,602.7588,298.6094" style="stroke:#181818;stroke-width:1;"/><line style="stroke:#181818;stroke-width:1;stroke-dasharray:2.0,2.0;" x1="600.7588" x2="714.5503" y1="298.6094" y2="298.6094"/><text fill="#FF0000" font-family="sans-serif" font-size="13" font-weight="bold" lengthAdjust="spacing" textLength="29.9736" x="612.7588" y="293.5435">[02]</text><text fill="#000000" font-family="sans-serif" font-size="13" lengthAdjust="spacing" textLength="56.8179" x="646.7324" y="293.5435">TimeInfo</text><polygon fill="#181818" points="454.6685,323.7422,444.6685,327.7422,454.6685,331.7422,450.6685,327.7422" style="stroke:#181818;stroke-width:1;"/><line style="stroke:#181818;stroke-width:1;stroke-dasharray:2.0,2.0;" x1="448.6685" x2="594.7588" y1="327.7422" y2="327.7422"/><text fill="#FF0000" font-family="sans-serif" font-size="13" font-weight="bold" lengthAdjust="spacing" textLength="29.9736" x="460.6685" y="322.6763">[03]</text><text fill="#000000" font-family="sans-serif" font-size="13" lengthAdjust="spacing" textLength="94.1167" x="494.6421" y="322.6763">store TimeInfo</text><polygon fill="#181818" points="244.8496,359.875,254.8496,363.875,244.8496,367.875,248.8496,363.875" style="stroke:#181818;stroke-width:1;"/><line style="stroke:#181818;stroke-width:1;" x1="61.5571" x2="250.8496" y1="363.875" y2="363.875"/><text fill="#FF0000" font-family="sans-serif" font-size="13" font-weight="bold" lengthAdjust="spacing" textLength="29.9736" x="68.5571" y="358.8091">[04]</text><text fill="#000000" font-family="sans-serif" font-size="13" lengthAdjust="spacing" textLength="38.4541" x="102.5308" y="358.8091">Now()</text><polygon fill="#181818" points="426.6685,389.0078,436.6685,393.0078,426.6685,397.0078,430.6685,393.0078" style="stroke:#181818;stroke-width:1;"/><line style="stroke:#181818;stroke-width:1;" x1="266.8496" x2="432.6685" y1="393.0078" y2="393.0078"/><text fill="#FF0000" font-family="sans-serif" font-size="13" font-weight="bold" lengthAdjust="spacing" textLength="29.9736" x="273.8496" y="387.9419">[05]</text><text fill="#000000" font-family="sans-serif" font-size="13" lengthAdjust="spacing" textLength="39.7046" x="307.8232" y="387.9419">read()</text><polygon fill="#181818" points="277.8496,418.1406,267.8496,422.1406,277.8496,426.1406,273.8496,422.1406" style="stroke:#181818;stroke-width:1;"/><line style="stroke:#181818;stroke-width:1;stroke-dasharray:2.0,2.0;" x1="271.8496" x2="442.6685" y1="422.1406" y2="422.1406"/><text fill="#FF0000" font-family="sans-serif" font-size="13" font-weight="bold" lengthAdjust="spacing" textLength="29.9736" x="283.8496" y="417.0747">[06]</text><text fill="#000000" font-family="sans-serif" font-size="13" lengthAdjust="spacing" textLength="56.8179" x="317.8232" y="417.0747">TimeInfo</text><line style="stroke:#181818;stroke-width:1;" x1="266.8496" x2="313.8496" y1="450.3398" y2="450.3398"/><line style="stroke:#181818;stroke-width:1;" x1="313.8496" x2="313.8496" y1="450.3398" y2="463.3398"/><line style="stroke:#181818;stroke-width:1;" x1="272.8496" x2="313.8496" y1="463.3398" y2="463.3398"/><polygon fill="#181818" points="282.8496,459.3398,272.8496,463.3398,282.8496,467.3398,278.8496,463.3398" style="stroke:#181818;stroke-width:1;"/><text fill="#FF0000" font-family="sans-serif" font-size="13" font-weight="bold" lengthAdjust="spacing" textLength="29.9736" x="278.8496" y="445.2739">[07]</text><text fill="#000000" font-family="sans-serif" font-size="13" lengthAdjust="spacing" textLength="113.8452" x="312.8232" y="445.2739">handleNewData()</text><path d="M447.8188,435.1406 L447.8188,475.1406 L785.8188,475.1406 L785.8188,445.1406 L775.8188,435.1406 L447.8188,435.1406 " fill="#FEFFDD" style="stroke:#181818;stroke-width:0.5;"/><path d="M775.8188,435.1406 L775.8188,445.1406 L785.8188,445.1406 L775.8188,435.1406 " fill="#FEFFDD" style="stroke:#181818;stroke-width:0.5;"/><text fill="#000000" font-family="sans-serif" font-size="13" lengthAdjust="spacing" textLength="283.5244" x="453.8188" y="452.2075">Adjusts the ptp time with current local time</text><text fill="#000000" font-family="sans-serif" font-size="13" lengthAdjust="spacing" textLength="317.605" x="453.8188" y="467.3403">and provides the current time to the application.</text><polygon fill="#181818" points="72.5571,497.5391,62.5571,501.5391,72.5571,505.5391,68.5571,501.5391" style="stroke:#181818;stroke-width:1;"/><line style="stroke:#181818;stroke-width:1;stroke-dasharray:2.0,2.0;" x1="66.5571" x2="255.8496" y1="501.5391" y2="501.5391"/><text fill="#FF0000" font-family="sans-serif" font-size="13" font-weight="bold" lengthAdjust="spacing" textLength="29.9736" x="78.5571" y="496.4731">[08]</text><text fill="#000000" font-family="sans-serif" font-size="13" lengthAdjust="spacing" textLength="137.3188" x="112.5308" y="496.4731">Current Vehicle Time</text><rect fill="#DDDDDD" height="79.1875" id="_legend" rx="7.5" ry="7.5" style="stroke:#000000;stroke-width:1;" width="311.1709" x="12" y="54.2969"/><text fill="#000000" font-family="sans-serif" font-size="14" font-weight="bold" lengthAdjust="spacing" textLength="41.2139" x="21.874" y="74.292">Color</text><text fill="#000000" font-family="sans-serif" font-size="14" font-weight="bold" lengthAdjust="spacing" textLength="90.5488" x="106.9541" y="74.292">Description</text><rect fill="#FFB6C1" height="16.2969" style="stroke:transparent;stroke-width:1;" width="85.0801" x="17" y="77.5938"/><text fill="#000000" font-family="sans-serif" font-size="14" lengthAdjust="spacing" textLength="13.3506" x="17" y="90.5889">&#160;&#160;&#160;</text><text fill="#000000" font-family="sans-serif" font-size="14" lengthAdjust="spacing" textLength="113.292" x="106.5303" y="90.5889">IPC components</text><rect fill="#FFA07A" height="16.2969" style="stroke:transparent;stroke-width:1;" width="85.0801" x="17" y="93.8906"/><text fill="#000000" font-family="sans-serif" font-size="14" lengthAdjust="spacing" textLength="4.4502" x="17" y="106.8857">&#160;</text><text fill="#000000" font-family="sans-serif" font-size="14" lengthAdjust="spacing" textLength="123.2041" x="106.5303" y="106.8857">Client Application</text><rect fill="#90EE90" height="16.2969" style="stroke:transparent;stroke-width:1;" width="85.0801" x="17" y="110.1875"/><text fill="#000000" font-family="sans-serif" font-size="14" lengthAdjust="spacing" textLength="8.9004" x="17" y="123.1826">&#160;&#160;</text><text fill="#000000" font-family="sans-serif" font-size="14" lengthAdjust="spacing" textLength="171.5889" x="106.5303" y="123.1826">Middleware components</text><line style="stroke:#000000;stroke-width:1;" x1="17" x2="318.1709" y1="61.2969" y2="61.2969"/><line style="stroke:#000000;stroke-width:1;" x1="17" x2="318.1709" y1="77.5938" y2="77.5938"/><line style="stroke:#000000;stroke-width:1;" x1="17" x2="318.1709" y1="93.8906" y2="93.8906"/><line style="stroke:#000000;stroke-width:1;" x1="17" x2="318.1709" y1="110.1875" y2="110.1875"/><line style="stroke:#000000;stroke-width:1;" x1="17" x2="318.1709" y1="126.4844" y2="126.4844"/><line style="stroke:#000000;stroke-width:1;" x1="17" x2="17" y1="61.2969" y2="126.4844"/><line style="stroke:#000000;stroke-width:1;" x1="102.0801" x2="102.0801" y1="61.2969" y2="126.4844"/><line style="stroke:#000000;stroke-width:1;" x1="318.1709" x2="318.1709" y1="61.2969" y2="126.4844"/><!--SRC=[VPJ1Rjim38RlUWeYlMo73Bci1oCDqAN0K60j0cpOPHi2HQPZhR8aI7IyGnv-bEmazjf59rl-lvyKIPaq6OIcAmhI3HP5F501c-0EkjHs3nOx-8wrLYpwnW8W1_VU6wqaQMUZ4BKk4IhdQEV-225RShPjTXXWjgoS9L3Ek70Ni5mjTwiVYyMlMHP9HVeW2S5P8GpkqPRixS5WHG9u7UzWdL0O5hy_O5H1-nGONgrZJorllkXzJHjjNrRf7HutQywXySwYfNYT-YfDu-oAgRNHB1yVzV_Kvu3845DFkYmDTZBWMo6FWW_P7rK8hjR4_GPlgmflix6NWRJINd86iqzjr1PZ1EFsMir0Hf3UmpZXrr1KBk2efHbhkYq_mYZfDy2Qao-tkvQJ2IUgVxiETYwyOFXfgGueonFPxrudkK5FKjLyo2AWGdqO0ckljgSDk7Gr5H7oh1d7yuACmiS5D15Lzhv4dQyc7WKCJ-_UP-74VyxYCrdaKN-qbVlNiLVrzIWW4bVveirzJRtfLVacFRkEmmsLdzAfJlsteRxp4NSsdQ3vKotJ53rZzo19ie5rV8j2Aa_EzhxytKQUEgeHF7b8Cm2TfXfK6q8QQkEKD7a_0sm7FbzuxAcJZeRxdlRaPLG_v0wagEVaE3iM5B0UoF4VG_m5]--></g></svg>