<svg xmlns="http://www.w3.org/2000/svg" xmlns:xlink="http://www.w3.org/1999/xlink" contentStyleType="text/css" data-diagram-type="DESCRIPTION" height="899px" preserveAspectRatio="none" style="width:378px;height:899px;background:#FFFFFF;" version="1.1" viewBox="0 0 378 899" width="378px" zoomAndPan="magnify"><title>Deployment view</title><defs/><g><text fill="#000000" font-family="sans-serif" font-size="14" font-weight="bold" lengthAdjust="spacing" textLength="136.6504" x="113.6748" y="22.9951">Deployment view</text><!--cluster Application Layer--><g id="cluster_Application Layer"><polygon fill="transparent" points="35,650.2969,45,640.2969,249,640.2969,249,872.2969,239,882.2969,35,882.2969,35,650.2969" style="stroke:#181818;stroke-width:1;"/><line style="stroke:#181818;stroke-width:1;" x1="239" x2="249" y1="650.2969" y2="640.2969"/><line style="stroke:#181818;stroke-width:1;" x1="35" x2="239" y1="650.2969" y2="650.2969"/><line style="stroke:#181818;stroke-width:1;" x1="239" x2="239" y1="650.2969" y2="882.2969"/><text fill="#000000" font-family="sans-serif" font-size="14" font-weight="bold" lengthAdjust="spacing" textLength="138.0654" x="68.9673" y="666.292">Application Layer</text></g><!--cluster PTP Daemon--><g id="cluster_PTP Daemon"><polygon fill="transparent" points="20,53.2969,30,43.2969,195,43.2969,195,152.2969,185,162.2969,20,162.2969,20,53.2969" style="stroke:#181818;stroke-width:1;"/><line style="stroke:#181818;stroke-width:1;" x1="185" x2="195" y1="53.2969" y2="43.2969"/><line style="stroke:#181818;stroke-width:1;" x1="20" x2="185" y1="53.2969" y2="53.2969"/><line style="stroke:#181818;stroke-width:1;" x1="185" x2="185" y1="53.2969" y2="162.2969"/><text fill="#000000" font-family="sans-serif" font-size="14" font-weight="bold" lengthAdjust="spacing" textLength="99.6816" x="53.6592" y="69.292">PTP Daemon</text></g><!--cluster VehicleTimeDaemon--><g id="cluster_VehicleTimeDaemon"><polygon fill="transparent" points="16,236.2969,26,226.2969,361,226.2969,361,581.2969,351,591.2969,16,591.2969,16,236.2969" style="stroke:#181818;stroke-width:1;"/><line style="stroke:#181818;stroke-width:1;" x1="351" x2="361" y1="236.2969" y2="226.2969"/><line style="stroke:#181818;stroke-width:1;" x1="16" x2="351" y1="236.2969" y2="236.2969"/><line style="stroke:#181818;stroke-width:1;" x1="351" x2="351" y1="236.2969" y2="591.2969"/><text fill="#000000" font-family="sans-serif" font-size="14" font-weight="bold" lengthAdjust="spacing" textLength="160.8564" x="104.0718" y="252.292">VehicleTimeDaemon</text></g><!--entity app_bl--><g id="elem_app_bl"><rect fill="#F1F1F1" height="46.2969" rx="2.5" ry="2.5" style="stroke:#181818;stroke-width:0.5;" width="139.1143" x="70.5" y="820.2969"/><rect fill="#F1F1F1" height="10" style="stroke:#181818;stroke-width:0.5;" width="15" x="189.6143" y="825.2969"/><rect fill="#F1F1F1" height="2" style="stroke:#181818;stroke-width:0.5;" width="4" x="187.6143" y="827.2969"/><rect fill="#F1F1F1" height="2" style="stroke:#181818;stroke-width:0.5;" width="4" x="187.6143" y="831.2969"/><text fill="#000000" font-family="sans-serif" font-size="14" lengthAdjust="spacing" textLength="99.1143" x="85.5" y="853.292">Business logic</text></g><!--entity mw--><g id="elem_mw"><rect fill="#F1F1F1" height="62.5938" rx="2.5" ry="2.5" style="stroke:#181818;stroke-width:0.5;" width="136.6533" x="71.5" y="680.2969"/><rect fill="#F1F1F1" height="10" style="stroke:#181818;stroke-width:0.5;" width="15" x="188.1533" y="685.2969"/><rect fill="#F1F1F1" height="2" style="stroke:#181818;stroke-width:0.5;" width="4" x="186.1533" y="687.2969"/><rect fill="#F1F1F1" height="2" style="stroke:#181818;stroke-width:0.5;" width="4" x="186.1533" y="691.2969"/><text fill="#000000" font-family="sans-serif" font-size="14" font-style="italic" lengthAdjust="spacing" textLength="62.3232" x="103.665" y="713.292">&#171;library&#187;</text><text fill="#000000" font-family="sans-serif" font-size="14" lengthAdjust="spacing" textLength="96.6533" x="86.5" y="729.5889">mw::time::svt</text></g><!--entity ptpd--><g id="elem_ptpd"><rect fill="#F1F1F1" height="62.5938" rx="2.5" ry="2.5" style="stroke:#181818;stroke-width:0.5;" width="116.4365" x="39" y="83.2969"/><rect fill="#F1F1F1" height="10" style="stroke:#181818;stroke-width:0.5;" width="15" x="135.4365" y="88.2969"/><rect fill="#F1F1F1" height="2" style="stroke:#181818;stroke-width:0.5;" width="4" x="133.4365" y="90.2969"/><rect fill="#F1F1F1" height="2" style="stroke:#181818;stroke-width:0.5;" width="4" x="133.4365" y="94.2969"/><text fill="#000000" font-family="sans-serif" font-size="14" font-style="italic" lengthAdjust="spacing" textLength="74.4365" x="55" y="116.292">&#171;daemon&#187;</text><text fill="#000000" font-family="sans-serif" font-size="14" lengthAdjust="spacing" textLength="32.1494" x="76.1436" y="132.5889">ptpd</text></g><!--entity msg_broker--><g id="elem_msg_broker"><rect fill="#F1F1F1" height="46.2969" rx="2.5" ry="2.5" style="stroke:#181818;stroke-width:0.5;" width="147.7617" x="197" y="266.2969"/><rect fill="#F1F1F1" height="10" style="stroke:#181818;stroke-width:0.5;" width="15" x="324.7617" y="271.2969"/><rect fill="#F1F1F1" height="2" style="stroke:#181818;stroke-width:0.5;" width="4" x="322.7617" y="273.2969"/><rect fill="#F1F1F1" height="2" style="stroke:#181818;stroke-width:0.5;" width="4" x="322.7617" y="277.2969"/><text fill="#000000" font-family="sans-serif" font-size="14" lengthAdjust="spacing" textLength="107.7617" x="212" y="299.292">MessageBroker</text></g><!--entity verification_machine--><g id="elem_verification_machine"><rect fill="#F1F1F1" height="46.2969" rx="2.5" ry="2.5" style="stroke:#181818;stroke-width:0.5;" width="178.3525" x="41" y="389.2969"/><rect fill="#F1F1F1" height="10" style="stroke:#181818;stroke-width:0.5;" width="15" x="199.3525" y="394.2969"/><rect fill="#F1F1F1" height="2" style="stroke:#181818;stroke-width:0.5;" width="4" x="197.3525" y="396.2969"/><rect fill="#F1F1F1" height="2" style="stroke:#181818;stroke-width:0.5;" width="4" x="197.3525" y="400.2969"/><text fill="#000000" font-family="sans-serif" font-size="14" lengthAdjust="spacing" textLength="138.3525" x="56" y="422.292">VerificationMachine</text></g><!--entity ptp_machine--><g id="elem_ptp_machine"><rect fill="#F1F1F1" height="46.2969" rx="2.5" ry="2.5" style="stroke:#181818;stroke-width:0.5;" width="130.0498" x="32" y="266.2969"/><rect fill="#F1F1F1" height="10" style="stroke:#181818;stroke-width:0.5;" width="15" x="142.0498" y="271.2969"/><rect fill="#F1F1F1" height="2" style="stroke:#181818;stroke-width:0.5;" width="4" x="140.0498" y="273.2969"/><rect fill="#F1F1F1" height="2" style="stroke:#181818;stroke-width:0.5;" width="4" x="140.0498" y="277.2969"/><text fill="#000000" font-family="sans-serif" font-size="14" lengthAdjust="spacing" textLength="90.0498" x="47" y="299.292">PTP machine</text></g><!--entity ipc--><g id="elem_ipc"><rect fill="#F1F1F1" height="62.5938" rx="2.5" ry="2.5" style="stroke:#181818;stroke-width:0.5;" width="214.9082" x="32.5" y="512.2969"/><rect fill="#F1F1F1" height="10" style="stroke:#181818;stroke-width:0.5;" width="15" x="227.4082" y="517.2969"/><rect fill="#F1F1F1" height="2" style="stroke:#181818;stroke-width:0.5;" width="4" x="225.4082" y="519.2969"/><rect fill="#F1F1F1" height="2" style="stroke:#181818;stroke-width:0.5;" width="4" x="225.4082" y="523.2969"/><text fill="#000000" font-family="sans-serif" font-size="14" font-style="italic" lengthAdjust="spacing" textLength="172.9082" x="48.5" y="545.292">&#171;score::communication&#187;</text><text fill="#000000" font-family="sans-serif" font-size="14" lengthAdjust="spacing" textLength="22.3467" x="123.7808" y="561.5889">IPC</text></g><!--link ptpd to ptp_machine--><g id="link_ptpd_ptp_machine"><path d="M97,146.6369 C97,181.0369 97,229.8369 97,260.2069 " fill="transparent" id="ptpd-to-ptp_machine" style="stroke:#0000FF;stroke-width:1;"/><polygon fill="#0000FF" points="97,266.2069,101,257.2069,97,261.2069,93,257.2069,97,266.2069" style="stroke:#0000FF;stroke-width:1;"/><text fill="#000000" font-family="sans-serif" font-size="13" lengthAdjust="spacing" textLength="113.8325" x="118.2871" y="191.3638">PTP time updates</text><text fill="#000000" font-family="sans-serif" font-size="13" lengthAdjust="spacing" textLength="154.4067" x="98" y="206.4966">(via shmem and devctl)</text></g><!--link ptp_machine to verification_machine--><g id="link_ptp_machine_verification_machine"><path d="M103.05,312.4869 C109.01,334.3269 116.4595,361.6688 122.4095,383.4588 " fill="transparent" id="ptp_machine-to-verification_machine" style="stroke:#008000;stroke-width:1;"/><polygon fill="#008000" points="123.99,389.2469,125.478,379.5111,122.6729,384.4235,117.7605,381.6184,123.99,389.2469" style="stroke:#008000;stroke-width:1;"/><text fill="#000000" font-family="sans-serif" font-size="13" lengthAdjust="spacing" textLength="111.6045" x="116" y="355.3638">Time information</text></g><!--link verification_machine to ipc--><g id="link_verification_machine_ipc"><path d="M131.72,435.5569 C133.35,456.6769 135.3471,482.6048 137.1671,506.1248 " fill="transparent" id="verification_machine-to-ipc" style="stroke:#008000;stroke-width:1;"/><polygon fill="#008000" points="137.63,512.1069,140.9237,502.8251,137.2442,507.1218,132.9476,503.4423,137.63,512.1069" style="stroke:#008000;stroke-width:1;"/><text fill="#000000" font-family="sans-serif" font-size="13" lengthAdjust="spacing" textLength="111.6045" x="136" y="478.3638">Time information</text></g><!--link ipc to mw--><g id="link_ipc_mw"><path d="M140,575.6269 C140,605.4469 140,644.3669 140,674.1269 " fill="transparent" id="ipc-to-mw" style="stroke:#008000;stroke-width:1;"/><polygon fill="#008000" points="140,680.1269,144,671.1269,140,675.1269,136,671.1269,140,680.1269" style="stroke:#008000;stroke-width:1;"/><text fill="#000000" font-family="sans-serif" font-size="13" lengthAdjust="spacing" textLength="111.6045" x="141" y="620.3638">Time information</text></g><!--link mw to app_bl--><g id="link_mw_app_bl"><path d="M140,743.4869 C140,766.9769 140,792.8169 140,813.9269 " fill="transparent" id="mw-to-app_bl" style="stroke:#FFA500;stroke-width:1;"/><polygon fill="#FFA500" points="140,819.9269,144,810.9269,140,814.9269,136,810.9269,140,819.9269" style="stroke:#FFA500;stroke-width:1;"/><text fill="#000000" font-family="sans-serif" font-size="13" lengthAdjust="spacing" textLength="38.4541" x="141" y="786.3638">Now()</text></g><!--SRC=[RL91Ri8m4Bpx5IjwWGCVY11IAPTAfUA0kD08ESwIMFNQbkqaGbN_NZkc25fyy-xCxCpQGGQ5i4Qhp9bG1-Wb3enfKoDCdgrLKl0WZOOtVaOtWIy6yHnMdPSQlGTb6YbAu1wujSTAvJODHH4aOL7uFfImM2XPEUxEosL2qi2-BnEskosiEPBHLsaRR9qezLZEZ5IxSlROIg5m5_N_K3VH4MzmvSmdkXB6MRuvLkCzG_RevEcIQSD56rDaO7_JE5BkP4hoIB_GREOUyBfzIOQzC2uc5eQeqnUbR5zQ4Tspb0BcXwTATLZEbxT2K40QatO6dQrvGF-Xfxtau5j20gvhgB4NGStOBIsgDGvH9xb72Gf8QmAfJyRHs66FO7SwqUq3MgpUeU8J_mVH4276STsC0VENYDdUpJ2TiHy0]--></g></svg>