<svg xmlns="http://www.w3.org/2000/svg" xmlns:xlink="http://www.w3.org/1999/xlink" contentStyleType="text/css" data-diagram-type="SEQUENCE" height="741px" preserveAspectRatio="none" style="width:983px;height:741px;background:#FFFFFF;" version="1.1" viewBox="0 0 983 741" width="983px" zoomAndPan="magnify"><title>MessageBroker: Initialization Sequence</title><defs/><g><text fill="#000000" font-family="sans-serif" font-size="14" font-weight="bold" lengthAdjust="spacing" textLength="313.3115" x="331.2896" y="27.9951">MessageBroker: Initialization Sequence</text><g><title>TimeBaseHandler</title><rect fill="#FFFFFF" height="31.2969" style="stroke:#181818;stroke-width:1;" width="10" x="68.9541" y="262.0469"/></g><g><title>TimeBaseHandler</title><rect fill="#FFFFFF" height="124.7969" style="stroke:#181818;stroke-width:1;" width="10" x="68.9541" y="365.6094"/></g><g><title>TimeBaseHandler</title><rect fill="#FFFFFF" height="153.9297" style="stroke:#181818;stroke-width:1;" width="10" x="68.9541" y="562.6719"/></g><g><title>MessageBroker</title><rect fill="#FFFFFF" height="31.2969" style="stroke:#181818;stroke-width:1;" width="10" x="344.7983" y="262.0469"/></g><g><title>MessageBroker</title><rect fill="#FFFFFF" height="124.7969" style="stroke:#181818;stroke-width:1;" width="10" x="344.7983" y="365.6094"/></g><g><title>MessageBroker</title><rect fill="#FFFFFF" height="153.9297" style="stroke:#181818;stroke-width:1;" width="10" x="344.7983" y="562.6719"/></g><g><title>Producer</title><rect fill="#FFFFFF" height="62.3984" style="stroke:#181818;stroke-width:1;" width="10" x="670.0381" y="625.0703"/></g><g><title>TimeBaseHandler</title><rect fill="transparent" height="556.8203" width="8" x="69.9541" y="177.7813"/><line style="stroke:#181818;stroke-width:0.5;stroke-dasharray:5.0,5.0;" x1="73" x2="73" y1="177.7813" y2="734.6016"/></g><g><title>MessageBroker</title><rect fill="transparent" height="473.0391" width="8" x="345.7983" y="261.5625"/><line style="stroke:#181818;stroke-width:0.5;stroke-dasharray:5.0,5.0;" x1="348.9175" x2="348.9175" y1="261.5625" y2="734.6016"/></g><g><title>Producer</title><rect fill="transparent" height="556.8203" width="8" x="671.0381" y="177.7813"/><line style="stroke:#181818;stroke-width:0.5;stroke-dasharray:5.0,5.0;" x1="674.7432" x2="674.7432" y1="177.7813" y2="734.6016"/></g><rect fill="#E0FFFF" height="30.2969" rx="2.5" ry="2.5" style="stroke:#181818;stroke-width:0.5;" width="137.9082" x="5" y="146.4844"/><text fill="#000000" font-family="sans-serif" font-size="14" lengthAdjust="spacing" textLength="123.9082" x="12" y="166.4795">TimeBaseHandler</text><rect fill="#F5F5DC" height="30.2969" rx="2.5" ry="2.5" style="stroke:#181818;stroke-width:0.5;" width="76.5898" x="636.7432" y="146.4844"/><text fill="#000000" font-family="sans-serif" font-size="14" lengthAdjust="spacing" textLength="62.5898" x="643.7432" y="166.4795">Producer</text><g><title>TimeBaseHandler</title><rect fill="#FFFFFF" height="31.2969" style="stroke:#181818;stroke-width:1;" width="10" x="68.9541" y="262.0469"/></g><g><title>TimeBaseHandler</title><rect fill="#FFFFFF" height="124.7969" style="stroke:#181818;stroke-width:1;" width="10" x="68.9541" y="365.6094"/></g><g><title>TimeBaseHandler</title><rect fill="#FFFFFF" height="153.9297" style="stroke:#181818;stroke-width:1;" width="10" x="68.9541" y="562.6719"/></g><g><title>MessageBroker</title><rect fill="#FFFFFF" height="31.2969" style="stroke:#181818;stroke-width:1;" width="10" x="344.7983" y="262.0469"/></g><g><title>MessageBroker</title><rect fill="#FFFFFF" height="124.7969" style="stroke:#181818;stroke-width:1;" width="10" x="344.7983" y="365.6094"/></g><g><title>MessageBroker</title><rect fill="#FFFFFF" height="153.9297" style="stroke:#181818;stroke-width:1;" width="10" x="344.7983" y="562.6719"/></g><g><title>Producer</title><rect fill="#FFFFFF" height="62.3984" style="stroke:#181818;stroke-width:1;" width="10" x="670.0381" y="625.0703"/></g><rect fill="#EEEEEE" height="3" style="stroke:#EEEEEE;stroke-width:1;" width="976.8906" x="0" y="208.3477"/><line style="stroke:#000000;stroke-width:1;" x1="0" x2="976.8906" y1="208.3477" y2="208.3477"/><line style="stroke:#000000;stroke-width:1;" x1="0" x2="976.8906" y1="211.3477" y2="211.3477"/><rect fill="#EEEEEE" height="23.1328" style="stroke:#000000;stroke-width:2;" width="230.2075" x="373.3416" y="197.7813"/><text fill="#000000" font-family="sans-serif" font-size="13" font-weight="bold" lengthAdjust="spacing" textLength="211.6816" x="379.3416" y="213.8481">MessageBroker Construction</text><polygon fill="#181818" points="276.9175,248.0469,286.9175,252.0469,276.9175,256.0469,280.9175,252.0469" style="stroke:#181818;stroke-width:1;"/><line style="stroke:#181818;stroke-width:1;" x1="73.9541" x2="282.9175" y1="252.0469" y2="252.0469"/><text fill="#FF0000" font-family="sans-serif" font-size="13" font-weight="bold" lengthAdjust="spacing" textLength="29.9736" x="80.9541" y="246.981">[01]</text><text fill="#000000" font-family="sans-serif" font-size="13" lengthAdjust="spacing" textLength="51.6953" x="114.9277" y="246.981">create()</text><rect fill="#AFEEEE" height="30.2969" rx="2.5" ry="2.5" style="stroke:#181818;stroke-width:0.5;" width="121.7617" x="288.9175" y="230.9141"/><text fill="#000000" font-family="sans-serif" font-size="14" lengthAdjust="spacing" textLength="107.7617" x="295.9175" y="250.9092">MessageBroker</text><polygon fill="#181818" points="84.9541,289.3438,74.9541,293.3438,84.9541,297.3438,80.9541,293.3438" style="stroke:#181818;stroke-width:1;"/><line style="stroke:#181818;stroke-width:1;stroke-dasharray:2.0,2.0;" x1="78.9541" x2="348.7983" y1="293.3438" y2="293.3438"/><text fill="#FF0000" font-family="sans-serif" font-size="13" font-weight="bold" lengthAdjust="spacing" textLength="29.9736" x="90.9541" y="288.2778">[02]</text><text fill="#000000" font-family="sans-serif" font-size="13" lengthAdjust="spacing" textLength="4.1323" x="124.9277" y="288.2778">&#160;</text><rect fill="#EEEEEE" height="3" style="stroke:#EEEEEE;stroke-width:1;" width="976.8906" x="0" y="321.9102"/><line style="stroke:#000000;stroke-width:1;" x1="0" x2="976.8906" y1="321.9102" y2="321.9102"/><line style="stroke:#000000;stroke-width:1;" x1="0" x2="976.8906" y1="324.9102" y2="324.9102"/><rect fill="#EEEEEE" height="23.1328" style="stroke:#000000;stroke-width:2;" width="166.1406" x="405.375" y="311.3438"/><text fill="#000000" font-family="sans-serif" font-size="13" font-weight="bold" lengthAdjust="spacing" textLength="147.6147" x="411.375" y="327.4106">Setup Subscriptions</text><polygon fill="#181818" points="332.7983,361.6094,342.7983,365.6094,332.7983,369.6094,336.7983,365.6094" style="stroke:#181818;stroke-width:1;"/><line style="stroke:#181818;stroke-width:1;" x1="78.9541" x2="338.7983" y1="365.6094" y2="365.6094"/><text fill="#FF0000" font-family="sans-serif" font-size="13" font-weight="bold" lengthAdjust="spacing" textLength="29.9736" x="85.9541" y="360.5435">[03]</text><text fill="#000000" font-family="sans-serif" font-size="13" lengthAdjust="spacing" textLength="217.8706" x="119.9277" y="360.5435">AddSubscriber(topic, Consumer*)</text><line style="stroke:#181818;stroke-width:1;" x1="354.7983" x2="396.7983" y1="421.5078" y2="421.5078"/><line style="stroke:#181818;stroke-width:1;" x1="396.7983" x2="396.7983" y1="421.5078" y2="434.5078"/><line style="stroke:#181818;stroke-width:1;" x1="355.7983" x2="396.7983" y1="434.5078" y2="434.5078"/><polygon fill="#181818" points="365.7983,430.5078,355.7983,434.5078,365.7983,438.5078,361.7983,434.5078" style="stroke:#181818;stroke-width:1;"/><text fill="#FF0000" font-family="sans-serif" font-size="13" font-weight="bold" lengthAdjust="spacing" textLength="29.9736" x="361.7983" y="416.4419">[04]</text><text fill="#000000" font-family="sans-serif" font-size="13" lengthAdjust="spacing" textLength="118.0728" x="395.772" y="416.4419">Store subscription</text><path d="M535.0464,378.6094 L535.0464,463.6094 L809.0464,463.6094 L809.0464,388.6094 L799.0464,378.6094 L535.0464,378.6094 " fill="#FEFFDD" style="stroke:#181818;stroke-width:0.5;"/><path d="M799.0464,378.6094 L799.0464,388.6094 L809.0464,388.6094 L799.0464,378.6094 " fill="#FEFFDD" style="stroke:#181818;stroke-width:0.5;"/><text fill="#000000" font-family="sans-serif" font-size="13" lengthAdjust="spacing" textLength="193.6353" x="541.0464" y="395.6763">Register Consumer to receive</text><text fill="#000000" font-family="sans-serif" font-size="13" lengthAdjust="spacing" textLength="125.8486" x="541.0464" y="410.8091">messages on topic.</text><text fill="#000000" font-family="sans-serif" font-size="13" lengthAdjust="spacing" textLength="253.1763" x="541.0464" y="425.9419">All sw components, who are interested</text><text fill="#000000" font-family="sans-serif" font-size="13" lengthAdjust="spacing" textLength="194.3018" x="541.0464" y="441.0747">in "particular" topic should be</text><text fill="#000000" font-family="sans-serif" font-size="13" lengthAdjust="spacing" textLength="104.5142" x="541.0464" y="456.2075">registered here.</text><polygon fill="#181818" points="84.9541,486.4063,74.9541,490.4063,84.9541,494.4063,80.9541,490.4063" style="stroke:#181818;stroke-width:1;"/><line style="stroke:#181818;stroke-width:1;stroke-dasharray:2.0,2.0;" x1="78.9541" x2="348.7983" y1="490.4063" y2="490.4063"/><text fill="#FF0000" font-family="sans-serif" font-size="13" font-weight="bold" lengthAdjust="spacing" textLength="29.9736" x="90.9541" y="485.3403">[05]</text><text fill="#000000" font-family="sans-serif" font-size="13" lengthAdjust="spacing" textLength="4.1323" x="124.9277" y="485.3403">&#160;</text><rect fill="#EEEEEE" height="3" style="stroke:#EEEEEE;stroke-width:1;" width="976.8906" x="0" y="518.9727"/><line style="stroke:#000000;stroke-width:1;" x1="0" x2="976.8906" y1="518.9727" y2="518.9727"/><line style="stroke:#000000;stroke-width:1;" x1="0" x2="976.8906" y1="521.9727" y2="521.9727"/><rect fill="#EEEEEE" height="23.1328" style="stroke:#000000;stroke-width:2;" width="140.1089" x="418.3909" y="508.4063"/><text fill="#000000" font-family="sans-serif" font-size="13" font-weight="bold" lengthAdjust="spacing" textLength="121.583" x="424.3909" y="524.4731">Setup Producers</text><polygon fill="#181818" points="332.7983,558.6719,342.7983,562.6719,332.7983,566.6719,336.7983,562.6719" style="stroke:#181818;stroke-width:1;"/><line style="stroke:#181818;stroke-width:1;" x1="78.9541" x2="338.7983" y1="562.6719" y2="562.6719"/><text fill="#FF0000" font-family="sans-serif" font-size="13" font-weight="bold" lengthAdjust="spacing" textLength="29.9736" x="85.9541" y="557.606">[06]</text><text fill="#000000" font-family="sans-serif" font-size="13" lengthAdjust="spacing" textLength="204.585" x="119.9277" y="557.606">AddProducer("topic, Producer*)</text><polygon fill="#181818" points="658.0381,621.0703,668.0381,625.0703,658.0381,629.0703,662.0381,625.0703" style="stroke:#181818;stroke-width:1;"/><line style="stroke:#181818;stroke-width:1;" x1="354.7983" x2="664.0381" y1="625.0703" y2="625.0703"/><text fill="#FF0000" font-family="sans-serif" font-size="13" font-weight="bold" lengthAdjust="spacing" textLength="29.9736" x="361.7983" y="620.0044">[07]</text><text fill="#000000" font-family="sans-serif" font-size="13" lengthAdjust="spacing" textLength="262.2661" x="395.772" y="620.0044">SetPublishCallback(broker::OnNewData)</text><path d="M685,575.6719 L685,660.6719 L971,660.6719 L971,585.6719 L961,575.6719 L685,575.6719 " fill="#FEFFDD" style="stroke:#181818;stroke-width:0.5;"/><path d="M961,575.6719 L961,585.6719 L971,585.6719 L961,575.6719 " fill="#FEFFDD" style="stroke:#181818;stroke-width:0.5;"/><text fill="#000000" font-family="sans-serif" font-size="13" lengthAdjust="spacing" textLength="190.9058" x="691" y="592.7388">Register Producer to callback</text><text fill="#000000" font-family="sans-serif" font-size="13" lengthAdjust="spacing" textLength="117.5396" x="691" y="607.8716">to publish to topic</text><text fill="#000000" font-family="sans-serif" font-size="13" lengthAdjust="spacing" textLength="265.8525" x="691" y="623.0044">All sw components, who are contributing</text><text fill="#000000" font-family="sans-serif" font-size="13" lengthAdjust="spacing" textLength="194.3018" x="691" y="638.1372">in "particular" topic should be</text><text fill="#000000" font-family="sans-serif" font-size="13" lengthAdjust="spacing" textLength="104.5142" x="691" y="653.27">registered here.</text><polygon fill="#181818" points="365.7983,683.4688,355.7983,687.4688,365.7983,691.4688,361.7983,687.4688" style="stroke:#181818;stroke-width:1;"/><line style="stroke:#181818;stroke-width:1;stroke-dasharray:2.0,2.0;" x1="359.7983" x2="674.0381" y1="687.4688" y2="687.4688"/><text fill="#FF0000" font-family="sans-serif" font-size="13" font-weight="bold" lengthAdjust="spacing" textLength="29.9736" x="371.7983" y="682.4028">[08]</text><text fill="#000000" font-family="sans-serif" font-size="13" lengthAdjust="spacing" textLength="4.1323" x="405.772" y="682.4028">&#160;</text><polygon fill="#181818" points="84.9541,712.6016,74.9541,716.6016,84.9541,720.6016,80.9541,716.6016" style="stroke:#181818;stroke-width:1;"/><line style="stroke:#181818;stroke-width:1;stroke-dasharray:2.0,2.0;" x1="78.9541" x2="348.7983" y1="716.6016" y2="716.6016"/><text fill="#FF0000" font-family="sans-serif" font-size="13" font-weight="bold" lengthAdjust="spacing" textLength="29.9736" x="90.9541" y="711.5356">[09]</text><text fill="#000000" font-family="sans-serif" font-size="13" lengthAdjust="spacing" textLength="4.1323" x="124.9277" y="711.5356">&#160;</text><rect fill="#DDDDDD" height="79.1875" id="_legend" rx="7.5" ry="7.5" style="stroke:#000000;stroke-width:1;" width="317.5625" x="12" y="54.2969"/><text fill="#000000" font-family="sans-serif" font-size="14" font-weight="bold" lengthAdjust="spacing" textLength="41.2139" x="21.874" y="74.292">Color</text><text fill="#000000" font-family="sans-serif" font-size="14" font-weight="bold" lengthAdjust="spacing" textLength="90.5488" x="106.9541" y="74.292">Description</text><rect fill="#E0FFFF" height="16.2969" style="stroke:transparent;stroke-width:1;" width="85.0801" x="17" y="77.5938"/><text fill="#000000" font-family="sans-serif" font-size="14" lengthAdjust="spacing" textLength="13.3506" x="17" y="90.5889">&#160;&#160;&#160;</text><text fill="#000000" font-family="sans-serif" font-size="14" lengthAdjust="spacing" textLength="164.6299" x="106.5303" y="90.5889">TimeDaemon members</text><rect fill="#AFEEEE" height="16.2969" style="stroke:transparent;stroke-width:1;" width="85.0801" x="17" y="93.8906"/><text fill="#000000" font-family="sans-serif" font-size="14" lengthAdjust="spacing" textLength="4.4502" x="17" y="106.8857">&#160;</text><text fill="#000000" font-family="sans-serif" font-size="14" lengthAdjust="spacing" textLength="107.7617" x="106.5303" y="106.8857">MessageBroker</text><rect fill="#F5F5DC" height="16.2969" style="stroke:transparent;stroke-width:1;" width="85.0801" x="17" y="110.1875"/><text fill="#000000" font-family="sans-serif" font-size="14" lengthAdjust="spacing" textLength="31.1514" x="17" y="123.1826">&#160;&#160;&#160;&#160;&#160;&#160;&#160;</text><text fill="#000000" font-family="sans-serif" font-size="14" lengthAdjust="spacing" textLength="89.2021" x="106.5303" y="123.1826">Base classes</text><line style="stroke:#000000;stroke-width:1;" x1="17" x2="324.5625" y1="61.2969" y2="61.2969"/><line style="stroke:#000000;stroke-width:1;" x1="17" x2="324.5625" y1="77.5938" y2="77.5938"/><line style="stroke:#000000;stroke-width:1;" x1="17" x2="324.5625" y1="93.8906" y2="93.8906"/><line style="stroke:#000000;stroke-width:1;" x1="17" x2="324.5625" y1="110.1875" y2="110.1875"/><line style="stroke:#000000;stroke-width:1;" x1="17" x2="324.5625" y1="126.4844" y2="126.4844"/><line style="stroke:#000000;stroke-width:1;" x1="17" x2="17" y1="61.2969" y2="126.4844"/><line style="stroke:#000000;stroke-width:1;" x1="102.0801" x2="102.0801" y1="61.2969" y2="126.4844"/><line style="stroke:#000000;stroke-width:1;" x1="324.5625" x2="324.5625" y1="61.2969" y2="126.4844"/><!--SRC=[hLJBRjim4BppAnRgnJNY86V14X3RXnRemwXpAug2ejOI4OfK-8ZR8XzVFYH7JcC4GQE38H8pkpCxQrbk1S9dD8OskDBg5dKE7oMtd0h-Xrgk9Epmpg5aI4ZBQuIzKhPIlmYXpYhfkWerPCkzaXQO4aeN6kjoMPNVhwv-P8G8R53MO5KF0lUMW7yU2bW7A0oFFs_GCCtxsF2Vvo6nbky-yQQrwzzKbk4CDxp33SNESpeCGioph2qLUEFqdLFSOEbv9txFzLeXRx0SRs553G8Jr1Wqpodq9fDLGdggBMUyftuaMT0Ok1ze0EWCg05R_MpJ4HujdT9E94PIbTIUkZabRRMg7Hlm_N20v8IGedXYVAsaiTgnEFIY86IYQr6E3UTpo85ff1Pdxmdrw7l_El7mU9SOP20kV8q9giQdkCdD11Tqxj2w7dQkEYw5EIymX-kw7h1-1sP-rJYxYEvSXth-Ej6JiZkhD8APg21IUOOEaSKr-OODDtOOPMZcznmqCkJt605T6hW1F-6ewp9UNmi1vk3_Brsl94fhBk3GAg2-7PU-7lgYTKHo2LdAs0dgWur5mBJAYHggr4GFAh26rlzUXbs4eFJDaXWNwwKKHjmi6q8OBruTmd5xyo1Xwoh1JRkcGbIKtSuIBi-_oYzus51B9-L7vjciHaqXApPKZ0X_xbEZy1eTl9GMyvyzltNESjcyGLv7rulZOAVP7AtzNwv_0G00]--></g></svg>