<svg xmlns="http://www.w3.org/2000/svg" xmlns:xlink="http://www.w3.org/1999/xlink" contentStyleType="text/css" data-diagram-type="CLASS" height="1267px" preserveAspectRatio="none" style="width:1028px;height:1267px;background:#FFFFFF;" version="1.1" viewBox="0 0 1028 1267" width="1028px" zoomAndPan="magnify"><title>ShmPTPEngine: Class Diagram</title><defs/><g><text fill="#000000" font-family="Verdana" font-size="22" font-weight="bold" lengthAdjust="spacing" textLength="380.1016" x="319.4492" y="35.4209">ShmPTPEngine: Class Diagram</text><rect fill="transparent" height="79.1875" id="_legend" rx="7.5" ry="7.5" style="stroke:#000000;stroke-width:1;" width="320.6523" x="10" y="56.6094"/><text fill="#000000" font-family="Verdana" font-size="14" font-weight="bold" lengthAdjust="spacing" textLength="41.2139" x="19.874" y="76.6045">Color</text><text fill="#000000" font-family="Verdana" font-size="14" font-weight="bold" lengthAdjust="spacing" textLength="90.5488" x="114.7021" y="76.6045">Description</text><rect fill="#F5F5DC" height="16.2969" style="stroke:transparent;stroke-width:1;" width="94.8281" x="15" y="79.9063"/><text fill="#000000" font-family="Verdana" font-size="14" lengthAdjust="spacing" textLength="35.6016" x="15" y="92.9014">&#160;&#160;&#160;&#160;&#160;&#160;&#160;&#160;</text><text fill="#000000" font-family="Verdana" font-size="14" lengthAdjust="spacing" textLength="177.3721" x="114.2783" y="92.9014">Base classes / data types</text><rect fill="#F5DEB3" height="16.2969" style="stroke:transparent;stroke-width:1;" width="94.8281" x="15" y="96.2031"/><text fill="#000000" font-family="Verdana" font-size="14" lengthAdjust="spacing" textLength="35.6016" x="15" y="109.1982">&#160;&#160;&#160;&#160;&#160;&#160;&#160;&#160;</text><text fill="#000000" font-family="Verdana" font-size="14" lengthAdjust="spacing" textLength="202.4736" x="114.2783" y="109.1982">PTPMachine / ShmPTPEngine</text><rect fill="#FFB6C1" height="16.2969" style="stroke:transparent;stroke-width:1;" width="94.8281" x="15" y="112.5"/><text fill="#000000" font-family="Verdana" font-size="14" lengthAdjust="spacing" textLength="17.8008" x="15" y="125.4951">&#160;&#160;&#160;&#160;</text><text fill="#000000" font-family="Verdana" font-size="14" lengthAdjust="spacing" textLength="101.4316" x="114.2783" y="125.4951">libTSClient IPC</text><line style="stroke:#000000;stroke-width:1;" x1="15" x2="325.6523" y1="63.6094" y2="63.6094"/><line style="stroke:#000000;stroke-width:1;" x1="15" x2="325.6523" y1="79.9063" y2="79.9063"/><line style="stroke:#000000;stroke-width:1;" x1="15" x2="325.6523" y1="96.2031" y2="96.2031"/><line style="stroke:#000000;stroke-width:1;" x1="15" x2="325.6523" y1="112.5" y2="112.5"/><line style="stroke:#000000;stroke-width:1;" x1="15" x2="325.6523" y1="128.7969" y2="128.7969"/><line style="stroke:#000000;stroke-width:1;" x1="15" x2="15" y1="63.6094" y2="128.7969"/><line style="stroke:#000000;stroke-width:1;" x1="109.8281" x2="109.8281" y1="63.6094" y2="128.7969"/><line style="stroke:#000000;stroke-width:1;" x1="325.6523" x2="325.6523" y1="63.6094" y2="128.7969"/><!--cluster score::td--><g id="cluster_score::td"><path d="M671.5,444.7969 L743.0605,444.7969 A3.75,3.75 0 0 1 745.5605,447.2969 L752.5605,467.0938 L1018.5,467.0938 A2.5,2.5 0 0 1 1021,469.5938 L1021,570.2969 A2.5,2.5 0 0 1 1018.5,572.7969 L671.5,572.7969 A2.5,2.5 0 0 1 669,570.2969 L669,447.2969 A2.5,2.5 0 0 1 671.5,444.7969 " fill="#FFFFFF" style="stroke:#000000;stroke-width:1;"/><line style="stroke:#000000;stroke-width:1;" x1="669" x2="752.5605" y1="467.0938" y2="467.0938"/><text fill="#000000" font-family="Verdana" font-size="14" font-weight="bold" lengthAdjust="spacing" textLength="70.5605" x="673" y="459.792">score::td</text></g><!--cluster score::td (base classes)--><g id="cluster_score::td (base classes)"><path d="M186.5,147.7969 L374.9414,147.7969 A3.75,3.75 0 0 1 377.4414,150.2969 L384.4414,170.0938 L642.5,170.0938 A2.5,2.5 0 0 1 645,172.5938 L645,758.2969 A2.5,2.5 0 0 1 642.5,760.7969 L186.5,760.7969 A2.5,2.5 0 0 1 184,758.2969 L184,150.2969 A2.5,2.5 0 0 1 186.5,147.7969 " fill="#FFFFFF" style="stroke:#000000;stroke-width:1;"/><line style="stroke:#000000;stroke-width:1;" x1="184" x2="384.4414" y1="170.0938" y2="170.0938"/><text fill="#000000" font-family="Verdana" font-size="14" font-weight="bold" lengthAdjust="spacing" textLength="187.4414" x="188" y="162.792">score::td (base classes)</text></g><!--cluster score::td::details--><g id="cluster_score::td::details"><path d="M331.5,809.7969 L467.8447,809.7969 A3.75,3.75 0 0 1 470.3447,812.2969 L477.3447,832.0938 L698.5,832.0938 A2.5,2.5 0 0 1 701,834.5938 L701,1016.2969 A2.5,2.5 0 0 1 698.5,1018.7969 L331.5,1018.7969 A2.5,2.5 0 0 1 329,1016.2969 L329,812.2969 A2.5,2.5 0 0 1 331.5,809.7969 " fill="#FFFFFF" style="stroke:#000000;stroke-width:1;"/><line style="stroke:#000000;stroke-width:1;" x1="329" x2="477.3447" y1="832.0938" y2="832.0938"/><text fill="#000000" font-family="Verdana" font-size="14" font-weight="bold" lengthAdjust="spacing" textLength="135.3447" x="333" y="824.792">score::td::details</text></g><!--cluster score::ts::details--><g id="cluster_score::ts::details"><path d="M13.5,1092.2969 L148.1563,1092.2969 A3.75,3.75 0 0 1 150.6563,1094.7969 L157.6563,1114.5938 L312.5,1114.5938 A2.5,2.5 0 0 1 315,1117.0938 L315,1233.7969 A2.5,2.5 0 0 1 312.5,1236.2969 L13.5,1236.2969 A2.5,2.5 0 0 1 11,1233.7969 L11,1094.7969 A2.5,2.5 0 0 1 13.5,1092.2969 " fill="#FFFFFF" style="stroke:#000000;stroke-width:1;"/><line style="stroke:#000000;stroke-width:1;" x1="11" x2="157.6563" y1="1114.5938" y2="1114.5938"/><text fill="#000000" font-family="Verdana" font-size="14" font-weight="bold" lengthAdjust="spacing" textLength="133.6563" x="15" y="1107.292">score::ts::details</text></g><!--cluster Data Types--><g id="cluster_Data Types"><path d="M341.5,1067.7969 L431.1074,1067.7969 A3.75,3.75 0 0 1 433.6074,1070.2969 L440.6074,1090.0938 L879.5,1090.0938 A2.5,2.5 0 0 1 882,1092.5938 L882,1258.2969 A2.5,2.5 0 0 1 879.5,1260.7969 L341.5,1260.7969 A2.5,2.5 0 0 1 339,1258.2969 L339,1070.2969 A2.5,2.5 0 0 1 341.5,1067.7969 " fill="#FFFFFF" style="stroke:#000000;stroke-width:1;"/><line style="stroke:#000000;stroke-width:1;" x1="339" x2="440.6074" y1="1090.0938" y2="1090.0938"/><text fill="#000000" font-family="Verdana" font-size="14" font-weight="bold" lengthAdjust="spacing" textLength="88.6074" x="343" y="1082.792">Data Types</text></g><!--class real_machine--><g id="elem_real_machine"><rect codeLine="13" fill="#F5DEB3" height="76.5938" id="real_machine" rx="2.5" ry="2.5" style="stroke:#000000;stroke-width:1;" width="320.4238" x="685" y="479.7969"/><ellipse cx="778.3184" cy="493.7969" fill="#FFFFFF" rx="9" ry="9" style="stroke:#000000;stroke-width:1;"/><path d="M781.2871,499.4375 Q780.709,499.7344 780.0684,499.875 Q779.4277,500.0313 778.7246,500.0313 Q776.2246,500.0313 774.8965,498.3906 Q773.584,496.7344 773.584,493.6094 Q773.584,490.4844 774.8965,488.8281 Q776.2246,487.1719 778.7246,487.1719 Q779.4277,487.1719 780.0684,487.3281 Q780.7246,487.4844 781.2871,487.7813 L781.2871,490.5 Q780.6621,489.9219 780.0684,489.6563 Q779.4746,489.375 778.8496,489.375 Q777.5059,489.375 776.8184,490.4531 Q776.1309,491.5156 776.1309,493.6094 Q776.1309,495.7031 776.8184,496.7813 Q777.5059,497.8438 778.8496,497.8438 Q779.4746,497.8438 780.0684,497.5781 Q780.6621,497.2969 781.2871,496.7188 L781.2871,499.4375 Z " fill="#000000"/><text fill="#000000" font-family="Verdana" font-size="14" lengthAdjust="spacing" textLength="126.2871" x="795.8184" y="498.6436">GPTPShmMachine</text><line style="stroke:#000000;stroke-width:1;" x1="686" x2="1004.4238" y1="507.7969" y2="507.7969"/><text fill="#000000" font-family="Verdana" font-size="14" lengthAdjust="spacing" textLength="308.4238" x="691" y="524.792">type alias for PTPMachine&lt;ShmPTPEngine&gt;</text><line style="stroke:#000000;stroke-width:1;" x1="686" x2="1004.4238" y1="532.0938" y2="532.0938"/><text fill="#000000" font-family="Verdana" font-size="14" lengthAdjust="spacing" textLength="299.0039" x="691" y="549.0889">Constructed via CreateGPTPShmMachine()</text></g><!--class base_machine--><g id="elem_base_machine"><rect codeLine="21" fill="#F5F5DC" height="76.5938" id="base_machine" rx="2.5" ry="2.5" style="stroke:#000000;stroke-width:1;" width="154.9834" x="468.5" y="182.7969"/><ellipse cx="496.9296" cy="196.7969" fill="#FFFFFF" rx="9" ry="9" style="stroke:#000000;stroke-width:1;"/><path d="M497.039,192.1406 L495.8828,197.2188 L498.2109,197.2188 L497.039,192.1406 Z M495.5546,189.9063 L498.539,189.9063 L501.8984,202.2969 L499.4453,202.2969 L498.6796,199.2344 L495.3984,199.2344 L494.6484,202.2969 L492.2109,202.2969 L495.5546,189.9063 Z " fill="#000000"/><text fill="#000000" font-family="Verdana" font-size="14" font-style="italic" lengthAdjust="spacing" textLength="92.6953" x="512.3584" y="201.6436">BaseMachine</text><line style="stroke:#000000;stroke-width:1;" x1="469.5" x2="622.4834" y1="210.7969" y2="210.7969"/><line style="stroke:#000000;stroke-width:1;" x1="469.5" x2="622.4834" y1="218.7969" y2="218.7969"/><ellipse cx="479.5" cy="232.4453" fill="#FFFFFF" rx="3" ry="3" style="stroke:#000000;stroke-width:1;"/><text fill="#000000" font-family="Verdana" font-size="14" lengthAdjust="spacing" textLength="130.9834" x="486.5" y="235.792">GetName() : string</text><ellipse cx="479.5" cy="248.7422" fill="#FFFFFF" rx="3" ry="3" style="stroke:#000000;stroke-width:1;"/><text fill="#000000" font-family="Verdana" font-size="14" lengthAdjust="spacing" textLength="76.8291" x="486.5" y="252.0889">Init() : bool</text></g><!--class proactive_machine--><g id="elem_proactive_machine"><rect codeLine="26" fill="#F5F5DC" height="76.5938" id="proactive_machine" rx="2.5" ry="2.5" style="stroke:#000000;stroke-width:1;" width="151.9219" x="470" y="320.7969"/><ellipse cx="483" cy="334.7969" fill="#FFFFFF" rx="9" ry="9" style="stroke:#000000;stroke-width:1;"/><path d="M483.1094,330.1406 L481.9531,335.2188 L484.2813,335.2188 L483.1094,330.1406 Z M481.625,327.9063 L484.6094,327.9063 L487.9688,340.2969 L485.5156,340.2969 L484.75,337.2344 L481.4688,337.2344 L480.7188,340.2969 L478.2813,340.2969 L481.625,327.9063 Z " fill="#000000"/><text fill="#000000" font-family="Verdana" font-size="14" font-style="italic" lengthAdjust="spacing" textLength="123.9219" x="495" y="339.6436">ProactiveMachine</text><line style="stroke:#000000;stroke-width:1;" x1="471" x2="620.9219" y1="348.7969" y2="348.7969"/><line style="stroke:#000000;stroke-width:1;" x1="471" x2="620.9219" y1="356.7969" y2="356.7969"/><ellipse cx="481" cy="370.4453" fill="#FFFFFF" rx="3" ry="3" style="stroke:#000000;stroke-width:1;"/><text fill="#000000" font-family="Verdana" font-size="14" lengthAdjust="spacing" textLength="88.3682" x="488" y="373.792">Start() : void</text><ellipse cx="481" cy="386.7422" fill="#FFFFFF" rx="3" ry="3" style="stroke:#000000;stroke-width:1;"/><text fill="#000000" font-family="Verdana" font-size="14" lengthAdjust="spacing" textLength="85.9961" x="488" y="390.0889">Stop() : void</text></g><!--class periodic_machine--><g id="elem_periodic_machine"><rect codeLine="31" fill="#F5F5DC" height="60.2969" id="periodic_machine" rx="2.5" ry="2.5" style="stroke:#000000;stroke-width:1;" width="166.4404" x="463" y="488.2969"/><ellipse cx="486.8431" cy="502.2969" fill="#FFFFFF" rx="9" ry="9" style="stroke:#000000;stroke-width:1;"/><path d="M486.9524,497.6406 L485.7962,502.7188 L488.1243,502.7188 L486.9524,497.6406 Z M485.4681,495.4063 L488.4524,495.4063 L491.8118,507.7969 L489.3587,507.7969 L488.5931,504.7344 L485.3118,504.7344 L484.5618,507.7969 L482.1243,507.7969 L485.4681,495.4063 Z " fill="#000000"/><text fill="#000000" font-family="Verdana" font-size="14" font-style="italic" lengthAdjust="spacing" textLength="114.3447" x="501.2526" y="507.1436">PeriodicMachine</text><line style="stroke:#000000;stroke-width:1;" x1="464" x2="628.4404" y1="516.2969" y2="516.2969"/><line style="stroke:#000000;stroke-width:1;" x1="464" x2="628.4404" y1="524.2969" y2="524.2969"/><polygon fill="#FFFFFF" points="474,532.9453,478,536.9453,474,540.9453,470,536.9453" style="stroke:#000000;stroke-width:1;"/><text fill="#000000" font-family="Verdana" font-size="14" lengthAdjust="spacing" textLength="142.4404" x="481" y="541.292">PeriodicTask() : void</text></g><!--class producer--><g id="elem_producer"><rect codeLine="35" fill="#F5F5DC" height="76.5938" id="producer" rx="2.5" ry="2.5" style="stroke:#000000;stroke-width:1;" width="227.2939" x="200.5" y="479.7969"/><ellipse cx="273.437" cy="493.7969" fill="#FFFFFF" rx="9" ry="9" style="stroke:#000000;stroke-width:1;"/><path d="M273.5464,489.1406 L272.3901,494.2188 L274.7183,494.2188 L273.5464,489.1406 Z M272.062,486.9063 L275.0464,486.9063 L278.4058,499.2969 L275.9526,499.2969 L275.187,496.2344 L271.9058,496.2344 L271.1558,499.2969 L268.7183,499.2969 L272.062,486.9063 Z " fill="#000000"/><text fill="#000000" font-family="Verdana" font-size="14" font-style="italic" lengthAdjust="spacing" textLength="62.5898" x="290.937" y="498.6436">Producer</text><rect fill="#FFFFFF" height="15.9688" style="stroke:#000000;stroke-width:1;stroke-dasharray:2.0,2.0;" width="9.3301" x="421.4639" y="476.7969"/><text fill="#000000" font-family="Verdana" font-size="12" font-style="italic" lengthAdjust="spacing" textLength="7.3301" x="422.4639" y="488.9355">T</text><line style="stroke:#000000;stroke-width:1;" x1="201.5" x2="426.7939" y1="507.7969" y2="507.7969"/><line style="stroke:#000000;stroke-width:1;" x1="201.5" x2="426.7939" y1="515.7969" y2="515.7969"/><ellipse cx="211.5" cy="529.4453" fill="#FFFFFF" rx="3" ry="3" style="stroke:#000000;stroke-width:1;"/><text fill="#000000" font-family="Verdana" font-size="14" lengthAdjust="spacing" textLength="203.2939" x="218.5" y="532.792">SetPublishCallback(cb) : void</text><polygon fill="#FFFFFF" points="211.5,540.7422,215.5,544.7422,211.5,548.7422,207.5,544.7422" style="stroke:#000000;stroke-width:1;"/><text fill="#000000" font-family="Verdana" font-size="14" lengthAdjust="spacing" textLength="158.0195" x="218.5" y="549.0889">Publish(data : T) : void</text></g><!--class ptp_machine--><g id="elem_ptp_machine"><rect codeLine="40" fill="#F5DEB3" height="109.1875" id="ptp_machine" rx="2.5" ry="2.5" style="stroke:#000000;stroke-width:1;" width="227.2939" x="401.5" y="635.7969"/><ellipse cx="436.2455" cy="649.7969" fill="#FFFFFF" rx="9" ry="9" style="stroke:#000000;stroke-width:1;"/><path d="M439.2142,655.4375 Q438.6361,655.7344 437.9955,655.875 Q437.3548,656.0313 436.6517,656.0313 Q434.1517,656.0313 432.8236,654.3906 Q431.5111,652.7344 431.5111,649.6094 Q431.5111,646.4844 432.8236,644.8281 Q434.1517,643.1719 436.6517,643.1719 Q437.3548,643.1719 437.9955,643.3281 Q438.6517,643.4844 439.2142,643.7813 L439.2142,646.5 Q438.5892,645.9219 437.9955,645.6563 Q437.4017,645.375 436.7767,645.375 Q435.433,645.375 434.7455,646.4531 Q434.058,647.5156 434.058,649.6094 Q434.058,651.7031 434.7455,652.7813 Q435.433,653.8438 436.7767,653.8438 Q437.4017,653.8438 437.9955,653.5781 Q438.5892,653.2969 439.2142,652.7188 L439.2142,655.4375 Z " fill="#000000"/><text fill="#000000" font-family="Verdana" font-size="14" lengthAdjust="spacing" textLength="84.041" x="453.0778" y="654.6436">PTPMachine</text><rect fill="#FFFFFF" height="15.9688" style="stroke:#000000;stroke-width:1;stroke-dasharray:2.0,2.0;" width="64.9297" x="566.8643" y="632.7969"/><text fill="#000000" font-family="Verdana" font-size="12" font-style="italic" lengthAdjust="spacing" textLength="62.9297" x="567.8643" y="644.9355">PTPEngine</text><line style="stroke:#000000;stroke-width:1;" x1="402.5" x2="627.7939" y1="663.7969" y2="663.7969"/><rect fill="transparent" height="6" style="stroke:#000000;stroke-width:1;" width="6" x="409.5" y="674.4453"/><text fill="#000000" font-family="Verdana" font-size="14" lengthAdjust="spacing" textLength="141.7842" x="419.5" y="680.792">engine_ : PTPEngine</text><line style="stroke:#000000;stroke-width:1;" x1="402.5" x2="627.7939" y1="688.0938" y2="688.0938"/><ellipse cx="412.5" cy="701.7422" fill="#FFFFFF" rx="3" ry="3" style="stroke:#000000;stroke-width:1;"/><text fill="#000000" font-family="Verdana" font-size="14" lengthAdjust="spacing" textLength="76.8291" x="419.5" y="705.0889">Init() : bool</text><ellipse cx="412.5" cy="718.0391" fill="#FFFFFF" rx="3" ry="3" style="stroke:#000000;stroke-width:1;"/><text fill="#000000" font-family="Verdana" font-size="14" lengthAdjust="spacing" textLength="203.2939" x="419.5" y="721.3857">SetPublishCallback(cb) : void</text><polygon fill="#FFFFFF" points="412.5,729.3359,416.5,733.3359,412.5,737.3359,408.5,733.3359" style="stroke:#000000;stroke-width:1;"/><text fill="#000000" font-family="Verdana" font-size="14" lengthAdjust="spacing" textLength="142.4404" x="419.5" y="737.6826">PeriodicTask() : void</text></g><!--class ShmPTPEngine--><g id="elem_ShmPTPEngine"><rect codeLine="54" fill="#F5DEB3" height="158.0781" id="ShmPTPEngine" rx="2.5" ry="2.5" style="stroke:#000000;stroke-width:1;" width="339.9365" x="345" y="844.7969"/><ellipse cx="458.8105" cy="858.7969" fill="#FFFFFF" rx="9" ry="9" style="stroke:#000000;stroke-width:1;"/><path d="M461.7793,864.4375 Q461.2012,864.7344 460.5605,864.875 Q459.9199,865.0313 459.2168,865.0313 Q456.7168,865.0313 455.3887,863.3906 Q454.0762,861.7344 454.0762,858.6094 Q454.0762,855.4844 455.3887,853.8281 Q456.7168,852.1719 459.2168,852.1719 Q459.9199,852.1719 460.5605,852.3281 Q461.2168,852.4844 461.7793,852.7813 L461.7793,855.5 Q461.1543,854.9219 460.5605,854.6563 Q459.9668,854.375 459.3418,854.375 Q457.998,854.375 457.3105,855.4531 Q456.623,856.5156 456.623,858.6094 Q456.623,860.7031 457.3105,861.7813 Q457.998,862.8438 459.3418,862.8438 Q459.9668,862.8438 460.5605,862.5781 Q461.1543,862.2969 461.7793,861.7188 L461.7793,864.4375 Z " fill="#000000"/><text fill="#000000" font-family="Verdana" font-size="14" lengthAdjust="spacing" textLength="104.8154" x="476.3105" y="863.6436">ShmPTPEngine</text><line style="stroke:#000000;stroke-width:1;" x1="346" x2="683.9365" y1="872.7969" y2="872.7969"/><rect fill="transparent" height="6" style="stroke:#000000;stroke-width:1;" width="6" x="353" y="883.4453"/><text fill="#000000" font-family="Verdana" font-size="14" lengthAdjust="spacing" textLength="127.9824" x="363" y="889.792">ipc_name_ : string</text><rect fill="transparent" height="6" style="stroke:#000000;stroke-width:1;" width="6" x="353" y="899.7422"/><text fill="#000000" font-family="Verdana" font-size="14" lengthAdjust="spacing" textLength="193.8604" x="363" y="906.0889">receiver_ : GptpIpcReceiver</text><rect fill="transparent" height="6" style="stroke:#000000;stroke-width:1;" width="6" x="353" y="916.0391"/><text fill="#000000" font-family="Verdana" font-size="14" lengthAdjust="spacing" textLength="117.7627" x="363" y="922.3857">initialized_ : bool</text><line style="stroke:#000000;stroke-width:1;" x1="346" x2="683.9365" y1="929.6875" y2="929.6875"/><ellipse cx="356" cy="943.3359" fill="#FFFFFF" rx="3" ry="3" style="stroke:#000000;stroke-width:1;"/><text fill="#000000" font-family="Verdana" font-size="14" lengthAdjust="spacing" textLength="236.7217" x="363" y="946.6826">ShmPTPEngine(ipc_name : string)</text><ellipse cx="356" cy="959.6328" fill="#FFFFFF" rx="3" ry="3" style="stroke:#000000;stroke-width:1;"/><text fill="#000000" font-family="Verdana" font-size="14" lengthAdjust="spacing" textLength="113.0391" x="363" y="962.9795">Initialize() : bool</text><ellipse cx="356" cy="975.9297" fill="#FFFFFF" rx="3" ry="3" style="stroke:#000000;stroke-width:1;"/><text fill="#000000" font-family="Verdana" font-size="14" lengthAdjust="spacing" textLength="132.1934" x="363" y="979.2764">Deinitialize() : bool</text><ellipse cx="356" cy="992.2266" fill="#FFFFFF" rx="3" ry="3" style="stroke:#000000;stroke-width:1;"/><text fill="#000000" font-family="Verdana" font-size="14" lengthAdjust="spacing" textLength="315.9365" x="363" y="995.5732">ReadPTPSnapshot(info : PtpTimeInfo&amp;) : bool</text></g><!--class GptpIpcReceiver--><g id="elem_GptpIpcReceiver"><rect codeLine="66" fill="#FFB6C1" height="92.8906" id="GptpIpcReceiver" rx="2.5" ry="2.5" style="stroke:#000000;stroke-width:1;" width="272.4316" x="27" y="1127.2969"/><ellipse cx="101.4561" cy="1141.2969" fill="#FFFFFF" rx="9" ry="9" style="stroke:#000000;stroke-width:1;"/><path d="M104.4248,1146.9375 Q103.8467,1147.2344 103.2061,1147.375 Q102.5654,1147.5313 101.8623,1147.5313 Q99.3623,1147.5313 98.0342,1145.8906 Q96.7217,1144.2344 96.7217,1141.1094 Q96.7217,1137.9844 98.0342,1136.3281 Q99.3623,1134.6719 101.8623,1134.6719 Q102.5654,1134.6719 103.2061,1134.8281 Q103.8623,1134.9844 104.4248,1135.2813 L104.4248,1138 Q103.7998,1137.4219 103.2061,1137.1563 Q102.6123,1136.875 101.9873,1136.875 Q100.6436,1136.875 99.9561,1137.9531 Q99.2686,1139.0156 99.2686,1141.1094 Q99.2686,1143.2031 99.9561,1144.2813 Q100.6436,1145.3438 101.9873,1145.3438 Q102.6123,1145.3438 103.2061,1145.0781 Q103.7998,1144.7969 104.4248,1144.2188 L104.4248,1146.9375 Z " fill="#000000"/><text fill="#000000" font-family="Verdana" font-size="14" lengthAdjust="spacing" textLength="116.0195" x="118.9561" y="1146.1436">GptpIpcReceiver</text><line style="stroke:#000000;stroke-width:1;" x1="28" x2="298.4316" y1="1155.2969" y2="1155.2969"/><line style="stroke:#000000;stroke-width:1;" x1="28" x2="298.4316" y1="1163.2969" y2="1163.2969"/><ellipse cx="38" cy="1176.9453" fill="#FFFFFF" rx="3" ry="3" style="stroke:#000000;stroke-width:1;"/><text fill="#000000" font-family="Verdana" font-size="14" lengthAdjust="spacing" textLength="170.3379" x="45" y="1180.292">Init(name : string) : bool</text><ellipse cx="38" cy="1193.2422" fill="#FFFFFF" rx="3" ry="3" style="stroke:#000000;stroke-width:1;"/><text fill="#000000" font-family="Verdana" font-size="14" lengthAdjust="spacing" textLength="248.4316" x="45" y="1196.5889">Receive() : optional&lt;GptpIpcData&gt;</text><ellipse cx="38" cy="1209.5391" fill="#FFFFFF" rx="3" ry="3" style="stroke:#000000;stroke-width:1;"/><text fill="#000000" font-family="Verdana" font-size="14" lengthAdjust="spacing" textLength="92.3057" x="45" y="1212.8857">Close() : void</text></g><!--class GptpIpcData--><g id="elem_GptpIpcData"><rect codeLine="74" fill="#F5F5DC" height="141.7813" id="GptpIpcData" rx="2.5" ry="2.5" style="stroke:#000000;stroke-width:1;" width="319.5654" x="355" y="1102.7969"/><ellipse cx="466.9067" cy="1116.7969" fill="#FFFFFF" rx="9" ry="9" style="stroke:#000000;stroke-width:1;"/><path d="M469.8755,1122.4375 Q469.2974,1122.7344 468.6567,1122.875 Q468.0161,1123.0313 467.313,1123.0313 Q464.813,1123.0313 463.4849,1121.3906 Q462.1724,1119.7344 462.1724,1116.6094 Q462.1724,1113.4844 463.4849,1111.8281 Q464.813,1110.1719 467.313,1110.1719 Q468.0161,1110.1719 468.6567,1110.3281 Q469.313,1110.4844 469.8755,1110.7813 L469.8755,1113.5 Q469.2505,1112.9219 468.6567,1112.6563 Q468.063,1112.375 467.438,1112.375 Q466.0942,1112.375 465.4067,1113.4531 Q464.7192,1114.5156 464.7192,1116.6094 Q464.7192,1118.7031 465.4067,1119.7813 Q466.0942,1120.8438 467.438,1120.8438 Q468.063,1120.8438 468.6567,1120.5781 Q469.2505,1120.2969 469.8755,1119.7188 L469.8755,1122.4375 Z " fill="#000000"/><text fill="#000000" font-family="Verdana" font-size="14" lengthAdjust="spacing" textLength="88.252" x="484.4067" y="1121.6436">GptpIpcData</text><line style="stroke:#000000;stroke-width:1;" x1="356" x2="673.5654" y1="1130.7969" y2="1130.7969"/><ellipse cx="366" cy="1144.4453" fill="transparent" rx="3" ry="3" style="stroke:#000000;stroke-width:1;"/><text fill="#000000" font-family="Verdana" font-size="14" lengthAdjust="spacing" textLength="295.5654" x="373" y="1147.792">ptp_assumed_time : chrono::nanoseconds</text><ellipse cx="366" cy="1160.7422" fill="transparent" rx="3" ry="3" style="stroke:#000000;stroke-width:1;"/><text fill="#000000" font-family="Verdana" font-size="14" lengthAdjust="spacing" textLength="234.7461" x="373" y="1164.0889">local_time : chrono::nanoseconds</text><ellipse cx="366" cy="1177.0391" fill="transparent" rx="3" ry="3" style="stroke:#000000;stroke-width:1;"/><text fill="#000000" font-family="Verdana" font-size="14" lengthAdjust="spacing" textLength="161.8408" x="373" y="1180.3857">rate_deviation : double</text><ellipse cx="366" cy="1193.3359" fill="transparent" rx="3" ry="3" style="stroke:#000000;stroke-width:1;"/><text fill="#000000" font-family="Verdana" font-size="14" lengthAdjust="spacing" textLength="156.0713" x="373" y="1196.6826">status : GptpIpcStatus</text><ellipse cx="366" cy="1209.6328" fill="transparent" rx="3" ry="3" style="stroke:#000000;stroke-width:1;"/><text fill="#000000" font-family="Verdana" font-size="14" lengthAdjust="spacing" textLength="261.7959" x="373" y="1212.9795">sync_fup_data : GptpIpcSyncFupData</text><ellipse cx="366" cy="1225.9297" fill="transparent" rx="3" ry="3" style="stroke:#000000;stroke-width:1;"/><text fill="#000000" font-family="Verdana" font-size="14" lengthAdjust="spacing" textLength="236.1338" x="373" y="1229.2764">pdelay_data : GptpIpcPDelayData</text><line style="stroke:#000000;stroke-width:1;" x1="356" x2="673.5654" y1="1236.5781" y2="1236.5781"/></g><!--class PtpTimeInfo--><g id="elem_PtpTimeInfo"><rect codeLine="83" fill="#F5F5DC" height="141.7813" id="PtpTimeInfo" rx="2.5" ry="2.5" style="stroke:#000000;stroke-width:1;" width="156.0703" x="710" y="1102.7969"/><ellipse cx="742.8286" cy="1116.7969" fill="#FFFFFF" rx="9" ry="9" style="stroke:#000000;stroke-width:1;"/><path d="M745.7973,1122.4375 Q745.2192,1122.7344 744.5786,1122.875 Q743.9379,1123.0313 743.2348,1123.0313 Q740.7348,1123.0313 739.4067,1121.3906 Q738.0942,1119.7344 738.0942,1116.6094 Q738.0942,1113.4844 739.4067,1111.8281 Q740.7348,1110.1719 743.2348,1110.1719 Q743.9379,1110.1719 744.5786,1110.3281 Q745.2348,1110.4844 745.7973,1110.7813 L745.7973,1113.5 Q745.1723,1112.9219 744.5786,1112.6563 Q743.9848,1112.375 743.3598,1112.375 Q742.0161,1112.375 741.3286,1113.4531 Q740.6411,1114.5156 740.6411,1116.6094 Q740.6411,1118.7031 741.3286,1119.7813 Q742.0161,1120.8438 743.3598,1120.8438 Q743.9848,1120.8438 744.5786,1120.5781 Q745.1723,1120.2969 745.7973,1119.7188 L745.7973,1122.4375 Z " fill="#000000"/><text fill="#000000" font-family="Verdana" font-size="14" lengthAdjust="spacing" textLength="84.0068" x="759.2349" y="1121.6436">PtpTimeInfo</text><line style="stroke:#000000;stroke-width:1;" x1="711" x2="865.0703" y1="1130.7969" y2="1130.7969"/><ellipse cx="721" cy="1144.4453" fill="transparent" rx="3" ry="3" style="stroke:#000000;stroke-width:1;"/><text fill="#000000" font-family="Verdana" font-size="14" lengthAdjust="spacing" textLength="132.0703" x="728" y="1147.792">ptp_assumed_time</text><ellipse cx="721" cy="1160.7422" fill="transparent" rx="3" ry="3" style="stroke:#000000;stroke-width:1;"/><text fill="#000000" font-family="Verdana" font-size="14" lengthAdjust="spacing" textLength="71.251" x="728" y="1164.0889">local_time</text><ellipse cx="721" cy="1177.0391" fill="transparent" rx="3" ry="3" style="stroke:#000000;stroke-width:1;"/><text fill="#000000" font-family="Verdana" font-size="14" lengthAdjust="spacing" textLength="100.5088" x="728" y="1180.3857">rate_deviation</text><ellipse cx="721" cy="1193.3359" fill="transparent" rx="3" ry="3" style="stroke:#000000;stroke-width:1;"/><text fill="#000000" font-family="Verdana" font-size="14" lengthAdjust="spacing" textLength="43.0186" x="728" y="1196.6826">status</text><ellipse cx="721" cy="1209.6328" fill="transparent" rx="3" ry="3" style="stroke:#000000;stroke-width:1;"/><text fill="#000000" font-family="Verdana" font-size="14" lengthAdjust="spacing" textLength="100.3721" x="728" y="1212.9795">sync_fup_data</text><ellipse cx="721" cy="1225.9297" fill="transparent" rx="3" ry="3" style="stroke:#000000;stroke-width:1;"/><text fill="#000000" font-family="Verdana" font-size="14" lengthAdjust="spacing" textLength="85.6748" x="728" y="1229.2764">pdelay_data</text><line style="stroke:#000000;stroke-width:1;" x1="711" x2="865.0703" y1="1236.5781" y2="1236.5781"/></g><g id="elem_GMN26"><path d="M720.5,903.7969 L720.5,919.7969 L685,923.7969 L720.5,927.7969 L720.5,944.0625 A0,0 0 0 0 720.5,944.0625 L961.0718,944.0625 A0,0 0 0 0 961.0718,944.0625 L961.0718,913.7969 L951.0718,903.7969 L720.5,903.7969 A0,0 0 0 0 720.5,903.7969 " fill="#FFFFFF" style="stroke:#000000;stroke-width:1;"/><path d="M951.0718,903.7969 L951.0718,913.7969 L961.0718,913.7969 L951.0718,903.7969 " fill="#FFFFFF" style="stroke:#000000;stroke-width:1;"/><text fill="#000000" font-family="Verdana" font-size="13" lengthAdjust="spacing" textLength="217.4517" x="726.5" y="920.8638">Maps GptpIpcData &#8594; PtpTimeInfo</text><text fill="#000000" font-family="Verdana" font-size="13" lengthAdjust="spacing" textLength="219.5718" x="726.5" y="935.9966">on every ReadPTPSnapshot() call.</text></g><!--reverse link base_machine to proactive_machine--><g id="link_base_machine_proactive_machine"><path codeLine="47" d="M546,277.8169 C546,296.6869 546,301.5069 546,320.4269 " fill="transparent" id="base_machine-backto-proactive_machine" style="stroke:#000000;stroke-width:1;"/><polygon fill="transparent" points="546,259.8169,540,277.8169,552,277.8169,546,259.8169" style="stroke:#000000;stroke-width:1;"/></g><!--reverse link proactive_machine to periodic_machine--><g id="link_proactive_machine_periodic_machine"><path codeLine="48" d="M546,415.9069 C546,443.4769 546,462.3969 546,487.8469 " fill="transparent" id="proactive_machine-backto-periodic_machine" style="stroke:#000000;stroke-width:1;"/><polygon fill="transparent" points="546,397.9069,540,415.9069,552,415.9069,546,397.9069" style="stroke:#000000;stroke-width:1;"/></g><!--reverse link periodic_machine to ptp_machine--><g id="link_periodic_machine_ptp_machine"><path codeLine="49" d="M537.4436,566.2253 C533.0836,590.1553 530.02,606.9169 524.76,635.7669 " fill="transparent" id="periodic_machine-backto-ptp_machine" style="stroke:#000000;stroke-width:1;"/><polygon fill="transparent" points="540.67,548.5169,531.5407,565.1499,543.3464,567.3008,540.67,548.5169" style="stroke:#000000;stroke-width:1;"/></g><!--reverse link producer to ptp_machine--><g id="link_producer_ptp_machine"><path codeLine="50" d="M372.3538,568.6504 C399.6438,591.7304 421.26,610.0169 451.45,635.5469 " fill="transparent" id="producer-backto-ptp_machine" style="stroke:#000000;stroke-width:1;stroke-dasharray:7.0,7.0;"/><polygon fill="transparent" points="358.61,557.0269,368.4793,573.2317,376.2283,564.0692,358.61,557.0269" style="stroke:#000000;stroke-width:1;"/></g><!--reverse link ptp_machine to ShmPTPEngine--><g id="link_ptp_machine_ShmPTPEngine"><path codeLine="93" d="M515,756.9869 C515,786.5069 515,811.6769 515,844.3769 " fill="transparent" id="ptp_machine-backto-ShmPTPEngine" style="stroke:#000000;stroke-width:1;"/><polygon fill="#000000" points="515,744.9869,511,750.9869,515,756.9869,519,750.9869,515,744.9869" style="stroke:#000000;stroke-width:1;"/><text fill="#000000" font-family="Verdana" font-size="13" lengthAdjust="spacing" textLength="184.6597" x="516" y="789.8638">PTPEngine = ShmPTPEngine</text></g><!--reverse link ShmPTPEngine to GptpIpcReceiver--><g id="link_ShmPTPEngine_GptpIpcReceiver"><path codeLine="94" d="M394.3001,1009.8381 C336.2601,1050.7281 277.04,1092.4569 227.74,1127.1869 " fill="transparent" id="ShmPTPEngine-backto-GptpIpcReceiver" style="stroke:#000000;stroke-width:1;"/><polygon fill="#000000" points="404.11,1002.9269,396.9013,1003.1125,394.3001,1009.8381,401.5088,1009.6525,404.11,1002.9269" style="stroke:#000000;stroke-width:1;"/></g><!--link ShmPTPEngine to GptpIpcData--><g id="link_ShmPTPEngine_GptpIpcData"><path codeLine="95" d="M515,1002.9269 C515,1034.8669 515,1065.5469 515,1096.6169 " fill="transparent" id="ShmPTPEngine-to-GptpIpcData" style="stroke:#000000;stroke-width:1;stroke-dasharray:7.0,7.0;"/><polygon fill="#000000" points="515,1102.6169,519,1093.6169,515,1097.6169,511,1093.6169,515,1102.6169" style="stroke:#000000;stroke-width:1;"/><text fill="#000000" font-family="Verdana" font-size="13" lengthAdjust="spacing" textLength="36.334" x="516" y="1047.8638">reads</text></g><!--link ShmPTPEngine to PtpTimeInfo--><g id="link_ShmPTPEngine_PtpTimeInfo"><path codeLine="96" d="M625.91,1002.8469 C648.87,1020.6569 672.34,1040.1469 693,1059.7969 C706.84,1072.9569 716.7522,1083.474 729.4122,1098.224 " fill="transparent" id="ShmPTPEngine-to-PtpTimeInfo" style="stroke:#000000;stroke-width:1;stroke-dasharray:7.0,7.0;"/><polygon fill="#000000" points="733.32,1102.7769,730.4936,1093.3423,730.0635,1098.9828,724.423,1098.5527,733.32,1102.7769" style="stroke:#000000;stroke-width:1;"/><text fill="#000000" font-family="Verdana" font-size="13" lengthAdjust="spacing" textLength="59.96" x="685" y="1047.8638">produces</text></g><!--link real_machine to ptp_machine--><g id="link_real_machine_ptp_machine"><path codeLine="97" d="M772.17,556.8169 C727.19,579.9869 684.7421,601.8548 634.9421,627.5048 " fill="transparent" id="real_machine-to-ptp_machine" style="stroke:#000000;stroke-width:1;"/><polygon fill="transparent" points="618.94,635.7469,637.6895,632.8389,632.1948,622.1708,618.94,635.7469" style="stroke:#000000;stroke-width:1;"/><text fill="#000000" font-family="Verdana" font-size="13" lengthAdjust="spacing" textLength="29.9292" x="710" y="601.8638">alias</text></g><!--SRC=[bLRDZjem4BxdAQQiL46hq7l4SbXeLqZT2Yr8FIBZ3CHQOqUnMOcMlVO1-eXzaeuT0ZQ4xJQdn9xnzttpvxop1MuGIic4IX8hh4IO5PlfVFfPhON234QI6GDZmTOLsoI9n3Mg7AmkGUBA9a3F_XP6MkeAZW-jZD7mIfHMQ0NHiwzzO71pXsADm-Cwt363m1qU6lW4ERCCxAwaZy3fUu7C1av4zO7nWhYIIqWzTFegreMT2lKqh5UaMCvd8obGMPXCHp4zqbUhJ9AIyIUsHkWOhYlCCfjtuAS_rTE4pZt14UY1GGUOWGgPN6mEb6gw1n_tE3t0f2335KNin7uGSXyUxTFq-3hIojXgootcy2mOZ0Z9OioWs_FcBybB6tdeBeCGznejR4ddCcuRKIuFeIBdT5BainOe-WZtQB-n3M531dIIKEjWSwA4zJjBhUM1N2lgjDBq9PuZwB9PV0r_PbbLOpnhaKSRkepNhs5Z9NGkU0HzMBkEV0EDtvoPfxS1LJhVSgm6ys6Zpt-toa8xtIwbCCM8IRcaR7Rvya8baQYDkhvVCfYtyMZWJ-LsghMQY2sl5sqAw4qNTFBHxzKS_wU2VuKngi31Faql2yFRNPPBRNoMojhsFB-rwIaEpObrWWRxVZ_QRUsmBClHCY5DF2UYkTGINb7oXQ8MMbnsK4e3XID9gjpcFJ6ObFpni1GUGJaGD5X-OBveoKH0eDkW7S5wPxcipsdBw1Z5g_kFo78ta1GhJQ5jLwYLTaLZoxdOu8I-tf_DWhOmcYjXF5CFfxaUDOulnrXW6rD_Y1UX_JN5vE00CAPE6WQs8waDdXTcIDmvmDnTLQs4_NPBXxjo8hFjXd9cXUVBYqehdMMAASBaMkKcS92Qq-No9jEAxeP5ZdHH-2iuWrnJAuPTQoopMtCggfd_3WrsYYzMst9nc2oD7Ir_sPPELAWbHybsPwRJiLiyMaR3AAY9jyIcDGfNzLx8l2QhNK6Guc0kVg3v47LoC0tXDjfA8ZldUDwvaK6_Fung9ND_4PJE2wCmQ5apd4mI_NEawNuOpVEi_k584gKjGkLw1lGgvWlmG2qRaVZpwtU8HoPKHqZSTnTjtWFAYEoxNoTm8CbV]--></g></svg>