<svg xmlns="http://www.w3.org/2000/svg" xmlns:xlink="http://www.w3.org/1999/xlink" contentStyleType="text/css" data-diagram-type="SEQUENCE" height="650px" preserveAspectRatio="none" style="width:728px;height:650px;background:#FFFFFF;" version="1.1" viewBox="0 0 728 650" width="728px" zoomAndPan="magnify"><title>ControlFlowDivider: Initialization Sequence</title><defs/><g><text fill="#000000" font-family="sans-serif" font-size="14" font-weight="bold" lengthAdjust="spacing" textLength="342.9043" x="188.6091" y="27.9951">ControlFlowDivider: Initialization Sequence</text><g><title>TimeBaseHandler</title><rect fill="#FFFFFF" height="41.3633" style="stroke:#181818;stroke-width:1;" width="10" x="68.9541" y="262.0469"/></g><g><title>TimeBaseHandler</title><rect fill="#FFFFFF" height="29.1328" style="stroke:#181818;stroke-width:1;" width="10" x="68.9541" y="386.7422"/></g><g><title>TimeBaseHandler</title><rect fill="#FFFFFF" height="29.1328" style="stroke:#181818;stroke-width:1;" width="10" x="68.9541" y="445.0078"/></g><g><title>TimeBaseHandler</title><rect fill="#FFFFFF" height="79.3984" style="stroke:#181818;stroke-width:1;" width="10" x="68.9541" y="546.4063"/></g><g><title>ControlFlowDivider</title><rect fill="#FFFFFF" height="41.3633" style="stroke:#181818;stroke-width:1;" width="10" x="358.3062" y="262.0469"/></g><g><title>ControlFlowDivider</title><rect fill="#FFFFFF" height="29.1328" style="stroke:#181818;stroke-width:1;" width="10" x="358.3062" y="386.7422"/></g><g><title>ControlFlowDivider</title><rect fill="#FFFFFF" height="79.3984" style="stroke:#181818;stroke-width:1;" width="10" x="358.3062" y="546.4063"/></g><g><title>MessageBroker</title><rect fill="#FFFFFF" height="29.1328" style="stroke:#181818;stroke-width:1;" width="10" x="505.0669" y="445.0078"/></g><g><title>TimeBaseHandler</title><rect fill="transparent" height="466.0234" width="8" x="69.9541" y="177.7813"/><line style="stroke:#181818;stroke-width:0.5;stroke-dasharray:5.0,5.0;" x1="73" x2="73" y1="177.7813" y2="643.8047"/></g><g><title>ControlFlowDivider</title><rect fill="transparent" height="382.2422" width="8" x="359.3062" y="261.5625"/><line style="stroke:#181818;stroke-width:0.5;stroke-dasharray:5.0,5.0;" x1="362.8198" x2="362.8198" y1="261.5625" y2="643.8047"/></g><g><title>MessageBroker</title><rect fill="transparent" height="466.0234" width="8" x="506.0669" y="177.7813"/><line style="stroke:#181818;stroke-width:0.5;stroke-dasharray:5.0,5.0;" x1="509.186" x2="509.186" y1="177.7813" y2="643.8047"/></g><rect fill="#E0FFFF" height="30.2969" rx="2.5" ry="2.5" style="stroke:#181818;stroke-width:0.5;" width="137.9082" x="5" y="146.4844"/><text fill="#000000" font-family="sans-serif" font-size="14" lengthAdjust="spacing" textLength="123.9082" x="12" y="166.4795">TimeBaseHandler</text><rect fill="#AFEEEE" height="30.2969" rx="2.5" ry="2.5" style="stroke:#181818;stroke-width:0.5;" width="121.7617" x="449.186" y="146.4844"/><text fill="#000000" font-family="sans-serif" font-size="14" lengthAdjust="spacing" textLength="107.7617" x="456.186" y="166.4795">MessageBroker</text><g><title>TimeBaseHandler</title><rect fill="#FFFFFF" height="41.3633" style="stroke:#181818;stroke-width:1;" width="10" x="68.9541" y="262.0469"/></g><g><title>TimeBaseHandler</title><rect fill="#FFFFFF" height="29.1328" style="stroke:#181818;stroke-width:1;" width="10" x="68.9541" y="386.7422"/></g><g><title>TimeBaseHandler</title><rect fill="#FFFFFF" height="29.1328" style="stroke:#181818;stroke-width:1;" width="10" x="68.9541" y="445.0078"/></g><g><title>TimeBaseHandler</title><rect fill="#FFFFFF" height="79.3984" style="stroke:#181818;stroke-width:1;" width="10" x="68.9541" y="546.4063"/></g><g><title>ControlFlowDivider</title><rect fill="#FFFFFF" height="41.3633" style="stroke:#181818;stroke-width:1;" width="10" x="358.3062" y="262.0469"/></g><g><title>ControlFlowDivider</title><rect fill="#FFFFFF" height="29.1328" style="stroke:#181818;stroke-width:1;" width="10" x="358.3062" y="386.7422"/></g><g><title>ControlFlowDivider</title><rect fill="#FFFFFF" height="79.3984" style="stroke:#181818;stroke-width:1;" width="10" x="358.3062" y="546.4063"/></g><g><title>MessageBroker</title><rect fill="#FFFFFF" height="29.1328" style="stroke:#181818;stroke-width:1;" width="10" x="505.0669" y="445.0078"/></g><rect fill="#EEEEEE" height="3" style="stroke:#EEEEEE;stroke-width:1;" width="721.1226" x="0" y="208.3477"/><line style="stroke:#000000;stroke-width:1;" x1="0" x2="721.1226" y1="208.3477" y2="208.3477"/><line style="stroke:#000000;stroke-width:1;" x1="0" x2="721.1226" y1="211.3477" y2="211.3477"/><rect fill="#EEEEEE" height="23.1328" style="stroke:#000000;stroke-width:2;" width="257.6865" x="231.718" y="197.7813"/><text fill="#000000" font-family="sans-serif" font-size="13" font-weight="bold" lengthAdjust="spacing" textLength="239.1606" x="237.718" y="213.8481">ControlFlowDivider Construction</text><polygon fill="#181818" points="277.8198,248.0469,287.8198,252.0469,277.8198,256.0469,281.8198,252.0469" style="stroke:#181818;stroke-width:1;"/><line style="stroke:#181818;stroke-width:1;" x1="73.9541" x2="283.8198" y1="252.0469" y2="252.0469"/><text fill="#FF0000" font-family="sans-serif" font-size="13" font-weight="bold" lengthAdjust="spacing" textLength="29.9736" x="80.9541" y="246.981">[01]</text><text fill="#000000" font-family="sans-serif" font-size="13" lengthAdjust="spacing" textLength="147.4878" x="114.9277" y="246.981">create(name, timeout)</text><rect fill="#ADD8E6" height="30.2969" rx="2.5" ry="2.5" style="stroke:#181818;stroke-width:0.5;" width="146.9727" x="289.8198" y="230.9141"/><text fill="#000000" font-family="sans-serif" font-size="14" lengthAdjust="spacing" textLength="132.9727" x="296.8198" y="250.9092">ControlFlowDivider</text><line style="stroke:#181818;stroke-width:1;" x1="368.3062" x2="410.3062" y1="302.4102" y2="302.4102"/><line style="stroke:#181818;stroke-width:1;" x1="410.3062" x2="410.3062" y1="302.4102" y2="315.4102"/><line style="stroke:#181818;stroke-width:1;" x1="363.3062" x2="410.3062" y1="315.4102" y2="315.4102"/><polygon fill="#181818" points="373.3062,311.4102,363.3062,315.4102,373.3062,319.4102,369.3062,315.4102" style="stroke:#181818;stroke-width:1;"/><text fill="#FF0000" font-family="sans-serif" font-size="13" font-weight="bold" lengthAdjust="spacing" textLength="29.9736" x="375.3062" y="297.3442">[02]</text><text fill="#000000" font-family="sans-serif" font-size="13" lengthAdjust="spacing" textLength="64.5493" x="409.2798" y="297.3442">Initialize()</text><path d="M495.5229,277.2109 L495.5229,317.2109 L645.5229,317.2109 L645.5229,287.2109 L635.5229,277.2109 L495.5229,277.2109 " fill="#FEFFDD" style="stroke:#181818;stroke-width:0.5;"/><path d="M635.5229,277.2109 L635.5229,287.2109 L645.5229,287.2109 L635.5229,277.2109 " fill="#FEFFDD" style="stroke:#181818;stroke-width:0.5;"/><text fill="#000000" font-family="sans-serif" font-size="13" lengthAdjust="spacing" textLength="126.1152" x="501.5229" y="294.2778">Initialize buffer and</text><text fill="#000000" font-family="sans-serif" font-size="13" lengthAdjust="spacing" textLength="129.8857" x="501.5229" y="309.4106">event-driven thread</text><rect fill="#EEEEEE" height="3" style="stroke:#EEEEEE;stroke-width:1;" width="721.1226" x="0" y="343.043"/><line style="stroke:#000000;stroke-width:1;" x1="0" x2="721.1226" y1="343.043" y2="343.043"/><line style="stroke:#000000;stroke-width:1;" x1="0" x2="721.1226" y1="346.043" y2="346.043"/><rect fill="#EEEEEE" height="23.1328" style="stroke:#000000;stroke-width:2;" width="156.105" x="282.5088" y="332.4766"/><text fill="#000000" font-family="sans-serif" font-size="13" font-weight="bold" lengthAdjust="spacing" textLength="137.5791" x="288.5088" y="348.5435">Setup Connections</text><polygon fill="#181818" points="346.3062,382.7422,356.3062,386.7422,346.3062,390.7422,350.3062,386.7422" style="stroke:#181818;stroke-width:1;"/><line style="stroke:#181818;stroke-width:1;" x1="78.9541" x2="352.3062" y1="386.7422" y2="386.7422"/><text fill="#FF0000" font-family="sans-serif" font-size="13" font-weight="bold" lengthAdjust="spacing" textLength="29.9736" x="85.9541" y="381.6763">[03]</text><text fill="#000000" font-family="sans-serif" font-size="13" lengthAdjust="spacing" textLength="231.3784" x="119.9277" y="381.6763">SetPublishCallback(broker::publish)</text><polygon fill="#181818" points="84.9541,411.875,74.9541,415.875,84.9541,419.875,80.9541,415.875" style="stroke:#181818;stroke-width:1;"/><line style="stroke:#181818;stroke-width:1;stroke-dasharray:2.0,2.0;" x1="78.9541" x2="362.3062" y1="415.875" y2="415.875"/><text fill="#FF0000" font-family="sans-serif" font-size="13" font-weight="bold" lengthAdjust="spacing" textLength="29.9736" x="90.9541" y="410.8091">[04]</text><text fill="#000000" font-family="sans-serif" font-size="13" lengthAdjust="spacing" textLength="4.1323" x="124.9277" y="410.8091">&#160;</text><polygon fill="#181818" points="493.0669,441.0078,503.0669,445.0078,493.0669,449.0078,497.0669,445.0078" style="stroke:#181818;stroke-width:1;"/><line style="stroke:#181818;stroke-width:1;" x1="78.9541" x2="499.0669" y1="445.0078" y2="445.0078"/><text fill="#FF0000" font-family="sans-serif" font-size="13" font-weight="bold" lengthAdjust="spacing" textLength="29.9736" x="85.9541" y="439.9419">[05]</text><text fill="#000000" font-family="sans-serif" font-size="13" lengthAdjust="spacing" textLength="322.7529" x="119.9277" y="439.9419">Subscribe("validated_ptp_data", cfd::OnMessage)</text><polygon fill="#181818" points="84.9541,470.1406,74.9541,474.1406,84.9541,478.1406,80.9541,474.1406" style="stroke:#181818;stroke-width:1;"/><line style="stroke:#181818;stroke-width:1;stroke-dasharray:2.0,2.0;" x1="78.9541" x2="509.0669" y1="474.1406" y2="474.1406"/><text fill="#FF0000" font-family="sans-serif" font-size="13" font-weight="bold" lengthAdjust="spacing" textLength="29.9736" x="90.9541" y="469.0747">[06]</text><text fill="#000000" font-family="sans-serif" font-size="13" lengthAdjust="spacing" textLength="4.1323" x="124.9277" y="469.0747">&#160;</text><rect fill="#EEEEEE" height="3" style="stroke:#EEEEEE;stroke-width:1;" width="721.1226" x="0" y="502.707"/><line style="stroke:#000000;stroke-width:1;" x1="0" x2="721.1226" y1="502.707" y2="502.707"/><line style="stroke:#000000;stroke-width:1;" x1="0" x2="721.1226" y1="505.707" y2="505.707"/><rect fill="#EEEEEE" height="23.1328" style="stroke:#000000;stroke-width:2;" width="139.9121" x="290.6052" y="492.1406"/><text fill="#000000" font-family="sans-serif" font-size="13" font-weight="bold" lengthAdjust="spacing" textLength="121.3862" x="296.6052" y="508.2075">Start Processing</text><polygon fill="#181818" points="346.3062,542.4063,356.3062,546.4063,346.3062,550.4063,350.3062,546.4063" style="stroke:#181818;stroke-width:1;"/><line style="stroke:#181818;stroke-width:1;" x1="78.9541" x2="352.3062" y1="546.4063" y2="546.4063"/><text fill="#FF0000" font-family="sans-serif" font-size="13" font-weight="bold" lengthAdjust="spacing" textLength="29.9736" x="85.9541" y="541.3403">[07]</text><text fill="#000000" font-family="sans-serif" font-size="13" lengthAdjust="spacing" textLength="41.9009" x="119.9277" y="541.3403">Start()</text><line style="stroke:#181818;stroke-width:1;" x1="368.3062" x2="410.3062" y1="579.6055" y2="579.6055"/><line style="stroke:#181818;stroke-width:1;" x1="410.3062" x2="410.3062" y1="579.6055" y2="592.6055"/><line style="stroke:#181818;stroke-width:1;" x1="369.3062" x2="410.3062" y1="592.6055" y2="592.6055"/><polygon fill="#181818" points="379.3062,588.6055,369.3062,592.6055,379.3062,596.6055,375.3062,592.6055" style="stroke:#181818;stroke-width:1;"/><text fill="#FF0000" font-family="sans-serif" font-size="13" font-weight="bold" lengthAdjust="spacing" textLength="29.9736" x="375.3062" y="574.5396">[08]</text><text fill="#000000" font-family="sans-serif" font-size="13" lengthAdjust="spacing" textLength="78.7871" x="409.2798" y="574.5396">Start thread</text><path d="M509.7607,559.4063 L509.7607,599.4063 L705.7607,599.4063 L705.7607,569.4063 L695.7607,559.4063 L509.7607,559.4063 " fill="#FEFFDD" style="stroke:#181818;stroke-width:0.5;"/><path d="M695.7607,559.4063 L695.7607,569.4063 L705.7607,569.4063 L695.7607,559.4063 " fill="#FEFFDD" style="stroke:#181818;stroke-width:0.5;"/><text fill="#000000" font-family="sans-serif" font-size="13" lengthAdjust="spacing" textLength="165.7754" x="515.7607" y="576.4731">Start event-driven thread</text><text fill="#000000" font-family="sans-serif" font-size="13" lengthAdjust="spacing" textLength="175.0557" x="515.7607" y="591.606">waiting for data or timeout</text><polygon fill="#181818" points="84.9541,621.8047,74.9541,625.8047,84.9541,629.8047,80.9541,625.8047" style="stroke:#181818;stroke-width:1;"/><line style="stroke:#181818;stroke-width:1;stroke-dasharray:2.0,2.0;" x1="78.9541" x2="362.3062" y1="625.8047" y2="625.8047"/><text fill="#FF0000" font-family="sans-serif" font-size="13" font-weight="bold" lengthAdjust="spacing" textLength="29.9736" x="90.9541" y="620.7388">[09]</text><text fill="#000000" font-family="sans-serif" font-size="13" lengthAdjust="spacing" textLength="4.1323" x="124.9277" y="620.7388">&#160;</text><rect fill="#DDDDDD" height="79.1875" id="_legend" rx="7.5" ry="7.5" style="stroke:#000000;stroke-width:1;" width="317.5625" x="12" y="54.2969"/><text fill="#000000" font-family="sans-serif" font-size="14" font-weight="bold" lengthAdjust="spacing" textLength="41.2139" x="21.874" y="74.292">Color</text><text fill="#000000" font-family="sans-serif" font-size="14" font-weight="bold" lengthAdjust="spacing" textLength="90.5488" x="106.9541" y="74.292">Description</text><rect fill="#E0FFFF" height="16.2969" style="stroke:transparent;stroke-width:1;" width="85.0801" x="17" y="77.5938"/><text fill="#000000" font-family="sans-serif" font-size="14" lengthAdjust="spacing" textLength="13.3506" x="17" y="90.5889">&#160;&#160;&#160;</text><text fill="#000000" font-family="sans-serif" font-size="14" lengthAdjust="spacing" textLength="164.6299" x="106.5303" y="90.5889">TimeDaemon members</text><rect fill="#AFEEEE" height="16.2969" style="stroke:transparent;stroke-width:1;" width="85.0801" x="17" y="93.8906"/><text fill="#000000" font-family="sans-serif" font-size="14" lengthAdjust="spacing" textLength="4.4502" x="17" y="106.8857">&#160;</text><text fill="#000000" font-family="sans-serif" font-size="14" lengthAdjust="spacing" textLength="107.7617" x="106.5303" y="106.8857">MessageBroker</text><rect fill="#ADD8E6" height="16.2969" style="stroke:transparent;stroke-width:1;" width="85.0801" x="17" y="110.1875"/><text fill="#000000" font-family="sans-serif" font-size="14" lengthAdjust="spacing" textLength="13.3506" x="17" y="123.1826">&#160;&#160;&#160;</text><text fill="#000000" font-family="sans-serif" font-size="14" lengthAdjust="spacing" textLength="132.9727" x="106.5303" y="123.1826">ControlFlowDivider</text><line style="stroke:#000000;stroke-width:1;" x1="17" x2="324.5625" y1="61.2969" y2="61.2969"/><line style="stroke:#000000;stroke-width:1;" x1="17" x2="324.5625" y1="77.5938" y2="77.5938"/><line style="stroke:#000000;stroke-width:1;" x1="17" x2="324.5625" y1="93.8906" y2="93.8906"/><line style="stroke:#000000;stroke-width:1;" x1="17" x2="324.5625" y1="110.1875" y2="110.1875"/><line style="stroke:#000000;stroke-width:1;" x1="17" x2="324.5625" y1="126.4844" y2="126.4844"/><line style="stroke:#000000;stroke-width:1;" x1="17" x2="17" y1="61.2969" y2="126.4844"/><line style="stroke:#000000;stroke-width:1;" x1="102.0801" x2="102.0801" y1="61.2969" y2="126.4844"/><line style="stroke:#000000;stroke-width:1;" x1="324.5625" x2="324.5625" y1="61.2969" y2="126.4844"/><!--SRC=[dLJ1Rfmm4BtxAqRqGg94oXaj77PNLIkrwah9hQfM1eR5Yh696M_QAX_VCI01sTqqhIzWpxoPzvu7I956s5X3pkgFsZvlrL6Lw1BuR1GfgTLlISeQkCSdZwP08MgEGsKjvVQd4DAJDRx9qK6qghWE55PRbpeiirMUVR-x-n49eV60fWIoBMYiI02lbvJxSYgCY_TRx0gdshxXoNePKAiFNzIXfiqlQRAmXmVLu5PYmvW60v7kB6edDJvuz-IjwZ1Zt5ViEdd0jREFwDxijTOUXrwdHYrHB7AGAaGh7Qb2jP8jYGB7jUpmamm9BWBP0UNxUjZ296a9EstN8ukgX8dP4h9GrMVdWy2b0KAawJarVDIHyqL_1Magn8pbRTPtlhw610g7aZ0sii4R85PdFLq9oRWZdy-qJMUC5G4_bfbD6CPNmbXESK5JR_qKWznN5NVdSdq4ZsZejdIAdq0ryoY3xH0AY18NxMRR6QCW_Hx9jq6jmLvhTq5i4Z9tFjUggpTIwrmMZ_7WQ9Aqm_bxTNF9MVnzL9UCngjaKZuFNqgESNHabqg6bVkMsZs_oUWcL4oIRsOSXhyG7AgAiVXbccFU6wOIJoBid2suhpA7ovw6nFXVvsKeFrxvgtaPOkTc8qIV9KyJywduRnCS0dwEGplDpl_UqHy0]--></g></svg>