<svg xmlns="http://www.w3.org/2000/svg" xmlns:xlink="http://www.w3.org/1999/xlink" contentStyleType="text/css" data-diagram-type="SEQUENCE" height="680px" preserveAspectRatio="none" style="width:841px;height:680px;background:#FFFFFF;" version="1.1" viewBox="0 0 841 680" width="841px" zoomAndPan="magnify"><title>PTPMachine: Periodic Data Publishing Workflow</title><defs/><g><text fill="#000000" font-family="sans-serif" font-size="14" font-weight="bold" lengthAdjust="spacing" textLength="380.126" x="232.3474" y="27.9951">PTPMachine: Periodic Data Publishing Workflow</text><g><title>PtpMachine</title><rect fill="#FFFFFF" height="461.125" style="stroke:#181818;stroke-width:1;" width="10" x="62.7114" y="187.7813"/></g><g><title>PtpEngine</title><rect fill="#FFFFFF" height="109.6641" style="stroke:#181818;stroke-width:1;" width="10" x="253.4697" y="275.1797"/></g><g><title>MessageBroker</title><rect fill="#FFFFFF" height="182.2305" style="stroke:#181818;stroke-width:1;" width="10" x="366.7505" y="466.6758"/></g><g><title>ControlFlowDivider</title><rect fill="#FFFFFF" height="71.2656" style="stroke:#181818;stroke-width:1;" width="10" x="647.9736" y="548.5078"/></g><rect fill="transparent" height="462.125" style="stroke:#000000;stroke-width:1.5;" width="825.8208" x="10" y="194.7813"/><g><title>PtpMachine</title><rect fill="transparent" height="496.125" width="8" x="63.7114" y="177.7813"/><line style="stroke:#181818;stroke-width:0.5;stroke-dasharray:5.0,5.0;" x1="67" x2="67" y1="177.7813" y2="673.9063"/></g><g><title>PtpEngine</title><rect fill="transparent" height="496.125" width="8" x="254.4697" y="177.7813"/><line style="stroke:#181818;stroke-width:0.5;stroke-dasharray:5.0,5.0;" x1="258.0698" x2="258.0698" y1="177.7813" y2="673.9063"/></g><g><title>MessageBroker</title><rect fill="transparent" height="496.125" width="8" x="367.7505" y="177.7813"/><line style="stroke:#181818;stroke-width:0.5;stroke-dasharray:5.0,5.0;" x1="370.8696" x2="370.8696" y1="177.7813" y2="673.9063"/></g><g><title>ControlFlowDivider</title><rect fill="transparent" height="496.125" width="8" x="648.9736" y="177.7813"/><line style="stroke:#181818;stroke-width:0.5;stroke-dasharray:5.0,5.0;" x1="652.4873" x2="652.4873" y1="177.7813" y2="673.9063"/></g><rect fill="#F5DEB3" height="30.2969" rx="2.5" ry="2.5" style="stroke:#181818;stroke-width:0.5;" width="95.4229" x="20" y="146.4844"/><text fill="#000000" font-family="sans-serif" font-size="14" lengthAdjust="spacing" textLength="81.4229" x="27" y="166.4795">PtpMachine</text><rect fill="#F5DEB3" height="30.2969" rx="2.5" ry="2.5" style="stroke:#181818;stroke-width:0.5;" width="84.7998" x="216.0698" y="146.4844"/><text fill="#000000" font-family="sans-serif" font-size="14" lengthAdjust="spacing" textLength="70.7998" x="223.0698" y="166.4795">PtpEngine</text><rect fill="#AFEEEE" height="30.2969" rx="2.5" ry="2.5" style="stroke:#181818;stroke-width:0.5;" width="121.7617" x="310.8696" y="146.4844"/><text fill="#000000" font-family="sans-serif" font-size="14" lengthAdjust="spacing" textLength="107.7617" x="317.8696" y="166.4795">MessageBroker</text><rect fill="#ADD8E6" height="30.2969" rx="2.5" ry="2.5" style="stroke:#181818;stroke-width:0.5;" width="146.9727" x="579.4873" y="146.4844"/><text fill="#000000" font-family="sans-serif" font-size="14" lengthAdjust="spacing" textLength="132.9727" x="586.4873" y="166.4795">ControlFlowDivider</text><g><title>PtpMachine</title><rect fill="#FFFFFF" height="461.125" style="stroke:#181818;stroke-width:1;" width="10" x="62.7114" y="187.7813"/></g><g><title>PtpEngine</title><rect fill="#FFFFFF" height="109.6641" style="stroke:#181818;stroke-width:1;" width="10" x="253.4697" y="275.1797"/></g><g><title>MessageBroker</title><rect fill="#FFFFFF" height="182.2305" style="stroke:#181818;stroke-width:1;" width="10" x="366.7505" y="466.6758"/></g><g><title>ControlFlowDivider</title><rect fill="#FFFFFF" height="71.2656" style="stroke:#181818;stroke-width:1;" width="10" x="647.9736" y="548.5078"/></g><path d="M10,194.7813 L86.624,194.7813 L86.624,201.9141 L76.624,211.9141 L10,211.9141 L10,194.7813 " fill="#EEEEEE" style="stroke:#000000;stroke-width:1.5;"/><rect fill="transparent" height="462.125" style="stroke:#000000;stroke-width:1.5;" width="825.8208" x="10" y="194.7813"/><text fill="#000000" font-family="sans-serif" font-size="13" font-weight="bold" lengthAdjust="spacing" textLength="31.624" x="25" y="207.8481">loop</text><text fill="#000000" font-family="sans-serif" font-size="11" font-weight="bold" lengthAdjust="spacing" textLength="177.7241" x="101.624" y="206.9917">[periodic (e.g., every 50ms)]</text><line style="stroke:#181818;stroke-width:1;" x1="72.7114" x2="114.7114" y1="233.0469" y2="233.0469"/><line style="stroke:#181818;stroke-width:1;" x1="114.7114" x2="114.7114" y1="233.0469" y2="246.0469"/><line style="stroke:#181818;stroke-width:1;" x1="73.7114" x2="114.7114" y1="246.0469" y2="246.0469"/><polygon fill="#181818" points="83.7114,242.0469,73.7114,246.0469,83.7114,250.0469,79.7114,246.0469" style="stroke:#181818;stroke-width:1;"/><text fill="#FF0000" font-family="sans-serif" font-size="13" font-weight="bold" lengthAdjust="spacing" textLength="29.9736" x="79.7114" y="227.981">[01]</text><text fill="#000000" font-family="sans-serif" font-size="13" lengthAdjust="spacing" textLength="92.1108" x="113.6851" y="227.981">PeriodicTask()</text><polygon fill="#181818" points="241.4697,271.1797,251.4697,275.1797,241.4697,279.1797,245.4697,275.1797" style="stroke:#181818;stroke-width:1;"/><line style="stroke:#181818;stroke-width:1;" x1="72.7114" x2="247.4697" y1="275.1797" y2="275.1797"/><text fill="#FF0000" font-family="sans-serif" font-size="13" font-weight="bold" lengthAdjust="spacing" textLength="29.9736" x="79.7114" y="270.1138">[02]</text><text fill="#000000" font-family="sans-serif" font-size="13" lengthAdjust="spacing" textLength="127.7847" x="113.6851" y="270.1138">ReadPTPSnapshot()</text><path d="M268,288.1797 L268,358.1797 L460,358.1797 L460,298.1797 L450,288.1797 L268,288.1797 " fill="#FEFFDD" style="stroke:#181818;stroke-width:0.5;"/><path d="M450,288.1797 L450,298.1797 L460,298.1797 L450,288.1797 " fill="#FEFFDD" style="stroke:#181818;stroke-width:0.5;"/><text fill="#000000" font-family="sans-serif" font-size="13" lengthAdjust="spacing" textLength="171.8628" x="274" y="305.2466">Retrieve current PTP data:</text><text fill="#000000" font-family="sans-serif" font-size="13" lengthAdjust="spacing" textLength="65.9458" x="274" y="320.3794">- PTP time</text><text fill="#000000" font-family="sans-serif" font-size="13" lengthAdjust="spacing" textLength="157.314" x="274" y="335.5122">- Synchronization status</text><text fill="#000000" font-family="sans-serif" font-size="13" lengthAdjust="spacing" textLength="141.4512" x="274" y="350.645">- Additional metadata</text><polygon fill="#181818" points="83.7114,380.8438,73.7114,384.8438,83.7114,388.8438,79.7114,384.8438" style="stroke:#181818;stroke-width:1;"/><line style="stroke:#181818;stroke-width:1;stroke-dasharray:2.0,2.0;" x1="77.7114" x2="257.4697" y1="384.8438" y2="384.8438"/><text fill="#FF0000" font-family="sans-serif" font-size="13" font-weight="bold" lengthAdjust="spacing" textLength="29.9736" x="89.7114" y="379.7778">[03]</text><text fill="#000000" font-family="sans-serif" font-size="13" lengthAdjust="spacing" textLength="78.0063" x="123.6851" y="379.7778">PtpTimeInfo</text><line style="stroke:#181818;stroke-width:1;" x1="72.7114" x2="114.7114" y1="413.9766" y2="413.9766"/><line style="stroke:#181818;stroke-width:1;" x1="114.7114" x2="114.7114" y1="413.9766" y2="426.9766"/><line style="stroke:#181818;stroke-width:1;" x1="73.7114" x2="114.7114" y1="426.9766" y2="426.9766"/><polygon fill="#181818" points="83.7114,422.9766,73.7114,426.9766,83.7114,430.9766,79.7114,426.9766" style="stroke:#181818;stroke-width:1;"/><text fill="#FF0000" font-family="sans-serif" font-size="13" font-weight="bold" lengthAdjust="spacing" textLength="29.9736" x="79.7114" y="408.9106">[04]</text><text fill="#000000" font-family="sans-serif" font-size="13" lengthAdjust="spacing" textLength="85.9917" x="113.6851" y="408.9106">Publish(data)</text><polygon fill="#181818" points="354.7505,462.6758,364.7505,466.6758,354.7505,470.6758,358.7505,466.6758" style="stroke:#181818;stroke-width:1;"/><line style="stroke:#181818;stroke-width:1;" x1="72.7114" x2="360.7505" y1="466.6758" y2="466.6758"/><text fill="#FF0000" font-family="sans-serif" font-size="13" font-weight="bold" lengthAdjust="spacing" textLength="29.9736" x="79.7114" y="461.6099">[05]</text><text fill="#000000" font-family="sans-serif" font-size="13" lengthAdjust="spacing" textLength="152.6357" x="113.6851" y="461.6099">publish_callback_(data)</text><path d="M381,439.9766 L381,479.9766 L593,479.9766 L593,449.9766 L583,439.9766 L381,439.9766 " fill="#FEFFDD" style="stroke:#181818;stroke-width:0.5;"/><path d="M583,439.9766 L583,449.9766 L593,449.9766 L583,439.9766 " fill="#FEFFDD" style="stroke:#181818;stroke-width:0.5;"/><text fill="#000000" font-family="sans-serif" font-size="13" lengthAdjust="spacing" textLength="171.4121" x="387" y="457.0435">Invoke registered callback</text><text fill="#000000" font-family="sans-serif" font-size="13" lengthAdjust="spacing" textLength="191.7627" x="387" y="472.1763">to publish via MessageBroker</text><line style="stroke:#181818;stroke-width:1;" x1="376.7505" x2="418.7505" y1="506.375" y2="506.375"/><line style="stroke:#181818;stroke-width:1;" x1="418.7505" x2="418.7505" y1="506.375" y2="519.375"/><line style="stroke:#181818;stroke-width:1;" x1="377.7505" x2="418.7505" y1="519.375" y2="519.375"/><polygon fill="#181818" points="387.7505,515.375,377.7505,519.375,387.7505,523.375,383.7505,519.375" style="stroke:#181818;stroke-width:1;"/><text fill="#FF0000" font-family="sans-serif" font-size="13" font-weight="bold" lengthAdjust="spacing" textLength="29.9736" x="383.7505" y="501.3091">[06]</text><text fill="#000000" font-family="sans-serif" font-size="13" lengthAdjust="spacing" textLength="213.2495" x="417.7241" y="501.3091">OnNewData("in_ptp_data", data)</text><polygon fill="#181818" points="635.9736,544.5078,645.9736,548.5078,635.9736,552.5078,639.9736,548.5078" style="stroke:#181818;stroke-width:1;"/><line style="stroke:#181818;stroke-width:1;" x1="376.7505" x2="641.9736" y1="548.5078" y2="548.5078"/><text fill="#FF0000" font-family="sans-serif" font-size="13" font-weight="bold" lengthAdjust="spacing" textLength="29.9736" x="383.7505" y="543.4419">[07]</text><text fill="#000000" font-family="sans-serif" font-size="13" lengthAdjust="spacing" textLength="182.584" x="417.7241" y="543.4419">subscription.callback_(data)</text><line style="stroke:#181818;stroke-width:1;" x1="657.9736" x2="699.9736" y1="577.6406" y2="577.6406"/><line style="stroke:#181818;stroke-width:1;" x1="699.9736" x2="699.9736" y1="577.6406" y2="590.6406"/><line style="stroke:#181818;stroke-width:1;" x1="658.9736" x2="699.9736" y1="590.6406" y2="590.6406"/><polygon fill="#181818" points="668.9736,586.6406,658.9736,590.6406,668.9736,594.6406,664.9736,590.6406" style="stroke:#181818;stroke-width:1;"/><text fill="#FF0000" font-family="sans-serif" font-size="13" font-weight="bold" lengthAdjust="spacing" textLength="29.9736" x="664.9736" y="572.5747">[08]</text><text fill="#000000" font-family="sans-serif" font-size="13" lengthAdjust="spacing" textLength="114.8735" x="698.9473" y="572.5747">OnMessage(data)</text><polygon fill="#181818" points="387.7505,615.7734,377.7505,619.7734,387.7505,623.7734,383.7505,619.7734" style="stroke:#181818;stroke-width:1;"/><line style="stroke:#181818;stroke-width:1;stroke-dasharray:2.0,2.0;" x1="381.7505" x2="651.9736" y1="619.7734" y2="619.7734"/><text fill="#FF0000" font-family="sans-serif" font-size="13" font-weight="bold" lengthAdjust="spacing" textLength="29.9736" x="393.7505" y="614.7075">[09]</text><text fill="#000000" font-family="sans-serif" font-size="13" lengthAdjust="spacing" textLength="4.1323" x="427.7241" y="614.7075">&#160;</text><polygon fill="#181818" points="78.7114,644.9063,68.7114,648.9063,78.7114,652.9063,74.7114,648.9063" style="stroke:#181818;stroke-width:1;"/><line style="stroke:#181818;stroke-width:1;stroke-dasharray:2.0,2.0;" x1="72.7114" x2="370.7505" y1="648.9063" y2="648.9063"/><text fill="#FF0000" font-family="sans-serif" font-size="13" font-weight="bold" lengthAdjust="spacing" textLength="29.9736" x="84.7114" y="643.8403">[10]</text><text fill="#000000" font-family="sans-serif" font-size="13" lengthAdjust="spacing" textLength="4.1323" x="118.6851" y="643.8403">&#160;</text><rect fill="#DDDDDD" height="79.1875" id="_legend" rx="7.5" ry="7.5" style="stroke:#000000;stroke-width:1;" width="260.4756" x="12" y="54.2969"/><text fill="#000000" font-family="sans-serif" font-size="14" font-weight="bold" lengthAdjust="spacing" textLength="41.2139" x="21.874" y="74.292">Color</text><text fill="#000000" font-family="sans-serif" font-size="14" font-weight="bold" lengthAdjust="spacing" textLength="90.5488" x="121.5762" y="74.292">Description</text><rect fill="#AFEEEE" height="16.2969" style="stroke:transparent;stroke-width:1;" width="99.7021" x="17" y="77.5938"/><text fill="#000000" font-family="sans-serif" font-size="14" lengthAdjust="spacing" textLength="4.4502" x="17" y="90.5889">&#160;</text><text fill="#000000" font-family="sans-serif" font-size="14" lengthAdjust="spacing" textLength="107.7617" x="121.1523" y="90.5889">MessageBroker</text><rect fill="#F5DEB3" height="16.2969" style="stroke:transparent;stroke-width:1;" width="99.7021" x="17" y="93.8906"/><text fill="#000000" font-family="sans-serif" font-size="14" lengthAdjust="spacing" textLength="40.0518" x="17" y="106.8857">&#160;&#160;&#160;&#160;&#160;&#160;&#160;&#160;&#160;</text><text fill="#000000" font-family="sans-serif" font-size="14" lengthAdjust="spacing" textLength="81.4229" x="121.1523" y="106.8857">PtpMachine</text><rect fill="#ADD8E6" height="16.2969" style="stroke:transparent;stroke-width:1;" width="99.7021" x="17" y="110.1875"/><text fill="#000000" font-family="sans-serif" font-size="14" lengthAdjust="spacing" textLength="22.251" x="17" y="123.1826">&#160;&#160;&#160;&#160;&#160;</text><text fill="#000000" font-family="sans-serif" font-size="14" lengthAdjust="spacing" textLength="132.9727" x="121.1523" y="123.1826">ControlFlowDivider</text><line style="stroke:#000000;stroke-width:1;" x1="17" x2="267.4756" y1="61.2969" y2="61.2969"/><line style="stroke:#000000;stroke-width:1;" x1="17" x2="267.4756" y1="77.5938" y2="77.5938"/><line style="stroke:#000000;stroke-width:1;" x1="17" x2="267.4756" y1="93.8906" y2="93.8906"/><line style="stroke:#000000;stroke-width:1;" x1="17" x2="267.4756" y1="110.1875" y2="110.1875"/><line style="stroke:#000000;stroke-width:1;" x1="17" x2="267.4756" y1="126.4844" y2="126.4844"/><line style="stroke:#000000;stroke-width:1;" x1="17" x2="17" y1="61.2969" y2="126.4844"/><line style="stroke:#000000;stroke-width:1;" x1="116.7021" x2="116.7021" y1="61.2969" y2="126.4844"/><line style="stroke:#000000;stroke-width:1;" x1="267.4756" x2="267.4756" y1="61.2969" y2="126.4844"/><!--SRC=[ZLHDRzim3BtxLn3U9G6Q89TTWjJ0scn0WNKrsW0z34CWsxGjH94yYKxNOJz-aloT1CDqiiX7yZsI5d4I2F4kVcHfoIMk8KRDLSPJs39Y4DU9uCPw2dXL-f0BzHO49SyGSgKeKR-2WDMaP7rCK4EuoPKaI9LG-bPZ5csIwFjgzICC0e45oWn8LI0mfm3i-NCBzmuAmx6cBPfKyuguaeEvmSFcGym4xchzirRSO6HDZsWCA_1EgmFgI_nhYOoY8H74LBLQnsLx_5TUb7GdQenQ_BrLf9NuOfLl-SagrnvlnJIIWg1YcdZAAsQbXqFw49Y1YghziItNSBc0VvP5XqR_UHKuaUd1IQDusf5fq2Lt7vdc6Gn2xMoKdKhLpNs6os9v0tX2_GuVLqSpzyrXAV4J8nnByewnn4KqkGxRj6FcC9i7rm9QqMjuHfRPJNoHh3AbejbPtGRdRLBPktO2GELZXplFI9fRzf3MMgDjWyq9cLtcTGzPU1ln8uvCB-yoBRMI_3VpksU8KMr6W4zPnfs72JWYCPVIUzrUEqRjnQjPN7Q2gfqj-21pvO4PdYlxZsusV-FCbPvVWxSxiOQgGUvJ9aJ2qiD-5DFNRT1d7Uq5FyYJTOF6WXj2-pT3bwo7aEeAmOcpwQyuROs_jUp6F9_aDtnpByqiv7Blr3YUuGqCT8SejxThC7NIFn3BV-gpU6zmSNtuasnfZY8yeATrFfukJKTaEfPpzFKSum3tQFm5]--></g></svg>