<svg xmlns="http://www.w3.org/2000/svg" xmlns:xlink="http://www.w3.org/1999/xlink" contentStyleType="text/css" data-diagram-type="SEQUENCE" height="650px" preserveAspectRatio="none" style="width:1412px;height:650px;background:#FFFFFF;" version="1.1" viewBox="0 0 1412 650" width="1412px" zoomAndPan="magnify"><title>IPC Machine: Initialization</title><defs/><g><text fill="#000000" font-family="sans-serif" font-size="14" font-weight="bold" lengthAdjust="spacing" textLength="206.1787" x="599.9966" y="27.9951">IPC Machine: Initialization</text><rect fill="#FFFFE0" height="457.3203" style="stroke:#181818;stroke-width:0.5;" width="723.5044" x="1" y="180.0781"/><text fill="#000000" font-family="sans-serif" font-size="13" font-weight="bold" lengthAdjust="spacing" textLength="149.3667" x="285.8059" y="192.145">VehicleTimeDaemon</text><rect fill="#E6FFE6" height="457.3203" style="stroke:#181818;stroke-width:0.5;" width="408.6592" x="997.5127" y="180.0781"/><text fill="#000000" font-family="sans-serif" font-size="13" font-weight="bold" lengthAdjust="spacing" textLength="82.9194" x="1158.1196" y="192.145">Application</text><g><title>MessageBroker</title><rect fill="#FFFFFF" height="29.1328" style="stroke:#181818;stroke-width:1;" width="10" x="479.9937" y="390.3359"/></g><g><title>IPCMachine:publisher</title><rect fill="#FFFFFF" height="99.5625" style="stroke:#181818;stroke-width:1;" width="10" x="633.1895" y="261.6406"/></g><g><title>score::communication</title><rect fill="#FFFFFF" height="29.1328" style="stroke:#181818;stroke-width:1;" width="10" x="871.894" y="531"/></g><g><title>IPCMachine:receiver</title><rect fill="#FFFFFF" height="118.5313" style="stroke:#181818;stroke-width:1;" width="10" x="1074.9585" y="477.7344"/></g><g><title>mw::time::svt</title><rect fill="#FFFFFF" height="176.7969" style="stroke:#181818;stroke-width:1;" width="10" x="1218.731" y="448.6016"/></g><rect fill="transparent" height="75.3984" style="stroke:#000000;stroke-width:1.5;" width="386.3237" x="782.0806" y="492.7344"/><g><title>Application</title><rect fill="transparent" height="412.8906" width="8" x="47.1118" y="230.5078"/><line style="stroke:#181818;stroke-width:0.5;stroke-dasharray:5.0,5.0;" x1="51" x2="51" y1="230.5078" y2="643.3984"/></g><g><title>MessageBroker</title><rect fill="transparent" height="412.8906" width="8" x="480.9937" y="230.5078"/><line style="stroke:#181818;stroke-width:0.5;stroke-dasharray:5.0,5.0;" x1="484.1128" x2="484.1128" y1="230.5078" y2="643.3984"/></g><g><title>IPCMachine:publisher</title><rect fill="transparent" height="412.8906" width="8" x="634.1895" y="230.5078"/><line style="stroke:#181818;stroke-width:0.5;stroke-dasharray:5.0,5.0;" x1="637.8745" x2="637.8745" y1="230.5078" y2="643.3984"/></g><g><title>score::communication</title><rect fill="transparent" height="343.1094" width="8" x="872.894" y="300.2891"/><line style="stroke:#181818;stroke-width:0.5;stroke-dasharray:5.0,5.0;" x1="876.0806" x2="876.0806" y1="300.2891" y2="643.3984"/></g><g><title>IPCMachine:receiver</title><rect fill="transparent" height="412.8906" width="8" x="1075.9585" y="230.5078"/><line style="stroke:#181818;stroke-width:0.5;stroke-dasharray:5.0,5.0;" x1="1079.5127" x2="1079.5127" y1="230.5078" y2="643.3984"/></g><g><title>mw::time::svt</title><rect fill="transparent" height="412.8906" width="8" x="1219.731" y="230.5078"/><line style="stroke:#181818;stroke-width:0.5;stroke-dasharray:5.0,5.0;" x1="1223.4043" x2="1223.4043" y1="230.5078" y2="643.3984"/></g><g><title>Business logic</title><rect fill="transparent" height="412.8906" width="8" x="1341.6147" y="230.5078"/><line style="stroke:#181818;stroke-width:0.5;stroke-dasharray:5.0,5.0;" x1="1345.0576" x2="1345.0576" y1="230.5078" y2="643.3984"/></g><rect fill="#E0FFFF" height="30.2969" rx="2.5" ry="2.5" style="stroke:#181818;stroke-width:0.5;" width="92.2236" x="5" y="199.2109"/><text fill="#000000" font-family="sans-serif" font-size="14" lengthAdjust="spacing" textLength="78.2236" x="12" y="219.2061">Application</text><rect fill="#E0FFFF" height="30.2969" rx="2.5" ry="2.5" style="stroke:#181818;stroke-width:0.5;" width="121.7617" x="424.1128" y="199.2109"/><text fill="#000000" font-family="sans-serif" font-size="14" lengthAdjust="spacing" textLength="107.7617" x="431.1128" y="219.2061">MessageBroker</text><rect fill="#FFB6C1" height="30.2969" rx="2.5" ry="2.5" style="stroke:#181818;stroke-width:0.5;" width="164.6299" x="555.8745" y="199.2109"/><text fill="#000000" font-family="sans-serif" font-size="14" lengthAdjust="spacing" textLength="150.6299" x="562.8745" y="219.2061">IPCMachine:publisher</text><rect fill="#FFB6C1" height="30.2969" rx="2.5" ry="2.5" style="stroke:#181818;stroke-width:0.5;" width="156.8916" x="1001.5127" y="199.2109"/><text fill="#000000" font-family="sans-serif" font-size="14" lengthAdjust="spacing" textLength="142.8916" x="1008.5127" y="219.2061">IPCMachine:receiver</text><rect fill="#90EE90" height="30.2969" rx="2.5" ry="2.5" style="stroke:#181818;stroke-width:0.5;" width="110.6533" x="1168.4043" y="199.2109"/><text fill="#000000" font-family="sans-serif" font-size="14" lengthAdjust="spacing" textLength="96.6533" x="1175.4043" y="219.2061">mw::time::svt</text><rect fill="#FFA07A" height="30.2969" rx="2.5" ry="2.5" style="stroke:#181818;stroke-width:0.5;" width="113.1143" x="1289.0576" y="199.2109"/><text fill="#000000" font-family="sans-serif" font-size="14" lengthAdjust="spacing" textLength="99.1143" x="1296.0576" y="219.2061">Business logic</text><g><title>MessageBroker</title><rect fill="#FFFFFF" height="29.1328" style="stroke:#181818;stroke-width:1;" width="10" x="479.9937" y="390.3359"/></g><g><title>IPCMachine:publisher</title><rect fill="#FFFFFF" height="99.5625" style="stroke:#181818;stroke-width:1;" width="10" x="633.1895" y="261.6406"/></g><g><title>score::communication</title><rect fill="#FFFFFF" height="29.1328" style="stroke:#181818;stroke-width:1;" width="10" x="871.894" y="531"/></g><g><title>IPCMachine:receiver</title><rect fill="#FFFFFF" height="118.5313" style="stroke:#181818;stroke-width:1;" width="10" x="1074.9585" y="477.7344"/></g><g><title>mw::time::svt</title><rect fill="#FFFFFF" height="176.7969" style="stroke:#181818;stroke-width:1;" width="10" x="1218.731" y="448.6016"/></g><polygon fill="#181818" points="621.1895,257.6406,631.1895,261.6406,621.1895,265.6406,625.1895,261.6406" style="stroke:#181818;stroke-width:1;"/><line style="stroke:#181818;stroke-width:1;" x1="51.1118" x2="627.1895" y1="261.6406" y2="261.6406"/><text fill="#FF0000" font-family="sans-serif" font-size="13" font-weight="bold" lengthAdjust="spacing" textLength="29.9736" x="58.1118" y="256.5747">[01]</text><text fill="#000000" font-family="sans-serif" font-size="13" lengthAdjust="spacing" textLength="51.6953" x="92.0854" y="256.5747">create()</text><polygon fill="#181818" points="780.0806,286.7734,790.0806,290.7734,780.0806,294.7734,784.0806,290.7734" style="stroke:#181818;stroke-width:1;"/><line style="stroke:#181818;stroke-width:1;" x1="643.1895" x2="786.0806" y1="290.7734" y2="290.7734"/><text fill="#FF0000" font-family="sans-serif" font-size="13" font-weight="bold" lengthAdjust="spacing" textLength="29.9736" x="650.1895" y="285.7075">[02]</text><text fill="#000000" font-family="sans-serif" font-size="13" lengthAdjust="spacing" textLength="90.9175" x="684.1631" y="285.7075">OfferService()</text><rect fill="#F08080" height="30.2969" rx="2.5" ry="2.5" style="stroke:#181818;stroke-width:0.5;" width="169.627" x="792.0806" y="269.6406"/><text fill="#000000" font-family="sans-serif" font-size="14" lengthAdjust="spacing" textLength="155.627" x="799.0806" y="289.6357">score::communication</text><polygon fill="#181818" points="654.1895,328.0703,644.1895,332.0703,654.1895,336.0703,650.1895,332.0703" style="stroke:#181818;stroke-width:1;"/><line style="stroke:#181818;stroke-width:1;stroke-dasharray:2.0,2.0;" x1="648.1895" x2="875.894" y1="332.0703" y2="332.0703"/><text fill="#FF0000" font-family="sans-serif" font-size="13" font-weight="bold" lengthAdjust="spacing" textLength="29.9736" x="660.1895" y="327.0044">[03]</text><text fill="#000000" font-family="sans-serif" font-size="13" lengthAdjust="spacing" textLength="50.8511" x="694.1631" y="327.0044">success</text><polygon fill="#181818" points="62.1118,357.2031,52.1118,361.2031,62.1118,365.2031,58.1118,361.2031" style="stroke:#181818;stroke-width:1;"/><line style="stroke:#181818;stroke-width:1;stroke-dasharray:2.0,2.0;" x1="56.1118" x2="637.1895" y1="361.2031" y2="361.2031"/><text fill="#FF0000" font-family="sans-serif" font-size="13" font-weight="bold" lengthAdjust="spacing" textLength="29.9736" x="68.1118" y="356.1372">[04]</text><text fill="#000000" font-family="sans-serif" font-size="13" lengthAdjust="spacing" textLength="130.0254" x="102.0854" y="356.1372">ipc_publisher object</text><polygon fill="#181818" points="467.9937,386.3359,477.9937,390.3359,467.9937,394.3359,471.9937,390.3359" style="stroke:#181818;stroke-width:1;"/><line style="stroke:#181818;stroke-width:1;" x1="51.1118" x2="473.9937" y1="390.3359" y2="390.3359"/><text fill="#FF0000" font-family="sans-serif" font-size="13" font-weight="bold" lengthAdjust="spacing" textLength="29.9736" x="58.1118" y="385.27">[05]</text><text fill="#000000" font-family="sans-serif" font-size="13" lengthAdjust="spacing" textLength="375.9082" x="92.0854" y="385.27">subscribe("verified_ptp_data", ipc_publisher::onNewData)</text><polygon fill="#181818" points="62.1118,415.4688,52.1118,419.4688,62.1118,423.4688,58.1118,419.4688" style="stroke:#181818;stroke-width:1;"/><line style="stroke:#181818;stroke-width:1;stroke-dasharray:2.0,2.0;" x1="56.1118" x2="483.9937" y1="419.4688" y2="419.4688"/><text fill="#FF0000" font-family="sans-serif" font-size="13" font-weight="bold" lengthAdjust="spacing" textLength="29.9736" x="68.1118" y="414.4028">[06]</text><text fill="#000000" font-family="sans-serif" font-size="13" lengthAdjust="spacing" textLength="4.1323" x="102.0854" y="414.4028">&#160;</text><polygon fill="#181818" points="1239.731,444.6016,1229.731,448.6016,1239.731,452.6016,1235.731,448.6016" style="stroke:#181818;stroke-width:1;"/><line style="stroke:#181818;stroke-width:1;" x1="1233.731" x2="1344.6147" y1="448.6016" y2="448.6016"/><text fill="#FF0000" font-family="sans-serif" font-size="13" font-weight="bold" lengthAdjust="spacing" textLength="29.9736" x="1245.731" y="443.5356">[07]</text><text fill="#000000" font-family="sans-serif" font-size="13" lengthAdjust="spacing" textLength="51.6953" x="1279.7046" y="443.5356">create()</text><polygon fill="#181818" points="1095.9585,473.7344,1085.9585,477.7344,1095.9585,481.7344,1091.9585,477.7344" style="stroke:#181818;stroke-width:1;"/><line style="stroke:#181818;stroke-width:1;" x1="1089.9585" x2="1217.731" y1="477.7344" y2="477.7344"/><text fill="#FF0000" font-family="sans-serif" font-size="13" font-weight="bold" lengthAdjust="spacing" textLength="29.9736" x="1101.9585" y="472.6685">[08]</text><text fill="#000000" font-family="sans-serif" font-size="13" lengthAdjust="spacing" textLength="51.6953" x="1135.9321" y="472.6685">create()</text><path d="M782.0806,492.7344 L858.7046,492.7344 L858.7046,499.8672 L848.7046,509.8672 L782.0806,509.8672 L782.0806,492.7344 " fill="#EEEEEE" style="stroke:#000000;stroke-width:1.5;"/><rect fill="transparent" height="75.3984" style="stroke:#000000;stroke-width:1.5;" width="386.3237" x="782.0806" y="492.7344"/><text fill="#000000" font-family="sans-serif" font-size="13" font-weight="bold" lengthAdjust="spacing" textLength="31.624" x="797.0806" y="505.8013">loop</text><text fill="#000000" font-family="sans-serif" font-size="11" font-weight="bold" lengthAdjust="spacing" textLength="232.8638" x="873.7046" y="504.9448">[while FindService returns not ready]</text><polygon fill="#181818" points="892.894,527,882.894,531,892.894,535,888.894,531" style="stroke:#181818;stroke-width:1;"/><line style="stroke:#181818;stroke-width:1;" x1="886.894" x2="1073.9585" y1="531" y2="531"/><text fill="#FF0000" font-family="sans-serif" font-size="13" font-weight="bold" lengthAdjust="spacing" textLength="29.9736" x="898.894" y="525.9341">[09]</text><text fill="#000000" font-family="sans-serif" font-size="13" lengthAdjust="spacing" textLength="85.7695" x="932.8677" y="525.9341">FindService()</text><polygon fill="#181818" points="1062.9585,556.1328,1072.9585,560.1328,1062.9585,564.1328,1066.9585,560.1328" style="stroke:#181818;stroke-width:1;"/><line style="stroke:#181818;stroke-width:1;stroke-dasharray:2.0,2.0;" x1="876.894" x2="1068.9585" y1="560.1328" y2="560.1328"/><text fill="#FF0000" font-family="sans-serif" font-size="13" font-weight="bold" lengthAdjust="spacing" textLength="29.9736" x="883.894" y="555.0669">[10]</text><text fill="#000000" font-family="sans-serif" font-size="13" lengthAdjust="spacing" textLength="135.0908" x="917.8677" y="555.0669">success or not ready</text><polygon fill="#181818" points="1206.731,592.2656,1216.731,596.2656,1206.731,600.2656,1210.731,596.2656" style="stroke:#181818;stroke-width:1;"/><line style="stroke:#181818;stroke-width:1;stroke-dasharray:2.0,2.0;" x1="1079.9585" x2="1212.731" y1="596.2656" y2="596.2656"/><text fill="#FF0000" font-family="sans-serif" font-size="13" font-weight="bold" lengthAdjust="spacing" textLength="29.9736" x="1086.9585" y="591.1997">[11]</text><text fill="#000000" font-family="sans-serif" font-size="13" lengthAdjust="spacing" textLength="4.1323" x="1120.9321" y="591.1997">&#160;</text><polygon fill="#181818" points="1333.6147,621.3984,1343.6147,625.3984,1333.6147,629.3984,1337.6147,625.3984" style="stroke:#181818;stroke-width:1;"/><line style="stroke:#181818;stroke-width:1;stroke-dasharray:2.0,2.0;" x1="1223.731" x2="1339.6147" y1="625.3984" y2="625.3984"/><text fill="#FF0000" font-family="sans-serif" font-size="13" font-weight="bold" lengthAdjust="spacing" textLength="29.9736" x="1230.731" y="620.3325">[12]</text><text fill="#000000" font-family="sans-serif" font-size="13" lengthAdjust="spacing" textLength="4.1323" x="1264.7046" y="620.3325">&#160;</text><rect fill="#DDDDDD" height="111.7813" id="_legend" rx="7.5" ry="7.5" style="stroke:#000000;stroke-width:1;" width="317.5625" x="12" y="54.2969"/><text fill="#000000" font-family="sans-serif" font-size="14" font-weight="bold" lengthAdjust="spacing" textLength="41.2139" x="21.874" y="74.292">Color</text><text fill="#000000" font-family="sans-serif" font-size="14" font-weight="bold" lengthAdjust="spacing" textLength="90.5488" x="106.9541" y="74.292">Description</text><rect fill="#E0FFFF" height="16.2969" style="stroke:transparent;stroke-width:1;" width="85.0801" x="17" y="77.5938"/><text fill="#000000" font-family="sans-serif" font-size="14" lengthAdjust="spacing" textLength="13.3506" x="17" y="90.5889">&#160;&#160;&#160;</text><text fill="#000000" font-family="sans-serif" font-size="14" lengthAdjust="spacing" textLength="164.6299" x="106.5303" y="90.5889">TimeDaemon members</text><rect fill="#FFB6C1" height="16.2969" style="stroke:transparent;stroke-width:1;" width="85.0801" x="17" y="93.8906"/><text fill="#000000" font-family="sans-serif" font-size="14" lengthAdjust="spacing" textLength="13.3506" x="17" y="106.8857">&#160;&#160;&#160;</text><text fill="#000000" font-family="sans-serif" font-size="14" lengthAdjust="spacing" textLength="113.292" x="106.5303" y="106.8857">IPC components</text><rect fill="#F08080" height="16.2969" style="stroke:transparent;stroke-width:1;" width="85.0801" x="17" y="110.1875"/><text fill="#000000" font-family="sans-serif" font-size="14" lengthAdjust="spacing" textLength="8.9004" x="17" y="123.1826">&#160;&#160;</text><text fill="#000000" font-family="sans-serif" font-size="14" lengthAdjust="spacing" textLength="155.627" x="106.5303" y="123.1826">score::communication</text><rect fill="#FFA07A" height="16.2969" style="stroke:transparent;stroke-width:1;" width="85.0801" x="17" y="126.4844"/><text fill="#000000" font-family="sans-serif" font-size="14" lengthAdjust="spacing" textLength="4.4502" x="17" y="139.4795">&#160;</text><text fill="#000000" font-family="sans-serif" font-size="14" lengthAdjust="spacing" textLength="123.2041" x="106.5303" y="139.4795">Client Application</text><rect fill="#90EE90" height="16.2969" style="stroke:transparent;stroke-width:1;" width="85.0801" x="17" y="142.7813"/><text fill="#000000" font-family="sans-serif" font-size="14" lengthAdjust="spacing" textLength="8.9004" x="17" y="155.7764">&#160;&#160;</text><text fill="#000000" font-family="sans-serif" font-size="14" lengthAdjust="spacing" textLength="171.5889" x="106.5303" y="155.7764">Middleware components</text><line style="stroke:#000000;stroke-width:1;" x1="17" x2="324.5625" y1="61.2969" y2="61.2969"/><line style="stroke:#000000;stroke-width:1;" x1="17" x2="324.5625" y1="77.5938" y2="77.5938"/><line style="stroke:#000000;stroke-width:1;" x1="17" x2="324.5625" y1="93.8906" y2="93.8906"/><line style="stroke:#000000;stroke-width:1;" x1="17" x2="324.5625" y1="110.1875" y2="110.1875"/><line style="stroke:#000000;stroke-width:1;" x1="17" x2="324.5625" y1="126.4844" y2="126.4844"/><line style="stroke:#000000;stroke-width:1;" x1="17" x2="324.5625" y1="142.7813" y2="142.7813"/><line style="stroke:#000000;stroke-width:1;" x1="17" x2="324.5625" y1="159.0781" y2="159.0781"/><line style="stroke:#000000;stroke-width:1;" x1="17" x2="17" y1="61.2969" y2="159.0781"/><line style="stroke:#000000;stroke-width:1;" x1="102.0801" x2="102.0801" y1="61.2969" y2="159.0781"/><line style="stroke:#000000;stroke-width:1;" x1="324.5625" x2="324.5625" y1="61.2969" y2="159.0781"/><!--SRC=[XLHDQnin4BthLmpE9GaDv9J3uXWQcvP0tGPI2YKKezMExMcqaf2qTbFoupkIrzrTsqrrqiUyUM_UI8eKDSBzmnJcKgt9O07tXY99JRzb96k4M5E5iBGsblQN4BA9rZHrYHv6uwKr4PJLrjzwh2RZSl9qVVrZb8EaYhIH4I7bqBX2Kq6q3ZGkem0UhxSmJL1e1wzd69GdbtZXQBpkKEEpJxHQn-cBD9EqXgzKuqnYpPWQax3mRzG3cUSTAfMiREsiGHF3VxYibtgIK45PZqN1mBenfEHGwH3rA3LhcZ1ggeb9uBrp-WXpYFhe4KtccbDLQTnAZwU4lWesT6Uh4DmP-8PhKXfxRkmIVaUjxJPpEEaZANAInOnwQaOW0qZdeBFsE7wE8SWLtddxZ3uZoZnz4yGkx- -LQqfDOTrYoQd5tntecfEgWdpH1dbE-Pxpv8D5seTUhtQEzFq-mvlb4c_ULEXH8Mrw0lSRVNr72UfjKKGslIZ29cPelOLUBuyHTqrWkX10snMf357vXYow7kmkJ-T6EhcQ36qhG7da5tP-8OPsSc3do-Lb0L-uTl-8VaCgHVTCkpfE6XgbMDrXJWvC8eg3rjdo9wgurzTUYPIaJ4-vnFCH6qXBmchXebjKCihHkmFAmfhFk9tnqOLeCxHqGlISuIqskokQVMxLxnlLEzIM_vhjclXt-q2cQei7Zx7n9e2naUUoUidj6JHxu5xHHtFQ57t2lav0wnxmlzPnf4SwvCYrv0furjKe_W00]--></g></svg>