<svg xmlns="http://www.w3.org/2000/svg" xmlns:xlink="http://www.w3.org/1999/xlink" contentStyleType="text/css" data-diagram-type="SEQUENCE" height="1429px" preserveAspectRatio="none" style="width:2355px;height:1429px;background:#FFFFFF;" version="1.1" viewBox="0 0 2355 1429" width="2355px" zoomAndPan="magnify"><title>TimeSlave Data Flow</title><defs/><g><text fill="#000000" font-family="Verdana" font-size="22" font-weight="bold" lengthAdjust="spacing" textLength="259.6816" x="1046.5227" y="35.4209">TimeSlave Data Flow</text><g><title>Network</title><rect fill="transparent" height="1278.4453" width="8" x="71.7539" y="99.2031"/><line style="stroke:#000000;stroke-width:1;" x1="75" x2="75" y1="99.2031" y2="1377.6484"/></g><g><title>RawSocket</title><rect fill="transparent" height="1278.4453" width="8" x="274.6182" y="99.2031"/><line style="stroke:#000000;stroke-width:1;" x1="278.0601" x2="278.0601" y1="99.2031" y2="1377.6484"/></g><g><title>FrameCodec</title><rect fill="transparent" height="1278.4453" width="8" x="481.7227" y="99.2031"/><line style="stroke:#000000;stroke-width:1;" x1="485.6343" x2="485.6343" y1="99.2031" y2="1377.6484"/></g><g><title>MessageParser</title><rect fill="transparent" height="1278.4453" width="8" x="622.7109" y="99.2031"/><line style="stroke:#000000;stroke-width:1;" x1="625.811" x2="625.811" y1="99.2031" y2="1377.6484"/></g><g><title>SyncStateMachine</title><rect fill="transparent" height="1278.4453" width="8" x="814.9302" y="99.2031"/><line style="stroke:#000000;stroke-width:1;" x1="818.228" x2="818.228" y1="99.2031" y2="1377.6484"/></g><g><title>PeerDelayMeasurer</title><rect fill="transparent" height="1278.4453" width="8" x="1067.437" y="99.2031"/><line style="stroke:#000000;stroke-width:1;" x1="1070.8691" x2="1070.8691" y1="99.2031" y2="1377.6484"/></g><g><title>PhcAdjuster</title><rect fill="transparent" height="1278.4453" width="8" x="1296.1465" y="99.2031"/><line style="stroke:#000000;stroke-width:1;" x1="1299.4507" x2="1299.4507" y1="99.2031" y2="1377.6484"/></g><g><title>GptpEngine</title><rect fill="transparent" height="1278.4453" width="8" x="1468.8975" y="99.2031"/><line style="stroke:#000000;stroke-width:1;" x1="1472.8511" x2="1472.8511" y1="99.2031" y2="1377.6484"/></g><g><title>GptpIpcPublisher</title><rect fill="transparent" height="1278.4453" width="8" x="1746.8965" y="99.2031"/><line style="stroke:#000000;stroke-width:1;" x1="1750.2256" x2="1750.2256" y1="99.2031" y2="1377.6484"/></g><g><title>SharedMemory</title><rect fill="transparent" height="1278.4453" width="8" x="2128.9106" y="99.2031"/><line style="stroke:#000000;stroke-width:1;" x1="2132.645" x2="2132.645" y1="99.2031" y2="1377.6484"/></g><g><title>TimeSlave</title><rect fill="transparent" height="1278.4453" width="8" x="2274.4517" y="99.2031"/><line style="stroke:#000000;stroke-width:1;" x1="2278.1763" x2="2278.1763" y1="99.2031" y2="1377.6484"/></g><rect fill="#F5F5DC" height="46.5938" rx="2.5" ry="2.5" style="stroke:#000000;stroke-width:1;" width="111.5078" x="20" y="51.6094"/><text fill="#000000" font-family="Verdana" font-size="14" lengthAdjust="spacing" textLength="58.4541" x="46.5269" y="71.6045">Network</text><text fill="#000000" font-family="Verdana" font-size="14" lengthAdjust="spacing" textLength="97.5078" x="27" y="87.9014">(gPTP Master)</text><rect fill="#F5F5DC" height="46.5938" rx="2.5" ry="2.5" style="stroke:#000000;stroke-width:1;" width="111.5078" x="20" y="1376.6484"/><text fill="#000000" font-family="Verdana" font-size="14" lengthAdjust="spacing" textLength="58.4541" x="46.5269" y="1396.6436">Network</text><text fill="#000000" font-family="Verdana" font-size="14" lengthAdjust="spacing" textLength="97.5078" x="27" y="1412.9404">(gPTP Master)</text><rect fill="#87CEFA" height="30.2969" rx="2.5" ry="2.5" style="stroke:#000000;stroke-width:1;" width="91.1162" x="233.0601" y="67.9063"/><text fill="#000000" font-family="Verdana" font-size="14" lengthAdjust="spacing" textLength="77.1162" x="240.0601" y="87.9014">RawSocket</text><rect fill="#87CEFA" height="30.2969" rx="2.5" ry="2.5" style="stroke:#000000;stroke-width:1;" width="91.1162" x="233.0601" y="1376.6484"/><text fill="#000000" font-family="Verdana" font-size="14" lengthAdjust="spacing" textLength="77.1162" x="240.0601" y="1396.6436">RawSocket</text><rect fill="#F5DEB3" height="30.2969" rx="2.5" ry="2.5" style="stroke:#000000;stroke-width:1;" width="102.1768" x="434.6343" y="67.9063"/><text fill="#000000" font-family="Verdana" font-size="14" lengthAdjust="spacing" textLength="88.1768" x="441.6343" y="87.9014">FrameCodec</text><rect fill="#F5DEB3" height="30.2969" rx="2.5" ry="2.5" style="stroke:#000000;stroke-width:1;" width="102.1768" x="434.6343" y="1376.6484"/><text fill="#000000" font-family="Verdana" font-size="14" lengthAdjust="spacing" textLength="88.1768" x="441.6343" y="1396.6436">FrameCodec</text><rect fill="#F5DEB3" height="30.2969" rx="2.5" ry="2.5" style="stroke:#000000;stroke-width:1;" width="119.7998" x="566.811" y="67.9063"/><text fill="#000000" font-family="Verdana" font-size="14" lengthAdjust="spacing" textLength="105.7998" x="573.811" y="87.9014">MessageParser</text><rect fill="#F5DEB3" height="30.2969" rx="2.5" ry="2.5" style="stroke:#000000;stroke-width:1;" width="119.7998" x="566.811" y="1376.6484"/><text fill="#000000" font-family="Verdana" font-size="14" lengthAdjust="spacing" textLength="105.7998" x="573.811" y="1396.6436">MessageParser</text><rect fill="#F5DEB3" height="30.2969" rx="2.5" ry="2.5" style="stroke:#000000;stroke-width:1;" width="143.4043" x="747.228" y="67.9063"/><text fill="#000000" font-family="Verdana" font-size="14" lengthAdjust="spacing" textLength="129.4043" x="754.228" y="87.9014">SyncStateMachine</text><rect fill="#F5DEB3" height="30.2969" rx="2.5" ry="2.5" style="stroke:#000000;stroke-width:1;" width="143.4043" x="747.228" y="1376.6484"/><text fill="#000000" font-family="Verdana" font-size="14" lengthAdjust="spacing" textLength="129.4043" x="754.228" y="1396.6436">SyncStateMachine</text><rect fill="#F5DEB3" height="30.2969" rx="2.5" ry="2.5" style="stroke:#000000;stroke-width:1;" width="151.1357" x="995.8691" y="67.9063"/><text fill="#000000" font-family="Verdana" font-size="14" lengthAdjust="spacing" textLength="137.1357" x="1002.8691" y="87.9014">PeerDelayMeasurer</text><rect fill="#F5DEB3" height="30.2969" rx="2.5" ry="2.5" style="stroke:#000000;stroke-width:1;" width="151.1357" x="995.8691" y="1376.6484"/><text fill="#000000" font-family="Verdana" font-size="14" lengthAdjust="spacing" textLength="137.1357" x="1002.8691" y="1396.6436">PeerDelayMeasurer</text><rect fill="#E6E6FA" height="30.2969" rx="2.5" ry="2.5" style="stroke:#000000;stroke-width:1;" width="97.3916" x="1251.4507" y="67.9063"/><text fill="#000000" font-family="Verdana" font-size="14" lengthAdjust="spacing" textLength="83.3916" x="1258.4507" y="87.9014">PhcAdjuster</text><rect fill="#E6E6FA" height="30.2969" rx="2.5" ry="2.5" style="stroke:#000000;stroke-width:1;" width="97.3916" x="1251.4507" y="1376.6484"/><text fill="#000000" font-family="Verdana" font-size="14" lengthAdjust="spacing" textLength="83.3916" x="1258.4507" y="1396.6436">PhcAdjuster</text><rect fill="#FFA07A" height="30.2969" rx="2.5" ry="2.5" style="stroke:#000000;stroke-width:1;" width="96.0928" x="1424.8511" y="67.9063"/><text fill="#000000" font-family="Verdana" font-size="14" lengthAdjust="spacing" textLength="82.0928" x="1431.8511" y="87.9014">GptpEngine</text><rect fill="#FFA07A" height="30.2969" rx="2.5" ry="2.5" style="stroke:#000000;stroke-width:1;" width="96.0928" x="1424.8511" y="1376.6484"/><text fill="#000000" font-family="Verdana" font-size="14" lengthAdjust="spacing" textLength="82.0928" x="1431.8511" y="1396.6436">GptpEngine</text><rect fill="#FFB6C1" height="30.2969" rx="2.5" ry="2.5" style="stroke:#000000;stroke-width:1;" width="133.3418" x="1684.2256" y="67.9063"/><text fill="#000000" font-family="Verdana" font-size="14" lengthAdjust="spacing" textLength="119.3418" x="1691.2256" y="87.9014">GptpIpcPublisher</text><rect fill="#FFB6C1" height="30.2969" rx="2.5" ry="2.5" style="stroke:#000000;stroke-width:1;" width="133.3418" x="1684.2256" y="1376.6484"/><text fill="#000000" font-family="Verdana" font-size="14" lengthAdjust="spacing" textLength="119.3418" x="1691.2256" y="1396.6436">GptpIpcPublisher</text><rect fill="#FFB6C1" height="30.2969" rx="2.5" ry="2.5" style="stroke:#000000;stroke-width:1;" width="120.5313" x="2072.645" y="67.9063"/><text fill="#000000" font-family="Verdana" font-size="14" lengthAdjust="spacing" textLength="106.5313" x="2079.645" y="87.9014">SharedMemory</text><rect fill="#FFB6C1" height="30.2969" rx="2.5" ry="2.5" style="stroke:#000000;stroke-width:1;" width="120.5313" x="2072.645" y="1376.6484"/><text fill="#000000" font-family="Verdana" font-size="14" lengthAdjust="spacing" textLength="106.5313" x="2079.645" y="1396.6436">SharedMemory</text><rect fill="#E0FFFF" height="46.5938" rx="2.5" ry="2.5" style="stroke:#000000;stroke-width:1;" width="110.5508" x="2223.1763" y="51.6094"/><text fill="#000000" font-family="Verdana" font-size="14" lengthAdjust="spacing" textLength="72.9463" x="2241.9785" y="71.6045">TimeSlave</text><text fill="#000000" font-family="Verdana" font-size="14" lengthAdjust="spacing" textLength="96.5508" x="2230.1763" y="87.9014">(main thread)</text><rect fill="#E0FFFF" height="46.5938" rx="2.5" ry="2.5" style="stroke:#000000;stroke-width:1;" width="110.5508" x="2223.1763" y="1376.6484"/><text fill="#000000" font-family="Verdana" font-size="14" lengthAdjust="spacing" textLength="72.9463" x="2241.9785" y="1396.6436">TimeSlave</text><text fill="#000000" font-family="Verdana" font-size="14" lengthAdjust="spacing" textLength="96.5508" x="2230.1763" y="1412.9404">(main thread)</text><rect fill="#FFFFFF" height="3" style="stroke:#FFFFFF;stroke-width:1;" width="2343.7271" x="5" y="129.7695"/><line style="stroke:#000000;stroke-width:0.5;" x1="5" x2="2348.7271" y1="129.7695" y2="129.7695"/><line style="stroke:#000000;stroke-width:0.5;" x1="5" x2="2348.7271" y1="132.7695" y2="132.7695"/><rect fill="#FFFFFF" height="23.1328" style="stroke:#000000;stroke-width:1;" width="301.8853" x="1025.9209" y="119.2031"/><text fill="#000000" font-family="Verdana" font-size="13" font-weight="bold" lengthAdjust="spacing" textLength="283.3594" x="1031.9209" y="135.27">RxThread &#8212; Sync/FollowUp Processing</text><polygon fill="#000000" points="266.6182,184.6016,276.6182,188.6016,266.6182,192.6016,270.6182,188.6016" style="stroke:#000000;stroke-width:1;"/><line style="stroke:#000000;stroke-width:1;" x1="75.7539" x2="272.6182" y1="188.6016" y2="188.6016"/><text fill="#000000" font-family="Verdana" font-size="13" lengthAdjust="spacing" textLength="110.0176" x="82.7539" y="168.4028">gPTP Sync frame</text><text fill="#000000" font-family="Verdana" font-size="13" lengthAdjust="spacing" textLength="129.3081" x="82.7539" y="183.5356">(EtherType 0x88F7)</text><polygon fill="#000000" points="473.7227,213.7344,483.7227,217.7344,473.7227,221.7344,477.7227,217.7344" style="stroke:#000000;stroke-width:1;"/><line style="stroke:#000000;stroke-width:1;" x1="278.6182" x2="479.7227" y1="217.7344" y2="217.7344"/><text fill="#000000" font-family="Verdana" font-size="13" lengthAdjust="spacing" textLength="183.1045" x="285.6182" y="212.6685">raw buffer + HW timestamp</text><polygon fill="#000000" points="614.7109,242.8672,624.7109,246.8672,614.7109,250.8672,618.7109,246.8672" style="stroke:#000000;stroke-width:1;"/><line style="stroke:#000000;stroke-width:1;" x1="485.7227" x2="620.7109" y1="246.8672" y2="246.8672"/><text fill="#000000" font-family="Verdana" font-size="13" lengthAdjust="spacing" textLength="112.0552" x="492.7227" y="241.8013">Ethernet payload</text><polygon fill="#000000" points="806.9302,272,816.9302,276,806.9302,280,810.9302,276" style="stroke:#000000;stroke-width:1;"/><line style="stroke:#000000;stroke-width:1;" x1="626.7109" x2="812.9302" y1="276" y2="276"/><text fill="#000000" font-family="Verdana" font-size="13" lengthAdjust="spacing" textLength="140.5435" x="633.7109" y="270.9341">OnSync(PTPMessage)</text><line style="stroke:#000000;stroke-width:1;" x1="818.9302" x2="860.9302" y1="305.1328" y2="305.1328"/><line style="stroke:#000000;stroke-width:1;" x1="860.9302" x2="860.9302" y1="305.1328" y2="318.1328"/><line style="stroke:#000000;stroke-width:1;" x1="819.9302" x2="860.9302" y1="318.1328" y2="318.1328"/><polygon fill="#000000" points="829.9302,314.1328,819.9302,318.1328,829.9302,322.1328,825.9302,318.1328" style="stroke:#000000;stroke-width:1;"/><text fill="#000000" font-family="Verdana" font-size="13" lengthAdjust="spacing" textLength="142.8857" x="825.9302" y="300.0669">store Sync timestamp</text><polygon fill="#000000" points="266.6182,343.2656,276.6182,347.2656,266.6182,351.2656,270.6182,347.2656" style="stroke:#000000;stroke-width:1;"/><line style="stroke:#000000;stroke-width:1;" x1="75.7539" x2="272.6182" y1="347.2656" y2="347.2656"/><text fill="#000000" font-family="Verdana" font-size="13" lengthAdjust="spacing" textLength="137.6934" x="82.7539" y="342.1997">gPTP FollowUp frame</text><polygon fill="#000000" points="473.7227,372.3984,483.7227,376.3984,473.7227,380.3984,477.7227,376.3984" style="stroke:#000000;stroke-width:1;"/><line style="stroke:#000000;stroke-width:1;" x1="278.6182" x2="479.7227" y1="376.3984" y2="376.3984"/><text fill="#000000" font-family="Verdana" font-size="13" lengthAdjust="spacing" textLength="183.1045" x="285.6182" y="371.3325">raw buffer + HW timestamp</text><polygon fill="#000000" points="614.7109,401.5313,624.7109,405.5313,614.7109,409.5313,618.7109,405.5313" style="stroke:#000000;stroke-width:1;"/><line style="stroke:#000000;stroke-width:1;" x1="485.7227" x2="620.7109" y1="405.5313" y2="405.5313"/><text fill="#000000" font-family="Verdana" font-size="13" lengthAdjust="spacing" textLength="112.0552" x="492.7227" y="400.4653">Ethernet payload</text><polygon fill="#000000" points="806.9302,430.6641,816.9302,434.6641,806.9302,438.6641,810.9302,434.6641" style="stroke:#000000;stroke-width:1;"/><line style="stroke:#000000;stroke-width:1;" x1="626.7109" x2="812.9302" y1="434.6641" y2="434.6641"/><text fill="#000000" font-family="Verdana" font-size="13" lengthAdjust="spacing" textLength="168.2192" x="633.7109" y="429.5981">OnFollowUp(PTPMessage)</text><line style="stroke:#000000;stroke-width:1;" x1="818.9302" x2="860.9302" y1="463.7969" y2="463.7969"/><line style="stroke:#000000;stroke-width:1;" x1="860.9302" x2="860.9302" y1="463.7969" y2="476.7969"/><line style="stroke:#000000;stroke-width:1;" x1="819.9302" x2="860.9302" y1="476.7969" y2="476.7969"/><polygon fill="#000000" points="829.9302,472.7969,819.9302,476.7969,829.9302,480.7969,825.9302,476.7969" style="stroke:#000000;stroke-width:1;"/><text fill="#000000" font-family="Verdana" font-size="13" lengthAdjust="spacing" textLength="238.5068" x="825.9302" y="458.731">compute offset &amp; neighborRateRatio</text><polygon fill="#000000" points="1460.8975,517.0625,1470.8975,521.0625,1460.8975,525.0625,1464.8975,521.0625" style="stroke:#000000;stroke-width:1;"/><line style="stroke:#000000;stroke-width:1;stroke-dasharray:2.0,2.0;" x1="818.9302" x2="1466.8975" y1="521.0625" y2="521.0625"/><text fill="#000000" font-family="Verdana" font-size="13" lengthAdjust="spacing" textLength="218.5942" x="825.9302" y="500.8638">SyncResult{master_ns, offset_ns,</text><text fill="#000000" font-family="Verdana" font-size="13" lengthAdjust="spacing" textLength="114.5879" x="825.9302" y="515.9966">time_jump_flags}</text><line style="stroke:#000000;stroke-width:1;" x1="1472.8975" x2="1514.8975" y1="565.3281" y2="565.3281"/><line style="stroke:#000000;stroke-width:1;" x1="1514.8975" x2="1514.8975" y1="565.3281" y2="578.3281"/><line style="stroke:#000000;stroke-width:1;" x1="1473.8975" x2="1514.8975" y1="578.3281" y2="578.3281"/><polygon fill="#000000" points="1483.8975,574.3281,1473.8975,578.3281,1483.8975,582.3281,1479.8975,578.3281" style="stroke:#000000;stroke-width:1;"/><text fill="#000000" font-family="Verdana" font-size="13" lengthAdjust="spacing" textLength="175.0747" x="1479.8975" y="545.1294">update pending_snapshot_</text><text fill="#000000" font-family="Verdana" font-size="13" lengthAdjust="spacing" textLength="119.1074" x="1479.8975" y="560.2622">(mutex protected)</text><rect fill="#FFFFFF" height="3" style="stroke:#FFFFFF;stroke-width:1;" width="2343.7271" x="5" y="606.8945"/><line style="stroke:#000000;stroke-width:0.5;" x1="5" x2="2348.7271" y1="606.8945" y2="606.8945"/><line style="stroke:#000000;stroke-width:0.5;" x1="5" x2="2348.7271" y1="609.8945" y2="609.8945"/><rect fill="#FFFFFF" height="23.1328" style="stroke:#000000;stroke-width:1;" width="325.873" x="1013.927" y="596.3281"/><text fill="#000000" font-family="Verdana" font-size="13" font-weight="bold" lengthAdjust="spacing" textLength="307.3472" x="1019.927" y="612.395">PdelayThread &#8212; Peer Delay Measurement</text><polygon fill="#000000" points="1082.437,646.5938,1072.437,650.5938,1082.437,654.5938,1078.437,650.5938" style="stroke:#000000;stroke-width:1;"/><line style="stroke:#000000;stroke-width:1;" x1="1076.437" x2="1471.8975" y1="650.5938" y2="650.5938"/><text fill="#000000" font-family="Verdana" font-size="13" lengthAdjust="spacing" textLength="96.2749" x="1088.437" y="645.5278">SendRequest()</text><polygon fill="#000000" points="289.6182,675.7266,279.6182,679.7266,289.6182,683.7266,285.6182,679.7266" style="stroke:#000000;stroke-width:1;"/><line style="stroke:#000000;stroke-width:1;" x1="283.6182" x2="1070.437" y1="679.7266" y2="679.7266"/><text fill="#000000" font-family="Verdana" font-size="13" lengthAdjust="spacing" textLength="113.0835" x="295.6182" y="674.6606">PDelayReq frame</text><polygon fill="#000000" points="266.6182,704.8594,276.6182,708.8594,266.6182,712.8594,270.6182,708.8594" style="stroke:#000000;stroke-width:1;"/><line style="stroke:#000000;stroke-width:1;stroke-dasharray:2.0,2.0;" x1="75.7539" x2="272.6182" y1="708.8594" y2="708.8594"/><text fill="#000000" font-family="Verdana" font-size="13" lengthAdjust="spacing" textLength="119.8564" x="82.7539" y="703.7935">PDelayResp frame</text><polygon fill="#000000" points="473.7227,733.9922,483.7227,737.9922,473.7227,741.9922,477.7227,737.9922" style="stroke:#000000;stroke-width:1;"/><line style="stroke:#000000;stroke-width:1;" x1="278.6182" x2="479.7227" y1="737.9922" y2="737.9922"/><text fill="#000000" font-family="Verdana" font-size="13" lengthAdjust="spacing" textLength="183.1045" x="285.6182" y="732.9263">raw buffer + HW timestamp</text><polygon fill="#000000" points="614.7109,763.125,624.7109,767.125,614.7109,771.125,618.7109,767.125" style="stroke:#000000;stroke-width:1;"/><line style="stroke:#000000;stroke-width:1;" x1="485.7227" x2="620.7109" y1="767.125" y2="767.125"/><text fill="#000000" font-family="Verdana" font-size="13" lengthAdjust="spacing" textLength="112.0552" x="492.7227" y="762.0591">Ethernet payload</text><polygon fill="#000000" points="1059.437,792.2578,1069.437,796.2578,1059.437,800.2578,1063.437,796.2578" style="stroke:#000000;stroke-width:1;"/><line style="stroke:#000000;stroke-width:1;" x1="626.7109" x2="1065.437" y1="796.2578" y2="796.2578"/><text fill="#000000" font-family="Verdana" font-size="13" lengthAdjust="spacing" textLength="119.3232" x="633.7109" y="791.1919">OnResponse(msg)</text><polygon fill="#000000" points="266.6182,821.3906,276.6182,825.3906,266.6182,829.3906,270.6182,825.3906" style="stroke:#000000;stroke-width:1;"/><line style="stroke:#000000;stroke-width:1;stroke-dasharray:2.0,2.0;" x1="75.7539" x2="272.6182" y1="825.3906" y2="825.3906"/><text fill="#000000" font-family="Verdana" font-size="13" lengthAdjust="spacing" textLength="178.8643" x="82.7539" y="820.3247">PDelayRespFollowUp frame</text><polygon fill="#000000" points="473.7227,850.5234,483.7227,854.5234,473.7227,858.5234,477.7227,854.5234" style="stroke:#000000;stroke-width:1;"/><line style="stroke:#000000;stroke-width:1;" x1="278.6182" x2="479.7227" y1="854.5234" y2="854.5234"/><text fill="#000000" font-family="Verdana" font-size="13" lengthAdjust="spacing" textLength="183.1045" x="285.6182" y="849.4575">raw buffer + HW timestamp</text><polygon fill="#000000" points="614.7109,879.6563,624.7109,883.6563,614.7109,887.6563,618.7109,883.6563" style="stroke:#000000;stroke-width:1;"/><line style="stroke:#000000;stroke-width:1;" x1="485.7227" x2="620.7109" y1="883.6563" y2="883.6563"/><text fill="#000000" font-family="Verdana" font-size="13" lengthAdjust="spacing" textLength="112.0552" x="492.7227" y="878.5903">Ethernet payload</text><polygon fill="#000000" points="1059.437,908.7891,1069.437,912.7891,1059.437,916.7891,1063.437,912.7891" style="stroke:#000000;stroke-width:1;"/><line style="stroke:#000000;stroke-width:1;" x1="626.7109" x2="1065.437" y1="912.7891" y2="912.7891"/><text fill="#000000" font-family="Verdana" font-size="13" lengthAdjust="spacing" textLength="178.3311" x="633.7109" y="907.7231">OnResponseFollowUp(msg)</text><line style="stroke:#000000;stroke-width:1;" x1="1071.437" x2="1113.437" y1="941.9219" y2="941.9219"/><line style="stroke:#000000;stroke-width:1;" x1="1113.437" x2="1113.437" y1="941.9219" y2="954.9219"/><line style="stroke:#000000;stroke-width:1;" x1="1072.437" x2="1113.437" y1="954.9219" y2="954.9219"/><polygon fill="#000000" points="1082.437,950.9219,1072.437,954.9219,1082.437,958.9219,1078.437,954.9219" style="stroke:#000000;stroke-width:1;"/><text fill="#000000" font-family="Verdana" font-size="13" lengthAdjust="spacing" textLength="214.7095" x="1078.437" y="936.856">path_delay = ((t2-t1)+(t4-t3c))/2</text><polygon fill="#000000" points="1460.8975,980.0547,1470.8975,984.0547,1460.8975,988.0547,1464.8975,984.0547" style="stroke:#000000;stroke-width:1;"/><line style="stroke:#000000;stroke-width:1;stroke-dasharray:2.0,2.0;" x1="1071.437" x2="1466.8975" y1="984.0547" y2="984.0547"/><text fill="#000000" font-family="Verdana" font-size="13" lengthAdjust="spacing" textLength="135.8081" x="1078.437" y="978.9888">update PDelayResult</text><rect fill="#FFFFFF" height="3" style="stroke:#FFFFFF;stroke-width:1;" width="2343.7271" x="5" y="1012.6211"/><line style="stroke:#000000;stroke-width:0.5;" x1="5" x2="2348.7271" y1="1012.6211" y2="1012.6211"/><line style="stroke:#000000;stroke-width:0.5;" x1="5" x2="2348.7271" y1="1015.6211" y2="1015.6211"/><rect fill="#FFFFFF" height="23.1328" style="stroke:#000000;stroke-width:1;" width="137.8618" x="1107.9326" y="1002.0547"/><text fill="#000000" font-family="Verdana" font-size="13" font-weight="bold" lengthAdjust="spacing" textLength="119.3359" x="1113.9326" y="1018.1216">PHC Adjustment</text><polygon fill="#000000" points="1311.1465,1052.3203,1301.1465,1056.3203,1311.1465,1060.3203,1307.1465,1056.3203" style="stroke:#000000;stroke-width:1;"/><line style="stroke:#000000;stroke-width:1;" x1="1305.1465" x2="1471.8975" y1="1056.3203" y2="1056.3203"/><text fill="#000000" font-family="Verdana" font-size="13" lengthAdjust="spacing" textLength="148.751" x="1317.1465" y="1051.2544">AdjustOffset(offset_ns)</text><line style="stroke:#000000;stroke-width:1;" x1="1300.1465" x2="1342.1465" y1="1085.4531" y2="1085.4531"/><line style="stroke:#000000;stroke-width:1;" x1="1342.1465" x2="1342.1465" y1="1085.4531" y2="1098.4531"/><line style="stroke:#000000;stroke-width:1;" x1="1301.1465" x2="1342.1465" y1="1098.4531" y2="1098.4531"/><polygon fill="#000000" points="1311.1465,1094.4531,1301.1465,1098.4531,1311.1465,1102.4531,1307.1465,1098.4531" style="stroke:#000000;stroke-width:1;"/><text fill="#000000" font-family="Verdana" font-size="13" lengthAdjust="spacing" textLength="148.3193" x="1307.1465" y="1080.3872">step or frequency slew</text><rect fill="#FFFFFF" height="3" style="stroke:#FFFFFF;stroke-width:1;" width="2343.7271" x="5" y="1127.0195"/><line style="stroke:#000000;stroke-width:0.5;" x1="5" x2="2348.7271" y1="1127.0195" y2="1127.0195"/><line style="stroke:#000000;stroke-width:0.5;" x1="5" x2="2348.7271" y1="1130.0195" y2="1130.0195"/><rect fill="#FFFFFF" height="23.1328" style="stroke:#000000;stroke-width:1;" width="276.4185" x="1038.6543" y="1116.4531"/><text fill="#000000" font-family="Verdana" font-size="13" font-weight="bold" lengthAdjust="spacing" textLength="257.8926" x="1044.6543" y="1132.52">Periodic Publish to Shared Memory</text><polygon fill="#000000" points="1483.8975,1166.7188,1473.8975,1170.7188,1483.8975,1174.7188,1479.8975,1170.7188" style="stroke:#000000;stroke-width:1;"/><line style="stroke:#000000;stroke-width:1;" x1="1477.8975" x2="2277.4517" y1="1170.7188" y2="1170.7188"/><text fill="#000000" font-family="Verdana" font-size="13" lengthAdjust="spacing" textLength="120.2563" x="1489.8975" y="1165.6528">FinalizeSnapshot()</text><line style="stroke:#000000;stroke-width:1;" x1="1472.8975" x2="1514.8975" y1="1214.9844" y2="1214.9844"/><line style="stroke:#000000;stroke-width:1;" x1="1514.8975" x2="1514.8975" y1="1214.9844" y2="1227.9844"/><line style="stroke:#000000;stroke-width:1;" x1="1473.8975" x2="1514.8975" y1="1227.9844" y2="1227.9844"/><polygon fill="#000000" points="1483.8975,1223.9844,1473.8975,1227.9844,1483.8975,1231.9844,1479.8975,1227.9844" style="stroke:#000000;stroke-width:1;"/><text fill="#000000" font-family="Verdana" font-size="13" lengthAdjust="spacing" textLength="150.2554" x="1479.8975" y="1194.7856">check timeout, commit</text><text fill="#000000" font-family="Verdana" font-size="13" lengthAdjust="spacing" textLength="263.999" x="1479.8975" y="1209.9185">pending_snapshot_ &#8594; current_snapshot_</text><polygon fill="#000000" points="1483.8975,1253.1172,1473.8975,1257.1172,1483.8975,1261.1172,1479.8975,1257.1172" style="stroke:#000000;stroke-width:1;"/><line style="stroke:#000000;stroke-width:1;" x1="1477.8975" x2="2277.4517" y1="1257.1172" y2="1257.1172"/><text fill="#000000" font-family="Verdana" font-size="13" lengthAdjust="spacing" textLength="157.0664" x="1489.8975" y="1252.0513">ReadPTPSnapshot(data)</text><polygon fill="#000000" points="2266.4517,1282.25,2276.4517,1286.25,2266.4517,1290.25,2270.4517,1286.25" style="stroke:#000000;stroke-width:1;"/><line style="stroke:#000000;stroke-width:1;stroke-dasharray:2.0,2.0;" x1="1472.8975" x2="2272.4517" y1="1286.25" y2="1286.25"/><text fill="#000000" font-family="Verdana" font-size="13" lengthAdjust="spacing" textLength="81.9482" x="1479.8975" y="1281.1841">GptpIpcData</text><polygon fill="#000000" points="1761.8965,1311.3828,1751.8965,1315.3828,1761.8965,1319.3828,1757.8965,1315.3828" style="stroke:#000000;stroke-width:1;"/><line style="stroke:#000000;stroke-width:1;" x1="1755.8965" x2="2277.4517" y1="1315.3828" y2="1315.3828"/><text fill="#000000" font-family="Verdana" font-size="13" lengthAdjust="spacing" textLength="138.6582" x="1767.8965" y="1310.3169">Publish(GptpIpcData)</text><polygon fill="#000000" points="2120.9106,1355.6484,2130.9106,1359.6484,2120.9106,1363.6484,2124.9106,1359.6484" style="stroke:#000000;stroke-width:1;"/><line style="stroke:#000000;stroke-width:1;" x1="1750.8965" x2="2126.9106" y1="1359.6484" y2="1359.6484"/><text fill="#000000" font-family="Verdana" font-size="13" lengthAdjust="spacing" textLength="86.0806" x="1757.8965" y="1339.4497">seqlock write</text><text fill="#000000" font-family="Verdana" font-size="13" lengthAdjust="spacing" textLength="358.0142" x="1757.8965" y="1354.5825">(seq odd &#8594; fence &#8594; memcpy &#8594; seq_confirm, seq even)</text><!--SRC=[jLNRRjiu47tNLymsG26X2Rgz02qCU86D4zUBnerWkUXB08EXnXPhYMH9gevQ5EXJFw3OB-oNx92KdSH9theF1cJDcUivC_h3LTWWw9e9cIHEk1fXBXeiQlOPuOGv1kDQRP94C-C45vf91u_UeTieixwGwIgVvp1brg797W6pyEvq3WV7A5PussN6DeNYQtG1LPoFtiB1cLXLhbXtntMxXnuRrk18bSW3V3o2WmyLCdSRDKLhsGfpPYoQ09pczmABJlB2COTJnYiXCTPGJEy5vuZc16lMJP7PrlIHyvC7q1N_k_pO-W54t8HgFQFXoHBDRUWRxVIfN6tplpdTJe3LZP9tiVzedhUNjR3LDlRxuzub5tAzrsB539PJR9JfOdkJwOFW7SF4O4FCWwiCiZ8oE2zwlr77I1F38Sokvi4Elxx_2twMJyUg9bMyrv0RnOa58LSm72Q9P__ehqZl088uF1wMdazATafoC_DE8_nvzVhr-5MM12Yv4CK3C6m3b-roYGQUmEG3EAhJEjReXCm48de74698TA1PLojM9lJMvoGw1t0kVRwK4lVYe0nasDcjKmPZJTV1xojxrs4e_VUNkOt_SAbSDRfr26gvj1JcCKZQgkfIcHa9cNv2HJmva9G6eQaPshPsNvkma0jf3tjl_tWXVPsBZssZ5ykQhUotXFostgqkAIneqYsHkR2IQLifj_0AeIgkG1lba3iiiw29lFGhSaCNVcqWx0tqYzCWQSsh8gRn6qHLKe8PVcffO6cM-7VNWy-3ErdxeGTQxfhjRoSbbdOkVMmbBQQDNMKFf_-_jB5VnauZePn-LX6acQiMWG8OGfgwvqVkMVOaTI-Ft0kUPK-V9n6_H- -k1r99f97ELRnV-snDV3VHT1uqbEwaHBLCHjSWqfe6PMWQdbV9Ex0rRc9uD4ALWaD_oC0fY9SAugaA6UdYREiS2ybgyGMBNd-aaHiYvHNoTHYfQjsXtv16k0jvHxJmwyTFuAqnrDFrsvjvPYHRshnT6feEYwa8GRW1z1VOVm9xHtz-1zjEqXjscWUPl58cuSRWfve-TR0nmlcZH_z1bMKeQadpmV3KOCDr5nu9iE1ABeLf3lqVGFfyPCb_]--></g></svg>