<svg xmlns="http://www.w3.org/2000/svg" xmlns:xlink="http://www.w3.org/1999/xlink" contentStyleType="text/css" data-diagram-type="SEQUENCE" height="1023px" preserveAspectRatio="none" style="width:1434px;height:1023px;background:#FFFFFF;" version="1.1" viewBox="0 0 1434 1023" width="1434px" zoomAndPan="magnify"><title>ShmPTPEngine: Initialization Sequence</title><defs/><g><text fill="#000000" font-family="Verdana" font-size="22" font-weight="bold" lengthAdjust="spacing" textLength="486.9434" x="472.1145" y="35.4209">ShmPTPEngine: Initialization Sequence</text><g><title>TimeBaseHandler</title><rect fill="#FFFFFF" height="130.1875" style="stroke:#000000;stroke-width:1;" width="10" x="83.9541" y="273.6563"/></g><g><title>TimeBaseHandler</title><rect fill="#FFFFFF" height="211.0625" style="stroke:#000000;stroke-width:1;" width="10" x="83.9541" y="476.1094"/></g><g><title>TimeBaseHandler</title><rect fill="#FFFFFF" height="87.3984" style="stroke:#000000;stroke-width:1;" width="10" x="83.9541" y="759.4375"/></g><g><title>TimeBaseHandler</title><rect fill="#FFFFFF" height="79.3984" style="stroke:#000000;stroke-width:1;" width="10" x="83.9541" y="919.1016"/></g><g><title>GPTPShmMachine</title><rect fill="#FFFFFF" height="130.1875" style="stroke:#000000;stroke-width:1;" width="10" x="594.5137" y="273.6563"/></g><g><title>GPTPShmMachine</title><rect fill="#FFFFFF" height="211.0625" style="stroke:#000000;stroke-width:1;" width="10" x="594.5137" y="476.1094"/></g><g><title>GPTPShmMachine</title><rect fill="#FFFFFF" height="29.1328" style="stroke:#000000;stroke-width:1;" width="10" x="594.5137" y="788.5703"/></g><g><title>GPTPShmMachine</title><rect fill="#FFFFFF" height="79.3984" style="stroke:#000000;stroke-width:1;" width="10" x="594.5137" y="919.1016"/></g><g><title>ShmPTPEngine</title><rect fill="#FFFFFF" height="152.7969" style="stroke:#000000;stroke-width:1;" width="10" x="939.5415" y="505.2422"/></g><g><title>GptpIpcReceiver</title><rect fill="#FFFFFF" height="94.5313" style="stroke:#000000;stroke-width:1;" width="10" x="1190.4009" y="534.375"/></g><g><title>MessageBroker</title><rect fill="#FFFFFF" height="87.3984" style="stroke:#000000;stroke-width:1;" width="10" x="1346.2915" y="759.4375"/></g><g><title>TimeBaseHandler</title><rect fill="transparent" height="827.1094" width="8" x="84.9541" y="189.3906"/><line style="stroke:#000000;stroke-width:1;" x1="88" x2="88" y1="189.3906" y2="1016.5"/></g><g><title>GPTPShmMachine</title><rect fill="transparent" height="735.1797" width="8" x="595.5137" y="281.3203"/><line style="stroke:#000000;stroke-width:1;" x1="598.8931" x2="598.8931" y1="281.3203" y2="1016.5"/></g><g><title>ShmPTPEngine</title><rect fill="transparent" height="685.7344" width="8" x="940.5415" y="330.7656"/><line style="stroke:#000000;stroke-width:1;" x1="944.1338" x2="944.1338" y1="330.7656" y2="1016.5"/></g><g><title>GptpIpcReceiver</title><rect fill="transparent" height="644.4375" width="8" x="1191.4009" y="372.0625"/><line style="stroke:#000000;stroke-width:1;" x1="1195.3911" x2="1195.3911" y1="372.0625" y2="1016.5"/></g><g><title>MessageBroker</title><rect fill="transparent" height="827.1094" width="8" x="1347.2915" y="189.3906"/><line style="stroke:#000000;stroke-width:1;" x1="1350.4106" x2="1350.4106" y1="189.3906" y2="1016.5"/></g><rect fill="#E0FFFF" height="30.2969" rx="2.5" ry="2.5" style="stroke:#000000;stroke-width:1;" width="137.9082" x="20" y="158.0938"/><text fill="#000000" font-family="Verdana" font-size="14" lengthAdjust="spacing" textLength="123.9082" x="27" y="178.0889">TimeBaseHandler</text><rect fill="#E0FFFF" height="30.2969" rx="2.5" ry="2.5" style="stroke:#000000;stroke-width:1;" width="121.7617" x="1290.4106" y="158.0938"/><text fill="#000000" font-family="Verdana" font-size="14" lengthAdjust="spacing" textLength="107.7617" x="1297.4106" y="178.0889">MessageBroker</text><g><title>TimeBaseHandler</title><rect fill="#FFFFFF" height="130.1875" style="stroke:#000000;stroke-width:1;" width="10" x="83.9541" y="273.6563"/></g><g><title>TimeBaseHandler</title><rect fill="#FFFFFF" height="211.0625" style="stroke:#000000;stroke-width:1;" width="10" x="83.9541" y="476.1094"/></g><g><title>TimeBaseHandler</title><rect fill="#FFFFFF" height="87.3984" style="stroke:#000000;stroke-width:1;" width="10" x="83.9541" y="759.4375"/></g><g><title>TimeBaseHandler</title><rect fill="#FFFFFF" height="79.3984" style="stroke:#000000;stroke-width:1;" width="10" x="83.9541" y="919.1016"/></g><g><title>GPTPShmMachine</title><rect fill="#FFFFFF" height="130.1875" style="stroke:#000000;stroke-width:1;" width="10" x="594.5137" y="273.6563"/></g><g><title>GPTPShmMachine</title><rect fill="#FFFFFF" height="211.0625" style="stroke:#000000;stroke-width:1;" width="10" x="594.5137" y="476.1094"/></g><g><title>GPTPShmMachine</title><rect fill="#FFFFFF" height="29.1328" style="stroke:#000000;stroke-width:1;" width="10" x="594.5137" y="788.5703"/></g><g><title>GPTPShmMachine</title><rect fill="#FFFFFF" height="79.3984" style="stroke:#000000;stroke-width:1;" width="10" x="594.5137" y="919.1016"/></g><g><title>ShmPTPEngine</title><rect fill="#FFFFFF" height="152.7969" style="stroke:#000000;stroke-width:1;" width="10" x="939.5415" y="505.2422"/></g><g><title>GptpIpcReceiver</title><rect fill="#FFFFFF" height="94.5313" style="stroke:#000000;stroke-width:1;" width="10" x="1190.4009" y="534.375"/></g><g><title>MessageBroker</title><rect fill="#FFFFFF" height="87.3984" style="stroke:#000000;stroke-width:1;" width="10" x="1346.2915" y="759.4375"/></g><rect fill="#FFFFFF" height="3" style="stroke:#FFFFFF;stroke-width:1;" width="1422.1724" x="5" y="219.957"/><line style="stroke:#000000;stroke-width:0.5;" x1="5" x2="1427.1724" y1="219.957" y2="219.957"/><line style="stroke:#000000;stroke-width:0.5;" x1="5" x2="1427.1724" y1="222.957" y2="222.957"/><rect fill="#FFFFFF" height="23.1328" style="stroke:#000000;stroke-width:1;" width="112.4331" x="659.8696" y="209.3906"/><text fill="#000000" font-family="Verdana" font-size="13" font-weight="bold" lengthAdjust="spacing" textLength="93.9072" x="665.8696" y="225.4575">Construction</text><polygon fill="#000000" points="468.8931,259.6563,478.8931,263.6563,468.8931,267.6563,472.8931,263.6563" style="stroke:#000000;stroke-width:1;"/><line style="stroke:#000000;stroke-width:1;" x1="88.9541" x2="474.8931" y1="263.6563" y2="263.6563"/><text fill="#FF0000" font-family="Verdana" font-size="13" font-weight="bold" lengthAdjust="spacing" textLength="29.9736" x="95.9541" y="258.5903">[01]</text><text fill="#000000" font-family="Verdana" font-size="13" lengthAdjust="spacing" textLength="323.9653" x="129.9277" y="258.5903">CreateGPTPShmMachine("shm", "/gptp_ptp_info")</text><rect fill="#F5DEB3" height="46.5938" rx="2.5" ry="2.5" style="stroke:#000000;stroke-width:1;" width="237.2412" x="480.8931" y="242.5234"/><text fill="#000000" font-family="Verdana" font-size="14" lengthAdjust="spacing" textLength="126.2871" x="536.3701" y="262.5186">GPTPShmMachine</text><text fill="#000000" font-family="Verdana" font-size="14" lengthAdjust="spacing" textLength="223.2412" x="487.8931" y="278.8154">(PTPMachine&lt;ShmPTPEngine&gt;)</text><polygon fill="#000000" points="873.1338,317.25,883.1338,321.25,873.1338,325.25,877.1338,321.25" style="stroke:#000000;stroke-width:1;"/><line style="stroke:#000000;stroke-width:1;" x1="604.5137" x2="879.1338" y1="321.25" y2="321.25"/><text fill="#FF0000" font-family="Verdana" font-size="13" font-weight="bold" lengthAdjust="spacing" textLength="29.9736" x="611.5137" y="316.1841">[02]</text><text fill="#000000" font-family="Verdana" font-size="13" lengthAdjust="spacing" textLength="212.6465" x="645.4873" y="316.1841">ShmPTPEngine("/gptp_ptp_info")</text><rect fill="#F5DEB3" height="30.2969" rx="2.5" ry="2.5" style="stroke:#000000;stroke-width:1;" width="118.8154" x="885.1338" y="300.1172"/><text fill="#000000" font-family="Verdana" font-size="14" lengthAdjust="spacing" textLength="104.8154" x="892.1338" y="320.1123">ShmPTPEngine</text><polygon fill="#000000" points="1118.3911,358.5469,1128.3911,362.5469,1118.3911,366.5469,1122.3911,362.5469" style="stroke:#000000;stroke-width:1;"/><line style="stroke:#000000;stroke-width:1;" x1="944.5415" x2="1124.3911" y1="362.5469" y2="362.5469"/><text fill="#FF0000" font-family="Verdana" font-size="13" font-weight="bold" lengthAdjust="spacing" textLength="29.9736" x="951.5415" y="357.481">[03]</text><text fill="#000000" font-family="Verdana" font-size="13" lengthAdjust="spacing" textLength="117.876" x="985.5151" y="357.481">GptpIpcReceiver()</text><rect fill="#FFB6C1" height="30.2969" rx="2.5" ry="2.5" style="stroke:#000000;stroke-width:1;" width="130.0195" x="1130.3911" y="341.4141"/><text fill="#000000" font-family="Verdana" font-size="14" lengthAdjust="spacing" textLength="116.0195" x="1137.3911" y="361.4092">GptpIpcReceiver</text><polygon fill="#000000" points="99.9541,399.8438,89.9541,403.8438,99.9541,407.8438,95.9541,403.8438" style="stroke:#000000;stroke-width:1;"/><line style="stroke:#000000;stroke-width:1;stroke-dasharray:2.0,2.0;" x1="93.9541" x2="598.5137" y1="403.8438" y2="403.8438"/><text fill="#FF0000" font-family="Verdana" font-size="13" font-weight="bold" lengthAdjust="spacing" textLength="29.9736" x="105.9541" y="398.7778">[04]</text><text fill="#000000" font-family="Verdana" font-size="13" lengthAdjust="spacing" textLength="4.1323" x="139.9277" y="398.7778">&#160;</text><rect fill="#FFFFFF" height="3" style="stroke:#FFFFFF;stroke-width:1;" width="1422.1724" x="5" y="432.4102"/><line style="stroke:#000000;stroke-width:0.5;" x1="5" x2="1427.1724" y1="432.4102" y2="432.4102"/><line style="stroke:#000000;stroke-width:0.5;" x1="5" x2="1427.1724" y1="435.4102" y2="435.4102"/><rect fill="#FFFFFF" height="23.1328" style="stroke:#000000;stroke-width:1;" width="110.624" x="660.7742" y="421.8438"/><text fill="#000000" font-family="Verdana" font-size="13" font-weight="bold" lengthAdjust="spacing" textLength="92.0981" x="666.7742" y="437.9106">Initialization</text><polygon fill="#000000" points="582.5137,472.1094,592.5137,476.1094,582.5137,480.1094,586.5137,476.1094" style="stroke:#000000;stroke-width:1;"/><line style="stroke:#000000;stroke-width:1;" x1="93.9541" x2="588.5137" y1="476.1094" y2="476.1094"/><text fill="#FF0000" font-family="Verdana" font-size="13" font-weight="bold" lengthAdjust="spacing" textLength="29.9736" x="100.9541" y="471.0435">[05]</text><text fill="#000000" font-family="Verdana" font-size="13" lengthAdjust="spacing" textLength="30.9258" x="134.9277" y="471.0435">Init()</text><polygon fill="#000000" points="927.5415,501.2422,937.5415,505.2422,927.5415,509.2422,931.5415,505.2422" style="stroke:#000000;stroke-width:1;"/><line style="stroke:#000000;stroke-width:1;" x1="604.5137" x2="933.5415" y1="505.2422" y2="505.2422"/><text fill="#FF0000" font-family="Verdana" font-size="13" font-weight="bold" lengthAdjust="spacing" textLength="29.9736" x="611.5137" y="500.1763">[06]</text><text fill="#000000" font-family="Verdana" font-size="13" lengthAdjust="spacing" textLength="64.5493" x="645.4873" y="500.1763">Initialize()</text><polygon fill="#000000" points="1178.4009,530.375,1188.4009,534.375,1178.4009,538.375,1182.4009,534.375" style="stroke:#000000;stroke-width:1;"/><line style="stroke:#000000;stroke-width:1;" x1="949.5415" x2="1184.4009" y1="534.375" y2="534.375"/><text fill="#FF0000" font-family="Verdana" font-size="13" font-weight="bold" lengthAdjust="spacing" textLength="29.9736" x="956.5415" y="529.3091">[07]</text><text fill="#000000" font-family="Verdana" font-size="13" lengthAdjust="spacing" textLength="136.1001" x="990.5151" y="529.3091">Init("/gptp_ptp_info")</text><path d="M1205,547.375 L1205,602.375 L1418,602.375 L1418,557.375 L1408,547.375 L1205,547.375 " fill="#FFFFFF" style="stroke:#000000;stroke-width:1;"/><path d="M1408,547.375 L1408,557.375 L1418,557.375 L1408,547.375 " fill="#FFFFFF" style="stroke:#000000;stroke-width:1;"/><text fill="#000000" font-family="Verdana" font-size="13" lengthAdjust="spacing" textLength="147.6782" x="1211" y="564.4419">shm_open(O_RDONLY)</text><text fill="#000000" font-family="Verdana" font-size="13" lengthAdjust="spacing" textLength="129.3843" x="1211" y="579.5747">mmap(PROT_READ)</text><text fill="#000000" font-family="Verdana" font-size="13" lengthAdjust="spacing" textLength="192.8735" x="1211" y="594.7075">verify magic == 0x47505450</text><polygon fill="#000000" points="960.5415,624.9063,950.5415,628.9063,960.5415,632.9063,956.5415,628.9063" style="stroke:#000000;stroke-width:1;"/><line style="stroke:#000000;stroke-width:1;stroke-dasharray:2.0,2.0;" x1="954.5415" x2="1194.4009" y1="628.9063" y2="628.9063"/><text fill="#FF0000" font-family="Verdana" font-size="13" font-weight="bold" lengthAdjust="spacing" textLength="29.9736" x="966.5415" y="623.8403">[08]</text><text fill="#000000" font-family="Verdana" font-size="13" lengthAdjust="spacing" textLength="70.2495" x="1000.5151" y="623.8403">true / false</text><polygon fill="#000000" points="615.5137,654.0391,605.5137,658.0391,615.5137,662.0391,611.5137,658.0391" style="stroke:#000000;stroke-width:1;"/><line style="stroke:#000000;stroke-width:1;stroke-dasharray:2.0,2.0;" x1="609.5137" x2="943.5415" y1="658.0391" y2="658.0391"/><text fill="#FF0000" font-family="Verdana" font-size="13" font-weight="bold" lengthAdjust="spacing" textLength="29.9736" x="621.5137" y="652.9731">[09]</text><text fill="#000000" font-family="Verdana" font-size="13" lengthAdjust="spacing" textLength="4.1323" x="655.4873" y="652.9731">&#160;</text><polygon fill="#000000" points="99.9541,683.1719,89.9541,687.1719,99.9541,691.1719,95.9541,687.1719" style="stroke:#000000;stroke-width:1;"/><line style="stroke:#000000;stroke-width:1;stroke-dasharray:2.0,2.0;" x1="93.9541" x2="598.5137" y1="687.1719" y2="687.1719"/><text fill="#FF0000" font-family="Verdana" font-size="13" font-weight="bold" lengthAdjust="spacing" textLength="29.9736" x="105.9541" y="682.106">[10]</text><text fill="#000000" font-family="Verdana" font-size="13" lengthAdjust="spacing" textLength="4.1323" x="139.9277" y="682.106">&#160;</text><rect fill="#FFFFFF" height="3" style="stroke:#FFFFFF;stroke-width:1;" width="1422.1724" x="5" y="715.7383"/><line style="stroke:#000000;stroke-width:0.5;" x1="5" x2="1427.1724" y1="715.7383" y2="715.7383"/><line style="stroke:#000000;stroke-width:0.5;" x1="5" x2="1427.1724" y1="718.7383" y2="718.7383"/><rect fill="#FFFFFF" height="23.1328" style="stroke:#000000;stroke-width:1;" width="132.3711" x="649.9006" y="705.1719"/><text fill="#000000" font-family="Verdana" font-size="13" font-weight="bold" lengthAdjust="spacing" textLength="113.8452" x="655.9006" y="721.2388">Setup Producer</text><polygon fill="#000000" points="1334.2915,755.4375,1344.2915,759.4375,1334.2915,763.4375,1338.2915,759.4375" style="stroke:#000000;stroke-width:1;"/><line style="stroke:#000000;stroke-width:1;" x1="93.9541" x2="1340.2915" y1="759.4375" y2="759.4375"/><text fill="#FF0000" font-family="Verdana" font-size="13" font-weight="bold" lengthAdjust="spacing" textLength="29.9736" x="100.9541" y="754.3716">[11]</text><text fill="#000000" font-family="Verdana" font-size="13" lengthAdjust="spacing" textLength="279.6841" x="134.9277" y="754.3716">subscribe machine to "raw_ptp_data" topic</text><polygon fill="#000000" points="615.5137,784.5703,605.5137,788.5703,615.5137,792.5703,611.5137,788.5703" style="stroke:#000000;stroke-width:1;"/><line style="stroke:#000000;stroke-width:1;" x1="609.5137" x2="1345.2915" y1="788.5703" y2="788.5703"/><text fill="#FF0000" font-family="Verdana" font-size="13" font-weight="bold" lengthAdjust="spacing" textLength="29.9736" x="621.5137" y="783.5044">[12]</text><text fill="#000000" font-family="Verdana" font-size="13" lengthAdjust="spacing" textLength="262.2661" x="655.4873" y="783.5044">SetPublishCallback(broker::OnNewData)</text><polygon fill="#000000" points="1334.2915,813.7031,1344.2915,817.7031,1334.2915,821.7031,1338.2915,817.7031" style="stroke:#000000;stroke-width:1;"/><line style="stroke:#000000;stroke-width:1;stroke-dasharray:2.0,2.0;" x1="599.5137" x2="1340.2915" y1="817.7031" y2="817.7031"/><text fill="#FF0000" font-family="Verdana" font-size="13" font-weight="bold" lengthAdjust="spacing" textLength="29.9736" x="606.5137" y="812.6372">[13]</text><text fill="#000000" font-family="Verdana" font-size="13" lengthAdjust="spacing" textLength="4.1323" x="640.4873" y="812.6372">&#160;</text><polygon fill="#000000" points="99.9541,842.8359,89.9541,846.8359,99.9541,850.8359,95.9541,846.8359" style="stroke:#000000;stroke-width:1;"/><line style="stroke:#000000;stroke-width:1;stroke-dasharray:2.0,2.0;" x1="93.9541" x2="1350.2915" y1="846.8359" y2="846.8359"/><text fill="#FF0000" font-family="Verdana" font-size="13" font-weight="bold" lengthAdjust="spacing" textLength="29.9736" x="105.9541" y="841.77">[14]</text><text fill="#000000" font-family="Verdana" font-size="13" lengthAdjust="spacing" textLength="4.1323" x="139.9277" y="841.77">&#160;</text><rect fill="#FFFFFF" height="3" style="stroke:#FFFFFF;stroke-width:1;" width="1422.1724" x="5" y="875.4023"/><line style="stroke:#000000;stroke-width:0.5;" x1="5" x2="1427.1724" y1="875.4023" y2="875.4023"/><line style="stroke:#000000;stroke-width:0.5;" x1="5" x2="1427.1724" y1="878.4023" y2="878.4023"/><rect fill="#FFFFFF" height="23.1328" style="stroke:#000000;stroke-width:1;" width="197.3774" x="617.3975" y="864.8359"/><text fill="#000000" font-family="Verdana" font-size="13" font-weight="bold" lengthAdjust="spacing" textLength="178.8516" x="623.3975" y="880.9028">Start Periodic Operation</text><polygon fill="#000000" points="582.5137,915.1016,592.5137,919.1016,582.5137,923.1016,586.5137,919.1016" style="stroke:#000000;stroke-width:1;"/><line style="stroke:#000000;stroke-width:1;" x1="93.9541" x2="588.5137" y1="919.1016" y2="919.1016"/><text fill="#FF0000" font-family="Verdana" font-size="13" font-weight="bold" lengthAdjust="spacing" textLength="29.9736" x="100.9541" y="914.0356">[15]</text><text fill="#000000" font-family="Verdana" font-size="13" lengthAdjust="spacing" textLength="41.9009" x="134.9277" y="914.0356">Start()</text><line style="stroke:#000000;stroke-width:1;" x1="604.5137" x2="646.5137" y1="952.3008" y2="952.3008"/><line style="stroke:#000000;stroke-width:1;" x1="646.5137" x2="646.5137" y1="952.3008" y2="965.3008"/><line style="stroke:#000000;stroke-width:1;" x1="605.5137" x2="646.5137" y1="965.3008" y2="965.3008"/><polygon fill="#000000" points="615.5137,961.3008,605.5137,965.3008,615.5137,969.3008,611.5137,965.3008" style="stroke:#000000;stroke-width:1;"/><text fill="#FF0000" font-family="Verdana" font-size="13" font-weight="bold" lengthAdjust="spacing" textLength="29.9736" x="611.5137" y="947.2349">[16]</text><text fill="#000000" font-family="Verdana" font-size="13" lengthAdjust="spacing" textLength="133.6118" x="645.4873" y="947.2349">start periodic thread</text><path d="M800.5854,932.1016 L800.5854,972.1016 L979.5854,972.1016 L979.5854,942.1016 L969.5854,932.1016 L800.5854,932.1016 " fill="#FFFFFF" style="stroke:#000000;stroke-width:1;"/><path d="M969.5854,932.1016 L969.5854,942.1016 L979.5854,942.1016 L969.5854,932.1016 " fill="#FFFFFF" style="stroke:#000000;stroke-width:1;"/><text fill="#000000" font-family="Verdana" font-size="13" lengthAdjust="spacing" textLength="158.6724" x="806.5854" y="949.1685">Begin periodic IPC reads</text><text fill="#000000" font-family="Verdana" font-size="13" lengthAdjust="spacing" textLength="137.6934" x="806.5854" y="964.3013">from shared memory</text><polygon fill="#000000" points="99.9541,994.5,89.9541,998.5,99.9541,1002.5,95.9541,998.5" style="stroke:#000000;stroke-width:1;"/><line style="stroke:#000000;stroke-width:1;stroke-dasharray:2.0,2.0;" x1="93.9541" x2="598.5137" y1="998.5" y2="998.5"/><text fill="#FF0000" font-family="Verdana" font-size="13" font-weight="bold" lengthAdjust="spacing" textLength="29.9736" x="105.9541" y="993.4341">[17]</text><text fill="#000000" font-family="Verdana" font-size="13" lengthAdjust="spacing" textLength="4.1323" x="139.9277" y="993.4341">&#160;</text><rect fill="transparent" height="79.1875" id="_legend" rx="7.5" ry="7.5" style="stroke:#000000;stroke-width:1;" width="271.5908" x="10" y="56.6094"/><text fill="#000000" font-family="Verdana" font-size="14" font-weight="bold" lengthAdjust="spacing" textLength="41.2139" x="19.874" y="76.6045">Color</text><text fill="#000000" font-family="Verdana" font-size="14" font-weight="bold" lengthAdjust="spacing" textLength="90.5488" x="119.5762" y="76.6045">Description</text><rect fill="#E0FFFF" height="16.2969" style="stroke:transparent;stroke-width:1;" width="99.7021" x="15" y="79.9063"/><text fill="#000000" font-family="Verdana" font-size="14" lengthAdjust="spacing" textLength="22.251" x="15" y="92.9014">&#160;&#160;&#160;&#160;&#160;</text><text fill="#000000" font-family="Verdana" font-size="14" lengthAdjust="spacing" textLength="93.7412" x="119.1523" y="92.9014">TimeDaemon</text><rect fill="#F5DEB3" height="16.2969" style="stroke:transparent;stroke-width:1;" width="99.7021" x="15" y="96.2031"/><text fill="#000000" font-family="Verdana" font-size="14" lengthAdjust="spacing" textLength="40.0518" x="15" y="109.1982">&#160;&#160;&#160;&#160;&#160;&#160;&#160;&#160;&#160;</text><text fill="#000000" font-family="Verdana" font-size="14" lengthAdjust="spacing" textLength="126.2871" x="119.1523" y="109.1982">GPTPShmMachine</text><rect fill="#FFB6C1" height="16.2969" style="stroke:transparent;stroke-width:1;" width="99.7021" x="15" y="112.5"/><text fill="#000000" font-family="Verdana" font-size="14" lengthAdjust="spacing" textLength="22.251" x="15" y="125.4951">&#160;&#160;&#160;&#160;&#160;</text><text fill="#000000" font-family="Verdana" font-size="14" lengthAdjust="spacing" textLength="101.4316" x="119.1523" y="125.4951">libTSClient IPC</text><line style="stroke:#000000;stroke-width:1;" x1="15" x2="276.5908" y1="63.6094" y2="63.6094"/><line style="stroke:#000000;stroke-width:1;" x1="15" x2="276.5908" y1="79.9063" y2="79.9063"/><line style="stroke:#000000;stroke-width:1;" x1="15" x2="276.5908" y1="96.2031" y2="96.2031"/><line style="stroke:#000000;stroke-width:1;" x1="15" x2="276.5908" y1="112.5" y2="112.5"/><line style="stroke:#000000;stroke-width:1;" x1="15" x2="276.5908" y1="128.7969" y2="128.7969"/><line style="stroke:#000000;stroke-width:1;" x1="15" x2="15" y1="63.6094" y2="128.7969"/><line style="stroke:#000000;stroke-width:1;" x1="114.7021" x2="114.7021" y1="63.6094" y2="128.7969"/><line style="stroke:#000000;stroke-width:1;" x1="276.5908" x2="276.5908" y1="63.6094" y2="128.7969"/><!--SRC=[dLLjQzim4FwkNt7plZXbfVdGCWX9O4rALsWRamJ6s4QGxNCiQakUB7Vjs8_VoUzkia9dC5YdvrwUkqVoEnDZYf0bN4Z6Z309mYPElQrt9VT2uWHkf3229-8tDq99sE3F0cM0ZCKYH8YKChvwOhmmIXQfZngSQQIaWK0bIiyqXlEfF_ys7lzm64jmZp84ep98C38CwFapWuM5GlUGQObve4LMfcpD5Hwcxs_5FZQBPoxdrGPiHOfBZcaFtST_YP6RURS1rqIGQDxn82QIn-DxGZuqyHFXRpUBH20Hk_4MhGEngJWnbd5jH20oJX37rdF9S_pCBK0xm7CmFdI53-73ShvBbzRrOjgVndnKHahhiYjUmr1zU0d6ylCezZepsKqMh350yLXNgUi5T4qOEjrXdlCzNchrKBluvMUV79lPeShSw28eHpYRaRXyE9stjP-Sm0GMcch28NlNoUFK-G3EsPxAszbNo4Wv8yOfrYFXgPFTTnsFDN4fHSsupD1lXtiOieQIKykxT7lH6NVKnISivG_ne8AUYG2s1I-Epc4JgjFblfbQxrHYtxlQFiQgplHAKnieaygkx2n1HPtP2fucirCPIdUrMozNzxTVHwKvJNdcUklLThU- -hIiREGYecVYi1S1COVnq_d7Y_75-SNO7XgmILXRtMcV6ea6uGmYdkI3fhQLDFIwHlPXTG_-PruRD4K6dbPX4L1LtRngXKyWBtnxB_bj5BhBmD7yLzdIa1lksDjD1CSdMiLXTRY142YtL_Y9oEC5JnAV1mzk1PjCLl8UVoqfzkWLRRHL7gFQ93penQ5Bqmf3Pnuy6g8AQO2h3FM_HLo2tw3YpZClqsHD6XFJXH3s55XAwH9feXt8thyMbfURaLOfwPBJZmPI-W7evqvVRzN0Nm00]--></g></svg>