<svg xmlns="http://www.w3.org/2000/svg" xmlns:xlink="http://www.w3.org/1999/xlink" contentStyleType="text/css" data-diagram-type="ACTIVITY" height="1042px" preserveAspectRatio="none" style="width:819px;height:1042px;background:#FFFFFF;" version="1.1" viewBox="0 0 819 1042" width="819px" zoomAndPan="magnify"><title>gPTP Engine Threading Model</title><defs/><g><text fill="#000000" font-family="sans-serif" font-size="14" font-weight="bold" lengthAdjust="spacing" textLength="236.5645" x="290.1316" y="32.9951">gPTP Engine Threading Model</text><rect fill="#DDDDDD" height="79.1875" id="_legend" rx="7.5" ry="7.5" style="stroke:#000000;stroke-width:1;" width="302.5303" x="22" y="59.2969"/><text fill="#000000" font-family="sans-serif" font-size="14" font-weight="bold" lengthAdjust="spacing" textLength="41.2139" x="31.874" y="79.292">Color</text><text fill="#000000" font-family="sans-serif" font-size="14" font-weight="bold" lengthAdjust="spacing" textLength="90.5488" x="126.7021" y="79.292">Description</text><rect fill="#FFA07A" height="16.2969" style="stroke:transparent;stroke-width:1;" width="94.8281" x="27" y="82.5938"/><text fill="#000000" font-family="sans-serif" font-size="14" lengthAdjust="spacing" textLength="8.9004" x="27" y="95.5889">&#160;&#160;</text><text fill="#000000" font-family="sans-serif" font-size="14" lengthAdjust="spacing" textLength="67.2725" x="126.2783" y="95.5889">RxThread</text><rect fill="#87CEFA" height="16.2969" style="stroke:transparent;stroke-width:1;" width="94.8281" x="27" y="98.8906"/><text fill="#000000" font-family="sans-serif" font-size="14" lengthAdjust="spacing" textLength="4.4502" x="27" y="111.8857">&#160;</text><text fill="#000000" font-family="sans-serif" font-size="14" lengthAdjust="spacing" textLength="95.9561" x="126.2783" y="111.8857">PdelayThread</text><rect fill="#E0FFFF" height="16.2969" style="stroke:transparent;stroke-width:1;" width="94.8281" x="27" y="115.1875"/><text fill="#000000" font-family="sans-serif" font-size="14" lengthAdjust="spacing" textLength="17.8008" x="27" y="128.1826">&#160;&#160;&#160;&#160;</text><text fill="#000000" font-family="sans-serif" font-size="14" lengthAdjust="spacing" textLength="175.4512" x="126.2783" y="128.1826">Main Thread (TimeSlave)</text><line style="stroke:#000000;stroke-width:1;" x1="27" x2="319.5303" y1="66.2969" y2="66.2969"/><line style="stroke:#000000;stroke-width:1;" x1="27" x2="319.5303" y1="82.5938" y2="82.5938"/><line style="stroke:#000000;stroke-width:1;" x1="27" x2="319.5303" y1="98.8906" y2="98.8906"/><line style="stroke:#000000;stroke-width:1;" x1="27" x2="319.5303" y1="115.1875" y2="115.1875"/><line style="stroke:#000000;stroke-width:1;" x1="27" x2="319.5303" y1="131.4844" y2="131.4844"/><line style="stroke:#000000;stroke-width:1;" x1="27" x2="27" y1="66.2969" y2="131.4844"/><line style="stroke:#000000;stroke-width:1;" x1="121.8281" x2="121.8281" y1="66.2969" y2="131.4844"/><line style="stroke:#000000;stroke-width:1;" x1="319.5303" x2="319.5303" y1="66.2969" y2="131.4844"/><rect fill="transparent" height="20.9531" style="stroke:transparent;stroke-width:1;" width="786.8276" x="15" y="154.2295"/><ellipse cx="105.2002" cy="190.1826" fill="#222222" rx="10" ry="10" style="stroke:#222222;stroke-width:1;"/><rect fill="#F1F1F1" height="33.9688" rx="12.5" ry="12.5" style="stroke:#181818;stroke-width:0.5;" width="144.4004" x="33" y="220.1826"/><text fill="#000000" font-family="sans-serif" font-size="12" lengthAdjust="spacing" textLength="124.4004" x="43" y="241.3213">Initialize GptpEngine</text><rect fill="#F1F1F1" height="33.9688" rx="12.5" ry="12.5" style="stroke:#181818;stroke-width:0.5;" width="110.791" x="49.8047" y="274.1514"/><text fill="#000000" font-family="sans-serif" font-size="12" lengthAdjust="spacing" textLength="90.791" x="59.8047" y="295.29">Start RxThread</text><rect fill="#F1F1F1" height="33.9688" rx="12.5" ry="12.5" style="stroke:#181818;stroke-width:0.5;" width="135.377" x="37.5117" y="328.1201"/><text fill="#000000" font-family="sans-serif" font-size="12" lengthAdjust="spacing" textLength="115.377" x="47.5117" y="349.2588">Start PdelayThread</text><rect fill="#555555" height="6" rx="2.5" ry="2.5" style="stroke:#555555;stroke-width:1;" width="338.2969" x="21" y="382.0889"/><rect fill="#F1F1F1" height="33.9688" rx="12.5" ry="12.5" style="stroke:#181818;stroke-width:0.5;" width="137.9551" x="190.3711" y="627.542"/><text fill="#000000" font-family="sans-serif" font-size="12" lengthAdjust="spacing" textLength="117.9551" x="200.3711" y="648.6807">ReadPTPSnapshot()</text><rect fill="#F1F1F1" height="47.9375" rx="12.5" ry="12.5" style="stroke:#181818;stroke-width:0.5;" width="143.8965" x="187.4004" y="696.5107"/><text fill="#000000" font-family="sans-serif" font-size="12" lengthAdjust="spacing" textLength="118.8047" x="197.4004" y="717.6494">Publish PtpTimeInfo</text><text fill="#000000" font-family="sans-serif" font-size="12" lengthAdjust="spacing" textLength="123.8965" x="197.4004" y="731.6182">via GptpIpcPublisher</text><polygon fill="#F1F1F1" points="259.3486,555.542,271.3486,567.542,259.3486,579.542,247.3486,567.542,259.3486,555.542" style="stroke:#181818;stroke-width:0.5;"/><polygon fill="#F1F1F1" points="226.2251,792.4482,292.4722,792.4482,304.4722,804.4482,292.4722,816.4482,226.2251,816.4482,214.2251,804.4482,226.2251,792.4482" style="stroke:#181818;stroke-width:0.5;"/><text fill="#000000" font-family="sans-serif" font-size="11" lengthAdjust="spacing" textLength="66.2471" x="226.2251" y="808.2563">stop_token?</text><ellipse cx="259.3486" cy="862.4482" fill="transparent" rx="11" ry="11" style="stroke:#222222;stroke-width:1;"/><ellipse cx="259.3486" cy="862.4482" fill="#222222" rx="6" ry="6" style="stroke:#222222;stroke-width:1;"/><rect fill="#555555" height="6" rx="2.5" ry="2.5" style="stroke:#555555;stroke-width:1;" width="338.2969" x="21" y="1024.4482"/><line style="stroke:#000000;stroke-width:1.5;" x1="15" x2="15" y1="154.2295" y2="1030.4482"/><rect fill="#F1F1F1" height="33.9688" rx="12.5" ry="12.5" style="stroke:#181818;stroke-width:0.5;" width="140.2051" x="391.0586" y="475.6357"/><text fill="#000000" font-family="sans-serif" font-size="12" lengthAdjust="spacing" textLength="120.2051" x="401.0586" y="496.7744">Wait for gPTP frame</text><rect fill="#F1F1F1" height="33.9688" rx="12.5" ry="12.5" style="stroke:#181818;stroke-width:0.5;" width="121.5547" x="400.3838" y="544.6045"/><text fill="#000000" font-family="sans-serif" font-size="12" lengthAdjust="spacing" textLength="101.5547" x="410.3838" y="565.7432">Recv Sync frame</text><rect fill="#F1F1F1" height="47.9375" rx="12.5" ry="12.5" style="stroke:#181818;stroke-width:0.5;" width="181.7598" x="370.2813" y="613.5732"/><text fill="#000000" font-family="sans-serif" font-size="12" lengthAdjust="spacing" textLength="161.7598" x="380.2813" y="634.7119">Parse + SyncStateMachine</text><text fill="#000000" font-family="sans-serif" font-size="12" lengthAdjust="spacing" textLength="131.8945" x="380.2813" y="648.6807">store Sync timestamp</text><rect fill="#F1F1F1" height="33.9688" rx="12.5" ry="12.5" style="stroke:#181818;stroke-width:0.5;" width="147.1016" x="387.6104" y="696.5107"/><text fill="#000000" font-family="sans-serif" font-size="12" lengthAdjust="spacing" textLength="127.1016" x="397.6104" y="717.6494">Recv FollowUp frame</text><rect fill="#F1F1F1" height="47.9375" rx="12.5" ry="12.5" style="stroke:#181818;stroke-width:0.5;" width="183.7285" x="369.2969" y="765.4795"/><text fill="#000000" font-family="sans-serif" font-size="12" lengthAdjust="spacing" textLength="161.7598" x="379.2969" y="786.6182">Parse + SyncStateMachine</text><text fill="#000000" font-family="sans-serif" font-size="12" lengthAdjust="spacing" textLength="163.7285" x="379.2969" y="800.5869">compute offset &amp; rate ratio</text><rect fill="#F1F1F1" height="47.9375" rx="12.5" ry="12.5" style="stroke:#181818;stroke-width:0.5;" width="167.7383" x="377.292" y="848.417"/><text fill="#000000" font-family="sans-serif" font-size="12" lengthAdjust="spacing" textLength="147.7383" x="387.292" y="869.5557">Update latest_snapshot_</text><text fill="#000000" font-family="sans-serif" font-size="12" lengthAdjust="spacing" textLength="109.9453" x="387.292" y="883.5244">(mutex protected)</text><polygon fill="#F1F1F1" points="461.1611,408.0889,473.1611,420.0889,461.1611,432.0889,449.1611,420.0889,461.1611,408.0889" style="stroke:#181818;stroke-width:0.5;"/><polygon fill="#F1F1F1" points="428.0376,939.9014,494.2847,939.9014,506.2847,951.9014,494.2847,963.9014,428.0376,963.9014,416.0376,951.9014,428.0376,939.9014" style="stroke:#181818;stroke-width:0.5;"/><text fill="#000000" font-family="sans-serif" font-size="11" lengthAdjust="spacing" textLength="66.2471" x="428.0376" y="955.7095">stop_token?</text><ellipse cx="461.1611" cy="1003.4482" fill="transparent" rx="11" ry="11" style="stroke:#222222;stroke-width:1;"/><ellipse cx="461.1611" cy="1003.4482" fill="#222222" rx="6" ry="6" style="stroke:#222222;stroke-width:1;"/><line style="stroke:#000000;stroke-width:1.5;" x1="363.2969" x2="363.2969" y1="154.2295" y2="1030.4482"/><rect fill="#F1F1F1" height="33.9688" rx="12.5" ry="12.5" style="stroke:#181818;stroke-width:0.5;" width="178.7949" x="590.0986" y="524.0889"/><text fill="#000000" font-family="sans-serif" font-size="12" lengthAdjust="spacing" textLength="158.7949" x="600.0986" y="545.2275">Sleep(pdelay_interval_ms)</text><rect fill="#F1F1F1" height="33.9688" rx="12.5" ry="12.5" style="stroke:#181818;stroke-width:0.5;" width="119.0234" x="619.9844" y="593.0576"/><text fill="#000000" font-family="sans-serif" font-size="12" lengthAdjust="spacing" textLength="99.0234" x="629.9844" y="614.1963">Send PDelayReq</text><rect fill="#F1F1F1" height="33.9688" rx="12.5" ry="12.5" style="stroke:#181818;stroke-width:0.5;" width="124.4727" x="617.2598" y="662.0264"/><text fill="#000000" font-family="sans-serif" font-size="12" lengthAdjust="spacing" textLength="104.4727" x="627.2598" y="683.165">Recv PDelayResp</text><rect fill="#F1F1F1" height="47.9375" rx="12.5" ry="12.5" style="stroke:#181818;stroke-width:0.5;" width="178.9414" x="590.0254" y="730.9951"/><text fill="#000000" font-family="sans-serif" font-size="12" lengthAdjust="spacing" textLength="158.9414" x="600.0254" y="752.1338">Recv PDelayRespFollowUp</text><text fill="#000000" font-family="sans-serif" font-size="12" lengthAdjust="spacing" textLength="120.6387" x="600.0254" y="766.1025">compute path delay</text><rect fill="#F1F1F1" height="33.9688" rx="12.5" ry="12.5" style="stroke:#181818;stroke-width:0.5;" width="146.5391" x="606.2266" y="813.9326"/><text fill="#000000" font-family="sans-serif" font-size="12" lengthAdjust="spacing" textLength="126.5391" x="616.2266" y="835.0713">Update PDelayResult</text><polygon fill="#F1F1F1" points="679.4961,452.0889,691.4961,464.0889,679.4961,476.0889,667.4961,464.0889,679.4961,452.0889" style="stroke:#181818;stroke-width:0.5;"/><polygon fill="#F1F1F1" points="646.3726,895.9014,712.6196,895.9014,724.6196,907.9014,712.6196,919.9014,646.3726,919.9014,634.3726,907.9014,646.3726,895.9014" style="stroke:#181818;stroke-width:0.5;"/><text fill="#000000" font-family="sans-serif" font-size="11" lengthAdjust="spacing" textLength="66.2471" x="646.3726" y="911.7095">stop_token?</text><ellipse cx="679.4961" cy="961.4482" fill="transparent" rx="11" ry="11" style="stroke:#222222;stroke-width:1;"/><ellipse cx="679.4961" cy="961.4482" fill="#222222" rx="6" ry="6" style="stroke:#222222;stroke-width:1;"/><line style="stroke:#000000;stroke-width:1.5;" x1="584.0254" x2="584.0254" y1="154.2295" y2="1030.4482"/><line style="stroke:#000000;stroke-width:1.5;" x1="799.9668" x2="799.9668" y1="154.2295" y2="1030.4482"/><line style="stroke:#181818;stroke-width:1;" x1="105.2002" x2="105.2002" y1="200.1826" y2="220.1826"/><polygon fill="#181818" points="101.2002,210.1826,105.2002,220.1826,109.2002,210.1826,105.2002,214.1826" style="stroke:#181818;stroke-width:1;"/><line style="stroke:#181818;stroke-width:1;" x1="105.2002" x2="105.2002" y1="254.1514" y2="274.1514"/><polygon fill="#181818" points="101.2002,264.1514,105.2002,274.1514,109.2002,264.1514,105.2002,268.1514" style="stroke:#181818;stroke-width:1;"/><line style="stroke:#181818;stroke-width:1;" x1="105.2002" x2="105.2002" y1="308.1201" y2="328.1201"/><polygon fill="#181818" points="101.2002,318.1201,105.2002,328.1201,109.2002,318.1201,105.2002,322.1201" style="stroke:#181818;stroke-width:1;"/><line style="stroke:#181818;stroke-width:1;" x1="259.3486" x2="259.3486" y1="661.5107" y2="696.5107"/><polygon fill="#181818" points="255.3486,686.5107,259.3486,696.5107,263.3486,686.5107,259.3486,690.5107" style="stroke:#181818;stroke-width:1;"/><line style="stroke:#181818;stroke-width:1;" x1="259.3486" x2="259.3486" y1="579.542" y2="627.542"/><polygon fill="#181818" points="255.3486,617.542,259.3486,627.542,263.3486,617.542,259.3486,621.542" style="stroke:#181818;stroke-width:1;"/><line style="stroke:#181818;stroke-width:1;" x1="304.4722" x2="343.2969" y1="804.4482" y2="804.4482"/><polygon fill="#181818" points="339.2969,695.9951,343.2969,685.9951,347.2969,695.9951,343.2969,691.9951" style="stroke:#181818;stroke-width:1;"/><line style="stroke:#181818;stroke-width:1;" x1="343.2969" x2="343.2969" y1="567.542" y2="804.4482"/><line style="stroke:#181818;stroke-width:1;" x1="343.2969" x2="271.3486" y1="567.542" y2="567.542"/><polygon fill="#181818" points="281.3486,563.542,271.3486,567.542,281.3486,571.542,277.3486,567.542" style="stroke:#181818;stroke-width:1;"/><line style="stroke:#181818;stroke-width:1;" x1="259.3486" x2="259.3486" y1="744.4482" y2="792.4482"/><polygon fill="#181818" points="255.3486,782.4482,259.3486,792.4482,263.3486,782.4482,259.3486,786.4482" style="stroke:#181818;stroke-width:1;"/><line style="stroke:#181818;stroke-width:1;" x1="259.3486" x2="259.3486" y1="816.4482" y2="851.4482"/><polygon fill="#181818" points="255.3486,841.4482,259.3486,851.4482,263.3486,841.4482,259.3486,845.4482" style="stroke:#181818;stroke-width:1;"/><line style="stroke:#181818;stroke-width:1;" x1="259.3486" x2="259.3486" y1="388.0889" y2="555.542"/><polygon fill="#181818" points="255.3486,545.542,259.3486,555.542,263.3486,545.542,259.3486,549.542" style="stroke:#181818;stroke-width:1;"/><line style="stroke:#181818;stroke-width:1;" x1="105.2002" x2="105.2002" y1="362.0889" y2="382.0889"/><polygon fill="#181818" points="101.2002,372.0889,105.2002,382.0889,109.2002,372.0889,105.2002,376.0889" style="stroke:#181818;stroke-width:1;"/><line style="stroke:#181818;stroke-width:1;" x1="461.1611" x2="461.1611" y1="509.6045" y2="544.6045"/><polygon fill="#181818" points="457.1611,534.6045,461.1611,544.6045,465.1611,534.6045,461.1611,538.6045" style="stroke:#181818;stroke-width:1;"/><line style="stroke:#181818;stroke-width:1;" x1="461.1611" x2="461.1611" y1="578.5732" y2="613.5732"/><polygon fill="#181818" points="457.1611,603.5732,461.1611,613.5732,465.1611,603.5732,461.1611,607.5732" style="stroke:#181818;stroke-width:1;"/><line style="stroke:#181818;stroke-width:1;" x1="461.1611" x2="461.1611" y1="661.5107" y2="696.5107"/><polygon fill="#181818" points="457.1611,686.5107,461.1611,696.5107,465.1611,686.5107,461.1611,690.5107" style="stroke:#181818;stroke-width:1;"/><line style="stroke:#181818;stroke-width:1;" x1="461.1611" x2="461.1611" y1="730.4795" y2="765.4795"/><polygon fill="#181818" points="457.1611,755.4795,461.1611,765.4795,465.1611,755.4795,461.1611,759.4795" style="stroke:#181818;stroke-width:1;"/><line style="stroke:#181818;stroke-width:1;" x1="461.1611" x2="461.1611" y1="813.417" y2="848.417"/><polygon fill="#181818" points="457.1611,838.417,461.1611,848.417,465.1611,838.417,461.1611,842.417" style="stroke:#181818;stroke-width:1;"/><line style="stroke:#181818;stroke-width:1;" x1="461.1611" x2="461.1611" y1="432.0889" y2="475.6357"/><polygon fill="#181818" points="457.1611,465.6357,461.1611,475.6357,465.1611,465.6357,461.1611,469.6357" style="stroke:#181818;stroke-width:1;"/><line style="stroke:#181818;stroke-width:1;" x1="506.2847" x2="565.0254" y1="951.9014" y2="951.9014"/><polygon fill="#181818" points="561.0254,695.9951,565.0254,685.9951,569.0254,695.9951,565.0254,691.9951" style="stroke:#181818;stroke-width:1;"/><line style="stroke:#181818;stroke-width:1;" x1="565.0254" x2="565.0254" y1="420.0889" y2="951.9014"/><line style="stroke:#181818;stroke-width:1;" x1="565.0254" x2="473.1611" y1="420.0889" y2="420.0889"/><polygon fill="#181818" points="483.1611,416.0889,473.1611,420.0889,483.1611,424.0889,479.1611,420.0889" style="stroke:#181818;stroke-width:1;"/><line style="stroke:#181818;stroke-width:1;" x1="461.1611" x2="461.1611" y1="896.3545" y2="939.9014"/><polygon fill="#181818" points="457.1611,929.9014,461.1611,939.9014,465.1611,929.9014,461.1611,933.9014" style="stroke:#181818;stroke-width:1;"/><line style="stroke:#181818;stroke-width:1;" x1="461.1611" x2="461.1611" y1="963.9014" y2="992.4482"/><polygon fill="#181818" points="457.1611,982.4482,461.1611,992.4482,465.1611,982.4482,461.1611,986.4482" style="stroke:#181818;stroke-width:1;"/><line style="stroke:#181818;stroke-width:1;" x1="679.4961" x2="679.4961" y1="558.0576" y2="593.0576"/><polygon fill="#181818" points="675.4961,583.0576,679.4961,593.0576,683.4961,583.0576,679.4961,587.0576" style="stroke:#181818;stroke-width:1;"/><line style="stroke:#181818;stroke-width:1;" x1="679.4961" x2="679.4961" y1="627.0264" y2="662.0264"/><polygon fill="#181818" points="675.4961,652.0264,679.4961,662.0264,683.4961,652.0264,679.4961,656.0264" style="stroke:#181818;stroke-width:1;"/><line style="stroke:#181818;stroke-width:1;" x1="679.4961" x2="679.4961" y1="695.9951" y2="730.9951"/><polygon fill="#181818" points="675.4961,720.9951,679.4961,730.9951,683.4961,720.9951,679.4961,724.9951" style="stroke:#181818;stroke-width:1;"/><line style="stroke:#181818;stroke-width:1;" x1="679.4961" x2="679.4961" y1="778.9326" y2="813.9326"/><polygon fill="#181818" points="675.4961,803.9326,679.4961,813.9326,683.4961,803.9326,679.4961,807.9326" style="stroke:#181818;stroke-width:1;"/><line style="stroke:#181818;stroke-width:1;" x1="679.4961" x2="679.4961" y1="476.0889" y2="524.0889"/><polygon fill="#181818" points="675.4961,514.0889,679.4961,524.0889,683.4961,514.0889,679.4961,518.0889" style="stroke:#181818;stroke-width:1;"/><line style="stroke:#181818;stroke-width:1;" x1="724.6196" x2="780.9668" y1="907.9014" y2="907.9014"/><polygon fill="#181818" points="776.9668,695.9951,780.9668,685.9951,784.9668,695.9951,780.9668,691.9951" style="stroke:#181818;stroke-width:1;"/><line style="stroke:#181818;stroke-width:1;" x1="780.9668" x2="780.9668" y1="464.0889" y2="907.9014"/><line style="stroke:#181818;stroke-width:1;" x1="780.9668" x2="691.4961" y1="464.0889" y2="464.0889"/><polygon fill="#181818" points="701.4961,460.0889,691.4961,464.0889,701.4961,468.0889,697.4961,464.0889" style="stroke:#181818;stroke-width:1;"/><line style="stroke:#181818;stroke-width:1;" x1="679.4961" x2="679.4961" y1="847.9014" y2="895.9014"/><polygon fill="#181818" points="675.4961,885.9014,679.4961,895.9014,683.4961,885.9014,679.4961,889.9014" style="stroke:#181818;stroke-width:1;"/><line style="stroke:#181818;stroke-width:1;" x1="679.4961" x2="679.4961" y1="919.9014" y2="950.4482"/><polygon fill="#181818" points="675.4961,940.4482,679.4961,950.4482,683.4961,940.4482,679.4961,944.4482" style="stroke:#181818;stroke-width:1;"/><line style="stroke:#181818;stroke-width:1;" x1="28" x2="28" y1="388.0889" y2="392.0889"/><line style="stroke:#181818;stroke-width:1;" x1="28" x2="461.1611" y1="392.0889" y2="392.0889"/><line style="stroke:#181818;stroke-width:1;" x1="461.1611" x2="461.1611" y1="392.0889" y2="408.0889"/><polygon fill="#181818" points="457.1611,398.0889,461.1611,408.0889,465.1611,398.0889,461.1611,402.0889" style="stroke:#181818;stroke-width:1;"/><line style="stroke:#181818;stroke-width:1;" x1="113.1162" x2="113.1162" y1="388.0889" y2="392.0889"/><line style="stroke:#181818;stroke-width:1;" x1="113.1162" x2="679.4961" y1="392.0889" y2="392.0889"/><line style="stroke:#181818;stroke-width:1;" x1="679.4961" x2="679.4961" y1="392.0889" y2="452.0889"/><polygon fill="#181818" points="675.4961,442.0889,679.4961,452.0889,683.4961,442.0889,679.4961,446.0889" style="stroke:#181818;stroke-width:1;"/><text fill="#000000" font-family="sans-serif" font-size="18" lengthAdjust="spacing" textLength="112.0254" x="135.9966" y="170.9375">Main Thread</text><text fill="#000000" font-family="sans-serif" font-size="18" lengthAdjust="spacing" textLength="86.4932" x="433.2754" y="170.9375">RxThread</text><text fill="#000000" font-family="sans-serif" font-size="18" lengthAdjust="spacing" textLength="123.3721" x="633.1709" y="170.9375">PdelayThread</text><!--SRC=[fLDDYzim4BtxLmmKYaF_GT9keRlT9T20YRFq4Z2gFRP5P4cL9jbDoO_loCewpaSFI-UWmpmzpPkd6PAa49fibS5ttKYDi6eTYahg1XQcGfKa2XlK5P2neB2c13WEN-3UAEDW2Cuye2-Tj2IDXhCuH0vy_l13DYtbGdL6tuNCyZMMW-ku96tstzGMxpYJiIonlqcy8DtlHQWJCWiXzR4tI5Uomro97KuYYVkBNIR9uSGy8oMUXADaEjUIf53o3yAJ9HjDcoNJFC13FqDYh7MM9BLncoXnRCN9XnvpQ554dqDCVmf9mCpuJRKJ7HSSq2MMEyZtkhn2Ck4ymgSUP3M42r6sh7QjFHc7aKHi1RVMsSid7urIvkNPlkFPqdHsImYchZqIV0J7Q3Ya6V6VRHNIYWzFXTV2-jPGiTPfn-HNiCuGbeJLP3Qo0rvQoPEQidHRaDcW_ZhfuP28ne9e-B_Ex8r3SpuoDptE5Q9DRN-ja9hGxOGgEZyP2S_36cGFuSeIVr_wzGPu-s_apTEJLLPG2ttLQuS6tbRHVrjnFT2tR5Wom4EM7pyb7RUVRNyfwLl8o8RzcUlQhFLEYduFvhOyukZUeJKusk_4Nm00]--></g></svg>