<svg xmlns="http://www.w3.org/2000/svg" xmlns:xlink="http://www.w3.org/1999/xlink" contentStyleType="text/css" data-diagram-type="SEQUENCE" height="1114px" preserveAspectRatio="none" style="width:1131px;height:1114px;background:#FFFFFF;" version="1.1" viewBox="0 0 1131 1114" width="1131px" zoomAndPan="magnify"><title>libTSClient Seqlock IPC Protocol</title><defs/><g><text fill="#000000" font-family="Verdana" font-size="22" font-weight="bold" lengthAdjust="spacing" textLength="397.6973" x="365.3152" y="35.4209">libTSClient Seqlock IPC Protocol</text><rect fill="#FFFFFF" height="381.0703" style="stroke:#000000;stroke-width:1;" width="657.4678" x="452.2949" y="623.1953"/><rect fill="#FFFFFF" height="320.8047" style="stroke:#000000;stroke-width:1;" width="637.4678" x="462.2949" y="676.4609"/><rect fill="#FFFFFF" height="261.5391" style="stroke:transparent;stroke-width:1;" width="637.4678" x="462.2949" y="735.7266"/><rect fill="#FFFFFF" height="116.2031" style="stroke:#000000;stroke-width:1;" width="317.021" x="772.7417" y="874.0625"/><rect fill="#FFFFFF" height="56.9375" style="stroke:transparent;stroke-width:1;" width="317.021" x="772.7417" y="933.3281"/><g><title>TimeSlave</title><rect fill="transparent" height="169.6641" width="8" x="88.1328" y="99.2031"/><line style="stroke:#000000;stroke-width:1;" x1="92" x2="92" y1="99.2031" y2="268.8672"/></g><line style="stroke:#000000;stroke-width:1;stroke-dasharray:1.0,4.0;" x1="92" x2="92" y1="268.8672" y2="296.8672"/><g><title>TimeSlave</title><rect fill="transparent" height="766.5313" width="8" x="88.1328" y="296.8672"/><line style="stroke:#000000;stroke-width:1;" x1="92" x2="92" y1="296.8672" y2="1063.3984"/></g><g><title>SharedMemory</title><rect fill="transparent" height="169.6641" width="8" x="542.4468" y="99.2031"/><line style="stroke:#000000;stroke-width:1;" x1="546.2949" x2="546.2949" y1="99.2031" y2="268.8672"/></g><line style="stroke:#000000;stroke-width:1;stroke-dasharray:1.0,4.0;" x1="546.2949" x2="546.2949" y1="268.8672" y2="296.8672"/><g><title>SharedMemory</title><rect fill="transparent" height="766.5313" width="8" x="542.4468" y="296.8672"/><line style="stroke:#000000;stroke-width:1;" x1="546.2949" x2="546.2949" y1="296.8672" y2="1063.3984"/></g><g><title>TimeDaemon</title><rect fill="transparent" height="169.6641" width="8" x="859.2134" y="99.2031"/><line style="stroke:#000000;stroke-width:1;" x1="862.7417" x2="862.7417" y1="99.2031" y2="268.8672"/></g><line style="stroke:#000000;stroke-width:1;stroke-dasharray:1.0,4.0;" x1="862.7417" x2="862.7417" y1="268.8672" y2="296.8672"/><g><title>TimeDaemon</title><rect fill="transparent" height="766.5313" width="8" x="859.2134" y="296.8672"/><line style="stroke:#000000;stroke-width:1;" x1="862.7417" x2="862.7417" y1="296.8672" y2="1063.3984"/></g><rect fill="#FFB6C1" height="46.5938" rx="2.5" ry="2.5" style="stroke:#000000;stroke-width:1;" width="144.2656" x="20" y="51.6094"/><text fill="#000000" font-family="Verdana" font-size="14" lengthAdjust="spacing" textLength="72.9463" x="55.6597" y="71.6045">TimeSlave</text><text fill="#000000" font-family="Verdana" font-size="14" lengthAdjust="spacing" textLength="130.2656" x="27" y="87.9014">(GptpIpcPublisher)</text><rect fill="#FFB6C1" height="46.5938" rx="2.5" ry="2.5" style="stroke:#000000;stroke-width:1;" width="144.2656" x="20" y="1062.3984"/><text fill="#000000" font-family="Verdana" font-size="14" lengthAdjust="spacing" textLength="72.9463" x="55.6597" y="1082.3936">TimeSlave</text><text fill="#000000" font-family="Verdana" font-size="14" lengthAdjust="spacing" textLength="130.2656" x="27" y="1098.6904">(GptpIpcPublisher)</text><rect fill="#E0FFFF" height="46.5938" rx="2.5" ry="2.5" style="stroke:#000000;stroke-width:1;" width="128.3037" x="482.2949" y="51.6094"/><text fill="#000000" font-family="Verdana" font-size="14" lengthAdjust="spacing" textLength="106.5313" x="493.1812" y="71.6045">SharedMemory</text><text fill="#000000" font-family="Verdana" font-size="14" lengthAdjust="spacing" textLength="114.3037" x="489.2949" y="87.9014">(GptpIpcRegion)</text><rect fill="#E0FFFF" height="46.5938" rx="2.5" ry="2.5" style="stroke:#000000;stroke-width:1;" width="128.3037" x="482.2949" y="1062.3984"/><text fill="#000000" font-family="Verdana" font-size="14" lengthAdjust="spacing" textLength="106.5313" x="493.1812" y="1082.3936">SharedMemory</text><text fill="#000000" font-family="Verdana" font-size="14" lengthAdjust="spacing" textLength="114.3037" x="489.2949" y="1098.6904">(GptpIpcRegion)</text><rect fill="#FFB6C1" height="46.5938" rx="2.5" ry="2.5" style="stroke:#000000;stroke-width:1;" width="140.9434" x="792.7417" y="51.6094"/><text fill="#000000" font-family="Verdana" font-size="14" lengthAdjust="spacing" textLength="93.7412" x="816.3428" y="71.6045">TimeDaemon</text><text fill="#000000" font-family="Verdana" font-size="14" lengthAdjust="spacing" textLength="126.9434" x="799.7417" y="87.9014">(GptpIpcReceiver)</text><rect fill="#FFB6C1" height="46.5938" rx="2.5" ry="2.5" style="stroke:#000000;stroke-width:1;" width="140.9434" x="792.7417" y="1062.3984"/><text fill="#000000" font-family="Verdana" font-size="14" lengthAdjust="spacing" textLength="93.7412" x="816.3428" y="1082.3936">TimeDaemon</text><text fill="#000000" font-family="Verdana" font-size="14" lengthAdjust="spacing" textLength="126.9434" x="799.7417" y="1098.6904">(GptpIpcReceiver)</text><rect fill="#FFFFFF" height="3" style="stroke:#FFFFFF;stroke-width:1;" width="1119.3276" x="5" y="129.7695"/><line style="stroke:#000000;stroke-width:0.5;" x1="5" x2="1124.3276" y1="129.7695" y2="129.7695"/><line style="stroke:#000000;stroke-width:0.5;" x1="5" x2="1124.3276" y1="132.7695" y2="132.7695"/><rect fill="#FFFFFF" height="23.1328" style="stroke:#000000;stroke-width:1;" width="110.624" x="509.3518" y="119.2031"/><text fill="#000000" font-family="Verdana" font-size="13" font-weight="bold" lengthAdjust="spacing" textLength="92.0981" x="515.3518" y="135.27">Initialization</text><polygon fill="#000000" points="534.4468,169.4688,544.4468,173.4688,534.4468,177.4688,538.4468,173.4688" style="stroke:#000000;stroke-width:1;"/><line style="stroke:#000000;stroke-width:1;" x1="92.1328" x2="540.4468" y1="173.4688" y2="173.4688"/><text fill="#000000" font-family="Verdana" font-size="13" lengthAdjust="spacing" textLength="320.3979" x="99.1328" y="168.4028">shm_open("/gptp_ptp_info", O_CREAT | O_RDWR)</text><polygon fill="#000000" points="534.4468,198.6016,544.4468,202.6016,534.4468,206.6016,538.4468,202.6016" style="stroke:#000000;stroke-width:1;"/><line style="stroke:#000000;stroke-width:1;" x1="92.1328" x2="540.4468" y1="202.6016" y2="202.6016"/><text fill="#000000" font-family="Verdana" font-size="13" lengthAdjust="spacing" textLength="213.7256" x="99.1328" y="197.5356">ftruncate(sizeof(GptpIpcRegion))</text><polygon fill="#000000" points="534.4468,227.7344,544.4468,231.7344,534.4468,235.7344,538.4468,231.7344" style="stroke:#000000;stroke-width:1;"/><line style="stroke:#000000;stroke-width:1;" x1="92.1328" x2="540.4468" y1="231.7344" y2="231.7344"/><text fill="#000000" font-family="Verdana" font-size="13" lengthAdjust="spacing" textLength="225.4497" x="99.1328" y="226.6685">mmap(PROT_READ | PROT_WRITE)</text><polygon fill="#000000" points="534.4468,256.8672,544.4468,260.8672,534.4468,264.8672,538.4468,260.8672" style="stroke:#000000;stroke-width:1;"/><line style="stroke:#000000;stroke-width:1;" x1="92.1328" x2="540.4468" y1="260.8672" y2="260.8672"/><text fill="#000000" font-family="Verdana" font-size="13" lengthAdjust="spacing" textLength="232.8638" x="99.1328" y="255.8013">write magic = 0x47505450 ('GPTP')</text><polygon fill="#000000" points="557.4468,314,547.4468,318,557.4468,322,553.4468,318" style="stroke:#000000;stroke-width:1;"/><line style="stroke:#000000;stroke-width:1;" x1="551.4468" x2="862.2134" y1="318" y2="318"/><text fill="#000000" font-family="Verdana" font-size="13" lengthAdjust="spacing" textLength="261.1172" x="563.4468" y="312.9341">shm_open("/gptp_ptp_info", O_RDONLY)</text><polygon fill="#000000" points="557.4468,343.1328,547.4468,347.1328,557.4468,351.1328,553.4468,347.1328" style="stroke:#000000;stroke-width:1;"/><line style="stroke:#000000;stroke-width:1;" x1="551.4468" x2="862.2134" y1="347.1328" y2="347.1328"/><text fill="#000000" font-family="Verdana" font-size="13" lengthAdjust="spacing" textLength="129.3843" x="563.4468" y="342.0669">mmap(PROT_READ)</text><polygon fill="#000000" points="557.4468,372.2656,547.4468,376.2656,557.4468,380.2656,553.4468,376.2656" style="stroke:#000000;stroke-width:1;"/><line style="stroke:#000000;stroke-width:1;" x1="551.4468" x2="862.2134" y1="376.2656" y2="376.2656"/><text fill="#000000" font-family="Verdana" font-size="13" lengthAdjust="spacing" textLength="192.8735" x="563.4468" y="371.1997">verify magic == 0x47505450</text><rect fill="#FFFFFF" height="3" style="stroke:#FFFFFF;stroke-width:1;" width="1119.3276" x="5" y="404.832"/><line style="stroke:#000000;stroke-width:0.5;" x1="5" x2="1124.3276" y1="404.832" y2="404.832"/><line style="stroke:#000000;stroke-width:0.5;" x1="5" x2="1124.3276" y1="407.832" y2="407.832"/><rect fill="#FFFFFF" height="23.1328" style="stroke:#000000;stroke-width:1;" width="172.0439" x="478.6418" y="394.2656"/><text fill="#000000" font-family="Verdana" font-size="13" font-weight="bold" lengthAdjust="spacing" textLength="153.5181" x="484.6418" y="410.3325">Publish (Writer Side)</text><polygon fill="#000000" points="534.4468,444.5313,544.4468,448.5313,534.4468,452.5313,538.4468,448.5313" style="stroke:#000000;stroke-width:1;"/><line style="stroke:#000000;stroke-width:1;" x1="92.1328" x2="540.4468" y1="448.5313" y2="448.5313"/><text fill="#000000" font-family="Verdana" font-size="13" lengthAdjust="spacing" textLength="430.314" x="99.1328" y="443.4653">seq.fetch_add(1, relaxed)   // seq becomes odd (write in progress)</text><polygon fill="#000000" points="534.4468,473.6641,544.4468,477.6641,534.4468,481.6641,538.4468,477.6641" style="stroke:#000000;stroke-width:1;"/><line style="stroke:#000000;stroke-width:1;" x1="92.1328" x2="540.4468" y1="477.6641" y2="477.6641"/><text fill="#000000" font-family="Verdana" font-size="13" lengthAdjust="spacing" textLength="194.1304" x="99.1328" y="472.5981">atomic_thread_fence(release)</text><polygon fill="#000000" points="534.4468,502.7969,544.4468,506.7969,534.4468,510.7969,538.4468,506.7969" style="stroke:#000000;stroke-width:1;"/><line style="stroke:#000000;stroke-width:1;" x1="92.1328" x2="540.4468" y1="506.7969" y2="506.7969"/><text fill="#000000" font-family="Verdana" font-size="13" lengthAdjust="spacing" textLength="281.7407" x="99.1328" y="501.731">memcpy(&amp;data, &amp;src, sizeof(GptpIpcData))</text><polygon fill="#000000" points="534.4468,531.9297,544.4468,535.9297,534.4468,539.9297,538.4468,535.9297" style="stroke:#000000;stroke-width:1;"/><line style="stroke:#000000;stroke-width:1;" x1="92.1328" x2="540.4468" y1="535.9297" y2="535.9297"/><text fill="#000000" font-family="Verdana" font-size="13" lengthAdjust="spacing" textLength="423.8394" x="99.1328" y="530.8638">seq_confirm.store(seq+1, release)  // seq_confirm becomes even</text><polygon fill="#000000" points="534.4468,561.0625,544.4468,565.0625,534.4468,569.0625,538.4468,565.0625" style="stroke:#000000;stroke-width:1;"/><line style="stroke:#000000;stroke-width:1;" x1="92.1328" x2="540.4468" y1="565.0625" y2="565.0625"/><text fill="#000000" font-family="Verdana" font-size="13" lengthAdjust="spacing" textLength="428.3589" x="99.1328" y="559.9966">seq.store(seq+1, release)          // seq becomes even (write done)</text><rect fill="#FFFFFF" height="3" style="stroke:#FFFFFF;stroke-width:1;" width="1119.3276" x="5" y="593.6289"/><line style="stroke:#000000;stroke-width:0.5;" x1="5" x2="1124.3276" y1="593.6289" y2="593.6289"/><line style="stroke:#000000;stroke-width:0.5;" x1="5" x2="1124.3276" y1="596.6289" y2="596.6289"/><rect fill="#FFFFFF" height="23.1328" style="stroke:#000000;stroke-width:1;" width="180.6323" x="474.3477" y="583.0625"/><text fill="#000000" font-family="Verdana" font-size="13" font-weight="bold" lengthAdjust="spacing" textLength="162.1064" x="480.3477" y="599.1294">Receive (Reader Side)</text><path d="M452.2949,623.1953 L528.9189,623.1953 L528.9189,630.3281 L518.9189,640.3281 L452.2949,640.3281 L452.2949,623.1953 " fill="#FFFFFF" style="stroke:#000000;stroke-width:1;"/><rect fill="transparent" height="381.0703" style="stroke:#000000;stroke-width:1;" width="657.4678" x="452.2949" y="623.1953"/><text fill="#000000" font-family="Verdana" font-size="13" font-weight="bold" lengthAdjust="spacing" textLength="31.624" x="467.2949" y="636.2622">loop</text><text fill="#000000" font-family="Verdana" font-size="11" font-weight="bold" lengthAdjust="spacing" textLength="106.7183" x="543.9189" y="635.4058">[up to 20 retries]</text><polygon fill="#000000" points="557.4468,657.4609,547.4468,661.4609,557.4468,665.4609,553.4468,661.4609" style="stroke:#000000;stroke-width:1;"/><line style="stroke:#000000;stroke-width:1;" x1="551.4468" x2="862.2134" y1="661.4609" y2="661.4609"/><text fill="#000000" font-family="Verdana" font-size="13" lengthAdjust="spacing" textLength="164.0933" x="563.4468" y="656.395">seq1 = seq.load(acquire)</text><path d="M462.2949,676.4609 L526.7378,676.4609 L526.7378,683.5938 L516.7378,693.5938 L462.2949,693.5938 L462.2949,676.4609 " fill="#FFFFFF" style="stroke:#000000;stroke-width:1;"/><rect fill="transparent" height="320.8047" style="stroke:#000000;stroke-width:1;" width="637.4678" x="462.2949" y="676.4609"/><text fill="#000000" font-family="Verdana" font-size="13" font-weight="bold" lengthAdjust="spacing" textLength="19.4429" x="477.2949" y="689.5278">alt</text><text fill="#000000" font-family="Verdana" font-size="11" font-weight="bold" lengthAdjust="spacing" textLength="200.8037" x="541.7378" y="688.6714">[seq1 is odd (write in progress)]</text><line style="stroke:#000000;stroke-width:1;" x1="863.2134" x2="905.2134" y1="714.7266" y2="714.7266"/><line style="stroke:#000000;stroke-width:1;" x1="905.2134" x2="905.2134" y1="714.7266" y2="727.7266"/><line style="stroke:#000000;stroke-width:1;" x1="864.2134" x2="905.2134" y1="727.7266" y2="727.7266"/><polygon fill="#000000" points="874.2134,723.7266,864.2134,727.7266,874.2134,731.7266,870.2134,727.7266" style="stroke:#000000;stroke-width:1;"/><text fill="#000000" font-family="Verdana" font-size="13" lengthAdjust="spacing" textLength="31.478" x="870.2134" y="709.6606">retry</text><line style="stroke:#000000;stroke-width:1;stroke-dasharray:2.0,2.0;" x1="462.2949" x2="1099.7627" y1="736.7266" y2="736.7266"/><text fill="#000000" font-family="Verdana" font-size="11" font-weight="bold" lengthAdjust="spacing" textLength="87.4897" x="467.2949" y="746.937">[seq1 is even]</text><polygon fill="#000000" points="557.4468,767.6641,547.4468,771.6641,557.4468,775.6641,553.4468,771.6641" style="stroke:#000000;stroke-width:1;"/><line style="stroke:#000000;stroke-width:1;" x1="551.4468" x2="862.2134" y1="771.6641" y2="771.6641"/><text fill="#000000" font-family="Verdana" font-size="13" lengthAdjust="spacing" textLength="292.7666" x="563.4468" y="766.5981">memcpy(&amp;local, &amp;data, sizeof(GptpIpcData))</text><polygon fill="#000000" points="557.4468,796.7969,547.4468,800.7969,557.4468,804.7969,553.4468,800.7969" style="stroke:#000000;stroke-width:1;"/><line style="stroke:#000000;stroke-width:1;" x1="551.4468" x2="862.2134" y1="800.7969" y2="800.7969"/><text fill="#000000" font-family="Verdana" font-size="13" lengthAdjust="spacing" textLength="193.2607" x="563.4468" y="795.731">atomic_thread_fence(acq_rel)</text><polygon fill="#000000" points="557.4468,825.9297,547.4468,829.9297,557.4468,833.9297,553.4468,829.9297" style="stroke:#000000;stroke-width:1;"/><line style="stroke:#000000;stroke-width:1;" x1="551.4468" x2="862.2134" y1="829.9297" y2="829.9297"/><text fill="#000000" font-family="Verdana" font-size="13" lengthAdjust="spacing" textLength="220.1304" x="563.4468" y="824.8638">seq2 = seq_confirm.load(acquire)</text><polygon fill="#000000" points="557.4468,855.0625,547.4468,859.0625,557.4468,863.0625,553.4468,859.0625" style="stroke:#000000;stroke-width:1;"/><line style="stroke:#000000;stroke-width:1;" x1="551.4468" x2="862.2134" y1="859.0625" y2="859.0625"/><text fill="#000000" font-family="Verdana" font-size="13" lengthAdjust="spacing" textLength="164.0933" x="563.4468" y="853.9966">seq3 = seq.load(acquire)</text><path d="M772.7417,874.0625 L837.1846,874.0625 L837.1846,881.1953 L827.1846,891.1953 L772.7417,891.1953 L772.7417,874.0625 " fill="#FFFFFF" style="stroke:#000000;stroke-width:1;"/><rect fill="transparent" height="116.2031" style="stroke:#000000;stroke-width:1;" width="317.021" x="772.7417" y="874.0625"/><text fill="#000000" font-family="Verdana" font-size="13" font-weight="bold" lengthAdjust="spacing" textLength="19.4429" x="787.7417" y="887.1294">alt</text><text fill="#000000" font-family="Verdana" font-size="11" font-weight="bold" lengthAdjust="spacing" textLength="207.2275" x="852.1846" y="886.2729">[seq1 == seq2 &amp;&amp; seq1 == seq3]</text><line style="stroke:#000000;stroke-width:1;stroke-dasharray:2.0,2.0;" x1="863.2134" x2="905.2134" y1="912.3281" y2="912.3281"/><line style="stroke:#000000;stroke-width:1;stroke-dasharray:2.0,2.0;" x1="905.2134" x2="905.2134" y1="912.3281" y2="925.3281"/><line style="stroke:#000000;stroke-width:1;stroke-dasharray:2.0,2.0;" x1="864.2134" x2="905.2134" y1="925.3281" y2="925.3281"/><polygon fill="#000000" points="874.2134,921.3281,864.2134,925.3281,874.2134,929.3281,870.2134,925.3281" style="stroke:#000000;stroke-width:1;"/><text fill="#000000" font-family="Verdana" font-size="13" lengthAdjust="spacing" textLength="207.5493" x="870.2134" y="907.2622">return GptpIpcData (consistent)</text><line style="stroke:#000000;stroke-width:1;stroke-dasharray:2.0,2.0;" x1="772.7417" x2="1089.7627" y1="934.3281" y2="934.3281"/><text fill="#000000" font-family="Verdana" font-size="11" font-weight="bold" lengthAdjust="spacing" textLength="192.457" x="777.7417" y="944.5386">[torn read (new write started)]</text><line style="stroke:#000000;stroke-width:1;" x1="863.2134" x2="905.2134" y1="969.2656" y2="969.2656"/><line style="stroke:#000000;stroke-width:1;" x1="905.2134" x2="905.2134" y1="969.2656" y2="982.2656"/><line style="stroke:#000000;stroke-width:1;" x1="864.2134" x2="905.2134" y1="982.2656" y2="982.2656"/><polygon fill="#000000" points="874.2134,978.2656,864.2134,982.2656,874.2134,986.2656,870.2134,982.2656" style="stroke:#000000;stroke-width:1;"/><text fill="#000000" font-family="Verdana" font-size="13" lengthAdjust="spacing" textLength="31.478" x="870.2134" y="964.1997">retry</text><line style="stroke:#000000;stroke-width:1;stroke-dasharray:2.0,2.0;" x1="863.2134" x2="905.2134" y1="1032.3984" y2="1032.3984"/><line style="stroke:#000000;stroke-width:1;stroke-dasharray:2.0,2.0;" x1="905.2134" x2="905.2134" y1="1032.3984" y2="1045.3984"/><line style="stroke:#000000;stroke-width:1;stroke-dasharray:2.0,2.0;" x1="864.2134" x2="905.2134" y1="1045.3984" y2="1045.3984"/><polygon fill="#000000" points="874.2134,1041.3984,864.2134,1045.3984,874.2134,1049.3984,870.2134,1045.3984" style="stroke:#000000;stroke-width:1;"/><text fill="#000000" font-family="Verdana" font-size="13" lengthAdjust="spacing" textLength="247.1143" x="870.2134" y="1027.3325">return std::nullopt (exhausted retries)</text><!--SRC=[ZLHhQzim5FskNt6NGQgmB4rV308PR4df0dqO9riP38mgtyIYikH8SjkK_VZ9Jjp6JW8p6DleddFFFKVM1vTWYf199XGXJZY98CN3R3gI0fM3AIwbveym2KOG6EqqrvAGZ1adkCYOhsZDH8fJoPxmZw9NcSic6G_o1obiWgRJ0cOX-FaTFbwBHU82eHxhw6d23COtc6gpUYS8SI6qMgEdFsuswD6AgTtUO-R1QXlBKJnLlSFHh-tUP3Y4YH9EC2bUcVDDO3Waf53u-MlPQW0sIIETeQAjuuMdZ8fRgBbkTU4k6eMNtsRmrx-5u_kmKqVEdSaLPmwf5Q-evurn6jLfoZ8QX7Upo7EEFMVvVXzEPfUDocSZ74BA5eB34Felvryk-XVd5tsWHrV1B3Zg4DBhzGWfXls_CSBntUtrxquTKHVKMFIEYlcg4h6jeZHr4pdG-qAhWQc8iRF7MrpsvkXu4h4ufYTTC2ZP2yOT03W-BfRX0RbEqOAEOw3hoOM2pEY5GMiRpZ2dKy4ZbnXaSJH7nP5wIcGMcsvZohCLRSVCiIwqhU5TgASqzYlDZBoWY6ir5oRjMQUDJnQNdzQwooQLxAhgJJu-eTgT_G17TJKiA3Wg3sAj_4Y5rPiD3ZJqCzUibbfda6VWD9psFRqp0YqfYEix0vSdVXyLUgHcCMLycGlZsOjA9jswG1oEe9AxOIqUWxBTgbn2QV6De_IX0QWduWyO9dqawsJsPh8NlozxFqhaRJs0y9fEruE_XRfhm3xKsK6xQfODX-iMxVRsznc1hQkatZOjDmgsfWNgfLbXdJz-trkKblgzew0O5gZ2vysfO9q_4FqFjDjaDvYIISMaUXOtsIl8kdWmKBcKEdD0yILXkLSKLtkgG_u1]--></g></svg>