<svg xmlns="http://www.w3.org/2000/svg" xmlns:xlink="http://www.w3.org/1999/xlink" contentStyleType="text/css" data-diagram-type="SEQUENCE" height="1050px" preserveAspectRatio="none" style="width:958px;height:1050px;background:#FFFFFF;" version="1.1" viewBox="0 0 958 1050" width="958px" zoomAndPan="magnify"><title>ControlFlowDivider: Main Workflow</title><defs/><g><text fill="#000000" font-family="sans-serif" font-size="14" font-weight="bold" lengthAdjust="spacing" textLength="279.7607" x="335.437" y="27.9951">ControlFlowDivider: Main Workflow</text><g><title>VerificationMachine</title><rect fill="#FFFFFF" height="144.6641" style="stroke:#181818;stroke-width:1;" width="10" x="76.1763" y="284.6406"/></g><g><title>MessageBroker</title><rect fill="#FFFFFF" height="144.6641" style="stroke:#181818;stroke-width:1;" width="10" x="365.1094" y="284.6406"/></g><g><title>MessageBroker</title><rect fill="#FFFFFF" height="87.3984" style="stroke:#181818;stroke-width:1;" width="10" x="365.1094" y="648.3672"/></g><g><title>MessageBroker</title><rect fill="#FFFFFF" height="137.6641" style="stroke:#181818;stroke-width:1;" width="10" x="365.1094" y="881.2969"/></g><g><title>ControlFlowDivider</title><rect fill="#FFFFFF" height="86.3984" style="stroke:#181818;stroke-width:1;" width="10" x="617.167" y="313.7734"/></g><g><title>ControlFlowDivider</title><rect fill="#FFFFFF" height="202.0625" style="stroke:#181818;stroke-width:1;" width="10" x="617.167" y="533.7031"/></g><g><title>ControlFlowDivider</title><rect fill="#FFFFFF" height="171.7969" style="stroke:#181818;stroke-width:1;" width="10" x="617.167" y="847.1641"/></g><g><title>IPCPublisher</title><rect fill="#FFFFFF" height="29.1328" style="stroke:#181818;stroke-width:1;" width="10" x="810.5005" y="677.5"/></g><g><title>IPCPublisher</title><rect fill="#FFFFFF" height="29.1328" style="stroke:#181818;stroke-width:1;" width="10" x="810.5005" y="960.6953"/></g><rect fill="transparent" height="256.3281" style="stroke:#000000;stroke-width:1.5;" width="576.7041" x="299.2285" y="487.4375"/><rect fill="transparent" height="226.0625" style="stroke:#000000;stroke-width:1.5;" width="576.7041" x="299.2285" y="800.8984"/><g><title>VerificationMachine</title><rect fill="transparent" height="833.5859" width="8" x="77.1763" y="210.375"/><line style="stroke:#181818;stroke-width:0.5;stroke-dasharray:5.0,5.0;" x1="81" x2="81" y1="210.375" y2="1043.9609"/></g><g><title>MessageBroker</title><rect fill="transparent" height="833.5859" width="8" x="366.1094" y="210.375"/><line style="stroke:#181818;stroke-width:0.5;stroke-dasharray:5.0,5.0;" x1="369.2285" x2="369.2285" y1="210.375" y2="1043.9609"/></g><g><title>ControlFlowDivider</title><rect fill="transparent" height="833.5859" width="8" x="618.167" y="210.375"/><line style="stroke:#181818;stroke-width:0.5;stroke-dasharray:5.0,5.0;" x1="621.6807" x2="621.6807" y1="210.375" y2="1043.9609"/></g><g><title>IPCPublisher</title><rect fill="transparent" height="833.5859" width="8" x="811.5005" y="210.375"/><line style="stroke:#181818;stroke-width:0.5;stroke-dasharray:5.0,5.0;" x1="815.0684" x2="815.0684" y1="210.375" y2="1043.9609"/></g><rect fill="#E6E6FA" height="30.2969" rx="2.5" ry="2.5" style="stroke:#181818;stroke-width:0.5;" width="152.3525" x="5" y="179.0781"/><text fill="#000000" font-family="sans-serif" font-size="14" lengthAdjust="spacing" textLength="138.3525" x="12" y="199.0732">VerificationMachine</text><rect fill="#AFEEEE" height="30.2969" rx="2.5" ry="2.5" style="stroke:#181818;stroke-width:0.5;" width="121.7617" x="309.2285" y="179.0781"/><text fill="#000000" font-family="sans-serif" font-size="14" lengthAdjust="spacing" textLength="107.7617" x="316.2285" y="199.0732">MessageBroker</text><rect fill="#ADD8E6" height="30.2969" rx="2.5" ry="2.5" style="stroke:#181818;stroke-width:0.5;" width="146.9727" x="548.6807" y="179.0781"/><text fill="#000000" font-family="sans-serif" font-size="14" lengthAdjust="spacing" textLength="132.9727" x="555.6807" y="199.0732">ControlFlowDivider</text><rect fill="#FFB6C1" height="30.2969" rx="2.5" ry="2.5" style="stroke:#181818;stroke-width:0.5;" width="100.8643" x="765.0684" y="179.0781"/><text fill="#000000" font-family="sans-serif" font-size="14" lengthAdjust="spacing" textLength="86.8643" x="772.0684" y="199.0732">IPCPublisher</text><g><title>VerificationMachine</title><rect fill="#FFFFFF" height="144.6641" style="stroke:#181818;stroke-width:1;" width="10" x="76.1763" y="284.6406"/></g><g><title>MessageBroker</title><rect fill="#FFFFFF" height="144.6641" style="stroke:#181818;stroke-width:1;" width="10" x="365.1094" y="284.6406"/></g><g><title>MessageBroker</title><rect fill="#FFFFFF" height="87.3984" style="stroke:#181818;stroke-width:1;" width="10" x="365.1094" y="648.3672"/></g><g><title>MessageBroker</title><rect fill="#FFFFFF" height="137.6641" style="stroke:#181818;stroke-width:1;" width="10" x="365.1094" y="881.2969"/></g><g><title>ControlFlowDivider</title><rect fill="#FFFFFF" height="86.3984" style="stroke:#181818;stroke-width:1;" width="10" x="617.167" y="313.7734"/></g><g><title>ControlFlowDivider</title><rect fill="#FFFFFF" height="202.0625" style="stroke:#181818;stroke-width:1;" width="10" x="617.167" y="533.7031"/></g><g><title>ControlFlowDivider</title><rect fill="#FFFFFF" height="171.7969" style="stroke:#181818;stroke-width:1;" width="10" x="617.167" y="847.1641"/></g><g><title>IPCPublisher</title><rect fill="#FFFFFF" height="29.1328" style="stroke:#181818;stroke-width:1;" width="10" x="810.5005" y="677.5"/></g><g><title>IPCPublisher</title><rect fill="#FFFFFF" height="29.1328" style="stroke:#181818;stroke-width:1;" width="10" x="810.5005" y="960.6953"/></g><rect fill="#EEEEEE" height="3" style="stroke:#EEEEEE;stroke-width:1;" width="951.6348" x="0" y="240.9414"/><line style="stroke:#000000;stroke-width:1;" x1="0" x2="951.6348" y1="240.9414" y2="240.9414"/><line style="stroke:#000000;stroke-width:1;" x1="0" x2="951.6348" y1="243.9414" y2="243.9414"/><rect fill="#EEEEEE" height="23.1328" style="stroke:#000000;stroke-width:2;" width="106.644" x="422.4954" y="230.375"/><text fill="#000000" font-family="sans-serif" font-size="13" font-weight="bold" lengthAdjust="spacing" textLength="88.1182" x="428.4954" y="246.4419">Data Arrival</text><polygon fill="#181818" points="353.1094,280.6406,363.1094,284.6406,353.1094,288.6406,357.1094,284.6406" style="stroke:#181818;stroke-width:1;"/><line style="stroke:#181818;stroke-width:1;" x1="86.1763" x2="359.1094" y1="284.6406" y2="284.6406"/><text fill="#FF0000" font-family="sans-serif" font-size="13" font-weight="bold" lengthAdjust="spacing" textLength="29.9736" x="93.1763" y="279.5747">[01]</text><text fill="#000000" font-family="sans-serif" font-size="13" lengthAdjust="spacing" textLength="230.9595" x="127.1499" y="279.5747">publish("validated_ptp_data", data)</text><polygon fill="#181818" points="605.167,309.7734,615.167,313.7734,605.167,317.7734,609.167,313.7734" style="stroke:#181818;stroke-width:1;"/><line style="stroke:#181818;stroke-width:1;" x1="375.1094" x2="611.167" y1="313.7734" y2="313.7734"/><text fill="#FF0000" font-family="sans-serif" font-size="13" font-weight="bold" lengthAdjust="spacing" textLength="29.9736" x="382.1094" y="308.7075">[02]</text><text fill="#000000" font-family="sans-serif" font-size="13" lengthAdjust="spacing" textLength="114.8735" x="416.083" y="308.7075">OnMessage(data)</text><line style="stroke:#181818;stroke-width:1;" x1="627.167" x2="669.167" y1="358.0391" y2="358.0391"/><line style="stroke:#181818;stroke-width:1;" x1="669.167" x2="669.167" y1="358.0391" y2="371.0391"/><line style="stroke:#181818;stroke-width:1;" x1="628.167" x2="669.167" y1="371.0391" y2="371.0391"/><polygon fill="#181818" points="638.167,367.0391,628.167,371.0391,638.167,375.0391,634.167,371.0391" style="stroke:#181818;stroke-width:1;"/><text fill="#FF0000" font-family="sans-serif" font-size="13" font-weight="bold" lengthAdjust="spacing" textLength="29.9736" x="634.167" y="345.4067">[03]</text><text fill="#000000" font-family="sans-serif" font-size="13" lengthAdjust="spacing" textLength="101.6577" x="668.1406" y="337.8403">Buffer data and</text><text fill="#000000" font-family="sans-serif" font-size="13" lengthAdjust="spacing" textLength="125.3599" x="668.1406" y="352.9731">notify event thread</text><path d="M815.3335,330.2734 L815.3335,370.2734 L936.3335,370.2734 L936.3335,340.2734 L926.3335,330.2734 L815.3335,330.2734 " fill="#FEFFDD" style="stroke:#181818;stroke-width:0.5;"/><path d="M926.3335,330.2734 L926.3335,340.2734 L936.3335,340.2734 L926.3335,330.2734 " fill="#FEFFDD" style="stroke:#181818;stroke-width:0.5;"/><text fill="#000000" font-family="sans-serif" font-size="13" lengthAdjust="spacing" textLength="100.1343" x="821.3335" y="347.3403">Data queued in</text><text fill="#000000" font-family="sans-serif" font-size="13" lengthAdjust="spacing" textLength="91.5332" x="821.3335" y="362.4731">circular buffer</text><polygon fill="#181818" points="386.1094,396.1719,376.1094,400.1719,386.1094,404.1719,382.1094,400.1719" style="stroke:#181818;stroke-width:1;"/><line style="stroke:#181818;stroke-width:1;stroke-dasharray:2.0,2.0;" x1="380.1094" x2="621.167" y1="400.1719" y2="400.1719"/><text fill="#FF0000" font-family="sans-serif" font-size="13" font-weight="bold" lengthAdjust="spacing" textLength="29.9736" x="392.1094" y="395.106">[04]</text><text fill="#000000" font-family="sans-serif" font-size="13" lengthAdjust="spacing" textLength="4.1323" x="426.083" y="395.106">&#160;</text><polygon fill="#181818" points="92.1763,425.3047,82.1763,429.3047,92.1763,433.3047,88.1763,429.3047" style="stroke:#181818;stroke-width:1;"/><line style="stroke:#181818;stroke-width:1;stroke-dasharray:2.0,2.0;" x1="86.1763" x2="369.1094" y1="429.3047" y2="429.3047"/><text fill="#FF0000" font-family="sans-serif" font-size="13" font-weight="bold" lengthAdjust="spacing" textLength="29.9736" x="98.1763" y="424.2388">[05]</text><text fill="#000000" font-family="sans-serif" font-size="13" lengthAdjust="spacing" textLength="4.1323" x="132.1499" y="424.2388">&#160;</text><rect fill="#EEEEEE" height="3" style="stroke:#EEEEEE;stroke-width:1;" width="951.6348" x="0" y="457.8711"/><line style="stroke:#000000;stroke-width:1;" x1="0" x2="951.6348" y1="457.8711" y2="457.8711"/><line style="stroke:#000000;stroke-width:1;" x1="0" x2="951.6348" y1="460.8711" y2="460.8711"/><rect fill="#EEEEEE" height="23.1328" style="stroke:#000000;stroke-width:2;" width="144.5776" x="403.5286" y="447.3047"/><text fill="#000000" font-family="sans-serif" font-size="13" font-weight="bold" lengthAdjust="spacing" textLength="126.0518" x="409.5286" y="463.3716">Event Processing</text><path d="M299.2285,487.4375 L375.8525,487.4375 L375.8525,494.5703 L365.8525,504.5703 L299.2285,504.5703 L299.2285,487.4375 " fill="#EEEEEE" style="stroke:#000000;stroke-width:1.5;"/><rect fill="transparent" height="256.3281" style="stroke:#000000;stroke-width:1.5;" width="576.7041" x="299.2285" y="487.4375"/><text fill="#000000" font-family="sans-serif" font-size="13" font-weight="bold" lengthAdjust="spacing" textLength="31.624" x="314.2285" y="500.5044">loop</text><text fill="#000000" font-family="sans-serif" font-size="11" font-weight="bold" lengthAdjust="spacing" textLength="165.9131" x="390.8525" y="499.6479">[process all buffered data]</text><line style="stroke:#181818;stroke-width:1;" x1="622.167" x2="669.167" y1="520.7031" y2="520.7031"/><line style="stroke:#181818;stroke-width:1;" x1="669.167" x2="669.167" y1="520.7031" y2="533.7031"/><line style="stroke:#181818;stroke-width:1;" x1="628.167" x2="669.167" y1="533.7031" y2="533.7031"/><polygon fill="#181818" points="638.167,529.7031,628.167,533.7031,638.167,537.7031,634.167,533.7031" style="stroke:#181818;stroke-width:1;"/><text fill="#FF0000" font-family="sans-serif" font-size="13" font-weight="bold" lengthAdjust="spacing" textLength="29.9736" x="634.167" y="515.6372">[06]</text><text fill="#000000" font-family="sans-serif" font-size="13" lengthAdjust="spacing" textLength="65.8569" x="668.1406" y="515.6372">OnEvent()</text><path d="M632,551.7031 L632,621.7031 L822,621.7031 L822,561.7031 L812,551.7031 L632,551.7031 " fill="#FEFFDD" style="stroke:#181818;stroke-width:0.5;"/><path d="M812,551.7031 L812,561.7031 L822,561.7031 L812,551.7031 " fill="#FEFFDD" style="stroke:#181818;stroke-width:0.5;"/><text fill="#000000" font-family="sans-serif" font-size="13" lengthAdjust="spacing" textLength="169.7554" x="638" y="568.77">Process all available data:</text><text fill="#000000" font-family="sans-serif" font-size="13" lengthAdjust="spacing" textLength="110.6587" x="638" y="583.9028">- Pop from buffer</text><text fill="#000000" font-family="sans-serif" font-size="13" lengthAdjust="spacing" textLength="132.2026" x="638" y="599.0356">- Store as last_data_</text><text fill="#000000" font-family="sans-serif" font-size="13" lengthAdjust="spacing" textLength="151.2139" x="638" y="614.1685">- Publish to subscribers</text><polygon fill="#181818" points="386.1094,644.3672,376.1094,648.3672,386.1094,652.3672,382.1094,648.3672" style="stroke:#181818;stroke-width:1;"/><line style="stroke:#181818;stroke-width:1;" x1="380.1094" x2="616.167" y1="648.3672" y2="648.3672"/><text fill="#FF0000" font-family="sans-serif" font-size="13" font-weight="bold" lengthAdjust="spacing" textLength="29.9736" x="392.1094" y="643.3013">[07]</text><text fill="#000000" font-family="sans-serif" font-size="13" lengthAdjust="spacing" textLength="152.6357" x="426.083" y="643.3013">publish_callback_(data)</text><polygon fill="#181818" points="798.5005,673.5,808.5005,677.5,798.5005,681.5,802.5005,677.5" style="stroke:#181818;stroke-width:1;"/><line style="stroke:#181818;stroke-width:1;" x1="375.1094" x2="804.5005" y1="677.5" y2="677.5"/><text fill="#FF0000" font-family="sans-serif" font-size="13" font-weight="bold" lengthAdjust="spacing" textLength="29.9736" x="382.1094" y="672.4341">[08]</text><text fill="#000000" font-family="sans-serif" font-size="13" lengthAdjust="spacing" textLength="240.354" x="416.083" y="672.4341">notify subscribers in separate thread</text><polygon fill="#181818" points="386.1094,702.6328,376.1094,706.6328,386.1094,710.6328,382.1094,706.6328" style="stroke:#181818;stroke-width:1;"/><line style="stroke:#181818;stroke-width:1;stroke-dasharray:2.0,2.0;" x1="380.1094" x2="814.5005" y1="706.6328" y2="706.6328"/><text fill="#FF0000" font-family="sans-serif" font-size="13" font-weight="bold" lengthAdjust="spacing" textLength="29.9736" x="392.1094" y="701.5669">[09]</text><text fill="#000000" font-family="sans-serif" font-size="13" lengthAdjust="spacing" textLength="4.1323" x="426.083" y="701.5669">&#160;</text><polygon fill="#181818" points="610.167,731.7656,620.167,735.7656,610.167,739.7656,614.167,735.7656" style="stroke:#181818;stroke-width:1;"/><line style="stroke:#181818;stroke-width:1;stroke-dasharray:2.0,2.0;" x1="370.1094" x2="616.167" y1="735.7656" y2="735.7656"/><text fill="#FF0000" font-family="sans-serif" font-size="13" font-weight="bold" lengthAdjust="spacing" textLength="29.9736" x="377.1094" y="730.6997">[10]</text><text fill="#000000" font-family="sans-serif" font-size="13" lengthAdjust="spacing" textLength="4.1323" x="411.083" y="730.6997">&#160;</text><rect fill="#EEEEEE" height="3" style="stroke:#EEEEEE;stroke-width:1;" width="951.6348" x="0" y="771.332"/><line style="stroke:#000000;stroke-width:1;" x1="0" x2="951.6348" y1="771.332" y2="771.332"/><line style="stroke:#000000;stroke-width:1;" x1="0" x2="951.6348" y1="774.332" y2="774.332"/><rect fill="#EEEEEE" height="23.1328" style="stroke:#000000;stroke-width:2;" width="148.8242" x="401.4053" y="760.7656"/><text fill="#000000" font-family="sans-serif" font-size="13" font-weight="bold" lengthAdjust="spacing" textLength="130.2983" x="407.4053" y="776.8325">Timeout Handling</text><path d="M299.2285,800.8984 L363.6714,800.8984 L363.6714,808.0313 L353.6714,818.0313 L299.2285,818.0313 L299.2285,800.8984 " fill="#EEEEEE" style="stroke:#000000;stroke-width:1.5;"/><rect fill="transparent" height="226.0625" style="stroke:#000000;stroke-width:1.5;" width="576.7041" x="299.2285" y="800.8984"/><text fill="#000000" font-family="sans-serif" font-size="13" font-weight="bold" lengthAdjust="spacing" textLength="19.4429" x="314.2285" y="813.9653">alt</text><text fill="#000000" font-family="sans-serif" font-size="11" font-weight="bold" lengthAdjust="spacing" textLength="145.9702" x="378.6714" y="813.1089">[if no new data arrives]</text><line style="stroke:#181818;stroke-width:1;" x1="622.167" x2="669.167" y1="834.1641" y2="834.1641"/><line style="stroke:#181818;stroke-width:1;" x1="669.167" x2="669.167" y1="834.1641" y2="847.1641"/><line style="stroke:#181818;stroke-width:1;" x1="628.167" x2="669.167" y1="847.1641" y2="847.1641"/><polygon fill="#181818" points="638.167,843.1641,628.167,847.1641,638.167,851.1641,634.167,847.1641" style="stroke:#181818;stroke-width:1;"/><text fill="#FF0000" font-family="sans-serif" font-size="13" font-weight="bold" lengthAdjust="spacing" textLength="29.9736" x="634.167" y="829.0981">[11]</text><text fill="#000000" font-family="sans-serif" font-size="13" lengthAdjust="spacing" textLength="82.1196" x="668.1406" y="829.0981">OnTimeout()</text><polygon fill="#181818" points="386.1094,877.2969,376.1094,881.2969,386.1094,885.2969,382.1094,881.2969" style="stroke:#181818;stroke-width:1;"/><line style="stroke:#181818;stroke-width:1;" x1="380.1094" x2="616.167" y1="881.2969" y2="881.2969"/><text fill="#FF0000" font-family="sans-serif" font-size="13" font-weight="bold" lengthAdjust="spacing" textLength="29.9736" x="392.1094" y="876.231">[12]</text><text fill="#000000" font-family="sans-serif" font-size="13" lengthAdjust="spacing" textLength="189.084" x="426.083" y="876.231">publish_callback_(last_data_)</text><path d="M632,894.2969 L632,934.2969 L853,934.2969 L853,904.2969 L843,894.2969 L632,894.2969 " fill="#FEFFDD" style="stroke:#181818;stroke-width:0.5;"/><path d="M843,894.2969 L843,904.2969 L853,904.2969 L843,894.2969 " fill="#FEFFDD" style="stroke:#181818;stroke-width:0.5;"/><text fill="#000000" font-family="sans-serif" font-size="13" lengthAdjust="spacing" textLength="171.7295" x="638" y="911.3638">Republish last known data</text><text fill="#000000" font-family="sans-serif" font-size="13" lengthAdjust="spacing" textLength="200.9922" x="638" y="926.4966">to maintain timing consistency</text><polygon fill="#181818" points="798.5005,956.6953,808.5005,960.6953,798.5005,964.6953,802.5005,960.6953" style="stroke:#181818;stroke-width:1;"/><line style="stroke:#181818;stroke-width:1;" x1="375.1094" x2="804.5005" y1="960.6953" y2="960.6953"/><text fill="#FF0000" font-family="sans-serif" font-size="13" font-weight="bold" lengthAdjust="spacing" textLength="29.9736" x="382.1094" y="955.6294">[13]</text><text fill="#000000" font-family="sans-serif" font-size="13" lengthAdjust="spacing" textLength="240.354" x="416.083" y="955.6294">notify subscribers in separate thread</text><polygon fill="#181818" points="386.1094,985.8281,376.1094,989.8281,386.1094,993.8281,382.1094,989.8281" style="stroke:#181818;stroke-width:1;"/><line style="stroke:#181818;stroke-width:1;stroke-dasharray:2.0,2.0;" x1="380.1094" x2="814.5005" y1="989.8281" y2="989.8281"/><text fill="#FF0000" font-family="sans-serif" font-size="13" font-weight="bold" lengthAdjust="spacing" textLength="29.9736" x="392.1094" y="984.7622">[14]</text><text fill="#000000" font-family="sans-serif" font-size="13" lengthAdjust="spacing" textLength="4.1323" x="426.083" y="984.7622">&#160;</text><polygon fill="#181818" points="610.167,1014.9609,620.167,1018.9609,610.167,1022.9609,614.167,1018.9609" style="stroke:#181818;stroke-width:1;"/><line style="stroke:#181818;stroke-width:1;stroke-dasharray:2.0,2.0;" x1="370.1094" x2="616.167" y1="1018.9609" y2="1018.9609"/><text fill="#FF0000" font-family="sans-serif" font-size="13" font-weight="bold" lengthAdjust="spacing" textLength="29.9736" x="377.1094" y="1013.895">[15]</text><text fill="#000000" font-family="sans-serif" font-size="13" lengthAdjust="spacing" textLength="4.1323" x="411.083" y="1013.895">&#160;</text><rect fill="#DDDDDD" height="111.7813" id="_legend" rx="7.5" ry="7.5" style="stroke:#000000;stroke-width:1;" width="317.5625" x="12" y="54.2969"/><text fill="#000000" font-family="sans-serif" font-size="14" font-weight="bold" lengthAdjust="spacing" textLength="41.2139" x="21.874" y="74.292">Color</text><text fill="#000000" font-family="sans-serif" font-size="14" font-weight="bold" lengthAdjust="spacing" textLength="90.5488" x="106.9541" y="74.292">Description</text><rect fill="#E0FFFF" height="16.2969" style="stroke:transparent;stroke-width:1;" width="85.0801" x="17" y="77.5938"/><text fill="#000000" font-family="sans-serif" font-size="14" lengthAdjust="spacing" textLength="13.3506" x="17" y="90.5889">&#160;&#160;&#160;</text><text fill="#000000" font-family="sans-serif" font-size="14" lengthAdjust="spacing" textLength="164.6299" x="106.5303" y="90.5889">TimeDaemon members</text><rect fill="#AFEEEE" height="16.2969" style="stroke:transparent;stroke-width:1;" width="85.0801" x="17" y="93.8906"/><text fill="#000000" font-family="sans-serif" font-size="14" lengthAdjust="spacing" textLength="4.4502" x="17" y="106.8857">&#160;</text><text fill="#000000" font-family="sans-serif" font-size="14" lengthAdjust="spacing" textLength="107.7617" x="106.5303" y="106.8857">MessageBroker</text><rect fill="#ADD8E6" height="16.2969" style="stroke:transparent;stroke-width:1;" width="85.0801" x="17" y="110.1875"/><text fill="#000000" font-family="sans-serif" font-size="14" lengthAdjust="spacing" textLength="13.3506" x="17" y="123.1826">&#160;&#160;&#160;</text><text fill="#000000" font-family="sans-serif" font-size="14" lengthAdjust="spacing" textLength="132.9727" x="106.5303" y="123.1826">ControlFlowDivider</text><rect fill="#E6E6FA" height="16.2969" style="stroke:transparent;stroke-width:1;" width="85.0801" x="17" y="126.4844"/><text fill="#000000" font-family="sans-serif" font-size="14" lengthAdjust="spacing" textLength="17.8008" x="17" y="139.4795">&#160;&#160;&#160;&#160;</text><text fill="#000000" font-family="sans-serif" font-size="14" lengthAdjust="spacing" textLength="138.3525" x="106.5303" y="139.4795">VerificationMachine</text><rect fill="#FFB6C1" height="16.2969" style="stroke:transparent;stroke-width:1;" width="85.0801" x="17" y="142.7813"/><text fill="#000000" font-family="sans-serif" font-size="14" lengthAdjust="spacing" textLength="13.3506" x="17" y="155.7764">&#160;&#160;&#160;</text><text fill="#000000" font-family="sans-serif" font-size="14" lengthAdjust="spacing" textLength="113.292" x="106.5303" y="155.7764">IPC components</text><line style="stroke:#000000;stroke-width:1;" x1="17" x2="324.5625" y1="61.2969" y2="61.2969"/><line style="stroke:#000000;stroke-width:1;" x1="17" x2="324.5625" y1="77.5938" y2="77.5938"/><line style="stroke:#000000;stroke-width:1;" x1="17" x2="324.5625" y1="93.8906" y2="93.8906"/><line style="stroke:#000000;stroke-width:1;" x1="17" x2="324.5625" y1="110.1875" y2="110.1875"/><line style="stroke:#000000;stroke-width:1;" x1="17" x2="324.5625" y1="126.4844" y2="126.4844"/><line style="stroke:#000000;stroke-width:1;" x1="17" x2="324.5625" y1="142.7813" y2="142.7813"/><line style="stroke:#000000;stroke-width:1;" x1="17" x2="324.5625" y1="159.0781" y2="159.0781"/><line style="stroke:#000000;stroke-width:1;" x1="17" x2="17" y1="61.2969" y2="159.0781"/><line style="stroke:#000000;stroke-width:1;" x1="102.0801" x2="102.0801" y1="61.2969" y2="159.0781"/><line style="stroke:#000000;stroke-width:1;" x1="324.5625" x2="324.5625" y1="61.2969" y2="159.0781"/><!--SRC=[rLN1Rjim3BthAuZiqW8hq7FG15ZR3Hkmei5MR8Tj26YPJeJ8aYlBwGhquqVAJcmtoNQUBeafFf7lFLgE9bg26-zYyFQ3zK-tPcjo2bEuG-FWkm-RWgDAhJaAXVSnyx-LmYPwrvGP1PXS5Om6xQqFiq3v_2gR_xYy_3LHojAAN0xHLs2fY0fulSou6gT2j_ZvbceTJ1MDTt2mNbhKrPlFPhMEDy_evl8C3wQaMwIICIL98_LHr08jFJJXiV6cfZdZxgYkSKNNmMye_BNMjMsehNKept4KRfakXNbwXcyKJ64q2gyxr6lZw6IjXN6RjjQdnGrhMLRUaOlreHfSePLLgGf3DDfKoF9FZbIR0DQmBM7Vs1WnKYBbPgqeOz76e4Cf4b8NEVIgZI7CQD5arjJhBjbK6dhQIiru130Yl0l1RD72RAOKjtqntpKqXQezu6p2-oR7IFcoYjMI_-7aBSZFkK8T6Hw9AVV_snDKTn0VAPrEuTvrxCzUONbRASdPfrutHS5GoGDq-K_dV3J5Cn1h6Y6k0s6kE4OGX5AoDT5vRAYX78nB8Ms2RYm6oD9vuYC8ggks9wjo6ZMpwvmJcDTWyp2TzqNBzwcnHV2QAHgtIdfQpozXrSO0hUtQuFw4MDlXaFMzIyUSdQUjKKSIwFc2B_PHMOj13ToYiPZn1ID5flkS2rXmDqNmvKwDVkThz85aIYpMCHcy7EBQEU0h1Uecasj3tloKq0iw8FDwW9QQ-yfGRvQTyIDsdQGIwmT6fdKAdUc3ecmirCIJBiXk34QdCJ05v821ln8QcBRB6lYya_FGx5THIKmt0Rikzw5l8dpa6RKxrz56C0Kt3uwUkX6MbupgOuvtHvpo_D-IzfQT5lRqv7oXxiHaFMoSVtBzTCfYrql-AaNvCaLJ2aljNMtgI4u_ZwVWlpFn3m00]--></g></svg>