<svg xmlns="http://www.w3.org/2000/svg" xmlns:xlink="http://www.w3.org/1999/xlink" contentStyleType="text/css" data-diagram-type="SEQUENCE" height="902px" preserveAspectRatio="none" style="width:777px;height:902px;background:#FFFFFF;" version="1.1" viewBox="0 0 777 902" width="777px" zoomAndPan="magnify"><title>PTPMachine: Initialization Sequence</title><defs/><g><text fill="#000000" font-family="sans-serif" font-size="14" font-weight="bold" lengthAdjust="spacing" textLength="287.3281" x="241.3049" y="27.9951">PTPMachine: Initialization Sequence</text><g><title>TimeBaseHandler</title><rect fill="#FFFFFF" height="122.8594" style="stroke:#181818;stroke-width:1;" width="10" x="68.9541" y="262.0469"/></g><g><title>TimeBaseHandler</title><rect fill="#FFFFFF" height="108.5313" style="stroke:#181818;stroke-width:1;" width="10" x="68.9541" y="457.1719"/></g><g><title>TimeBaseHandler</title><rect fill="#FFFFFF" height="87.3984" style="stroke:#181818;stroke-width:1;" width="10" x="68.9541" y="637.9688"/></g><g><title>TimeBaseHandler</title><rect fill="#FFFFFF" height="79.3984" style="stroke:#181818;stroke-width:1;" width="10" x="68.9541" y="797.6328"/></g><g><title>PTPMachine</title><rect fill="#FFFFFF" height="122.8594" style="stroke:#181818;stroke-width:1;" width="10" x="322.3379" y="262.0469"/></g><g><title>PTPMachine</title><rect fill="#FFFFFF" height="108.5313" style="stroke:#181818;stroke-width:1;" width="10" x="322.3379" y="457.1719"/></g><g><title>PTPMachine</title><rect fill="#FFFFFF" height="29.1328" style="stroke:#181818;stroke-width:1;" width="10" x="322.3379" y="667.1016"/></g><g><title>PTPMachine</title><rect fill="#FFFFFF" height="79.3984" style="stroke:#181818;stroke-width:1;" width="10" x="322.3379" y="797.6328"/></g><g><title>PTPEngine</title><rect fill="#FFFFFF" height="39.6992" style="stroke:#181818;stroke-width:1;" width="10" x="546.7949" y="496.8711"/></g><g><title>MessageBroker</title><rect fill="#FFFFFF" height="87.3984" style="stroke:#181818;stroke-width:1;" width="10" x="661.3848" y="637.9688"/></g><g><title>TimeBaseHandler</title><rect fill="transparent" height="717.25" width="8" x="69.9541" y="177.7813"/><line style="stroke:#181818;stroke-width:0.5;stroke-dasharray:5.0,5.0;" x1="73" x2="73" y1="177.7813" y2="895.0313"/></g><g><title>PTPMachine</title><rect fill="transparent" height="633.4688" width="8" x="323.3379" y="261.5625"/><line style="stroke:#181818;stroke-width:0.5;stroke-dasharray:5.0,5.0;" x1="327.3174" x2="327.3174" y1="261.5625" y2="895.0313"/></g><g><title>PTPEngine</title><rect fill="transparent" height="592.1719" width="8" x="547.7949" y="302.8594"/><line style="stroke:#181818;stroke-width:0.5;stroke-dasharray:5.0,5.0;" x1="551.0859" x2="551.0859" y1="302.8594" y2="895.0313"/></g><g><title>MessageBroker</title><rect fill="transparent" height="717.25" width="8" x="662.3848" y="177.7813"/><line style="stroke:#181818;stroke-width:0.5;stroke-dasharray:5.0,5.0;" x1="665.5039" x2="665.5039" y1="177.7813" y2="895.0313"/></g><rect fill="#E0FFFF" height="30.2969" rx="2.5" ry="2.5" style="stroke:#181818;stroke-width:0.5;" width="137.9082" x="5" y="146.4844"/><text fill="#000000" font-family="sans-serif" font-size="14" lengthAdjust="spacing" textLength="123.9082" x="12" y="166.4795">TimeBaseHandler</text><rect fill="#AFEEEE" height="30.2969" rx="2.5" ry="2.5" style="stroke:#181818;stroke-width:0.5;" width="121.7617" x="605.5039" y="146.4844"/><text fill="#000000" font-family="sans-serif" font-size="14" lengthAdjust="spacing" textLength="107.7617" x="612.5039" y="166.4795">MessageBroker</text><g><title>TimeBaseHandler</title><rect fill="#FFFFFF" height="122.8594" style="stroke:#181818;stroke-width:1;" width="10" x="68.9541" y="262.0469"/></g><g><title>TimeBaseHandler</title><rect fill="#FFFFFF" height="108.5313" style="stroke:#181818;stroke-width:1;" width="10" x="68.9541" y="457.1719"/></g><g><title>TimeBaseHandler</title><rect fill="#FFFFFF" height="87.3984" style="stroke:#181818;stroke-width:1;" width="10" x="68.9541" y="637.9688"/></g><g><title>TimeBaseHandler</title><rect fill="#FFFFFF" height="79.3984" style="stroke:#181818;stroke-width:1;" width="10" x="68.9541" y="797.6328"/></g><g><title>PTPMachine</title><rect fill="#FFFFFF" height="122.8594" style="stroke:#181818;stroke-width:1;" width="10" x="322.3379" y="262.0469"/></g><g><title>PTPMachine</title><rect fill="#FFFFFF" height="108.5313" style="stroke:#181818;stroke-width:1;" width="10" x="322.3379" y="457.1719"/></g><g><title>PTPMachine</title><rect fill="#FFFFFF" height="29.1328" style="stroke:#181818;stroke-width:1;" width="10" x="322.3379" y="667.1016"/></g><g><title>PTPMachine</title><rect fill="#FFFFFF" height="79.3984" style="stroke:#181818;stroke-width:1;" width="10" x="322.3379" y="797.6328"/></g><g><title>PTPEngine</title><rect fill="#FFFFFF" height="39.6992" style="stroke:#181818;stroke-width:1;" width="10" x="546.7949" y="496.8711"/></g><g><title>MessageBroker</title><rect fill="#FFFFFF" height="87.3984" style="stroke:#181818;stroke-width:1;" width="10" x="661.3848" y="637.9688"/></g><rect fill="#EEEEEE" height="3" style="stroke:#EEEEEE;stroke-width:1;" width="770.938" x="0" y="208.3477"/><line style="stroke:#000000;stroke-width:1;" x1="0" x2="770.938" y1="208.3477" y2="208.3477"/><line style="stroke:#000000;stroke-width:1;" x1="0" x2="770.938" y1="211.3477" y2="211.3477"/><rect fill="#EEEEEE" height="23.1328" style="stroke:#000000;stroke-width:2;" width="206.0801" x="282.429" y="197.7813"/><text fill="#000000" font-family="sans-serif" font-size="13" font-weight="bold" lengthAdjust="spacing" textLength="187.5542" x="288.429" y="213.8481">PTPMachine Construction</text><polygon fill="#181818" points="266.3174,248.0469,276.3174,252.0469,266.3174,256.0469,270.3174,252.0469" style="stroke:#181818;stroke-width:1;"/><line style="stroke:#181818;stroke-width:1;" x1="73.9541" x2="272.3174" y1="252.0469" y2="252.0469"/><text fill="#FF0000" font-family="sans-serif" font-size="13" font-weight="bold" lengthAdjust="spacing" textLength="29.9736" x="80.9541" y="246.981">[01]</text><text fill="#000000" font-family="sans-serif" font-size="13" lengthAdjust="spacing" textLength="146.3896" x="114.9277" y="246.981">create(name, interval)</text><rect fill="#F5DEB3" height="30.2969" rx="2.5" ry="2.5" style="stroke:#181818;stroke-width:0.5;" width="98.041" x="278.3174" y="230.9141"/><text fill="#000000" font-family="sans-serif" font-size="14" lengthAdjust="spacing" textLength="84.041" x="285.3174" y="250.9092">PTPMachine</text><polygon fill="#181818" points="496.0859,289.3438,506.0859,293.3438,496.0859,297.3438,500.0859,293.3438" style="stroke:#181818;stroke-width:1;"/><line style="stroke:#181818;stroke-width:1;" x1="332.3379" x2="502.0859" y1="293.3438" y2="293.3438"/><text fill="#FF0000" font-family="sans-serif" font-size="13" font-weight="bold" lengthAdjust="spacing" textLength="29.9736" x="339.3379" y="288.2778">[02]</text><text fill="#000000" font-family="sans-serif" font-size="13" lengthAdjust="spacing" textLength="117.7744" x="373.3115" y="288.2778">create PTP engine</text><rect fill="#F5DEB3" height="30.2969" rx="2.5" ry="2.5" style="stroke:#181818;stroke-width:0.5;" width="87.418" x="508.0859" y="272.2109"/><text fill="#000000" font-family="sans-serif" font-size="14" lengthAdjust="spacing" textLength="73.418" x="515.0859" y="292.2061">PTPEngine</text><path d="M556,318.5078 L556,358.5078 L765,358.5078 L765,328.5078 L755,318.5078 L556,318.5078 " fill="#FEFFDD" style="stroke:#181818;stroke-width:0.5;"/><path d="M755,318.5078 L755,328.5078 L765,328.5078 L755,318.5078 " fill="#FEFFDD" style="stroke:#181818;stroke-width:0.5;"/><text fill="#000000" font-family="sans-serif" font-size="13" lengthAdjust="spacing" textLength="164.9883" x="562" y="335.5747">Initialize engine interface</text><text fill="#000000" font-family="sans-serif" font-size="13" lengthAdjust="spacing" textLength="188.938" x="562" y="350.7075">for PTP stack communication</text><polygon fill="#181818" points="84.9541,380.9063,74.9541,384.9063,84.9541,388.9063,80.9541,384.9063" style="stroke:#181818;stroke-width:1;"/><line style="stroke:#181818;stroke-width:1;stroke-dasharray:2.0,2.0;" x1="78.9541" x2="326.3379" y1="384.9063" y2="384.9063"/><text fill="#FF0000" font-family="sans-serif" font-size="13" font-weight="bold" lengthAdjust="spacing" textLength="29.9736" x="90.9541" y="379.8403">[03]</text><text fill="#000000" font-family="sans-serif" font-size="13" lengthAdjust="spacing" textLength="4.1323" x="124.9277" y="379.8403">&#160;</text><rect fill="#EEEEEE" height="3" style="stroke:#EEEEEE;stroke-width:1;" width="770.938" x="0" y="413.4727"/><line style="stroke:#000000;stroke-width:1;" x1="0" x2="770.938" y1="413.4727" y2="413.4727"/><line style="stroke:#000000;stroke-width:1;" x1="0" x2="770.938" y1="416.4727" y2="416.4727"/><rect fill="#EEEEEE" height="23.1328" style="stroke:#000000;stroke-width:2;" width="204.271" x="283.3335" y="402.9063"/><text fill="#000000" font-family="sans-serif" font-size="13" font-weight="bold" lengthAdjust="spacing" textLength="185.7451" x="289.3335" y="418.9731">PTPMachine Initialization</text><polygon fill="#181818" points="310.3379,453.1719,320.3379,457.1719,310.3379,461.1719,314.3379,457.1719" style="stroke:#181818;stroke-width:1;"/><line style="stroke:#181818;stroke-width:1;" x1="78.9541" x2="316.3379" y1="457.1719" y2="457.1719"/><text fill="#FF0000" font-family="sans-serif" font-size="13" font-weight="bold" lengthAdjust="spacing" textLength="29.9736" x="85.9541" y="452.106">[04]</text><text fill="#000000" font-family="sans-serif" font-size="13" lengthAdjust="spacing" textLength="30.9258" x="119.9277" y="452.106">Init()</text><polygon fill="#181818" points="534.7949,492.8711,544.7949,496.8711,534.7949,500.8711,538.7949,496.8711" style="stroke:#181818;stroke-width:1;"/><line style="stroke:#181818;stroke-width:1;" x1="332.3379" x2="540.7949" y1="496.8711" y2="496.8711"/><text fill="#FF0000" font-family="sans-serif" font-size="13" font-weight="bold" lengthAdjust="spacing" textLength="29.9736" x="339.3379" y="491.8052">[05]</text><text fill="#000000" font-family="sans-serif" font-size="13" lengthAdjust="spacing" textLength="64.5493" x="373.3115" y="491.8052">Initialize()</text><path d="M561,470.1719 L561,510.1719 L716,510.1719 L716,480.1719 L706,470.1719 L561,470.1719 " fill="#FEFFDD" style="stroke:#181818;stroke-width:0.5;"/><path d="M706,470.1719 L706,480.1719 L716,480.1719 L706,470.1719 " fill="#FEFFDD" style="stroke:#181818;stroke-width:0.5;"/><text fill="#000000" font-family="sans-serif" font-size="13" lengthAdjust="spacing" textLength="134.2974" x="567" y="487.2388">Establish connection</text><text fill="#000000" font-family="sans-serif" font-size="13" lengthAdjust="spacing" textLength="98.0078" x="567" y="502.3716">to PTP daemon</text><polygon fill="#181818" points="343.3379,532.5703,333.3379,536.5703,343.3379,540.5703,339.3379,536.5703" style="stroke:#181818;stroke-width:1;"/><line style="stroke:#181818;stroke-width:1;stroke-dasharray:2.0,2.0;" x1="337.3379" x2="550.7949" y1="536.5703" y2="536.5703"/><text fill="#FF0000" font-family="sans-serif" font-size="13" font-weight="bold" lengthAdjust="spacing" textLength="29.9736" x="349.3379" y="531.5044">[06]</text><text fill="#000000" font-family="sans-serif" font-size="13" lengthAdjust="spacing" textLength="4.1323" x="383.3115" y="531.5044">&#160;</text><polygon fill="#181818" points="84.9541,561.7031,74.9541,565.7031,84.9541,569.7031,80.9541,565.7031" style="stroke:#181818;stroke-width:1;"/><line style="stroke:#181818;stroke-width:1;stroke-dasharray:2.0,2.0;" x1="78.9541" x2="326.3379" y1="565.7031" y2="565.7031"/><text fill="#FF0000" font-family="sans-serif" font-size="13" font-weight="bold" lengthAdjust="spacing" textLength="29.9736" x="90.9541" y="560.6372">[07]</text><text fill="#000000" font-family="sans-serif" font-size="13" lengthAdjust="spacing" textLength="4.1323" x="124.9277" y="560.6372">&#160;</text><rect fill="#EEEEEE" height="3" style="stroke:#EEEEEE;stroke-width:1;" width="770.938" x="0" y="594.2695"/><line style="stroke:#000000;stroke-width:1;" x1="0" x2="770.938" y1="594.2695" y2="594.2695"/><line style="stroke:#000000;stroke-width:1;" x1="0" x2="770.938" y1="597.2695" y2="597.2695"/><rect fill="#EEEEEE" height="23.1328" style="stroke:#000000;stroke-width:2;" width="132.3711" x="319.2834" y="583.7031"/><text fill="#000000" font-family="sans-serif" font-size="13" font-weight="bold" lengthAdjust="spacing" textLength="113.8452" x="325.2834" y="599.77">Setup Producer</text><polygon fill="#181818" points="649.3848,633.9688,659.3848,637.9688,649.3848,641.9688,653.3848,637.9688" style="stroke:#181818;stroke-width:1;"/><line style="stroke:#181818;stroke-width:1;" x1="78.9541" x2="655.3848" y1="637.9688" y2="637.9688"/><text fill="#FF0000" font-family="sans-serif" font-size="13" font-weight="bold" lengthAdjust="spacing" textLength="29.9736" x="85.9541" y="632.9028">[08]</text><text fill="#000000" font-family="sans-serif" font-size="13" lengthAdjust="spacing" textLength="273.584" x="119.9277" y="632.9028">AddProducer("in_ptp_data", ptp_machine)</text><polygon fill="#181818" points="343.3379,663.1016,333.3379,667.1016,343.3379,671.1016,339.3379,667.1016" style="stroke:#181818;stroke-width:1;"/><line style="stroke:#181818;stroke-width:1;" x1="337.3379" x2="660.3848" y1="667.1016" y2="667.1016"/><text fill="#FF0000" font-family="sans-serif" font-size="13" font-weight="bold" lengthAdjust="spacing" textLength="29.9736" x="349.3379" y="662.0356">[09]</text><text fill="#000000" font-family="sans-serif" font-size="13" lengthAdjust="spacing" textLength="262.2661" x="383.3115" y="662.0356">SetPublishCallback(broker::OnNewData)</text><polygon fill="#181818" points="649.3848,692.2344,659.3848,696.2344,649.3848,700.2344,653.3848,696.2344" style="stroke:#181818;stroke-width:1;"/><line style="stroke:#181818;stroke-width:1;stroke-dasharray:2.0,2.0;" x1="327.3379" x2="655.3848" y1="696.2344" y2="696.2344"/><text fill="#FF0000" font-family="sans-serif" font-size="13" font-weight="bold" lengthAdjust="spacing" textLength="29.9736" x="334.3379" y="691.1685">[10]</text><text fill="#000000" font-family="sans-serif" font-size="13" lengthAdjust="spacing" textLength="4.1323" x="368.3115" y="691.1685">&#160;</text><polygon fill="#181818" points="84.9541,721.3672,74.9541,725.3672,84.9541,729.3672,80.9541,725.3672" style="stroke:#181818;stroke-width:1;"/><line style="stroke:#181818;stroke-width:1;stroke-dasharray:2.0,2.0;" x1="78.9541" x2="665.3848" y1="725.3672" y2="725.3672"/><text fill="#FF0000" font-family="sans-serif" font-size="13" font-weight="bold" lengthAdjust="spacing" textLength="29.9736" x="90.9541" y="720.3013">[11]</text><text fill="#000000" font-family="sans-serif" font-size="13" lengthAdjust="spacing" textLength="4.1323" x="124.9277" y="720.3013">&#160;</text><rect fill="#EEEEEE" height="3" style="stroke:#EEEEEE;stroke-width:1;" width="770.938" x="0" y="753.9336"/><line style="stroke:#000000;stroke-width:1;" x1="0" x2="770.938" y1="753.9336" y2="753.9336"/><line style="stroke:#000000;stroke-width:1;" x1="0" x2="770.938" y1="756.9336" y2="756.9336"/><rect fill="#EEEEEE" height="23.1328" style="stroke:#000000;stroke-width:2;" width="197.3774" x="286.7803" y="743.3672"/><text fill="#000000" font-family="sans-serif" font-size="13" font-weight="bold" lengthAdjust="spacing" textLength="178.8516" x="292.7803" y="759.4341">Start Periodic Operation</text><polygon fill="#181818" points="310.3379,793.6328,320.3379,797.6328,310.3379,801.6328,314.3379,797.6328" style="stroke:#181818;stroke-width:1;"/><line style="stroke:#181818;stroke-width:1;" x1="78.9541" x2="316.3379" y1="797.6328" y2="797.6328"/><text fill="#FF0000" font-family="sans-serif" font-size="13" font-weight="bold" lengthAdjust="spacing" textLength="29.9736" x="85.9541" y="792.5669">[12]</text><text fill="#000000" font-family="sans-serif" font-size="13" lengthAdjust="spacing" textLength="41.9009" x="119.9277" y="792.5669">Start()</text><line style="stroke:#181818;stroke-width:1;" x1="332.3379" x2="374.3379" y1="830.832" y2="830.832"/><line style="stroke:#181818;stroke-width:1;" x1="374.3379" x2="374.3379" y1="830.832" y2="843.832"/><line style="stroke:#181818;stroke-width:1;" x1="333.3379" x2="374.3379" y1="843.832" y2="843.832"/><polygon fill="#181818" points="343.3379,839.832,333.3379,843.832,343.3379,847.832,339.3379,843.832" style="stroke:#181818;stroke-width:1;"/><text fill="#FF0000" font-family="sans-serif" font-size="13" font-weight="bold" lengthAdjust="spacing" textLength="29.9736" x="339.3379" y="825.7661">[13]</text><text fill="#000000" font-family="sans-serif" font-size="13" lengthAdjust="spacing" textLength="135.0908" x="373.3115" y="825.7661">Start periodic thread</text><path d="M530.0645,810.6328 L530.0645,850.6328 L672.0645,850.6328 L672.0645,820.6328 L662.0645,810.6328 L530.0645,810.6328 " fill="#FEFFDD" style="stroke:#181818;stroke-width:0.5;"/><path d="M662.0645,810.6328 L662.0645,820.6328 L672.0645,820.6328 L662.0645,810.6328 " fill="#FEFFDD" style="stroke:#181818;stroke-width:0.5;"/><text fill="#000000" font-family="sans-serif" font-size="13" lengthAdjust="spacing" textLength="121.0752" x="536.0645" y="827.6997">Begin periodic PTP</text><text fill="#000000" font-family="sans-serif" font-size="13" lengthAdjust="spacing" textLength="88.0801" x="536.0645" y="842.8325">data retrieval</text><polygon fill="#181818" points="84.9541,873.0313,74.9541,877.0313,84.9541,881.0313,80.9541,877.0313" style="stroke:#181818;stroke-width:1;"/><line style="stroke:#181818;stroke-width:1;stroke-dasharray:2.0,2.0;" x1="78.9541" x2="326.3379" y1="877.0313" y2="877.0313"/><text fill="#FF0000" font-family="sans-serif" font-size="13" font-weight="bold" lengthAdjust="spacing" textLength="29.9736" x="90.9541" y="871.9653">[14]</text><text fill="#000000" font-family="sans-serif" font-size="13" lengthAdjust="spacing" textLength="4.1323" x="124.9277" y="871.9653">&#160;</text><rect fill="#DDDDDD" height="79.1875" id="_legend" rx="7.5" ry="7.5" style="stroke:#000000;stroke-width:1;" width="317.5625" x="12" y="54.2969"/><text fill="#000000" font-family="sans-serif" font-size="14" font-weight="bold" lengthAdjust="spacing" textLength="41.2139" x="21.874" y="74.292">Color</text><text fill="#000000" font-family="sans-serif" font-size="14" font-weight="bold" lengthAdjust="spacing" textLength="90.5488" x="106.9541" y="74.292">Description</text><rect fill="#E0FFFF" height="16.2969" style="stroke:transparent;stroke-width:1;" width="85.0801" x="17" y="77.5938"/><text fill="#000000" font-family="sans-serif" font-size="14" lengthAdjust="spacing" textLength="8.9004" x="17" y="90.5889">&#160;&#160;</text><text fill="#000000" font-family="sans-serif" font-size="14" lengthAdjust="spacing" textLength="164.6299" x="106.5303" y="90.5889">TimeDaemon members</text><rect fill="#AFEEEE" height="16.2969" style="stroke:transparent;stroke-width:1;" width="85.0801" x="17" y="93.8906"/><text fill="#000000" font-family="sans-serif" font-size="14" lengthAdjust="spacing" textLength="4.4502" x="17" y="106.8857">&#160;</text><text fill="#000000" font-family="sans-serif" font-size="14" lengthAdjust="spacing" textLength="107.7617" x="106.5303" y="106.8857">MessageBroker</text><rect fill="#F5DEB3" height="16.2969" style="stroke:transparent;stroke-width:1;" width="85.0801" x="17" y="110.1875"/><text fill="#000000" font-family="sans-serif" font-size="14" lengthAdjust="spacing" textLength="26.7012" x="17" y="123.1826">&#160;&#160;&#160;&#160;&#160;&#160;</text><text fill="#000000" font-family="sans-serif" font-size="14" lengthAdjust="spacing" textLength="81.4229" x="106.5303" y="123.1826">PtpMachine</text><line style="stroke:#000000;stroke-width:1;" x1="17" x2="324.5625" y1="61.2969" y2="61.2969"/><line style="stroke:#000000;stroke-width:1;" x1="17" x2="324.5625" y1="77.5938" y2="77.5938"/><line style="stroke:#000000;stroke-width:1;" x1="17" x2="324.5625" y1="93.8906" y2="93.8906"/><line style="stroke:#000000;stroke-width:1;" x1="17" x2="324.5625" y1="110.1875" y2="110.1875"/><line style="stroke:#000000;stroke-width:1;" x1="17" x2="324.5625" y1="126.4844" y2="126.4844"/><line style="stroke:#000000;stroke-width:1;" x1="17" x2="17" y1="61.2969" y2="126.4844"/><line style="stroke:#000000;stroke-width:1;" x1="102.0801" x2="102.0801" y1="61.2969" y2="126.4844"/><line style="stroke:#000000;stroke-width:1;" x1="324.5625" x2="324.5625" y1="61.2969" y2="126.4844"/><!--SRC=[hLHDRzim3BthLn3P9IrQeESWDh2a1JPWNGqqm0x34CWo7Gkr9LUMkm_qnu-IxKQEawr0gvD5aO-FZwIjj2L2iabkkIYamWLyLj9ANie_t4gju1uVMrG26IjaXf1hRLFzYp7UMgtQAaK3isMkbGMXIsqYWrcyJEFlLrS_PeoLk4ELWTKrb9XR1dIU8rWxL-WFtQ-n4KRMFk7aF7THiFpmHUuAk_xDLUpk6rdXDSUAOYfqH9hZKGalSTEQnrRB1cCotMBJy1skZ7v0SohNjmAvZNih9BRk1G8unf2Ax4fbhER6IY5hJfBC7CSLR_0JTmvc1hm1cswBxWhxYiPX-txuYDhMswfFtn6RkD-etU2D_lEeuwXoxvns8en5OYoAWfcWTgd6cbRu_aGHOq49b_68tlavB40OoenpnIky0AaicYTUdZ5E04_q42YmjmKWB0Ga_BwW0DgHwyrCQReRfoFeV32whhmCCWu8dahEHVUUqmWwdCPoyK3JMrMjai9FlUidEE0n5U8IKC_mAFd073WVA7gmPF_MjDl9-Pi537ORGxI9a5wU6z8bBMLJa3HAeM- -Vx3QovRvrTihrIUv79CFvUZplAUazsZR6XAZirQGS5CT-_bUmCSi6zpcCwcs3Z_ZbiykmbJ_qRX3Optef4t49cczPcjUbYcDrRnpNIpkr5VyUKtvpbxHiHVUfmGP29nKRnf-A9ob_m8aQAJEf82x6ithHj47lc4MZw11FT2m1QrtTZY9AwIvsJlHy7cpwnuOj4OY_LxUVsN_0W00]--></g></svg>