<svg xmlns="http://www.w3.org/2000/svg" xmlns:xlink="http://www.w3.org/1999/xlink" contentStyleType="text/css" data-diagram-type="CLASS" height="1130px" preserveAspectRatio="none" style="width:2065px;height:1130px;background:#FFFFFF;" version="1.1" viewBox="0 0 2065 1130" width="2065px" zoomAndPan="magnify"><title>TimeSlave Class Diagram</title><defs/><g><text fill="#000000" font-family="Verdana" font-size="22" font-weight="bold" lengthAdjust="spacing" textLength="312.9414" x="871.5293" y="35.4209">TimeSlave Class Diagram</text><rect fill="transparent" height="128.0781" id="_legend" rx="7.5" ry="7.5" style="stroke:#000000;stroke-width:1;" width="290.6016" x="10" y="56.6094"/><text fill="#000000" font-family="Verdana" font-size="14" font-weight="bold" lengthAdjust="spacing" textLength="41.2139" x="19.874" y="76.6045">Color</text><text fill="#000000" font-family="Verdana" font-size="14" font-weight="bold" lengthAdjust="spacing" textLength="90.5488" x="114.7021" y="76.6045">Description</text><rect fill="#E0FFFF" height="16.2969" style="stroke:transparent;stroke-width:1;" width="94.8281" x="15" y="79.9063"/><text fill="#000000" font-family="Verdana" font-size="14" lengthAdjust="spacing" textLength="17.8008" x="15" y="92.9014">&#160;&#160;&#160;&#160;</text><text fill="#000000" font-family="Verdana" font-size="14" lengthAdjust="spacing" textLength="154.6221" x="114.2783" y="92.9014">TimeSlave application</text><rect fill="#FFA07A" height="16.2969" style="stroke:transparent;stroke-width:1;" width="94.8281" x="15" y="96.2031"/><text fill="#000000" font-family="Verdana" font-size="14" lengthAdjust="spacing" textLength="8.9004" x="15" y="109.1982">&#160;&#160;</text><text fill="#000000" font-family="Verdana" font-size="14" lengthAdjust="spacing" textLength="121.8369" x="114.2783" y="109.1982">gPTP Engine core</text><rect fill="#F5DEB3" height="16.2969" style="stroke:transparent;stroke-width:1;" width="94.8281" x="15" y="112.5"/><text fill="#000000" font-family="Verdana" font-size="14" lengthAdjust="spacing" textLength="35.6016" x="15" y="125.4951">&#160;&#160;&#160;&#160;&#160;&#160;&#160;&#160;</text><text fill="#000000" font-family="Verdana" font-size="14" lengthAdjust="spacing" textLength="137.1768" x="114.2783" y="125.4951">Protocol processing</text><rect fill="#E6E6FA" height="16.2969" style="stroke:transparent;stroke-width:1;" width="94.8281" x="15" y="128.7969"/><text fill="#000000" font-family="Verdana" font-size="14" lengthAdjust="spacing" textLength="22.251" x="15" y="141.792">&#160;&#160;&#160;&#160;&#160;</text><text fill="#000000" font-family="Verdana" font-size="14" lengthAdjust="spacing" textLength="112.8203" x="114.2783" y="141.792">PHC adjustment</text><rect fill="#FFB6C1" height="16.2969" style="stroke:transparent;stroke-width:1;" width="94.8281" x="15" y="145.0938"/><text fill="#000000" font-family="Verdana" font-size="14" lengthAdjust="spacing" textLength="17.8008" x="15" y="158.0889">&#160;&#160;&#160;&#160;</text><text fill="#000000" font-family="Verdana" font-size="14" lengthAdjust="spacing" textLength="113.292" x="114.2783" y="158.0889">IPC components</text><rect fill="#F5F5DC" height="16.2969" style="stroke:transparent;stroke-width:1;" width="94.8281" x="15" y="161.3906"/><text fill="#000000" font-family="Verdana" font-size="14" lengthAdjust="spacing" textLength="35.6016" x="15" y="174.3857">&#160;&#160;&#160;&#160;&#160;&#160;&#160;&#160;</text><text fill="#000000" font-family="Verdana" font-size="14" lengthAdjust="spacing" textLength="109.0127" x="114.2783" y="174.3857">Data structures</text><line style="stroke:#000000;stroke-width:1;" x1="15" x2="295.6016" y1="63.6094" y2="63.6094"/><line style="stroke:#000000;stroke-width:1;" x1="15" x2="295.6016" y1="79.9063" y2="79.9063"/><line style="stroke:#000000;stroke-width:1;" x1="15" x2="295.6016" y1="96.2031" y2="96.2031"/><line style="stroke:#000000;stroke-width:1;" x1="15" x2="295.6016" y1="112.5" y2="112.5"/><line style="stroke:#000000;stroke-width:1;" x1="15" x2="295.6016" y1="128.7969" y2="128.7969"/><line style="stroke:#000000;stroke-width:1;" x1="15" x2="295.6016" y1="145.0938" y2="145.0938"/><line style="stroke:#000000;stroke-width:1;" x1="15" x2="295.6016" y1="161.3906" y2="161.3906"/><line style="stroke:#000000;stroke-width:1;" x1="15" x2="295.6016" y1="177.6875" y2="177.6875"/><line style="stroke:#000000;stroke-width:1;" x1="15" x2="15" y1="63.6094" y2="177.6875"/><line style="stroke:#000000;stroke-width:1;" x1="109.8281" x2="109.8281" y1="63.6094" y2="177.6875"/><line style="stroke:#000000;stroke-width:1;" x1="295.6016" x2="295.6016" y1="63.6094" y2="177.6875"/><!--cluster score::ts--><g id="cluster_score::ts"><path d="M227.5,196.6875 L297.3721,196.6875 A3.75,3.75 0 0 1 299.8721,199.1875 L306.8721,218.9844 L582.5,218.9844 A2.5,2.5 0 0 1 585,221.4844 L585,370.1875 A2.5,2.5 0 0 1 582.5,372.6875 L227.5,372.6875 A2.5,2.5 0 0 1 225,370.1875 L225,199.1875 A2.5,2.5 0 0 1 227.5,196.6875 " fill="#FFFFFF" style="stroke:#000000;stroke-width:1;"/><line style="stroke:#000000;stroke-width:1;" x1="225" x2="306.8721" y1="218.9844" y2="218.9844"/><text fill="#000000" font-family="Verdana" font-size="14" font-weight="bold" lengthAdjust="spacing" textLength="68.8721" x="229" y="211.6826">score::ts</text></g><!--cluster score::ts::details--><g id="cluster_score::ts::details"><path d="M13.5,396.6875 L148.1563,396.6875 A3.75,3.75 0 0 1 150.6563,399.1875 L157.6563,418.9844 L2055.5,418.9844 A2.5,2.5 0 0 1 2058,421.4844 L2058,1121.1875 A2.5,2.5 0 0 1 2055.5,1123.6875 L13.5,1123.6875 A2.5,2.5 0 0 1 11,1121.1875 L11,399.1875 A2.5,2.5 0 0 1 13.5,396.6875 " fill="#FFFFFF" style="stroke:#000000;stroke-width:1;"/><line style="stroke:#000000;stroke-width:1;" x1="11" x2="157.6563" y1="418.9844" y2="418.9844"/><text fill="#000000" font-family="Verdana" font-size="14" font-weight="bold" lengthAdjust="spacing" textLength="133.6563" x="15" y="411.6826">score::ts::details</text></g><!--class TimeSlave--><g id="elem_TimeSlave"><rect codeLine="17" fill="#E0FFFF" height="125.4844" id="TimeSlave" rx="2.5" ry="2.5" style="stroke:#000000;stroke-width:1;" width="329.1357" x="240.5" y="231.6875"/><ellipse cx="364.8447" cy="245.6875" fill="#FFFFFF" rx="9" ry="9" style="stroke:#000000;stroke-width:1;"/><path d="M367.8135,251.3281 Q367.2354,251.625 366.5947,251.7656 Q365.9541,251.9219 365.251,251.9219 Q362.751,251.9219 361.4229,250.2813 Q360.1104,248.625 360.1104,245.5 Q360.1104,242.375 361.4229,240.7188 Q362.751,239.0625 365.251,239.0625 Q365.9541,239.0625 366.5947,239.2188 Q367.251,239.375 367.8135,239.6719 L367.8135,242.3906 Q367.1885,241.8125 366.5947,241.5469 Q366.001,241.2656 365.376,241.2656 Q364.0322,241.2656 363.3447,242.3438 Q362.6572,243.4063 362.6572,245.5 Q362.6572,247.5938 363.3447,248.6719 Q364.0322,249.7344 365.376,249.7344 Q366.001,249.7344 366.5947,249.4688 Q367.1885,249.1875 367.8135,248.6094 L367.8135,251.3281 Z " fill="#000000"/><text fill="#000000" font-family="Verdana" font-size="14" lengthAdjust="spacing" textLength="72.9463" x="382.3447" y="250.5342">TimeSlave</text><line style="stroke:#000000;stroke-width:1;" x1="241.5" x2="568.6357" y1="259.6875" y2="259.6875"/><rect fill="transparent" height="6" style="stroke:#000000;stroke-width:1;" width="6" x="248.5" y="270.3359"/><text fill="#000000" font-family="Verdana" font-size="14" lengthAdjust="spacing" textLength="243.0381" x="258.5" y="276.6826">opts_ : details::GptpEngineOptions</text><rect fill="transparent" height="6" style="stroke:#000000;stroke-width:1;" width="6" x="248.5" y="286.6328"/><text fill="#000000" font-family="Verdana" font-size="14" lengthAdjust="spacing" textLength="305.1357" x="258.5" y="292.9795">engine_ : unique_ptr&lt;details::GptpEngine&gt;</text><rect fill="transparent" height="6" style="stroke:#000000;stroke-width:1;" width="6" x="248.5" y="302.9297"/><text fill="#000000" font-family="Verdana" font-size="14" lengthAdjust="spacing" textLength="260.9961" x="258.5" y="309.2764">publisher_ : details::GptpIpcPublisher</text><line style="stroke:#000000;stroke-width:1;" x1="241.5" x2="568.6357" y1="316.5781" y2="316.5781"/><ellipse cx="251.5" cy="330.2266" fill="#FFFFFF" rx="3" ry="3" style="stroke:#000000;stroke-width:1;"/><text fill="#000000" font-family="Verdana" font-size="14" lengthAdjust="spacing" textLength="153.1592" x="258.5" y="333.5732">Initialize(ctx) : int32_t</text><ellipse cx="251.5" cy="346.5234" fill="#FFFFFF" rx="3" ry="3" style="stroke:#000000;stroke-width:1;"/><text fill="#000000" font-family="Verdana" font-size="14" lengthAdjust="spacing" textLength="177.4541" x="258.5" y="349.8701">Run(stop_token) : int32_t</text></g><!--class GptpEngine--><g id="elem_GptpEngine"><rect codeLine="29" fill="#FFA07A" height="321.0469" id="GptpEngine" rx="2.5" ry="2.5" style="stroke:#000000;stroke-width:1;" width="349.459" x="818.5" y="431.6875"/><ellipse cx="948.4331" cy="445.6875" fill="#FFFFFF" rx="9" ry="9" style="stroke:#000000;stroke-width:1;"/><path d="M951.4019,451.3281 Q950.8237,451.625 950.1831,451.7656 Q949.5425,451.9219 948.8394,451.9219 Q946.3394,451.9219 945.0112,450.2813 Q943.6987,448.625 943.6987,445.5 Q943.6987,442.375 945.0112,440.7188 Q946.3394,439.0625 948.8394,439.0625 Q949.5425,439.0625 950.1831,439.2188 Q950.8394,439.375 951.4019,439.6719 L951.4019,442.3906 Q950.7769,441.8125 950.1831,441.5469 Q949.5894,441.2656 948.9644,441.2656 Q947.6206,441.2656 946.9331,442.3438 Q946.2456,443.4063 946.2456,445.5 Q946.2456,447.5938 946.9331,448.6719 Q947.6206,449.7344 948.9644,449.7344 Q949.5894,449.7344 950.1831,449.4688 Q950.7769,449.1875 951.4019,448.6094 L951.4019,451.3281 Z " fill="#000000"/><text fill="#000000" font-family="Verdana" font-size="14" lengthAdjust="spacing" textLength="82.0928" x="965.9331" y="450.5342">GptpEngine</text><line style="stroke:#000000;stroke-width:1;" x1="819.5" x2="1166.959" y1="459.6875" y2="459.6875"/><rect fill="transparent" height="6" style="stroke:#000000;stroke-width:1;" width="6" x="826.5" y="470.3359"/><text fill="#000000" font-family="Verdana" font-size="14" lengthAdjust="spacing" textLength="186.9629" x="836.5" y="476.6826">opts_ : GptpEngineOptions</text><rect fill="transparent" height="6" style="stroke:#000000;stroke-width:1;" width="6" x="826.5" y="486.6328"/><text fill="#000000" font-family="Verdana" font-size="14" lengthAdjust="spacing" textLength="165.1563" x="836.5" y="492.9795">rx_thread_ : std::thread</text><rect fill="transparent" height="6" style="stroke:#000000;stroke-width:1;" width="6" x="826.5" y="502.9297"/><text fill="#000000" font-family="Verdana" font-size="14" lengthAdjust="spacing" textLength="198.2559" x="836.5" y="509.2764">pdelay_thread_ : std::thread</text><rect fill="transparent" height="6" style="stroke:#000000;stroke-width:1;" width="6" x="826.5" y="519.2266"/><text fill="#000000" font-family="Verdana" font-size="14" lengthAdjust="spacing" textLength="210.1025" x="836.5" y="525.5732">sync_sm_ : SyncStateMachine</text><rect fill="transparent" height="6" style="stroke:#000000;stroke-width:1;" width="6" x="826.5" y="535.5234"/><text fill="#000000" font-family="Verdana" font-size="14" lengthAdjust="spacing" textLength="303.4951" x="836.5" y="541.8701">pdelay_ : unique_ptr&lt;PeerDelayMeasurer&gt;</text><rect fill="transparent" height="6" style="stroke:#000000;stroke-width:1;" width="6" x="826.5" y="551.8203"/><text fill="#000000" font-family="Verdana" font-size="14" lengthAdjust="spacing" textLength="129.4658" x="836.5" y="558.167">phc_ : PhcAdjuster</text><rect fill="transparent" height="6" style="stroke:#000000;stroke-width:1;" width="6" x="826.5" y="568.1172"/><text fill="#000000" font-family="Verdana" font-size="14" lengthAdjust="spacing" textLength="242.1016" x="836.5" y="574.4639">socket_ : unique_ptr&lt;RawSocket&gt;</text><rect fill="transparent" height="6" style="stroke:#000000;stroke-width:1;" width="6" x="826.5" y="584.4141"/><text fill="#000000" font-family="Verdana" font-size="14" lengthAdjust="spacing" textLength="284.7441" x="836.5" y="590.7607">identity_ : unique_ptr&lt;NetworkIdentity&gt;</text><rect fill="transparent" height="6" style="stroke:#000000;stroke-width:1;" width="6" x="826.5" y="600.7109"/><text fill="#000000" font-family="Verdana" font-size="14" lengthAdjust="spacing" textLength="150.2539" x="836.5" y="607.0576">codec_ : FrameCodec</text><rect fill="transparent" height="6" style="stroke:#000000;stroke-width:1;" width="6" x="826.5" y="617.0078"/><text fill="#000000" font-family="Verdana" font-size="14" lengthAdjust="spacing" textLength="205.4131" x="836.5" y="623.3545">parser_ : GptpMessageParser</text><rect fill="transparent" height="6" style="stroke:#000000;stroke-width:1;" width="6" x="826.5" y="633.3047"/><text fill="#000000" font-family="Verdana" font-size="14" lengthAdjust="spacing" textLength="212.3721" x="836.5" y="639.6514">snapshot_mutex_ : std::mutex</text><rect fill="transparent" height="6" style="stroke:#000000;stroke-width:1;" width="6" x="826.5" y="649.6016"/><text fill="#000000" font-family="Verdana" font-size="14" lengthAdjust="spacing" textLength="236.6328" x="836.5" y="655.9482">pending_snapshot_ : GptpIpcData</text><rect fill="transparent" height="6" style="stroke:#000000;stroke-width:1;" width="6" x="826.5" y="665.8984"/><text fill="#000000" font-family="Verdana" font-size="14" lengthAdjust="spacing" textLength="230.7813" x="836.5" y="672.2451">current_snapshot_ : GptpIpcData</text><line style="stroke:#000000;stroke-width:1;" x1="819.5" x2="1166.959" y1="679.5469" y2="679.5469"/><ellipse cx="829.5" cy="693.1953" fill="#FFFFFF" rx="3" ry="3" style="stroke:#000000;stroke-width:1;"/><text fill="#000000" font-family="Verdana" font-size="14" lengthAdjust="spacing" textLength="113.0391" x="836.5" y="696.542">Initialize() : bool</text><ellipse cx="829.5" cy="709.4922" fill="#FFFFFF" rx="3" ry="3" style="stroke:#000000;stroke-width:1;"/><text fill="#000000" font-family="Verdana" font-size="14" lengthAdjust="spacing" textLength="132.1934" x="836.5" y="712.8389">Deinitialize() : bool</text><ellipse cx="829.5" cy="725.7891" fill="#FFFFFF" rx="3" ry="3" style="stroke:#000000;stroke-width:1;"/><text fill="#000000" font-family="Verdana" font-size="14" lengthAdjust="spacing" textLength="172.751" x="836.5" y="729.1357">FinalizeSnapshot() : void</text><ellipse cx="829.5" cy="742.0859" fill="#FFFFFF" rx="3" ry="3" style="stroke:#000000;stroke-width:1;"/><text fill="#000000" font-family="Verdana" font-size="14" lengthAdjust="spacing" textLength="325.459" x="836.5" y="745.4326">ReadPTPSnapshot(data : GptpIpcData&amp;) : bool</text></g><!--class GptpEngineOptions--><g id="elem_GptpEngineOptions"><rect codeLine="49" fill="#F5F5DC" height="141.7813" id="GptpEngineOptions" rx="2.5" ry="2.5" style="stroke:#000000;stroke-width:1;" width="368.1963" x="1353" y="521.1875"/><ellipse cx="1465.293" cy="535.1875" fill="#FFFFFF" rx="9" ry="9" style="stroke:#000000;stroke-width:1;"/><path d="M1464.7773,535.75 Q1462.918,535.0469 1462.2617,534.2813 Q1461.6211,533.5 1461.6211,532.1875 Q1461.6211,530.5 1462.6992,529.5313 Q1463.7773,528.5625 1465.6523,528.5625 Q1466.5117,528.5625 1467.3555,528.7656 Q1468.2148,528.9531 1469.0586,529.3438 L1469.0586,531.7344 Q1468.2773,531.1719 1467.4492,530.8906 Q1466.6367,530.5938 1465.8398,530.5938 Q1464.9648,530.5938 1464.4805,530.9531 Q1464.0117,531.3125 1464.0117,531.9688 Q1464.0117,532.4844 1464.3555,532.8281 Q1464.6992,533.1563 1465.793,533.5625 L1466.8555,533.9688 Q1468.3398,534.5156 1469.043,535.4219 Q1469.7617,536.3281 1469.7617,537.7031 Q1469.7617,539.5781 1468.6523,540.5 Q1467.543,541.4219 1465.293,541.4219 Q1464.3711,541.4219 1463.4492,541.2031 Q1462.5273,540.9844 1461.668,540.5625 L1461.668,538.0313 Q1462.6367,538.7188 1463.5586,539.0625 Q1464.4805,539.4063 1465.3711,539.4063 Q1466.2773,539.4063 1466.7773,539 Q1467.2773,538.5781 1467.2773,537.8438 Q1467.2773,537.2813 1466.9336,536.875 Q1466.6055,536.4531 1465.9805,536.2031 L1464.7773,535.75 Z " fill="#000000"/><text fill="#000000" font-family="Verdana" font-size="14" lengthAdjust="spacing" textLength="136.1104" x="1482.793" y="540.0342">GptpEngineOptions</text><line style="stroke:#000000;stroke-width:1;" x1="1354" x2="1720.1963" y1="549.1875" y2="549.1875"/><ellipse cx="1364" cy="562.8359" fill="transparent" rx="3" ry="3" style="stroke:#000000;stroke-width:1;"/><text fill="#000000" font-family="Verdana" font-size="14" lengthAdjust="spacing" textLength="215.1611" x="1371" y="566.1826">iface_name : string = "emac0"</text><ellipse cx="1364" cy="579.1328" fill="transparent" rx="3" ry="3" style="stroke:#000000;stroke-width:1;"/><text fill="#000000" font-family="Verdana" font-size="14" lengthAdjust="spacing" textLength="223.5762" x="1371" y="582.4795">pdelay_interval_ms : int = 1000</text><ellipse cx="1364" cy="595.4297" fill="transparent" rx="3" ry="3" style="stroke:#000000;stroke-width:1;"/><text fill="#000000" font-family="Verdana" font-size="14" lengthAdjust="spacing" textLength="227.3838" x="1371" y="598.7764">pdelay_warmup_ms : int = 2000</text><ellipse cx="1364" cy="611.7266" fill="transparent" rx="3" ry="3" style="stroke:#000000;stroke-width:1;"/><text fill="#000000" font-family="Verdana" font-size="14" lengthAdjust="spacing" textLength="209.7676" x="1371" y="615.0732">sync_timeout_ms : int = 3300</text><ellipse cx="1364" cy="628.0234" fill="transparent" rx="3" ry="3" style="stroke:#000000;stroke-width:1;"/><text fill="#000000" font-family="Verdana" font-size="14" lengthAdjust="spacing" textLength="344.1963" x="1371" y="631.3701">jump_future_threshold_ns : int64_t = 500000000</text><ellipse cx="1364" cy="644.3203" fill="transparent" rx="3" ry="3" style="stroke:#000000;stroke-width:1;"/><text fill="#000000" font-family="Verdana" font-size="14" lengthAdjust="spacing" textLength="197.292" x="1371" y="647.667">phc_config : PhcConfig = {}</text><line style="stroke:#000000;stroke-width:1;" x1="1354" x2="1720.1963" y1="654.9688" y2="654.9688"/></g><!--class FrameCodec--><g id="elem_FrameCodec"><rect codeLine="58" fill="#F5DEB3" height="76.5938" id="FrameCodec" rx="2.5" ry="2.5" style="stroke:#000000;stroke-width:1;" width="464.2344" x="27" y="845.1875"/><ellipse cx="211.2788" cy="859.1875" fill="#FFFFFF" rx="9" ry="9" style="stroke:#000000;stroke-width:1;"/><path d="M214.2476,864.8281 Q213.6694,865.125 213.0288,865.2656 Q212.3882,865.4219 211.6851,865.4219 Q209.1851,865.4219 207.8569,863.7813 Q206.5444,862.125 206.5444,859 Q206.5444,855.875 207.8569,854.2188 Q209.1851,852.5625 211.6851,852.5625 Q212.3882,852.5625 213.0288,852.7188 Q213.6851,852.875 214.2476,853.1719 L214.2476,855.8906 Q213.6226,855.3125 213.0288,855.0469 Q212.4351,854.7656 211.8101,854.7656 Q210.4663,854.7656 209.7788,855.8438 Q209.0913,856.9063 209.0913,859 Q209.0913,861.0938 209.7788,862.1719 Q210.4663,863.2344 211.8101,863.2344 Q212.4351,863.2344 213.0288,862.9688 Q213.6226,862.6875 214.2476,862.1094 L214.2476,864.8281 Z " fill="#000000"/><text fill="#000000" font-family="Verdana" font-size="14" lengthAdjust="spacing" textLength="88.1768" x="228.7788" y="864.0342">FrameCodec</text><line style="stroke:#000000;stroke-width:1;" x1="28" x2="490.2344" y1="873.1875" y2="873.1875"/><line style="stroke:#000000;stroke-width:1;" x1="28" x2="490.2344" y1="881.1875" y2="881.1875"/><ellipse cx="38" cy="894.8359" fill="#FFFFFF" rx="3" ry="3" style="stroke:#000000;stroke-width:1;"/><text fill="#000000" font-family="Verdana" font-size="14" lengthAdjust="spacing" textLength="403.9492" x="45" y="898.1826">ParseEthernetHeader(frame, frame_len, ptp_offset) : bool</text><ellipse cx="38" cy="911.1328" fill="#FFFFFF" rx="3" ry="3" style="stroke:#000000;stroke-width:1;"/><text fill="#000000" font-family="Verdana" font-size="14" lengthAdjust="spacing" textLength="440.2344" x="45" y="914.4795">AddEthernetHeader(buf, buf_len, src_mac, buf_capacity) : bool</text></g><!--class GptpMessageParser--><g id="elem_GptpMessageParser"><rect codeLine="63" fill="#F5DEB3" height="60.2969" id="GptpMessageParser" rx="2.5" ry="2.5" style="stroke:#000000;stroke-width:1;" width="271.7275" x="526" y="853.6875"/><ellipse cx="588.1582" cy="867.6875" fill="#FFFFFF" rx="9" ry="9" style="stroke:#000000;stroke-width:1;"/><path d="M591.127,873.3281 Q590.5488,873.625 589.9082,873.7656 Q589.2676,873.9219 588.5645,873.9219 Q586.0645,873.9219 584.7363,872.2813 Q583.4238,870.625 583.4238,867.5 Q583.4238,864.375 584.7363,862.7188 Q586.0645,861.0625 588.5645,861.0625 Q589.2676,861.0625 589.9082,861.2188 Q590.5645,861.375 591.127,861.6719 L591.127,864.3906 Q590.502,863.8125 589.9082,863.5469 Q589.3145,863.2656 588.6895,863.2656 Q587.3457,863.2656 586.6582,864.3438 Q585.9707,865.4063 585.9707,867.5 Q585.9707,869.5938 586.6582,870.6719 Q587.3457,871.7344 588.6895,871.7344 Q589.3145,871.7344 589.9082,871.4688 Q590.502,871.1875 591.127,870.6094 L591.127,873.3281 Z " fill="#000000"/><text fill="#000000" font-family="Verdana" font-size="14" lengthAdjust="spacing" textLength="139.9111" x="605.6582" y="872.5342">GptpMessageParser</text><line style="stroke:#000000;stroke-width:1;" x1="527" x2="796.7275" y1="881.6875" y2="881.6875"/><line style="stroke:#000000;stroke-width:1;" x1="527" x2="796.7275" y1="889.6875" y2="889.6875"/><ellipse cx="537" cy="903.3359" fill="#FFFFFF" rx="3" ry="3" style="stroke:#000000;stroke-width:1;"/><text fill="#000000" font-family="Verdana" font-size="14" lengthAdjust="spacing" textLength="247.7275" x="544" y="906.6826">Parse(payload, len, msg_out) : bool</text></g><!--class SyncStateMachine--><g id="elem_SyncStateMachine"><rect codeLine="67" fill="#F5DEB3" height="125.4844" id="SyncStateMachine" rx="2.5" ry="2.5" style="stroke:#000000;stroke-width:1;" width="319.627" x="833" y="821.1875"/><ellipse cx="924.3613" cy="835.1875" fill="#FFFFFF" rx="9" ry="9" style="stroke:#000000;stroke-width:1;"/><path d="M927.3301,840.8281 Q926.752,841.125 926.1113,841.2656 Q925.4707,841.4219 924.7676,841.4219 Q922.2676,841.4219 920.9395,839.7813 Q919.627,838.125 919.627,835 Q919.627,831.875 920.9395,830.2188 Q922.2676,828.5625 924.7676,828.5625 Q925.4707,828.5625 926.1113,828.7188 Q926.7676,828.875 927.3301,829.1719 L927.3301,831.8906 Q926.7051,831.3125 926.1113,831.0469 Q925.5176,830.7656 924.8926,830.7656 Q923.5488,830.7656 922.8613,831.8438 Q922.1738,832.9063 922.1738,835 Q922.1738,837.0938 922.8613,838.1719 Q923.5488,839.2344 924.8926,839.2344 Q925.5176,839.2344 926.1113,838.9688 Q926.7051,838.6875 927.3301,838.1094 L927.3301,840.8281 Z " fill="#000000"/><text fill="#000000" font-family="Verdana" font-size="14" lengthAdjust="spacing" textLength="129.4043" x="941.8613" y="840.0342">SyncStateMachine</text><line style="stroke:#000000;stroke-width:1;" x1="834" x2="1151.627" y1="849.1875" y2="849.1875"/><rect fill="transparent" height="6" style="stroke:#000000;stroke-width:1;" width="6" x="841" y="859.8359"/><text fill="#000000" font-family="Verdana" font-size="14" lengthAdjust="spacing" textLength="176.4014" x="851" y="866.1826">timeout_ : atomic&lt;bool&gt;</text><line style="stroke:#000000;stroke-width:1;" x1="834" x2="1151.627" y1="873.4844" y2="873.4844"/><ellipse cx="844" cy="887.1328" fill="#FFFFFF" rx="3" ry="3" style="stroke:#000000;stroke-width:1;"/><text fill="#000000" font-family="Verdana" font-size="14" lengthAdjust="spacing" textLength="137.6211" x="851" y="890.4795">OnSync(msg) : void</text><ellipse cx="844" cy="903.4297" fill="#FFFFFF" rx="3" ry="3" style="stroke:#000000;stroke-width:1;"/><text fill="#000000" font-family="Verdana" font-size="14" lengthAdjust="spacing" textLength="295.627" x="851" y="906.7764">OnFollowUp(msg) : optional&lt;SyncResult&gt;</text><ellipse cx="844" cy="919.7266" fill="#FFFFFF" rx="3" ry="3" style="stroke:#000000;stroke-width:1;"/><text fill="#000000" font-family="Verdana" font-size="14" lengthAdjust="spacing" textLength="123.4912" x="851" y="923.0732">IsTimeout() : bool</text><ellipse cx="844" cy="936.0234" fill="#FFFFFF" rx="3" ry="3" style="stroke:#000000;stroke-width:1;"/><text fill="#000000" font-family="Verdana" font-size="14" lengthAdjust="spacing" textLength="229.8105" x="851" y="939.3701">GetNeighborRateRatio() : double</text></g><!--class PeerDelayMeasurer--><g id="elem_PeerDelayMeasurer"><rect codeLine="75" fill="#F5DEB3" height="141.7813" id="PeerDelayMeasurer" rx="2.5" ry="2.5" style="stroke:#000000;stroke-width:1;" width="259.293" x="1188.5" y="812.6875"/><ellipse cx="1245.8286" cy="826.6875" fill="#FFFFFF" rx="9" ry="9" style="stroke:#000000;stroke-width:1;"/><path d="M1248.7974,832.3281 Q1248.2192,832.625 1247.5786,832.7656 Q1246.938,832.9219 1246.2349,832.9219 Q1243.7349,832.9219 1242.4067,831.2813 Q1241.0942,829.625 1241.0942,826.5 Q1241.0942,823.375 1242.4067,821.7188 Q1243.7349,820.0625 1246.2349,820.0625 Q1246.938,820.0625 1247.5786,820.2188 Q1248.2349,820.375 1248.7974,820.6719 L1248.7974,823.3906 Q1248.1724,822.8125 1247.5786,822.5469 Q1246.9849,822.2656 1246.3599,822.2656 Q1245.0161,822.2656 1244.3286,823.3438 Q1243.6411,824.4063 1243.6411,826.5 Q1243.6411,828.5938 1244.3286,829.6719 Q1245.0161,830.7344 1246.3599,830.7344 Q1246.9849,830.7344 1247.5786,830.4688 Q1248.1724,830.1875 1248.7974,829.6094 L1248.7974,832.3281 Z " fill="#000000"/><text fill="#000000" font-family="Verdana" font-size="14" lengthAdjust="spacing" textLength="137.1357" x="1263.3286" y="831.5342">PeerDelayMeasurer</text><line style="stroke:#000000;stroke-width:1;" x1="1189.5" x2="1446.793" y1="840.6875" y2="840.6875"/><rect fill="transparent" height="6" style="stroke:#000000;stroke-width:1;" width="6" x="1196.5" y="851.3359"/><text fill="#000000" font-family="Verdana" font-size="14" lengthAdjust="spacing" textLength="141.5176" x="1206.5" y="857.6826">mutex_ : std::mutex</text><rect fill="transparent" height="6" style="stroke:#000000;stroke-width:1;" width="6" x="1196.5" y="867.6328"/><text fill="#000000" font-family="Verdana" font-size="14" lengthAdjust="spacing" textLength="153.0088" x="1206.5" y="873.9795">result_ : PDelayResult</text><line style="stroke:#000000;stroke-width:1;" x1="1189.5" x2="1446.793" y1="881.2813" y2="881.2813"/><ellipse cx="1199.5" cy="894.9297" fill="#FFFFFF" rx="3" ry="3" style="stroke:#000000;stroke-width:1;"/><text fill="#000000" font-family="Verdana" font-size="14" lengthAdjust="spacing" textLength="192.6914" x="1206.5" y="898.2764">SendRequest(socket) : void</text><ellipse cx="1199.5" cy="911.2266" fill="#FFFFFF" rx="3" ry="3" style="stroke:#000000;stroke-width:1;"/><text fill="#000000" font-family="Verdana" font-size="14" lengthAdjust="spacing" textLength="171.7461" x="1206.5" y="914.5732">OnResponse(msg) : void</text><ellipse cx="1199.5" cy="927.5234" fill="#FFFFFF" rx="3" ry="3" style="stroke:#000000;stroke-width:1;"/><text fill="#000000" font-family="Verdana" font-size="14" lengthAdjust="spacing" textLength="235.293" x="1206.5" y="930.8701">OnResponseFollowUp(msg) : void</text><ellipse cx="1199.5" cy="943.8203" fill="#FFFFFF" rx="3" ry="3" style="stroke:#000000;stroke-width:1;"/><text fill="#000000" font-family="Verdana" font-size="14" lengthAdjust="spacing" textLength="185.8555" x="1206.5" y="947.167">GetResult() : PDelayResult</text></g><!--class SyncResult--><g id="elem_SyncResult"><rect codeLine="84" fill="#F5F5DC" height="125.4844" id="SyncResult" rx="2.5" ry="2.5" style="stroke:#000000;stroke-width:1;" width="285.7959" x="1756" y="529.6875"/><ellipse cx="1856.3335" cy="543.6875" fill="#FFFFFF" rx="9" ry="9" style="stroke:#000000;stroke-width:1;"/><path d="M1855.8179,544.25 Q1853.9585,543.5469 1853.3022,542.7813 Q1852.6616,542 1852.6616,540.6875 Q1852.6616,539 1853.7397,538.0313 Q1854.8179,537.0625 1856.6929,537.0625 Q1857.5522,537.0625 1858.396,537.2656 Q1859.2554,537.4531 1860.0991,537.8438 L1860.0991,540.2344 Q1859.3179,539.6719 1858.4897,539.3906 Q1857.6772,539.0938 1856.8804,539.0938 Q1856.0054,539.0938 1855.521,539.4531 Q1855.0522,539.8125 1855.0522,540.4688 Q1855.0522,540.9844 1855.396,541.3281 Q1855.7397,541.6563 1856.8335,542.0625 L1857.896,542.4688 Q1859.3804,543.0156 1860.0835,543.9219 Q1860.8022,544.8281 1860.8022,546.2031 Q1860.8022,548.0781 1859.6929,549 Q1858.5835,549.9219 1856.3335,549.9219 Q1855.4116,549.9219 1854.4897,549.7031 Q1853.5679,549.4844 1852.7085,549.0625 L1852.7085,546.5313 Q1853.6772,547.2188 1854.5991,547.5625 Q1855.521,547.9063 1856.4116,547.9063 Q1857.3179,547.9063 1857.8179,547.5 Q1858.3179,547.0781 1858.3179,546.3438 Q1858.3179,545.7813 1857.9741,545.375 Q1857.646,544.9531 1857.021,544.7031 L1855.8179,544.25 Z " fill="#000000"/><text fill="#000000" font-family="Verdana" font-size="14" lengthAdjust="spacing" textLength="77.6289" x="1873.8335" y="548.5342">SyncResult</text><line style="stroke:#000000;stroke-width:1;" x1="1757" x2="2040.7959" y1="557.6875" y2="557.6875"/><ellipse cx="1767" cy="571.3359" fill="transparent" rx="3" ry="3" style="stroke:#000000;stroke-width:1;"/><text fill="#000000" font-family="Verdana" font-size="14" lengthAdjust="spacing" textLength="134.709" x="1774" y="574.6826">master_ns : int64_t</text><ellipse cx="1767" cy="587.6328" fill="transparent" rx="3" ry="3" style="stroke:#000000;stroke-width:1;"/><text fill="#000000" font-family="Verdana" font-size="14" lengthAdjust="spacing" textLength="125.1592" x="1774" y="590.9795">offset_ns : int64_t</text><ellipse cx="1767" cy="603.9297" fill="transparent" rx="3" ry="3" style="stroke:#000000;stroke-width:1;"/><text fill="#000000" font-family="Verdana" font-size="14" lengthAdjust="spacing" textLength="261.7959" x="1774" y="607.2764">sync_fup_data : GptpIpcSyncFupData</text><ellipse cx="1767" cy="620.2266" fill="transparent" rx="3" ry="3" style="stroke:#000000;stroke-width:1;"/><text fill="#000000" font-family="Verdana" font-size="14" lengthAdjust="spacing" textLength="178.3633" x="1774" y="623.5732">time_jump_forward : bool</text><ellipse cx="1767" cy="636.5234" fill="transparent" rx="3" ry="3" style="stroke:#000000;stroke-width:1;"/><text fill="#000000" font-family="Verdana" font-size="14" lengthAdjust="spacing" textLength="192.3838" x="1774" y="639.8701">time_jump_backward : bool</text><line style="stroke:#000000;stroke-width:1;" x1="1757" x2="2040.7959" y1="647.1719" y2="647.1719"/></g><!--class PDelayResult--><g id="elem_PDelayResult"><rect codeLine="92" fill="#F5F5DC" height="76.5938" id="PDelayResult" rx="2.5" ry="2.5" style="stroke:#000000;stroke-width:1;" width="260.1338" x="1782" y="845.1875"/><ellipse cx="1862.0786" cy="859.1875" fill="#FFFFFF" rx="9" ry="9" style="stroke:#000000;stroke-width:1;"/><path d="M1861.563,859.75 Q1859.7036,859.0469 1859.0474,858.2813 Q1858.4067,857.5 1858.4067,856.1875 Q1858.4067,854.5 1859.4849,853.5313 Q1860.563,852.5625 1862.438,852.5625 Q1863.2974,852.5625 1864.1411,852.7656 Q1865.0005,852.9531 1865.8442,853.3438 L1865.8442,855.7344 Q1865.063,855.1719 1864.2349,854.8906 Q1863.4224,854.5938 1862.6255,854.5938 Q1861.7505,854.5938 1861.2661,854.9531 Q1860.7974,855.3125 1860.7974,855.9688 Q1860.7974,856.4844 1861.1411,856.8281 Q1861.4849,857.1563 1862.5786,857.5625 L1863.6411,857.9688 Q1865.1255,858.5156 1865.8286,859.4219 Q1866.5474,860.3281 1866.5474,861.7031 Q1866.5474,863.5781 1865.438,864.5 Q1864.3286,865.4219 1862.0786,865.4219 Q1861.1567,865.4219 1860.2349,865.2031 Q1859.313,864.9844 1858.4536,864.5625 L1858.4536,862.0313 Q1859.4224,862.7188 1860.3442,863.0625 Q1861.2661,863.4063 1862.1567,863.4063 Q1863.063,863.4063 1863.563,863 Q1864.063,862.5781 1864.063,861.8438 Q1864.063,861.2813 1863.7192,860.875 Q1863.3911,860.4531 1862.7661,860.2031 L1861.563,859.75 Z " fill="#000000"/><text fill="#000000" font-family="Verdana" font-size="14" lengthAdjust="spacing" textLength="92.4766" x="1879.5786" y="864.0342">PDelayResult</text><line style="stroke:#000000;stroke-width:1;" x1="1783" x2="2041.1338" y1="873.1875" y2="873.1875"/><ellipse cx="1793" cy="886.8359" fill="transparent" rx="3" ry="3" style="stroke:#000000;stroke-width:1;"/><text fill="#000000" font-family="Verdana" font-size="14" lengthAdjust="spacing" textLength="236.1338" x="1800" y="890.1826">pdelay_data : GptpIpcPDelayData</text><ellipse cx="1793" cy="903.1328" fill="transparent" rx="3" ry="3" style="stroke:#000000;stroke-width:1;"/><text fill="#000000" font-family="Verdana" font-size="14" lengthAdjust="spacing" textLength="77.0547" x="1800" y="906.4795">valid : bool</text><line style="stroke:#000000;stroke-width:1;" x1="1783" x2="2041.1338" y1="913.7813" y2="913.7813"/></g><!--class GptpIpcPublisher--><g id="elem_GptpIpcPublisher"><rect codeLine="97" fill="#FFB6C1" height="141.7813" id="GptpIpcPublisher" rx="2.5" ry="2.5" style="stroke:#000000;stroke-width:1;" width="416.9844" x="196.5" y="521.1875"/><ellipse cx="341.5713" cy="535.1875" fill="#FFFFFF" rx="9" ry="9" style="stroke:#000000;stroke-width:1;"/><path d="M344.54,540.8281 Q343.9619,541.125 343.3213,541.2656 Q342.6807,541.4219 341.9775,541.4219 Q339.4775,541.4219 338.1494,539.7813 Q336.8369,538.125 336.8369,535 Q336.8369,531.875 338.1494,530.2188 Q339.4775,528.5625 341.9775,528.5625 Q342.6807,528.5625 343.3213,528.7188 Q343.9775,528.875 344.54,529.1719 L344.54,531.8906 Q343.915,531.3125 343.3213,531.0469 Q342.7275,530.7656 342.1025,530.7656 Q340.7588,530.7656 340.0713,531.8438 Q339.3838,532.9063 339.3838,535 Q339.3838,537.0938 340.0713,538.1719 Q340.7588,539.2344 342.1025,539.2344 Q342.7275,539.2344 343.3213,538.9688 Q343.915,538.6875 344.54,538.1094 L344.54,540.8281 Z " fill="#000000"/><text fill="#000000" font-family="Verdana" font-size="14" lengthAdjust="spacing" textLength="119.3418" x="359.0713" y="540.0342">GptpIpcPublisher</text><line style="stroke:#000000;stroke-width:1;" x1="197.5" x2="612.4844" y1="549.1875" y2="549.1875"/><rect fill="transparent" height="6" style="stroke:#000000;stroke-width:1;" width="6" x="204.5" y="559.8359"/><text fill="#000000" font-family="Verdana" font-size="14" lengthAdjust="spacing" textLength="175.5811" x="214.5" y="566.1826">region_ : GptpIpcRegion*</text><rect fill="transparent" height="6" style="stroke:#000000;stroke-width:1;" width="6" x="204.5" y="576.1328"/><text fill="#000000" font-family="Verdana" font-size="14" lengthAdjust="spacing" textLength="392.9844" x="214.5" y="582.4795">shm_resource_ : shared_ptr&lt;ISharedMemoryResource&gt;</text><rect fill="transparent" height="6" style="stroke:#000000;stroke-width:1;" width="6" x="204.5" y="592.4297"/><text fill="#000000" font-family="Verdana" font-size="14" lengthAdjust="spacing" textLength="127.9824" x="214.5" y="598.7764">ipc_name_ : string</text><line style="stroke:#000000;stroke-width:1;" x1="197.5" x2="612.4844" y1="606.0781" y2="606.0781"/><ellipse cx="207.5" cy="619.7266" fill="#FFFFFF" rx="3" ry="3" style="stroke:#000000;stroke-width:1;"/><text fill="#000000" font-family="Verdana" font-size="14" lengthAdjust="spacing" textLength="116.5322" x="214.5" y="623.0732">Init(name) : bool</text><ellipse cx="207.5" cy="636.0234" fill="#FFFFFF" rx="3" ry="3" style="stroke:#000000;stroke-width:1;"/><text fill="#000000" font-family="Verdana" font-size="14" lengthAdjust="spacing" textLength="237.7197" x="214.5" y="639.3701">Publish(data : GptpIpcData) : void</text><ellipse cx="207.5" cy="652.3203" fill="#FFFFFF" rx="3" ry="3" style="stroke:#000000;stroke-width:1;"/><text fill="#000000" font-family="Verdana" font-size="14" lengthAdjust="spacing" textLength="108.9512" x="214.5" y="655.667">Destroy() : void</text></g><!--class PhcAdjuster--><g id="elem_PhcAdjuster"><rect codeLine="106" fill="#E6E6FA" height="125.4844" id="PhcAdjuster" rx="2.5" ry="2.5" style="stroke:#000000;stroke-width:1;" width="263.5449" x="1483" y="821.1875"/><ellipse cx="1569.3267" cy="835.1875" fill="#FFFFFF" rx="9" ry="9" style="stroke:#000000;stroke-width:1;"/><path d="M1572.2954,840.8281 Q1571.7173,841.125 1571.0767,841.2656 Q1570.436,841.4219 1569.7329,841.4219 Q1567.2329,841.4219 1565.9048,839.7813 Q1564.5923,838.125 1564.5923,835 Q1564.5923,831.875 1565.9048,830.2188 Q1567.2329,828.5625 1569.7329,828.5625 Q1570.436,828.5625 1571.0767,828.7188 Q1571.7329,828.875 1572.2954,829.1719 L1572.2954,831.8906 Q1571.6704,831.3125 1571.0767,831.0469 Q1570.4829,830.7656 1569.8579,830.7656 Q1568.5142,830.7656 1567.8267,831.8438 Q1567.1392,832.9063 1567.1392,835 Q1567.1392,837.0938 1567.8267,838.1719 Q1568.5142,839.2344 1569.8579,839.2344 Q1570.4829,839.2344 1571.0767,838.9688 Q1571.6704,838.6875 1572.2954,838.1094 L1572.2954,840.8281 Z " fill="#000000"/><text fill="#000000" font-family="Verdana" font-size="14" lengthAdjust="spacing" textLength="83.3916" x="1586.8267" y="840.0342">PhcAdjuster</text><line style="stroke:#000000;stroke-width:1;" x1="1484" x2="1745.5449" y1="849.1875" y2="849.1875"/><rect fill="transparent" height="6" style="stroke:#000000;stroke-width:1;" width="6" x="1491" y="859.8359"/><text fill="#000000" font-family="Verdana" font-size="14" lengthAdjust="spacing" textLength="112.0615" x="1501" y="866.1826">cfg_ : PhcConfig</text><rect fill="transparent" height="6" style="stroke:#000000;stroke-width:1;" width="6" x="1491" y="876.1328"/><text fill="#000000" font-family="Verdana" font-size="14" lengthAdjust="spacing" textLength="85.1416" x="1501" y="882.4795">phc_fd_ : int</text><line style="stroke:#000000;stroke-width:1;" x1="1484" x2="1745.5449" y1="889.7813" y2="889.7813"/><ellipse cx="1494" cy="903.4297" fill="#FFFFFF" rx="3" ry="3" style="stroke:#000000;stroke-width:1;"/><text fill="#000000" font-family="Verdana" font-size="14" lengthAdjust="spacing" textLength="122.4453" x="1501" y="906.7764">IsEnabled() : bool</text><ellipse cx="1494" cy="919.7266" fill="#FFFFFF" rx="3" ry="3" style="stroke:#000000;stroke-width:1;"/><text fill="#000000" font-family="Verdana" font-size="14" lengthAdjust="spacing" textLength="203.4375" x="1501" y="923.0732">AdjustOffset(offset_ns) : void</text><ellipse cx="1494" cy="936.0234" fill="#FFFFFF" rx="3" ry="3" style="stroke:#000000;stroke-width:1;"/><text fill="#000000" font-family="Verdana" font-size="14" lengthAdjust="spacing" textLength="239.5449" x="1501" y="939.3701">AdjustFrequency(rate_ratio) : void</text></g><!--class PhcConfig--><g id="elem_PhcConfig"><rect codeLine="114" fill="#F5F5DC" height="92.8906" id="PhcConfig" rx="2.5" ry="2.5" style="stroke:#000000;stroke-width:1;" width="313.6592" x="1458" y="1014.6875"/><ellipse cx="1576.1138" cy="1028.6875" fill="#FFFFFF" rx="9" ry="9" style="stroke:#000000;stroke-width:1;"/><path d="M1575.5981,1029.25 Q1573.7388,1028.5469 1573.0825,1027.7813 Q1572.4419,1027 1572.4419,1025.6875 Q1572.4419,1024 1573.52,1023.0313 Q1574.5981,1022.0625 1576.4731,1022.0625 Q1577.3325,1022.0625 1578.1763,1022.2656 Q1579.0356,1022.4531 1579.8794,1022.8438 L1579.8794,1025.2344 Q1579.0981,1024.6719 1578.27,1024.3906 Q1577.4575,1024.0938 1576.6606,1024.0938 Q1575.7856,1024.0938 1575.3013,1024.4531 Q1574.8325,1024.8125 1574.8325,1025.4688 Q1574.8325,1025.9844 1575.1763,1026.3281 Q1575.52,1026.6563 1576.6138,1027.0625 L1577.6763,1027.4688 Q1579.1606,1028.0156 1579.8638,1028.9219 Q1580.5825,1029.8281 1580.5825,1031.2031 Q1580.5825,1033.0781 1579.4731,1034 Q1578.3638,1034.9219 1576.1138,1034.9219 Q1575.1919,1034.9219 1574.27,1034.7031 Q1573.3481,1034.4844 1572.4888,1034.0625 L1572.4888,1031.5313 Q1573.4575,1032.2188 1574.3794,1032.5625 Q1575.3013,1032.9063 1576.1919,1032.9063 Q1577.0981,1032.9063 1577.5981,1032.5 Q1578.0981,1032.0781 1578.0981,1031.3438 Q1578.0981,1030.7813 1577.7544,1030.375 Q1577.4263,1029.9531 1576.8013,1029.7031 L1575.5981,1029.25 Z " fill="#000000"/><text fill="#000000" font-family="Verdana" font-size="14" lengthAdjust="spacing" textLength="69.9316" x="1593.6138" y="1033.5342">PhcConfig</text><line style="stroke:#000000;stroke-width:1;" x1="1459" x2="1770.6592" y1="1042.6875" y2="1042.6875"/><ellipse cx="1469" cy="1056.3359" fill="transparent" rx="3" ry="3" style="stroke:#000000;stroke-width:1;"/><text fill="#000000" font-family="Verdana" font-size="14" lengthAdjust="spacing" textLength="153.8018" x="1476" y="1059.6826">enabled : bool = false</text><ellipse cx="1469" cy="1072.6328" fill="transparent" rx="3" ry="3" style="stroke:#000000;stroke-width:1;"/><text fill="#000000" font-family="Verdana" font-size="14" lengthAdjust="spacing" textLength="99.791" x="1476" y="1075.9795">device : string</text><ellipse cx="1469" cy="1088.9297" fill="transparent" rx="3" ry="3" style="stroke:#000000;stroke-width:1;"/><text fill="#000000" font-family="Verdana" font-size="14" lengthAdjust="spacing" textLength="289.6592" x="1476" y="1092.2764">step_threshold_ns : int64_t = 100000000</text><line style="stroke:#000000;stroke-width:1;" x1="1459" x2="1770.6592" y1="1099.5781" y2="1099.5781"/></g><!--reverse link GptpEngine to FrameCodec--><g id="link_GptpEngine_FrameCodec"><path codeLine="121" d="M807.3647,678.3422 C748.2947,704.6022 692.65,728.3775 631,752.6875 C545.72,786.3175 447.79,820.3575 373.83,845.1675 " fill="transparent" id="GptpEngine-backto-FrameCodec" style="stroke:#000000;stroke-width:1;"/><polygon fill="#000000" points="818.33,673.4675,811.2225,672.2498,807.3647,678.3422,814.4723,679.5599,818.33,673.4675" style="stroke:#000000;stroke-width:1;"/></g><!--reverse link GptpEngine to GptpMessageParser--><g id="link_GptpEngine_GptpMessageParser"><path codeLine="122" d="M809.2578,753.8881 C762.1678,795.0781 725.11,827.4875 695.33,853.5375 " fill="transparent" id="GptpEngine-backto-GptpMessageParser" style="stroke:#000000;stroke-width:1;"/><polygon fill="#000000" points="818.29,745.9875,811.1404,746.927,809.2578,753.8881,816.4074,752.9485,818.29,745.9875" style="stroke:#000000;stroke-width:1;"/></g><!--reverse link GptpEngine to SyncStateMachine--><g id="link_GptpEngine_SyncStateMachine"><path codeLine="123" d="M993,764.7575 C993,789.0075 993,800.6975 993,821.0675 " fill="transparent" id="GptpEngine-backto-SyncStateMachine" style="stroke:#000000;stroke-width:1;"/><polygon fill="#000000" points="993,752.7575,989,758.7575,993,764.7575,997,758.7575,993,752.7575" style="stroke:#000000;stroke-width:1;"/></g><!--reverse link GptpEngine to PeerDelayMeasurer--><g id="link_GptpEngine_PeerDelayMeasurer"><path codeLine="124" d="M1176.8316,756.9381 C1201.7716,779.1481 1217.36,793.0375 1239.15,812.4475 " fill="transparent" id="GptpEngine-backto-PeerDelayMeasurer" style="stroke:#000000;stroke-width:1;"/><polygon fill="#000000" points="1167.87,748.9575,1169.6906,755.935,1176.8316,756.9381,1175.011,749.9606,1167.87,748.9575" style="stroke:#000000;stroke-width:1;"/></g><!--reverse link GptpEngine to PhcAdjuster--><g id="link_GptpEngine_PhcAdjuster"><path codeLine="125" d="M1178.6111,679.4873 C1300.4811,736.1573 1435.48,798.9375 1465,812.6875 C1470.86,815.4175 1476.85,818.2075 1482.9,821.0275 " fill="transparent" id="GptpEngine-backto-PhcAdjuster" style="stroke:#000000;stroke-width:1;"/><polygon fill="#000000" points="1167.73,674.4275,1171.484,680.5844,1178.6111,679.4873,1174.8571,673.3303,1167.73,674.4275" style="stroke:#000000;stroke-width:1;"/></g><!--reverse link PhcAdjuster to PhcConfig--><g id="link_PhcAdjuster_PhcConfig"><path codeLine="126" d="M1615,958.5575 C1615,980.9675 1615,993.8375 1615,1014.5875 " fill="transparent" id="PhcAdjuster-backto-PhcConfig" style="stroke:#000000;stroke-width:1;"/><polygon fill="#000000" points="1615,946.5575,1611,952.5575,1615,958.5575,1619,952.5575,1615,946.5575" style="stroke:#000000;stroke-width:1;"/></g><!--reverse link TimeSlave to GptpIpcPublisher--><g id="link_TimeSlave_GptpIpcPublisher"><path codeLine="127" d="M405,368.8775 C405,416.7475 405,471.1175 405,521.0075 " fill="transparent" id="TimeSlave-backto-GptpIpcPublisher" style="stroke:#000000;stroke-width:1;"/><polygon fill="#000000" points="405,356.8775,401,362.8775,405,368.8775,409,362.8775,405,356.8775" style="stroke:#000000;stroke-width:1;"/><text fill="#000000" font-family="Verdana" font-size="13" lengthAdjust="spacing" textLength="8.271" x="396.6023" y="509.9786">1</text></g><!--SRC=[XLTRRzis57xth-0yOF3Q14YRRGz64g1pajR0qXXsXZqA37KaiQ58ZQIIU4t- -mv9sQ8kJltGskHtBZpdEvVyP0ieWLI2SZcPM6u5a3jUmaRGHo0BGOqXbvpccfQJYO0SP4gigeY0p4u8VbxEoK89fSd-WoUNO9ZcbULAaixd9SYGiv__udbX5rigBy99QvHMbU2Cji8zeGqLfN9YBoHVtQt8bSov1CAKXb5B_nH0xSN-dAoqieefGIgj61Z3PJxY7deYKz0NEw4l2qBJRxMn9KZxrfjMN3uqRrgk5kXMMIc9CkQ0q9_0SuZSkwIM4cDrpMojmNI5qAUGXCcaeko1va2cnhryFhTcIhvFl5hcqzP6j0qs8dRAZecgh4d8dAHWAHTcFlzSsIf4yzRdpaHWyESENal-Rmr9PVNPYEH595FLzuAR0lJ0oh9YgztbNk0zMKfkEHNyFvWn-_mhId5fJpycDiAiQpapIC74gWUGVSphPF8w5flvlB7V2rBhE8dPDHgdjyAZdnDRQA2f0ngReat_Cuv62e9kVmWpMyaIKph01hzkBBLmGrc1PeVAkkbO0UXBTtu3r21vT2SP1NFmLS4-UHv7WKUZYZs0xQbRqwUDFu_Ly1Ivp6tVz5UmJqe_B9lRM8Af5BpfQsmYi72_OhUeDe4WBhmtM8-Ok9K_ZFsJj3A5iabPMtZU1y__YfLXPM0v9tjuenRfviegTghM6btz8RB3IKUsUwL4T7i9_CtxQoxztQQnup6FYgSnev40sCZsaDHrW8uxltGqlmO2XnunP2K9BIMYy7l2CyeWaHX_7phjUjuvcK99sSaqmZMqmee2_KX5KffGNmZ-S79oCaG-KLtMLOpxsCLvEbjiHQgsCUpqj0FxLfTLajMkvVaAmK28D94D_e_V4YVp-qdpYVr0MZCbCvu7SY_2ztFo_JKELgZsbe4aZ8LEa3phhd0WQWds2oO5z2np4aV4_vS8a4S4mvseB3DWHzBzAKrx2kxhx8ZWFq7OQ9PWpCC9ezYdi5Z6ajjsfqv977HxLj6jK3Gz8jvEQV840tvOSx-r31KVartMK0crgkJipEcwY4pVIgTdXjP6Q7qhhvKGwkdlQWTGdg1Kd3cfDPXQs5ZRqjm5YsE5z1diLwHrSQ_q6jrUk_t0urA5WmI6Bnmqmx4dljrEj7VHTqslARWSERN1VhC6x876pa8B7Oq3ok4EW4aw5AWTe1-m7X1Z45pm3n_urEqBROp76a99tGJe55Xq6_XzwDQNT8PLtsrKpk1rNVNQfoDH4gfRQUmMwJ2rBUGUvtOVqtrL_EYnTpLjgUjP4EevXksDfszMNhoaa7Qvwn18GuwKZgR7sX-yYsTNKIR895LhvlSdKr0DgP-Qout_VWEbqkvH7jEPjXNpNJlPj-tUP9gvsv5oQHmVcIKZlC9rtMgrxSwcRZ6rMmFPxyQTGB0iJ-8EtDiyCh_n89SwzNubATPkEXljfCxShIVYRC_74US3y5gxCfHiEzFO7HBjsiFOStOqsW-A4Gv1yAhn2KT9HeM129328sSmbX8CK7LuVdtepAzNjwb6- -Uxu-DuHUhT3BUZ7c2mBFRk1_rm08WsmpZVpLsJrlQl2dS-_J0TbChaVm00]--></g></svg>