<svg xmlns="http://www.w3.org/2000/svg" xmlns:xlink="http://www.w3.org/1999/xlink" contentStyleType="text/css" data-diagram-type="SEQUENCE" height="907px" preserveAspectRatio="none" style="width:1424px;height:907px;background:#FFFFFF;" version="1.1" viewBox="0 0 1424 907" width="1424px" zoomAndPan="magnify"><title>ShmPTPEngine: Periodic Read and Publish Workflow</title><defs/><g><text fill="#000000" font-family="Verdana" font-size="22" font-weight="bold" lengthAdjust="spacing" textLength="651.7178" x="390.1831" y="35.4209">ShmPTPEngine: Periodic Read and Publish Workflow</text><g><title>PTPMachine</title><rect fill="#FFFFFF" height="651.8594" style="stroke:#000000;stroke-width:1;" width="10" x="96.5981" y="231.9844"/></g><g><title>ShmPTPEngine</title><rect fill="#FFFFFF" height="374.6641" style="stroke:#000000;stroke-width:1;" width="10" x="319.3276" y="319.3828"/></g><g><title>GptpIpcReceiver</title><rect fill="#FFFFFF" height="167.9297" style="stroke:#000000;stroke-width:1;" width="10" x="599.4272" y="348.5156"/></g><g><title>SharedMemory</title><rect fill="#FFFFFF" height="109.6641" style="stroke:#000000;stroke-width:1;" width="10" x="860.2827" y="377.6484"/></g><g><title>MessageBroker</title><rect fill="#FFFFFF" height="87.3984" style="stroke:#000000;stroke-width:1;" width="10" x="1015.3154" y="781.4453"/></g><g><title>ControlFlowDivider</title><rect fill="#FFFFFF" height="29.1328" style="stroke:#000000;stroke-width:1;" width="10" x="1309.5977" y="810.5781"/></g><rect fill="#FFFFFF" height="644.8594" style="stroke:#000000;stroke-width:1;" width="1403.084" x="15" y="238.9844"/><rect fill="#FFFFFF" height="155.6016" style="stroke:#000000;stroke-width:1;" width="801.4497" x="25" y="531.4453"/><rect fill="#FFFFFF" height="43.9375" style="stroke:transparent;stroke-width:1;" width="801.4497" x="25" y="643.1094"/><rect fill="#FFFFFF" height="175.7969" style="stroke:#000000;stroke-width:1;" width="1383.084" x="25" y="701.0469"/><g><title>PTPMachine</title><rect fill="transparent" height="678.8594" width="8" x="97.5981" y="221.9844"/><line style="stroke:#000000;stroke-width:1;" x1="101" x2="101" y1="221.9844" y2="900.8438"/></g><g><title>ShmPTPEngine</title><rect fill="transparent" height="678.8594" width="8" x="320.3276" y="221.9844"/><line style="stroke:#000000;stroke-width:1;" x1="323.9199" x2="323.9199" y1="221.9844" y2="900.8438"/></g><g><title>GptpIpcReceiver</title><rect fill="transparent" height="678.8594" width="8" x="600.4272" y="221.9844"/><line style="stroke:#000000;stroke-width:1;" x1="604.4175" x2="604.4175" y1="221.9844" y2="900.8438"/></g><g><title>SharedMemory</title><rect fill="transparent" height="678.8594" width="8" x="861.2827" y="221.9844"/><line style="stroke:#000000;stroke-width:1;" x1="865.1309" x2="865.1309" y1="221.9844" y2="900.8438"/></g><g><title>MessageBroker</title><rect fill="transparent" height="678.8594" width="8" x="1016.3154" y="221.9844"/><line style="stroke:#000000;stroke-width:1;" x1="1019.4346" x2="1019.4346" y1="221.9844" y2="900.8438"/></g><g><title>ControlFlowDivider</title><rect fill="transparent" height="678.8594" width="8" x="1310.5977" y="221.9844"/><line style="stroke:#000000;stroke-width:1;" x1="1314.1113" x2="1314.1113" y1="221.9844" y2="900.8438"/></g><rect fill="#F5DEB3" height="46.5938" rx="2.5" ry="2.5" style="stroke:#000000;stroke-width:1;" width="113.1963" x="45" y="174.3906"/><text fill="#000000" font-family="Verdana" font-size="14" lengthAdjust="spacing" textLength="84.041" x="59.5776" y="194.3857">PTPMachine</text><text fill="#000000" font-family="Verdana" font-size="14" lengthAdjust="spacing" textLength="99.1963" x="52" y="210.6826">(PeriodicTask)</text><rect fill="#F5DEB3" height="30.2969" rx="2.5" ry="2.5" style="stroke:#000000;stroke-width:1;" width="118.8154" x="264.9199" y="190.6875"/><text fill="#000000" font-family="Verdana" font-size="14" lengthAdjust="spacing" textLength="104.8154" x="271.9199" y="210.6826">ShmPTPEngine</text><rect fill="#FFB6C1" height="30.2969" rx="2.5" ry="2.5" style="stroke:#000000;stroke-width:1;" width="130.0195" x="539.4175" y="190.6875"/><text fill="#000000" font-family="Verdana" font-size="14" lengthAdjust="spacing" textLength="116.0195" x="546.4175" y="210.6826">GptpIpcReceiver</text><rect fill="#E0FFFF" height="46.5938" rx="2.5" ry="2.5" style="stroke:#000000;stroke-width:1;" width="128.3037" x="801.1309" y="174.3906"/><text fill="#000000" font-family="Verdana" font-size="14" lengthAdjust="spacing" textLength="106.5313" x="812.0171" y="194.3857">SharedMemory</text><text fill="#000000" font-family="Verdana" font-size="14" lengthAdjust="spacing" textLength="114.3037" x="808.1309" y="210.6826">(GptpIpcRegion)</text><rect fill="#AFEEEE" height="30.2969" rx="2.5" ry="2.5" style="stroke:#000000;stroke-width:1;" width="121.7617" x="959.4346" y="190.6875"/><text fill="#000000" font-family="Verdana" font-size="14" lengthAdjust="spacing" textLength="107.7617" x="966.4346" y="210.6826">MessageBroker</text><rect fill="#ADD8E6" height="30.2969" rx="2.5" ry="2.5" style="stroke:#000000;stroke-width:1;" width="146.9727" x="1241.1113" y="190.6875"/><text fill="#000000" font-family="Verdana" font-size="14" lengthAdjust="spacing" textLength="132.9727" x="1248.1113" y="210.6826">ControlFlowDivider</text><g><title>PTPMachine</title><rect fill="#FFFFFF" height="651.8594" style="stroke:#000000;stroke-width:1;" width="10" x="96.5981" y="231.9844"/></g><g><title>ShmPTPEngine</title><rect fill="#FFFFFF" height="374.6641" style="stroke:#000000;stroke-width:1;" width="10" x="319.3276" y="319.3828"/></g><g><title>GptpIpcReceiver</title><rect fill="#FFFFFF" height="167.9297" style="stroke:#000000;stroke-width:1;" width="10" x="599.4272" y="348.5156"/></g><g><title>SharedMemory</title><rect fill="#FFFFFF" height="109.6641" style="stroke:#000000;stroke-width:1;" width="10" x="860.2827" y="377.6484"/></g><g><title>MessageBroker</title><rect fill="#FFFFFF" height="87.3984" style="stroke:#000000;stroke-width:1;" width="10" x="1015.3154" y="781.4453"/></g><g><title>ControlFlowDivider</title><rect fill="#FFFFFF" height="29.1328" style="stroke:#000000;stroke-width:1;" width="10" x="1309.5977" y="810.5781"/></g><path d="M15,238.9844 L91.624,238.9844 L91.624,246.1172 L81.624,256.1172 L15,256.1172 L15,238.9844 " fill="#FFFFFF" style="stroke:#000000;stroke-width:1;"/><rect fill="transparent" height="644.8594" style="stroke:#000000;stroke-width:1;" width="1403.084" x="15" y="238.9844"/><text fill="#000000" font-family="Verdana" font-size="13" font-weight="bold" lengthAdjust="spacing" textLength="31.624" x="30" y="252.0513">loop</text><text fill="#000000" font-family="Verdana" font-size="11" font-weight="bold" lengthAdjust="spacing" textLength="181.5537" x="106.624" y="251.1948">[periodic (e.g., every 50 ms)]</text><line style="stroke:#000000;stroke-width:1;" x1="106.5981" x2="148.5981" y1="277.25" y2="277.25"/><line style="stroke:#000000;stroke-width:1;" x1="148.5981" x2="148.5981" y1="277.25" y2="290.25"/><line style="stroke:#000000;stroke-width:1;" x1="107.5981" x2="148.5981" y1="290.25" y2="290.25"/><polygon fill="#000000" points="117.5981,286.25,107.5981,290.25,117.5981,294.25,113.5981,290.25" style="stroke:#000000;stroke-width:1;"/><text fill="#FF0000" font-family="Verdana" font-size="13" font-weight="bold" lengthAdjust="spacing" textLength="29.9736" x="113.5981" y="272.1841">[01]</text><text fill="#000000" font-family="Verdana" font-size="13" lengthAdjust="spacing" textLength="92.1108" x="147.5718" y="272.1841">PeriodicTask()</text><polygon fill="#000000" points="307.3276,315.3828,317.3276,319.3828,307.3276,323.3828,311.3276,319.3828" style="stroke:#000000;stroke-width:1;"/><line style="stroke:#000000;stroke-width:1;" x1="106.5981" x2="313.3276" y1="319.3828" y2="319.3828"/><text fill="#FF0000" font-family="Verdana" font-size="13" font-weight="bold" lengthAdjust="spacing" textLength="29.9736" x="113.5981" y="314.3169">[02]</text><text fill="#000000" font-family="Verdana" font-size="13" lengthAdjust="spacing" textLength="152.166" x="147.5718" y="314.3169">ReadPTPSnapshot(info)</text><polygon fill="#000000" points="587.4272,344.5156,597.4272,348.5156,587.4272,352.5156,591.4272,348.5156" style="stroke:#000000;stroke-width:1;"/><line style="stroke:#000000;stroke-width:1;" x1="329.3276" x2="593.4272" y1="348.5156" y2="348.5156"/><text fill="#FF0000" font-family="Verdana" font-size="13" font-weight="bold" lengthAdjust="spacing" textLength="29.9736" x="336.3276" y="343.4497">[03]</text><text fill="#000000" font-family="Verdana" font-size="13" lengthAdjust="spacing" textLength="61.623" x="370.3013" y="343.4497">Receive()</text><polygon fill="#000000" points="848.2827,373.6484,858.2827,377.6484,848.2827,381.6484,852.2827,377.6484" style="stroke:#000000;stroke-width:1;"/><line style="stroke:#000000;stroke-width:1;" x1="609.4272" x2="854.2827" y1="377.6484" y2="377.6484"/><text fill="#FF0000" font-family="Verdana" font-size="13" font-weight="bold" lengthAdjust="spacing" textLength="29.9736" x="616.4272" y="372.5825">[04]</text><text fill="#000000" font-family="Verdana" font-size="13" lengthAdjust="spacing" textLength="197.8818" x="650.4009" y="372.5825">seqlock read (up to 20 retries)</text><path d="M875,390.6484 L875,460.6484 L1137,460.6484 L1137,400.6484 L1127,390.6484 L875,390.6484 " fill="#FFFFFF" style="stroke:#000000;stroke-width:1;"/><path d="M1127,390.6484 L1127,400.6484 L1137,400.6484 L1127,390.6484 " fill="#FFFFFF" style="stroke:#000000;stroke-width:1;"/><text fill="#000000" font-family="Verdana" font-size="13" lengthAdjust="spacing" textLength="241.8394" x="881" y="407.7153">1. read seq1 (acquire, must be even)</text><text fill="#000000" font-family="Verdana" font-size="13" lengthAdjust="spacing" textLength="159.0342" x="881" y="422.8481">2. memcpy GptpIpcData</text><text fill="#000000" font-family="Verdana" font-size="13" lengthAdjust="spacing" textLength="215.6934" x="881" y="437.981">3. fence, read seq_confirm + seq</text><text fill="#000000" font-family="Verdana" font-size="13" lengthAdjust="spacing" textLength="211.5674" x="881" y="453.1138">4. verify seq1 == seq2 == seq3</text><polygon fill="#000000" points="620.4272,483.3125,610.4272,487.3125,620.4272,491.3125,616.4272,487.3125" style="stroke:#000000;stroke-width:1;"/><line style="stroke:#000000;stroke-width:1;stroke-dasharray:2.0,2.0;" x1="614.4272" x2="864.2827" y1="487.3125" y2="487.3125"/><text fill="#FF0000" font-family="Verdana" font-size="13" font-weight="bold" lengthAdjust="spacing" textLength="29.9736" x="626.4272" y="482.2466">[05]</text><text fill="#000000" font-family="Verdana" font-size="13" lengthAdjust="spacing" textLength="173.0879" x="660.4009" y="482.2466">GptpIpcData or contention</text><polygon fill="#000000" points="340.3276,512.4453,330.3276,516.4453,340.3276,520.4453,336.3276,516.4453" style="stroke:#000000;stroke-width:1;"/><line style="stroke:#000000;stroke-width:1;stroke-dasharray:2.0,2.0;" x1="334.3276" x2="603.4272" y1="516.4453" y2="516.4453"/><text fill="#FF0000" font-family="Verdana" font-size="13" font-weight="bold" lengthAdjust="spacing" textLength="29.9736" x="346.3276" y="511.3794">[06]</text><text fill="#000000" font-family="Verdana" font-size="13" lengthAdjust="spacing" textLength="156.4189" x="380.3013" y="511.3794">optional&lt;GptpIpcData&gt;</text><path d="M25,531.4453 L89.4429,531.4453 L89.4429,538.5781 L79.4429,548.5781 L25,548.5781 L25,531.4453 " fill="#FFFFFF" style="stroke:#000000;stroke-width:1;"/><rect fill="transparent" height="155.6016" style="stroke:#000000;stroke-width:1;" width="801.4497" x="25" y="531.4453"/><text fill="#000000" font-family="Verdana" font-size="13" font-weight="bold" lengthAdjust="spacing" textLength="19.4429" x="40" y="544.5122">alt</text><text fill="#000000" font-family="Verdana" font-size="11" font-weight="bold" lengthAdjust="spacing" textLength="97.9473" x="104.4429" y="543.6558">[data available]</text><line style="stroke:#000000;stroke-width:1;" x1="329.3276" x2="371.3276" y1="581.3438" y2="581.3438"/><line style="stroke:#000000;stroke-width:1;" x1="371.3276" x2="371.3276" y1="581.3438" y2="594.3438"/><line style="stroke:#000000;stroke-width:1;" x1="330.3276" x2="371.3276" y1="594.3438" y2="594.3438"/><polygon fill="#000000" points="340.3276,590.3438,330.3276,594.3438,340.3276,598.3438,336.3276,594.3438" style="stroke:#000000;stroke-width:1;"/><text fill="#FF0000" font-family="Verdana" font-size="13" font-weight="bold" lengthAdjust="spacing" textLength="29.9736" x="336.3276" y="576.2778">[07]</text><text fill="#000000" font-family="Verdana" font-size="13" lengthAdjust="spacing" textLength="212.126" x="370.3013" y="576.2778">map GptpIpcData &#8594; PtpTimeInfo</text><path d="M604.0996,553.5781 L604.0996,608.5781 L806.0996,608.5781 L806.0996,563.5781 L796.0996,553.5781 L604.0996,553.5781 " fill="#FFFFFF" style="stroke:#000000;stroke-width:1;"/><path d="M796.0996,553.5781 L796.0996,563.5781 L806.0996,563.5781 L796.0996,553.5781 " fill="#FFFFFF" style="stroke:#000000;stroke-width:1;"/><text fill="#000000" font-family="Verdana" font-size="13" lengthAdjust="spacing" textLength="174.9795" x="610.0996" y="570.645">status, ptp_assumed_time,</text><text fill="#000000" font-family="Verdana" font-size="13" lengthAdjust="spacing" textLength="171.8882" x="610.0996" y="585.7778">local_time, rate_deviation,</text><text fill="#000000" font-family="Verdana" font-size="13" lengthAdjust="spacing" textLength="181.0225" x="610.0996" y="600.9106">sync_fup_data, pdelay_data</text><polygon fill="#000000" points="117.5981,631.1094,107.5981,635.1094,117.5981,639.1094,113.5981,635.1094" style="stroke:#000000;stroke-width:1;"/><line style="stroke:#000000;stroke-width:1;stroke-dasharray:2.0,2.0;" x1="111.5981" x2="318.3276" y1="635.1094" y2="635.1094"/><text fill="#FF0000" font-family="Verdana" font-size="13" font-weight="bold" lengthAdjust="spacing" textLength="29.9736" x="123.5981" y="630.0435">[08]</text><text fill="#000000" font-family="Verdana" font-size="13" lengthAdjust="spacing" textLength="154.7559" x="157.5718" y="630.0435">true (PtpTimeInfo filled)</text><line style="stroke:#000000;stroke-width:1;stroke-dasharray:2.0,2.0;" x1="25" x2="826.4497" y1="644.1094" y2="644.1094"/><text fill="#000000" font-family="Verdana" font-size="11" font-weight="bold" lengthAdjust="spacing" textLength="115.0273" x="30" y="654.3198">[no data (nullopt)]</text><polygon fill="#000000" points="117.5981,675.0469,107.5981,679.0469,117.5981,683.0469,113.5981,679.0469" style="stroke:#000000;stroke-width:1;"/><line style="stroke:#000000;stroke-width:1;stroke-dasharray:2.0,2.0;" x1="111.5981" x2="318.3276" y1="679.0469" y2="679.0469"/><text fill="#FF0000" font-family="Verdana" font-size="13" font-weight="bold" lengthAdjust="spacing" textLength="29.9736" x="123.5981" y="673.981">[09]</text><text fill="#000000" font-family="Verdana" font-size="13" lengthAdjust="spacing" textLength="30.9258" x="157.5718" y="673.981">false</text><path d="M25,701.0469 L89.4429,701.0469 L89.4429,708.1797 L79.4429,718.1797 L25,718.1797 L25,701.0469 " fill="#FFFFFF" style="stroke:#000000;stroke-width:1;"/><rect fill="transparent" height="175.7969" style="stroke:#000000;stroke-width:1;" width="1383.084" x="25" y="701.0469"/><text fill="#000000" font-family="Verdana" font-size="13" font-weight="bold" lengthAdjust="spacing" textLength="19.4429" x="40" y="714.1138">alt</text><text fill="#000000" font-family="Verdana" font-size="11" font-weight="bold" lengthAdjust="spacing" textLength="211.3525" x="104.4429" y="713.2573">[ReadPTPSnapshot returned true]</text><line style="stroke:#000000;stroke-width:1;" x1="106.5981" x2="148.5981" y1="739.3125" y2="739.3125"/><line style="stroke:#000000;stroke-width:1;" x1="148.5981" x2="148.5981" y1="739.3125" y2="752.3125"/><line style="stroke:#000000;stroke-width:1;" x1="107.5981" x2="148.5981" y1="752.3125" y2="752.3125"/><polygon fill="#000000" points="117.5981,748.3125,107.5981,752.3125,117.5981,756.3125,113.5981,752.3125" style="stroke:#000000;stroke-width:1;"/><text fill="#FF0000" font-family="Verdana" font-size="13" font-weight="bold" lengthAdjust="spacing" textLength="29.9736" x="113.5981" y="734.2466">[10]</text><text fill="#000000" font-family="Verdana" font-size="13" lengthAdjust="spacing" textLength="134.7163" x="147.5718" y="734.2466">Publish(PtpTimeInfo)</text><polygon fill="#000000" points="1003.3154,777.4453,1013.3154,781.4453,1003.3154,785.4453,1007.3154,781.4453" style="stroke:#000000;stroke-width:1;"/><line style="stroke:#000000;stroke-width:1;" x1="106.5981" x2="1009.3154" y1="781.4453" y2="781.4453"/><text fill="#FF0000" font-family="Verdana" font-size="13" font-weight="bold" lengthAdjust="spacing" textLength="29.9736" x="113.5981" y="776.3794">[11]</text><text fill="#000000" font-family="Verdana" font-size="13" lengthAdjust="spacing" textLength="201.3604" x="147.5718" y="776.3794">publish_callback_(PtpTimeInfo)</text><polygon fill="#000000" points="1297.5977,806.5781,1307.5977,810.5781,1297.5977,814.5781,1301.5977,810.5781" style="stroke:#000000;stroke-width:1;"/><line style="stroke:#000000;stroke-width:1;" x1="1025.3154" x2="1303.5977" y1="810.5781" y2="810.5781"/><text fill="#FF0000" font-family="Verdana" font-size="13" font-weight="bold" lengthAdjust="spacing" textLength="29.9736" x="1032.3154" y="805.5122">[12]</text><text fill="#000000" font-family="Verdana" font-size="13" lengthAdjust="spacing" textLength="231.3086" x="1066.2891" y="805.5122">subscription.callback_(PtpTimeInfo)</text><polygon fill="#000000" points="1036.3154,835.7109,1026.3154,839.7109,1036.3154,843.7109,1032.3154,839.7109" style="stroke:#000000;stroke-width:1;"/><line style="stroke:#000000;stroke-width:1;stroke-dasharray:2.0,2.0;" x1="1030.3154" x2="1313.5977" y1="839.7109" y2="839.7109"/><text fill="#FF0000" font-family="Verdana" font-size="13" font-weight="bold" lengthAdjust="spacing" textLength="29.9736" x="1042.3154" y="834.645">[13]</text><text fill="#000000" font-family="Verdana" font-size="13" lengthAdjust="spacing" textLength="4.1323" x="1076.2891" y="834.645">&#160;</text><polygon fill="#000000" points="117.5981,864.8438,107.5981,868.8438,117.5981,872.8438,113.5981,868.8438" style="stroke:#000000;stroke-width:1;"/><line style="stroke:#000000;stroke-width:1;stroke-dasharray:2.0,2.0;" x1="111.5981" x2="1019.3154" y1="868.8438" y2="868.8438"/><text fill="#FF0000" font-family="Verdana" font-size="13" font-weight="bold" lengthAdjust="spacing" textLength="29.9736" x="123.5981" y="863.7778">[14]</text><text fill="#000000" font-family="Verdana" font-size="13" lengthAdjust="spacing" textLength="4.1323" x="157.5718" y="863.7778">&#160;</text><rect fill="transparent" height="111.7813" id="_legend" rx="7.5" ry="7.5" style="stroke:#000000;stroke-width:1;" width="289.3916" x="10" y="56.6094"/><text fill="#000000" font-family="Verdana" font-size="14" font-weight="bold" lengthAdjust="spacing" textLength="41.2139" x="19.874" y="76.6045">Color</text><text fill="#000000" font-family="Verdana" font-size="14" font-weight="bold" lengthAdjust="spacing" textLength="90.5488" x="119.5762" y="76.6045">Description</text><rect fill="#F5DEB3" height="16.2969" style="stroke:transparent;stroke-width:1;" width="99.7021" x="15" y="79.9063"/><text fill="#000000" font-family="Verdana" font-size="14" lengthAdjust="spacing" textLength="40.0518" x="15" y="92.9014">&#160;&#160;&#160;&#160;&#160;&#160;&#160;&#160;&#160;</text><text fill="#000000" font-family="Verdana" font-size="14" lengthAdjust="spacing" textLength="126.2871" x="119.1523" y="92.9014">GPTPShmMachine</text><rect fill="#FFB6C1" height="16.2969" style="stroke:transparent;stroke-width:1;" width="99.7021" x="15" y="96.2031"/><text fill="#000000" font-family="Verdana" font-size="14" lengthAdjust="spacing" textLength="22.251" x="15" y="109.1982">&#160;&#160;&#160;&#160;&#160;</text><text fill="#000000" font-family="Verdana" font-size="14" lengthAdjust="spacing" textLength="101.4316" x="119.1523" y="109.1982">libTSClient IPC</text><rect fill="#E0FFFF" height="16.2969" style="stroke:transparent;stroke-width:1;" width="99.7021" x="15" y="112.5"/><text fill="#000000" font-family="Verdana" font-size="14" lengthAdjust="spacing" textLength="22.251" x="15" y="125.4951">&#160;&#160;&#160;&#160;&#160;</text><text fill="#000000" font-family="Verdana" font-size="14" lengthAdjust="spacing" textLength="110.9814" x="119.1523" y="125.4951">Shared Memory</text><rect fill="#AFEEEE" height="16.2969" style="stroke:transparent;stroke-width:1;" width="99.7021" x="15" y="128.7969"/><text fill="#000000" font-family="Verdana" font-size="14" lengthAdjust="spacing" textLength="4.4502" x="15" y="141.792">&#160;</text><text fill="#000000" font-family="Verdana" font-size="14" lengthAdjust="spacing" textLength="107.7617" x="119.1523" y="141.792">MessageBroker</text><rect fill="#ADD8E6" height="16.2969" style="stroke:transparent;stroke-width:1;" width="99.7021" x="15" y="145.0938"/><text fill="#000000" font-family="Verdana" font-size="14" lengthAdjust="spacing" textLength="22.251" x="15" y="158.0889">&#160;&#160;&#160;&#160;&#160;</text><text fill="#000000" font-family="Verdana" font-size="14" lengthAdjust="spacing" textLength="132.9727" x="119.1523" y="158.0889">ControlFlowDivider</text><line style="stroke:#000000;stroke-width:1;" x1="15" x2="294.3916" y1="63.6094" y2="63.6094"/><line style="stroke:#000000;stroke-width:1;" x1="15" x2="294.3916" y1="79.9063" y2="79.9063"/><line style="stroke:#000000;stroke-width:1;" x1="15" x2="294.3916" y1="96.2031" y2="96.2031"/><line style="stroke:#000000;stroke-width:1;" x1="15" x2="294.3916" y1="112.5" y2="112.5"/><line style="stroke:#000000;stroke-width:1;" x1="15" x2="294.3916" y1="128.7969" y2="128.7969"/><line style="stroke:#000000;stroke-width:1;" x1="15" x2="294.3916" y1="145.0938" y2="145.0938"/><line style="stroke:#000000;stroke-width:1;" x1="15" x2="294.3916" y1="161.3906" y2="161.3906"/><line style="stroke:#000000;stroke-width:1;" x1="15" x2="15" y1="63.6094" y2="161.3906"/><line style="stroke:#000000;stroke-width:1;" x1="114.7021" x2="114.7021" y1="63.6094" y2="161.3906"/><line style="stroke:#000000;stroke-width:1;" x1="294.3916" x2="294.3916" y1="63.6094" y2="161.3906"/><!--SRC=[ZPNTRjCm5CVlynI7SfEAhHe3RgQj5tI09Z6fsYhj0b3b92UDLSVERATGQTSy08_8at3i94vIEaHk6f-S__du-TXzOGii4Ih1k8mYowr0k2_AvMhvGMwun0jOekOguodS8Sk0oGoMTIAuAU11wMqkrFSeAdY6a2jb4_KZOhLLiYuJr32vp9Mqa2gXz9N6R7wPpB-SdNsRH9703L8igoeGcDi8w7cwWeLpXVuXqpMQLFFASYLX-3mr6hXy-L0Wi_F-0toY-gcBMvOMrCDHpMU-AUoIo-syrGYUhEuNWYCLVBDSF2zQx9diHFS5exRW5akbzyzKjsG2LxL-h1KtE2VJBHh3DlXUgotgPqG-qtjHOvTfGI2r4X-9zpNV4M_TYmXaWpEAAgOjJtd5g8i9KMWHV9LnjuyhPhRJ2J03POkduJUM3cV0EwD_FUhxgRBLJPNUOOfyXzgxwtO1FUZ318vS0uwg2p4sjCrDUQOeeIS-LeyGUk-aeJccFHRzZT0hqpo3dZTDfgAPhBgfZt6scPq0KYzxU7S6fPdwJMAfvJjciQFeZHtHqtbuxG-G0nzFeqF75ko5FrzkRYMhJA5ip6Mk3d8rljxMoYX0GEr2-DVuGDPvU6jm9wb3V0467uLAj_I53dXSLtGeuVoCbbPpF6oN9DuWbGlig87AWzKzhsTD90hx6cAMFjPSumcKjR6Ge2Cffy7vV0ObbccrXtO2hfbbuUkR6UGeKr9t4TUfaZdN9Rnog-3uTWRK4i_tJTQhA_Txtlw-QO5blcY_S8sVZjaDyWDTGPJ7qbL0q-W56Vv5e0Svt4NbBoecBWVnveSXmeOqR8M5pALbEyO5ImI6llfT3WbALerg_Vtp5onjjU8btj3416c_GT7mYZ6MsTgS04LOCsFg4hEr9Ut9o8lcWOd63fegNcUuuynrDlOpUvckyxfQk_efQ8Q2xVrYqCA0-x2dqI6nkaQ81tr0peN0h9aK50OfI4CfbhKGX7dwxuWv8r6tyuSRq1waWF_WxBdPhxMacztL5V8SFzxDl-6mzkanHNj1NK3L2DP4M2GitQwFIqEjZJ3OspWKqLrST7hh9Fm_plut9ac3qOKv3GK6yu3MqBjBtpCufXZ4EaA_4xfFVm00]--></g></svg>