<svg xmlns="http://www.w3.org/2000/svg" xmlns:xlink="http://www.w3.org/1999/xlink" contentStyleType="text/css" data-diagram-type="DESCRIPTION" height="1051px" preserveAspectRatio="none" style="width:531px;height:1051px;background:#FFFFFF;" version="1.1" viewBox="0 0 531 1051" width="531px" zoomAndPan="magnify"><title>Deployment view</title><defs/><g><text fill="#000000" font-family="sans-serif" font-size="14" font-weight="bold" lengthAdjust="spacing" textLength="136.6504" x="190.1748" y="22.9951">Deployment view</text><!--cluster Application Layer--><g id="cluster_Application Layer"><polygon fill="transparent" points="16,802.2969,26,792.2969,230,792.2969,230,1024.2969,220,1034.2969,16,1034.2969,16,802.2969" style="stroke:#181818;stroke-width:1;"/><line style="stroke:#181818;stroke-width:1;" x1="220" x2="230" y1="802.2969" y2="792.2969"/><line style="stroke:#181818;stroke-width:1;" x1="16" x2="220" y1="802.2969" y2="802.2969"/><line style="stroke:#181818;stroke-width:1;" x1="220" x2="220" y1="802.2969" y2="1034.2969"/><text fill="#000000" font-family="sans-serif" font-size="14" font-weight="bold" lengthAdjust="spacing" textLength="138.0654" x="49.9673" y="818.292">Application Layer</text></g><!--cluster Application Layer\n(Diagnostics)--><g id="cluster_Application Layer\n(Diagnostics)"><polygon fill="transparent" points="254,786.2969,264,776.2969,468,776.2969,468,1024.2969,458,1034.2969,254,1034.2969,254,786.2969" style="stroke:#181818;stroke-width:1;"/><line style="stroke:#181818;stroke-width:1;" x1="458" x2="468" y1="786.2969" y2="776.2969"/><line style="stroke:#181818;stroke-width:1;" x1="254" x2="458" y1="786.2969" y2="786.2969"/><line style="stroke:#181818;stroke-width:1;" x1="458" x2="458" y1="786.2969" y2="1034.2969"/><text fill="#000000" font-family="sans-serif" font-size="14" font-weight="bold" lengthAdjust="spacing" textLength="138.0654" x="287.9673" y="802.292">Application Layer</text><text fill="#000000" font-family="sans-serif" font-size="14" font-weight="bold" lengthAdjust="spacing" textLength="104.7266" x="304.6367" y="818.5889">(Diagnostics)</text></g><!--cluster PTP Daemon--><g id="cluster_PTP Daemon"><polygon fill="transparent" points="140,53.2969,150,43.2969,315,43.2969,315,152.2969,305,162.2969,140,162.2969,140,53.2969" style="stroke:#181818;stroke-width:1;"/><line style="stroke:#181818;stroke-width:1;" x1="305" x2="315" y1="53.2969" y2="43.2969"/><line style="stroke:#181818;stroke-width:1;" x1="140" x2="305" y1="53.2969" y2="53.2969"/><line style="stroke:#181818;stroke-width:1;" x1="305" x2="305" y1="53.2969" y2="162.2969"/><text fill="#000000" font-family="sans-serif" font-size="14" font-weight="bold" lengthAdjust="spacing" textLength="99.6816" x="173.6592" y="69.292">PTP Daemon</text></g><!--cluster TimeDaemon--><g id="cluster_TimeDaemon"><polygon fill="transparent" points="110,236.2969,120,226.2969,514,226.2969,514,717.2969,504,727.2969,110,727.2969,110,236.2969" style="stroke:#181818;stroke-width:1;"/><line style="stroke:#181818;stroke-width:1;" x1="504" x2="514" y1="236.2969" y2="226.2969"/><line style="stroke:#181818;stroke-width:1;" x1="110" x2="504" y1="236.2969" y2="236.2969"/><line style="stroke:#181818;stroke-width:1;" x1="504" x2="504" y1="236.2969" y2="727.2969"/><text fill="#000000" font-family="sans-serif" font-size="14" font-weight="bold" lengthAdjust="spacing" textLength="103.168" x="256.416" y="252.292">TimeDaemon</text></g><!--entity app_bl--><g id="elem_app_bl"><rect fill="#F1F1F1" height="46.2969" rx="2.5" ry="2.5" style="stroke:#181818;stroke-width:0.5;" width="139.1143" x="74.5" y="972.2969"/><rect fill="#F1F1F1" height="10" style="stroke:#181818;stroke-width:0.5;" width="15" x="193.6143" y="977.2969"/><rect fill="#F1F1F1" height="2" style="stroke:#181818;stroke-width:0.5;" width="4" x="191.6143" y="979.2969"/><rect fill="#F1F1F1" height="2" style="stroke:#181818;stroke-width:0.5;" width="4" x="191.6143" y="983.2969"/><text fill="#000000" font-family="sans-serif" font-size="14" lengthAdjust="spacing" textLength="99.1143" x="89.5" y="1005.292">Business logic</text></g><!--entity mw--><g id="elem_mw"><rect fill="#F1F1F1" height="62.5938" rx="2.5" ry="2.5" style="stroke:#181818;stroke-width:0.5;" width="136.6533" x="75.5" y="832.2969"/><rect fill="#F1F1F1" height="10" style="stroke:#181818;stroke-width:0.5;" width="15" x="192.1533" y="837.2969"/><rect fill="#F1F1F1" height="2" style="stroke:#181818;stroke-width:0.5;" width="4" x="190.1533" y="839.2969"/><rect fill="#F1F1F1" height="2" style="stroke:#181818;stroke-width:0.5;" width="4" x="190.1533" y="843.2969"/><text fill="#000000" font-family="sans-serif" font-size="14" font-style="italic" lengthAdjust="spacing" textLength="62.3232" x="107.665" y="865.292">&#171;library&#187;</text><text fill="#000000" font-family="sans-serif" font-size="14" lengthAdjust="spacing" textLength="96.6533" x="90.5" y="881.5889">mw::time::svt</text></g><!--entity app_diag_bl--><g id="elem_app_diag_bl"><rect fill="#F1F1F1" height="46.2969" rx="2.5" ry="2.5" style="stroke:#181818;stroke-width:0.5;" width="139.1143" x="270.5" y="972.2969"/><rect fill="#F1F1F1" height="10" style="stroke:#181818;stroke-width:0.5;" width="15" x="389.6143" y="977.2969"/><rect fill="#F1F1F1" height="2" style="stroke:#181818;stroke-width:0.5;" width="4" x="387.6143" y="979.2969"/><rect fill="#F1F1F1" height="2" style="stroke:#181818;stroke-width:0.5;" width="4" x="387.6143" y="983.2969"/><text fill="#000000" font-family="sans-serif" font-size="14" lengthAdjust="spacing" textLength="99.1143" x="285.5" y="1005.292">Business logic</text></g><!--entity mw_qvt--><g id="elem_mw_qvt"><rect fill="#F1F1F1" height="62.5938" rx="2.5" ry="2.5" style="stroke:#181818;stroke-width:0.5;" width="138.2461" x="270" y="832.2969"/><rect fill="#F1F1F1" height="10" style="stroke:#181818;stroke-width:0.5;" width="15" x="388.2461" y="837.2969"/><rect fill="#F1F1F1" height="2" style="stroke:#181818;stroke-width:0.5;" width="4" x="386.2461" y="839.2969"/><rect fill="#F1F1F1" height="2" style="stroke:#181818;stroke-width:0.5;" width="4" x="386.2461" y="843.2969"/><text fill="#000000" font-family="sans-serif" font-size="14" font-style="italic" lengthAdjust="spacing" textLength="62.3232" x="302.9614" y="865.292">&#171;library&#187;</text><text fill="#000000" font-family="sans-serif" font-size="14" lengthAdjust="spacing" textLength="98.2461" x="285" y="881.5889">mw::time::qvt</text></g><!--entity ptpd--><g id="elem_ptpd"><rect fill="#F1F1F1" height="62.5938" rx="2.5" ry="2.5" style="stroke:#181818;stroke-width:0.5;" width="116.4365" x="169" y="83.2969"/><rect fill="#F1F1F1" height="10" style="stroke:#181818;stroke-width:0.5;" width="15" x="265.4365" y="88.2969"/><rect fill="#F1F1F1" height="2" style="stroke:#181818;stroke-width:0.5;" width="4" x="263.4365" y="90.2969"/><rect fill="#F1F1F1" height="2" style="stroke:#181818;stroke-width:0.5;" width="4" x="263.4365" y="94.2969"/><text fill="#000000" font-family="sans-serif" font-size="14" font-style="italic" lengthAdjust="spacing" textLength="74.4365" x="185" y="116.292">&#171;daemon&#187;</text><text fill="#000000" font-family="sans-serif" font-size="14" lengthAdjust="spacing" textLength="32.1494" x="206.1436" y="132.5889">ptpd</text></g><!--entity msg_broker--><g id="elem_msg_broker"><rect fill="#F1F1F1" height="46.2969" rx="2.5" ry="2.5" style="stroke:#181818;stroke-width:0.5;" width="147.7617" x="342" y="266.2969"/><rect fill="#F1F1F1" height="10" style="stroke:#181818;stroke-width:0.5;" width="15" x="469.7617" y="271.2969"/><rect fill="#F1F1F1" height="2" style="stroke:#181818;stroke-width:0.5;" width="4" x="467.7617" y="273.2969"/><rect fill="#F1F1F1" height="2" style="stroke:#181818;stroke-width:0.5;" width="4" x="467.7617" y="277.2969"/><text fill="#000000" font-family="sans-serif" font-size="14" lengthAdjust="spacing" textLength="107.7617" x="357" y="299.292">MessageBroker</text></g><!--entity verification_machine--><g id="elem_verification_machine"><rect fill="#F1F1F1" height="46.2969" rx="2.5" ry="2.5" style="stroke:#181818;stroke-width:0.5;" width="178.3525" x="138" y="389.2969"/><rect fill="#F1F1F1" height="10" style="stroke:#181818;stroke-width:0.5;" width="15" x="296.3525" y="394.2969"/><rect fill="#F1F1F1" height="2" style="stroke:#181818;stroke-width:0.5;" width="4" x="294.3525" y="396.2969"/><rect fill="#F1F1F1" height="2" style="stroke:#181818;stroke-width:0.5;" width="4" x="294.3525" y="400.2969"/><text fill="#000000" font-family="sans-serif" font-size="14" lengthAdjust="spacing" textLength="138.3525" x="153" y="422.292">VerificationMachine</text></g><!--entity qvt_machine--><g id="elem_qvt_machine"><rect fill="#F1F1F1" height="46.2969" rx="2.5" ry="2.5" style="stroke:#181818;stroke-width:0.5;" width="188.415" x="133" y="512.2969"/><rect fill="#F1F1F1" height="10" style="stroke:#181818;stroke-width:0.5;" width="15" x="301.415" y="517.2969"/><rect fill="#F1F1F1" height="2" style="stroke:#181818;stroke-width:0.5;" width="4" x="299.415" y="519.2969"/><rect fill="#F1F1F1" height="2" style="stroke:#181818;stroke-width:0.5;" width="4" x="299.415" y="523.2969"/><text fill="#000000" font-family="sans-serif" font-size="14" lengthAdjust="spacing" textLength="148.415" x="148" y="545.292">QualifiedVehicleTime</text></g><!--entity ptp_machine--><g id="elem_ptp_machine"><rect fill="#F1F1F1" height="46.2969" rx="2.5" ry="2.5" style="stroke:#181818;stroke-width:0.5;" width="130.0498" x="162" y="266.2969"/><rect fill="#F1F1F1" height="10" style="stroke:#181818;stroke-width:0.5;" width="15" x="272.0498" y="271.2969"/><rect fill="#F1F1F1" height="2" style="stroke:#181818;stroke-width:0.5;" width="4" x="270.0498" y="273.2969"/><rect fill="#F1F1F1" height="2" style="stroke:#181818;stroke-width:0.5;" width="4" x="270.0498" y="277.2969"/><text fill="#000000" font-family="sans-serif" font-size="14" lengthAdjust="spacing" textLength="90.0498" x="177" y="299.292">PTP machine</text></g><!--entity ipc--><g id="elem_ipc"><rect fill="#F1F1F1" height="46.2969" rx="2.5" ry="2.5" style="stroke:#181818;stroke-width:0.5;" width="62.3467" x="128" y="665.2969"/><rect fill="#F1F1F1" height="10" style="stroke:#181818;stroke-width:0.5;" width="15" x="170.3467" y="670.2969"/><rect fill="#F1F1F1" height="2" style="stroke:#181818;stroke-width:0.5;" width="4" x="168.3467" y="672.2969"/><rect fill="#F1F1F1" height="2" style="stroke:#181818;stroke-width:0.5;" width="4" x="168.3467" y="676.2969"/><text fill="#000000" font-family="sans-serif" font-size="14" lengthAdjust="spacing" textLength="22.3467" x="143" y="698.292">IPC</text></g><!--entity ipc_qvt--><g id="elem_ipc_qvt"><rect fill="#F1F1F1" height="46.2969" rx="2.5" ry="2.5" style="stroke:#181818;stroke-width:0.5;" width="98.4951" x="267" y="665.2969"/><rect fill="#F1F1F1" height="10" style="stroke:#181818;stroke-width:0.5;" width="15" x="345.4951" y="670.2969"/><rect fill="#F1F1F1" height="2" style="stroke:#181818;stroke-width:0.5;" width="4" x="343.4951" y="672.2969"/><rect fill="#F1F1F1" height="2" style="stroke:#181818;stroke-width:0.5;" width="4" x="343.4951" y="676.2969"/><text fill="#000000" font-family="sans-serif" font-size="14" lengthAdjust="spacing" textLength="58.4951" x="282" y="698.292">IPC_QVT</text></g><!--link ptpd to ptp_machine--><g id="link_ptpd_ptp_machine"><path d="M227,146.6369 C227,181.0369 227,229.8369 227,260.2069 " fill="transparent" id="ptpd-to-ptp_machine" style="stroke:#0000FF;stroke-width:1;"/><polygon fill="#0000FF" points="227,266.2069,231,257.2069,227,261.2069,223,257.2069,227,266.2069" style="stroke:#0000FF;stroke-width:1;"/><text fill="#000000" font-family="sans-serif" font-size="13" lengthAdjust="spacing" textLength="113.8325" x="248.2871" y="191.3638">PTP time updates</text><text fill="#000000" font-family="sans-serif" font-size="13" lengthAdjust="spacing" textLength="154.4067" x="228" y="206.4966">(via shmem and devctl)</text></g><!--link ptp_machine to verification_machine--><g id="link_ptp_machine_verification_machine"><path d="M227,312.4869 C227,334.3269 227,361.4569 227,383.2469 " fill="transparent" id="ptp_machine-to-verification_machine" style="stroke:#008000;stroke-width:1;"/><polygon fill="#008000" points="227,389.2469,231,380.2469,227,384.2469,223,380.2469,227,389.2469" style="stroke:#008000;stroke-width:1;"/><text fill="#000000" font-family="sans-serif" font-size="13" lengthAdjust="spacing" textLength="111.6045" x="228" y="355.3638">Time information</text></g><!--link verification_machine to qvt_machine--><g id="link_verification_machine_qvt_machine"><path d="M227,435.4869 C227,457.3269 227,484.4569 227,506.2469 " fill="transparent" id="verification_machine-to-qvt_machine" style="stroke:#008000;stroke-width:1;"/><polygon fill="#008000" points="227,512.2469,231,503.2469,227,507.2469,223,503.2469,227,512.2469" style="stroke:#008000;stroke-width:1;"/><text fill="#000000" font-family="sans-serif" font-size="13" lengthAdjust="spacing" textLength="111.6045" x="228" y="478.3638">Time information</text></g><!--link qvt_machine to ipc--><g id="link_qvt_machine_ipc"><path d="M184.82,558.5569 C174.11,566.4269 163.96,576.3469 158,588.2969 C145.96,612.4469 147.8784,638.3244 152.0884,659.2844 " fill="transparent" id="qvt_machine-to-ipc" style="stroke:#008000;stroke-width:1;"/><polygon fill="#008000" points="153.27,665.1669,155.4193,655.5554,152.2854,660.2648,147.576,657.1308,153.27,665.1669" style="stroke:#008000;stroke-width:1;"/><text fill="#000000" font-family="sans-serif" font-size="13" lengthAdjust="spacing" textLength="111.6045" x="159" y="616.3638">Time information</text></g><!--link qvt_machine to ipc_qvt--><g id="link_qvt_machine_ipc_qvt"><path d="M250.64,558.3969 C259.08,567.1369 268.18,577.6369 275,588.2969 C290.64,612.7469 300.5665,638.4569 307.4065,659.2669 " fill="transparent" id="qvt_machine-to-ipc_qvt" style="stroke:#008000;stroke-width:1;"/><polygon fill="#008000" points="309.28,664.9669,310.2697,655.1679,307.7187,660.2169,302.6697,657.6659,309.28,664.9669" style="stroke:#008000;stroke-width:1;"/><text fill="#000000" font-family="sans-serif" font-size="13" lengthAdjust="spacing" textLength="160.1895" x="309.0513" y="601.3638">Diag-related information</text><text fill="#000000" font-family="sans-serif" font-size="13" lengthAdjust="spacing" textLength="182.292" x="298" y="616.4966">for DTC and communication</text><text fill="#000000" font-family="sans-serif" font-size="13" lengthAdjust="spacing" textLength="124.2173" x="327.0374" y="631.6294">to central validator</text></g><!--link ipc_qvt to mw_qvt--><g id="link_ipc_qvt_mw_qvt"><path d="M318.96,711.6269 C323.02,742.2869 329.5613,791.5889 334.1413,826.1289 " fill="transparent" id="ipc_qvt-to-mw_qvt" style="stroke:#008000;stroke-width:1;"/><polygon fill="#008000" points="334.93,832.0769,337.7122,822.6292,334.2728,827.1203,329.7817,823.6808,334.93,832.0769" style="stroke:#008000;stroke-width:1;"/><text fill="#000000" font-family="sans-serif" font-size="13" lengthAdjust="spacing" textLength="38.4541" x="325" y="756.3638">Now()</text></g><!--link mw_qvt to app_diag_bl--><g id="link_mw_qvt_app_diag_bl"><path d="M339.24,895.4869 C339.42,918.9769 339.6117,944.8171 339.7817,965.9271 " fill="transparent" id="mw_qvt-to-app_diag_bl" style="stroke:#FFA500;stroke-width:1;"/><polygon fill="#FFA500" points="339.83,971.9269,343.7574,962.895,339.7897,966.927,335.7577,962.9594,339.83,971.9269" style="stroke:#FFA500;stroke-width:1;"/><text fill="#000000" font-family="sans-serif" font-size="13" lengthAdjust="spacing" textLength="38.4541" x="340" y="938.3638">Now()</text></g><!--link ipc to mw--><g id="link_ipc_mw"><path d="M157.07,711.6269 C154.42,742.2869 150.1557,791.5591 147.1757,826.0991 " fill="transparent" id="ipc-to-mw" style="stroke:#008000;stroke-width:1;"/><polygon fill="#008000" points="146.66,832.0769,151.4188,823.454,147.0898,827.0954,143.4484,822.7664,146.66,832.0769" style="stroke:#008000;stroke-width:1;"/><text fill="#000000" font-family="sans-serif" font-size="13" lengthAdjust="spacing" textLength="111.6045" x="155" y="756.3638">Time information</text></g><!--link mw to app_bl--><g id="link_mw_app_bl"><path d="M144,895.4869 C144,918.9769 144,944.8169 144,965.9269 " fill="transparent" id="mw-to-app_bl" style="stroke:#FFA500;stroke-width:1;"/><polygon fill="#FFA500" points="144,971.9269,148,962.9269,144,966.9269,140,962.9269,144,971.9269" style="stroke:#FFA500;stroke-width:1;"/><text fill="#000000" font-family="sans-serif" font-size="13" lengthAdjust="spacing" textLength="38.4541" x="145" y="938.3638">Now()</text></g><!--SRC=[bLFBJkim4DtdAqQmeOl-G8Gg0TqW0IfIrGsjAjSUKWk_i9r45UBV6STjIRX1LsILp9p7dB4JPLG8StJA7ZIQ28t4jYYC5GWNDyufoLcKri03Ew2_W8y2w7cvhOCq608eMqc-0HQ0ERVTgTpMRLb6gR4iGnCtS7sjvCupVvZD4bAtnUUl5cjpDPUiCZP4oSFaVuw2i2EsxwEsMof_Mo-M2vWprDQSJLnq8l54LywqLFicBKd-1-cHfc8LtdhxXdu3dLMWeRhl35cXbw_7c8-Cxob91ZQznbRdJgOyrqnH2yKAzv8hJCQPGo66q1H4drJpn4F0_UAkQqZ7puNjysfvAfxsagB2zELofshSJ6Tz8IWXsQJjGkq4YnZef1h98EmrQc16WC26HpKf-ZHIgpoYIN9ZOKj8mK2QL-jrrod6O0ETtW96wBtkW4Kv_uPEMoaXNSQfHqM9HP-vJgymNzvrqRdLkZR7eTScMk3qCtcceA5Zf7LPNnmb1pRvJj9odsnxDIcEduImdfcgEuJUBJ_ZIEg7p4WqtVuhrDFu0W00]--></g></svg>