<svg xmlns="http://www.w3.org/2000/svg" xmlns:xlink="http://www.w3.org/1999/xlink" contentStyleType="text/css" data-diagram-type="CLASS" height="839px" preserveAspectRatio="none" style="width:1546px;height:839px;background:#FFFFFF;" version="1.1" viewBox="0 0 1546 839" width="1546px" zoomAndPan="magnify"><title>libTSClient Shared Memory IPC</title><defs/><g><text fill="#000000" font-family="Verdana" font-size="22" font-weight="bold" lengthAdjust="spacing" textLength="385.3545" x="575.8237" y="35.4209">libTSClient Shared Memory IPC</text><rect fill="transparent" height="79.1875" id="_legend" rx="7.5" ry="7.5" style="stroke:#000000;stroke-width:1;" width="302.3115" x="10" y="56.6094"/><text fill="#000000" font-family="Verdana" font-size="14" font-weight="bold" lengthAdjust="spacing" textLength="41.2139" x="19.874" y="76.6045">Color</text><text fill="#000000" font-family="Verdana" font-size="14" font-weight="bold" lengthAdjust="spacing" textLength="90.5488" x="114.7021" y="76.6045">Description</text><rect fill="#FFB6C1" height="16.2969" style="stroke:transparent;stroke-width:1;" width="94.8281" x="15" y="79.9063"/><text fill="#000000" font-family="Verdana" font-size="14" lengthAdjust="spacing" textLength="17.8008" x="15" y="92.9014">&#160;&#160;&#160;&#160;</text><text fill="#000000" font-family="Verdana" font-size="14" lengthAdjust="spacing" textLength="113.292" x="114.2783" y="92.9014">IPC components</text><rect fill="#E0FFFF" height="16.2969" style="stroke:transparent;stroke-width:1;" width="94.8281" x="15" y="96.2031"/><text fill="#000000" font-family="Verdana" font-size="14" lengthAdjust="spacing" textLength="17.8008" x="15" y="109.1982">&#160;&#160;&#160;&#160;</text><text fill="#000000" font-family="Verdana" font-size="14" lengthAdjust="spacing" textLength="161.5742" x="114.2783" y="109.1982">Shared memory region</text><rect fill="#FFA07A" height="16.2969" style="stroke:transparent;stroke-width:1;" width="94.8281" x="15" y="112.5"/><text fill="#000000" font-family="Verdana" font-size="14" lengthAdjust="spacing" textLength="8.9004" x="15" y="125.4951">&#160;&#160;</text><text fill="#000000" font-family="Verdana" font-size="14" lengthAdjust="spacing" textLength="152.9814" x="114.2783" y="125.4951">TimeDaemon adapter</text><line style="stroke:#000000;stroke-width:1;" x1="15" x2="307.3115" y1="63.6094" y2="63.6094"/><line style="stroke:#000000;stroke-width:1;" x1="15" x2="307.3115" y1="79.9063" y2="79.9063"/><line style="stroke:#000000;stroke-width:1;" x1="15" x2="307.3115" y1="96.2031" y2="96.2031"/><line style="stroke:#000000;stroke-width:1;" x1="15" x2="307.3115" y1="112.5" y2="112.5"/><line style="stroke:#000000;stroke-width:1;" x1="15" x2="307.3115" y1="128.7969" y2="128.7969"/><line style="stroke:#000000;stroke-width:1;" x1="15" x2="15" y1="63.6094" y2="128.7969"/><line style="stroke:#000000;stroke-width:1;" x1="109.8281" x2="109.8281" y1="63.6094" y2="128.7969"/><line style="stroke:#000000;stroke-width:1;" x1="307.3115" x2="307.3115" y1="63.6094" y2="128.7969"/><!--cluster TimeSlave Process--><g id="cluster_TimeSlave Process"><path d="M13.5,370.7969 L161.999,370.7969 A3.75,3.75 0 0 1 164.499,373.2969 L171.499,393.0938 L456.5,393.0938 A2.5,2.5 0 0 1 459,395.5938 L459,561.2969 A2.5,2.5 0 0 1 456.5,563.7969 L13.5,563.7969 A2.5,2.5 0 0 1 11,561.2969 L11,373.2969 A2.5,2.5 0 0 1 13.5,370.7969 " fill="#FFFFFF" style="stroke:#000000;stroke-width:1;"/><line style="stroke:#000000;stroke-width:1;" x1="11" x2="171.499" y1="393.0938" y2="393.0938"/><text fill="#000000" font-family="Verdana" font-size="14" font-weight="bold" lengthAdjust="spacing" textLength="147.499" x="15" y="385.792">TimeSlave Process</text></g><!--cluster Shared Memory--><g id="cluster_Shared Memory"><path d="M334.5,627.7969 L459.9551,627.7969 A3.75,3.75 0 0 1 462.4551,630.2969 L469.4551,650.0938 L679.5,650.0938 A2.5,2.5 0 0 1 682,652.5938 L682,830.2969 A2.5,2.5 0 0 1 679.5,832.7969 L334.5,832.7969 A2.5,2.5 0 0 1 332,830.2969 L332,630.2969 A2.5,2.5 0 0 1 334.5,627.7969 " fill="#FFFFFF" style="stroke:#000000;stroke-width:1;"/><line style="stroke:#000000;stroke-width:1;" x1="332" x2="469.4551" y1="650.0938" y2="650.0938"/><text fill="#000000" font-family="Verdana" font-size="14" font-weight="bold" lengthAdjust="spacing" textLength="124.4551" x="336" y="642.792">Shared Memory</text></g><!--cluster TimeDaemon Process--><g id="cluster_TimeDaemon Process"><path d="M485.5,147.7969 L655.7852,147.7969 A3.75,3.75 0 0 1 658.2852,150.2969 L665.2852,170.0938 L928.5,170.0938 A2.5,2.5 0 0 1 931,172.5938 L931,552.7969 A2.5,2.5 0 0 1 928.5,555.2969 L485.5,555.2969 A2.5,2.5 0 0 1 483,552.7969 L483,150.2969 A2.5,2.5 0 0 1 485.5,147.7969 " fill="#FFFFFF" style="stroke:#000000;stroke-width:1;"/><line style="stroke:#000000;stroke-width:1;" x1="483" x2="665.2852" y1="170.0938" y2="170.0938"/><text fill="#000000" font-family="Verdana" font-size="14" font-weight="bold" lengthAdjust="spacing" textLength="169.2852" x="487" y="162.792">TimeDaemon Process</text></g><!--class GptpIpcPublisher--><g id="elem_GptpIpcPublisher"><rect codeLine="13" fill="#FFB6C1" height="141.7813" id="GptpIpcPublisher" rx="2.5" ry="2.5" style="stroke:#000000;stroke-width:1;" width="416.9844" x="26.5" y="405.7969"/><ellipse cx="171.5713" cy="419.7969" fill="#FFFFFF" rx="9" ry="9" style="stroke:#000000;stroke-width:1;"/><path d="M174.54,425.4375 Q173.9619,425.7344 173.3213,425.875 Q172.6807,426.0313 171.9775,426.0313 Q169.4775,426.0313 168.1494,424.3906 Q166.8369,422.7344 166.8369,419.6094 Q166.8369,416.4844 168.1494,414.8281 Q169.4775,413.1719 171.9775,413.1719 Q172.6807,413.1719 173.3213,413.3281 Q173.9775,413.4844 174.54,413.7813 L174.54,416.5 Q173.915,415.9219 173.3213,415.6563 Q172.7275,415.375 172.1025,415.375 Q170.7588,415.375 170.0713,416.4531 Q169.3838,417.5156 169.3838,419.6094 Q169.3838,421.7031 170.0713,422.7813 Q170.7588,423.8438 172.1025,423.8438 Q172.7275,423.8438 173.3213,423.5781 Q173.915,423.2969 174.54,422.7188 L174.54,425.4375 Z " fill="#000000"/><text fill="#000000" font-family="Verdana" font-size="14" lengthAdjust="spacing" textLength="119.3418" x="189.0713" y="424.6436">GptpIpcPublisher</text><line style="stroke:#000000;stroke-width:1;" x1="27.5" x2="442.4844" y1="433.7969" y2="433.7969"/><rect fill="transparent" height="6" style="stroke:#000000;stroke-width:1;" width="6" x="34.5" y="444.4453"/><text fill="#000000" font-family="Verdana" font-size="14" lengthAdjust="spacing" textLength="175.5811" x="44.5" y="450.792">region_ : GptpIpcRegion*</text><rect fill="transparent" height="6" style="stroke:#000000;stroke-width:1;" width="6" x="34.5" y="460.7422"/><text fill="#000000" font-family="Verdana" font-size="14" lengthAdjust="spacing" textLength="392.9844" x="44.5" y="467.0889">shm_resource_ : shared_ptr&lt;ISharedMemoryResource&gt;</text><rect fill="transparent" height="6" style="stroke:#000000;stroke-width:1;" width="6" x="34.5" y="477.0391"/><text fill="#000000" font-family="Verdana" font-size="14" lengthAdjust="spacing" textLength="127.9824" x="44.5" y="483.3857">ipc_name_ : string</text><line style="stroke:#000000;stroke-width:1;" x1="27.5" x2="442.4844" y1="490.6875" y2="490.6875"/><ellipse cx="37.5" cy="504.3359" fill="#FFFFFF" rx="3" ry="3" style="stroke:#000000;stroke-width:1;"/><text fill="#000000" font-family="Verdana" font-size="14" lengthAdjust="spacing" textLength="116.5322" x="44.5" y="507.6826">Init(name) : bool</text><ellipse cx="37.5" cy="520.6328" fill="#FFFFFF" rx="3" ry="3" style="stroke:#000000;stroke-width:1;"/><text fill="#000000" font-family="Verdana" font-size="14" lengthAdjust="spacing" textLength="237.7197" x="44.5" y="523.9795">Publish(data : GptpIpcData) : void</text><ellipse cx="37.5" cy="536.9297" fill="#FFFFFF" rx="3" ry="3" style="stroke:#000000;stroke-width:1;"/><text fill="#000000" font-family="Verdana" font-size="14" lengthAdjust="spacing" textLength="108.9512" x="44.5" y="540.2764">Destroy() : void</text></g><!--class GptpIpcRegion--><g id="elem_GptpIpcRegion"><rect codeLine="24" fill="#E0FFFF" height="154.0469" id="GptpIpcRegion" rx="2.5" ry="2.5" style="stroke:#000000;stroke-width:1;" width="318.1367" x="348" y="662.7969"/><ellipse cx="451.6284" cy="682.9297" fill="#FFFFFF" rx="9" ry="9" style="stroke:#000000;stroke-width:1;"/><path d="M454.5972,688.5703 Q454.019,688.8672 453.3784,689.0078 Q452.7378,689.1641 452.0347,689.1641 Q449.5347,689.1641 448.2065,687.5234 Q446.894,685.8672 446.894,682.7422 Q446.894,679.6172 448.2065,677.9609 Q449.5347,676.3047 452.0347,676.3047 Q452.7378,676.3047 453.3784,676.4609 Q454.0347,676.6172 454.5972,676.9141 L454.5972,679.6328 Q453.9722,679.0547 453.3784,678.7891 Q452.7847,678.5078 452.1597,678.5078 Q450.8159,678.5078 450.1284,679.5859 Q449.4409,680.6484 449.4409,682.7422 Q449.4409,684.8359 450.1284,685.9141 Q450.8159,686.9766 452.1597,686.9766 Q452.7847,686.9766 453.3784,686.7109 Q453.9722,686.4297 454.5972,685.8516 L454.5972,688.5703 Z " fill="#000000"/><text fill="#000000" font-family="Verdana" font-size="12" font-style="italic" lengthAdjust="spacing" textLength="83.6895" x="478.9736" y="678.9355">&#171;aligned(64)&#187;</text><text fill="#000000" font-family="Verdana" font-size="14" lengthAdjust="spacing" textLength="103.3799" x="469.1284" y="694.7607">GptpIpcRegion</text><line style="stroke:#000000;stroke-width:1;" x1="349" x2="665.1367" y1="703.0625" y2="703.0625"/><ellipse cx="359" cy="716.7109" fill="transparent" rx="3" ry="3" style="stroke:#000000;stroke-width:1;"/><text fill="#000000" font-family="Verdana" font-size="14" lengthAdjust="spacing" textLength="294.1367" x="366" y="720.0576">magic : atomic&lt;uint32_t&gt; = 0x47505450</text><ellipse cx="359" cy="733.0078" fill="transparent" rx="3" ry="3" style="stroke:#000000;stroke-width:1;"/><text fill="#000000" font-family="Verdana" font-size="14" lengthAdjust="spacing" textLength="167.1592" x="366" y="736.3545">seq : atomic&lt;uint32_t&gt;</text><ellipse cx="359" cy="749.3047" fill="transparent" rx="3" ry="3" style="stroke:#000000;stroke-width:1;"/><text fill="#000000" font-family="Verdana" font-size="14" lengthAdjust="spacing" textLength="133.4033" x="366" y="752.6514">data : GptpIpcData</text><ellipse cx="359" cy="765.6016" fill="transparent" rx="3" ry="3" style="stroke:#000000;stroke-width:1;"/><text fill="#000000" font-family="Verdana" font-size="14" lengthAdjust="spacing" textLength="227.5068" x="366" y="768.9482">seq_confirm : atomic&lt;uint32_t&gt;</text><line style="stroke:#000000;stroke-width:1;" x1="349" x2="665.1367" y1="776.25" y2="776.25"/><text fill="#000000" font-family="Verdana" font-size="14" lengthAdjust="spacing" textLength="133.9092" x="354" y="793.2451">64-byte aligned for</text><text fill="#000000" font-family="Verdana" font-size="14" lengthAdjust="spacing" textLength="143.042" x="354" y="809.542">cache line efficiency</text></g><!--class GptpIpcReceiver--><g id="elem_GptpIpcReceiver"><rect codeLine="35" fill="#FFB6C1" height="125.4844" id="GptpIpcReceiver" rx="2.5" ry="2.5" style="stroke:#000000;stroke-width:1;" width="416.9844" x="498.5" y="414.2969"/><ellipse cx="645.2324" cy="428.2969" fill="#FFFFFF" rx="9" ry="9" style="stroke:#000000;stroke-width:1;"/><path d="M648.2012,433.9375 Q647.623,434.2344 646.9824,434.375 Q646.3418,434.5313 645.6387,434.5313 Q643.1387,434.5313 641.8105,432.8906 Q640.498,431.2344 640.498,428.1094 Q640.498,424.9844 641.8105,423.3281 Q643.1387,421.6719 645.6387,421.6719 Q646.3418,421.6719 646.9824,421.8281 Q647.6387,421.9844 648.2012,422.2813 L648.2012,425 Q647.5762,424.4219 646.9824,424.1563 Q646.3887,423.875 645.7637,423.875 Q644.4199,423.875 643.7324,424.9531 Q643.0449,426.0156 643.0449,428.1094 Q643.0449,430.2031 643.7324,431.2813 Q644.4199,432.3438 645.7637,432.3438 Q646.3887,432.3438 646.9824,432.0781 Q647.5762,431.7969 648.2012,431.2188 L648.2012,433.9375 Z " fill="#000000"/><text fill="#000000" font-family="Verdana" font-size="14" lengthAdjust="spacing" textLength="116.0195" x="662.7324" y="433.1436">GptpIpcReceiver</text><line style="stroke:#000000;stroke-width:1;" x1="499.5" x2="914.4844" y1="442.2969" y2="442.2969"/><rect fill="transparent" height="6" style="stroke:#000000;stroke-width:1;" width="6" x="506.5" y="452.9453"/><text fill="#000000" font-family="Verdana" font-size="14" lengthAdjust="spacing" textLength="217.9502" x="516.5" y="459.292">region_ : const GptpIpcRegion*</text><rect fill="transparent" height="6" style="stroke:#000000;stroke-width:1;" width="6" x="506.5" y="469.2422"/><text fill="#000000" font-family="Verdana" font-size="14" lengthAdjust="spacing" textLength="392.9844" x="516.5" y="475.5889">shm_resource_ : shared_ptr&lt;ISharedMemoryResource&gt;</text><line style="stroke:#000000;stroke-width:1;" x1="499.5" x2="914.4844" y1="482.8906" y2="482.8906"/><ellipse cx="509.5" cy="496.5391" fill="#FFFFFF" rx="3" ry="3" style="stroke:#000000;stroke-width:1;"/><text fill="#000000" font-family="Verdana" font-size="14" lengthAdjust="spacing" textLength="116.5322" x="516.5" y="499.8857">Init(name) : bool</text><ellipse cx="509.5" cy="512.8359" fill="#FFFFFF" rx="3" ry="3" style="stroke:#000000;stroke-width:1;"/><text fill="#000000" font-family="Verdana" font-size="14" lengthAdjust="spacing" textLength="279.5352" x="516.5" y="516.1826">Receive() : std::optional&lt;GptpIpcData&gt;</text><ellipse cx="509.5" cy="529.1328" fill="#FFFFFF" rx="3" ry="3" style="stroke:#000000;stroke-width:1;"/><text fill="#000000" font-family="Verdana" font-size="14" lengthAdjust="spacing" textLength="92.3057" x="516.5" y="532.4795">Close() : void</text></g><!--class ShmPTPEngine--><g id="elem_ShmPTPEngine"><rect codeLine="43" fill="#FFA07A" height="125.4844" id="ShmPTPEngine" rx="2.5" ry="2.5" style="stroke:#000000;stroke-width:1;" width="339.9365" x="575" y="182.7969"/><ellipse cx="688.8105" cy="196.7969" fill="#FFFFFF" rx="9" ry="9" style="stroke:#000000;stroke-width:1;"/><path d="M691.7793,202.4375 Q691.2012,202.7344 690.5605,202.875 Q689.9199,203.0313 689.2168,203.0313 Q686.7168,203.0313 685.3887,201.3906 Q684.0762,199.7344 684.0762,196.6094 Q684.0762,193.4844 685.3887,191.8281 Q686.7168,190.1719 689.2168,190.1719 Q689.9199,190.1719 690.5605,190.3281 Q691.2168,190.4844 691.7793,190.7813 L691.7793,193.5 Q691.1543,192.9219 690.5605,192.6563 Q689.9668,192.375 689.3418,192.375 Q687.998,192.375 687.3105,193.4531 Q686.623,194.5156 686.623,196.6094 Q686.623,198.7031 687.3105,199.7813 Q687.998,200.8438 689.3418,200.8438 Q689.9668,200.8438 690.5605,200.5781 Q691.1543,200.2969 691.7793,199.7188 L691.7793,202.4375 Z " fill="#000000"/><text fill="#000000" font-family="Verdana" font-size="14" lengthAdjust="spacing" textLength="104.8154" x="706.3105" y="201.6436">ShmPTPEngine</text><line style="stroke:#000000;stroke-width:1;" x1="576" x2="913.9365" y1="210.7969" y2="210.7969"/><rect fill="transparent" height="6" style="stroke:#000000;stroke-width:1;" width="6" x="583" y="221.4453"/><text fill="#000000" font-family="Verdana" font-size="14" lengthAdjust="spacing" textLength="193.8604" x="593" y="227.792">receiver_ : GptpIpcReceiver</text><rect fill="transparent" height="6" style="stroke:#000000;stroke-width:1;" width="6" x="583" y="237.7422"/><text fill="#000000" font-family="Verdana" font-size="14" lengthAdjust="spacing" textLength="127.9824" x="593" y="244.0889">ipc_name_ : string</text><line style="stroke:#000000;stroke-width:1;" x1="576" x2="913.9365" y1="251.3906" y2="251.3906"/><ellipse cx="586" cy="265.0391" fill="#FFFFFF" rx="3" ry="3" style="stroke:#000000;stroke-width:1;"/><text fill="#000000" font-family="Verdana" font-size="14" lengthAdjust="spacing" textLength="113.0391" x="593" y="268.3857">Initialize() : bool</text><ellipse cx="586" cy="281.3359" fill="#FFFFFF" rx="3" ry="3" style="stroke:#000000;stroke-width:1;"/><text fill="#000000" font-family="Verdana" font-size="14" lengthAdjust="spacing" textLength="132.1934" x="593" y="284.6826">Deinitialize() : bool</text><ellipse cx="586" cy="297.6328" fill="#FFFFFF" rx="3" ry="3" style="stroke:#000000;stroke-width:1;"/><text fill="#000000" font-family="Verdana" font-size="14" lengthAdjust="spacing" textLength="315.9365" x="593" y="300.9795">ReadPTPSnapshot(info : PtpTimeInfo&amp;) : bool</text></g><!--class PtpTimeInfo--><g id="elem_PtpTimeInfo"><rect fill="#FFFFFF" height="44" id="PtpTimeInfo" rx="2.5" ry="2.5" style="stroke:#000000;stroke-width:1;" width="112.0068" x="950" y="454.7969"/><ellipse cx="963" cy="468.7969" fill="#FFFFFF" rx="9" ry="9" style="stroke:#000000;stroke-width:1;"/><path d="M965.9688,474.4375 Q965.3906,474.7344 964.75,474.875 Q964.1094,475.0313 963.4063,475.0313 Q960.9063,475.0313 959.5781,473.3906 Q958.2656,471.7344 958.2656,468.6094 Q958.2656,465.4844 959.5781,463.8281 Q960.9063,462.1719 963.4063,462.1719 Q964.1094,462.1719 964.75,462.3281 Q965.4063,462.4844 965.9688,462.7813 L965.9688,465.5 Q965.3438,464.9219 964.75,464.6563 Q964.1563,464.375 963.5313,464.375 Q962.1875,464.375 961.5,465.4531 Q960.8125,466.5156 960.8125,468.6094 Q960.8125,470.7031 961.5,471.7813 Q962.1875,472.8438 963.5313,472.8438 Q964.1563,472.8438 964.75,472.5781 Q965.3438,472.2969 965.9688,471.7188 L965.9688,474.4375 Z " fill="#000000"/><text fill="#000000" font-family="Verdana" font-size="14" lengthAdjust="spacing" textLength="84.0068" x="975" y="473.6436">PtpTimeInfo</text><line style="stroke:#000000;stroke-width:1;" x1="951" x2="1061.0068" y1="482.7969" y2="482.7969"/><line style="stroke:#000000;stroke-width:1;" x1="951" x2="1061.0068" y1="490.7969" y2="490.7969"/></g><g id="elem_GMN14"><path d="M701.5,696.7969 L701.5,735.7969 L666.41,739.7969 L701.5,743.7969 L701.5,782.4609 A0,0 0 0 0 701.5,782.4609 L1204.7759,782.4609 A0,0 0 0 0 1204.7759,782.4609 L1204.7759,706.7969 L1194.7759,696.7969 L701.5,696.7969 A0,0 0 0 0 701.5,696.7969 " fill="#FFFFFF" style="stroke:#000000;stroke-width:1;"/><path d="M1194.7759,696.7969 L1194.7759,706.7969 L1204.7759,706.7969 L1194.7759,696.7969 " fill="#FFFFFF" style="stroke:#000000;stroke-width:1;"/><text fill="#000000" font-family="Verdana" font-size="13" font-weight="bold" lengthAdjust="spacing" textLength="128.0576" x="707.5" y="713.8638">Seqlock Protocol:</text><text fill="#000000" font-family="Verdana" font-size="13" lengthAdjust="spacing" textLength="482.2759" x="707.5" y="728.9966">Writer: seq++ (odd) &#8594; fence &#8594; memcpy &#8594; seq_confirm++, seq++ (even)</text><text fill="#000000" font-family="Verdana" font-size="13" lengthAdjust="spacing" textLength="420.6909" x="707.5" y="744.1294">Reader: read seq1 (even) &#8594; memcpy &#8594; fence &#8594; read seq2, seq3</text><text fill="#000000" font-family="Verdana" font-size="13" lengthAdjust="spacing" textLength="243.4072" x="740.5586" y="759.2622">retry if seq1 != seq2 or seq1 != seq3</text><text fill="#000000" font-family="Verdana" font-size="13" lengthAdjust="spacing" textLength="218.7085" x="707.5" y="774.395">Retry up to 20 times on torn read</text></g><g id="elem_GMN17"><path d="M1097,456.7969 L1097,497.0625 L1539.002,497.0625 L1539.002,466.7969 L1529.002,456.7969 L1097,456.7969 " fill="#FFFFFF" style="stroke:#000000;stroke-width:1;"/><path d="M1529.002,456.7969 L1529.002,466.7969 L1539.002,466.7969 L1529.002,456.7969 " fill="#FFFFFF" style="stroke:#000000;stroke-width:1;"/><text fill="#000000" font-family="Verdana" font-size="13" lengthAdjust="spacing" textLength="262.6978" x="1103" y="473.8638">Maps GptpIpcData fields to PtpTimeInfo.</text><text fill="#000000" font-family="Verdana" font-size="13" lengthAdjust="spacing" textLength="421.002" x="1103" y="488.9966">Instantiated as GPTPShmMachine via CreateGPTPShmMachine().</text></g><!--link GptpIpcPublisher to GptpIpcRegion--><g id="link_GptpIpcPublisher_GptpIpcRegion"><path codeLine="52" d="M308.25,548.0869 C345.07,583.4169 385.4209,622.1325 423.0809,658.2725 " fill="transparent" id="GptpIpcPublisher-to-GptpIpcRegion" style="stroke:#000000;stroke-width:1;"/><polygon fill="#000000" points="427.41,662.4269,423.6859,653.3092,423.8024,658.9649,418.1468,659.0814,427.41,662.4269" style="stroke:#000000;stroke-width:1;"/><text fill="#000000" font-family="Verdana" font-size="13" lengthAdjust="spacing" textLength="136.6523" x="372" y="592.8638">shm_open(O_CREAT)</text><text fill="#000000" font-family="Verdana" font-size="13" lengthAdjust="spacing" textLength="135.1099" x="372.7712" y="607.9966">mmap(PROT_WRITE)</text></g><!--link GptpIpcReceiver to GptpIpcRegion--><g id="link_GptpIpcReceiver_GptpIpcRegion"><path codeLine="53" d="M659.86,539.3169 C631.56,576.2469 598.9997,618.7446 568.9197,657.9946 " fill="transparent" id="GptpIpcReceiver-to-GptpIpcRegion" style="stroke:#000000;stroke-width:1;"/><polygon fill="#000000" points="565.27,662.7569,573.9194,658.0465,568.3114,658.7883,567.5697,653.1803,565.27,662.7569" style="stroke:#000000;stroke-width:1;"/><text fill="#000000" font-family="Verdana" font-size="13" lengthAdjust="spacing" textLength="147.6782" x="626" y="592.8638">shm_open(O_RDONLY)</text><text fill="#000000" font-family="Verdana" font-size="13" lengthAdjust="spacing" textLength="129.3843" x="635.147" y="607.9966">mmap(PROT_READ)</text></g><!--reverse link ShmPTPEngine to GptpIpcReceiver--><g id="link_ShmPTPEngine_GptpIpcReceiver"><path codeLine="54" d="M732.8571,319.6352 C727.3971,352.5652 722.67,381.1669 717.21,414.1269 " fill="transparent" id="ShmPTPEngine-backto-GptpIpcReceiver" style="stroke:#000000;stroke-width:1;"/><polygon fill="#000000" points="734.82,307.7969,729.8924,313.0618,732.8571,319.6352,737.7847,314.3704,734.82,307.7969" style="stroke:#000000;stroke-width:1;"/></g><!--link ShmPTPEngine to PtpTimeInfo--><g id="link_ShmPTPEngine_PtpTimeInfo"><path codeLine="55" d="M860.3,307.8069 C885.11,323.8769 910.12,342.4569 931,362.7969 C959.34,390.3969 979.9862,425.127 992.7562,449.397 " fill="transparent" id="ShmPTPEngine-to-PtpTimeInfo" style="stroke:#000000;stroke-width:1;stroke-dasharray:7.0,7.0;"/><polygon fill="#000000" points="995.55,454.7069,994.8991,444.8795,993.2218,450.282,987.8193,448.6047,995.55,454.7069" style="stroke:#000000;stroke-width:1;"/><text fill="#000000" font-family="Verdana" font-size="13" lengthAdjust="spacing" textLength="73.4297" x="923" y="350.8638">converts to</text></g><!--link ShmPTPEngine to GMN17--><g id="link_ShmPTPEngine_GMN17"><path d="M915.04,301.4269 C968.31,319.7669 1027.01,341.0769 1080,362.7969 C1152.58,392.5469 1234.73,433.1469 1281.05,456.7169 " fill="transparent" id="ShmPTPEngine-GMN17" style="stroke:#000000;stroke-width:1;stroke-dasharray:7.0,7.0;"/></g><!--SRC=[jLNRQYCv47tlhwXuOMZRwv3DPGQCOnZii1Wc6sCRmi20aTNLRX6rfAWLizvDNkS3vXFtIxRKtOdLJl3CF8nU-b9LHrMdJab7BiCSmKWcL1GvuII25Al5V2G5AWVpZ5bCu1fpRRSmcOwYIE8QLG9E6v2OkWXeFLx2I4jjuMNHdp4Mt0hZX5RGM8zL30n- -oJMcPiATJUi_j06m7LkjABDYqD1eorJTL2TOrxbQ76zst0lQCvahdtO8on4ZcD68GfOmen36-n4zLLLHf5X_8wj4Le-O2xP1c5gDSUYQC6_9JgNh2ZWJ-FCnF3fmqgA8YEqNMsrdr-zEhqbz9yZPkMFJk1IPFdIOg4VB4VlM9JrBOspWqbLQzMEMUqp36A5uKl5yYhEMQ7MByOkJ9HmiRUsoRhIMWQsEl4uOOxjaXlJbtVUQ944pjHPP_KsRfYUegU0hePmtgIgAXm60oR5Mc4Ilpzl3uUmQs_0MnTojXQSjcDEvu8F7eHoPwTBDuHBEFdx_CF5oSNvnKdWN-3z6zw1m-j2cz5BhbKgR7u8fTTxUNr_tbjj7K9T3AJQVb6SySpFaqB0D1MSHeflto0h4ECXSSsGezZyYBOezyBz2eKT5b6TOAcBmYNzlYwddyb1G7C8DfAwm7qP1ONFitowc5wfjQSmdE6zkYjU6bDL_VgPqH3Kkt-gRFRg6gCuQ9yXIoZFkMAcoBIBXKerUKsTyPsTqDUxHbJP_LSdHgytt9kDFhHygxH15TyiHxEhZuls5vNdpCJJsSrYUJkRBAxQhMXV7zz3cerl_lhqkG55s6D2QX3UwVLUyTbmE3uUGYkeibL9Z_pey7OwYfIcaR2-RQ3JPaf4HASpntkf-PrNlTDSotx7o_JM2ZgF-tuAkrs8TPAquR-lto2byS7oZSvwRhRbQp2gtUxlpp6uGTKcADyP3sNfwMr_rAPzb1tqi-TfYNKMxMuWYuxk5v5ME4UNfHVGfHTydvLxUhy7Gmp0wGau8gS0we7JLfNm_du1JqrDq4exEc4yGo6xX7HDUWfFA4W5oiHJ6shhc3mdDEzCaKGTdJsCWhmSi_oQ3Y3Vg8rWCAAj7JODSVjubyp_]--></g></svg>