<svg xmlns="http://www.w3.org/2000/svg" xmlns:xlink="http://www.w3.org/1999/xlink" contentStyleType="text/css" data-diagram-type="SEQUENCE" height="751px" preserveAspectRatio="none" style="width:1435px;height:751px;background:#FFFFFF;" version="1.1" viewBox="0 0 1435 751" width="1435px" zoomAndPan="magnify"><title>VehicleTimeDaemon: Multi-Timebase Data Flow</title><defs/><g><text fill="#000000" font-family="sans-serif" font-size="14" font-weight="bold" lengthAdjust="spacing" textLength="376.9268" x="525.3098" y="27.9951">VehicleTimeDaemon: Multi-Timebase Data Flow</text><rect fill="#E0FFFF" height="574.8516" style="stroke:#181818;stroke-width:0.5;" width="404.3706" x="172.7373" y="163.7813"/><text fill="#000000" font-family="sans-serif" font-size="13" font-weight="bold" lengthAdjust="spacing" textLength="197.063" x="274.1282" y="175.8481">TimeDaemon: PTP Pipeline</text><rect fill="#FFE4E1" height="574.8516" style="stroke:#181818;stroke-width:0.5;" width="424.6069" x="579.1079" y="163.7813"/><text fill="#000000" font-family="sans-serif" font-size="13" font-weight="bold" lengthAdjust="spacing" textLength="274.1299" x="652.0835" y="175.8481">TimeDaemon: Absolute Time Pipeline</text><rect fill="#E6FFE6" height="574.8516" style="stroke:#181818;stroke-width:0.5;" width="421.8315" x="1005.7148" y="163.7813"/><text fill="#000000" font-family="sans-serif" font-size="13" font-weight="bold" lengthAdjust="spacing" textLength="82.9194" x="1172.908" y="175.8481">Application</text><g><title>ptpd</title><rect fill="transparent" height="514.125" width="8" x="24.0747" y="230.5078"/><line style="stroke:#181818;stroke-width:0.5;stroke-dasharray:5.0,5.0;" x1="28" x2="28" y1="230.5078" y2="744.6328"/></g><g><title>SDat SOMEIP</title><rect fill="transparent" height="514.125" width="8" x="109.9434" y="230.5078"/><line style="stroke:#181818;stroke-width:0.5;stroke-dasharray:5.0,5.0;" x1="113.1494" x2="113.1494" y1="230.5078" y2="744.6328"/></g><g><title>PTPMachine</title><rect fill="transparent" height="514.125" width="8" x="221.7578" y="230.5078"/><line style="stroke:#181818;stroke-width:0.5;stroke-dasharray:5.0,5.0;" x1="225.7373" x2="225.7373" y1="230.5078" y2="744.6328"/></g><g><title>ControlFlow &amp;</title><rect fill="transparent" height="514.125" width="8" x="367.7979" y="230.5078"/><line style="stroke:#181818;stroke-width:0.5;stroke-dasharray:5.0,5.0;" x1="371.6782" x2="371.6782" y1="230.5078" y2="744.6328"/></g><g><title>SharedMemory</title><rect fill="transparent" height="514.125" width="8" x="508.8423" y="230.5078"/><line style="stroke:#181818;stroke-width:0.5;stroke-dasharray:5.0,5.0;" x1="512.5767" x2="512.5767" y1="230.5078" y2="744.6328"/></g><g><title>AbsTimeMachine</title><rect fill="transparent" height="514.125" width="8" x="645.6353" y="230.5078"/><line style="stroke:#181818;stroke-width:0.5;stroke-dasharray:5.0,5.0;" x1="649.1079" x2="649.1079" y1="230.5078" y2="744.6328"/></g><g><title>ControlFlow &amp;</title><rect fill="transparent" height="514.125" width="8" x="791.6753" y="230.5078"/><line style="stroke:#181818;stroke-width:0.5;stroke-dasharray:5.0,5.0;" x1="795.5557" x2="795.5557" y1="230.5078" y2="744.6328"/></g><g><title>SharedMemory</title><rect fill="transparent" height="514.125" width="8" x="935.4492" y="230.5078"/><line style="stroke:#181818;stroke-width:0.5;stroke-dasharray:5.0,5.0;" x1="939.1836" x2="939.1836" y1="230.5078" y2="744.6328"/></g><g><title>score::time::svt</title><rect fill="transparent" height="514.125" width="8" x="1067.4604" y="230.5078"/><line style="stroke:#181818;stroke-width:0.5;stroke-dasharray:5.0,5.0;" x1="1070.7148" x2="1070.7148" y1="230.5078" y2="744.6328"/></g><g><title>score::time::abs</title><rect fill="transparent" height="514.125" width="8" x="1202.7974" y="230.5078"/><line style="stroke:#181818;stroke-width:0.5;stroke-dasharray:5.0,5.0;" x1="1206.2061" x2="1206.2061" y1="230.5078" y2="744.6328"/></g><g><title>Application</title><rect fill="transparent" height="514.125" width="8" x="1373.4346" y="230.5078"/><line style="stroke:#181818;stroke-width:0.5;stroke-dasharray:5.0,5.0;" x1="1377.3228" x2="1377.3228" y1="230.5078" y2="744.6328"/></g><rect fill="#FFDAB9" height="30.2969" rx="2.5" ry="2.5" style="stroke:#181818;stroke-width:0.5;" width="46.1494" x="5" y="199.2109"/><text fill="#000000" font-family="sans-serif" font-size="14" lengthAdjust="spacing" textLength="32.1494" x="12" y="219.2061">ptpd</text><rect fill="#FFDAB9" height="30.2969" rx="2.5" ry="2.5" style="stroke:#181818;stroke-width:0.5;" width="105.5879" x="61.1494" y="199.2109"/><text fill="#000000" font-family="sans-serif" font-size="14" lengthAdjust="spacing" textLength="91.5879" x="68.1494" y="219.2061">SDat SOMEIP</text><rect fill="#ADD8E6" height="30.2969" rx="2.5" ry="2.5" style="stroke:#181818;stroke-width:0.5;" width="98.041" x="176.7373" y="199.2109"/><text fill="#000000" font-family="sans-serif" font-size="14" lengthAdjust="spacing" textLength="84.041" x="183.7373" y="219.2061">PTPMachine</text><rect fill="#ADD8E6" height="46.5938" rx="2.5" ry="2.5" style="stroke:#181818;stroke-width:0.5;" width="112.2393" x="315.6782" y="182.9141"/><text fill="#000000" font-family="sans-serif" font-size="14" lengthAdjust="spacing" textLength="98.2393" x="322.6782" y="202.9092">ControlFlow &amp;</text><text fill="#000000" font-family="sans-serif" font-size="14" lengthAdjust="spacing" textLength="79.748" x="331.9238" y="219.2061">Verification</text><rect fill="#F5F5F5" height="46.5938" rx="2.5" ry="2.5" style="stroke:#181818;stroke-width:0.5;" width="120.5313" x="452.5767" y="182.9141"/><text fill="#000000" font-family="sans-serif" font-size="14" lengthAdjust="spacing" textLength="106.5313" x="459.5767" y="202.9092">SharedMemory</text><text fill="#000000" font-family="sans-serif" font-size="14" lengthAdjust="spacing" textLength="25.4365" x="500.124" y="219.2061">PTP</text><rect fill="#BC8F8F" height="30.2969" rx="2.5" ry="2.5" style="stroke:#181818;stroke-width:0.5;" width="133.0547" x="583.1079" y="199.2109"/><text fill="#000000" font-family="sans-serif" font-size="14" lengthAdjust="spacing" textLength="119.0547" x="590.1079" y="219.2061">AbsTimeMachine</text><rect fill="#BC8F8F" height="46.5938" rx="2.5" ry="2.5" style="stroke:#181818;stroke-width:0.5;" width="112.2393" x="739.5557" y="182.9141"/><text fill="#000000" font-family="sans-serif" font-size="14" lengthAdjust="spacing" textLength="98.2393" x="746.5557" y="202.9092">ControlFlow &amp;</text><text fill="#000000" font-family="sans-serif" font-size="14" lengthAdjust="spacing" textLength="79.748" x="755.8013" y="219.2061">Verification</text><rect fill="#F5F5F5" height="46.5938" rx="2.5" ry="2.5" style="stroke:#181818;stroke-width:0.5;" width="120.5313" x="879.1836" y="182.9141"/><text fill="#000000" font-family="sans-serif" font-size="14" lengthAdjust="spacing" textLength="106.5313" x="886.1836" y="202.9092">SharedMemory</text><text fill="#000000" font-family="sans-serif" font-size="14" lengthAdjust="spacing" textLength="60.4502" x="909.2241" y="219.2061">AbsTime</text><rect fill="#90EE90" height="30.2969" rx="2.5" ry="2.5" style="stroke:#181818;stroke-width:0.5;" width="123.4912" x="1009.7148" y="199.2109"/><text fill="#000000" font-family="sans-serif" font-size="14" lengthAdjust="spacing" textLength="109.4912" x="1016.7148" y="219.2061">score::time::svt</text><rect fill="#90EE90" height="30.2969" rx="2.5" ry="2.5" style="stroke:#181818;stroke-width:0.5;" width="127.1826" x="1143.2061" y="199.2109"/><text fill="#000000" font-family="sans-serif" font-size="14" lengthAdjust="spacing" textLength="113.1826" x="1150.2061" y="219.2061">score::time::abs</text><rect fill="#FFA07A" height="30.2969" rx="2.5" ry="2.5" style="stroke:#181818;stroke-width:0.5;" width="92.2236" x="1331.3228" y="199.2109"/><text fill="#000000" font-family="sans-serif" font-size="14" lengthAdjust="spacing" textLength="78.2236" x="1338.3228" y="219.2061">Application</text><rect fill="#EEEEEE" height="3" style="stroke:#EEEEEE;stroke-width:1;" width="1428.5464" x="0" y="261.0742"/><line style="stroke:#000000;stroke-width:1;" x1="0" x2="1428.5464" y1="261.0742" y2="261.0742"/><line style="stroke:#000000;stroke-width:1;" x1="0" x2="1428.5464" y1="264.0742" y2="264.0742"/><rect fill="#EEEEEE" height="23.1328" style="stroke:#000000;stroke-width:2;" width="125.4648" x="651.5408" y="250.5078"/><text fill="#000000" font-family="sans-serif" font-size="13" font-weight="bold" lengthAdjust="spacing" textLength="106.939" x="657.5408" y="266.5747">PTP Time Flow</text><polygon fill="#181818" points="213.7578,300.7734,223.7578,304.7734,213.7578,308.7734,217.7578,304.7734" style="stroke:#181818;stroke-width:1;"/><line style="stroke:#181818;stroke-width:1;" x1="28.0747" x2="219.7578" y1="304.7734" y2="304.7734"/><text fill="#000000" font-family="sans-serif" font-size="13" lengthAdjust="spacing" textLength="57.0337" x="35.0747" y="299.7075">PTP data</text><polygon fill="#181818" points="359.7979,329.9063,369.7979,333.9063,359.7979,337.9063,363.7979,333.9063" style="stroke:#181818;stroke-width:1;"/><line style="stroke:#181818;stroke-width:1;" x1="225.7578" x2="365.7979" y1="333.9063" y2="333.9063"/><text fill="#000000" font-family="sans-serif" font-size="13" lengthAdjust="spacing" textLength="122.04" x="232.7578" y="328.8403">Validate &amp; process</text><polygon fill="#181818" points="500.8423,359.0391,510.8423,363.0391,500.8423,367.0391,504.8423,363.0391" style="stroke:#181818;stroke-width:1;"/><line style="stroke:#181818;stroke-width:1;" x1="371.7979" x2="506.8423" y1="363.0391" y2="363.0391"/><text fill="#000000" font-family="sans-serif" font-size="13" lengthAdjust="spacing" textLength="117.0444" x="378.7979" y="357.9731">Write PtpTimeInfo</text><polygon fill="#181818" points="1082.4604,388.1719,1072.4604,392.1719,1082.4604,396.1719,1078.4604,392.1719" style="stroke:#181818;stroke-width:1;"/><line style="stroke:#181818;stroke-width:1;" x1="1076.4604" x2="1376.4346" y1="392.1719" y2="392.1719"/><text fill="#000000" font-family="sans-serif" font-size="13" lengthAdjust="spacing" textLength="38.4541" x="1088.4604" y="387.106">Now()</text><polygon fill="#181818" points="523.8423,417.3047,513.8423,421.3047,523.8423,425.3047,519.8423,421.3047" style="stroke:#181818;stroke-width:1;"/><line style="stroke:#181818;stroke-width:1;" x1="517.8423" x2="1070.4604" y1="421.3047" y2="421.3047"/><text fill="#000000" font-family="sans-serif" font-size="13" lengthAdjust="spacing" textLength="33.249" x="529.8423" y="416.2388">Read</text><polygon fill="#181818" points="1059.4604,446.4375,1069.4604,450.4375,1059.4604,454.4375,1063.4604,450.4375" style="stroke:#181818;stroke-width:1;"/><line style="stroke:#181818;stroke-width:1;stroke-dasharray:2.0,2.0;" x1="512.8423" x2="1065.4604" y1="450.4375" y2="450.4375"/><text fill="#000000" font-family="sans-serif" font-size="13" lengthAdjust="spacing" textLength="78.0063" x="519.8423" y="445.3716">PtpTimeInfo</text><polygon fill="#181818" points="1365.4346,475.5703,1375.4346,479.5703,1365.4346,483.5703,1369.4346,479.5703" style="stroke:#181818;stroke-width:1;"/><line style="stroke:#181818;stroke-width:1;stroke-dasharray:2.0,2.0;" x1="1071.4604" x2="1371.4346" y1="479.5703" y2="479.5703"/><text fill="#000000" font-family="sans-serif" font-size="13" lengthAdjust="spacing" textLength="137.3188" x="1078.4604" y="474.5044">Current Vehicle Time</text><rect fill="#EEEEEE" height="3" style="stroke:#EEEEEE;stroke-width:1;" width="1428.5464" x="0" y="508.1367"/><line style="stroke:#000000;stroke-width:1;" x1="0" x2="1428.5464" y1="508.1367" y2="508.1367"/><line style="stroke:#000000;stroke-width:1;" x1="0" x2="1428.5464" y1="511.1367" y2="511.1367"/><rect fill="#EEEEEE" height="23.1328" style="stroke:#000000;stroke-width:2;" width="162.3193" x="633.1135" y="497.5703"/><text fill="#000000" font-family="sans-serif" font-size="13" font-weight="bold" lengthAdjust="spacing" textLength="143.7935" x="639.1135" y="513.6372">Absolute Time Flow</text><polygon fill="#181818" points="637.6353,547.8359,647.6353,551.8359,637.6353,555.8359,641.6353,551.8359" style="stroke:#181818;stroke-width:1;"/><line style="stroke:#181818;stroke-width:1;" x1="113.9434" x2="643.6353" y1="551.8359" y2="551.8359"/><text fill="#000000" font-family="sans-serif" font-size="13" lengthAdjust="spacing" textLength="123.7349" x="120.9434" y="546.77">Absolute time data</text><polygon fill="#181818" points="783.6753,576.9688,793.6753,580.9688,783.6753,584.9688,787.6753,580.9688" style="stroke:#181818;stroke-width:1;"/><line style="stroke:#181818;stroke-width:1;" x1="649.6353" x2="789.6753" y1="580.9688" y2="580.9688"/><text fill="#000000" font-family="sans-serif" font-size="13" lengthAdjust="spacing" textLength="122.04" x="656.6353" y="575.9028">Validate &amp; process</text><polygon fill="#181818" points="927.4492,606.1016,937.4492,610.1016,927.4492,614.1016,931.4492,610.1016" style="stroke:#181818;stroke-width:1;"/><line style="stroke:#181818;stroke-width:1;" x1="795.6753" x2="933.4492" y1="610.1016" y2="610.1016"/><text fill="#000000" font-family="sans-serif" font-size="13" lengthAdjust="spacing" textLength="119.7739" x="802.6753" y="605.0356">Write AbsTimeInfo</text><polygon fill="#181818" points="1217.7974,635.2344,1207.7974,639.2344,1217.7974,643.2344,1213.7974,639.2344" style="stroke:#181818;stroke-width:1;"/><line style="stroke:#181818;stroke-width:1;" x1="1211.7974" x2="1376.4346" y1="639.2344" y2="639.2344"/><text fill="#000000" font-family="sans-serif" font-size="13" lengthAdjust="spacing" textLength="38.4541" x="1223.7974" y="634.1685">Now()</text><polygon fill="#181818" points="950.4492,664.3672,940.4492,668.3672,950.4492,672.3672,946.4492,668.3672" style="stroke:#181818;stroke-width:1;"/><line style="stroke:#181818;stroke-width:1;" x1="944.4492" x2="1205.7974" y1="668.3672" y2="668.3672"/><text fill="#000000" font-family="sans-serif" font-size="13" lengthAdjust="spacing" textLength="33.249" x="956.4492" y="663.3013">Read</text><polygon fill="#181818" points="1194.7974,693.5,1204.7974,697.5,1194.7974,701.5,1198.7974,697.5" style="stroke:#181818;stroke-width:1;"/><line style="stroke:#181818;stroke-width:1;stroke-dasharray:2.0,2.0;" x1="939.4492" x2="1200.7974" y1="697.5" y2="697.5"/><text fill="#000000" font-family="sans-serif" font-size="13" lengthAdjust="spacing" textLength="80.7358" x="946.4492" y="692.4341">AbsTimeInfo</text><polygon fill="#181818" points="1365.4346,722.6328,1375.4346,726.6328,1365.4346,730.6328,1369.4346,726.6328" style="stroke:#181818;stroke-width:1;"/><line style="stroke:#181818;stroke-width:1;stroke-dasharray:2.0,2.0;" x1="1206.7974" x2="1371.4346" y1="726.6328" y2="726.6328"/><text fill="#000000" font-family="sans-serif" font-size="13" lengthAdjust="spacing" textLength="146.6372" x="1213.7974" y="721.5669">Current Absolute Time</text><rect fill="#DDDDDD" height="95.4844" id="_legend" rx="7.5" ry="7.5" style="stroke:#000000;stroke-width:1;" width="295.0107" x="12" y="54.2969"/><text fill="#000000" font-family="sans-serif" font-size="14" font-weight="bold" lengthAdjust="spacing" textLength="41.2139" x="21.874" y="74.292">Color</text><text fill="#000000" font-family="sans-serif" font-size="14" font-weight="bold" lengthAdjust="spacing" textLength="90.5488" x="106.9541" y="74.292">Description</text><rect fill="#ADD8E6" height="16.2969" style="stroke:transparent;stroke-width:1;" width="85.0801" x="17" y="77.5938"/><text fill="#000000" font-family="sans-serif" font-size="14" lengthAdjust="spacing" textLength="13.3506" x="17" y="90.5889">&#160;&#160;&#160;</text><text fill="#000000" font-family="sans-serif" font-size="14" lengthAdjust="spacing" textLength="84.9844" x="106.5303" y="90.5889">PTP Pipeline</text><rect fill="#BC8F8F" height="16.2969" style="stroke:transparent;stroke-width:1;" width="85.0801" x="17" y="93.8906"/><text fill="#000000" font-family="sans-serif" font-size="14" lengthAdjust="spacing" textLength="13.3506" x="17" y="106.8857">&#160;&#160;&#160;</text><text fill="#000000" font-family="sans-serif" font-size="14" lengthAdjust="spacing" textLength="159.8789" x="106.5303" y="106.8857">Absolute Time Pipeline</text><rect fill="#90EE90" height="16.2969" style="stroke:transparent;stroke-width:1;" width="85.0801" x="17" y="110.1875"/><text fill="#000000" font-family="sans-serif" font-size="14" lengthAdjust="spacing" textLength="8.9004" x="17" y="123.1826">&#160;&#160;</text><text fill="#000000" font-family="sans-serif" font-size="14" lengthAdjust="spacing" textLength="80.6436" x="106.5303" y="123.1826">Middleware</text><rect fill="#FFA07A" height="16.2969" style="stroke:transparent;stroke-width:1;" width="85.0801" x="17" y="126.4844"/><text fill="#000000" font-family="sans-serif" font-size="14" lengthAdjust="spacing" textLength="4.4502" x="17" y="139.4795">&#160;</text><text fill="#000000" font-family="sans-serif" font-size="14" lengthAdjust="spacing" textLength="78.2236" x="106.5303" y="139.4795">Application</text><line style="stroke:#000000;stroke-width:1;" x1="17" x2="302.0107" y1="61.2969" y2="61.2969"/><line style="stroke:#000000;stroke-width:1;" x1="17" x2="302.0107" y1="77.5938" y2="77.5938"/><line style="stroke:#000000;stroke-width:1;" x1="17" x2="302.0107" y1="93.8906" y2="93.8906"/><line style="stroke:#000000;stroke-width:1;" x1="17" x2="302.0107" y1="110.1875" y2="110.1875"/><line style="stroke:#000000;stroke-width:1;" x1="17" x2="302.0107" y1="126.4844" y2="126.4844"/><line style="stroke:#000000;stroke-width:1;" x1="17" x2="302.0107" y1="142.7813" y2="142.7813"/><line style="stroke:#000000;stroke-width:1;" x1="17" x2="17" y1="61.2969" y2="142.7813"/><line style="stroke:#000000;stroke-width:1;" x1="102.0801" x2="102.0801" y1="61.2969" y2="142.7813"/><line style="stroke:#000000;stroke-width:1;" x1="302.0107" x2="302.0107" y1="61.2969" y2="142.7813"/><!--SRC=[bLJ1Yjim4BthAuODBEqXrpsO9j1Dsh9GjsQpx5uMWcAFrwAo9IIbQI0Vtv7is7AIJQbFbZFlpRmtJt72IOHdh4GkyKdKkEHOgoQ1T2kTcFel6suHbjnn-2hLZh5A50YbKcwZ_Z0cyGsR0fpI8B5q3EWvp62Xf3BGFNHUeisDq4we1iwUGulwDFaktYftBxSuzsV8dZB8X4Of6ho2UbHsVs_KhcbHdpTMoQr3yCEVuSUzlXb43pj0Aef2uewR2vrEKIikoQEvxwMr53c_B8jGP4rh46EQ6oToeNdZu4OxNTm0j-1VO98XpwjiMvRZgXMv3gkVwPU7B1JRWhkrLJKA7MCOBGBYtOryQqTUx7aJD8mQK65AB5Hs76PTjsSOTd4EMwZ66ILz7E3sjNb68yhEXPv7Z_jV9bfLv7UHqjHc_zhGDAtCgiPwJIGmUQc4mrMjVg6t4aBYJjM-i-z9AgpRKpOkz2M8BuwryuqTjFU9-d_jdcVGVeLehBsRAD9FHE_hZtCtmRkonBlp3ZPN1fF44M-IsDykaDUxDRr25Fz_06cE8p2CT0qOZTMQeJN4LsOGCPk5b8QL1IzdCxeY_Z9CvwCSjcccu7CMV-wgUgSJUEPIK1d2BMYZShIMZIe8CGGhWHT3paBcj1_XeIaLOtvQgkeSIk27sdtuoBhZ2VmHUS663zCO5vCUqVIxfqzWiJK6oQlkBpSu4EmOnxZt9BxpdYIAQHHzlwhMfBYWgxzkqgYYL-bNVJIfo-QfIMr9Rv8_di0ZayAlCIucFQBFJ1fvmlu2]--></g></svg>