<svg xmlns="http://www.w3.org/2000/svg" xmlns:xlink="http://www.w3.org/1999/xlink" contentStyleType="text/css" data-diagram-type="SEQUENCE" height="391px" preserveAspectRatio="none" style="width:792px;height:391px;background:#FFFFFF;" version="1.1" viewBox="0 0 792 391" width="792px" zoomAndPan="magnify"><title>mw::time::svt: Providing new Vehicle Time to Applications (simplified)</title><defs/><g><text fill="#000000" font-family="sans-serif" font-size="14" font-weight="bold" lengthAdjust="spacing" textLength="557.874" x="121.6997" y="27.9951">mw::time::svt: Providing new Vehicle Time to Applications (simplified)</text><rect fill="#E6FFE6" height="231.2266" style="stroke:#181818;stroke-width:0.5;" width="525.1143" x="1" y="147.4844"/><text fill="#000000" font-family="sans-serif" font-size="13" font-weight="bold" lengthAdjust="spacing" textLength="82.9194" x="219.8345" y="159.5513">Application</text><g><title>score::time::svt</title><rect fill="#FFFFFF" height="146.6641" style="stroke:#181818;stroke-width:1;" width="10" x="256.8496" y="229.0469"/></g><g><title>score::time::svt</title><rect fill="#FFFFFF" height="38.1992" style="stroke:#181818;stroke-width:1;" width="10" x="261.8496" y="328.5117"/></g><g><title>IPCMachine:receiver</title><rect fill="#FFFFFF" height="29.1328" style="stroke:#181818;stroke-width:1;" width="10" x="438.6685" y="258.1797"/></g><g><title>Business logic</title><rect fill="transparent" height="186.7969" width="8" x="57.5571" y="197.9141"/><line style="stroke:#181818;stroke-width:0.5;stroke-dasharray:5.0,5.0;" x1="61" x2="61" y1="197.9141" y2="384.7109"/></g><g><title>score::time::svt</title><rect fill="transparent" height="186.7969" width="8" x="257.8496" y="197.9141"/><line style="stroke:#181818;stroke-width:0.5;stroke-dasharray:5.0,5.0;" x1="261.104" x2="261.104" y1="197.9141" y2="384.7109"/></g><g><title>IPCMachine:receiver</title><rect fill="transparent" height="186.7969" width="8" x="439.6685" y="197.9141"/><line style="stroke:#181818;stroke-width:0.5;stroke-dasharray:5.0,5.0;" x1="443.2227" x2="443.2227" y1="197.9141" y2="384.7109"/></g><rect fill="#FFA07A" height="30.2969" rx="2.5" ry="2.5" style="stroke:#181818;stroke-width:0.5;" width="113.1143" x="5" y="166.6172"/><text fill="#000000" font-family="sans-serif" font-size="14" lengthAdjust="spacing" textLength="99.1143" x="12" y="186.6123">Business logic</text><rect fill="#90EE90" height="30.2969" rx="2.5" ry="2.5" style="stroke:#181818;stroke-width:0.5;" width="123.4912" x="200.104" y="166.6172"/><text fill="#000000" font-family="sans-serif" font-size="14" lengthAdjust="spacing" textLength="109.4912" x="207.104" y="186.6123">score::time::svt</text><rect fill="#FFB6C1" height="30.2969" rx="2.5" ry="2.5" style="stroke:#181818;stroke-width:0.5;" width="156.8916" x="365.2227" y="166.6172"/><text fill="#000000" font-family="sans-serif" font-size="14" lengthAdjust="spacing" textLength="142.8916" x="372.2227" y="186.6123">IPCMachine:receiver</text><g><title>score::time::svt</title><rect fill="#FFFFFF" height="146.6641" style="stroke:#181818;stroke-width:1;" width="10" x="256.8496" y="229.0469"/></g><g><title>score::time::svt</title><rect fill="#FFFFFF" height="38.1992" style="stroke:#181818;stroke-width:1;" width="10" x="261.8496" y="328.5117"/></g><g><title>IPCMachine:receiver</title><rect fill="#FFFFFF" height="29.1328" style="stroke:#181818;stroke-width:1;" width="10" x="438.6685" y="258.1797"/></g><polygon fill="#181818" points="244.8496,225.0469,254.8496,229.0469,244.8496,233.0469,248.8496,229.0469" style="stroke:#181818;stroke-width:1;"/><line style="stroke:#181818;stroke-width:1;" x1="61.5571" x2="250.8496" y1="229.0469" y2="229.0469"/><text fill="#FF0000" font-family="sans-serif" font-size="13" font-weight="bold" lengthAdjust="spacing" textLength="29.9736" x="68.5571" y="223.981">[01]</text><text fill="#000000" font-family="sans-serif" font-size="13" lengthAdjust="spacing" textLength="38.4541" x="102.5308" y="223.981">Now()</text><polygon fill="#181818" points="426.6685,254.1797,436.6685,258.1797,426.6685,262.1797,430.6685,258.1797" style="stroke:#181818;stroke-width:1;"/><line style="stroke:#181818;stroke-width:1;" x1="266.8496" x2="432.6685" y1="258.1797" y2="258.1797"/><text fill="#FF0000" font-family="sans-serif" font-size="13" font-weight="bold" lengthAdjust="spacing" textLength="29.9736" x="273.8496" y="253.1138">[02]</text><text fill="#000000" font-family="sans-serif" font-size="13" lengthAdjust="spacing" textLength="57.9351" x="307.8232" y="253.1138">receive()</text><polygon fill="#181818" points="277.8496,283.3125,267.8496,287.3125,277.8496,291.3125,273.8496,287.3125" style="stroke:#181818;stroke-width:1;"/><line style="stroke:#181818;stroke-width:1;stroke-dasharray:2.0,2.0;" x1="271.8496" x2="442.6685" y1="287.3125" y2="287.3125"/><text fill="#FF0000" font-family="sans-serif" font-size="13" font-weight="bold" lengthAdjust="spacing" textLength="29.9736" x="283.8496" y="282.2466">[03]</text><text fill="#000000" font-family="sans-serif" font-size="13" lengthAdjust="spacing" textLength="56.8179" x="317.8232" y="282.2466">TimeInfo</text><line style="stroke:#181818;stroke-width:1;" x1="266.8496" x2="313.8496" y1="315.5117" y2="315.5117"/><line style="stroke:#181818;stroke-width:1;" x1="313.8496" x2="313.8496" y1="315.5117" y2="328.5117"/><line style="stroke:#181818;stroke-width:1;" x1="272.8496" x2="313.8496" y1="328.5117" y2="328.5117"/><polygon fill="#181818" points="282.8496,324.5117,272.8496,328.5117,282.8496,332.5117,278.8496,328.5117" style="stroke:#181818;stroke-width:1;"/><text fill="#FF0000" font-family="sans-serif" font-size="13" font-weight="bold" lengthAdjust="spacing" textLength="29.9736" x="278.8496" y="310.4458">[04]</text><text fill="#000000" font-family="sans-serif" font-size="13" lengthAdjust="spacing" textLength="113.8452" x="312.8232" y="310.4458">handleNewData()</text><path d="M447.8188,300.3125 L447.8188,340.3125 L785.8188,340.3125 L785.8188,310.3125 L775.8188,300.3125 L447.8188,300.3125 " fill="#FEFFDD" style="stroke:#181818;stroke-width:0.5;"/><path d="M775.8188,300.3125 L775.8188,310.3125 L785.8188,310.3125 L775.8188,300.3125 " fill="#FEFFDD" style="stroke:#181818;stroke-width:0.5;"/><text fill="#000000" font-family="sans-serif" font-size="13" lengthAdjust="spacing" textLength="283.5244" x="453.8188" y="317.3794">Adjusts the ptp time with current local time</text><text fill="#000000" font-family="sans-serif" font-size="13" lengthAdjust="spacing" textLength="317.605" x="453.8188" y="332.5122">and provides the current time to the application.</text><polygon fill="#181818" points="72.5571,362.7109,62.5571,366.7109,72.5571,370.7109,68.5571,366.7109" style="stroke:#181818;stroke-width:1;"/><line style="stroke:#181818;stroke-width:1;stroke-dasharray:2.0,2.0;" x1="66.5571" x2="255.8496" y1="366.7109" y2="366.7109"/><text fill="#FF0000" font-family="sans-serif" font-size="13" font-weight="bold" lengthAdjust="spacing" textLength="29.9736" x="78.5571" y="361.645">[05]</text><text fill="#000000" font-family="sans-serif" font-size="13" lengthAdjust="spacing" textLength="137.3188" x="112.5308" y="361.645">Current Vehicle Time</text><rect fill="#DDDDDD" height="79.1875" id="_legend" rx="7.5" ry="7.5" style="stroke:#000000;stroke-width:1;" width="311.1709" x="12" y="54.2969"/><text fill="#000000" font-family="sans-serif" font-size="14" font-weight="bold" lengthAdjust="spacing" textLength="41.2139" x="21.874" y="74.292">Color</text><text fill="#000000" font-family="sans-serif" font-size="14" font-weight="bold" lengthAdjust="spacing" textLength="90.5488" x="106.9541" y="74.292">Description</text><rect fill="#FFB6C1" height="16.2969" style="stroke:transparent;stroke-width:1;" width="85.0801" x="17" y="77.5938"/><text fill="#000000" font-family="sans-serif" font-size="14" lengthAdjust="spacing" textLength="13.3506" x="17" y="90.5889">&#160;&#160;&#160;</text><text fill="#000000" font-family="sans-serif" font-size="14" lengthAdjust="spacing" textLength="113.292" x="106.5303" y="90.5889">IPC components</text><rect fill="#FFA07A" height="16.2969" style="stroke:transparent;stroke-width:1;" width="85.0801" x="17" y="93.8906"/><text fill="#000000" font-family="sans-serif" font-size="14" lengthAdjust="spacing" textLength="4.4502" x="17" y="106.8857">&#160;</text><text fill="#000000" font-family="sans-serif" font-size="14" lengthAdjust="spacing" textLength="123.2041" x="106.5303" y="106.8857">Client Application</text><rect fill="#90EE90" height="16.2969" style="stroke:transparent;stroke-width:1;" width="85.0801" x="17" y="110.1875"/><text fill="#000000" font-family="sans-serif" font-size="14" lengthAdjust="spacing" textLength="8.9004" x="17" y="123.1826">&#160;&#160;</text><text fill="#000000" font-family="sans-serif" font-size="14" lengthAdjust="spacing" textLength="171.5889" x="106.5303" y="123.1826">Middleware components</text><line style="stroke:#000000;stroke-width:1;" x1="17" x2="318.1709" y1="61.2969" y2="61.2969"/><line style="stroke:#000000;stroke-width:1;" x1="17" x2="318.1709" y1="77.5938" y2="77.5938"/><line style="stroke:#000000;stroke-width:1;" x1="17" x2="318.1709" y1="93.8906" y2="93.8906"/><line style="stroke:#000000;stroke-width:1;" x1="17" x2="318.1709" y1="110.1875" y2="110.1875"/><line style="stroke:#000000;stroke-width:1;" x1="17" x2="318.1709" y1="126.4844" y2="126.4844"/><line style="stroke:#000000;stroke-width:1;" x1="17" x2="17" y1="61.2969" y2="126.4844"/><line style="stroke:#000000;stroke-width:1;" x1="102.0801" x2="102.0801" y1="61.2969" y2="126.4844"/><line style="stroke:#000000;stroke-width:1;" x1="318.1709" x2="318.1709" y1="61.2969" y2="126.4844"/><!--SRC=[VPDDRzim38Rl-XL4UcaF7NhgmKW3T2am55YB01js6OP2aUcOcomA4Xtla1y_od5M5-ccaqJp8Lz-M4WyGZTKbL27LPNtKi4cyPvg2Zi8EC0tRCcfqrTr066uZz6Jiq8SCbncwlJP4DPNnhHK8pJCikNVnjXUEFJT5XCibWq70SUUqrt2UhNShhxVtFnOZ4xM2Usj870mnkCEGws98dXin82Umnsi2mhJqVS3PfSe5XLmTWv7QddncNQjR2ZyMfKtF6xMgg6B7318_Z_rnVgEmqgfjITrdzVzR-fJGbH8gIUgQu-3JVXUoeFH8e-b6gFTUXFz0c-R1c_7mD4c8KVHgeB5npvJm9p1yuxS0cm66oFC1Pz3sN72sNn7h1jUz0epqUUWTkl9kbOpLWaTqXxJo59qBoS3lBQuL0J7mQkcwzMKeu9d7Ywlp9HHxNE-Wkcc7c_YNiy2bCrx30tFOfm-jRQqyHc71ojMOmJMDKf5qbZFVVsppzfsQH6YH2XDW86a1TUdLARgsLa_saT0mq4Srn-FrCbFfkqlDliwgmzZrINhNt6gJXqgM4_a_FynVm00]--></g></svg>