<svg xmlns="http://www.w3.org/2000/svg" xmlns:xlink="http://www.w3.org/1999/xlink" contentStyleType="text/css" data-diagram-type="DESCRIPTION" height="1088px" preserveAspectRatio="none" style="width:777px;height:1088px;background:#FFFFFF;" version="1.1" viewBox="0 0 777 1088" width="777px" zoomAndPan="magnify"><title>Deployment view</title><defs/><g><text fill="#000000" font-family="sans-serif" font-size="14" font-weight="bold" lengthAdjust="spacing" textLength="136.6504" x="313.1748" y="22.9951">Deployment view</text><!--cluster Application Layer--><g id="cluster_Application Layer"><polygon fill="transparent" points="200,839.2969,210,829.2969,414,829.2969,414,1061.2969,404,1071.2969,200,1071.2969,200,839.2969" style="stroke:#181818;stroke-width:1;"/><line style="stroke:#181818;stroke-width:1;" x1="404" x2="414" y1="839.2969" y2="829.2969"/><line style="stroke:#181818;stroke-width:1;" x1="200" x2="404" y1="839.2969" y2="839.2969"/><line style="stroke:#181818;stroke-width:1;" x1="404" x2="404" y1="839.2969" y2="1071.2969"/><text fill="#000000" font-family="sans-serif" font-size="14" font-weight="bold" lengthAdjust="spacing" textLength="138.0654" x="233.9673" y="855.292">Application Layer</text></g><!--cluster Application Layer\n(Absolute Time)--><g id="cluster_Application Layer\n(Absolute Time)"><polygon fill="transparent" points="468,823.2969,478,813.2969,682,813.2969,682,1061.2969,672,1071.2969,468,1071.2969,468,823.2969" style="stroke:#181818;stroke-width:1;"/><line style="stroke:#181818;stroke-width:1;" x1="672" x2="682" y1="823.2969" y2="813.2969"/><line style="stroke:#181818;stroke-width:1;" x1="468" x2="672" y1="823.2969" y2="823.2969"/><line style="stroke:#181818;stroke-width:1;" x1="672" x2="672" y1="823.2969" y2="1071.2969"/><text fill="#000000" font-family="sans-serif" font-size="14" font-weight="bold" lengthAdjust="spacing" textLength="138.0654" x="501.9673" y="839.292">Application Layer</text><text fill="#000000" font-family="sans-serif" font-size="14" font-weight="bold" lengthAdjust="spacing" textLength="125.8633" x="508.0684" y="855.5889">(Absolute Time)</text></g><!--cluster PTP Daemon--><g id="cluster_PTP Daemon"><polygon fill="transparent" points="229,53.2969,239,43.2969,404,43.2969,404,152.2969,394,162.2969,229,162.2969,229,53.2969" style="stroke:#181818;stroke-width:1;"/><line style="stroke:#181818;stroke-width:1;" x1="394" x2="404" y1="53.2969" y2="43.2969"/><line style="stroke:#181818;stroke-width:1;" x1="229" x2="394" y1="53.2969" y2="53.2969"/><line style="stroke:#181818;stroke-width:1;" x1="394" x2="394" y1="53.2969" y2="162.2969"/><text fill="#000000" font-family="sans-serif" font-size="14" font-weight="bold" lengthAdjust="spacing" textLength="99.6816" x="262.6592" y="69.292">PTP Daemon</text></g><!--cluster SDat SOMEIP--><g id="cluster_SDat SOMEIP"><polygon fill="transparent" points="506,53.2969,516,43.2969,685,43.2969,685,152.2969,675,162.2969,506,162.2969,506,53.2969" style="stroke:#181818;stroke-width:1;"/><line style="stroke:#181818;stroke-width:1;" x1="675" x2="685" y1="53.2969" y2="43.2969"/><line style="stroke:#181818;stroke-width:1;" x1="506" x2="675" y1="53.2969" y2="53.2969"/><line style="stroke:#181818;stroke-width:1;" x1="675" x2="675" y1="53.2969" y2="162.2969"/><text fill="#000000" font-family="sans-serif" font-size="14" font-weight="bold" lengthAdjust="spacing" textLength="103.667" x="539.6665" y="69.292">SDat SOMEIP</text></g><!--cluster TimeDaemon--><g id="cluster_TimeDaemon"><polygon fill="transparent" points="16,236.2969,26,226.2969,760,226.2969,760,754.2969,750,764.2969,16,764.2969,16,236.2969" style="stroke:#181818;stroke-width:1;"/><line style="stroke:#181818;stroke-width:1;" x1="750" x2="760" y1="236.2969" y2="226.2969"/><line style="stroke:#181818;stroke-width:1;" x1="16" x2="750" y1="236.2969" y2="236.2969"/><line style="stroke:#181818;stroke-width:1;" x1="750" x2="750" y1="236.2969" y2="764.2969"/><text fill="#000000" font-family="sans-serif" font-size="14" font-weight="bold" lengthAdjust="spacing" textLength="103.168" x="332.416" y="252.292">TimeDaemon</text></g><!--cluster PTP Pipeline--><g id="cluster_PTP Pipeline"><path d="M198.5,274.2969 L298.0811,274.2969 A3.75,3.75 0 0 1 300.5811,276.7969 L307.5811,296.5938 L433.5,296.5938 A2.5,2.5 0 0 1 436,299.0938 L436,737.7969 A2.5,2.5 0 0 1 433.5,740.2969 L198.5,740.2969 A2.5,2.5 0 0 1 196,737.7969 L196,276.7969 A2.5,2.5 0 0 1 198.5,274.2969 " fill="transparent" style="stroke:#000000;stroke-width:1.5;"/><line style="stroke:#000000;stroke-width:1.5;" x1="196" x2="307.5811" y1="296.5938" y2="296.5938"/><text fill="#000000" font-family="sans-serif" font-size="14" font-weight="bold" lengthAdjust="spacing" textLength="98.5811" x="200" y="289.292">PTP Pipeline</text></g><!--cluster Absolute Time Pipeline--><g id="cluster_Absolute Time Pipeline"><path d="M462.5,274.2969 L645.0762,274.2969 A3.75,3.75 0 0 1 647.5762,276.7969 L654.5762,296.5938 L733.5,296.5938 A2.5,2.5 0 0 1 736,299.0938 L736,737.7969 A2.5,2.5 0 0 1 733.5,740.2969 L462.5,740.2969 A2.5,2.5 0 0 1 460,737.7969 L460,276.7969 A2.5,2.5 0 0 1 462.5,274.2969 " fill="transparent" style="stroke:#000000;stroke-width:1.5;"/><line style="stroke:#000000;stroke-width:1.5;" x1="460" x2="654.5762" y1="296.5938" y2="296.5938"/><text fill="#000000" font-family="sans-serif" font-size="14" font-weight="bold" lengthAdjust="spacing" textLength="181.5762" x="464" y="289.292">Absolute Time Pipeline</text></g><!--entity app_bl--><g id="elem_app_bl"><rect fill="#F1F1F1" height="46.2969" rx="2.5" ry="2.5" style="stroke:#181818;stroke-width:0.5;" width="139.1143" x="237.5" y="1009.2969"/><rect fill="#F1F1F1" height="10" style="stroke:#181818;stroke-width:0.5;" width="15" x="356.6143" y="1014.2969"/><rect fill="#F1F1F1" height="2" style="stroke:#181818;stroke-width:0.5;" width="4" x="354.6143" y="1016.2969"/><rect fill="#F1F1F1" height="2" style="stroke:#181818;stroke-width:0.5;" width="4" x="354.6143" y="1020.2969"/><text fill="#000000" font-family="sans-serif" font-size="14" lengthAdjust="spacing" textLength="99.1143" x="252.5" y="1042.292">Business logic</text></g><!--entity mw--><g id="elem_mw"><rect fill="#F1F1F1" height="62.5938" rx="2.5" ry="2.5" style="stroke:#181818;stroke-width:0.5;" width="136.6533" x="238.5" y="869.2969"/><rect fill="#F1F1F1" height="10" style="stroke:#181818;stroke-width:0.5;" width="15" x="355.1533" y="874.2969"/><rect fill="#F1F1F1" height="2" style="stroke:#181818;stroke-width:0.5;" width="4" x="353.1533" y="876.2969"/><rect fill="#F1F1F1" height="2" style="stroke:#181818;stroke-width:0.5;" width="4" x="353.1533" y="880.2969"/><text fill="#000000" font-family="sans-serif" font-size="14" font-style="italic" lengthAdjust="spacing" textLength="62.3232" x="270.665" y="902.292">&#171;library&#187;</text><text fill="#000000" font-family="sans-serif" font-size="14" lengthAdjust="spacing" textLength="96.6533" x="253.5" y="918.5889">mw::time::svt</text></g><!--entity app_abs_bl--><g id="elem_app_abs_bl"><rect fill="#F1F1F1" height="46.2969" rx="2.5" ry="2.5" style="stroke:#181818;stroke-width:0.5;" width="139.1143" x="505.5" y="1009.2969"/><rect fill="#F1F1F1" height="10" style="stroke:#181818;stroke-width:0.5;" width="15" x="624.6143" y="1014.2969"/><rect fill="#F1F1F1" height="2" style="stroke:#181818;stroke-width:0.5;" width="4" x="622.6143" y="1016.2969"/><rect fill="#F1F1F1" height="2" style="stroke:#181818;stroke-width:0.5;" width="4" x="622.6143" y="1020.2969"/><text fill="#000000" font-family="sans-serif" font-size="14" lengthAdjust="spacing" textLength="99.1143" x="520.5" y="1042.292">Business logic</text></g><!--entity mw_abs--><g id="elem_mw_abs"><rect fill="#F1F1F1" height="62.5938" rx="2.5" ry="2.5" style="stroke:#181818;stroke-width:0.5;" width="140.3447" x="505" y="869.2969"/><rect fill="#F1F1F1" height="10" style="stroke:#181818;stroke-width:0.5;" width="15" x="625.3447" y="874.2969"/><rect fill="#F1F1F1" height="2" style="stroke:#181818;stroke-width:0.5;" width="4" x="623.3447" y="876.2969"/><rect fill="#F1F1F1" height="2" style="stroke:#181818;stroke-width:0.5;" width="4" x="623.3447" y="880.2969"/><text fill="#000000" font-family="sans-serif" font-size="14" font-style="italic" lengthAdjust="spacing" textLength="62.3232" x="539.0107" y="902.292">&#171;library&#187;</text><text fill="#000000" font-family="sans-serif" font-size="14" lengthAdjust="spacing" textLength="100.3447" x="520" y="918.5889">mw::time::abs</text></g><!--entity ptpd--><g id="elem_ptpd"><rect fill="#F1F1F1" height="62.5938" rx="2.5" ry="2.5" style="stroke:#181818;stroke-width:0.5;" width="116.4365" x="258" y="83.2969"/><rect fill="#F1F1F1" height="10" style="stroke:#181818;stroke-width:0.5;" width="15" x="354.4365" y="88.2969"/><rect fill="#F1F1F1" height="2" style="stroke:#181818;stroke-width:0.5;" width="4" x="352.4365" y="90.2969"/><rect fill="#F1F1F1" height="2" style="stroke:#181818;stroke-width:0.5;" width="4" x="352.4365" y="94.2969"/><text fill="#000000" font-family="sans-serif" font-size="14" font-style="italic" lengthAdjust="spacing" textLength="74.4365" x="274" y="116.292">&#171;daemon&#187;</text><text fill="#000000" font-family="sans-serif" font-size="14" lengthAdjust="spacing" textLength="32.1494" x="295.1436" y="132.5889">ptpd</text></g><!--entity time_provider--><g id="elem_time_provider"><rect fill="#F1F1F1" height="62.5938" rx="2.5" ry="2.5" style="stroke:#181818;stroke-width:0.5;" width="137.7813" x="526" y="83.2969"/><rect fill="#F1F1F1" height="10" style="stroke:#181818;stroke-width:0.5;" width="15" x="643.7813" y="88.2969"/><rect fill="#F1F1F1" height="2" style="stroke:#181818;stroke-width:0.5;" width="4" x="641.7813" y="90.2969"/><rect fill="#F1F1F1" height="2" style="stroke:#181818;stroke-width:0.5;" width="4" x="641.7813" y="94.2969"/><text fill="#000000" font-family="sans-serif" font-size="14" font-style="italic" lengthAdjust="spacing" textLength="67.4297" x="556.1758" y="116.292">&#171;service&#187;</text><text fill="#000000" font-family="sans-serif" font-size="14" lengthAdjust="spacing" textLength="97.7813" x="541" y="132.5889">Time provider</text></g><!--entity msg_broker--><g id="elem_msg_broker"><rect fill="#F1F1F1" height="46.2969" rx="2.5" ry="2.5" style="stroke:#181818;stroke-width:0.5;" width="147.7617" x="32" y="309.2969"/><rect fill="#F1F1F1" height="10" style="stroke:#181818;stroke-width:0.5;" width="15" x="159.7617" y="314.2969"/><rect fill="#F1F1F1" height="2" style="stroke:#181818;stroke-width:0.5;" width="4" x="157.7617" y="316.2969"/><rect fill="#F1F1F1" height="2" style="stroke:#181818;stroke-width:0.5;" width="4" x="157.7617" y="320.2969"/><text fill="#000000" font-family="sans-serif" font-size="14" lengthAdjust="spacing" textLength="107.7617" x="47" y="342.292">MessageBroker</text></g><!--entity ptp_machine--><g id="elem_ptp_machine"><rect fill="#F1F1F1" height="46.2969" rx="2.5" ry="2.5" style="stroke:#181818;stroke-width:0.5;" width="130.0498" x="251" y="309.2969"/><rect fill="#F1F1F1" height="10" style="stroke:#181818;stroke-width:0.5;" width="15" x="361.0498" y="314.2969"/><rect fill="#F1F1F1" height="2" style="stroke:#181818;stroke-width:0.5;" width="4" x="359.0498" y="316.2969"/><rect fill="#F1F1F1" height="2" style="stroke:#181818;stroke-width:0.5;" width="4" x="359.0498" y="320.2969"/><text fill="#000000" font-family="sans-serif" font-size="14" lengthAdjust="spacing" textLength="90.0498" x="266" y="342.292">PTP machine</text></g><!--entity cf_ptp--><g id="elem_cf_ptp"><rect fill="#F1F1F1" height="46.2969" rx="2.5" ry="2.5" style="stroke:#181818;stroke-width:0.5;" width="202.8594" x="214.5" y="432.2969"/><rect fill="#F1F1F1" height="10" style="stroke:#181818;stroke-width:0.5;" width="15" x="397.3594" y="437.2969"/><rect fill="#F1F1F1" height="2" style="stroke:#181818;stroke-width:0.5;" width="4" x="395.3594" y="439.2969"/><rect fill="#F1F1F1" height="2" style="stroke:#181818;stroke-width:0.5;" width="4" x="395.3594" y="443.2969"/><text fill="#000000" font-family="sans-serif" font-size="14" lengthAdjust="spacing" textLength="162.8594" x="229.5" y="465.292">ControlFlowDivider PTP</text></g><!--entity verification_machine_ptp--><g id="elem_verification_machine_ptp"><rect fill="#F1F1F1" height="46.2969" rx="2.5" ry="2.5" style="stroke:#181818;stroke-width:0.5;" width="208.2393" x="212" y="555.2969"/><rect fill="#F1F1F1" height="10" style="stroke:#181818;stroke-width:0.5;" width="15" x="400.2393" y="560.2969"/><rect fill="#F1F1F1" height="2" style="stroke:#181818;stroke-width:0.5;" width="4" x="398.2393" y="562.2969"/><rect fill="#F1F1F1" height="2" style="stroke:#181818;stroke-width:0.5;" width="4" x="398.2393" y="566.2969"/><text fill="#000000" font-family="sans-serif" font-size="14" lengthAdjust="spacing" textLength="168.2393" x="227" y="588.292">VerificationMachine PTP</text></g><!--entity ipc_ptp--><g id="elem_ipc_ptp"><rect fill="#F1F1F1" height="46.2969" rx="2.5" ry="2.5" style="stroke:#181818;stroke-width:0.5;" width="94.7832" x="259.5" y="678.2969"/><rect fill="#F1F1F1" height="10" style="stroke:#181818;stroke-width:0.5;" width="15" x="334.2832" y="683.2969"/><rect fill="#F1F1F1" height="2" style="stroke:#181818;stroke-width:0.5;" width="4" x="332.2832" y="685.2969"/><rect fill="#F1F1F1" height="2" style="stroke:#181818;stroke-width:0.5;" width="4" x="332.2832" y="689.2969"/><text fill="#000000" font-family="sans-serif" font-size="14" lengthAdjust="spacing" textLength="54.7832" x="274.5" y="711.292">IPC_PTP</text></g><!--entity abs_time_machine--><g id="elem_abs_time_machine"><rect fill="#F1F1F1" height="46.2969" rx="2.5" ry="2.5" style="stroke:#181818;stroke-width:0.5;" width="194.4854" x="498" y="309.2969"/><rect fill="#F1F1F1" height="10" style="stroke:#181818;stroke-width:0.5;" width="15" x="672.4854" y="314.2969"/><rect fill="#F1F1F1" height="2" style="stroke:#181818;stroke-width:0.5;" width="4" x="670.4854" y="316.2969"/><rect fill="#F1F1F1" height="2" style="stroke:#181818;stroke-width:0.5;" width="4" x="670.4854" y="320.2969"/><text fill="#000000" font-family="sans-serif" font-size="14" lengthAdjust="spacing" textLength="154.4854" x="513" y="342.292">AbsoluteTimeMachine</text></g><!--entity cf_abs--><g id="elem_cf_abs"><rect fill="#F1F1F1" height="46.2969" rx="2.5" ry="2.5" style="stroke:#181818;stroke-width:0.5;" width="237.873" x="476" y="432.2969"/><rect fill="#F1F1F1" height="10" style="stroke:#181818;stroke-width:0.5;" width="15" x="693.873" y="437.2969"/><rect fill="#F1F1F1" height="2" style="stroke:#181818;stroke-width:0.5;" width="4" x="691.873" y="439.2969"/><rect fill="#F1F1F1" height="2" style="stroke:#181818;stroke-width:0.5;" width="4" x="691.873" y="443.2969"/><text fill="#000000" font-family="sans-serif" font-size="14" lengthAdjust="spacing" textLength="197.873" x="491" y="465.292">ControlFlowDivider AbsTime</text></g><!--entity verification_machine_abs--><g id="elem_verification_machine_abs"><rect fill="#F1F1F1" height="46.2969" rx="2.5" ry="2.5" style="stroke:#181818;stroke-width:0.5;" width="243.2529" x="476.5" y="555.2969"/><rect fill="#F1F1F1" height="10" style="stroke:#181818;stroke-width:0.5;" width="15" x="699.7529" y="560.2969"/><rect fill="#F1F1F1" height="2" style="stroke:#181818;stroke-width:0.5;" width="4" x="697.7529" y="562.2969"/><rect fill="#F1F1F1" height="2" style="stroke:#181818;stroke-width:0.5;" width="4" x="697.7529" y="566.2969"/><text fill="#000000" font-family="sans-serif" font-size="14" lengthAdjust="spacing" textLength="203.2529" x="491.5" y="588.292">VerificationMachine AbsTime</text></g><!--entity ipc_abs--><g id="elem_ipc_abs"><rect fill="#F1F1F1" height="46.2969" rx="2.5" ry="2.5" style="stroke:#181818;stroke-width:0.5;" width="129.7969" x="510" y="678.2969"/><rect fill="#F1F1F1" height="10" style="stroke:#181818;stroke-width:0.5;" width="15" x="619.7969" y="683.2969"/><rect fill="#F1F1F1" height="2" style="stroke:#181818;stroke-width:0.5;" width="4" x="617.7969" y="685.2969"/><rect fill="#F1F1F1" height="2" style="stroke:#181818;stroke-width:0.5;" width="4" x="617.7969" y="689.2969"/><text fill="#000000" font-family="sans-serif" font-size="14" lengthAdjust="spacing" textLength="89.7969" x="525" y="711.292">IPC_AbsTime</text></g><!--link ptpd to ptp_machine--><g id="link_ptpd_ptp_machine"><path d="M316,146.6769 C316,190.6669 316,264.3269 316,303.0169 " fill="transparent" id="ptpd-to-ptp_machine" style="stroke:#0000FF;stroke-width:1;"/><polygon fill="#0000FF" points="316,309.0169,320,300.0169,316,304.0169,312,300.0169,316,309.0169" style="stroke:#0000FF;stroke-width:1;"/><text fill="#000000" font-family="sans-serif" font-size="13" lengthAdjust="spacing" textLength="113.8325" x="337.2871" y="191.3638">PTP time updates</text><text fill="#000000" font-family="sans-serif" font-size="13" lengthAdjust="spacing" textLength="154.4067" x="317" y="206.4966">(via shmem and devctl)</text></g><!--link ptp_machine to cf_ptp--><g id="link_ptp_machine_cf_ptp"><path d="M316,355.4869 C316,377.3269 316,404.4569 316,426.2469 " fill="transparent" id="ptp_machine-to-cf_ptp" style="stroke:#008000;stroke-width:1;"/><polygon fill="#008000" points="316,432.2469,320,423.2469,316,427.2469,312,423.2469,316,432.2469" style="stroke:#008000;stroke-width:1;"/><text fill="#000000" font-family="sans-serif" font-size="13" lengthAdjust="spacing" textLength="57.0337" x="317" y="398.3638">PTP data</text></g><!--link cf_ptp to verification_machine_ptp--><g id="link_cf_ptp_verification_machine_ptp"><path d="M316,478.4869 C316,500.3269 316,527.4569 316,549.2469 " fill="transparent" id="cf_ptp-to-verification_machine_ptp" style="stroke:#008000;stroke-width:1;"/><polygon fill="#008000" points="316,555.2469,320,546.2469,316,550.2469,312,546.2469,316,555.2469" style="stroke:#008000;stroke-width:1;"/><text fill="#000000" font-family="sans-serif" font-size="13" lengthAdjust="spacing" textLength="57.0337" x="317" y="521.3638">PTP data</text></g><!--link verification_machine_ptp to ipc_ptp--><g id="link_verification_machine_ptp_ipc_ptp"><path d="M314.35,601.4869 C312.73,623.3269 310.7048,650.4734 309.0848,672.2634 " fill="transparent" id="verification_machine_ptp-to-ipc_ptp" style="stroke:#008000;stroke-width:1;"/><polygon fill="#008000" points="308.64,678.2469,313.2963,669.5682,309.0107,673.2606,305.3183,668.9751,308.64,678.2469" style="stroke:#008000;stroke-width:1;"/><text fill="#000000" font-family="sans-serif" font-size="13" lengthAdjust="spacing" textLength="111.541" x="313" y="644.3638">Verified PTP time</text></g><!--link ipc_ptp to mw--><g id="link_ipc_ptp_mw"><path d="M307,724.5669 C307,759.9769 307,823.1869 307,863.2169 " fill="transparent" id="ipc_ptp-to-mw" style="stroke:#008000;stroke-width:1;"/><polygon fill="#008000" points="307,869.2169,311,860.2169,307,864.2169,303,860.2169,307,869.2169" style="stroke:#008000;stroke-width:1;"/><text fill="#000000" font-family="sans-serif" font-size="13" lengthAdjust="spacing" textLength="136.5127" x="308" y="793.3638">PTP time information</text></g><!--link mw to app_bl--><g id="link_mw_app_bl"><path d="M307,932.4869 C307,955.9769 307,981.8169 307,1002.9269 " fill="transparent" id="mw-to-app_bl" style="stroke:#FFA500;stroke-width:1;"/><polygon fill="#FFA500" points="307,1008.9269,311,999.9269,307,1003.9269,303,999.9269,307,1008.9269" style="stroke:#FFA500;stroke-width:1;"/><text fill="#000000" font-family="sans-serif" font-size="13" lengthAdjust="spacing" textLength="38.4541" x="308" y="975.3638">Now()</text></g><!--link time_provider to abs_time_machine--><g id="link_time_provider_abs_time_machine"><path d="M595,146.6769 C595,190.6669 595,264.3269 595,303.0169 " fill="transparent" id="time_provider-to-abs_time_machine" style="stroke:#0000FF;stroke-width:1;"/><polygon fill="#0000FF" points="595,309.0169,599,300.0169,595,304.0169,591,300.0169,595,309.0169" style="stroke:#0000FF;stroke-width:1;"/><text fill="#000000" font-family="sans-serif" font-size="13" lengthAdjust="spacing" textLength="90.3208" x="596.9744" y="191.3638">Absolute time</text><text fill="#000000" font-family="sans-serif" font-size="13" lengthAdjust="spacing" textLength="92.2695" x="596" y="206.4966">(UTC/TAI/GPS)</text></g><!--link abs_time_machine to cf_abs--><g id="link_abs_time_machine_cf_abs"><path d="M595,355.4869 C595,377.3269 595,404.4569 595,426.2469 " fill="transparent" id="abs_time_machine-to-cf_abs" style="stroke:#800080;stroke-width:1;"/><polygon fill="#800080" points="595,432.2469,599,423.2469,595,427.2469,591,423.2469,595,432.2469" style="stroke:#800080;stroke-width:1;"/><text fill="#000000" font-family="sans-serif" font-size="13" lengthAdjust="spacing" textLength="123.7349" x="596" y="398.3638">Absolute time data</text></g><!--link cf_abs to verification_machine_abs--><g id="link_cf_abs_verification_machine_abs"><path d="M595.55,478.4869 C596.09,500.3269 596.7614,527.4587 597.3014,549.2487 " fill="transparent" id="cf_abs-to-verification_machine_abs" style="stroke:#800080;stroke-width:1;"/><polygon fill="#800080" points="597.45,555.2469,601.2258,546.1505,597.3261,550.2484,593.2283,546.3487,597.45,555.2469" style="stroke:#800080;stroke-width:1;"/><text fill="#000000" font-family="sans-serif" font-size="13" lengthAdjust="spacing" textLength="123.7349" x="597" y="521.3638">Absolute time data</text></g><!--link verification_machine_abs to ipc_abs--><g id="link_verification_machine_abs_ipc_abs"><path d="M593.78,601.4869 C589.63,623.3269 584.4499,650.5623 580.3099,672.3523 " fill="transparent" id="verification_machine_abs-to-ipc_abs" style="stroke:#800080;stroke-width:1;"/><polygon fill="#800080" points="579.19,678.2469,584.7996,670.1517,580.1233,673.3347,576.9402,668.6584,579.19,678.2469" style="stroke:#800080;stroke-width:1;"/><text fill="#000000" font-family="sans-serif" font-size="13" lengthAdjust="spacing" textLength="143.8125" x="588" y="644.3638">Verified absolute time</text></g><!--link ipc_abs to mw_abs--><g id="link_ipc_abs_mw_abs"><path d="M575,724.5669 C575,759.9769 575,823.1869 575,863.2169 " fill="transparent" id="ipc_abs-to-mw_abs" style="stroke:#800080;stroke-width:1;"/><polygon fill="#800080" points="575,869.2169,579,860.2169,575,864.2169,571,860.2169,575,869.2169" style="stroke:#800080;stroke-width:1;"/><text fill="#000000" font-family="sans-serif" font-size="13" lengthAdjust="spacing" textLength="90.3208" x="576" y="793.3638">Absolute time</text></g><!--link mw_abs to app_abs_bl--><g id="link_mw_abs_app_abs_bl"><path d="M575,932.4869 C575,955.9769 575,981.8169 575,1002.9269 " fill="transparent" id="mw_abs-to-app_abs_bl" style="stroke:#FFA500;stroke-width:1;"/><polygon fill="#FFA500" points="575,1008.9269,579,999.9269,575,1003.9269,571,999.9269,575,1008.9269" style="stroke:#FFA500;stroke-width:1;"/><text fill="#000000" font-family="sans-serif" font-size="13" lengthAdjust="spacing" textLength="38.4541" x="576" y="975.3638">Now()</text></g><!--SRC=[ZLHDRzim3BthLn3TOSsXwDqe0gJ9DWHODWF9Tka2GxQPLAXi2R9Y8nZotoVAtscypJUJxptoaRIji19XXLggSuQvXL9WnLYkKeIxXTPI9DmAbSDNVaPp1xyPkEVb-LI878i2f3gAP0-y0Avr5CiwdLL1O4M6GL2KTWzFJrB4XflpV4x8h6ANoHA_ylj5N2XviWWx9p7xLqqU5pVgkkYDkWJkQuUx45OSCvLtDRJLAV5I7wvf5Ej9snMtiFs- -RGEEnRr2TgeKgHeY5wWAKM2DPyQYjfiBqIag-eRvuuVyTceDzBnFHV7AFRlp6CqJzuSf6u-51gbcqahu4KeaV7arSNtJVjHyzw3bYgtHidFKbKhuHi3n_Fuv10vIW_zYKOScXLjQfqQI-1oa6ohZEdhS1crqa8dNV9ovMUqzDlEMWWXDgr3VmRk1FoK_yUdKo61rYjTn5-zTlX9loC9yZiiGPvRm8Ms_n66gsDqNV3myY6M9zm_p8VhWi13oHcSTCej5kxhA0M7uZN337YUGefbOkMC3MbExMWGSvAhjzaeEGdEciWGDBN50MiACj9fzXj0FKTCk_vPanh1tTVQ6nJvGPdCwxEi8fmoF3_wcTI_5cVYcwhkPpJ2szV2Hf_QSAhN5-AqEWcAkxd-s2qVTulruvTmEsFly4vBduoMs0pL0Qurkl5IReIVkfgR0bFWiMHpLeDHyw4KQ_9ZKlq3lEwRDU5t8w__hDtO_m00]--></g></svg>