<svg xmlns="http://www.w3.org/2000/svg" xmlns:xlink="http://www.w3.org/1999/xlink" contentStyleType="text/css" data-diagram-type="CLASS" height="584px" preserveAspectRatio="none" style="width:872px;height:584px;background:#FFFFFF;" version="1.1" viewBox="0 0 872 584" width="872px" zoomAndPan="magnify"><title>Application: Class Diagram</title><defs/><g><text fill="#000000" font-family="sans-serif" font-size="14" font-weight="bold" lengthAdjust="spacing" textLength="212.6592" x="323.1272" y="22.9951">Application: Class Diagram</text><rect fill="#DDDDDD" height="128.0781" id="_legend" rx="7.5" ry="7.5" style="stroke:#000000;stroke-width:1;" width="304.6357" x="12" y="49.2969"/><text fill="#000000" font-family="sans-serif" font-size="14" font-weight="bold" lengthAdjust="spacing" textLength="41.2139" x="21.874" y="69.292">Color</text><text fill="#000000" font-family="sans-serif" font-size="14" font-weight="bold" lengthAdjust="spacing" textLength="90.5488" x="111.8281" y="69.292">Description</text><rect fill="#E0FFFF" height="16.2969" style="stroke:transparent;stroke-width:1;" width="89.9541" x="17" y="72.5938"/><text fill="#000000" font-family="sans-serif" font-size="14" lengthAdjust="spacing" textLength="13.3506" x="17" y="85.5889">&#160;&#160;&#160;</text><text fill="#000000" font-family="sans-serif" font-size="14" lengthAdjust="spacing" textLength="164.6299" x="111.4043" y="85.5889">TimeDaemon members</text><rect fill="#AFEEEE" height="16.2969" style="stroke:transparent;stroke-width:1;" width="89.9541" x="17" y="88.8906"/><text fill="#000000" font-family="sans-serif" font-size="14" lengthAdjust="spacing" textLength="4.4502" x="17" y="101.8857">&#160;</text><text fill="#000000" font-family="sans-serif" font-size="14" lengthAdjust="spacing" textLength="107.7617" x="111.4043" y="101.8857">MessageBroker</text><rect fill="#F5DEB3" height="16.2969" style="stroke:transparent;stroke-width:1;" width="89.9541" x="17" y="105.1875"/><text fill="#000000" font-family="sans-serif" font-size="14" lengthAdjust="spacing" textLength="31.1514" x="17" y="118.1826">&#160;&#160;&#160;&#160;&#160;&#160;&#160;</text><text fill="#000000" font-family="sans-serif" font-size="14" lengthAdjust="spacing" textLength="81.4229" x="111.4043" y="118.1826">PtpMachine</text><rect fill="#ADD8E6" height="16.2969" style="stroke:transparent;stroke-width:1;" width="89.9541" x="17" y="121.4844"/><text fill="#000000" font-family="sans-serif" font-size="14" lengthAdjust="spacing" textLength="13.3506" x="17" y="134.4795">&#160;&#160;&#160;</text><text fill="#000000" font-family="sans-serif" font-size="14" lengthAdjust="spacing" textLength="132.9727" x="111.4043" y="134.4795">ControlFlowDivider</text><rect fill="#E6E6FA" height="16.2969" style="stroke:transparent;stroke-width:1;" width="89.9541" x="17" y="137.7813"/><text fill="#000000" font-family="sans-serif" font-size="14" lengthAdjust="spacing" textLength="17.8008" x="17" y="150.7764">&#160;&#160;&#160;&#160;</text><text fill="#000000" font-family="sans-serif" font-size="14" lengthAdjust="spacing" textLength="138.3525" x="111.4043" y="150.7764">VerificationMachine</text><rect fill="#FFB6C1" height="16.2969" style="stroke:transparent;stroke-width:1;" width="89.9541" x="17" y="154.0781"/><text fill="#000000" font-family="sans-serif" font-size="14" lengthAdjust="spacing" textLength="13.3506" x="17" y="167.0732">&#160;&#160;&#160;</text><text fill="#000000" font-family="sans-serif" font-size="14" lengthAdjust="spacing" textLength="113.292" x="111.4043" y="167.0732">IPC components</text><line style="stroke:#000000;stroke-width:1;" x1="17" x2="311.6357" y1="56.2969" y2="56.2969"/><line style="stroke:#000000;stroke-width:1;" x1="17" x2="311.6357" y1="72.5938" y2="72.5938"/><line style="stroke:#000000;stroke-width:1;" x1="17" x2="311.6357" y1="88.8906" y2="88.8906"/><line style="stroke:#000000;stroke-width:1;" x1="17" x2="311.6357" y1="105.1875" y2="105.1875"/><line style="stroke:#000000;stroke-width:1;" x1="17" x2="311.6357" y1="121.4844" y2="121.4844"/><line style="stroke:#000000;stroke-width:1;" x1="17" x2="311.6357" y1="137.7813" y2="137.7813"/><line style="stroke:#000000;stroke-width:1;" x1="17" x2="311.6357" y1="154.0781" y2="154.0781"/><line style="stroke:#000000;stroke-width:1;" x1="17" x2="311.6357" y1="170.375" y2="170.375"/><line style="stroke:#000000;stroke-width:1;" x1="17" x2="17" y1="56.2969" y2="170.375"/><line style="stroke:#000000;stroke-width:1;" x1="106.9541" x2="106.9541" y1="56.2969" y2="170.375"/><line style="stroke:#000000;stroke-width:1;" x1="311.6357" x2="311.6357" y1="56.2969" y2="170.375"/><!--class vtd_app--><g id="elem_vtd_app"><rect codeLine="14" fill="#E0FFFF" height="80.5938" id="vtd_app" rx="2.5" ry="2.5" style="stroke:#181818;stroke-width:0.5;" width="486.5029" x="172.5" y="197.375"/><ellipse cx="364.6309" cy="213.375" fill="#ADD1B2" rx="11" ry="11" style="stroke:#181818;stroke-width:1;"/><path d="M367.5996,219.0156 Q367.0215,219.3125 366.3809,219.4531 Q365.7402,219.6094 365.0371,219.6094 Q362.5371,219.6094 361.209,217.9688 Q359.8965,216.3125 359.8965,213.1875 Q359.8965,210.0625 361.209,208.4063 Q362.5371,206.75 365.0371,206.75 Q365.7402,206.75 366.3809,206.9063 Q367.0371,207.0625 367.5996,207.3594 L367.5996,210.0781 Q366.9746,209.5 366.3809,209.2344 Q365.7871,208.9531 365.1621,208.9531 Q363.8184,208.9531 363.1309,210.0313 Q362.4434,211.0938 362.4434,213.1875 Q362.4434,215.2813 363.1309,216.3594 Q363.8184,217.4219 365.1621,217.4219 Q365.7871,217.4219 366.3809,217.1563 Q366.9746,216.875 367.5996,216.2969 L367.5996,219.0156 Z " fill="#000000"/><text fill="#000000" font-family="sans-serif" font-size="14" lengthAdjust="spacing" textLength="93.7412" x="385.1309" y="218.2217">TimeDaemon</text><line style="stroke:#181818;stroke-width:0.5;" x1="173.5" x2="658.0029" y1="229.375" y2="229.375"/><line style="stroke:#181818;stroke-width:0.5;" x1="173.5" x2="658.0029" y1="237.375" y2="237.375"/><ellipse cx="183.5" cy="251.0234" fill="#84BE84" rx="3" ry="3" style="stroke:#038048;stroke-width:1;"/><text fill="#000000" font-family="sans-serif" font-size="14" lengthAdjust="spacing" textLength="460.5029" x="192.5" y="254.3701">std::int32_t Initialize(const ApplicationContext&amp; context) override</text><ellipse cx="183.5" cy="267.3203" fill="#84BE84" rx="3" ry="3" style="stroke:#038048;stroke-width:1;"/><text fill="#000000" font-family="sans-serif" font-size="14" lengthAdjust="spacing" textLength="399.4854" x="192.5" y="270.667">std::int32_t Run(score::cpp::stop_token&amp; token) override</text></g><!--class tb_handler--><g id="elem_tb_handler"><rect codeLine="19" fill="#E0FFFF" height="96.8906" id="tb_handler" rx="2.5" ry="2.5" style="stroke:#181818;stroke-width:0.5;" width="222.4785" x="305" y="355.375"/><ellipse cx="350.394" cy="371.375" fill="#ADD1B2" rx="11" ry="11" style="stroke:#181818;stroke-width:1;"/><path d="M353.3628,377.0156 Q352.7847,377.3125 352.144,377.4531 Q351.5034,377.6094 350.8003,377.6094 Q348.3003,377.6094 346.9722,375.9688 Q345.6597,374.3125 345.6597,371.1875 Q345.6597,368.0625 346.9722,366.4063 Q348.3003,364.75 350.8003,364.75 Q351.5034,364.75 352.144,364.9063 Q352.8003,365.0625 353.3628,365.3594 L353.3628,368.0781 Q352.7378,367.5 352.144,367.2344 Q351.5503,366.9531 350.9253,366.9531 Q349.5815,366.9531 348.894,368.0313 Q348.2065,369.0938 348.2065,371.1875 Q348.2065,373.2813 348.894,374.3594 Q349.5815,375.4219 350.9253,375.4219 Q351.5503,375.4219 352.144,375.1563 Q352.7378,374.875 353.3628,374.2969 L353.3628,377.0156 Z " fill="#000000"/><text fill="#000000" font-family="sans-serif" font-size="14" lengthAdjust="spacing" textLength="123.1904" x="370.894" y="376.2217">TimebaseHandler</text><line style="stroke:#181818;stroke-width:0.5;" x1="306" x2="526.4785" y1="387.375" y2="387.375"/><line style="stroke:#181818;stroke-width:0.5;" x1="306" x2="526.4785" y1="395.375" y2="395.375"/><ellipse cx="316" cy="409.0234" fill="#84BE84" rx="3" ry="3" style="stroke:#038048;stroke-width:1;"/><text fill="#000000" font-family="sans-serif" font-size="14" lengthAdjust="spacing" textLength="103.5918" x="325" y="412.3701">void Initialize()</text><ellipse cx="316" cy="425.3203" fill="#84BE84" rx="3" ry="3" style="stroke:#038048;stroke-width:1;"/><text fill="#000000" font-family="sans-serif" font-size="14" lengthAdjust="spacing" textLength="196.4785" x="325" y="428.667">void RunOnce(stop_token&amp;)</text><ellipse cx="316" cy="441.6172" fill="#84BE84" rx="3" ry="3" style="stroke:#038048;stroke-width:1;"/><text fill="#000000" font-family="sans-serif" font-size="14" lengthAdjust="spacing" textLength="76.8291" x="325" y="444.9639">void Stop()</text></g><g id="elem_GMN4"><path d="M562.5,383.875 L562.5,399.875 L527.17,403.875 L562.5,407.875 L562.5,424.1406 A0,0 0 0 0 562.5,424.1406 L865.9136,424.1406 A0,0 0 0 0 865.9136,424.1406 L865.9136,393.875 L855.9136,383.875 L562.5,383.875 A0,0 0 0 0 562.5,383.875 " fill="#FEFFDD" style="stroke:#181818;stroke-width:0.5;"/><path d="M855.9136,383.875 L855.9136,393.875 L865.9136,393.875 L855.9136,383.875 " fill="#FEFFDD" style="stroke:#181818;stroke-width:0.5;"/><text fill="#000000" font-family="sans-serif" font-size="13" lengthAdjust="spacing" textLength="282.4136" x="568.5" y="400.9419">There might be multiple TimebaseHandlers</text><text fill="#000000" font-family="sans-serif" font-size="13" lengthAdjust="spacing" textLength="280.3442" x="568.5" y="416.0747">based on amount of supported time bases.</text></g><!--class msg_broker--><g id="elem_msg_broker"><rect codeLine="29" fill="#AFEEEE" height="48" id="msg_broker" rx="2.5" ry="2.5" style="stroke:#181818;stroke-width:0.5;" width="139.7617" x="7" y="529.375"/><ellipse cx="22" cy="545.375" fill="#ADD1B2" rx="11" ry="11" style="stroke:#181818;stroke-width:1;"/><path d="M24.9688,551.0156 Q24.3906,551.3125 23.75,551.4531 Q23.1094,551.6094 22.4063,551.6094 Q19.9063,551.6094 18.5781,549.9688 Q17.2656,548.3125 17.2656,545.1875 Q17.2656,542.0625 18.5781,540.4063 Q19.9063,538.75 22.4063,538.75 Q23.1094,538.75 23.75,538.9063 Q24.4063,539.0625 24.9688,539.3594 L24.9688,542.0781 Q24.3438,541.5 23.75,541.2344 Q23.1563,540.9531 22.5313,540.9531 Q21.1875,540.9531 20.5,542.0313 Q19.8125,543.0938 19.8125,545.1875 Q19.8125,547.2813 20.5,548.3594 Q21.1875,549.4219 22.5313,549.4219 Q23.1563,549.4219 23.75,549.1563 Q24.3438,548.875 24.9688,548.2969 L24.9688,551.0156 Z " fill="#000000"/><text fill="#000000" font-family="sans-serif" font-size="14" lengthAdjust="spacing" textLength="107.7617" x="36" y="550.2217">MessageBroker</text><line style="stroke:#181818;stroke-width:0.5;" x1="8" x2="145.7617" y1="561.375" y2="561.375"/><line style="stroke:#181818;stroke-width:0.5;" x1="8" x2="145.7617" y1="569.375" y2="569.375"/></g><!--class ptp_machine--><g id="elem_ptp_machine"><rect codeLine="30" fill="#F5DEB3" height="48" id="ptp_machine" rx="2.5" ry="2.5" style="stroke:#181818;stroke-width:0.5;" width="113.4229" x="182.5" y="529.375"/><ellipse cx="197.5" cy="545.375" fill="#ADD1B2" rx="11" ry="11" style="stroke:#181818;stroke-width:1;"/><path d="M200.4688,551.0156 Q199.8906,551.3125 199.25,551.4531 Q198.6094,551.6094 197.9063,551.6094 Q195.4063,551.6094 194.0781,549.9688 Q192.7656,548.3125 192.7656,545.1875 Q192.7656,542.0625 194.0781,540.4063 Q195.4063,538.75 197.9063,538.75 Q198.6094,538.75 199.25,538.9063 Q199.9063,539.0625 200.4688,539.3594 L200.4688,542.0781 Q199.8438,541.5 199.25,541.2344 Q198.6563,540.9531 198.0313,540.9531 Q196.6875,540.9531 196,542.0313 Q195.3125,543.0938 195.3125,545.1875 Q195.3125,547.2813 196,548.3594 Q196.6875,549.4219 198.0313,549.4219 Q198.6563,549.4219 199.25,549.1563 Q199.8438,548.875 200.4688,548.2969 L200.4688,551.0156 Z " fill="#000000"/><text fill="#000000" font-family="sans-serif" font-size="14" lengthAdjust="spacing" textLength="81.4229" x="211.5" y="550.2217">PtpMachine</text><line style="stroke:#181818;stroke-width:0.5;" x1="183.5" x2="294.9229" y1="561.375" y2="561.375"/><line style="stroke:#181818;stroke-width:0.5;" x1="183.5" x2="294.9229" y1="569.375" y2="569.375"/></g><!--class ver_machine--><g id="elem_ver_machine"><rect codeLine="31" fill="#E6E6FA" height="48" id="ver_machine" rx="2.5" ry="2.5" style="stroke:#181818;stroke-width:0.5;" width="170.3525" x="331" y="529.375"/><ellipse cx="346" cy="545.375" fill="#ADD1B2" rx="11" ry="11" style="stroke:#181818;stroke-width:1;"/><path d="M348.9688,551.0156 Q348.3906,551.3125 347.75,551.4531 Q347.1094,551.6094 346.4063,551.6094 Q343.9063,551.6094 342.5781,549.9688 Q341.2656,548.3125 341.2656,545.1875 Q341.2656,542.0625 342.5781,540.4063 Q343.9063,538.75 346.4063,538.75 Q347.1094,538.75 347.75,538.9063 Q348.4063,539.0625 348.9688,539.3594 L348.9688,542.0781 Q348.3438,541.5 347.75,541.2344 Q347.1563,540.9531 346.5313,540.9531 Q345.1875,540.9531 344.5,542.0313 Q343.8125,543.0938 343.8125,545.1875 Q343.8125,547.2813 344.5,548.3594 Q345.1875,549.4219 346.5313,549.4219 Q347.1563,549.4219 347.75,549.1563 Q348.3438,548.875 348.9688,548.2969 L348.9688,551.0156 Z " fill="#000000"/><text fill="#000000" font-family="sans-serif" font-size="14" lengthAdjust="spacing" textLength="138.3525" x="360" y="550.2217">VerificationMachine</text><line style="stroke:#181818;stroke-width:0.5;" x1="332" x2="500.3525" y1="561.375" y2="561.375"/><line style="stroke:#181818;stroke-width:0.5;" x1="332" x2="500.3525" y1="569.375" y2="569.375"/></g><!--class cf_divider--><g id="elem_cf_divider"><rect codeLine="32" fill="#ADD8E6" height="48" id="cf_divider" rx="2.5" ry="2.5" style="stroke:#181818;stroke-width:0.5;" width="164.9727" x="536.5" y="529.375"/><ellipse cx="551.5" cy="545.375" fill="#ADD1B2" rx="11" ry="11" style="stroke:#181818;stroke-width:1;"/><path d="M554.4688,551.0156 Q553.8906,551.3125 553.25,551.4531 Q552.6094,551.6094 551.9063,551.6094 Q549.4063,551.6094 548.0781,549.9688 Q546.7656,548.3125 546.7656,545.1875 Q546.7656,542.0625 548.0781,540.4063 Q549.4063,538.75 551.9063,538.75 Q552.6094,538.75 553.25,538.9063 Q553.9063,539.0625 554.4688,539.3594 L554.4688,542.0781 Q553.8438,541.5 553.25,541.2344 Q552.6563,540.9531 552.0313,540.9531 Q550.6875,540.9531 550,542.0313 Q549.3125,543.0938 549.3125,545.1875 Q549.3125,547.2813 550,548.3594 Q550.6875,549.4219 552.0313,549.4219 Q552.6563,549.4219 553.25,549.1563 Q553.8438,548.875 554.4688,548.2969 L554.4688,551.0156 Z " fill="#000000"/><text fill="#000000" font-family="sans-serif" font-size="14" lengthAdjust="spacing" textLength="132.9727" x="565.5" y="550.2217">ControlFlowDivider</text><line style="stroke:#181818;stroke-width:0.5;" x1="537.5" x2="700.4727" y1="561.375" y2="561.375"/><line style="stroke:#181818;stroke-width:0.5;" x1="537.5" x2="700.4727" y1="569.375" y2="569.375"/></g><!--class ipc_publisher--><g id="elem_ipc_publisher"><rect codeLine="33" fill="#FFB6C1" height="48" id="ipc_publisher" rx="2.5" ry="2.5" style="stroke:#181818;stroke-width:0.5;" width="117.2305" x="736.5" y="529.375"/><ellipse cx="751.5" cy="545.375" fill="#ADD1B2" rx="11" ry="11" style="stroke:#181818;stroke-width:1;"/><path d="M754.4688,551.0156 Q753.8906,551.3125 753.25,551.4531 Q752.6094,551.6094 751.9063,551.6094 Q749.4063,551.6094 748.0781,549.9688 Q746.7656,548.3125 746.7656,545.1875 Q746.7656,542.0625 748.0781,540.4063 Q749.4063,538.75 751.9063,538.75 Q752.6094,538.75 753.25,538.9063 Q753.9063,539.0625 754.4688,539.3594 L754.4688,542.0781 Q753.8438,541.5 753.25,541.2344 Q752.6563,540.9531 752.0313,540.9531 Q750.6875,540.9531 750,542.0313 Q749.3125,543.0938 749.3125,545.1875 Q749.3125,547.2813 750,548.3594 Q750.6875,549.4219 752.0313,549.4219 Q752.6563,549.4219 753.25,549.1563 Q753.8438,548.875 754.4688,548.2969 L754.4688,551.0156 Z " fill="#000000"/><text fill="#000000" font-family="sans-serif" font-size="14" lengthAdjust="spacing" textLength="85.2305" x="765.5" y="550.2217">IpcPublisher</text><line style="stroke:#181818;stroke-width:0.5;" x1="737.5" x2="852.7305" y1="561.375" y2="561.375"/><line style="stroke:#181818;stroke-width:0.5;" x1="737.5" x2="852.7305" y1="569.375" y2="569.375"/></g><!--reverse link vtd_app to tb_handler--><g id="link_vtd_app_tb_handler"><path codeLine="35" d="M416,290.575 C416,313.705 416,331.015 416,355.375 " fill="transparent" id="vtd_app-backto-tb_handler" style="stroke:#181818;stroke-width:1;"/><polygon fill="#181818" points="416,278.575,412,284.575,416,290.575,420,284.575,416,278.575" style="stroke:#181818;stroke-width:1;"/><text fill="#000000" font-family="sans-serif" font-size="13" lengthAdjust="spacing" textLength="33.5981" x="417" y="321.4419">owns</text><text fill="#000000" font-family="sans-serif" font-size="13" lengthAdjust="spacing" textLength="23.0356" x="391.2784" y="344.2347">1..*</text></g><!--reverse link tb_handler to msg_broker--><g id="link_tb_handler_msg_broker"><path codeLine="37" d="M295.3964,457.3525 C236.3964,483.0225 177.29,508.735 130.24,529.205 " fill="transparent" id="tb_handler-backto-msg_broker" style="stroke:#181818;stroke-width:1;"/><polygon fill="#181818" points="306.4,452.565,299.3024,451.2909,295.3964,457.3525,302.494,458.6266,306.4,452.565" style="stroke:#181818;stroke-width:1;"/><text fill="#000000" font-family="sans-serif" font-size="13" lengthAdjust="spacing" textLength="33.5981" x="238" y="495.4419">owns</text></g><!--reverse link tb_handler to ptp_machine--><g id="link_tb_handler_ptp_machine"><path codeLine="38" d="M349.3118,460.4478 C318.6318,486.0178 291.46,508.655 266.96,529.075 " fill="transparent" id="tb_handler-backto-ptp_machine" style="stroke:#181818;stroke-width:1;"/><polygon fill="#181818" points="358.53,452.765,351.36,453.5337,349.3118,460.4478,356.4819,459.6791,358.53,452.765" style="stroke:#181818;stroke-width:1;"/><text fill="#000000" font-family="sans-serif" font-size="13" lengthAdjust="spacing" textLength="33.5981" x="324" y="495.4419">owns</text></g><!--reverse link tb_handler to ver_machine--><g id="link_tb_handler_ver_machine"><path codeLine="39" d="M416,464.765 C416,490.335 416,508.655 416,529.075 " fill="transparent" id="tb_handler-backto-ver_machine" style="stroke:#181818;stroke-width:1;"/><polygon fill="#181818" points="416,452.765,412,458.765,416,464.765,420,458.765,416,452.765" style="stroke:#181818;stroke-width:1;"/><text fill="#000000" font-family="sans-serif" font-size="13" lengthAdjust="spacing" textLength="33.5981" x="417" y="495.4419">owns</text></g><!--reverse link tb_handler to cf_divider--><g id="link_tb_handler_cf_divider"><path codeLine="40" d="M491.338,459.6186 C526.668,485.2886 558.94,508.735 587.12,529.205 " fill="transparent" id="tb_handler-backto-cf_divider" style="stroke:#181818;stroke-width:1;"/><polygon fill="#181818" points="481.63,452.565,484.1328,459.3278,491.338,459.6186,488.8352,452.8558,481.63,452.565" style="stroke:#181818;stroke-width:1;"/><text fill="#000000" font-family="sans-serif" font-size="13" lengthAdjust="spacing" textLength="33.5981" x="543" y="495.4419">owns</text></g><!--reverse link tb_handler to ipc_publisher--><g id="link_tb_handler_ipc_publisher"><path codeLine="41" d="M538.333,452.487 C606.813,479.137 680.67,507.875 736.32,529.535 " fill="transparent" id="tb_handler-backto-ipc_publisher" style="stroke:#181818;stroke-width:1;"/><polygon fill="#181818" points="527.15,448.135,531.2908,454.0387,538.333,452.487,534.1922,446.5833,527.15,448.135" style="stroke:#181818;stroke-width:1;"/><text fill="#000000" font-family="sans-serif" font-size="13" lengthAdjust="spacing" textLength="33.5981" x="652" y="495.4419">owns</text></g><!--SRC=[VL9TRvmm47pdLwokKdH9bPFQlg7sfEHELKzgr5DxQX-HCNjWnTYklLpwaVpt6WF5N53y0WmptjdT8K4IuSOOAJWZeLKA6ycSWwrWfMLraaWiKHL0se348oNWp-C7s6YfBGp70rjqt0hJtW6JyzX9uFshpwAiQFERgNK03gB6BSFQ2sgiSxJkkMJF91uQ-xFHmk7QGtVe72lnrkfxjBDLVbJ8Q3t0i2TpntWb50AyQEnMDjWPssX5LikFKZzinKaKOw58mav-B6ZN7V0ThJZs8voMEwko5-g-gxBRRu3hscY5YjpKcB-wctkIyB2EnJYi1J079oeoPWoCCuM_eT1hHqMQ2aNltcO4EoL8C2d-u99hvIZUTDib_g8BRoAyN88-eRM-tPcBlZPgwRYscARSc3HrFWyP-Hse2mYFIFqqCPqpXvzOsuyDpYdFgkupCjzxFsbHn9ul8zWx-A8uBgFAyUzl7lRyfqHfGh3jnU7leKABKBVVaFkNHf8mFl9drbmWjq01Fe-ireqYq4TmZJ7QaeV9AmB3hThzG5leVwUJM8O-QrTcUPVIQOe7oHZCm3TaihfFJfVXWJYJhIu3Q4V5aCT1z3p3GSEFMT57UapzeDaPlczoALpLiuNXcHaG60ES94F-hgwlOV5cjRfQn8jDGJyeboGHr1AZaVICCq8yWtb6tFCy8-fmdZ1jgkVy0m00]--></g></svg>