<svg xmlns="http://www.w3.org/2000/svg" xmlns:xlink="http://www.w3.org/1999/xlink" contentStyleType="text/css" data-diagram-type="SEQUENCE" height="723px" preserveAspectRatio="none" style="width:912px;height:723px;background:#FFFFFF;" version="1.1" viewBox="0 0 912 723" width="912px" zoomAndPan="magnify"><title>VerificationMachine: Initialization Sequence</title><defs/><g><text fill="#000000" font-family="sans-serif" font-size="14" font-weight="bold" lengthAdjust="spacing" textLength="349.002" x="277.9653" y="27.9951">VerificationMachine: Initialization Sequence</text><g><title>TimeBaseHandler</title><rect fill="#FFFFFF" height="218.5234" style="stroke:#181818;stroke-width:1;" width="10" x="68.9541" y="262.0469"/></g><g><title>TimeBaseHandler</title><rect fill="#FFFFFF" height="29.1328" style="stroke:#181818;stroke-width:1;" width="10" x="68.9541" y="552.8359"/></g><g><title>TimeBaseHandler</title><rect fill="#FFFFFF" height="87.3984" style="stroke:#181818;stroke-width:1;" width="10" x="68.9541" y="611.1016"/></g><g><title>VerificationMachine</title><rect fill="#FFFFFF" height="218.5234" style="stroke:#181818;stroke-width:1;" width="10" x="432.7939" y="262.0469"/></g><g><title>VerificationMachine</title><rect fill="#FFFFFF" height="29.1328" style="stroke:#181818;stroke-width:1;" width="10" x="432.7939" y="640.2344"/></g><g><title>MessageBroker</title><rect fill="#FFFFFF" height="29.1328" style="stroke:#181818;stroke-width:1;" width="10" x="811.9722" y="552.8359"/></g><g><title>MessageBroker</title><rect fill="#FFFFFF" height="87.3984" style="stroke:#181818;stroke-width:1;" width="10" x="811.9722" y="611.1016"/></g><g><title>TimeBaseHandler</title><rect fill="transparent" height="538.7188" width="8" x="69.9541" y="177.7813"/><line style="stroke:#181818;stroke-width:0.5;stroke-dasharray:5.0,5.0;" x1="73" x2="73" y1="177.7813" y2="716.5"/></g><g><title>VerificationMachine</title><rect fill="transparent" height="454.9375" width="8" x="433.7939" y="261.5625"/><line style="stroke:#181818;stroke-width:0.5;stroke-dasharray:5.0,5.0;" x1="437.6177" x2="437.6177" y1="261.5625" y2="716.5"/></g><g><title>Validators</title><rect fill="transparent" height="413.6406" width="8" x="699.8384" y="302.8594"/><line style="stroke:#181818;stroke-width:0.5;stroke-dasharray:5.0,5.0;" x1="703.5854" x2="703.5854" y1="302.8594" y2="716.5"/></g><g><title>MessageBroker</title><rect fill="transparent" height="538.7188" width="8" x="812.9722" y="177.7813"/><line style="stroke:#181818;stroke-width:0.5;stroke-dasharray:5.0,5.0;" x1="816.0913" x2="816.0913" y1="177.7813" y2="716.5"/></g><rect fill="#E0FFFF" height="30.2969" rx="2.5" ry="2.5" style="stroke:#181818;stroke-width:0.5;" width="137.9082" x="5" y="146.4844"/><text fill="#000000" font-family="sans-serif" font-size="14" lengthAdjust="spacing" textLength="123.9082" x="12" y="166.4795">TimeBaseHandler</text><rect fill="#AFEEEE" height="30.2969" rx="2.5" ry="2.5" style="stroke:#181818;stroke-width:0.5;" width="121.7617" x="756.0913" y="146.4844"/><text fill="#000000" font-family="sans-serif" font-size="14" lengthAdjust="spacing" textLength="107.7617" x="763.0913" y="166.4795">MessageBroker</text><g><title>TimeBaseHandler</title><rect fill="#FFFFFF" height="218.5234" style="stroke:#181818;stroke-width:1;" width="10" x="68.9541" y="262.0469"/></g><g><title>TimeBaseHandler</title><rect fill="#FFFFFF" height="29.1328" style="stroke:#181818;stroke-width:1;" width="10" x="68.9541" y="552.8359"/></g><g><title>TimeBaseHandler</title><rect fill="#FFFFFF" height="87.3984" style="stroke:#181818;stroke-width:1;" width="10" x="68.9541" y="611.1016"/></g><g><title>VerificationMachine</title><rect fill="#FFFFFF" height="218.5234" style="stroke:#181818;stroke-width:1;" width="10" x="432.7939" y="262.0469"/></g><g><title>VerificationMachine</title><rect fill="#FFFFFF" height="29.1328" style="stroke:#181818;stroke-width:1;" width="10" x="432.7939" y="640.2344"/></g><g><title>MessageBroker</title><rect fill="#FFFFFF" height="29.1328" style="stroke:#181818;stroke-width:1;" width="10" x="811.9722" y="552.8359"/></g><g><title>MessageBroker</title><rect fill="#FFFFFF" height="87.3984" style="stroke:#181818;stroke-width:1;" width="10" x="811.9722" y="611.1016"/></g><rect fill="#EEEEEE" height="3" style="stroke:#EEEEEE;stroke-width:1;" width="905.9326" x="0" y="208.3477"/><line style="stroke:#000000;stroke-width:1;" x1="0" x2="905.9326" y1="208.3477" y2="208.3477"/><line style="stroke:#000000;stroke-width:1;" x1="0" x2="905.9326" y1="211.3477" y2="211.3477"/><rect fill="#EEEEEE" height="23.1328" style="stroke:#000000;stroke-width:2;" width="263.3486" x="321.292" y="197.7813"/><text fill="#000000" font-family="sans-serif" font-size="13" font-weight="bold" lengthAdjust="spacing" textLength="244.8228" x="327.292" y="213.8481">VerificationMachine Construction</text><polygon fill="#181818" points="349.6177,248.0469,359.6177,252.0469,349.6177,256.0469,353.6177,252.0469" style="stroke:#181818;stroke-width:1;"/><line style="stroke:#181818;stroke-width:1;" x1="73.9541" x2="355.6177" y1="252.0469" y2="252.0469"/><text fill="#FF0000" font-family="sans-serif" font-size="13" font-weight="bold" lengthAdjust="spacing" textLength="29.9736" x="80.9541" y="246.981">[01]</text><text fill="#000000" font-family="sans-serif" font-size="13" lengthAdjust="spacing" textLength="229.6899" x="114.9277" y="246.981">create(name, validator_factories...)</text><rect fill="#E6E6FA" height="30.2969" rx="2.5" ry="2.5" style="stroke:#181818;stroke-width:0.5;" width="152.3525" x="361.6177" y="230.9141"/><text fill="#000000" font-family="sans-serif" font-size="14" lengthAdjust="spacing" textLength="138.3525" x="368.6177" y="250.9092">VerificationMachine</text><polygon fill="#181818" points="649.5854,289.3438,659.5854,293.3438,649.5854,297.3438,653.5854,293.3438" style="stroke:#181818;stroke-width:1;"/><line style="stroke:#181818;stroke-width:1;" x1="442.7939" x2="655.5854" y1="293.3438" y2="293.3438"/><text fill="#FF0000" font-family="sans-serif" font-size="13" font-weight="bold" lengthAdjust="spacing" textLength="29.9736" x="449.7939" y="288.2778">[02]</text><text fill="#000000" font-family="sans-serif" font-size="13" lengthAdjust="spacing" textLength="160.8179" x="483.7676" y="288.2778">Create validator pipeline</text><rect fill="#E6E6FA" height="30.2969" rx="2.5" ry="2.5" style="stroke:#181818;stroke-width:0.5;" width="84.5059" x="661.5854" y="272.2109"/><text fill="#000000" font-family="sans-serif" font-size="14" lengthAdjust="spacing" textLength="70.5059" x="668.5854" y="292.2061">Validators</text><path d="M708,318.5078 L708,388.5078 L900,388.5078 L900,328.5078 L890,318.5078 L708,318.5078 " fill="#FEFFDD" style="stroke:#181818;stroke-width:0.5;"/><path d="M890,318.5078 L890,328.5078 L900,328.5078 L890,318.5078 " fill="#FEFFDD" style="stroke:#181818;stroke-width:0.5;"/><text fill="#000000" font-family="sans-serif" font-size="13" lengthAdjust="spacing" textLength="152.8198" x="714" y="335.5747">Chain of Responsibility:</text><text fill="#000000" font-family="sans-serif" font-size="13" lengthAdjust="spacing" textLength="171.9326" x="714" y="350.7075">- SynchronizationValidator</text><text fill="#000000" font-family="sans-serif" font-size="13" lengthAdjust="spacing" textLength="121.0244" x="714" y="365.8403">- TimeoutValidator</text><text fill="#000000" font-family="sans-serif" font-size="13" lengthAdjust="spacing" textLength="139.4961" x="714" y="380.9731">- TimeJumpsValidator</text><line style="stroke:#181818;stroke-width:1;" x1="442.7939" x2="484.7939" y1="426.8047" y2="426.8047"/><line style="stroke:#181818;stroke-width:1;" x1="484.7939" x2="484.7939" y1="426.8047" y2="439.8047"/><line style="stroke:#181818;stroke-width:1;" x1="443.7939" x2="484.7939" y1="439.8047" y2="439.8047"/><polygon fill="#181818" points="453.7939,435.8047,443.7939,439.8047,453.7939,443.8047,449.7939,439.8047" style="stroke:#181818;stroke-width:1;"/><text fill="#FF0000" font-family="sans-serif" font-size="13" font-weight="bold" lengthAdjust="spacing" textLength="29.9736" x="449.7939" y="421.7388">[03]</text><text fill="#000000" font-family="sans-serif" font-size="13" lengthAdjust="spacing" textLength="99.144" x="483.7676" y="421.7388">SetupPipeline()</text><path d="M604.1177,399.0391 L604.1177,454.0391 L779.1177,454.0391 L779.1177,409.0391 L769.1177,399.0391 L604.1177,399.0391 " fill="#FEFFDD" style="stroke:#181818;stroke-width:0.5;"/><path d="M769.1177,399.0391 L769.1177,409.0391 L779.1177,409.0391 L769.1177,399.0391 " fill="#FEFFDD" style="stroke:#181818;stroke-width:0.5;"/><text fill="#000000" font-family="sans-serif" font-size="13" lengthAdjust="spacing" textLength="154.7241" x="610.1177" y="416.106">Link validators in chain:</text><text fill="#000000" font-family="sans-serif" font-size="13" lengthAdjust="spacing" textLength="154.8511" x="610.1177" y="431.2388">stage1.SetNext(stage2)</text><text fill="#000000" font-family="sans-serif" font-size="13" lengthAdjust="spacing" textLength="154.8511" x="610.1177" y="446.3716">stage2.SetNext(stage3)</text><polygon fill="#181818" points="84.9541,476.5703,74.9541,480.5703,84.9541,484.5703,80.9541,480.5703" style="stroke:#181818;stroke-width:1;"/><line style="stroke:#181818;stroke-width:1;stroke-dasharray:2.0,2.0;" x1="78.9541" x2="436.7939" y1="480.5703" y2="480.5703"/><text fill="#FF0000" font-family="sans-serif" font-size="13" font-weight="bold" lengthAdjust="spacing" textLength="29.9736" x="90.9541" y="475.5044">[04]</text><text fill="#000000" font-family="sans-serif" font-size="13" lengthAdjust="spacing" textLength="156.0127" x="124.9277" y="475.5044">SvtVerificationMachine*</text><rect fill="#EEEEEE" height="3" style="stroke:#EEEEEE;stroke-width:1;" width="905.9326" x="0" y="509.1367"/><line style="stroke:#000000;stroke-width:1;" x1="0" x2="905.9326" y1="509.1367" y2="509.1367"/><line style="stroke:#000000;stroke-width:1;" x1="0" x2="905.9326" y1="512.1367" y2="512.1367"/><rect fill="#EEEEEE" height="23.1328" style="stroke:#000000;stroke-width:2;" width="156.105" x="374.9138" y="498.5703"/><text fill="#000000" font-family="sans-serif" font-size="13" font-weight="bold" lengthAdjust="spacing" textLength="137.5791" x="380.9138" y="514.6372">Setup Connections</text><polygon fill="#181818" points="799.9722,548.8359,809.9722,552.8359,799.9722,556.8359,803.9722,552.8359" style="stroke:#181818;stroke-width:1;"/><line style="stroke:#181818;stroke-width:1;" x1="78.9541" x2="805.9722" y1="552.8359" y2="552.8359"/><text fill="#FF0000" font-family="sans-serif" font-size="13" font-weight="bold" lengthAdjust="spacing" textLength="29.9736" x="85.9541" y="547.77">[05]</text><text fill="#000000" font-family="sans-serif" font-size="13" lengthAdjust="spacing" textLength="304.3955" x="119.9277" y="547.77">AddSubscriber("raw_ptp_data", verif_machine)</text><polygon fill="#181818" points="84.9541,577.9688,74.9541,581.9688,84.9541,585.9688,80.9541,581.9688" style="stroke:#181818;stroke-width:1;"/><line style="stroke:#181818;stroke-width:1;stroke-dasharray:2.0,2.0;" x1="78.9541" x2="815.9722" y1="581.9688" y2="581.9688"/><text fill="#FF0000" font-family="sans-serif" font-size="13" font-weight="bold" lengthAdjust="spacing" textLength="29.9736" x="90.9541" y="576.9028">[06]</text><text fill="#000000" font-family="sans-serif" font-size="13" lengthAdjust="spacing" textLength="4.1323" x="124.9277" y="576.9028">&#160;</text><polygon fill="#181818" points="799.9722,607.1016,809.9722,611.1016,799.9722,615.1016,803.9722,611.1016" style="stroke:#181818;stroke-width:1;"/><line style="stroke:#181818;stroke-width:1;" x1="78.9541" x2="805.9722" y1="611.1016" y2="611.1016"/><text fill="#FF0000" font-family="sans-serif" font-size="13" font-weight="bold" lengthAdjust="spacing" textLength="29.9736" x="85.9541" y="606.0356">[07]</text><text fill="#000000" font-family="sans-serif" font-size="13" lengthAdjust="spacing" textLength="329.8052" x="119.9277" y="606.0356">AddProducer("validated_ptp_data", verif_machine)</text><polygon fill="#181818" points="453.7939,636.2344,443.7939,640.2344,453.7939,644.2344,449.7939,640.2344" style="stroke:#181818;stroke-width:1;"/><line style="stroke:#181818;stroke-width:1;" x1="447.7939" x2="810.9722" y1="640.2344" y2="640.2344"/><text fill="#FF0000" font-family="sans-serif" font-size="13" font-weight="bold" lengthAdjust="spacing" textLength="29.9736" x="459.7939" y="635.1685">[08]</text><text fill="#000000" font-family="sans-serif" font-size="13" lengthAdjust="spacing" textLength="262.2661" x="493.7676" y="635.1685">SetPublishCallback(broker::OnNewData)</text><polygon fill="#181818" points="799.9722,665.3672,809.9722,669.3672,799.9722,673.3672,803.9722,669.3672" style="stroke:#181818;stroke-width:1;"/><line style="stroke:#181818;stroke-width:1;stroke-dasharray:2.0,2.0;" x1="437.7939" x2="805.9722" y1="669.3672" y2="669.3672"/><text fill="#FF0000" font-family="sans-serif" font-size="13" font-weight="bold" lengthAdjust="spacing" textLength="29.9736" x="444.7939" y="664.3013">[09]</text><text fill="#000000" font-family="sans-serif" font-size="13" lengthAdjust="spacing" textLength="4.1323" x="478.7676" y="664.3013">&#160;</text><polygon fill="#181818" points="84.9541,694.5,74.9541,698.5,84.9541,702.5,80.9541,698.5" style="stroke:#181818;stroke-width:1;"/><line style="stroke:#181818;stroke-width:1;stroke-dasharray:2.0,2.0;" x1="78.9541" x2="815.9722" y1="698.5" y2="698.5"/><text fill="#FF0000" font-family="sans-serif" font-size="13" font-weight="bold" lengthAdjust="spacing" textLength="29.9736" x="90.9541" y="693.4341">[10]</text><text fill="#000000" font-family="sans-serif" font-size="13" lengthAdjust="spacing" textLength="4.1323" x="124.9277" y="693.4341">&#160;</text><rect fill="#DDDDDD" height="79.1875" id="_legend" rx="7.5" ry="7.5" style="stroke:#000000;stroke-width:1;" width="296.1592" x="12" y="54.2969"/><text fill="#000000" font-family="sans-serif" font-size="14" font-weight="bold" lengthAdjust="spacing" textLength="41.2139" x="21.874" y="74.292">Color</text><text fill="#000000" font-family="sans-serif" font-size="14" font-weight="bold" lengthAdjust="spacing" textLength="90.5488" x="116.7021" y="74.292">Description</text><rect fill="#E0FFFF" height="16.2969" style="stroke:transparent;stroke-width:1;" width="94.8281" x="17" y="77.5938"/><text fill="#000000" font-family="sans-serif" font-size="14" lengthAdjust="spacing" textLength="22.251" x="17" y="90.5889">&#160;&#160;&#160;&#160;&#160;</text><text fill="#000000" font-family="sans-serif" font-size="14" lengthAdjust="spacing" textLength="164.6299" x="116.2783" y="90.5889">TimeDaemon members</text><rect fill="#AFEEEE" height="16.2969" style="stroke:transparent;stroke-width:1;" width="94.8281" x="17" y="93.8906"/><text fill="#000000" font-family="sans-serif" font-size="14" lengthAdjust="spacing" textLength="4.4502" x="17" y="106.8857">&#160;</text><text fill="#000000" font-family="sans-serif" font-size="14" lengthAdjust="spacing" textLength="107.7617" x="116.2783" y="106.8857">MessageBroker</text><rect fill="#E6E6FA" height="16.2969" style="stroke:transparent;stroke-width:1;" width="94.8281" x="17" y="110.1875"/><text fill="#000000" font-family="sans-serif" font-size="14" lengthAdjust="spacing" textLength="26.7012" x="17" y="123.1826">&#160;&#160;&#160;&#160;&#160;&#160;</text><text fill="#000000" font-family="sans-serif" font-size="14" lengthAdjust="spacing" textLength="138.3525" x="116.2783" y="123.1826">VerificationMachine</text><line style="stroke:#000000;stroke-width:1;" x1="17" x2="303.1592" y1="61.2969" y2="61.2969"/><line style="stroke:#000000;stroke-width:1;" x1="17" x2="303.1592" y1="77.5938" y2="77.5938"/><line style="stroke:#000000;stroke-width:1;" x1="17" x2="303.1592" y1="93.8906" y2="93.8906"/><line style="stroke:#000000;stroke-width:1;" x1="17" x2="303.1592" y1="110.1875" y2="110.1875"/><line style="stroke:#000000;stroke-width:1;" x1="17" x2="303.1592" y1="126.4844" y2="126.4844"/><line style="stroke:#000000;stroke-width:1;" x1="17" x2="17" y1="61.2969" y2="126.4844"/><line style="stroke:#000000;stroke-width:1;" x1="111.8281" x2="111.8281" y1="61.2969" y2="126.4844"/><line style="stroke:#000000;stroke-width:1;" x1="303.1592" x2="303.1592" y1="61.2969" y2="126.4844"/><!--SRC=[hLJ1Rjim3BthAuJiaXHjq7Kt8pQmEeTjQBjWANOPXa2MwPY8BRcId3R3FdwIRCHsQsE7pPT0ZtpYUoGLWwO0-XqKPiYPGIdk6SzHG40_2pJ82lpbORg5fne41q9oJ85cKff4lX32QYD5NIQWw6oLIM4ebuLKeO8qMYNHZ-lhdpD22jY3IAcH5IqWCuJQxtT8OvTApvz5rg2vmigNx0KQmkhT7Uvp4v-OY1gSFc89QmQbJI_1gT13meOLy5YhfrgYXiWIxa5hjeTR9G-WnYgmerKAAchniUOq19lMs2AaOieWnufP-pCdwPPf-CHSWffHfgb9Tdbpf9s78MsaZgSU7RuhsyfdVQ_8Tb0fCrBfXdC-JX46RV2SfEd8i6E4XE5e1s8fj54rzuCAGq9w3g-YLw8lBcX0kG9cO2vO2PUTm5t6kFr1qClbSa7i0OyshTUm3XjSIiYmXYlQkVOLOr-nWsc55HIEAwJ5bPi3bLcFvvSWpXaAXty3NLcRc621vXJuu1NTdWJFbHJjmpXtlWsxwSlQZC5VwhBINS0z22TapCa02EpZCtMrQTNF5ptz_lex58U-UokVEnEDP6tieDylxHqFy6Bc_dYpw48tmz27nRGoAwqtPwlhQ4QMuuAaC36qNg0tORTatg9RAm5-gVJ8LhKh6j2FQRgj4_TFOL_yVAROywuorSxQPxFBOSc_x5Hp9Mbl7Xhigstp9lHFozmecTRSYMpd0-b_aZgw9PiwAL3dCIkAXF73l4aEWg_Y0PxNjkPYwZczdVHRoqF6l_Ni3m00]--></g></svg>