<svg xmlns="http://www.w3.org/2000/svg" xmlns:xlink="http://www.w3.org/1999/xlink" contentStyleType="text/css" data-diagram-type="CLASS" height="851px" preserveAspectRatio="none" style="width:997px;height:851px;background:#FFFFFF;" version="1.1" viewBox="0 0 997 851" width="997px" zoomAndPan="magnify"><title>VerificationMachine: Class Diagram</title><defs/><g><text fill="#000000" font-family="sans-serif" font-size="14" font-weight="bold" lengthAdjust="spacing" textLength="281.0117" x="351.4478" y="22.9951">VerificationMachine: Class Diagram</text><rect fill="#DDDDDD" height="62.8906" id="_legend" rx="7.5" ry="7.5" style="stroke:#000000;stroke-width:1;" width="256.1074" x="12" y="49.2969"/><text fill="#000000" font-family="sans-serif" font-size="14" font-weight="bold" lengthAdjust="spacing" textLength="41.2139" x="21.874" y="69.292">Color</text><text fill="#000000" font-family="sans-serif" font-size="14" font-weight="bold" lengthAdjust="spacing" textLength="90.5488" x="111.8281" y="69.292">Description</text><rect fill="#F5F5DC" height="16.2969" style="stroke:transparent;stroke-width:1;" width="89.9541" x="17" y="72.5938"/><text fill="#000000" font-family="sans-serif" font-size="14" lengthAdjust="spacing" textLength="31.1514" x="17" y="85.5889">&#160;&#160;&#160;&#160;&#160;&#160;&#160;</text><text fill="#000000" font-family="sans-serif" font-size="14" lengthAdjust="spacing" textLength="89.2021" x="111.4043" y="85.5889">Base classes</text><rect fill="#E6E6FA" height="16.2969" style="stroke:transparent;stroke-width:1;" width="89.9541" x="17" y="88.8906"/><text fill="#000000" font-family="sans-serif" font-size="14" lengthAdjust="spacing" textLength="17.8008" x="17" y="101.8857">&#160;&#160;&#160;&#160;</text><text fill="#000000" font-family="sans-serif" font-size="14" lengthAdjust="spacing" textLength="138.3525" x="111.4043" y="101.8857">VerificationMachine</text><line style="stroke:#000000;stroke-width:1;" x1="17" x2="263.1074" y1="56.2969" y2="56.2969"/><line style="stroke:#000000;stroke-width:1;" x1="17" x2="263.1074" y1="72.5938" y2="72.5938"/><line style="stroke:#000000;stroke-width:1;" x1="17" x2="263.1074" y1="88.8906" y2="88.8906"/><line style="stroke:#000000;stroke-width:1;" x1="17" x2="263.1074" y1="105.1875" y2="105.1875"/><line style="stroke:#000000;stroke-width:1;" x1="17" x2="17" y1="56.2969" y2="105.1875"/><line style="stroke:#000000;stroke-width:1;" x1="106.9541" x2="106.9541" y1="56.2969" y2="105.1875"/><line style="stroke:#000000;stroke-width:1;" x1="263.1074" x2="263.1074" y1="56.2969" y2="105.1875"/><!--class time_info--><g id="elem_time_info"><rect codeLine="10" fill="#F5F5DC" height="96.8906" id="time_info" rx="2.5" ry="2.5" style="stroke:#181818;stroke-width:0.5;" width="151.3574" x="169" y="614.1875"/><ellipse cx="199.9078" cy="630.1875" fill="#ADD1B2" rx="11" ry="11" style="stroke:#181818;stroke-width:1;"/><path d="M202.8765,635.8281 Q202.2984,636.125 201.6578,636.2656 Q201.0171,636.4219 200.314,636.4219 Q197.814,636.4219 196.4859,634.7813 Q195.1734,633.125 195.1734,630 Q195.1734,626.875 196.4859,625.2188 Q197.814,623.5625 200.314,623.5625 Q201.0171,623.5625 201.6578,623.7188 Q202.314,623.875 202.8765,624.1719 L202.8765,626.8906 Q202.2515,626.3125 201.6578,626.0469 Q201.064,625.7656 200.439,625.7656 Q199.0953,625.7656 198.4078,626.8438 Q197.7203,627.9063 197.7203,630 Q197.7203,632.0938 198.4078,633.1719 Q199.0953,634.2344 200.439,634.2344 Q201.064,634.2344 201.6578,633.9688 Q202.2515,633.6875 202.8765,633.1094 L202.8765,635.8281 Z " fill="#000000"/><text fill="#000000" font-family="sans-serif" font-size="14" lengthAdjust="spacing" textLength="84.0068" x="217.4428" y="635.0342">PtpTimeInfo</text><line style="stroke:#181818;stroke-width:0.5;" x1="170" x2="319.3574" y1="646.1875" y2="646.1875"/><ellipse cx="180" cy="659.8359" fill="transparent" rx="3" ry="3" style="stroke:#038048;stroke-width:1;"/><text fill="#000000" font-family="sans-serif" font-size="14" lengthAdjust="spacing" textLength="77.3691" x="189" y="663.1826">ptp: uint64</text><ellipse cx="180" cy="676.1328" fill="transparent" rx="3" ry="3" style="stroke:#038048;stroke-width:1;"/><text fill="#000000" font-family="sans-serif" font-size="14" lengthAdjust="spacing" textLength="125.3574" x="189" y="679.4795">local_time: uint64</text><ellipse cx="180" cy="692.4297" fill="transparent" rx="3" ry="3" style="stroke:#038048;stroke-width:1;"/><text fill="#000000" font-family="sans-serif" font-size="14" lengthAdjust="spacing" textLength="70.4375" x="189" y="695.7764">status: int</text><line style="stroke:#181818;stroke-width:0.5;" x1="170" x2="319.3574" y1="703.0781" y2="703.0781"/></g><!--class base_machine--><g id="elem_base_machine"><rect codeLine="16" fill="#F5F5DC" height="80.5938" id="base_machine" rx="2.5" ry="2.5" style="stroke:#181818;stroke-width:0.5;" width="152.5332" x="7" y="132.1875"/><ellipse cx="34.5271" cy="148.1875" fill="#A9DCDF" rx="11" ry="11" style="stroke:#181818;stroke-width:1;"/><path d="M34.6364,143.5313 L33.4802,148.6094 L35.8083,148.6094 L34.6364,143.5313 Z M33.1521,141.2969 L36.1364,141.2969 L39.4958,153.6875 L37.0427,153.6875 L36.2771,150.625 L32.9958,150.625 L32.2458,153.6875 L29.8083,153.6875 L33.1521,141.2969 Z " fill="#000000"/><text fill="#000000" font-family="sans-serif" font-size="14" font-style="italic" lengthAdjust="spacing" textLength="92.6953" x="51.3108" y="153.0342">BaseMachine</text><line style="stroke:#181818;stroke-width:0.5;" x1="8" x2="158.5332" y1="164.1875" y2="164.1875"/><line style="stroke:#181818;stroke-width:0.5;" x1="8" x2="158.5332" y1="172.1875" y2="172.1875"/><ellipse cx="18" cy="185.8359" fill="#84BE84" rx="3" ry="3" style="stroke:#038048;stroke-width:1;"/><text fill="#000000" font-family="sans-serif" font-size="14" lengthAdjust="spacing" textLength="126.5332" x="27" y="189.1826">GetName(): string</text><ellipse cx="18" cy="202.1328" fill="#84BE84" rx="3" ry="3" style="stroke:#038048;stroke-width:1;"/><text fill="#000000" font-family="sans-serif" font-size="14" lengthAdjust="spacing" textLength="72.3789" x="27" y="205.4795">Init(): bool</text></g><!--class reactive_machine--><g id="elem_reactive_machine"><rect codeLine="21" fill="#F5F5DC" height="48" id="reactive_machine" rx="2.5" ry="2.5" style="stroke:#181818;stroke-width:0.5;" width="151.499" x="8" y="290.6875"/><ellipse cx="23" cy="306.6875" fill="#A9DCDF" rx="11" ry="11" style="stroke:#181818;stroke-width:1;"/><path d="M23.1094,302.0313 L21.9531,307.1094 L24.2813,307.1094 L23.1094,302.0313 Z M21.625,299.7969 L24.6094,299.7969 L27.9688,312.1875 L25.5156,312.1875 L24.75,309.125 L21.4688,309.125 L20.7188,312.1875 L18.2813,312.1875 L21.625,299.7969 Z " fill="#000000"/><text fill="#000000" font-family="sans-serif" font-size="14" font-style="italic" lengthAdjust="spacing" textLength="119.499" x="37" y="311.5342">ReactiveMachine</text><line style="stroke:#181818;stroke-width:0.5;" x1="9" x2="158.499" y1="322.6875" y2="322.6875"/><line style="stroke:#181818;stroke-width:0.5;" x1="9" x2="158.499" y1="330.6875" y2="330.6875"/></g><!--class consumer--><g id="elem_consumer"><rect codeLine="24" fill="#F5F5DC" height="64.2969" id="consumer" rx="2.5" ry="2.5" style="stroke:#181818;stroke-width:0.5;" width="206.2227" x="194.5" y="282.6875"/><ellipse cx="252.0024" cy="298.6875" fill="#A9DCDF" rx="11" ry="11" style="stroke:#181818;stroke-width:1;"/><path d="M252.1118,294.0313 L250.9556,299.1094 L253.2837,299.1094 L252.1118,294.0313 Z M250.6274,291.7969 L253.6118,291.7969 L256.9712,304.1875 L254.5181,304.1875 L253.7524,301.125 L250.4712,301.125 L249.7212,304.1875 L247.2837,304.1875 L250.6274,291.7969 Z " fill="#000000"/><text fill="#000000" font-family="sans-serif" font-size="14" font-style="italic" lengthAdjust="spacing" textLength="71.3877" x="272.5024" y="303.5342">Consumer</text><rect fill="#FFFFFF" height="15.9688" style="stroke:#181818;stroke-width:1;stroke-dasharray:2.0,2.0;" width="9.3301" x="394.3926" y="279.6875"/><text fill="#000000" font-family="sans-serif" font-size="12" font-style="italic" lengthAdjust="spacing" textLength="7.3301" x="395.3926" y="291.8262">T</text><line style="stroke:#181818;stroke-width:0.5;" x1="195.5" x2="399.7227" y1="314.6875" y2="314.6875"/><line style="stroke:#181818;stroke-width:0.5;" x1="195.5" x2="399.7227" y1="322.6875" y2="322.6875"/><ellipse cx="205.5" cy="336.3359" fill="#84BE84" rx="3" ry="3" style="stroke:#038048;stroke-width:1;"/><text fill="#000000" font-family="sans-serif" font-size="14" lengthAdjust="spacing" textLength="180.2227" x="214.5" y="339.6826">OnMessage(data: T): void</text></g><!--class producer--><g id="elem_producer"><rect codeLine="28" fill="#F5F5DC" height="80.5938" id="producer" rx="2.5" ry="2.5" style="stroke:#181818;stroke-width:0.5;" width="265.5859" x="435.5" y="274.1875"/><ellipse cx="527.083" cy="290.1875" fill="#A9DCDF" rx="11" ry="11" style="stroke:#181818;stroke-width:1;"/><path d="M527.1924,285.5313 L526.0361,290.6094 L528.3643,290.6094 L527.1924,285.5313 Z M525.708,283.2969 L528.6924,283.2969 L532.0518,295.6875 L529.5986,295.6875 L528.833,292.625 L525.5518,292.625 L524.8018,295.6875 L522.3643,295.6875 L525.708,283.2969 Z " fill="#000000"/><text fill="#000000" font-family="sans-serif" font-size="14" font-style="italic" lengthAdjust="spacing" textLength="62.5898" x="547.583" y="295.0342">Producer</text><rect fill="#FFFFFF" height="15.9688" style="stroke:#181818;stroke-width:1;stroke-dasharray:2.0,2.0;" width="9.3301" x="694.7559" y="271.1875"/><text fill="#000000" font-family="sans-serif" font-size="12" font-style="italic" lengthAdjust="spacing" textLength="7.3301" x="695.7559" y="283.3262">T</text><line style="stroke:#181818;stroke-width:0.5;" x1="436.5" x2="700.0859" y1="306.1875" y2="306.1875"/><line style="stroke:#181818;stroke-width:0.5;" x1="436.5" x2="700.0859" y1="314.1875" y2="314.1875"/><ellipse cx="446.5" cy="327.8359" fill="#84BE84" rx="3" ry="3" style="stroke:#038048;stroke-width:1;"/><text fill="#000000" font-family="sans-serif" font-size="14" lengthAdjust="spacing" textLength="239.5859" x="455.5" y="331.1826">SetPublishCallback(callback): void</text><polygon fill="#FFFF44" points="446.5,339.1328,450.5,343.1328,446.5,347.1328,442.5,343.1328" style="stroke:#B38D22;stroke-width:1;"/><text fill="#000000" font-family="sans-serif" font-size="14" lengthAdjust="spacing" textLength="149.1191" x="455.5" y="347.4795">Publish(data: T): void</text></g><!--class verification_machine--><g id="elem_verification_machine"><rect codeLine="33" fill="#E6E6FA" height="113.1875" id="verification_machine" rx="2.5" ry="2.5" style="stroke:#181818;stroke-width:0.5;" width="292.7793" x="151" y="416.1875"/><ellipse cx="193.1542" cy="432.1875" fill="#ADD1B2" rx="11" ry="11" style="stroke:#181818;stroke-width:1;"/><path d="M196.123,437.8281 Q195.5449,438.125 194.9042,438.2656 Q194.2636,438.4219 193.5605,438.4219 Q191.0605,438.4219 189.7324,436.7813 Q188.4199,435.125 188.4199,432 Q188.4199,428.875 189.7324,427.2188 Q191.0605,425.5625 193.5605,425.5625 Q194.2636,425.5625 194.9042,425.7188 Q195.5605,425.875 196.123,426.1719 L196.123,428.8906 Q195.498,428.3125 194.9042,428.0469 Q194.3105,427.7656 193.6855,427.7656 Q192.3417,427.7656 191.6542,428.8438 Q190.9667,429.9063 190.9667,432 Q190.9667,434.0938 191.6542,435.1719 Q192.3417,436.2344 193.6855,436.2344 Q194.3105,436.2344 194.9042,435.9688 Q195.498,435.6875 196.123,435.1094 L196.123,437.8281 Z " fill="#000000"/><text fill="#000000" font-family="sans-serif" font-size="14" lengthAdjust="spacing" textLength="138.3525" x="213.1885" y="437.0342">VerificationMachine</text><rect fill="#FFFFFF" height="15.9688" style="stroke:#181818;stroke-width:1;stroke-dasharray:2.0,2.0;" width="60.084" x="386.6953" y="413.1875"/><text fill="#000000" font-family="sans-serif" font-size="12" font-style="italic" lengthAdjust="spacing" textLength="58.084" x="387.6953" y="425.3262">DataType</text><line style="stroke:#181818;stroke-width:0.5;" x1="152" x2="442.7793" y1="448.1875" y2="448.1875"/><rect fill="transparent" height="6" style="stroke:#C82930;stroke-width:1;" width="6" x="159" y="458.8359"/><text fill="#000000" font-family="sans-serif" font-size="14" lengthAdjust="spacing" textLength="266.7793" x="171" y="465.1826">pipeline_: vector&lt;VerificationStage*&gt;</text><rect fill="transparent" height="6" style="stroke:#C82930;stroke-width:1;" width="6" x="159" y="475.1328"/><text fill="#000000" font-family="sans-serif" font-size="14" lengthAdjust="spacing" textLength="188.2754" x="171" y="481.4795">publish_callback_: function</text><line style="stroke:#181818;stroke-width:0.5;" x1="152" x2="442.7793" y1="488.7813" y2="488.7813"/><ellipse cx="162" cy="502.4297" fill="#84BE84" rx="3" ry="3" style="stroke:#038048;stroke-width:1;"/><text fill="#000000" font-family="sans-serif" font-size="14" lengthAdjust="spacing" textLength="239.4355" x="171" y="505.7764">OnMessage(data: DataType): void</text><ellipse cx="162" cy="518.7266" fill="#84BE84" rx="3" ry="3" style="stroke:#038048;stroke-width:1;"/><text fill="#000000" font-family="sans-serif" font-size="14" lengthAdjust="spacing" textLength="239.5859" x="171" y="522.0732">SetPublishCallback(callback): void</text></g><!--class verification_stage--><g id="elem_verification_stage"><rect codeLine="40" fill="#E6E6FA" height="113.1875" id="verification_stage" rx="2.5" ry="2.5" style="stroke:#181818;stroke-width:0.5;" width="299.1982" x="355" y="606.1875"/><ellipse cx="409.2056" cy="622.1875" fill="#A9DCDF" rx="11" ry="11" style="stroke:#181818;stroke-width:1;"/><path d="M409.3149,617.5313 L408.1587,622.6094 L410.4868,622.6094 L409.3149,617.5313 Z M407.8306,615.2969 L410.8149,615.2969 L414.1743,627.6875 L411.7212,627.6875 L410.9556,624.625 L407.6743,624.625 L406.9243,627.6875 L404.4868,627.6875 L407.8306,615.2969 Z " fill="#000000"/><text fill="#000000" font-family="sans-serif" font-size="14" font-style="italic" lengthAdjust="spacing" textLength="120.2031" x="429.7056" y="627.0342">VerificationStage</text><rect fill="#FFFFFF" height="15.9688" style="stroke:#181818;stroke-width:1;stroke-dasharray:2.0,2.0;" width="60.084" x="597.1143" y="603.1875"/><text fill="#000000" font-family="sans-serif" font-size="12" font-style="italic" lengthAdjust="spacing" textLength="58.084" x="598.1143" y="615.3262">DataType</text><line style="stroke:#181818;stroke-width:0.5;" x1="356" x2="653.1982" y1="638.1875" y2="638.1875"/><rect fill="transparent" height="6" style="stroke:#C82930;stroke-width:1;" width="6" x="363" y="648.8359"/><text fill="#000000" font-family="sans-serif" font-size="14" lengthAdjust="spacing" textLength="220.4932" x="375" y="655.1826">next_stage_: VerificationStage*</text><line style="stroke:#181818;stroke-width:0.5;" x1="356" x2="653.1982" y1="662.4844" y2="662.4844"/><ellipse cx="366" cy="676.1328" fill="#84BE84" rx="3" ry="3" style="stroke:#038048;stroke-width:1;"/><text fill="#000000" font-family="sans-serif" font-size="14" lengthAdjust="spacing" textLength="249.9834" x="375" y="679.4795">Process(data: DataType): DataType</text><ellipse cx="366" cy="692.4297" fill="#84BE84" rx="3" ry="3" style="stroke:#038048;stroke-width:1;"/><text fill="#000000" font-family="sans-serif" font-size="14" lengthAdjust="spacing" textLength="273.1982" x="375" y="695.7764">SetNext(next: VerificationStage*): void</text><polygon fill="#FFFF44" points="366,703.7266,370,707.7266,366,711.7266,362,707.7266" style="stroke:#B38D22;stroke-width:1;"/><text fill="#000000" font-family="sans-serif" font-size="14" lengthAdjust="spacing" textLength="258.665" x="375" y="712.0732">DoValidation(data: DataType&amp;): void</text></g><!--class sync_validator--><g id="elem_sync_validator"><rect codeLine="47" fill="#E6E6FA" height="64.2969" id="sync_validator" rx="2.5" ry="2.5" style="stroke:#181818;stroke-width:0.5;" width="300.9072" x="18" y="780.1875"/><ellipse cx="76.3755" cy="796.1875" fill="#ADD1B2" rx="11" ry="11" style="stroke:#181818;stroke-width:1;"/><path d="M79.3442,801.8281 Q78.7661,802.125 78.1255,802.2656 Q77.4849,802.4219 76.7817,802.4219 Q74.2817,802.4219 72.9536,800.7813 Q71.6411,799.125 71.6411,796 Q71.6411,792.875 72.9536,791.2188 Q74.2817,789.5625 76.7817,789.5625 Q77.4849,789.5625 78.1255,789.7188 Q78.7817,789.875 79.3442,790.1719 L79.3442,792.8906 Q78.7192,792.3125 78.1255,792.0469 Q77.5317,791.7656 76.9067,791.7656 Q75.563,791.7656 74.8755,792.8438 Q74.188,793.9063 74.188,796 Q74.188,798.0938 74.8755,799.1719 Q75.563,800.2344 76.9067,800.2344 Q77.5317,800.2344 78.1255,799.9688 Q78.7192,799.6875 79.3442,799.1094 L79.3442,801.8281 Z " fill="#000000"/><text fill="#000000" font-family="sans-serif" font-size="14" lengthAdjust="spacing" textLength="175.6563" x="96.8755" y="801.0342">SynchronizationValidator</text><line style="stroke:#181818;stroke-width:0.5;" x1="19" x2="317.9072" y1="812.1875" y2="812.1875"/><line style="stroke:#181818;stroke-width:0.5;" x1="19" x2="317.9072" y1="820.1875" y2="820.1875"/><polygon fill="#FFFF44" points="29,828.8359,33,832.8359,29,836.8359,25,832.8359" style="stroke:#B38D22;stroke-width:1;"/><text fill="#000000" font-family="sans-serif" font-size="14" lengthAdjust="spacing" textLength="274.9072" x="38" y="837.1826">DoValidation(data: PtpTimeInfo&amp;): void</text></g><!--class timeout_validator--><g id="elem_timeout_validator"><rect codeLine="51" fill="#E6E6FA" height="64.2969" id="timeout_validator" rx="2.5" ry="2.5" style="stroke:#181818;stroke-width:0.5;" width="300.9072" x="354" y="780.1875"/><ellipse cx="439.7876" cy="796.1875" fill="#ADD1B2" rx="11" ry="11" style="stroke:#181818;stroke-width:1;"/><path d="M442.7563,801.8281 Q442.1782,802.125 441.5376,802.2656 Q440.897,802.4219 440.1938,802.4219 Q437.6938,802.4219 436.3657,800.7813 Q435.0532,799.125 435.0532,796 Q435.0532,792.875 436.3657,791.2188 Q437.6938,789.5625 440.1938,789.5625 Q440.897,789.5625 441.5376,789.7188 Q442.1938,789.875 442.7563,790.1719 L442.7563,792.8906 Q442.1313,792.3125 441.5376,792.0469 Q440.9438,791.7656 440.3188,791.7656 Q438.9751,791.7656 438.2876,792.8438 Q437.6001,793.9063 437.6001,796 Q437.6001,798.0938 438.2876,799.1719 Q438.9751,800.2344 440.3188,800.2344 Q440.9438,800.2344 441.5376,799.9688 Q442.1313,799.6875 442.7563,799.1094 L442.7563,801.8281 Z " fill="#000000"/><text fill="#000000" font-family="sans-serif" font-size="14" lengthAdjust="spacing" textLength="120.832" x="460.2876" y="801.0342">TimeoutValidator</text><line style="stroke:#181818;stroke-width:0.5;" x1="355" x2="653.9072" y1="812.1875" y2="812.1875"/><line style="stroke:#181818;stroke-width:0.5;" x1="355" x2="653.9072" y1="820.1875" y2="820.1875"/><polygon fill="#FFFF44" points="365,828.8359,369,832.8359,365,836.8359,361,832.8359" style="stroke:#B38D22;stroke-width:1;"/><text fill="#000000" font-family="sans-serif" font-size="14" lengthAdjust="spacing" textLength="274.9072" x="374" y="837.1826">DoValidation(data: PtpTimeInfo&amp;): void</text></g><!--class timejump_validator--><g id="elem_timejump_validator"><rect codeLine="55" fill="#E6E6FA" height="64.2969" id="timejump_validator" rx="2.5" ry="2.5" style="stroke:#181818;stroke-width:0.5;" width="300.9072" x="690" y="780.1875"/><ellipse cx="765.8413" cy="796.1875" fill="#ADD1B2" rx="11" ry="11" style="stroke:#181818;stroke-width:1;"/><path d="M768.8101,801.8281 Q768.2319,802.125 767.5913,802.2656 Q766.9507,802.4219 766.2476,802.4219 Q763.7476,802.4219 762.4194,800.7813 Q761.1069,799.125 761.1069,796 Q761.1069,792.875 762.4194,791.2188 Q763.7476,789.5625 766.2476,789.5625 Q766.9507,789.5625 767.5913,789.7188 Q768.2476,789.875 768.8101,790.1719 L768.8101,792.8906 Q768.1851,792.3125 767.5913,792.0469 Q766.9976,791.7656 766.3726,791.7656 Q765.0288,791.7656 764.3413,792.8438 Q763.6538,793.9063 763.6538,796 Q763.6538,798.0938 764.3413,799.1719 Q765.0288,800.2344 766.3726,800.2344 Q766.9976,800.2344 767.5913,799.9688 Q768.1851,799.6875 768.8101,799.1094 L768.8101,801.8281 Z " fill="#000000"/><text fill="#000000" font-family="sans-serif" font-size="14" lengthAdjust="spacing" textLength="140.7246" x="786.3413" y="801.0342">TimeJumpsValidator</text><line style="stroke:#181818;stroke-width:0.5;" x1="691" x2="989.9072" y1="812.1875" y2="812.1875"/><line style="stroke:#181818;stroke-width:0.5;" x1="691" x2="989.9072" y1="820.1875" y2="820.1875"/><polygon fill="#FFFF44" points="701,828.8359,705,832.8359,701,836.8359,697,832.8359" style="stroke:#B38D22;stroke-width:1;"/><text fill="#000000" font-family="sans-serif" font-size="14" lengthAdjust="spacing" textLength="274.9072" x="710" y="837.1826">DoValidation(data: PtpTimeInfo&amp;): void</text></g><!--reverse link base_machine to reactive_machine--><g id="link_base_machine_reactive_machine"><path codeLine="59" d="M83.5,231.4275 C83.5,256.3275 83.5,269.5575 83.5,290.4775 " fill="transparent" id="base_machine-backto-reactive_machine" style="stroke:#181818;stroke-width:1;"/><polygon fill="transparent" points="83.5,213.4275,77.5,231.4275,89.5,231.4275,83.5,213.4275" style="stroke:#181818;stroke-width:1;"/></g><!--reverse link reactive_machine to verification_machine--><g id="link_reactive_machine_verification_machine"><path codeLine="60" d="M129.6257,349.3105 C157.4057,369.5605 184.46,389.2875 220.92,415.8575 " fill="transparent" id="reactive_machine-backto-verification_machine" style="stroke:#181818;stroke-width:1;"/><polygon fill="transparent" points="115.08,338.7075,126.0914,354.159,133.16,344.4619,115.08,338.7075" style="stroke:#181818;stroke-width:1;"/></g><!--reverse link consumer to verification_machine--><g id="link_consumer_verification_machine"><path codeLine="61" d="M297.5,364.8775 C297.5,384.6175 297.5,392.7075 297.5,415.9275 " fill="transparent" id="consumer-backto-verification_machine" style="stroke:#181818;stroke-width:1;stroke-dasharray:7.0,7.0;"/><polygon fill="transparent" points="297.5,346.8775,291.5,364.8775,303.5,364.8775,297.5,346.8775" style="stroke:#181818;stroke-width:1;"/></g><!--reverse link producer to verification_machine--><g id="link_producer_verification_machine"><path codeLine="62" d="M484.1611,364.2393 C452.1011,382.6993 428.98,395.9975 394.04,416.1175 " fill="transparent" id="producer-backto-verification_machine" style="stroke:#181818;stroke-width:1;stroke-dasharray:7.0,7.0;"/><polygon fill="transparent" points="499.76,355.2575,481.1671,359.0397,487.155,369.439,499.76,355.2575" style="stroke:#181818;stroke-width:1;"/></g><!--reverse link verification_machine to verification_stage--><g id="link_verification_machine_verification_stage"><path codeLine="64" d="M367.6514,537.3973 C394.3514,561.6573 416.7,581.9475 443.39,606.1875 " fill="transparent" id="verification_machine-backto-verification_stage" style="stroke:#181818;stroke-width:1;"/><polygon fill="#181818" points="358.77,529.3275,360.5208,536.3228,367.6514,537.3973,365.9006,530.4019,358.77,529.3275" style="stroke:#181818;stroke-width:1;"/><text fill="#000000" font-family="sans-serif" font-size="13" lengthAdjust="spacing" textLength="51.5747" x="408.5" y="572.2544">pipeline</text></g><!--reverse link verification_stage to sync_validator--><g id="link_verification_stage_sync_validator"><path codeLine="65" d="M361.4682,726.4729 C314.5882,747.0529 279.6,762.4175 239.41,780.0575 " fill="transparent" id="verification_stage-backto-sync_validator" style="stroke:#181818;stroke-width:1;"/><polygon fill="transparent" points="377.95,719.2375,359.0564,720.979,363.88,731.9668,377.95,719.2375" style="stroke:#181818;stroke-width:1;"/></g><!--reverse link verification_stage to timeout_validator--><g id="link_verification_stage_timeout_validator"><path codeLine="66" d="M504.5,737.4475 C504.5,758.0075 504.5,762.5575 504.5,780.1475 " fill="transparent" id="verification_stage-backto-timeout_validator" style="stroke:#181818;stroke-width:1;"/><polygon fill="transparent" points="504.5,719.4475,498.5,737.4475,510.5,737.4475,504.5,719.4475" style="stroke:#181818;stroke-width:1;"/></g><!--reverse link verification_stage to timejump_validator--><g id="link_verification_stage_timejump_validator"><path codeLine="67" d="M647.5318,726.4729 C694.4118,747.0529 729.4,762.4175 769.59,780.0575 " fill="transparent" id="verification_stage-backto-timejump_validator" style="stroke:#181818;stroke-width:1;"/><polygon fill="transparent" points="631.05,719.2375,645.12,731.9668,649.9436,720.979,631.05,719.2375" style="stroke:#181818;stroke-width:1;"/></g><!--reverse link verification_stage to verification_stage--><g id="link_verification_stage_verification_stage"><path codeLine="68" d="M666.2726,649.658 C687.0426,652.028 689,655.4675 689,662.6875 C689,669.9075 675.12,674.7075 654.35,677.0775 " fill="transparent" id="verification_stage-backto-verification_stage" style="stroke:#181818;stroke-width:1;"/><polygon fill="transparent" points="654.35,648.2975,659.8578,652.9519,666.2726,649.658,660.7648,645.0035,654.35,648.2975" style="stroke:#181818;stroke-width:1;"/><text fill="#000000" font-family="sans-serif" font-size="13" lengthAdjust="spacing" textLength="78.1143" x="695" y="667.2544">next_stage_</text></g><!--link verification_machine to time_info--><g id="link_verification_machine_time_info"><path codeLine="70" d="M281.81,529.3275 C274.21,556.2875 266.8073,582.5624 259.5373,608.3624 " fill="transparent" id="verification_machine-to-time_info" style="stroke:#181818;stroke-width:1;"/><polygon fill="#181818" points="257.91,614.1375,264.2011,606.5597,259.2661,609.3249,256.5009,604.39,257.91,614.1375" style="stroke:#181818;stroke-width:1;"/><text fill="#000000" font-family="sans-serif" font-size="13" lengthAdjust="spacing" textLength="65.0127" x="274.5" y="572.2544">processes</text></g><!--SRC=[hLL1RziW6BtpApwrqfHrIa_J3fQRGnDfwhHsqHBrQX7o9M73O06ErYtxxmE34picrGxroJmUxxqF_67BhK1uHiqtd57BbNoaRCSbPZ0Lr1YOSRhLj2H4u1Rb6gogGE364d3FuGwcIYWDxUE06HgcUUMbu8G7EkJNzyYtE6bXkAS6WNadD2dwLxfthgWd0KW4RUYE4_8HqeZ1rTnMIrxYWzoeAw06h1iKt8qWH80_ZSU7obOPr5pQJny381IZel3qFcuijRN9m47aBo5qPQocp4BqyuN4H8tVoesBCaRiMtv6-qHB7BtFm6bmkGtmW-JMOokbHChXExe1t_TSTCI6JWc1gPAcBb7doqcpcCNnMRnlyX6DeLiShQcb6InTfhtYwvJaNAjrpKwILHoVIIxGpkkLu6OtfKAiAFivOl6b5VUywqXA64U_nFddCqTUlbGO4kmxZDEkj9zH33IkU8N2pHJE0PbLEkygBwoh_cOIgI5JqGPsIpQrP9wNtgysJxUo_zc1nFOEGhrMhF64OQaIVzamvv8Fgmpnt3aoLyImWlRrMCMJanjvpPHOxp1dwfaAlcwcpuJV3KzsyIBPJYl9VpSBubAbcpgDcopsBJIeCMNLwV-4cvzIjUsxs02-kT6NkgpCqEg7Wz_6gtVNv8VnU70laC55qT1IpKAErq9-kBrDKuvjVfb2aeruSsuQFjeCseOaYTacQlyJk4WRdE6hpFuHfAZgKk1EMrseTJoUTFuwcRyRVO-X8Vy0]--></g></svg>