<svg xmlns="http://www.w3.org/2000/svg" xmlns:xlink="http://www.w3.org/1999/xlink" contentStyleType="text/css" data-diagram-type="SEQUENCE" height="831px" preserveAspectRatio="none" style="width:1133px;height:831px;background:#FFFFFF;" version="1.1" viewBox="0 0 1133 831" width="1133px" zoomAndPan="magnify"><title>Application: Initialization Sequence</title><defs/><g><text fill="#000000" font-family="sans-serif" font-size="14" font-weight="bold" lengthAdjust="spacing" textLength="280.6494" x="422.3118" y="27.9951">Application: Initialization Sequence</text><g><title>TimeDaemon</title><rect fill="#FFFFFF" height="253.8203" style="stroke:#181818;stroke-width:1;" width="10" x="344.5244" y="262.0469"/></g><g><title>TimeDaemon</title><rect fill="#FFFFFF" height="167.9297" style="stroke:#181818;stroke-width:1;" width="10" x="344.5244" y="588.1328"/></g><g><title>TimeDaemon</title><rect fill="#FFFFFF" height="167.9297" style="stroke:#181818;stroke-width:1;" width="10" x="349.5244" y="588.1328"/></g><g><title>TimebaseHandler</title><rect fill="#FFFFFF" height="183.3906" style="stroke:#181818;stroke-width:1;" width="10" x="646.312" y="303.3438"/></g><g><title>TimebaseHandler</title><rect fill="#FFFFFF" height="109.6641" style="stroke:#181818;stroke-width:1;" width="10" x="646.312" y="617.2656"/></g><g><title>TimebaseHandler</title><rect fill="#FFFFFF" height="109.6641" style="stroke:#181818;stroke-width:1;" width="10" x="651.312" y="617.2656"/></g><g><title>TimebaseHandler</title><rect fill="#FFFFFF" height="45.7656" style="stroke:#181818;stroke-width:1;" width="10" x="656.312" y="681.1641"/></g><g><title>LifecycleManager</title><rect fill="transparent" height="646.5469" width="8" x="69.3901" y="177.7813"/><line style="stroke:#181818;stroke-width:0.5;stroke-dasharray:5.0,5.0;" x1="73" x2="73" y1="177.7813" y2="824.3281"/></g><g><title>TimeDaemon</title><rect fill="transparent" height="562.7656" width="8" x="345.5244" y="261.5625"/><line style="stroke:#181818;stroke-width:0.5;stroke-dasharray:5.0,5.0;" x1="348.6538" x2="348.6538" y1="261.5625" y2="824.3281"/></g><g><title>TimebaseHandler</title><rect fill="transparent" height="521.4688" width="8" x="647.312" y="302.8594"/><line style="stroke:#181818;stroke-width:0.5;stroke-dasharray:5.0,5.0;" x1="650.7168" x2="650.7168" y1="302.8594" y2="824.3281"/></g><g><title>Components</title><rect fill="transparent" height="480.1719" width="8" x="906.8955" y="344.1563"/><line style="stroke:#181818;stroke-width:0.5;stroke-dasharray:5.0,5.0;" x1="910.6089" x2="910.6089" y1="344.1563" y2="824.3281"/></g><rect fill="#90EE90" height="30.2969" rx="2.5" ry="2.5" style="stroke:#181818;stroke-width:0.5;" width="136.7803" x="5" y="146.4844"/><text fill="#000000" font-family="sans-serif" font-size="14" lengthAdjust="spacing" textLength="122.7803" x="12" y="166.4795">LifecycleManager</text><g><title>TimeDaemon</title><rect fill="#FFFFFF" height="253.8203" style="stroke:#181818;stroke-width:1;" width="10" x="344.5244" y="262.0469"/></g><g><title>TimeDaemon</title><rect fill="#FFFFFF" height="167.9297" style="stroke:#181818;stroke-width:1;" width="10" x="344.5244" y="588.1328"/></g><g><title>TimeDaemon</title><rect fill="#FFFFFF" height="167.9297" style="stroke:#181818;stroke-width:1;" width="10" x="349.5244" y="588.1328"/></g><g><title>TimebaseHandler</title><rect fill="#FFFFFF" height="183.3906" style="stroke:#181818;stroke-width:1;" width="10" x="646.312" y="303.3438"/></g><g><title>TimebaseHandler</title><rect fill="#FFFFFF" height="109.6641" style="stroke:#181818;stroke-width:1;" width="10" x="646.312" y="617.2656"/></g><g><title>TimebaseHandler</title><rect fill="#FFFFFF" height="109.6641" style="stroke:#181818;stroke-width:1;" width="10" x="651.312" y="617.2656"/></g><g><title>TimebaseHandler</title><rect fill="#FFFFFF" height="45.7656" style="stroke:#181818;stroke-width:1;" width="10" x="656.312" y="681.1641"/></g><rect fill="#EEEEEE" height="3" style="stroke:#EEEEEE;stroke-width:1;" width="1126.2729" x="0" y="208.3477"/><line style="stroke:#000000;stroke-width:1;" x1="0" x2="1126.2729" y1="208.3477" y2="208.3477"/><line style="stroke:#000000;stroke-width:1;" x1="0" x2="1126.2729" y1="211.3477" y2="211.3477"/><rect fill="#EEEEEE" height="23.1328" style="stroke:#000000;stroke-width:2;" width="212.7578" x="456.7576" y="197.7813"/><text fill="#000000" font-family="sans-serif" font-size="13" font-weight="bold" lengthAdjust="spacing" textLength="194.2319" x="462.7576" y="213.8481">TimeDaemon Construction</text><polygon fill="#181818" points="283.6538,248.0469,293.6538,252.0469,283.6538,256.0469,287.6538,252.0469" style="stroke:#181818;stroke-width:1;"/><line style="stroke:#181818;stroke-width:1;" x1="73.3901" x2="289.6538" y1="252.0469" y2="252.0469"/><text fill="#FF0000" font-family="sans-serif" font-size="13" font-weight="bold" lengthAdjust="spacing" textLength="29.9736" x="80.3901" y="246.981">[01]</text><text fill="#000000" font-family="sans-serif" font-size="13" lengthAdjust="spacing" textLength="164.29" x="114.3638" y="246.981">Construct TimeDaemon()</text><rect fill="#E0FFFF" height="30.2969" rx="2.5" ry="2.5" style="stroke:#181818;stroke-width:0.5;" width="107.7412" x="295.6538" y="230.9141"/><text fill="#000000" font-family="sans-serif" font-size="14" lengthAdjust="spacing" textLength="93.7412" x="302.6538" y="250.9092">TimeDaemon</text><polygon fill="#181818" points="570.7168,289.3438,580.7168,293.3438,570.7168,297.3438,574.7168,293.3438" style="stroke:#181818;stroke-width:1;"/><line style="stroke:#181818;stroke-width:1;" x1="354.5244" x2="576.7168" y1="293.3438" y2="293.3438"/><text fill="#FF0000" font-family="sans-serif" font-size="13" font-weight="bold" lengthAdjust="spacing" textLength="29.9736" x="361.5244" y="288.2778">[02]</text><text fill="#000000" font-family="sans-serif" font-size="13" lengthAdjust="spacing" textLength="170.2188" x="395.498" y="288.2778">create TimebaseHandler()</text><rect fill="#E0FFFF" height="30.2969" rx="2.5" ry="2.5" style="stroke:#181818;stroke-width:0.5;" width="137.1904" x="582.7168" y="272.2109"/><text fill="#000000" font-family="sans-serif" font-size="14" lengthAdjust="spacing" textLength="123.1904" x="589.7168" y="292.2061">TimebaseHandler</text><polygon fill="#181818" points="847.6089,330.6406,857.6089,334.6406,847.6089,338.6406,851.6089,334.6406" style="stroke:#181818;stroke-width:1;"/><line style="stroke:#181818;stroke-width:1;" x1="656.312" x2="853.6089" y1="334.6406" y2="334.6406"/><text fill="#FF0000" font-family="sans-serif" font-size="13" font-weight="bold" lengthAdjust="spacing" textLength="29.9736" x="663.312" y="329.5747">[03]</text><text fill="#000000" font-family="sans-serif" font-size="13" lengthAdjust="spacing" textLength="145.3232" x="697.2856" y="329.5747">create all components</text><rect fill="#F5F5DC" height="30.2969" rx="2.5" ry="2.5" style="stroke:#181818;stroke-width:0.5;" width="102.5732" x="859.6089" y="313.5078"/><text fill="#000000" font-family="sans-serif" font-size="14" lengthAdjust="spacing" textLength="88.5732" x="866.6089" y="333.5029">Components</text><path d="M915,359.8047 L915,459.8047 L1107,459.8047 L1107,369.8047 L1097,359.8047 L915,359.8047 " fill="#FEFFDD" style="stroke:#181818;stroke-width:0.5;"/><path d="M1097,359.8047 L1097,369.8047 L1107,369.8047 L1097,359.8047 " fill="#FEFFDD" style="stroke:#181818;stroke-width:0.5;"/><text fill="#000000" font-family="sans-serif" font-size="13" lengthAdjust="spacing" textLength="171.228" x="921" y="376.8716">TimebaseHandler creates:</text><text fill="#000000" font-family="sans-serif" font-size="13" lengthAdjust="spacing" textLength="108.8877" x="921" y="392.0044">- MessageBroker</text><text fill="#000000" font-family="sans-serif" font-size="13" lengthAdjust="spacing" textLength="84.4302" x="921" y="407.1372">- PtpMachine</text><text fill="#000000" font-family="sans-serif" font-size="13" lengthAdjust="spacing" textLength="137.2935" x="921" y="422.27">- VerificationMachine</text><text fill="#000000" font-family="sans-serif" font-size="13" lengthAdjust="spacing" textLength="132.2979" x="921" y="437.4028">- ControlFlowDivider</text><text fill="#000000" font-family="sans-serif" font-size="13" lengthAdjust="spacing" textLength="89.4829" x="921" y="452.5356">- IPCPublisher</text><polygon fill="#181818" points="365.5244,482.7344,355.5244,486.7344,365.5244,490.7344,361.5244,486.7344" style="stroke:#181818;stroke-width:1;"/><line style="stroke:#181818;stroke-width:1;stroke-dasharray:2.0,2.0;" x1="359.5244" x2="650.312" y1="486.7344" y2="486.7344"/><text fill="#FF0000" font-family="sans-serif" font-size="13" font-weight="bold" lengthAdjust="spacing" textLength="29.9736" x="371.5244" y="481.6685">[04]</text><text fill="#000000" font-family="sans-serif" font-size="13" lengthAdjust="spacing" textLength="173.5957" x="405.498" y="481.6685">TimebaseHandler instance</text><polygon fill="#181818" points="84.3901,511.8672,74.3901,515.8672,84.3901,519.8672,80.3901,515.8672" style="stroke:#181818;stroke-width:1;"/><line style="stroke:#181818;stroke-width:1;stroke-dasharray:2.0,2.0;" x1="78.3901" x2="348.5244" y1="515.8672" y2="515.8672"/><text fill="#FF0000" font-family="sans-serif" font-size="13" font-weight="bold" lengthAdjust="spacing" textLength="29.9736" x="90.3901" y="510.8013">[05]</text><text fill="#000000" font-family="sans-serif" font-size="13" lengthAdjust="spacing" textLength="146.25" x="124.3638" y="510.8013">TimeDaemon instance</text><rect fill="#EEEEEE" height="3" style="stroke:#EEEEEE;stroke-width:1;" width="1126.2729" x="0" y="544.4336"/><line style="stroke:#000000;stroke-width:1;" x1="0" x2="1126.2729" y1="544.4336" y2="544.4336"/><line style="stroke:#000000;stroke-width:1;" x1="0" x2="1126.2729" y1="547.4336" y2="547.4336"/><rect fill="#EEEEEE" height="23.1328" style="stroke:#000000;stroke-width:2;" width="159.2598" x="483.5066" y="533.8672"/><text fill="#000000" font-family="sans-serif" font-size="13" font-weight="bold" lengthAdjust="spacing" textLength="140.7339" x="489.5066" y="549.9341">Initialization Phase</text><polygon fill="#181818" points="337.5244,584.1328,347.5244,588.1328,337.5244,592.1328,341.5244,588.1328" style="stroke:#181818;stroke-width:1;"/><line style="stroke:#181818;stroke-width:1;" x1="73.3901" x2="343.5244" y1="588.1328" y2="588.1328"/><text fill="#FF0000" font-family="sans-serif" font-size="13" font-weight="bold" lengthAdjust="spacing" textLength="29.9736" x="80.3901" y="583.0669">[06]</text><text fill="#000000" font-family="sans-serif" font-size="13" lengthAdjust="spacing" textLength="113.7754" x="114.3638" y="583.0669">Initialize(context)</text><polygon fill="#181818" points="639.312,613.2656,649.312,617.2656,639.312,621.2656,643.312,617.2656" style="stroke:#181818;stroke-width:1;"/><line style="stroke:#181818;stroke-width:1;" x1="359.5244" x2="645.312" y1="617.2656" y2="617.2656"/><text fill="#FF0000" font-family="sans-serif" font-size="13" font-weight="bold" lengthAdjust="spacing" textLength="29.9736" x="366.5244" y="612.1997">[07]</text><text fill="#000000" font-family="sans-serif" font-size="13" lengthAdjust="spacing" textLength="64.5493" x="400.498" y="612.1997">Initialize()</text><line style="stroke:#181818;stroke-width:1;" x1="661.312" x2="708.312" y1="668.1641" y2="668.1641"/><line style="stroke:#181818;stroke-width:1;" x1="708.312" x2="708.312" y1="668.1641" y2="681.1641"/><line style="stroke:#181818;stroke-width:1;" x1="667.312" x2="708.312" y1="681.1641" y2="681.1641"/><polygon fill="#181818" points="677.312,677.1641,667.312,681.1641,677.312,685.1641,673.312,681.1641" style="stroke:#181818;stroke-width:1;"/><text fill="#FF0000" font-family="sans-serif" font-size="13" font-weight="bold" lengthAdjust="spacing" textLength="29.9736" x="673.312" y="655.5317">[08]</text><text fill="#000000" font-family="sans-serif" font-size="13" lengthAdjust="spacing" textLength="142.0352" x="707.2856" y="647.9653">Setup MessageBroker</text><text fill="#000000" font-family="sans-serif" font-size="13" lengthAdjust="spacing" textLength="86.0679" x="707.2856" y="663.0981">subscriptions</text><path d="M876.0088,630.2656 L876.0088,700.2656 L1105.0088,700.2656 L1105.0088,640.2656 L1095.0088,630.2656 L876.0088,630.2656 " fill="#FEFFDD" style="stroke:#181818;stroke-width:0.5;"/><path d="M1095.0088,630.2656 L1095.0088,640.2656 L1105.0088,640.2656 L1095.0088,630.2656 " fill="#FEFFDD" style="stroke:#181818;stroke-width:0.5;"/><text fill="#000000" font-family="sans-serif" font-size="13" lengthAdjust="spacing" textLength="208.9521" x="882.0088" y="647.3325">Connect components via topics:</text><text fill="#000000" font-family="sans-serif" font-size="13" lengthAdjust="spacing" textLength="106.1455" x="882.0088" y="662.4653">- input_ptp_data</text><text fill="#000000" font-family="sans-serif" font-size="13" lengthAdjust="spacing" textLength="96.6494" x="882.0088" y="677.5981">- raw_ptp_data</text><text fill="#000000" font-family="sans-serif" font-size="13" lengthAdjust="spacing" textLength="133.1548" x="882.0088" y="692.731">- validated_ptp_data</text><polygon fill="#181818" points="370.5244,722.9297,360.5244,726.9297,370.5244,730.9297,366.5244,726.9297" style="stroke:#181818;stroke-width:1;"/><line style="stroke:#181818;stroke-width:1;stroke-dasharray:2.0,2.0;" x1="364.5244" x2="645.312" y1="726.9297" y2="726.9297"/><text fill="#FF0000" font-family="sans-serif" font-size="13" font-weight="bold" lengthAdjust="spacing" textLength="29.9736" x="376.5244" y="721.8638">[09]</text><text fill="#000000" font-family="sans-serif" font-size="13" lengthAdjust="spacing" textLength="4.1323" x="410.498" y="721.8638">&#160;</text><polygon fill="#181818" points="84.3901,752.0625,74.3901,756.0625,84.3901,760.0625,80.3901,756.0625" style="stroke:#181818;stroke-width:1;"/><line style="stroke:#181818;stroke-width:1;stroke-dasharray:2.0,2.0;" x1="78.3901" x2="348.5244" y1="756.0625" y2="756.0625"/><text fill="#FF0000" font-family="sans-serif" font-size="13" font-weight="bold" lengthAdjust="spacing" textLength="29.9736" x="90.3901" y="750.9966">[10]</text><text fill="#000000" font-family="sans-serif" font-size="13" lengthAdjust="spacing" textLength="4.1323" x="124.3638" y="750.9966">&#160;</text><path d="M661,769.0625 L661,809.0625 L941,809.0625 L941,779.0625 L931,769.0625 L661,769.0625 " fill="#FEFFDD" style="stroke:#181818;stroke-width:0.5;"/><path d="M931,769.0625 L931,779.0625 L941,779.0625 L931,769.0625 " fill="#FEFFDD" style="stroke:#181818;stroke-width:0.5;"/><text fill="#000000" font-family="sans-serif" font-size="13" lengthAdjust="spacing" textLength="259.4287" x="667" y="786.1294">All components created and connected,</text><text fill="#000000" font-family="sans-serif" font-size="13" lengthAdjust="spacing" textLength="122.5923" x="667" y="801.2622">but not yet started</text><rect fill="#DDDDDD" height="79.1875" id="_legend" rx="7.5" ry="7.5" style="stroke:#000000;stroke-width:1;" width="286.4111" x="12" y="54.2969"/><text fill="#000000" font-family="sans-serif" font-size="14" font-weight="bold" lengthAdjust="spacing" textLength="41.2139" x="21.874" y="74.292">Color</text><text fill="#000000" font-family="sans-serif" font-size="14" font-weight="bold" lengthAdjust="spacing" textLength="90.5488" x="106.9541" y="74.292">Description</text><rect fill="#E0FFFF" height="16.2969" style="stroke:transparent;stroke-width:1;" width="85.0801" x="17" y="77.5938"/><text fill="#000000" font-family="sans-serif" font-size="14" lengthAdjust="spacing" textLength="13.3506" x="17" y="90.5889">&#160;&#160;&#160;</text><text fill="#000000" font-family="sans-serif" font-size="14" lengthAdjust="spacing" textLength="164.6299" x="106.5303" y="90.5889">TimeDaemon members</text><rect fill="#90EE90" height="16.2969" style="stroke:transparent;stroke-width:1;" width="85.0801" x="17" y="93.8906"/><text fill="#000000" font-family="sans-serif" font-size="14" lengthAdjust="spacing" textLength="8.9004" x="17" y="106.8857">&#160;&#160;</text><text fill="#000000" font-family="sans-serif" font-size="14" lengthAdjust="spacing" textLength="171.5889" x="106.5303" y="106.8857">Middleware components</text><rect fill="#F5F5DC" height="16.2969" style="stroke:transparent;stroke-width:1;" width="85.0801" x="17" y="110.1875"/><text fill="#000000" font-family="sans-serif" font-size="14" lengthAdjust="spacing" textLength="31.1514" x="17" y="123.1826">&#160;&#160;&#160;&#160;&#160;&#160;&#160;</text><text fill="#000000" font-family="sans-serif" font-size="14" lengthAdjust="spacing" textLength="113.6748" x="106.5303" y="123.1826">SW components</text><line style="stroke:#000000;stroke-width:1;" x1="17" x2="293.4111" y1="61.2969" y2="61.2969"/><line style="stroke:#000000;stroke-width:1;" x1="17" x2="293.4111" y1="77.5938" y2="77.5938"/><line style="stroke:#000000;stroke-width:1;" x1="17" x2="293.4111" y1="93.8906" y2="93.8906"/><line style="stroke:#000000;stroke-width:1;" x1="17" x2="293.4111" y1="110.1875" y2="110.1875"/><line style="stroke:#000000;stroke-width:1;" x1="17" x2="293.4111" y1="126.4844" y2="126.4844"/><line style="stroke:#000000;stroke-width:1;" x1="17" x2="17" y1="61.2969" y2="126.4844"/><line style="stroke:#000000;stroke-width:1;" x1="102.0801" x2="102.0801" y1="61.2969" y2="126.4844"/><line style="stroke:#000000;stroke-width:1;" x1="293.4111" x2="293.4111" y1="61.2969" y2="126.4844"/><!--SRC=[ZLJ1RXen4BtxAqRqaaQDb3C2f0JKDbAGaAZQGriXhtUMjMfirpiBeSh7Txmih9U0MjyyVZD-RzxOfCaWF7Xlj9AadHt2azMafT5_cZqiyNUDLg4GfSuH2kSeSoz2rkIa8hsLXE2iQ0AstcGOO30gd2LGphWm3fXFHjda-_tzpu4G1jTeSo3dmM110dYzZc4QeT0kti-mKa7xXa2tNW_mqRjdlIvfkfTs4lVmHMzm9d73u0r61jK5-AU06F6lCDTvRd0d0pB5ZNSMBLK9_17r6YV7Es7vhGVhoB2GWnmXl0oabVQIPG-UTO5ghmpEfPLh30EG5HYrWOH8FwCJq62tbA-azz3fV0lFP8MVPMHmg4_PgZnihwPDJogQZ4JKGR8Gut7Qowcp5OLQDIwCnsmUQxYRdEZTtiAm0oMPD-_5QJHQi3WcSNv2jIcX0aRacQgqI9SXH9BDjH8HQIrfJ78ahEDOY5q1LwG7qSYpUziIrR0vl8CvLXMx-1ZSBxx-45kGdqjLQejju2i6NRGlg7_2_Q7Wp4VZTZEzvHTqhF6qc2xgpEYgv51y4v5aNrxIw-4RcfhxBkExpF5IdqxzvYBHjs7gxANSer5n2Cw-W4N9zrwQWEIpm1l5Il65BdX_nVnUzd-vtKjU8jM-RyyFMzNPwUT8VM-QpbvOL9GEpLRB-1bfTV9RMr_JofDVvP9a6mnoTnxQCc_UOjuT_Cl5ArQTUtNHbVu89zcHpKDltDi9pe4H76uqO_wXGMOrHOgmHmAUWS077Us_]--></g></svg>