<svg xmlns="http://www.w3.org/2000/svg" xmlns:xlink="http://www.w3.org/1999/xlink" contentStyleType="text/css" data-diagram-type="CLASS" height="567px" preserveAspectRatio="none" style="width:376px;height:567px;background:#FFFFFF;" version="1.1" viewBox="0 0 376 567" width="376px" zoomAndPan="magnify"><title>mw::time::svt: Class Diagram</title><defs/><g><text fill="#000000" font-family="sans-serif" font-size="14" font-weight="bold" lengthAdjust="spacing" textLength="233.0029" x="67.5073" y="22.9951">mw::time::svt: Class Diagram</text><rect fill="#DDDDDD" height="62.8906" id="_legend" rx="7.5" ry="7.5" style="stroke:#000000;stroke-width:1;" width="344.0176" x="12" y="49.2969"/><text fill="#000000" font-family="sans-serif" font-size="14" font-weight="bold" lengthAdjust="spacing" textLength="41.2139" x="21.874" y="69.292">Color</text><text fill="#000000" font-family="sans-serif" font-size="14" font-weight="bold" lengthAdjust="spacing" textLength="90.5488" x="126.4502" y="69.292">Description</text><rect fill="#90EE90" height="16.2969" style="stroke:transparent;stroke-width:1;" width="104.5762" x="17" y="72.5938"/><text fill="#000000" font-family="sans-serif" font-size="14" lengthAdjust="spacing" textLength="22.251" x="17" y="85.5889">&#160;&#160;&#160;&#160;&#160;</text><text fill="#000000" font-family="sans-serif" font-size="14" lengthAdjust="spacing" textLength="171.5889" x="126.0264" y="85.5889">Middleware components</text><rect fill="#FFB6C1" height="16.2969" style="stroke:transparent;stroke-width:1;" width="104.5762" x="17" y="88.8906"/><text fill="#000000" font-family="sans-serif" font-size="14" lengthAdjust="spacing" textLength="26.7012" x="17" y="101.8857">&#160;&#160;&#160;&#160;&#160;&#160;</text><text fill="#000000" font-family="sans-serif" font-size="14" lengthAdjust="spacing" textLength="113.292" x="126.0264" y="101.8857">IPC components</text><line style="stroke:#000000;stroke-width:1;" x1="17" x2="351.0176" y1="56.2969" y2="56.2969"/><line style="stroke:#000000;stroke-width:1;" x1="17" x2="351.0176" y1="72.5938" y2="72.5938"/><line style="stroke:#000000;stroke-width:1;" x1="17" x2="351.0176" y1="88.8906" y2="88.8906"/><line style="stroke:#000000;stroke-width:1;" x1="17" x2="351.0176" y1="105.1875" y2="105.1875"/><line style="stroke:#000000;stroke-width:1;" x1="17" x2="17" y1="56.2969" y2="105.1875"/><line style="stroke:#000000;stroke-width:1;" x1="121.5762" x2="121.5762" y1="56.2969" y2="105.1875"/><line style="stroke:#000000;stroke-width:1;" x1="351.0176" x2="351.0176" y1="56.2969" y2="105.1875"/><!--class time_info--><g id="elem_time_info"><rect codeLine="11" fill="#F5F5DC" height="129.4844" id="time_info" rx="2.5" ry="2.5" style="stroke:#181818;stroke-width:0.5;" width="153.791" x="187.063" y="431.1875"/><ellipse cx="229.3341" cy="447.1875" fill="#ADD1B2" rx="11" ry="11" style="stroke:#181818;stroke-width:1;"/><path d="M232.3029,452.8281 Q231.7248,453.125 231.0841,453.2656 Q230.4435,453.4219 229.7404,453.4219 Q227.2404,453.4219 225.9123,451.7813 Q224.5998,450.125 224.5998,447 Q224.5998,443.875 225.9123,442.2188 Q227.2404,440.5625 229.7404,440.5625 Q230.4435,440.5625 231.0841,440.7188 Q231.7404,440.875 232.3029,441.1719 L232.3029,443.8906 Q231.6779,443.3125 231.0841,443.0469 Q230.4904,442.7656 229.8654,442.7656 Q228.5216,442.7656 227.8341,443.8438 Q227.1466,444.9063 227.1466,447 Q227.1466,449.0938 227.8341,450.1719 Q228.5216,451.2344 229.8654,451.2344 Q230.4904,451.2344 231.0841,450.9688 Q231.6779,450.6875 232.3029,450.1094 L232.3029,452.8281 Z " fill="#000000"/><text fill="#000000" font-family="sans-serif" font-size="14" lengthAdjust="spacing" textLength="61.1885" x="249.3944" y="452.0342">TimeInfo</text><line style="stroke:#181818;stroke-width:0.5;" x1="188.063" x2="339.854" y1="463.1875" y2="463.1875"/><ellipse cx="198.063" cy="476.8359" fill="transparent" rx="3" ry="3" style="stroke:#038048;stroke-width:1;"/><text fill="#000000" font-family="sans-serif" font-size="14" lengthAdjust="spacing" textLength="77.3691" x="207.063" y="480.1826">ptp: uint64</text><ellipse cx="198.063" cy="493.1328" fill="transparent" rx="3" ry="3" style="stroke:#038048;stroke-width:1;"/><text fill="#000000" font-family="sans-serif" font-size="14" lengthAdjust="spacing" textLength="125.3574" x="207.063" y="496.4795">local_time: uint64</text><ellipse cx="198.063" cy="509.4297" fill="transparent" rx="3" ry="3" style="stroke:#038048;stroke-width:1;"/><text fill="#000000" font-family="sans-serif" font-size="14" lengthAdjust="spacing" textLength="70.4375" x="207.063" y="512.7764">status: int</text><ellipse cx="198.063" cy="525.7266" fill="transparent" rx="3" ry="3" style="stroke:#038048;stroke-width:1;"/><text fill="#000000" font-family="sans-serif" font-size="14" lengthAdjust="spacing" textLength="127.791" x="207.063" y="529.0732">sync_fup_data: int</text><ellipse cx="198.063" cy="542.0234" fill="transparent" rx="3" ry="3" style="stroke:#038048;stroke-width:1;"/><text fill="#000000" font-family="sans-serif" font-size="14" lengthAdjust="spacing" textLength="113.0938" x="207.063" y="545.3701">pdelay_data: int</text><line style="stroke:#181818;stroke-width:0.5;" x1="188.063" x2="339.854" y1="552.6719" y2="552.6719"/></g><!--class time_status--><g id="elem_time_status"><rect codeLine="19" fill="#90EE90" height="80.5938" id="time_status" rx="2.5" ry="2.5" style="stroke:#181818;stroke-width:0.5;" width="111.3037" x="30.563" y="273.1875"/><ellipse cx="45.563" cy="289.1875" fill="#ADD1B2" rx="11" ry="11" style="stroke:#181818;stroke-width:1;"/><path d="M48.5317,294.8281 Q47.9536,295.125 47.313,295.2656 Q46.6724,295.4219 45.9692,295.4219 Q43.4692,295.4219 42.1411,293.7813 Q40.8286,292.125 40.8286,289 Q40.8286,285.875 42.1411,284.2188 Q43.4692,282.5625 45.9692,282.5625 Q46.6724,282.5625 47.313,282.7188 Q47.9692,282.875 48.5317,283.1719 L48.5317,285.8906 Q47.9067,285.3125 47.313,285.0469 Q46.7192,284.7656 46.0942,284.7656 Q44.7505,284.7656 44.063,285.8438 Q43.3755,286.9063 43.3755,289 Q43.3755,291.0938 44.063,292.1719 Q44.7505,293.2344 46.0942,293.2344 Q46.7192,293.2344 47.313,292.9688 Q47.9067,292.6875 48.5317,292.1094 L48.5317,294.8281 Z " fill="#000000"/><text fill="#000000" font-family="sans-serif" font-size="14" lengthAdjust="spacing" textLength="79.3037" x="59.563" y="294.0342">TimeStatus</text><line style="stroke:#181818;stroke-width:0.5;" x1="31.563" x2="140.8667" y1="305.1875" y2="305.1875"/><ellipse cx="41.563" cy="318.8359" fill="transparent" rx="3" ry="3" style="stroke:#038048;stroke-width:1;"/><text fill="#000000" font-family="sans-serif" font-size="14" lengthAdjust="spacing" textLength="77.3691" x="50.563" y="322.1826">ptp: uint64</text><ellipse cx="41.563" cy="335.1328" fill="transparent" rx="3" ry="3" style="stroke:#038048;stroke-width:1;"/><text fill="#000000" font-family="sans-serif" font-size="14" lengthAdjust="spacing" textLength="70.4375" x="50.563" y="338.4795">status: int</text><line style="stroke:#181818;stroke-width:0.5;" x1="31.563" x2="140.8667" y1="345.7813" y2="345.7813"/></g><!--class ipc_machine_receiver--><g id="elem_ipc_machine_receiver"><rect codeLine="24" fill="#FFB6C1" height="64.2969" id="ipc_machine_receiver" rx="2.5" ry="2.5" style="stroke:#181818;stroke-width:0.5;" width="174.8916" x="176.563" y="281.6875"/><ellipse cx="191.563" cy="297.6875" fill="#ADD1B2" rx="11" ry="11" style="stroke:#181818;stroke-width:1;"/><path d="M194.5317,303.3281 Q193.9536,303.625 193.313,303.7656 Q192.6724,303.9219 191.9692,303.9219 Q189.4692,303.9219 188.1411,302.2813 Q186.8286,300.625 186.8286,297.5 Q186.8286,294.375 188.1411,292.7188 Q189.4692,291.0625 191.9692,291.0625 Q192.6724,291.0625 193.313,291.2188 Q193.9692,291.375 194.5317,291.6719 L194.5317,294.3906 Q193.9067,293.8125 193.313,293.5469 Q192.7192,293.2656 192.0942,293.2656 Q190.7505,293.2656 190.063,294.3438 Q189.3755,295.4063 189.3755,297.5 Q189.3755,299.5938 190.063,300.6719 Q190.7505,301.7344 192.0942,301.7344 Q192.7192,301.7344 193.313,301.4688 Q193.9067,301.1875 194.5317,300.6094 L194.5317,303.3281 Z " fill="#000000"/><text fill="#000000" font-family="sans-serif" font-size="14" lengthAdjust="spacing" textLength="142.8916" x="205.563" y="302.5342">IPCMachine:receiver</text><line style="stroke:#181818;stroke-width:0.5;" x1="177.563" x2="350.4546" y1="313.6875" y2="313.6875"/><line style="stroke:#181818;stroke-width:0.5;" x1="177.563" x2="350.4546" y1="321.6875" y2="321.6875"/><ellipse cx="187.563" cy="335.3359" fill="#84BE84" rx="3" ry="3" style="stroke:#038048;stroke-width:1;"/><text fill="#000000" font-family="sans-serif" font-size="14" lengthAdjust="spacing" textLength="132.7471" x="196.563" y="338.6826">receive(): TimeInfo</text></g><!--class mw_svt--><g id="elem_mw_svt"><rect codeLine="28" fill="#90EE90" height="64.2969" id="mw_svt" rx="2.5" ry="2.5" style="stroke:#181818;stroke-width:0.5;" width="155.8828" x="56.063" y="132.1875"/><ellipse cx="77.5392" cy="148.1875" fill="#ADD1B2" rx="11" ry="11" style="stroke:#181818;stroke-width:1;"/><path d="M80.508,153.8281 Q79.9298,154.125 79.2892,154.2656 Q78.6486,154.4219 77.9455,154.4219 Q75.4455,154.4219 74.1173,152.7813 Q72.8048,151.125 72.8048,148 Q72.8048,144.875 74.1173,143.2188 Q75.4455,141.5625 77.9455,141.5625 Q78.6486,141.5625 79.2892,141.7188 Q79.9455,141.875 80.508,142.1719 L80.508,144.8906 Q79.883,144.3125 79.2892,144.0469 Q78.6955,143.7656 78.0705,143.7656 Q76.7267,143.7656 76.0392,144.8438 Q75.3517,145.9063 75.3517,148 Q75.3517,150.0938 76.0392,151.1719 Q76.7267,152.2344 78.0705,152.2344 Q78.6955,152.2344 79.2892,151.9688 Q79.883,151.6875 80.508,151.1094 L80.508,153.8281 Z " fill="#000000"/><text fill="#000000" font-family="sans-serif" font-size="14" lengthAdjust="spacing" textLength="109.4912" x="92.9784" y="153.0342">score::time::svt</text><line style="stroke:#181818;stroke-width:0.5;" x1="57.063" x2="210.9458" y1="164.1875" y2="164.1875"/><line style="stroke:#181818;stroke-width:0.5;" x1="57.063" x2="210.9458" y1="172.1875" y2="172.1875"/><ellipse cx="67.063" cy="185.8359" fill="#84BE84" rx="3" ry="3" style="stroke:#038048;stroke-width:1;"/><text fill="#000000" font-family="sans-serif" font-size="14" lengthAdjust="spacing" textLength="129.8828" x="76.063" y="189.1826">Now(): TimeStatus</text></g><!--link ipc_machine_receiver to time_info--><g id="link_ipc_machine_receiver_time_info"><path codeLine="32" d="M264.063,346.0375 C264.063,369.4075 264.063,396.1175 264.063,424.9075 " fill="transparent" id="ipc_machine_receiver-to-time_info" style="stroke:#181818;stroke-width:1;"/><polygon fill="#181818" points="264.063,430.9075,268.063,421.9075,264.063,425.9075,260.063,421.9075,264.063,430.9075" style="stroke:#181818;stroke-width:1;"/><text fill="#000000" font-family="sans-serif" font-size="13" lengthAdjust="spacing" textLength="65.0127" x="265.063" y="397.2544">processes</text></g><!--reverse link mw_svt to ipc_machine_receiver--><g id="link_mw_svt_ipc_machine_receiver"><path codeLine="33" d="M169.5673,205.4701 C191.6273,230.5001 214.483,256.4275 236.533,281.4475 " fill="transparent" id="mw_svt-backto-ipc_machine_receiver" style="stroke:#181818;stroke-width:1;"/><polygon fill="#181818" points="161.633,196.4675,162.5993,203.6136,169.5673,205.4701,168.601,198.324,161.633,196.4675" style="stroke:#181818;stroke-width:1;"/><text fill="#000000" font-family="sans-serif" font-size="13" lengthAdjust="spacing" textLength="55.0278" x="200.063" y="239.2544">contains</text></g><!--link mw_svt to time_status--><g id="link_mw_svt_time_status"><path codeLine="34" d="M123.883,196.4675 C116.623,218.7975 108.6504,243.2922 100.8304,267.3122 " fill="transparent" id="mw_svt-to-time_status" style="stroke:#181818;stroke-width:1;"/><polygon fill="#181818" points="98.973,273.0175,105.5626,265.6979,100.5208,268.2631,97.9556,263.2213,98.973,273.0175" style="stroke:#181818;stroke-width:1;"/><text fill="#000000" font-family="sans-serif" font-size="13" lengthAdjust="spacing" textLength="55.8784" x="114.063" y="239.2544">provides</text></g><!--SRC=[VPBBQiCm44Nt_eeXsVI1TwKBqMRH14gWAO5sRuGySORAaf0cCQ7flrVn8r71wQpiEvwZEzTYOerGDq8mrIX4sBE0kPOXm89avMMTPHehD2MmTQ1nmnd4EZx3t6hh8QceBJ0eJux96XYhOpSCJzCtghRywX7DhEl0YifIOoCzWhArimODXt-6rsI-Pdq7bklvbQdpSDoXsoJBCjLkEFcCEo_Dnav01ZW5K51yW-aBKeNmtPvtxzW9s97XnuTEq5P9NRHv_T43Izu50L7gXODHnMRdYbAoJ7HNefQ7HFtvu-YZvLmyTLn88hjgBRLmWSPmLb9joQ3mg93sw5iwELNKNQCO6d09TpYbRztS2XW2I-11MO_9zMd9TLF4np7BxxOPGDsU9zIeaJoV9Vz4WFDMOGWOifv-b-VZAuXu5GnBCkTFpwm-ovQsfpB2VW40]--></g></svg>