<svg xmlns="http://www.w3.org/2000/svg" xmlns:xlink="http://www.w3.org/1999/xlink" contentStyleType="text/css" data-diagram-type="CLASS" height="914px" preserveAspectRatio="none" style="width:2581px;height:914px;background:#FFFFFF;" version="1.1" viewBox="0 0 2581 914" width="2581px" zoomAndPan="magnify"><title>gPTP Engine Internal Class Diagram</title><defs/><g><text fill="#000000" font-family="Verdana" font-size="22" font-weight="bold" lengthAdjust="spacing" textLength="446.123" x="1062.9385" y="35.4209">gPTP Engine Internal Class Diagram</text><rect fill="transparent" height="111.7813" id="_legend" rx="7.5" ry="7.5" style="stroke:#000000;stroke-width:1;" width="283.2666" x="10" y="56.6094"/><text fill="#000000" font-family="Verdana" font-size="14" font-weight="bold" lengthAdjust="spacing" textLength="41.2139" x="19.874" y="76.6045">Color</text><text fill="#000000" font-family="Verdana" font-size="14" font-weight="bold" lengthAdjust="spacing" textLength="90.5488" x="114.7021" y="76.6045">Description</text><rect fill="#FFA07A" height="16.2969" style="stroke:transparent;stroke-width:1;" width="94.8281" x="15" y="79.9063"/><text fill="#000000" font-family="Verdana" font-size="14" lengthAdjust="spacing" textLength="8.9004" x="15" y="92.9014">&#160;&#160;</text><text fill="#000000" font-family="Verdana" font-size="14" lengthAdjust="spacing" textLength="121.8369" x="114.2783" y="92.9014">gPTP Engine core</text><rect fill="#F5DEB3" height="16.2969" style="stroke:transparent;stroke-width:1;" width="94.8281" x="15" y="96.2031"/><text fill="#000000" font-family="Verdana" font-size="14" lengthAdjust="spacing" textLength="35.6016" x="15" y="109.1982">&#160;&#160;&#160;&#160;&#160;&#160;&#160;&#160;</text><text fill="#000000" font-family="Verdana" font-size="14" lengthAdjust="spacing" textLength="137.1768" x="114.2783" y="109.1982">Protocol processing</text><rect fill="#E6E6FA" height="16.2969" style="stroke:transparent;stroke-width:1;" width="94.8281" x="15" y="112.5"/><text fill="#000000" font-family="Verdana" font-size="14" lengthAdjust="spacing" textLength="22.251" x="15" y="125.4951">&#160;&#160;&#160;&#160;&#160;</text><text fill="#000000" font-family="Verdana" font-size="14" lengthAdjust="spacing" textLength="112.8203" x="114.2783" y="125.4951">PHC adjustment</text><rect fill="#87CEFA" height="16.2969" style="stroke:transparent;stroke-width:1;" width="94.8281" x="15" y="128.7969"/><text fill="#000000" font-family="Verdana" font-size="14" lengthAdjust="spacing" textLength="4.4502" x="15" y="141.792">&#160;</text><text fill="#000000" font-family="Verdana" font-size="14" lengthAdjust="spacing" textLength="142.8369" x="114.2783" y="141.792">Platform abstraction</text><rect fill="#F5F5DC" height="16.2969" style="stroke:transparent;stroke-width:1;" width="94.8281" x="15" y="145.0938"/><text fill="#000000" font-family="Verdana" font-size="14" lengthAdjust="spacing" textLength="35.6016" x="15" y="158.0889">&#160;&#160;&#160;&#160;&#160;&#160;&#160;&#160;</text><text fill="#000000" font-family="Verdana" font-size="14" lengthAdjust="spacing" textLength="112.4238" x="114.2783" y="158.0889">Instrumentation</text><line style="stroke:#000000;stroke-width:1;" x1="15" x2="288.2666" y1="63.6094" y2="63.6094"/><line style="stroke:#000000;stroke-width:1;" x1="15" x2="288.2666" y1="79.9063" y2="79.9063"/><line style="stroke:#000000;stroke-width:1;" x1="15" x2="288.2666" y1="96.2031" y2="96.2031"/><line style="stroke:#000000;stroke-width:1;" x1="15" x2="288.2666" y1="112.5" y2="112.5"/><line style="stroke:#000000;stroke-width:1;" x1="15" x2="288.2666" y1="128.7969" y2="128.7969"/><line style="stroke:#000000;stroke-width:1;" x1="15" x2="288.2666" y1="145.0938" y2="145.0938"/><line style="stroke:#000000;stroke-width:1;" x1="15" x2="288.2666" y1="161.3906" y2="161.3906"/><line style="stroke:#000000;stroke-width:1;" x1="15" x2="15" y1="63.6094" y2="161.3906"/><line style="stroke:#000000;stroke-width:1;" x1="109.8281" x2="109.8281" y1="63.6094" y2="161.3906"/><line style="stroke:#000000;stroke-width:1;" x1="288.2666" x2="288.2666" y1="63.6094" y2="161.3906"/><!--cluster score::ts::details--><g id="cluster_score::ts::details"><path d="M13.5,180.3906 L148.1563,180.3906 A3.75,3.75 0 0 1 150.6563,182.8906 L157.6563,202.6875 L2291.5,202.6875 A2.5,2.5 0 0 1 2294,205.1875 L2294,904.8906 A2.5,2.5 0 0 1 2291.5,907.3906 L13.5,907.3906 A2.5,2.5 0 0 1 11,904.8906 L11,182.8906 A2.5,2.5 0 0 1 13.5,180.3906 " fill="#FFFFFF" style="stroke:#000000;stroke-width:1;"/><line style="stroke:#000000;stroke-width:1;" x1="11" x2="157.6563" y1="202.6875" y2="202.6875"/><text fill="#000000" font-family="Verdana" font-size="14" font-weight="bold" lengthAdjust="spacing" textLength="133.6563" x="15" y="195.3857">score::ts::details</text></g><!--cluster score::ts::gptp::instrument--><g id="cluster_score::ts::gptp::instrument"><path d="M2320.5,585.8906 L2536.9277,585.8906 A3.75,3.75 0 0 1 2539.4277,588.3906 L2546.4277,608.1875 L2571.5,608.1875 A2.5,2.5 0 0 1 2574,610.6875 L2574,904.8906 A2.5,2.5 0 0 1 2571.5,907.3906 L2320.5,907.3906 A2.5,2.5 0 0 1 2318,904.8906 L2318,588.3906 A2.5,2.5 0 0 1 2320.5,585.8906 " fill="#FFFFFF" style="stroke:#000000;stroke-width:1;"/><line style="stroke:#000000;stroke-width:1;" x1="2318" x2="2546.4277" y1="608.1875" y2="608.1875"/><text fill="#000000" font-family="Verdana" font-size="14" font-weight="bold" lengthAdjust="spacing" textLength="215.4277" x="2322" y="600.8857">score::ts::gptp::instrument</text></g><!--class GptpEngine--><g id="elem_GptpEngine"><rect codeLine="16" fill="#FFA07A" height="321.0469" id="GptpEngine" rx="2.5" ry="2.5" style="stroke:#000000;stroke-width:1;" width="349.459" x="1183.5" y="215.3906"/><ellipse cx="1313.4331" cy="229.3906" fill="#FFFFFF" rx="9" ry="9" style="stroke:#000000;stroke-width:1;"/><path d="M1316.4019,235.0313 Q1315.8237,235.3281 1315.1831,235.4688 Q1314.5425,235.625 1313.8394,235.625 Q1311.3394,235.625 1310.0112,233.9844 Q1308.6987,232.3281 1308.6987,229.2031 Q1308.6987,226.0781 1310.0112,224.4219 Q1311.3394,222.7656 1313.8394,222.7656 Q1314.5425,222.7656 1315.1831,222.9219 Q1315.8394,223.0781 1316.4019,223.375 L1316.4019,226.0938 Q1315.7769,225.5156 1315.1831,225.25 Q1314.5894,224.9688 1313.9644,224.9688 Q1312.6206,224.9688 1311.9331,226.0469 Q1311.2456,227.1094 1311.2456,229.2031 Q1311.2456,231.2969 1311.9331,232.375 Q1312.6206,233.4375 1313.9644,233.4375 Q1314.5894,233.4375 1315.1831,233.1719 Q1315.7769,232.8906 1316.4019,232.3125 L1316.4019,235.0313 Z " fill="#000000"/><text fill="#000000" font-family="Verdana" font-size="14" lengthAdjust="spacing" textLength="82.0928" x="1330.9331" y="234.2373">GptpEngine</text><line style="stroke:#000000;stroke-width:1;" x1="1184.5" x2="1531.959" y1="243.3906" y2="243.3906"/><rect fill="transparent" height="6" style="stroke:#000000;stroke-width:1;" width="6" x="1191.5" y="254.0391"/><text fill="#000000" font-family="Verdana" font-size="14" lengthAdjust="spacing" textLength="186.9629" x="1201.5" y="260.3857">opts_ : GptpEngineOptions</text><rect fill="transparent" height="6" style="stroke:#000000;stroke-width:1;" width="6" x="1191.5" y="270.3359"/><text fill="#000000" font-family="Verdana" font-size="14" lengthAdjust="spacing" textLength="165.1563" x="1201.5" y="276.6826">rx_thread_ : std::thread</text><rect fill="transparent" height="6" style="stroke:#000000;stroke-width:1;" width="6" x="1191.5" y="286.6328"/><text fill="#000000" font-family="Verdana" font-size="14" lengthAdjust="spacing" textLength="198.2559" x="1201.5" y="292.9795">pdelay_thread_ : std::thread</text><rect fill="transparent" height="6" style="stroke:#000000;stroke-width:1;" width="6" x="1191.5" y="302.9297"/><text fill="#000000" font-family="Verdana" font-size="14" lengthAdjust="spacing" textLength="242.1016" x="1201.5" y="309.2764">socket_ : unique_ptr&lt;RawSocket&gt;</text><rect fill="transparent" height="6" style="stroke:#000000;stroke-width:1;" width="6" x="1191.5" y="319.2266"/><text fill="#000000" font-family="Verdana" font-size="14" lengthAdjust="spacing" textLength="284.7441" x="1201.5" y="325.5732">identity_ : unique_ptr&lt;NetworkIdentity&gt;</text><rect fill="transparent" height="6" style="stroke:#000000;stroke-width:1;" width="6" x="1191.5" y="335.5234"/><text fill="#000000" font-family="Verdana" font-size="14" lengthAdjust="spacing" textLength="150.2539" x="1201.5" y="341.8701">codec_ : FrameCodec</text><rect fill="transparent" height="6" style="stroke:#000000;stroke-width:1;" width="6" x="1191.5" y="351.8203"/><text fill="#000000" font-family="Verdana" font-size="14" lengthAdjust="spacing" textLength="205.4131" x="1201.5" y="358.167">parser_ : GptpMessageParser</text><rect fill="transparent" height="6" style="stroke:#000000;stroke-width:1;" width="6" x="1191.5" y="368.1172"/><text fill="#000000" font-family="Verdana" font-size="14" lengthAdjust="spacing" textLength="210.1025" x="1201.5" y="374.4639">sync_sm_ : SyncStateMachine</text><rect fill="transparent" height="6" style="stroke:#000000;stroke-width:1;" width="6" x="1191.5" y="384.4141"/><text fill="#000000" font-family="Verdana" font-size="14" lengthAdjust="spacing" textLength="204.8936" x="1201.5" y="390.7607">pdelay_ : PeerDelayMeasurer</text><rect fill="transparent" height="6" style="stroke:#000000;stroke-width:1;" width="6" x="1191.5" y="400.7109"/><text fill="#000000" font-family="Verdana" font-size="14" lengthAdjust="spacing" textLength="193.8467" x="1201.5" y="407.0576">phc_adjuster_ : PhcAdjuster</text><rect fill="transparent" height="6" style="stroke:#000000;stroke-width:1;" width="6" x="1191.5" y="417.0078"/><text fill="#000000" font-family="Verdana" font-size="14" lengthAdjust="spacing" textLength="212.3721" x="1201.5" y="423.3545">snapshot_mutex_ : std::mutex</text><rect fill="transparent" height="6" style="stroke:#000000;stroke-width:1;" width="6" x="1191.5" y="433.3047"/><text fill="#000000" font-family="Verdana" font-size="14" lengthAdjust="spacing" textLength="236.6328" x="1201.5" y="439.6514">pending_snapshot_ : GptpIpcData</text><rect fill="transparent" height="6" style="stroke:#000000;stroke-width:1;" width="6" x="1191.5" y="449.6016"/><text fill="#000000" font-family="Verdana" font-size="14" lengthAdjust="spacing" textLength="230.7813" x="1201.5" y="455.9482">current_snapshot_ : GptpIpcData</text><line style="stroke:#000000;stroke-width:1;" x1="1184.5" x2="1531.959" y1="463.25" y2="463.25"/><ellipse cx="1194.5" cy="476.8984" fill="#FFFFFF" rx="3" ry="3" style="stroke:#000000;stroke-width:1;"/><text fill="#000000" font-family="Verdana" font-size="14" lengthAdjust="spacing" textLength="113.0391" x="1201.5" y="480.2451">Initialize() : bool</text><ellipse cx="1194.5" cy="493.1953" fill="#FFFFFF" rx="3" ry="3" style="stroke:#000000;stroke-width:1;"/><text fill="#000000" font-family="Verdana" font-size="14" lengthAdjust="spacing" textLength="132.1934" x="1201.5" y="496.542">Deinitialize() : bool</text><ellipse cx="1194.5" cy="509.4922" fill="#FFFFFF" rx="3" ry="3" style="stroke:#000000;stroke-width:1;"/><text fill="#000000" font-family="Verdana" font-size="14" lengthAdjust="spacing" textLength="172.751" x="1201.5" y="512.8389">FinalizeSnapshot() : void</text><ellipse cx="1194.5" cy="525.7891" fill="#FFFFFF" rx="3" ry="3" style="stroke:#000000;stroke-width:1;"/><text fill="#000000" font-family="Verdana" font-size="14" lengthAdjust="spacing" textLength="325.459" x="1201.5" y="529.1357">ReadPTPSnapshot(data : GptpIpcData&amp;) : bool</text></g><!--class RawSocket--><g id="elem_RawSocket"><rect codeLine="36" fill="#87CEFA" height="141.7813" id="RawSocket" rx="2.5" ry="2.5" style="stroke:#000000;stroke-width:1;" width="275.1523" x="27.5" y="596.3906"/><ellipse cx="122.7681" cy="610.3906" fill="#FFFFFF" rx="9" ry="9" style="stroke:#000000;stroke-width:1;"/><path d="M118.6899,606.1563 L118.6899,604 L126.0806,604 L126.0806,606.1563 L123.6118,606.1563 L123.6118,614.2344 L126.0806,614.2344 L126.0806,616.3906 L118.6899,616.3906 L118.6899,614.2344 L121.1587,614.2344 L121.1587,606.1563 L118.6899,606.1563 Z " fill="#000000"/><text fill="#000000" font-family="Verdana" font-size="14" font-style="italic" lengthAdjust="spacing" textLength="77.1162" x="140.2681" y="615.2373">RawSocket</text><line style="stroke:#000000;stroke-width:1;" x1="28.5" x2="301.6523" y1="624.3906" y2="624.3906"/><line style="stroke:#000000;stroke-width:1;" x1="28.5" x2="301.6523" y1="632.3906" y2="632.3906"/><ellipse cx="38.5" cy="646.0391" fill="#FFFFFF" rx="3" ry="3" style="stroke:#000000;stroke-width:1;"/><text fill="#000000" font-family="Verdana" font-size="14" lengthAdjust="spacing" textLength="125.5488" x="45.5" y="649.3857">Open(iface) : bool</text><ellipse cx="38.5" cy="662.3359" fill="#FFFFFF" rx="3" ry="3" style="stroke:#000000;stroke-width:1;"/><text fill="#000000" font-family="Verdana" font-size="14" lengthAdjust="spacing" textLength="224.3418" x="45.5" y="665.6826">EnableHwTimestamping() : bool</text><ellipse cx="38.5" cy="678.6328" fill="#FFFFFF" rx="3" ry="3" style="stroke:#000000;stroke-width:1;"/><text fill="#000000" font-family="Verdana" font-size="14" lengthAdjust="spacing" textLength="251.1523" x="45.5" y="681.9795">Recv(buf, timeout_ms) : RecvResult</text><ellipse cx="38.5" cy="694.9297" fill="#FFFFFF" rx="3" ry="3" style="stroke:#000000;stroke-width:1;"/><text fill="#000000" font-family="Verdana" font-size="14" lengthAdjust="spacing" textLength="142.6729" x="45.5" y="698.2764">Send(buf, len) : bool</text><ellipse cx="38.5" cy="711.2266" fill="#FFFFFF" rx="3" ry="3" style="stroke:#000000;stroke-width:1;"/><text fill="#000000" font-family="Verdana" font-size="14" lengthAdjust="spacing" textLength="84.6836" x="45.5" y="714.5732">GetFd() : int</text><ellipse cx="38.5" cy="727.5234" fill="#FFFFFF" rx="3" ry="3" style="stroke:#000000;stroke-width:1;"/><text fill="#000000" font-family="Verdana" font-size="14" lengthAdjust="spacing" textLength="92.3057" x="45.5" y="730.8701">Close() : void</text></g><!--class LinuxSocket--><g id="elem_LinuxSocket"><rect codeLine="45" fill="#87CEFA" height="74.8906" id="LinuxSocket" rx="2.5" ry="2.5" style="stroke:#000000;stroke-width:1;" width="245.1328" x="35.5" y="807.3906"/><ellipse cx="115.7583" cy="828.6875" fill="#FFFFFF" rx="9" ry="9" style="stroke:#000000;stroke-width:1;"/><path d="M118.7271,834.3281 Q118.1489,834.625 117.5083,834.7656 Q116.8677,834.9219 116.1646,834.9219 Q113.6646,834.9219 112.3364,833.2813 Q111.0239,831.625 111.0239,828.5 Q111.0239,825.375 112.3364,823.7188 Q113.6646,822.0625 116.1646,822.0625 Q116.8677,822.0625 117.5083,822.2188 Q118.1646,822.375 118.7271,822.6719 L118.7271,825.3906 Q118.1021,824.8125 117.5083,824.5469 Q116.9146,824.2656 116.2896,824.2656 Q114.9458,824.2656 114.2583,825.3438 Q113.5708,826.4063 113.5708,828.5 Q113.5708,830.5938 114.2583,831.6719 Q114.9458,832.7344 116.2896,832.7344 Q116.9146,832.7344 117.5083,832.4688 Q118.1021,832.1875 118.7271,831.6094 L118.7271,834.3281 Z " fill="#000000"/><text fill="#000000" font-family="Verdana" font-size="14" lengthAdjust="spacing" textLength="77.1162" x="133.2583" y="825.3857">RawSocket</text><text fill="#000000" font-family="Verdana" font-size="14" lengthAdjust="spacing" textLength="54.8516" x="144.3906" y="841.6826">&#171;Linux&#187;</text><line style="stroke:#000000;stroke-width:1;" x1="36.5" x2="279.6328" y1="849.9844" y2="849.9844"/><text fill="#000000" font-family="Verdana" font-size="14" lengthAdjust="spacing" textLength="233.1328" x="41.5" y="866.9795">AF_PACKET + SO_TIMESTAMPING</text><line style="stroke:#000000;stroke-width:1;" x1="36.5" x2="279.6328" y1="874.2813" y2="874.2813"/></g><!--class QnxSocket--><g id="elem_QnxSocket"><rect codeLine="49" fill="#87CEFA" height="74.8906" id="QnxSocket" rx="2.5" ry="2.5" style="stroke:#000000;stroke-width:1;" width="162.2813" x="316" y="807.3906"/><ellipse cx="354.8325" cy="828.6875" fill="#FFFFFF" rx="9" ry="9" style="stroke:#000000;stroke-width:1;"/><path d="M357.8013,834.3281 Q357.2231,834.625 356.5825,834.7656 Q355.9419,834.9219 355.2388,834.9219 Q352.7388,834.9219 351.4106,833.2813 Q350.0981,831.625 350.0981,828.5 Q350.0981,825.375 351.4106,823.7188 Q352.7388,822.0625 355.2388,822.0625 Q355.9419,822.0625 356.5825,822.2188 Q357.2388,822.375 357.8013,822.6719 L357.8013,825.3906 Q357.1763,824.8125 356.5825,824.5469 Q355.9888,824.2656 355.3638,824.2656 Q354.02,824.2656 353.3325,825.3438 Q352.645,826.4063 352.645,828.5 Q352.645,830.5938 353.3325,831.6719 Q354.02,832.7344 355.3638,832.7344 Q355.9888,832.7344 356.5825,832.4688 Q357.1763,832.1875 357.8013,831.6094 L357.8013,834.3281 Z " fill="#000000"/><text fill="#000000" font-family="Verdana" font-size="14" lengthAdjust="spacing" textLength="77.1162" x="372.3325" y="825.3857">RawSocket</text><text fill="#000000" font-family="Verdana" font-size="14" lengthAdjust="spacing" textLength="48.2139" x="386.7837" y="841.6826">&#171;QNX&#187;</text><line style="stroke:#000000;stroke-width:1;" x1="317" x2="477.2813" y1="849.9844" y2="849.9844"/><text fill="#000000" font-family="Verdana" font-size="14" lengthAdjust="spacing" textLength="150.2813" x="322" y="866.9795">QNX raw-socket shim</text><line style="stroke:#000000;stroke-width:1;" x1="317" x2="477.2813" y1="874.2813" y2="874.2813"/></g><!--class NetworkIdentity--><g id="elem_NetworkIdentity"><rect codeLine="59" fill="#87CEFA" height="125.4844" id="NetworkIdentity" rx="2.5" ry="2.5" style="stroke:#000000;stroke-width:1;" width="256.873" x="337.5" y="604.8906"/><ellipse cx="406.1318" cy="618.8906" fill="#FFFFFF" rx="9" ry="9" style="stroke:#000000;stroke-width:1;"/><path d="M409.1006,624.5313 Q408.5225,624.8281 407.8818,624.9688 Q407.2412,625.125 406.5381,625.125 Q404.0381,625.125 402.71,623.4844 Q401.3975,621.8281 401.3975,618.7031 Q401.3975,615.5781 402.71,613.9219 Q404.0381,612.2656 406.5381,612.2656 Q407.2412,612.2656 407.8818,612.4219 Q408.5381,612.5781 409.1006,612.875 L409.1006,615.5938 Q408.4756,615.0156 407.8818,614.75 Q407.2881,614.4688 406.6631,614.4688 Q405.3193,614.4688 404.6318,615.5469 Q403.9443,616.6094 403.9443,618.7031 Q403.9443,620.7969 404.6318,621.875 Q405.3193,622.9375 406.6631,622.9375 Q407.2881,622.9375 407.8818,622.6719 Q408.4756,622.3906 409.1006,621.8125 L409.1006,624.5313 Z " fill="#000000"/><text fill="#000000" font-family="Verdana" font-size="14" lengthAdjust="spacing" textLength="112.1094" x="423.6318" y="623.7373">NetworkIdentity</text><line style="stroke:#000000;stroke-width:1;" x1="338.5" x2="593.373" y1="632.8906" y2="632.8906"/><line style="stroke:#000000;stroke-width:1;" x1="338.5" x2="593.373" y1="640.8906" y2="640.8906"/><ellipse cx="348.5" cy="654.5391" fill="#FFFFFF" rx="3" ry="3" style="stroke:#000000;stroke-width:1;"/><text fill="#000000" font-family="Verdana" font-size="14" lengthAdjust="spacing" textLength="143.1445" x="355.5" y="657.8857">Resolve(iface) : bool</text><ellipse cx="348.5" cy="670.8359" fill="#FFFFFF" rx="3" ry="3" style="stroke:#000000;stroke-width:1;"/><text fill="#000000" font-family="Verdana" font-size="14" lengthAdjust="spacing" textLength="232.873" x="355.5" y="674.1826">GetClockIdentity() : ClockIdentity</text><ellipse cx="348.5" cy="687.1328" fill="#FFFFFF" rx="3" ry="3" style="stroke:#000000;stroke-width:1;"/><text fill="#000000" font-family="Verdana" font-size="14" lengthAdjust="spacing" textLength="162.5107" x="355.5" y="690.4795">GetMac() : MacAddress</text><text fill="#000000" font-family="Verdana" font-size="14" lengthAdjust="spacing" textLength="176.9893" x="355.5" y="706.7764">Derives EUI-64 from MAC</text><text fill="#000000" font-family="Verdana" font-size="14" lengthAdjust="spacing" textLength="134.4219" x="355.5" y="723.0732">(inserts 0xFF 0xFE)</text></g><!--class FrameCodec--><g id="elem_FrameCodec"><rect codeLine="63" fill="#F5DEB3" height="76.5938" id="FrameCodec" rx="2.5" ry="2.5" style="stroke:#000000;stroke-width:1;" width="373.7813" x="648" y="628.8906"/><ellipse cx="787.0522" cy="642.8906" fill="#FFFFFF" rx="9" ry="9" style="stroke:#000000;stroke-width:1;"/><path d="M790.021,648.5313 Q789.4429,648.8281 788.8022,648.9688 Q788.1616,649.125 787.4585,649.125 Q784.9585,649.125 783.6304,647.4844 Q782.3179,645.8281 782.3179,642.7031 Q782.3179,639.5781 783.6304,637.9219 Q784.9585,636.2656 787.4585,636.2656 Q788.1616,636.2656 788.8022,636.4219 Q789.4585,636.5781 790.021,636.875 L790.021,639.5938 Q789.396,639.0156 788.8022,638.75 Q788.2085,638.4688 787.5835,638.4688 Q786.2397,638.4688 785.5522,639.5469 Q784.8647,640.6094 784.8647,642.7031 Q784.8647,644.7969 785.5522,645.875 Q786.2397,646.9375 787.5835,646.9375 Q788.2085,646.9375 788.8022,646.6719 Q789.396,646.3906 790.021,645.8125 L790.021,648.5313 Z " fill="#000000"/><text fill="#000000" font-family="Verdana" font-size="14" lengthAdjust="spacing" textLength="88.1768" x="804.5522" y="647.7373">FrameCodec</text><line style="stroke:#000000;stroke-width:1;" x1="649" x2="1020.7813" y1="656.8906" y2="656.8906"/><line style="stroke:#000000;stroke-width:1;" x1="649" x2="1020.7813" y1="664.8906" y2="664.8906"/><ellipse cx="659" cy="678.5391" fill="#FFFFFF" rx="3" ry="3" style="stroke:#000000;stroke-width:1;"/><text fill="#000000" font-family="Verdana" font-size="14" lengthAdjust="spacing" textLength="308.9707" x="666" y="681.8857">ParseEthernetHeader(buf) : EthernetHeader</text><ellipse cx="659" cy="694.8359" fill="#FFFFFF" rx="3" ry="3" style="stroke:#000000;stroke-width:1;"/><text fill="#000000" font-family="Verdana" font-size="14" lengthAdjust="spacing" textLength="349.7813" x="666" y="698.1826">AddEthernetHeader(buf, dst_mac, src_mac) : void</text></g><!--class GptpMessageParser--><g id="elem_GptpMessageParser"><rect codeLine="68" fill="#F5DEB3" height="60.2969" id="GptpMessageParser" rx="2.5" ry="2.5" style="stroke:#000000;stroke-width:1;" width="271.7275" x="1057" y="637.3906"/><ellipse cx="1119.1582" cy="651.3906" fill="#FFFFFF" rx="9" ry="9" style="stroke:#000000;stroke-width:1;"/><path d="M1122.127,657.0313 Q1121.5488,657.3281 1120.9082,657.4688 Q1120.2676,657.625 1119.5645,657.625 Q1117.0645,657.625 1115.7363,655.9844 Q1114.4238,654.3281 1114.4238,651.2031 Q1114.4238,648.0781 1115.7363,646.4219 Q1117.0645,644.7656 1119.5645,644.7656 Q1120.2676,644.7656 1120.9082,644.9219 Q1121.5645,645.0781 1122.127,645.375 L1122.127,648.0938 Q1121.502,647.5156 1120.9082,647.25 Q1120.3145,646.9688 1119.6895,646.9688 Q1118.3457,646.9688 1117.6582,648.0469 Q1116.9707,649.1094 1116.9707,651.2031 Q1116.9707,653.2969 1117.6582,654.375 Q1118.3457,655.4375 1119.6895,655.4375 Q1120.3145,655.4375 1120.9082,655.1719 Q1121.502,654.8906 1122.127,654.3125 L1122.127,657.0313 Z " fill="#000000"/><text fill="#000000" font-family="Verdana" font-size="14" lengthAdjust="spacing" textLength="139.9111" x="1136.6582" y="656.2373">GptpMessageParser</text><line style="stroke:#000000;stroke-width:1;" x1="1058" x2="1327.7275" y1="665.3906" y2="665.3906"/><line style="stroke:#000000;stroke-width:1;" x1="1058" x2="1327.7275" y1="673.3906" y2="673.3906"/><ellipse cx="1068" cy="687.0391" fill="#FFFFFF" rx="3" ry="3" style="stroke:#000000;stroke-width:1;"/><text fill="#000000" font-family="Verdana" font-size="14" lengthAdjust="spacing" textLength="247.7275" x="1075" y="690.3857">Parse(payload, len, msg_out) : bool</text></g><!--class SyncStateMachine--><g id="elem_SyncStateMachine"><rect codeLine="72" fill="#F5DEB3" height="125.4844" id="SyncStateMachine" rx="2.5" ry="2.5" style="stroke:#000000;stroke-width:1;" width="319.627" x="1364" y="604.8906"/><ellipse cx="1455.3613" cy="618.8906" fill="#FFFFFF" rx="9" ry="9" style="stroke:#000000;stroke-width:1;"/><path d="M1458.3301,624.5313 Q1457.752,624.8281 1457.1113,624.9688 Q1456.4707,625.125 1455.7676,625.125 Q1453.2676,625.125 1451.9395,623.4844 Q1450.627,621.8281 1450.627,618.7031 Q1450.627,615.5781 1451.9395,613.9219 Q1453.2676,612.2656 1455.7676,612.2656 Q1456.4707,612.2656 1457.1113,612.4219 Q1457.7676,612.5781 1458.3301,612.875 L1458.3301,615.5938 Q1457.7051,615.0156 1457.1113,614.75 Q1456.5176,614.4688 1455.8926,614.4688 Q1454.5488,614.4688 1453.8613,615.5469 Q1453.1738,616.6094 1453.1738,618.7031 Q1453.1738,620.7969 1453.8613,621.875 Q1454.5488,622.9375 1455.8926,622.9375 Q1456.5176,622.9375 1457.1113,622.6719 Q1457.7051,622.3906 1458.3301,621.8125 L1458.3301,624.5313 Z " fill="#000000"/><text fill="#000000" font-family="Verdana" font-size="14" lengthAdjust="spacing" textLength="129.4043" x="1472.8613" y="623.7373">SyncStateMachine</text><line style="stroke:#000000;stroke-width:1;" x1="1365" x2="1682.627" y1="632.8906" y2="632.8906"/><rect fill="transparent" height="6" style="stroke:#000000;stroke-width:1;" width="6" x="1372" y="643.5391"/><text fill="#000000" font-family="Verdana" font-size="14" lengthAdjust="spacing" textLength="176.4014" x="1382" y="649.8857">timeout_ : atomic&lt;bool&gt;</text><line style="stroke:#000000;stroke-width:1;" x1="1365" x2="1682.627" y1="657.1875" y2="657.1875"/><ellipse cx="1375" cy="670.8359" fill="#FFFFFF" rx="3" ry="3" style="stroke:#000000;stroke-width:1;"/><text fill="#000000" font-family="Verdana" font-size="14" lengthAdjust="spacing" textLength="137.6211" x="1382" y="674.1826">OnSync(msg) : void</text><ellipse cx="1375" cy="687.1328" fill="#FFFFFF" rx="3" ry="3" style="stroke:#000000;stroke-width:1;"/><text fill="#000000" font-family="Verdana" font-size="14" lengthAdjust="spacing" textLength="295.627" x="1382" y="690.4795">OnFollowUp(msg) : optional&lt;SyncResult&gt;</text><ellipse cx="1375" cy="703.4297" fill="#FFFFFF" rx="3" ry="3" style="stroke:#000000;stroke-width:1;"/><text fill="#000000" font-family="Verdana" font-size="14" lengthAdjust="spacing" textLength="123.4912" x="1382" y="706.7764">IsTimeout() : bool</text><ellipse cx="1375" cy="719.7266" fill="#FFFFFF" rx="3" ry="3" style="stroke:#000000;stroke-width:1;"/><text fill="#000000" font-family="Verdana" font-size="14" lengthAdjust="spacing" textLength="229.8105" x="1382" y="723.0732">GetNeighborRateRatio() : double</text></g><!--class PeerDelayMeasurer--><g id="elem_PeerDelayMeasurer"><rect codeLine="80" fill="#F5DEB3" height="141.7813" id="PeerDelayMeasurer" rx="2.5" ry="2.5" style="stroke:#000000;stroke-width:1;" width="259.293" x="1719.5" y="596.3906"/><ellipse cx="1776.8286" cy="610.3906" fill="#FFFFFF" rx="9" ry="9" style="stroke:#000000;stroke-width:1;"/><path d="M1779.7974,616.0313 Q1779.2192,616.3281 1778.5786,616.4688 Q1777.938,616.625 1777.2349,616.625 Q1774.7349,616.625 1773.4067,614.9844 Q1772.0942,613.3281 1772.0942,610.2031 Q1772.0942,607.0781 1773.4067,605.4219 Q1774.7349,603.7656 1777.2349,603.7656 Q1777.938,603.7656 1778.5786,603.9219 Q1779.2349,604.0781 1779.7974,604.375 L1779.7974,607.0938 Q1779.1724,606.5156 1778.5786,606.25 Q1777.9849,605.9688 1777.3599,605.9688 Q1776.0161,605.9688 1775.3286,607.0469 Q1774.6411,608.1094 1774.6411,610.2031 Q1774.6411,612.2969 1775.3286,613.375 Q1776.0161,614.4375 1777.3599,614.4375 Q1777.9849,614.4375 1778.5786,614.1719 Q1779.1724,613.8906 1779.7974,613.3125 L1779.7974,616.0313 Z " fill="#000000"/><text fill="#000000" font-family="Verdana" font-size="14" lengthAdjust="spacing" textLength="137.1357" x="1794.3286" y="615.2373">PeerDelayMeasurer</text><line style="stroke:#000000;stroke-width:1;" x1="1720.5" x2="1977.793" y1="624.3906" y2="624.3906"/><rect fill="transparent" height="6" style="stroke:#000000;stroke-width:1;" width="6" x="1727.5" y="635.0391"/><text fill="#000000" font-family="Verdana" font-size="14" lengthAdjust="spacing" textLength="141.5176" x="1737.5" y="641.3857">mutex_ : std::mutex</text><rect fill="transparent" height="6" style="stroke:#000000;stroke-width:1;" width="6" x="1727.5" y="651.3359"/><text fill="#000000" font-family="Verdana" font-size="14" lengthAdjust="spacing" textLength="153.0088" x="1737.5" y="657.6826">result_ : PDelayResult</text><line style="stroke:#000000;stroke-width:1;" x1="1720.5" x2="1977.793" y1="664.9844" y2="664.9844"/><ellipse cx="1730.5" cy="678.6328" fill="#FFFFFF" rx="3" ry="3" style="stroke:#000000;stroke-width:1;"/><text fill="#000000" font-family="Verdana" font-size="14" lengthAdjust="spacing" textLength="192.6914" x="1737.5" y="681.9795">SendRequest(socket) : void</text><ellipse cx="1730.5" cy="694.9297" fill="#FFFFFF" rx="3" ry="3" style="stroke:#000000;stroke-width:1;"/><text fill="#000000" font-family="Verdana" font-size="14" lengthAdjust="spacing" textLength="171.7461" x="1737.5" y="698.2764">OnResponse(msg) : void</text><ellipse cx="1730.5" cy="711.2266" fill="#FFFFFF" rx="3" ry="3" style="stroke:#000000;stroke-width:1;"/><text fill="#000000" font-family="Verdana" font-size="14" lengthAdjust="spacing" textLength="235.293" x="1737.5" y="714.5732">OnResponseFollowUp(msg) : void</text><ellipse cx="1730.5" cy="727.5234" fill="#FFFFFF" rx="3" ry="3" style="stroke:#000000;stroke-width:1;"/><text fill="#000000" font-family="Verdana" font-size="14" lengthAdjust="spacing" textLength="185.8555" x="1737.5" y="730.8701">GetResult() : PDelayResult</text></g><!--class PhcAdjuster--><g id="elem_PhcAdjuster"><rect codeLine="89" fill="#E6E6FA" height="125.4844" id="PhcAdjuster" rx="2.5" ry="2.5" style="stroke:#000000;stroke-width:1;" width="263.5449" x="2014" y="604.8906"/><ellipse cx="2100.3267" cy="618.8906" fill="#FFFFFF" rx="9" ry="9" style="stroke:#000000;stroke-width:1;"/><path d="M2103.2954,624.5313 Q2102.7173,624.8281 2102.0767,624.9688 Q2101.436,625.125 2100.7329,625.125 Q2098.2329,625.125 2096.9048,623.4844 Q2095.5923,621.8281 2095.5923,618.7031 Q2095.5923,615.5781 2096.9048,613.9219 Q2098.2329,612.2656 2100.7329,612.2656 Q2101.436,612.2656 2102.0767,612.4219 Q2102.7329,612.5781 2103.2954,612.875 L2103.2954,615.5938 Q2102.6704,615.0156 2102.0767,614.75 Q2101.4829,614.4688 2100.8579,614.4688 Q2099.5142,614.4688 2098.8267,615.5469 Q2098.1392,616.6094 2098.1392,618.7031 Q2098.1392,620.7969 2098.8267,621.875 Q2099.5142,622.9375 2100.8579,622.9375 Q2101.4829,622.9375 2102.0767,622.6719 Q2102.6704,622.3906 2103.2954,621.8125 L2103.2954,624.5313 Z " fill="#000000"/><text fill="#000000" font-family="Verdana" font-size="14" lengthAdjust="spacing" textLength="83.3916" x="2117.8267" y="623.7373">PhcAdjuster</text><line style="stroke:#000000;stroke-width:1;" x1="2015" x2="2276.5449" y1="632.8906" y2="632.8906"/><rect fill="transparent" height="6" style="stroke:#000000;stroke-width:1;" width="6" x="2022" y="643.5391"/><text fill="#000000" font-family="Verdana" font-size="14" lengthAdjust="spacing" textLength="112.0615" x="2032" y="649.8857">cfg_ : PhcConfig</text><rect fill="transparent" height="6" style="stroke:#000000;stroke-width:1;" width="6" x="2022" y="659.8359"/><text fill="#000000" font-family="Verdana" font-size="14" lengthAdjust="spacing" textLength="85.1416" x="2032" y="666.1826">phc_fd_ : int</text><line style="stroke:#000000;stroke-width:1;" x1="2015" x2="2276.5449" y1="673.4844" y2="673.4844"/><ellipse cx="2025" cy="687.1328" fill="#FFFFFF" rx="3" ry="3" style="stroke:#000000;stroke-width:1;"/><text fill="#000000" font-family="Verdana" font-size="14" lengthAdjust="spacing" textLength="122.4453" x="2032" y="690.4795">IsEnabled() : bool</text><ellipse cx="2025" cy="703.4297" fill="#FFFFFF" rx="3" ry="3" style="stroke:#000000;stroke-width:1;"/><text fill="#000000" font-family="Verdana" font-size="14" lengthAdjust="spacing" textLength="203.4375" x="2032" y="706.7764">AdjustOffset(offset_ns) : void</text><ellipse cx="2025" cy="719.7266" fill="#FFFFFF" rx="3" ry="3" style="stroke:#000000;stroke-width:1;"/><text fill="#000000" font-family="Verdana" font-size="14" lengthAdjust="spacing" textLength="239.5449" x="2032" y="723.0732">AdjustFrequency(rate_ratio) : void</text></g><!--class PhcConfig--><g id="elem_PhcConfig"><rect codeLine="97" fill="#E6E6FA" height="92.8906" id="PhcConfig" rx="2.5" ry="2.5" style="stroke:#000000;stroke-width:1;" width="313.6592" x="1964" y="798.3906"/><ellipse cx="2082.1138" cy="812.3906" fill="#FFFFFF" rx="9" ry="9" style="stroke:#000000;stroke-width:1;"/><path d="M2081.5981,812.9531 Q2079.7388,812.25 2079.0825,811.4844 Q2078.4419,810.7031 2078.4419,809.3906 Q2078.4419,807.7031 2079.52,806.7344 Q2080.5981,805.7656 2082.4731,805.7656 Q2083.3325,805.7656 2084.1763,805.9688 Q2085.0356,806.1563 2085.8794,806.5469 L2085.8794,808.9375 Q2085.0981,808.375 2084.27,808.0938 Q2083.4575,807.7969 2082.6606,807.7969 Q2081.7856,807.7969 2081.3013,808.1563 Q2080.8325,808.5156 2080.8325,809.1719 Q2080.8325,809.6875 2081.1763,810.0313 Q2081.52,810.3594 2082.6138,810.7656 L2083.6763,811.1719 Q2085.1606,811.7188 2085.8638,812.625 Q2086.5825,813.5313 2086.5825,814.9063 Q2086.5825,816.7813 2085.4731,817.7031 Q2084.3638,818.625 2082.1138,818.625 Q2081.1919,818.625 2080.27,818.4063 Q2079.3481,818.1875 2078.4888,817.7656 L2078.4888,815.2344 Q2079.4575,815.9219 2080.3794,816.2656 Q2081.3013,816.6094 2082.1919,816.6094 Q2083.0981,816.6094 2083.5981,816.2031 Q2084.0981,815.7813 2084.0981,815.0469 Q2084.0981,814.4844 2083.7544,814.0781 Q2083.4263,813.6563 2082.8013,813.4063 L2081.5981,812.9531 Z " fill="#000000"/><text fill="#000000" font-family="Verdana" font-size="14" lengthAdjust="spacing" textLength="69.9316" x="2099.6138" y="817.2373">PhcConfig</text><line style="stroke:#000000;stroke-width:1;" x1="1965" x2="2276.6592" y1="826.3906" y2="826.3906"/><ellipse cx="1975" cy="840.0391" fill="transparent" rx="3" ry="3" style="stroke:#000000;stroke-width:1;"/><text fill="#000000" font-family="Verdana" font-size="14" lengthAdjust="spacing" textLength="153.8018" x="1982" y="843.3857">enabled : bool = false</text><ellipse cx="1975" cy="856.3359" fill="transparent" rx="3" ry="3" style="stroke:#000000;stroke-width:1;"/><text fill="#000000" font-family="Verdana" font-size="14" lengthAdjust="spacing" textLength="99.791" x="1982" y="859.6826">device : string</text><ellipse cx="1975" cy="872.6328" fill="transparent" rx="3" ry="3" style="stroke:#000000;stroke-width:1;"/><text fill="#000000" font-family="Verdana" font-size="14" lengthAdjust="spacing" textLength="289.6592" x="1982" y="875.9795">step_threshold_ns : int64_t = 100000000</text><line style="stroke:#000000;stroke-width:1;" x1="1965" x2="2276.6592" y1="883.2813" y2="883.2813"/></g><!--class ProbeManager--><g id="elem_ProbeManager"><rect codeLine="118" fill="#F5F5DC" height="92.8906" id="ProbeManager" rx="2.5" ry="2.5" style="stroke:#000000;stroke-width:1;" width="224.416" x="2334" y="620.8906"/><ellipse cx="2391.6431" cy="634.8906" fill="#FFFFFF" rx="9" ry="9" style="stroke:#000000;stroke-width:1;"/><path d="M2394.6118,640.5313 Q2394.0337,640.8281 2393.3931,640.9688 Q2392.7524,641.125 2392.0493,641.125 Q2389.5493,641.125 2388.2212,639.4844 Q2386.9087,637.8281 2386.9087,634.7031 Q2386.9087,631.5781 2388.2212,629.9219 Q2389.5493,628.2656 2392.0493,628.2656 Q2392.7524,628.2656 2393.3931,628.4219 Q2394.0493,628.5781 2394.6118,628.875 L2394.6118,631.5938 Q2393.9868,631.0156 2393.3931,630.75 Q2392.7993,630.4688 2392.1743,630.4688 Q2390.8306,630.4688 2390.1431,631.5469 Q2389.4556,632.6094 2389.4556,634.7031 Q2389.4556,636.7969 2390.1431,637.875 Q2390.8306,638.9375 2392.1743,638.9375 Q2392.7993,638.9375 2393.3931,638.6719 Q2393.9868,638.3906 2394.6118,637.8125 L2394.6118,640.5313 Z " fill="#000000"/><text fill="#000000" font-family="Verdana" font-size="14" lengthAdjust="spacing" textLength="101.6299" x="2409.1431" y="639.7373">ProbeManager</text><line style="stroke:#000000;stroke-width:1;" x1="2335" x2="2557.416" y1="648.8906" y2="648.8906"/><line style="stroke:#000000;stroke-width:1;" x1="2335" x2="2557.416" y1="656.8906" y2="656.8906"/><ellipse cx="2345" cy="670.5391" fill="#FFFFFF" rx="3" ry="3" style="stroke:#000000;stroke-width:1;"/><text fill="#000000" font-family="Verdana" font-size="14" lengthAdjust="spacing" text-decoration="underline" textLength="196.6357" x="2352" y="673.8857">Instance() : ProbeManager&amp;</text><ellipse cx="2345" cy="686.8359" fill="#FFFFFF" rx="3" ry="3" style="stroke:#000000;stroke-width:1;"/><text fill="#000000" font-family="Verdana" font-size="14" lengthAdjust="spacing" textLength="179.5527" x="2352" y="690.1826">Record(point, data) : void</text><ellipse cx="2345" cy="703.1328" fill="#FFFFFF" rx="3" ry="3" style="stroke:#000000;stroke-width:1;"/><text fill="#000000" font-family="Verdana" font-size="14" lengthAdjust="spacing" textLength="200.416" x="2352" y="706.4795">SetRecorder(recorder) : void</text></g><!--class Recorder--><g id="elem_Recorder"><rect codeLine="124" fill="#F5F5DC" height="92.8906" id="Recorder" rx="2.5" ry="2.5" style="stroke:#000000;stroke-width:1;" width="165.5176" x="2363" y="798.3906"/><ellipse cx="2410.2012" cy="812.3906" fill="#FFFFFF" rx="9" ry="9" style="stroke:#000000;stroke-width:1;"/><path d="M2413.1699,818.0313 Q2412.5918,818.3281 2411.9512,818.4688 Q2411.3105,818.625 2410.6074,818.625 Q2408.1074,818.625 2406.7793,816.9844 Q2405.4668,815.3281 2405.4668,812.2031 Q2405.4668,809.0781 2406.7793,807.4219 Q2408.1074,805.7656 2410.6074,805.7656 Q2411.3105,805.7656 2411.9512,805.9219 Q2412.6074,806.0781 2413.1699,806.375 L2413.1699,809.0938 Q2412.5449,808.5156 2411.9512,808.25 Q2411.3574,807.9688 2410.7324,807.9688 Q2409.3887,807.9688 2408.7012,809.0469 Q2408.0137,810.1094 2408.0137,812.2031 Q2408.0137,814.2969 2408.7012,815.375 Q2409.3887,816.4375 2410.7324,816.4375 Q2411.3574,816.4375 2411.9512,816.1719 Q2412.5449,815.8906 2413.1699,815.3125 L2413.1699,818.0313 Z " fill="#000000"/><text fill="#000000" font-family="Verdana" font-size="14" lengthAdjust="spacing" textLength="63.6152" x="2427.7012" y="817.2373">Recorder</text><line style="stroke:#000000;stroke-width:1;" x1="2364" x2="2527.5176" y1="826.3906" y2="826.3906"/><rect fill="transparent" height="6" style="stroke:#000000;stroke-width:1;" width="6" x="2371" y="837.0391"/><text fill="#000000" font-family="Verdana" font-size="14" lengthAdjust="spacing" textLength="135.9053" x="2381" y="843.3857">file_ : std::ofstream</text><rect fill="transparent" height="6" style="stroke:#000000;stroke-width:1;" width="6" x="2371" y="853.3359"/><text fill="#000000" font-family="Verdana" font-size="14" lengthAdjust="spacing" textLength="141.5176" x="2381" y="859.6826">mutex_ : std::mutex</text><line style="stroke:#000000;stroke-width:1;" x1="2364" x2="2527.5176" y1="866.9844" y2="866.9844"/><ellipse cx="2374" cy="880.6328" fill="#FFFFFF" rx="3" ry="3" style="stroke:#000000;stroke-width:1;"/><text fill="#000000" font-family="Verdana" font-size="14" lengthAdjust="spacing" textLength="140.4307" x="2381" y="883.9795">Record(entry) : void</text></g><!--reverse link RawSocket to LinuxSocket--><g id="link_RawSocket_LinuxSocket"><path codeLine="103" d="M161.4879,756.4965 C160.5579,779.9865 160.26,787.2406 159.47,807.1306 " fill="transparent" id="RawSocket-backto-LinuxSocket" style="stroke:#000000;stroke-width:1;stroke-dasharray:7.0,7.0;"/><polygon fill="transparent" points="162.2,738.5106,155.4926,756.2592,167.4832,756.7339,162.2,738.5106" style="stroke:#000000;stroke-width:1;"/></g><!--reverse link RawSocket to QnxSocket--><g id="link_RawSocket_QnxSocket"><path codeLine="104" d="M272.0468,749.368 C303.2268,772.948 322.38,787.4506 348.73,807.3706 " fill="transparent" id="RawSocket-backto-QnxSocket" style="stroke:#000000;stroke-width:1;stroke-dasharray:7.0,7.0;"/><polygon fill="transparent" points="257.69,738.5106,268.4277,754.1536,275.6659,744.5824,257.69,738.5106" style="stroke:#000000;stroke-width:1;"/></g><!--reverse link NetworkIdentity to NetworkIdentity--><g id="link_NetworkIdentity_NetworkIdentity"><path codeLine="105" d="M612.1268,640.6726 C632.8768,645.0826 629.5,651.4906 629.5,667.3906 C629.5,683.2906 615.27,693.4406 594.52,697.8506 " fill="transparent" id="NetworkIdentity-backto-NetworkIdentity" style="stroke:#000000;stroke-width:1;stroke-dasharray:7.0,7.0;"/><polygon fill="transparent" points="594.52,636.9306,610.8794,646.5415,613.3741,634.8037,594.52,636.9306" style="stroke:#000000;stroke-width:1;"/></g><!--reverse link PhcAdjuster to PhcConfig--><g id="link_PhcAdjuster_PhcConfig"><path codeLine="106" d="M2135.4937,742.1401 C2132.2937,764.5501 2130.45,777.5406 2127.5,798.2906 " fill="transparent" id="PhcAdjuster-backto-PhcConfig" style="stroke:#000000;stroke-width:1;"/><polygon fill="#000000" points="2137.19,730.2606,2132.382,735.6349,2135.4937,742.1401,2140.3017,736.7658,2137.19,730.2606" style="stroke:#000000;stroke-width:1;"/></g><!--reverse link GptpEngine to RawSocket--><g id="link_GptpEngine_RawSocket"><path codeLine="108" d="M1171.484,394.4113 C961.324,417.8613 612.15,469.5806 320,577.8906 C306.05,583.0606 291.89,589.4006 278.08,596.3006 " fill="transparent" id="GptpEngine-backto-RawSocket" style="stroke:#000000;stroke-width:1;"/><polygon fill="#000000" points="1183.41,393.0806,1177.0034,389.7707,1171.484,394.4113,1177.8906,397.7213,1183.41,393.0806" style="stroke:#000000;stroke-width:1;"/></g><!--reverse link GptpEngine to NetworkIdentity--><g id="link_GptpEngine_NetworkIdentity"><path codeLine="109" d="M1171.6117,416.3247 C1022.0817,450.5047 814.25,504.4806 631,577.8906 C611.69,585.6306 591.72,595.0306 572.63,604.7706 " fill="transparent" id="GptpEngine-backto-NetworkIdentity" style="stroke:#000000;stroke-width:1;"/><polygon fill="#000000" points="1183.31,413.6506,1176.5695,411.0882,1171.6117,416.3247,1178.3522,418.8871,1183.31,413.6506" style="stroke:#000000;stroke-width:1;"/></g><!--reverse link GptpEngine to FrameCodec--><g id="link_GptpEngine_FrameCodec"><path codeLine="110" d="M1172.9909,479.3017 C1076.8909,532.4917 973.61,589.6706 902.85,628.8306 " fill="transparent" id="GptpEngine-backto-FrameCodec" style="stroke:#000000;stroke-width:1;"/><polygon fill="#000000" points="1183.49,473.4906,1176.3034,472.8965,1172.9909,479.3017,1180.1775,479.8959,1183.49,473.4906" style="stroke:#000000;stroke-width:1;"/></g><!--reverse link GptpEngine to GptpMessageParser--><g id="link_GptpEngine_GptpMessageParser"><path codeLine="111" d="M1261.1088,546.8866 C1238.9988,585.6866 1223.64,612.6206 1209.61,637.2406 " fill="transparent" id="GptpEngine-backto-GptpMessageParser" style="stroke:#000000;stroke-width:1;"/><polygon fill="#000000" points="1267.05,536.4606,1260.604,539.6932,1261.1088,546.8866,1267.5547,543.654,1267.05,536.4606" style="stroke:#000000;stroke-width:1;"/></g><!--reverse link GptpEngine to SyncStateMachine--><g id="link_GptpEngine_SyncStateMachine"><path codeLine="112" d="M1455.4675,546.8716 C1469.3675,571.1216 1476.99,584.4006 1488.66,604.7706 " fill="transparent" id="GptpEngine-backto-SyncStateMachine" style="stroke:#000000;stroke-width:1;"/><polygon fill="#000000" points="1449.5,536.4606,1449.0134,543.6553,1455.4675,546.8716,1455.9541,539.6769,1449.5,536.4606" style="stroke:#000000;stroke-width:1;"/></g><!--reverse link GptpEngine to PeerDelayMeasurer--><g id="link_GptpEngine_PeerDelayMeasurer"><path codeLine="113" d="M1543.1824,484.4921 C1597.4824,516.2021 1647.12,545.3406 1702,577.8906 C1711.99,583.8206 1722.35,589.9906 1732.73,596.2006 " fill="transparent" id="GptpEngine-backto-PeerDelayMeasurer" style="stroke:#000000;stroke-width:1;"/><polygon fill="#000000" points="1532.82,478.4406,1535.9841,484.9205,1543.1824,484.4921,1540.0184,478.0122,1532.82,478.4406" style="stroke:#000000;stroke-width:1;"/></g><!--reverse link GptpEngine to PhcAdjuster--><g id="link_GptpEngine_PhcAdjuster"><path codeLine="114" d="M1544.0957,423.4265 C1674.5957,458.6365 1844.31,510.3106 1996,577.8906 C2013.54,585.7006 2031.61,595.0906 2048.86,604.7806 " fill="transparent" id="GptpEngine-backto-PhcAdjuster" style="stroke:#000000;stroke-width:1;"/><polygon fill="#000000" points="1532.51,420.3006,1537.2609,425.7255,1544.0957,423.4265,1539.3448,418.0017,1532.51,420.3006" style="stroke:#000000;stroke-width:1;"/></g><!--link ProbeManager to Recorder--><g id="link_ProbeManager_Recorder"><path codeLine="130" d="M2446,714.0406 C2446,739.9406 2446,766.2506 2446,792.1606 " fill="transparent" id="ProbeManager-to-Recorder" style="stroke:#000000;stroke-width:1;"/><polygon fill="#000000" points="2446,798.1606,2450,789.1606,2446,793.1606,2442,789.1606,2446,798.1606" style="stroke:#000000;stroke-width:1;"/></g><!--reverse link GptpEngine to ProbeManager--><g id="link_GptpEngine_ProbeManager"><path codeLine="133" d="M1544.5465,399.2573 C1736.1965,425.8073 2038.65,479.0306 2294,577.8906 C2322.9,589.0806 2352.78,605.3106 2378.32,620.8206 " fill="transparent" id="GptpEngine-backto-ProbeManager" style="stroke:#000000;stroke-width:1;"/><polygon fill="#000000" points="1532.66,397.6106,1538.0543,402.3961,1544.5465,399.2573,1539.1521,394.4718,1532.66,397.6106" style="stroke:#000000;stroke-width:1;"/></g><!--SRC=[ZLPRRzis57xth-0oe72NkEY0eW-6Qo3r9J7M9AwTOdie8D3KaSs58ZMISk8s-Uyxf1o5afcaUh0byZltwszs0pcGGb0kEntBhG2odb_FoKIkkGGoanQqf8AC13M6Z3bTQvftEWBM85DYLK44PBP3yBd_H4PAA4tg1q_6O9ZcXULAaiPpNz6GmUzV-7fZbrJaIWxTIIYVAGrHehytGEsmFYTphQnYIf12AmR6SBcEIA9Rr1hqy97eV4He-czfR0xIlgZUpUwpA67eY0IrcT8veIjZDMM1QKz4du6l8L1l9X5REYcqxOhx3kfK-RFJAIYxeMiWHyPPtkzRq- -dO2aNveZyx7Z-p8VYhB35tacX1n7qoBX7L65DGle1zif7mWGOVPVOZGQQEg2nAShqdm6aI47GtQimezWDM7TVIlvV2KbXzM11RvV-V1WWUOgEu7RNmbw2lLNwPhQ_3IcOIe4v-1JJ3qRkArIGQWFwqT8B33_wSEuFG_rsaYKcTx0blYun5711sGRTScWiWkO0Ukm-Be2QKZTu5HkML9bJoPrlsEd-CvGeQM4soYPvQU6kzfp_2fbXw35Vang-DsHMi36rD7H3gJKwvrNaCIOSjvmA_WEwRn6qKae4jsFWBzvFkVHtoxqSZzagdWQO1KOVAxM6fAX0Kvqt3SuFLVPorr4ooe3KgK4QDHPay36vGjzqkOD7j9n8kX9mVdlDSp2MvWKwCMRD0jYskogp4s8HgKgCXt4mTxu0KmeRW9SOZ0eiG4QOdO6TfbuAMXASZuGoqFJJGrYlHxMvt-LWy8NBycuuF2BK4F_-YYTEfydyTFJNvDffU9LSpouco-lJY_diykmrKLyl_zaB-YfV4uDOekbjhofbOZOyZyUkLQelH10ThCGMdWqY-XDTnsfMteMDaoOOAzP3yFyqJJNM-g43VbMxCMY-1KCctsQzZnz8fbLEBav7tp7b9FOEQyZxk-dK_KpU7afvQaMa6aSDkttxcU1urHBiETOAQ9TMJlNcQK231XrId93KOCPITaACPkxb-IGxQ7_FQjOjw4uecleqFo6vMITO6B62hJYtE-OXurvTNSY4MfLpDd2yXc4vIyUdYz8Y3ULAJfKGwlPRyGXGVbfHCN1KLQM6t6RckfBOZUVL9GxXpKhf1QgzS7FNur9LOjSujF2WtSTCVBcHQw-YdmUUKxIvB03ddR7TgiQYVa2w0gSqFEkeHq3ROIqW-g1ImHj-e5FJ_AS9Hkf5gM4xozRxKJTICkFhrZZC_6hGR8epK_NeD1QXIjnLbXcmNUN_4caYPbJ0gNQEaspNrHZFHBk0nYh1BLhCFgaPjUQOGANONYtoYMHK60W0AMmvTZeNQes39RX17nL-6yAv9rBKkRBxuuV48fy_t- -VKAcdMJUuV_SkRFcnwxfH-yjsD_EGrg47XY7yezSB8kMlWutHtTOoOvSnzYr8QnDhtSONiHOekeQrCF4jh0qArg-7-1QzHef-dzTx-D4-6_RPhzKAjP18XUdlj_T6jlmqRd5d3twHfv9LapwaUjDSE9HEkuN2hC3sZQjG9AkNhZWT3jkythyytzaVeOVAzKZ61TGzIMLe8T3y5vjMhIowHEzYyXkkwVM6jIhEq-qu1DZE_m00]--></g></svg>