<svg xmlns="http://www.w3.org/2000/svg" xmlns:xlink="http://www.w3.org/1999/xlink" contentStyleType="text/css" data-diagram-type="SEQUENCE" height="775px" preserveAspectRatio="none" style="width:1128px;height:775px;background:#FFFFFF;" version="1.1" viewBox="0 0 1128 775" width="1128px" zoomAndPan="magnify"><title>VerificationMachine: Validation Workflow</title><defs/><g><text fill="#000000" font-family="sans-serif" font-size="14" font-weight="bold" lengthAdjust="spacing" textLength="328.1387" x="398.9558" y="27.9951">VerificationMachine: Validation Workflow</text><g><title>MessageBroker</title><rect fill="#FFFFFF" height="525.3906" style="stroke:#181818;stroke-width:1;" width="10" x="325.9141" y="225.2109"/></g><g><title>VerificationMachine</title><rect fill="#FFFFFF" height="366.7266" style="stroke:#181818;stroke-width:1;" width="10" x="655.7349" y="254.3438"/></g><g><title>Validator Pipeline</title><rect fill="#FFFFFF" height="266.3281" style="stroke:#181818;stroke-width:1;" width="10" x="817.5713" y="283.4766"/></g><g><title>IPCPublisher</title><rect fill="#FFFFFF" height="29.1328" style="stroke:#181818;stroke-width:1;" width="10" x="1066.6182" y="692.3359"/></g><g><title>ControlFlowDivider</title><rect fill="transparent" height="574.5234" width="8" x="74.4863" y="194.0781"/><line style="stroke:#181818;stroke-width:0.5;stroke-dasharray:5.0,5.0;" x1="78" x2="78" y1="194.0781" y2="768.6016"/></g><g><title>MessageBroker</title><rect fill="transparent" height="574.5234" width="8" x="326.9141" y="194.0781"/><line style="stroke:#181818;stroke-width:0.5;stroke-dasharray:5.0,5.0;" x1="330.0332" x2="330.0332" y1="194.0781" y2="768.6016"/></g><g><title>VerificationMachine</title><rect fill="transparent" height="574.5234" width="8" x="656.7349" y="194.0781"/><line style="stroke:#181818;stroke-width:0.5;stroke-dasharray:5.0,5.0;" x1="660.5586" x2="660.5586" y1="194.0781" y2="768.6016"/></g><g><title>Validator Pipeline</title><rect fill="transparent" height="574.5234" width="8" x="818.5713" y="194.0781"/><line style="stroke:#181818;stroke-width:0.5;stroke-dasharray:5.0,5.0;" x1="822.1914" x2="822.1914" y1="194.0781" y2="768.6016"/></g><g><title>IPCPublisher</title><rect fill="transparent" height="574.5234" width="8" x="1067.6182" y="194.0781"/><line style="stroke:#181818;stroke-width:0.5;stroke-dasharray:5.0,5.0;" x1="1071.186" x2="1071.186" y1="194.0781" y2="768.6016"/></g><rect fill="#ADD8E6" height="30.2969" rx="2.5" ry="2.5" style="stroke:#181818;stroke-width:0.5;" width="146.9727" x="5" y="162.7813"/><text fill="#000000" font-family="sans-serif" font-size="14" lengthAdjust="spacing" textLength="132.9727" x="12" y="182.7764">ControlFlowDivider</text><rect fill="#AFEEEE" height="30.2969" rx="2.5" ry="2.5" style="stroke:#181818;stroke-width:0.5;" width="121.7617" x="270.0332" y="162.7813"/><text fill="#000000" font-family="sans-serif" font-size="14" lengthAdjust="spacing" textLength="107.7617" x="277.0332" y="182.7764">MessageBroker</text><rect fill="#E6E6FA" height="30.2969" rx="2.5" ry="2.5" style="stroke:#181818;stroke-width:0.5;" width="152.3525" x="584.5586" y="162.7813"/><text fill="#000000" font-family="sans-serif" font-size="14" lengthAdjust="spacing" textLength="138.3525" x="591.5586" y="182.7764">VerificationMachine</text><rect fill="#E6E6FA" height="30.2969" rx="2.5" ry="2.5" style="stroke:#181818;stroke-width:0.5;" width="136.7598" x="754.1914" y="162.7813"/><text fill="#000000" font-family="sans-serif" font-size="14" lengthAdjust="spacing" textLength="122.7598" x="761.1914" y="182.7764">Validator Pipeline</text><rect fill="#FFB6C1" height="30.2969" rx="2.5" ry="2.5" style="stroke:#181818;stroke-width:0.5;" width="100.8643" x="1021.186" y="162.7813"/><text fill="#000000" font-family="sans-serif" font-size="14" lengthAdjust="spacing" textLength="86.8643" x="1028.186" y="182.7764">IPCPublisher</text><g><title>MessageBroker</title><rect fill="#FFFFFF" height="525.3906" style="stroke:#181818;stroke-width:1;" width="10" x="325.9141" y="225.2109"/></g><g><title>VerificationMachine</title><rect fill="#FFFFFF" height="366.7266" style="stroke:#181818;stroke-width:1;" width="10" x="655.7349" y="254.3438"/></g><g><title>Validator Pipeline</title><rect fill="#FFFFFF" height="266.3281" style="stroke:#181818;stroke-width:1;" width="10" x="817.5713" y="283.4766"/></g><g><title>IPCPublisher</title><rect fill="#FFFFFF" height="29.1328" style="stroke:#181818;stroke-width:1;" width="10" x="1066.6182" y="692.3359"/></g><polygon fill="#181818" points="313.9141,221.2109,323.9141,225.2109,313.9141,229.2109,317.9141,225.2109" style="stroke:#181818;stroke-width:1;"/><line style="stroke:#181818;stroke-width:1;" x1="78.4863" x2="319.9141" y1="225.2109" y2="225.2109"/><text fill="#FF0000" font-family="sans-serif" font-size="13" font-weight="bold" lengthAdjust="spacing" textLength="29.9736" x="85.4863" y="220.145">[01]</text><text fill="#000000" font-family="sans-serif" font-size="13" lengthAdjust="spacing" textLength="194.4541" x="119.46" y="220.145">publish("raw_ptp_data", data)</text><polygon fill="#181818" points="643.7349,250.3438,653.7349,254.3438,643.7349,258.3438,647.7349,254.3438" style="stroke:#181818;stroke-width:1;"/><line style="stroke:#181818;stroke-width:1;" x1="335.9141" x2="649.7349" y1="254.3438" y2="254.3438"/><text fill="#FF0000" font-family="sans-serif" font-size="13" font-weight="bold" lengthAdjust="spacing" textLength="29.9736" x="342.9141" y="249.2778">[02]</text><text fill="#000000" font-family="sans-serif" font-size="13" lengthAdjust="spacing" textLength="114.8735" x="376.8877" y="249.2778">OnMessage(data)</text><polygon fill="#181818" points="805.5713,279.4766,815.5713,283.4766,805.5713,287.4766,809.5713,283.4766" style="stroke:#181818;stroke-width:1;"/><line style="stroke:#181818;stroke-width:1;" x1="665.7349" x2="811.5713" y1="283.4766" y2="283.4766"/><text fill="#FF0000" font-family="sans-serif" font-size="13" font-weight="bold" lengthAdjust="spacing" textLength="29.9736" x="672.7349" y="278.4106">[03]</text><text fill="#000000" font-family="sans-serif" font-size="13" lengthAdjust="spacing" textLength="89.2544" x="706.7085" y="278.4106">Process(data)</text><path d="M832,296.4766 L832,396.4766 L1048,396.4766 L1048,306.4766 L1038,296.4766 L832,296.4766 " fill="#FEFFDD" style="stroke:#181818;stroke-width:0.5;"/><path d="M1038,296.4766 L1038,306.4766 L1048,306.4766 L1038,296.4766 " fill="#FEFFDD" style="stroke:#181818;stroke-width:0.5;"/><text fill="#000000" font-family="sans-serif" font-size="13" lengthAdjust="spacing" textLength="152.8198" x="838" y="313.5435">Chain of Responsibility:</text><text fill="#000000" font-family="sans-serif" font-size="13" lengthAdjust="spacing" textLength="195.7554" x="838" y="328.6763">Each validator processes data</text><text fill="#000000" font-family="sans-serif" font-size="13" lengthAdjust="spacing" textLength="168.0669" x="838" y="343.8091">and passes to next stage:</text><text fill="#000000" font-family="sans-serif" font-size="13" lengthAdjust="spacing" textLength="179.645" x="838" y="358.9419">1. SynchronizationValidator</text><text fill="#000000" font-family="sans-serif" font-size="13" lengthAdjust="spacing" textLength="128.7368" x="838" y="374.0747">2. TimeoutValidator</text><text fill="#000000" font-family="sans-serif" font-size="13" lengthAdjust="spacing" textLength="147.2085" x="838" y="389.2075">3. TimeJumpsValidator</text><line style="stroke:#181818;stroke-width:1;" x1="827.5713" x2="869.5713" y1="423.4063" y2="423.4063"/><line style="stroke:#181818;stroke-width:1;" x1="869.5713" x2="869.5713" y1="423.4063" y2="436.4063"/><line style="stroke:#181818;stroke-width:1;" x1="828.5713" x2="869.5713" y1="436.4063" y2="436.4063"/><polygon fill="#181818" points="838.5713,432.4063,828.5713,436.4063,838.5713,440.4063,834.5713,436.4063" style="stroke:#181818;stroke-width:1;"/><text fill="#FF0000" font-family="sans-serif" font-size="13" font-weight="bold" lengthAdjust="spacing" textLength="29.9736" x="834.5713" y="418.3403">[04]</text><text fill="#000000" font-family="sans-serif" font-size="13" lengthAdjust="spacing" textLength="181.0732" x="868.5449" y="418.3403">Stage 1: DoValidation(data)</text><line style="stroke:#181818;stroke-width:1;" x1="827.5713" x2="869.5713" y1="465.5391" y2="465.5391"/><line style="stroke:#181818;stroke-width:1;" x1="869.5713" x2="869.5713" y1="465.5391" y2="478.5391"/><line style="stroke:#181818;stroke-width:1;" x1="828.5713" x2="869.5713" y1="478.5391" y2="478.5391"/><polygon fill="#181818" points="838.5713,474.5391,828.5713,478.5391,838.5713,482.5391,834.5713,478.5391" style="stroke:#181818;stroke-width:1;"/><text fill="#FF0000" font-family="sans-serif" font-size="13" font-weight="bold" lengthAdjust="spacing" textLength="29.9736" x="834.5713" y="460.4731">[05]</text><text fill="#000000" font-family="sans-serif" font-size="13" lengthAdjust="spacing" textLength="181.0732" x="868.5449" y="460.4731">Stage 2: DoValidation(data)</text><line style="stroke:#181818;stroke-width:1;" x1="827.5713" x2="869.5713" y1="507.6719" y2="507.6719"/><line style="stroke:#181818;stroke-width:1;" x1="869.5713" x2="869.5713" y1="507.6719" y2="520.6719"/><line style="stroke:#181818;stroke-width:1;" x1="828.5713" x2="869.5713" y1="520.6719" y2="520.6719"/><polygon fill="#181818" points="838.5713,516.6719,828.5713,520.6719,838.5713,524.6719,834.5713,520.6719" style="stroke:#181818;stroke-width:1;"/><text fill="#FF0000" font-family="sans-serif" font-size="13" font-weight="bold" lengthAdjust="spacing" textLength="29.9736" x="834.5713" y="502.606">[06]</text><text fill="#000000" font-family="sans-serif" font-size="13" lengthAdjust="spacing" textLength="181.0732" x="868.5449" y="502.606">Stage 3: DoValidation(data)</text><polygon fill="#181818" points="676.7349,545.8047,666.7349,549.8047,676.7349,553.8047,672.7349,549.8047" style="stroke:#181818;stroke-width:1;"/><line style="stroke:#181818;stroke-width:1;stroke-dasharray:2.0,2.0;" x1="670.7349" x2="821.5713" y1="549.8047" y2="549.8047"/><text fill="#FF0000" font-family="sans-serif" font-size="13" font-weight="bold" lengthAdjust="spacing" textLength="29.9736" x="682.7349" y="544.7388">[07]</text><text fill="#000000" font-family="sans-serif" font-size="13" lengthAdjust="spacing" textLength="93.8628" x="716.7085" y="544.7388">validated data</text><line style="stroke:#181818;stroke-width:1;" x1="665.7349" x2="707.7349" y1="578.9375" y2="578.9375"/><line style="stroke:#181818;stroke-width:1;" x1="707.7349" x2="707.7349" y1="578.9375" y2="591.9375"/><line style="stroke:#181818;stroke-width:1;" x1="666.7349" x2="707.7349" y1="591.9375" y2="591.9375"/><polygon fill="#181818" points="676.7349,587.9375,666.7349,591.9375,676.7349,595.9375,672.7349,591.9375" style="stroke:#181818;stroke-width:1;"/><text fill="#FF0000" font-family="sans-serif" font-size="13" font-weight="bold" lengthAdjust="spacing" textLength="29.9736" x="672.7349" y="573.8716">[08]</text><text fill="#000000" font-family="sans-serif" font-size="13" lengthAdjust="spacing" textLength="85.9917" x="706.7085" y="573.8716">Publish(data)</text><polygon fill="#181818" points="346.9141,617.0703,336.9141,621.0703,346.9141,625.0703,342.9141,621.0703" style="stroke:#181818;stroke-width:1;"/><line style="stroke:#181818;stroke-width:1;" x1="340.9141" x2="659.7349" y1="621.0703" y2="621.0703"/><text fill="#FF0000" font-family="sans-serif" font-size="13" font-weight="bold" lengthAdjust="spacing" textLength="29.9736" x="352.9141" y="616.0044">[09]</text><text fill="#000000" font-family="sans-serif" font-size="13" lengthAdjust="spacing" textLength="152.6357" x="386.8877" y="616.0044">publish_callback_(data)</text><line style="stroke:#181818;stroke-width:1;" x1="335.9141" x2="377.9141" y1="650.2031" y2="650.2031"/><line style="stroke:#181818;stroke-width:1;" x1="377.9141" x2="377.9141" y1="650.2031" y2="663.2031"/><line style="stroke:#181818;stroke-width:1;" x1="336.9141" x2="377.9141" y1="663.2031" y2="663.2031"/><polygon fill="#181818" points="346.9141,659.2031,336.9141,663.2031,346.9141,667.2031,342.9141,663.2031" style="stroke:#181818;stroke-width:1;"/><text fill="#FF0000" font-family="sans-serif" font-size="13" font-weight="bold" lengthAdjust="spacing" textLength="29.9736" x="342.9141" y="645.1372">[10]</text><text fill="#000000" font-family="sans-serif" font-size="13" lengthAdjust="spacing" textLength="261.8472" x="376.8877" y="645.1372">OnNewData("validated_ptp_data", data)</text><polygon fill="#181818" points="1054.6182,688.3359,1064.6182,692.3359,1054.6182,696.3359,1058.6182,692.3359" style="stroke:#181818;stroke-width:1;"/><line style="stroke:#181818;stroke-width:1;" x1="335.9141" x2="1060.6182" y1="692.3359" y2="692.3359"/><text fill="#FF0000" font-family="sans-serif" font-size="13" font-weight="bold" lengthAdjust="spacing" textLength="29.9736" x="342.9141" y="687.27">[11]</text><text fill="#000000" font-family="sans-serif" font-size="13" lengthAdjust="spacing" textLength="182.584" x="376.8877" y="687.27">subscription.callback_(data)</text><polygon fill="#181818" points="346.9141,717.4688,336.9141,721.4688,346.9141,725.4688,342.9141,721.4688" style="stroke:#181818;stroke-width:1;"/><line style="stroke:#181818;stroke-width:1;stroke-dasharray:2.0,2.0;" x1="340.9141" x2="1070.6182" y1="721.4688" y2="721.4688"/><text fill="#FF0000" font-family="sans-serif" font-size="13" font-weight="bold" lengthAdjust="spacing" textLength="29.9736" x="352.9141" y="716.4028">[12]</text><text fill="#000000" font-family="sans-serif" font-size="13" lengthAdjust="spacing" textLength="4.1323" x="386.8877" y="716.4028">&#160;</text><polygon fill="#181818" points="89.4863,746.6016,79.4863,750.6016,89.4863,754.6016,85.4863,750.6016" style="stroke:#181818;stroke-width:1;"/><line style="stroke:#181818;stroke-width:1;stroke-dasharray:2.0,2.0;" x1="83.4863" x2="329.9141" y1="750.6016" y2="750.6016"/><text fill="#FF0000" font-family="sans-serif" font-size="13" font-weight="bold" lengthAdjust="spacing" textLength="29.9736" x="95.4863" y="745.5356">[13]</text><text fill="#000000" font-family="sans-serif" font-size="13" lengthAdjust="spacing" textLength="4.1323" x="129.46" y="745.5356">&#160;</text><rect fill="#DDDDDD" height="95.4844" id="_legend" rx="7.5" ry="7.5" style="stroke:#000000;stroke-width:1;" width="291.2852" x="12" y="54.2969"/><text fill="#000000" font-family="sans-serif" font-size="14" font-weight="bold" lengthAdjust="spacing" textLength="41.2139" x="21.874" y="74.292">Color</text><text fill="#000000" font-family="sans-serif" font-size="14" font-weight="bold" lengthAdjust="spacing" textLength="90.5488" x="106.9541" y="74.292">Description</text><rect fill="#AFEEEE" height="16.2969" style="stroke:transparent;stroke-width:1;" width="85.0801" x="17" y="77.5938"/><text fill="#000000" font-family="sans-serif" font-size="14" lengthAdjust="spacing" textLength="4.4502" x="17" y="90.5889">&#160;</text><text fill="#000000" font-family="sans-serif" font-size="14" lengthAdjust="spacing" textLength="107.7617" x="106.5303" y="90.5889">MessageBroker</text><rect fill="#ADD8E6" height="16.2969" style="stroke:transparent;stroke-width:1;" width="85.0801" x="17" y="93.8906"/><text fill="#000000" font-family="sans-serif" font-size="14" lengthAdjust="spacing" textLength="13.3506" x="17" y="106.8857">&#160;&#160;&#160;</text><text fill="#000000" font-family="sans-serif" font-size="14" lengthAdjust="spacing" textLength="132.9727" x="106.5303" y="106.8857">ControlFlowDivider</text><rect fill="#E6E6FA" height="16.2969" style="stroke:transparent;stroke-width:1;" width="85.0801" x="17" y="110.1875"/><text fill="#000000" font-family="sans-serif" font-size="14" lengthAdjust="spacing" textLength="17.8008" x="17" y="123.1826">&#160;&#160;&#160;&#160;</text><text fill="#000000" font-family="sans-serif" font-size="14" lengthAdjust="spacing" textLength="138.3525" x="106.5303" y="123.1826">VerificationMachine</text><rect fill="#FFB6C1" height="16.2969" style="stroke:transparent;stroke-width:1;" width="85.0801" x="17" y="126.4844"/><text fill="#000000" font-family="sans-serif" font-size="14" lengthAdjust="spacing" textLength="13.3506" x="17" y="139.4795">&#160;&#160;&#160;</text><text fill="#000000" font-family="sans-serif" font-size="14" lengthAdjust="spacing" textLength="113.292" x="106.5303" y="139.4795">IPC components</text><line style="stroke:#000000;stroke-width:1;" x1="17" x2="298.2852" y1="61.2969" y2="61.2969"/><line style="stroke:#000000;stroke-width:1;" x1="17" x2="298.2852" y1="77.5938" y2="77.5938"/><line style="stroke:#000000;stroke-width:1;" x1="17" x2="298.2852" y1="93.8906" y2="93.8906"/><line style="stroke:#000000;stroke-width:1;" x1="17" x2="298.2852" y1="110.1875" y2="110.1875"/><line style="stroke:#000000;stroke-width:1;" x1="17" x2="298.2852" y1="126.4844" y2="126.4844"/><line style="stroke:#000000;stroke-width:1;" x1="17" x2="298.2852" y1="142.7813" y2="142.7813"/><line style="stroke:#000000;stroke-width:1;" x1="17" x2="17" y1="61.2969" y2="142.7813"/><line style="stroke:#000000;stroke-width:1;" x1="102.0801" x2="102.0801" y1="61.2969" y2="142.7813"/><line style="stroke:#000000;stroke-width:1;" x1="298.2852" x2="298.2852" y1="61.2969" y2="142.7813"/><!--SRC=[bLJBRjim4BppAnRgnGKQ8u-RuFWGkmLQD8tH1EcXA0nAMjc4QP8bAJifyl5TIhHa-L6Wl0XSxknmPfVomak4PxIY53dtGgjxdY-5mXIUkHH57O8VsgvAgRUCBKM1K6hjC_t26A-yLjKwGml9gDJAGwwbjhSMY_4e6_-ylFoLC2PnWQe0hmr8B3q3Mc-tC0cf41Vjf-XoAqnDUBpU6jZetOnBVAhixqeBXsDuWtjqZY_mpkeLshEmhsAnz7Uo8WZjYLnvg-Kd4ZKL6n9bpy3uXkwETbplJnbrdcqcrAfX-poRa3DhenKgxqve8ux69SOCjrxamd1oCpc-PWBSGLuMq2dgGtfsrDbPuqpVkJxeXAuQkWdn-JegRTqu03U3GisS2ODoXpLnSmv6fiogJ0gtZFSK9eVEESQ2oelnxlefc2Pxa5Y-dHjlvaJAamyGFkyPpxtOS8yndqKO5UYBIE51HOy61yXU8cDz71Lg5QKmipgd8eSLTXbCQThPe0LqsOL3joTBBbI8VaT74-549gJmhsbz-97OODCQQXeQTBN8EeFJKpAyZdaD2byyE4zY6lpL41vVLRwqMea_TJlRxjJdrqDu4clKbU_7RvhubsfjN7SIdcrGGbEvazwtuJ4mmrKAKztzBg8f_uHS_p_avYHa3tEYrT59B1h_2Zpkr76R3ul4AOs4H-c7ypdFkPGPprVpYDXZxKzODw9jZGVr3RTJWWsIzkx7izu1mvj9mLLP- -yS7jAtv9JBGlv5IxX_jN2wgqi9zFZsJsF-Nm00]--></g></svg>