<svg xmlns="http://www.w3.org/2000/svg" xmlns:xlink="http://www.w3.org/1999/xlink" contentStyleType="text/css" data-diagram-type="CLASS" height="822px" preserveAspectRatio="none" style="width:1313px;height:822px;background:#FFFFFF;" version="1.1" viewBox="0 0 1313 822" width="1313px" zoomAndPan="magnify"><title>libTSClient Shared Memory IPC</title><defs/><g><text fill="#000000" font-family="Verdana" font-size="22" font-weight="bold" lengthAdjust="spacing" textLength="385.3545" x="459.3237" y="35.4209">libTSClient Shared Memory IPC</text><rect fill="transparent" height="79.1875" id="_legend" rx="7.5" ry="7.5" style="stroke:#000000;stroke-width:1;" width="302.3115" x="10" y="56.6094"/><text fill="#000000" font-family="Verdana" font-size="14" font-weight="bold" lengthAdjust="spacing" textLength="41.2139" x="19.874" y="76.6045">Color</text><text fill="#000000" font-family="Verdana" font-size="14" font-weight="bold" lengthAdjust="spacing" textLength="90.5488" x="114.7021" y="76.6045">Description</text><rect fill="#FFB6C1" height="16.2969" style="stroke:transparent;stroke-width:1;" width="94.8281" x="15" y="79.9063"/><text fill="#000000" font-family="Verdana" font-size="14" lengthAdjust="spacing" textLength="17.8008" x="15" y="92.9014">&#160;&#160;&#160;&#160;</text><text fill="#000000" font-family="Verdana" font-size="14" lengthAdjust="spacing" textLength="113.292" x="114.2783" y="92.9014">IPC components</text><rect fill="#E0FFFF" height="16.2969" style="stroke:transparent;stroke-width:1;" width="94.8281" x="15" y="96.2031"/><text fill="#000000" font-family="Verdana" font-size="14" lengthAdjust="spacing" textLength="17.8008" x="15" y="109.1982">&#160;&#160;&#160;&#160;</text><text fill="#000000" font-family="Verdana" font-size="14" lengthAdjust="spacing" textLength="161.5742" x="114.2783" y="109.1982">Shared memory region</text><rect fill="#FFA07A" height="16.2969" style="stroke:transparent;stroke-width:1;" width="94.8281" x="15" y="112.5"/><text fill="#000000" font-family="Verdana" font-size="14" lengthAdjust="spacing" textLength="8.9004" x="15" y="125.4951">&#160;&#160;</text><text fill="#000000" font-family="Verdana" font-size="14" lengthAdjust="spacing" textLength="152.9814" x="114.2783" y="125.4951">TimeDaemon adapter</text><line style="stroke:#000000;stroke-width:1;" x1="15" x2="307.3115" y1="63.6094" y2="63.6094"/><line style="stroke:#000000;stroke-width:1;" x1="15" x2="307.3115" y1="79.9063" y2="79.9063"/><line style="stroke:#000000;stroke-width:1;" x1="15" x2="307.3115" y1="96.2031" y2="96.2031"/><line style="stroke:#000000;stroke-width:1;" x1="15" x2="307.3115" y1="112.5" y2="112.5"/><line style="stroke:#000000;stroke-width:1;" x1="15" x2="307.3115" y1="128.7969" y2="128.7969"/><line style="stroke:#000000;stroke-width:1;" x1="15" x2="15" y1="63.6094" y2="128.7969"/><line style="stroke:#000000;stroke-width:1;" x1="109.8281" x2="109.8281" y1="63.6094" y2="128.7969"/><line style="stroke:#000000;stroke-width:1;" x1="307.3115" x2="307.3115" y1="63.6094" y2="128.7969"/><!--cluster TimeSlave Process--><g id="cluster_TimeSlave Process"><path d="M13.5,370.7969 L161.999,370.7969 A3.75,3.75 0 0 1 164.499,373.2969 L171.499,393.0938 L302.5,393.0938 A2.5,2.5 0 0 1 305,395.5938 L305,544.2969 A2.5,2.5 0 0 1 302.5,546.7969 L13.5,546.7969 A2.5,2.5 0 0 1 11,544.2969 L11,373.2969 A2.5,2.5 0 0 1 13.5,370.7969 " fill="#FFFFFF" style="stroke:#000000;stroke-width:1;"/><line style="stroke:#000000;stroke-width:1;" x1="11" x2="171.499" y1="393.0938" y2="393.0938"/><text fill="#000000" font-family="Verdana" font-size="14" font-weight="bold" lengthAdjust="spacing" textLength="147.499" x="15" y="385.792">TimeSlave Process</text></g><!--cluster Shared Memory--><g id="cluster_Shared Memory"><path d="M81.5,610.7969 L206.9551,610.7969 A3.75,3.75 0 0 1 209.4551,613.2969 L216.4551,633.0938 L426.5,633.0938 A2.5,2.5 0 0 1 429,635.5938 L429,813.2969 A2.5,2.5 0 0 1 426.5,815.7969 L81.5,815.7969 A2.5,2.5 0 0 1 79,813.2969 L79,613.2969 A2.5,2.5 0 0 1 81.5,610.7969 " fill="#FFFFFF" style="stroke:#000000;stroke-width:1;"/><line style="stroke:#000000;stroke-width:1;" x1="79" x2="216.4551" y1="633.0938" y2="633.0938"/><text fill="#000000" font-family="Verdana" font-size="14" font-weight="bold" lengthAdjust="spacing" textLength="124.4551" x="83" y="625.792">Shared Memory</text></g><!--cluster TimeDaemon Process--><g id="cluster_TimeDaemon Process"><path d="M331.5,147.7969 L501.7852,147.7969 A3.75,3.75 0 0 1 504.2852,150.2969 L511.2852,170.0938 L698.5,170.0938 A2.5,2.5 0 0 1 701,172.5938 L701,544.2969 A2.5,2.5 0 0 1 698.5,546.7969 L331.5,546.7969 A2.5,2.5 0 0 1 329,544.2969 L329,150.2969 A2.5,2.5 0 0 1 331.5,147.7969 " fill="#FFFFFF" style="stroke:#000000;stroke-width:1;"/><line style="stroke:#000000;stroke-width:1;" x1="329" x2="511.2852" y1="170.0938" y2="170.0938"/><text fill="#000000" font-family="Verdana" font-size="14" font-weight="bold" lengthAdjust="spacing" textLength="169.2852" x="333" y="162.792">TimeDaemon Process</text></g><!--class GptpIpcPublisher--><g id="elem_GptpIpcPublisher"><rect codeLine="13" fill="#FFB6C1" height="125.4844" id="GptpIpcPublisher" rx="2.5" ry="2.5" style="stroke:#000000;stroke-width:1;" width="261.7197" x="27" y="405.7969"/><ellipse cx="94.439" cy="419.7969" fill="#FFFFFF" rx="9" ry="9" style="stroke:#000000;stroke-width:1;"/><path d="M97.4077,425.4375 Q96.8296,425.7344 96.189,425.875 Q95.5483,426.0313 94.8452,426.0313 Q92.3452,426.0313 91.0171,424.3906 Q89.7046,422.7344 89.7046,419.6094 Q89.7046,416.4844 91.0171,414.8281 Q92.3452,413.1719 94.8452,413.1719 Q95.5483,413.1719 96.189,413.3281 Q96.8452,413.4844 97.4077,413.7813 L97.4077,416.5 Q96.7827,415.9219 96.189,415.6563 Q95.5952,415.375 94.9702,415.375 Q93.6265,415.375 92.939,416.4531 Q92.2515,417.5156 92.2515,419.6094 Q92.2515,421.7031 92.939,422.7813 Q93.6265,423.8438 94.9702,423.8438 Q95.5952,423.8438 96.189,423.5781 Q96.7827,423.2969 97.4077,422.7188 L97.4077,425.4375 Z " fill="#000000"/><text fill="#000000" font-family="Verdana" font-size="14" lengthAdjust="spacing" textLength="119.3418" x="111.939" y="424.6436">GptpIpcPublisher</text><line style="stroke:#000000;stroke-width:1;" x1="28" x2="287.7197" y1="433.7969" y2="433.7969"/><rect fill="transparent" height="6" style="stroke:#000000;stroke-width:1;" width="6" x="35" y="444.4453"/><text fill="#000000" font-family="Verdana" font-size="14" lengthAdjust="spacing" textLength="175.5811" x="45" y="450.792">region_ : GptpIpcRegion*</text><rect fill="transparent" height="6" style="stroke:#000000;stroke-width:1;" width="6" x="35" y="460.7422"/><text fill="#000000" font-family="Verdana" font-size="14" lengthAdjust="spacing" textLength="89.4893" x="45" y="467.0889">shm_fd_ : int</text><line style="stroke:#000000;stroke-width:1;" x1="28" x2="287.7197" y1="474.3906" y2="474.3906"/><ellipse cx="38" cy="488.0391" fill="#FFFFFF" rx="3" ry="3" style="stroke:#000000;stroke-width:1;"/><text fill="#000000" font-family="Verdana" font-size="14" lengthAdjust="spacing" textLength="116.5322" x="45" y="491.3857">Init(name) : bool</text><ellipse cx="38" cy="504.3359" fill="#FFFFFF" rx="3" ry="3" style="stroke:#000000;stroke-width:1;"/><text fill="#000000" font-family="Verdana" font-size="14" lengthAdjust="spacing" textLength="237.7197" x="45" y="507.6826">Publish(data : GptpIpcData) : void</text><ellipse cx="38" cy="520.6328" fill="#FFFFFF" rx="3" ry="3" style="stroke:#000000;stroke-width:1;"/><text fill="#000000" font-family="Verdana" font-size="14" lengthAdjust="spacing" textLength="108.9512" x="45" y="523.9795">Destroy() : void</text></g><!--class GptpIpcRegion--><g id="elem_GptpIpcRegion"><rect codeLine="23" fill="#E0FFFF" height="154.0469" id="GptpIpcRegion" rx="2.5" ry="2.5" style="stroke:#000000;stroke-width:1;" width="318.1367" x="95" y="645.7969"/><ellipse cx="198.6284" cy="665.9297" fill="#FFFFFF" rx="9" ry="9" style="stroke:#000000;stroke-width:1;"/><path d="M201.5972,671.5703 Q201.019,671.8672 200.3784,672.0078 Q199.7378,672.1641 199.0347,672.1641 Q196.5347,672.1641 195.2065,670.5234 Q193.894,668.8672 193.894,665.7422 Q193.894,662.6172 195.2065,660.9609 Q196.5347,659.3047 199.0347,659.3047 Q199.7378,659.3047 200.3784,659.4609 Q201.0347,659.6172 201.5972,659.9141 L201.5972,662.6328 Q200.9722,662.0547 200.3784,661.7891 Q199.7847,661.5078 199.1597,661.5078 Q197.8159,661.5078 197.1284,662.5859 Q196.4409,663.6484 196.4409,665.7422 Q196.4409,667.8359 197.1284,668.9141 Q197.8159,669.9766 199.1597,669.9766 Q199.7847,669.9766 200.3784,669.7109 Q200.9722,669.4297 201.5972,668.8516 L201.5972,671.5703 Z " fill="#000000"/><text fill="#000000" font-family="Verdana" font-size="12" font-style="italic" lengthAdjust="spacing" textLength="83.6895" x="225.9736" y="661.9355">&#171;aligned(64)&#187;</text><text fill="#000000" font-family="Verdana" font-size="14" lengthAdjust="spacing" textLength="103.3799" x="216.1284" y="677.7607">GptpIpcRegion</text><line style="stroke:#000000;stroke-width:1;" x1="96" x2="412.1367" y1="686.0625" y2="686.0625"/><ellipse cx="106" cy="699.7109" fill="transparent" rx="3" ry="3" style="stroke:#000000;stroke-width:1;"/><text fill="#000000" font-family="Verdana" font-size="14" lengthAdjust="spacing" textLength="294.1367" x="113" y="703.0576">magic : atomic&lt;uint32_t&gt; = 0x47505450</text><ellipse cx="106" cy="716.0078" fill="transparent" rx="3" ry="3" style="stroke:#000000;stroke-width:1;"/><text fill="#000000" font-family="Verdana" font-size="14" lengthAdjust="spacing" textLength="167.1592" x="113" y="719.3545">seq : atomic&lt;uint32_t&gt;</text><ellipse cx="106" cy="732.3047" fill="transparent" rx="3" ry="3" style="stroke:#000000;stroke-width:1;"/><text fill="#000000" font-family="Verdana" font-size="14" lengthAdjust="spacing" textLength="133.4033" x="113" y="735.6514">data : GptpIpcData</text><ellipse cx="106" cy="748.6016" fill="transparent" rx="3" ry="3" style="stroke:#000000;stroke-width:1;"/><text fill="#000000" font-family="Verdana" font-size="14" lengthAdjust="spacing" textLength="227.5068" x="113" y="751.9482">seq_confirm : atomic&lt;uint32_t&gt;</text><line style="stroke:#000000;stroke-width:1;" x1="96" x2="412.1367" y1="759.25" y2="759.25"/><text fill="#000000" font-family="Verdana" font-size="14" lengthAdjust="spacing" textLength="133.9092" x="101" y="776.2451">64-byte aligned for</text><text fill="#000000" font-family="Verdana" font-size="14" lengthAdjust="spacing" textLength="143.042" x="101" y="792.542">cache line efficiency</text></g><!--class GptpIpcReceiver--><g id="elem_GptpIpcReceiver"><rect codeLine="34" fill="#FFB6C1" height="125.4844" id="GptpIpcReceiver" rx="2.5" ry="2.5" style="stroke:#000000;stroke-width:1;" width="303.5352" x="354" y="405.7969"/><ellipse cx="444.0078" cy="419.7969" fill="#FFFFFF" rx="9" ry="9" style="stroke:#000000;stroke-width:1;"/><path d="M446.9766,425.4375 Q446.3984,425.7344 445.7578,425.875 Q445.1172,426.0313 444.4141,426.0313 Q441.9141,426.0313 440.5859,424.3906 Q439.2734,422.7344 439.2734,419.6094 Q439.2734,416.4844 440.5859,414.8281 Q441.9141,413.1719 444.4141,413.1719 Q445.1172,413.1719 445.7578,413.3281 Q446.4141,413.4844 446.9766,413.7813 L446.9766,416.5 Q446.3516,415.9219 445.7578,415.6563 Q445.1641,415.375 444.5391,415.375 Q443.1953,415.375 442.5078,416.4531 Q441.8203,417.5156 441.8203,419.6094 Q441.8203,421.7031 442.5078,422.7813 Q443.1953,423.8438 444.5391,423.8438 Q445.1641,423.8438 445.7578,423.5781 Q446.3516,423.2969 446.9766,422.7188 L446.9766,425.4375 Z " fill="#000000"/><text fill="#000000" font-family="Verdana" font-size="14" lengthAdjust="spacing" textLength="116.0195" x="461.5078" y="424.6436">GptpIpcReceiver</text><line style="stroke:#000000;stroke-width:1;" x1="355" x2="656.5352" y1="433.7969" y2="433.7969"/><rect fill="transparent" height="6" style="stroke:#000000;stroke-width:1;" width="6" x="362" y="444.4453"/><text fill="#000000" font-family="Verdana" font-size="14" lengthAdjust="spacing" textLength="217.9502" x="372" y="450.792">region_ : const GptpIpcRegion*</text><rect fill="transparent" height="6" style="stroke:#000000;stroke-width:1;" width="6" x="362" y="460.7422"/><text fill="#000000" font-family="Verdana" font-size="14" lengthAdjust="spacing" textLength="89.4893" x="372" y="467.0889">shm_fd_ : int</text><line style="stroke:#000000;stroke-width:1;" x1="355" x2="656.5352" y1="474.3906" y2="474.3906"/><ellipse cx="365" cy="488.0391" fill="#FFFFFF" rx="3" ry="3" style="stroke:#000000;stroke-width:1;"/><text fill="#000000" font-family="Verdana" font-size="14" lengthAdjust="spacing" textLength="116.5322" x="372" y="491.3857">Init(name) : bool</text><ellipse cx="365" cy="504.3359" fill="#FFFFFF" rx="3" ry="3" style="stroke:#000000;stroke-width:1;"/><text fill="#000000" font-family="Verdana" font-size="14" lengthAdjust="spacing" textLength="279.5352" x="372" y="507.6826">Receive() : std::optional&lt;GptpIpcData&gt;</text><ellipse cx="365" cy="520.6328" fill="#FFFFFF" rx="3" ry="3" style="stroke:#000000;stroke-width:1;"/><text fill="#000000" font-family="Verdana" font-size="14" lengthAdjust="spacing" textLength="92.3057" x="372" y="523.9795">Close() : void</text></g><!--class ShmPTPEngine--><g id="elem_ShmPTPEngine"><rect codeLine="42" fill="#FFA07A" height="125.4844" id="ShmPTPEngine" rx="2.5" ry="2.5" style="stroke:#000000;stroke-width:1;" width="339.9365" x="345" y="182.7969"/><ellipse cx="458.8105" cy="196.7969" fill="#FFFFFF" rx="9" ry="9" style="stroke:#000000;stroke-width:1;"/><path d="M461.7793,202.4375 Q461.2012,202.7344 460.5605,202.875 Q459.9199,203.0313 459.2168,203.0313 Q456.7168,203.0313 455.3887,201.3906 Q454.0762,199.7344 454.0762,196.6094 Q454.0762,193.4844 455.3887,191.8281 Q456.7168,190.1719 459.2168,190.1719 Q459.9199,190.1719 460.5605,190.3281 Q461.2168,190.4844 461.7793,190.7813 L461.7793,193.5 Q461.1543,192.9219 460.5605,192.6563 Q459.9668,192.375 459.3418,192.375 Q457.998,192.375 457.3105,193.4531 Q456.623,194.5156 456.623,196.6094 Q456.623,198.7031 457.3105,199.7813 Q457.998,200.8438 459.3418,200.8438 Q459.9668,200.8438 460.5605,200.5781 Q461.1543,200.2969 461.7793,199.7188 L461.7793,202.4375 Z " fill="#000000"/><text fill="#000000" font-family="Verdana" font-size="14" lengthAdjust="spacing" textLength="104.8154" x="476.3105" y="201.6436">ShmPTPEngine</text><line style="stroke:#000000;stroke-width:1;" x1="346" x2="683.9365" y1="210.7969" y2="210.7969"/><rect fill="transparent" height="6" style="stroke:#000000;stroke-width:1;" width="6" x="353" y="221.4453"/><text fill="#000000" font-family="Verdana" font-size="14" lengthAdjust="spacing" textLength="193.8604" x="363" y="227.792">receiver_ : GptpIpcReceiver</text><rect fill="transparent" height="6" style="stroke:#000000;stroke-width:1;" width="6" x="353" y="237.7422"/><text fill="#000000" font-family="Verdana" font-size="14" lengthAdjust="spacing" textLength="127.9824" x="363" y="244.0889">ipc_name_ : string</text><line style="stroke:#000000;stroke-width:1;" x1="346" x2="683.9365" y1="251.3906" y2="251.3906"/><ellipse cx="356" cy="265.0391" fill="#FFFFFF" rx="3" ry="3" style="stroke:#000000;stroke-width:1;"/><text fill="#000000" font-family="Verdana" font-size="14" lengthAdjust="spacing" textLength="113.0391" x="363" y="268.3857">Initialize() : bool</text><ellipse cx="356" cy="281.3359" fill="#FFFFFF" rx="3" ry="3" style="stroke:#000000;stroke-width:1;"/><text fill="#000000" font-family="Verdana" font-size="14" lengthAdjust="spacing" textLength="132.1934" x="363" y="284.6826">Deinitialize() : bool</text><ellipse cx="356" cy="297.6328" fill="#FFFFFF" rx="3" ry="3" style="stroke:#000000;stroke-width:1;"/><text fill="#000000" font-family="Verdana" font-size="14" lengthAdjust="spacing" textLength="315.9365" x="363" y="300.9795">ReadPTPSnapshot(info : PtpTimeInfo&amp;) : bool</text></g><!--class PtpTimeInfo--><g id="elem_PtpTimeInfo"><rect fill="#FFFFFF" height="44" id="PtpTimeInfo" rx="2.5" ry="2.5" style="stroke:#000000;stroke-width:1;" width="112.0068" x="717" y="446.2969"/><ellipse cx="730" cy="460.2969" fill="#FFFFFF" rx="9" ry="9" style="stroke:#000000;stroke-width:1;"/><path d="M732.9688,465.9375 Q732.3906,466.2344 731.75,466.375 Q731.1094,466.5313 730.4063,466.5313 Q727.9063,466.5313 726.5781,464.8906 Q725.2656,463.2344 725.2656,460.1094 Q725.2656,456.9844 726.5781,455.3281 Q727.9063,453.6719 730.4063,453.6719 Q731.1094,453.6719 731.75,453.8281 Q732.4063,453.9844 732.9688,454.2813 L732.9688,457 Q732.3438,456.4219 731.75,456.1563 Q731.1563,455.875 730.5313,455.875 Q729.1875,455.875 728.5,456.9531 Q727.8125,458.0156 727.8125,460.1094 Q727.8125,462.2031 728.5,463.2813 Q729.1875,464.3438 730.5313,464.3438 Q731.1563,464.3438 731.75,464.0781 Q732.3438,463.7969 732.9688,463.2188 L732.9688,465.9375 Z " fill="#000000"/><text fill="#000000" font-family="Verdana" font-size="14" lengthAdjust="spacing" textLength="84.0068" x="742" y="465.1436">PtpTimeInfo</text><line style="stroke:#000000;stroke-width:1;" x1="718" x2="828.0068" y1="474.2969" y2="474.2969"/><line style="stroke:#000000;stroke-width:1;" x1="718" x2="828.0068" y1="482.2969" y2="482.2969"/></g><g id="elem_GMN14"><path d="M448.5,679.7969 L448.5,718.7969 L413.41,722.7969 L448.5,726.7969 L448.5,765.4609 A0,0 0 0 0 448.5,765.4609 L951.7759,765.4609 A0,0 0 0 0 951.7759,765.4609 L951.7759,689.7969 L941.7759,679.7969 L448.5,679.7969 A0,0 0 0 0 448.5,679.7969 " fill="#FFFFFF" style="stroke:#000000;stroke-width:1;"/><path d="M941.7759,679.7969 L941.7759,689.7969 L951.7759,689.7969 L941.7759,679.7969 " fill="#FFFFFF" style="stroke:#000000;stroke-width:1;"/><text fill="#000000" font-family="Verdana" font-size="13" font-weight="bold" lengthAdjust="spacing" textLength="128.0576" x="454.5" y="696.8638">Seqlock Protocol:</text><text fill="#000000" font-family="Verdana" font-size="13" lengthAdjust="spacing" textLength="482.2759" x="454.5" y="711.9966">Writer: seq++ (odd) &#8594; fence &#8594; memcpy &#8594; seq_confirm++, seq++ (even)</text><text fill="#000000" font-family="Verdana" font-size="13" lengthAdjust="spacing" textLength="420.6909" x="454.5" y="727.1294">Reader: read seq1 (even) &#8594; memcpy &#8594; fence &#8594; read seq2, seq3</text><text fill="#000000" font-family="Verdana" font-size="13" lengthAdjust="spacing" textLength="243.4072" x="487.5586" y="742.2622">retry if seq1 != seq2 or seq1 != seq3</text><text fill="#000000" font-family="Verdana" font-size="13" lengthAdjust="spacing" textLength="218.7085" x="454.5" y="757.395">Retry up to 20 times on torn read</text></g><g id="elem_GMN17"><path d="M864,448.2969 L864,488.5625 L1306.002,488.5625 L1306.002,458.2969 L1296.002,448.2969 L864,448.2969 " fill="#FFFFFF" style="stroke:#000000;stroke-width:1;"/><path d="M1296.002,448.2969 L1296.002,458.2969 L1306.002,458.2969 L1296.002,448.2969 " fill="#FFFFFF" style="stroke:#000000;stroke-width:1;"/><text fill="#000000" font-family="Verdana" font-size="13" lengthAdjust="spacing" textLength="262.6978" x="870" y="465.3638">Maps GptpIpcData fields to PtpTimeInfo.</text><text fill="#000000" font-family="Verdana" font-size="13" lengthAdjust="spacing" textLength="421.002" x="870" y="480.4966">Instantiated as GPTPShmMachine via CreateGPTPShmMachine().</text></g><!--link GptpIpcPublisher to GptpIpcRegion--><g id="link_GptpIpcPublisher_GptpIpcRegion"><path codeLine="51" d="M181.48,531.0669 C194.64,565.6669 209.0166,603.499 222.9666,640.169 " fill="transparent" id="GptpIpcPublisher-to-GptpIpcRegion" style="stroke:#000000;stroke-width:1;"/><polygon fill="#000000" points="225.1,645.7769,225.6386,635.9428,223.3222,641.1036,218.1613,638.7872,225.1,645.7769" style="stroke:#000000;stroke-width:1;"/><text fill="#000000" font-family="Verdana" font-size="13" lengthAdjust="spacing" textLength="136.6523" x="205" y="575.8638">shm_open(O_CREAT)</text><text fill="#000000" font-family="Verdana" font-size="13" lengthAdjust="spacing" textLength="135.1099" x="205.7712" y="590.9966">mmap(PROT_WRITE)</text></g><!--link GptpIpcReceiver to GptpIpcRegion--><g id="link_GptpIpcReceiver_GptpIpcRegion"><path codeLine="52" d="M444.35,531.0669 C409.82,565.6669 370.7086,604.8602 334.1086,641.5302 " fill="transparent" id="GptpIpcReceiver-to-GptpIpcRegion" style="stroke:#000000;stroke-width:1;"/><polygon fill="#000000" points="329.87,645.7769,339.059,642.2326,333.4022,642.238,333.3968,636.5811,329.87,645.7769" style="stroke:#000000;stroke-width:1;"/><text fill="#000000" font-family="Verdana" font-size="13" lengthAdjust="spacing" textLength="147.6782" x="411" y="575.8638">shm_open(O_RDONLY)</text><text fill="#000000" font-family="Verdana" font-size="13" lengthAdjust="spacing" textLength="129.3843" x="420.147" y="590.9966">mmap(PROT_READ)</text></g><!--reverse link ShmPTPEngine to GptpIpcReceiver--><g id="link_ShmPTPEngine_GptpIpcReceiver"><path codeLine="53" d="M512.003,319.847 C510.763,350.377 509.75,375.1469 508.51,405.6869 " fill="transparent" id="ShmPTPEngine-backto-GptpIpcReceiver" style="stroke:#000000;stroke-width:1;"/><polygon fill="#000000" points="512.49,307.8569,508.2498,313.6896,512.003,319.847,516.2432,314.0143,512.49,307.8569" style="stroke:#000000;stroke-width:1;"/></g><!--link ShmPTPEngine to PtpTimeInfo--><g id="link_ShmPTPEngine_PtpTimeInfo"><path codeLine="54" d="M630.04,308.0769 C654.86,324.1269 679.94,342.6369 701,362.7969 C727.1,387.7769 746.3851,418.3981 758.9751,440.9481 " fill="transparent" id="ShmPTPEngine-to-PtpTimeInfo" style="stroke:#000000;stroke-width:1;stroke-dasharray:7.0,7.0;"/><polygon fill="#000000" points="761.9,446.1869,761.0052,436.3788,759.4626,441.8212,754.0201,440.2786,761.9,446.1869" style="stroke:#000000;stroke-width:1;"/><text fill="#000000" font-family="Verdana" font-size="13" lengthAdjust="spacing" textLength="73.4297" x="693" y="350.8638">converts to</text></g><!--link ShmPTPEngine to GMN17--><g id="link_ShmPTPEngine_GMN17"><path d="M685.24,303.2369 C737.45,321.4469 794.86,342.2369 847,362.7969 C917.11,390.4469 997.03,426.4869 1044.12,448.2169 " fill="transparent" id="ShmPTPEngine-GMN17" style="stroke:#000000;stroke-width:1;stroke-dasharray:7.0,7.0;"/></g><!--SRC=[hLNRRjf047ttLqofL1aeY2OabH11gY2ga9860L9KAH9QrcEyodhNiJUejCbhFw2Vs2_fhEs4jHFHFjGlsBjdpjpE36zCX3528fbGdcU4aGXIh9UBiHIe32mYbc80bnZhT0VJsTZp96vG1M1q0X93um4z3sSmrbAdyFpGoGGpdeh42AsWyZmKDZ1yUo4saPa9TJigJiW1S1qdMf7px93HUCTKQLJ661SnfhZPEwmPBPYCjJLxWAM8SSB8H04BM68mTJnHVaMMdfSmViis20rhi91iYp1BDSSiQy2Fd9rBbcNmEJ79DE6p-xKKMKHi-znAd7qwPNWh63nPpFE3bWF9edWL1XOYb7a-RyDK2UCh5cEJhjPQI-UkzEi7pB0zzuI-B7YhHU20gJ4crJk_SlNeFJhPLlh-QgP5t30SCYas2WF_jDySZM3V7IVjDiHi8pYvOqR7WW_lARFZevKPmHdqllK_dlHE-YSz1v_XtIje1_0oqQhrYciLYZG-nDBfFB-UzZlhdK4eau5GfpUACnxPSL0868Q2qqJmtIl5ShHqI1jpv2Ys_o8DYZqp_rSWfVEyvva91WET3oQJGwU4Re77KcTObuYJr2AAPylPkThOyhZZLSkfoBaY-EB8GOc4hspSgpouLAXDBIj1VVbUH5FBQuBYuFqSMK1nBXHBiaWRNwXG4sfc4jkrANszgrZbdNqnp9tEgARx0JHi6tI2ohzQZUVddvRD6nN7BF5dywlbwde-NPut6rwzztzZca-klbnyhL0HzuIOAWLlTJelwba1TBiZQ3XPDWfP4Oxsgj6UfpJ9FRLj0nrMGw92j5eBl9EQtrf56ysr7BIi1AzJGQjoO2UitGPV1q4JVl_y1I6D1kPlj8PviijVdJ5ijzy_sU0MLPEeR6SiLKg_zkv3ULLdsLC_8OzohcDl_-UGeg7LByA2vyrPZWBwFtA-ZtEV5dUVK0NWg0U6YfC1zS3eLENqTlM3BKrPeBKsj3riXTpg4jCbwSdTFX0Ab84jhQkjBY6dDCjCaKGDxHL6HbQEKNn9oyKsQYiOZCcrmUg5t-pkW_a3]--></g></svg>