<svg xmlns="http://www.w3.org/2000/svg" xmlns:xlink="http://www.w3.org/1999/xlink" contentStyleType="text/css" data-diagram-type="CLASS" height="884px" preserveAspectRatio="none" style="width:739px;height:884px;background:#FFFFFF;" version="1.1" viewBox="0 0 739 884" width="739px" zoomAndPan="magnify"><title>ControlFlowDivider: Class Diagram</title><defs/><g><text fill="#000000" font-family="sans-serif" font-size="14" font-weight="bold" lengthAdjust="spacing" textLength="274.9141" x="225.0859" y="22.9951">ControlFlowDivider: Class Diagram</text><rect fill="#DDDDDD" height="62.8906" id="_legend" rx="7.5" ry="7.5" style="stroke:#000000;stroke-width:1;" width="299.6797" x="12" y="49.2969"/><text fill="#000000" font-family="sans-serif" font-size="14" font-weight="bold" lengthAdjust="spacing" textLength="41.2139" x="21.874" y="69.292">Color</text><text fill="#000000" font-family="sans-serif" font-size="14" font-weight="bold" lengthAdjust="spacing" textLength="90.5488" x="111.8281" y="69.292">Description</text><rect fill="#F5F5DC" height="16.2969" style="stroke:transparent;stroke-width:1;" width="89.9541" x="17" y="72.5938"/><text fill="#000000" font-family="sans-serif" font-size="14" lengthAdjust="spacing" textLength="31.1514" x="17" y="85.5889">&#160;&#160;&#160;&#160;&#160;&#160;&#160;</text><text fill="#000000" font-family="sans-serif" font-size="14" lengthAdjust="spacing" textLength="89.2021" x="111.4043" y="85.5889">Base classes</text><rect fill="#ADD8E6" height="16.2969" style="stroke:transparent;stroke-width:1;" width="89.9541" x="17" y="88.8906"/><text fill="#000000" font-family="sans-serif" font-size="14" lengthAdjust="spacing" textLength="13.3506" x="17" y="101.8857">&#160;&#160;&#160;</text><text fill="#000000" font-family="sans-serif" font-size="14" lengthAdjust="spacing" textLength="132.9727" x="111.4043" y="101.8857">ControlFlowDivider</text><line style="stroke:#000000;stroke-width:1;" x1="17" x2="306.6797" y1="56.2969" y2="56.2969"/><line style="stroke:#000000;stroke-width:1;" x1="17" x2="306.6797" y1="72.5938" y2="72.5938"/><line style="stroke:#000000;stroke-width:1;" x1="17" x2="306.6797" y1="88.8906" y2="88.8906"/><line style="stroke:#000000;stroke-width:1;" x1="17" x2="306.6797" y1="105.1875" y2="105.1875"/><line style="stroke:#000000;stroke-width:1;" x1="17" x2="17" y1="56.2969" y2="105.1875"/><line style="stroke:#000000;stroke-width:1;" x1="106.9541" x2="106.9541" y1="56.2969" y2="105.1875"/><line style="stroke:#000000;stroke-width:1;" x1="306.6797" x2="306.6797" y1="56.2969" y2="105.1875"/><!--class time_info--><g id="elem_time_info"><rect codeLine="10" fill="#F5F5DC" height="96.8906" id="time_info" rx="2.5" ry="2.5" style="stroke:#181818;stroke-width:0.5;" width="151.3574" x="249" y="780.1875"/><ellipse cx="279.9078" cy="796.1875" fill="#ADD1B2" rx="11" ry="11" style="stroke:#181818;stroke-width:1;"/><path d="M282.8765,801.8281 Q282.2984,802.125 281.6578,802.2656 Q281.0171,802.4219 280.314,802.4219 Q277.814,802.4219 276.4859,800.7813 Q275.1734,799.125 275.1734,796 Q275.1734,792.875 276.4859,791.2188 Q277.814,789.5625 280.314,789.5625 Q281.0171,789.5625 281.6578,789.7188 Q282.314,789.875 282.8765,790.1719 L282.8765,792.8906 Q282.2515,792.3125 281.6578,792.0469 Q281.064,791.7656 280.439,791.7656 Q279.0953,791.7656 278.4078,792.8438 Q277.7203,793.9063 277.7203,796 Q277.7203,798.0938 278.4078,799.1719 Q279.0953,800.2344 280.439,800.2344 Q281.064,800.2344 281.6578,799.9688 Q282.2515,799.6875 282.8765,799.1094 L282.8765,801.8281 Z " fill="#000000"/><text fill="#000000" font-family="sans-serif" font-size="14" lengthAdjust="spacing" textLength="84.0068" x="297.4428" y="801.0342">PtpTimeInfo</text><line style="stroke:#181818;stroke-width:0.5;" x1="250" x2="399.3574" y1="812.1875" y2="812.1875"/><ellipse cx="260" cy="825.8359" fill="transparent" rx="3" ry="3" style="stroke:#038048;stroke-width:1;"/><text fill="#000000" font-family="sans-serif" font-size="14" lengthAdjust="spacing" textLength="77.3691" x="269" y="829.1826">ptp: uint64</text><ellipse cx="260" cy="842.1328" fill="transparent" rx="3" ry="3" style="stroke:#038048;stroke-width:1;"/><text fill="#000000" font-family="sans-serif" font-size="14" lengthAdjust="spacing" textLength="125.3574" x="269" y="845.4795">local_time: uint64</text><ellipse cx="260" cy="858.4297" fill="transparent" rx="3" ry="3" style="stroke:#038048;stroke-width:1;"/><text fill="#000000" font-family="sans-serif" font-size="14" lengthAdjust="spacing" textLength="70.4375" x="269" y="861.7764">status: int</text><line style="stroke:#181818;stroke-width:0.5;" x1="250" x2="399.3574" y1="869.0781" y2="869.0781"/></g><!--class base_machine--><g id="elem_base_machine"><rect codeLine="16" fill="#F5F5DC" height="80.5938" id="base_machine" rx="2.5" ry="2.5" style="stroke:#181818;stroke-width:0.5;" width="152.5332" x="21" y="132.1875"/><ellipse cx="48.5271" cy="148.1875" fill="#A9DCDF" rx="11" ry="11" style="stroke:#181818;stroke-width:1;"/><path d="M48.6364,143.5313 L47.4802,148.6094 L49.8083,148.6094 L48.6364,143.5313 Z M47.1521,141.2969 L50.1364,141.2969 L53.4958,153.6875 L51.0427,153.6875 L50.2771,150.625 L46.9958,150.625 L46.2458,153.6875 L43.8083,153.6875 L47.1521,141.2969 Z " fill="#000000"/><text fill="#000000" font-family="sans-serif" font-size="14" font-style="italic" lengthAdjust="spacing" textLength="92.6953" x="65.3108" y="153.0342">BaseMachine</text><line style="stroke:#181818;stroke-width:0.5;" x1="22" x2="172.5332" y1="164.1875" y2="164.1875"/><line style="stroke:#181818;stroke-width:0.5;" x1="22" x2="172.5332" y1="172.1875" y2="172.1875"/><ellipse cx="32" cy="185.8359" fill="#84BE84" rx="3" ry="3" style="stroke:#038048;stroke-width:1;"/><text fill="#000000" font-family="sans-serif" font-size="14" lengthAdjust="spacing" textLength="126.5332" x="41" y="189.1826">GetName(): string</text><ellipse cx="32" cy="202.1328" fill="#84BE84" rx="3" ry="3" style="stroke:#038048;stroke-width:1;"/><text fill="#000000" font-family="sans-serif" font-size="14" lengthAdjust="spacing" textLength="72.3789" x="41" y="205.4795">Init(): bool</text></g><!--class proactive_machine--><g id="elem_proactive_machine"><rect codeLine="21" fill="#F5F5DC" height="80.5938" id="proactive_machine" rx="2.5" ry="2.5" style="stroke:#181818;stroke-width:0.5;" width="155.9219" x="19.5" y="274.1875"/><ellipse cx="34.5" cy="290.1875" fill="#A9DCDF" rx="11" ry="11" style="stroke:#181818;stroke-width:1;"/><path d="M34.6094,285.5313 L33.4531,290.6094 L35.7813,290.6094 L34.6094,285.5313 Z M33.125,283.2969 L36.1094,283.2969 L39.4688,295.6875 L37.0156,295.6875 L36.25,292.625 L32.9688,292.625 L32.2188,295.6875 L29.7813,295.6875 L33.125,283.2969 Z " fill="#000000"/><text fill="#000000" font-family="sans-serif" font-size="14" font-style="italic" lengthAdjust="spacing" textLength="123.9219" x="48.5" y="295.0342">ProactiveMachine</text><line style="stroke:#181818;stroke-width:0.5;" x1="20.5" x2="174.4219" y1="306.1875" y2="306.1875"/><line style="stroke:#181818;stroke-width:0.5;" x1="20.5" x2="174.4219" y1="314.1875" y2="314.1875"/><ellipse cx="30.5" cy="327.8359" fill="#84BE84" rx="3" ry="3" style="stroke:#038048;stroke-width:1;"/><text fill="#000000" font-family="sans-serif" font-size="14" lengthAdjust="spacing" textLength="83.918" x="39.5" y="331.1826">Start(): void</text><ellipse cx="30.5" cy="344.1328" fill="#84BE84" rx="3" ry="3" style="stroke:#038048;stroke-width:1;"/><text fill="#000000" font-family="sans-serif" font-size="14" lengthAdjust="spacing" textLength="81.5459" x="39.5" y="347.4795">Stop(): void</text></g><!--class event_machine--><g id="elem_event_machine"><rect codeLine="26" fill="#F5F5DC" height="96.8906" id="event_machine" rx="2.5" ry="2.5" style="stroke:#181818;stroke-width:0.5;" width="176.9082" x="9" y="416.1875"/><ellipse cx="24" cy="432.1875" fill="#A9DCDF" rx="11" ry="11" style="stroke:#181818;stroke-width:1;"/><path d="M24.1094,427.5313 L22.9531,432.6094 L25.2813,432.6094 L24.1094,427.5313 Z M22.625,425.2969 L25.6094,425.2969 L28.9688,437.6875 L26.5156,437.6875 L25.75,434.625 L22.4688,434.625 L21.7188,437.6875 L19.2813,437.6875 L22.625,425.2969 Z " fill="#000000"/><text fill="#000000" font-family="sans-serif" font-size="14" font-style="italic" lengthAdjust="spacing" textLength="144.9082" x="38" y="437.0342">EventDrivenMachine</text><line style="stroke:#181818;stroke-width:0.5;" x1="10" x2="184.9082" y1="448.1875" y2="448.1875"/><line style="stroke:#181818;stroke-width:0.5;" x1="10" x2="184.9082" y1="456.1875" y2="456.1875"/><ellipse cx="20" cy="469.8359" fill="#84BE84" rx="3" ry="3" style="stroke:#038048;stroke-width:1;"/><text fill="#000000" font-family="sans-serif" font-size="14" lengthAdjust="spacing" textLength="131.4551" x="29" y="473.1826">NotifyEvent(): void</text><polygon fill="#FFFF44" points="20,481.1328,24,485.1328,20,489.1328,16,485.1328" style="stroke:#B38D22;stroke-width:1;"/><text fill="#000000" font-family="sans-serif" font-size="14" lengthAdjust="spacing" textLength="109.7168" x="29" y="489.4795">OnEvent(): void</text><polygon fill="#FFFF44" points="20,497.4297,24,501.4297,20,505.4297,16,501.4297" style="stroke:#B38D22;stroke-width:1;"/><text fill="#000000" font-family="sans-serif" font-size="14" lengthAdjust="spacing" textLength="127.2305" x="29" y="505.7764">OnTimeout(): void</text></g><!--class consumer--><g id="elem_consumer"><rect codeLine="32" fill="#F5F5DC" height="64.2969" id="consumer" rx="2.5" ry="2.5" style="stroke:#181818;stroke-width:0.5;" width="206.2227" x="221.5" y="432.6875"/><ellipse cx="279.0024" cy="448.6875" fill="#A9DCDF" rx="11" ry="11" style="stroke:#181818;stroke-width:1;"/><path d="M279.1118,444.0313 L277.9556,449.1094 L280.2837,449.1094 L279.1118,444.0313 Z M277.6274,441.7969 L280.6118,441.7969 L283.9712,454.1875 L281.5181,454.1875 L280.7524,451.125 L277.4712,451.125 L276.7212,454.1875 L274.2837,454.1875 L277.6274,441.7969 Z " fill="#000000"/><text fill="#000000" font-family="sans-serif" font-size="14" font-style="italic" lengthAdjust="spacing" textLength="71.3877" x="299.5024" y="453.5342">Consumer</text><rect fill="#FFFFFF" height="15.9688" style="stroke:#181818;stroke-width:1;stroke-dasharray:2.0,2.0;" width="9.3301" x="421.3926" y="429.6875"/><text fill="#000000" font-family="sans-serif" font-size="12" font-style="italic" lengthAdjust="spacing" textLength="7.3301" x="422.3926" y="441.8262">T</text><line style="stroke:#181818;stroke-width:0.5;" x1="222.5" x2="426.7227" y1="464.6875" y2="464.6875"/><line style="stroke:#181818;stroke-width:0.5;" x1="222.5" x2="426.7227" y1="472.6875" y2="472.6875"/><ellipse cx="232.5" cy="486.3359" fill="#84BE84" rx="3" ry="3" style="stroke:#038048;stroke-width:1;"/><text fill="#000000" font-family="sans-serif" font-size="14" lengthAdjust="spacing" textLength="180.2227" x="241.5" y="489.6826">OnMessage(data: T): void</text></g><!--class producer--><g id="elem_producer"><rect codeLine="36" fill="#F5F5DC" height="80.5938" id="producer" rx="2.5" ry="2.5" style="stroke:#181818;stroke-width:0.5;" width="265.5859" x="462.5" y="424.1875"/><ellipse cx="554.083" cy="440.1875" fill="#A9DCDF" rx="11" ry="11" style="stroke:#181818;stroke-width:1;"/><path d="M554.1924,435.5313 L553.0361,440.6094 L555.3643,440.6094 L554.1924,435.5313 Z M552.708,433.2969 L555.6924,433.2969 L559.0518,445.6875 L556.5986,445.6875 L555.833,442.625 L552.5518,442.625 L551.8018,445.6875 L549.3643,445.6875 L552.708,433.2969 Z " fill="#000000"/><text fill="#000000" font-family="sans-serif" font-size="14" font-style="italic" lengthAdjust="spacing" textLength="62.5898" x="574.583" y="445.0342">Producer</text><rect fill="#FFFFFF" height="15.9688" style="stroke:#181818;stroke-width:1;stroke-dasharray:2.0,2.0;" width="9.3301" x="721.7559" y="421.1875"/><text fill="#000000" font-family="sans-serif" font-size="12" font-style="italic" lengthAdjust="spacing" textLength="7.3301" x="722.7559" y="433.3262">T</text><line style="stroke:#181818;stroke-width:0.5;" x1="463.5" x2="727.0859" y1="456.1875" y2="456.1875"/><line style="stroke:#181818;stroke-width:0.5;" x1="463.5" x2="727.0859" y1="464.1875" y2="464.1875"/><ellipse cx="473.5" cy="477.8359" fill="#84BE84" rx="3" ry="3" style="stroke:#038048;stroke-width:1;"/><text fill="#000000" font-family="sans-serif" font-size="14" lengthAdjust="spacing" textLength="239.5859" x="482.5" y="481.1826">SetPublishCallback(callback): void</text><polygon fill="#FFFF44" points="473.5,489.1328,477.5,493.1328,473.5,497.1328,469.5,493.1328" style="stroke:#B38D22;stroke-width:1;"/><text fill="#000000" font-family="sans-serif" font-size="14" lengthAdjust="spacing" textLength="149.1191" x="482.5" y="497.4795">Publish(data: T): void</text></g><!--class cfd--><g id="elem_cfd"><rect codeLine="41" fill="#ADD8E6" height="129.4844" id="cfd" rx="2.5" ry="2.5" style="stroke:#181818;stroke-width:0.5;" width="395.3799" x="127" y="574.1875"/><ellipse cx="188.479" cy="590.1875" fill="#ADD1B2" rx="11" ry="11" style="stroke:#181818;stroke-width:1;"/><path d="M191.4478,595.8281 Q190.8696,596.125 190.229,596.2656 Q189.5884,596.4219 188.8853,596.4219 Q186.3853,596.4219 185.0571,594.7813 Q183.7446,593.125 183.7446,590 Q183.7446,586.875 185.0571,585.2188 Q186.3853,583.5625 188.8853,583.5625 Q189.5884,583.5625 190.229,583.7188 Q190.8853,583.875 191.4478,584.1719 L191.4478,586.8906 Q190.8228,586.3125 190.229,586.0469 Q189.6353,585.7656 189.0103,585.7656 Q187.6665,585.7656 186.979,586.8438 Q186.2915,587.9063 186.2915,590 Q186.2915,592.0938 186.979,593.1719 Q187.6665,594.2344 189.0103,594.2344 Q189.6353,594.2344 190.229,593.9688 Q190.8228,593.6875 191.4478,593.1094 L191.4478,595.8281 Z " fill="#000000"/><text fill="#000000" font-family="sans-serif" font-size="14" lengthAdjust="spacing" textLength="132.9727" x="208.979" y="595.0342">ControlFlowDivider</text><rect fill="#FFFFFF" height="15.9688" style="stroke:#181818;stroke-width:1;stroke-dasharray:2.0,2.0;" width="128.9492" x="396.4307" y="571.1875"/><text fill="#000000" font-family="sans-serif" font-size="12" font-style="italic" lengthAdjust="spacing" textLength="126.9492" x="397.4307" y="583.3262">DataType, BufferSize</text><line style="stroke:#181818;stroke-width:0.5;" x1="128" x2="521.3799" y1="606.1875" y2="606.1875"/><rect fill="transparent" height="6" style="stroke:#C82930;stroke-width:1;" width="6" x="135" y="616.8359"/><text fill="#000000" font-family="sans-serif" font-size="14" lengthAdjust="spacing" textLength="369.3799" x="147" y="623.1826">data_buffer_: circular_buffer&lt;DataType, BufferSize&gt;</text><line style="stroke:#181818;stroke-width:0.5;" x1="128" x2="521.3799" y1="630.4844" y2="630.4844"/><ellipse cx="138" cy="644.1328" fill="#84BE84" rx="3" ry="3" style="stroke:#038048;stroke-width:1;"/><text fill="#000000" font-family="sans-serif" font-size="14" lengthAdjust="spacing" textLength="239.4355" x="147" y="647.4795">OnMessage(data: DataType): void</text><ellipse cx="138" cy="660.4297" fill="#84BE84" rx="3" ry="3" style="stroke:#038048;stroke-width:1;"/><text fill="#000000" font-family="sans-serif" font-size="14" lengthAdjust="spacing" textLength="239.5859" x="147" y="663.7764">SetPublishCallback(callback): void</text><polygon fill="#FFFF44" points="138,671.7266,142,675.7266,138,679.7266,134,675.7266" style="stroke:#B38D22;stroke-width:1;"/><text fill="#000000" font-family="sans-serif" font-size="14" lengthAdjust="spacing" textLength="109.7168" x="147" y="680.0732">OnEvent(): void</text><polygon fill="#FFFF44" points="138,688.0234,142,692.0234,138,696.0234,134,692.0234" style="stroke:#B38D22;stroke-width:1;"/><text fill="#000000" font-family="sans-serif" font-size="14" lengthAdjust="spacing" textLength="127.2305" x="147" y="696.3701">OnTimeout(): void</text></g><!--reverse link base_machine to proactive_machine--><g id="link_base_machine_proactive_machine"><path codeLine="49" d="M97.5,231.4275 C97.5,250.3475 97.5,254.9175 97.5,273.8475 " fill="transparent" id="base_machine-backto-proactive_machine" style="stroke:#181818;stroke-width:1;"/><polygon fill="transparent" points="97.5,213.4275,91.5,231.4275,103.5,231.4275,97.5,213.4275" style="stroke:#181818;stroke-width:1;"/></g><!--reverse link proactive_machine to event_machine--><g id="link_proactive_machine_event_machine"><path codeLine="50" d="M97.5,373.3475 C97.5,392.0175 97.5,396.4275 97.5,416.0075 " fill="transparent" id="proactive_machine-backto-event_machine" style="stroke:#181818;stroke-width:1;"/><polygon fill="transparent" points="97.5,355.3475,91.5,373.3475,103.5,373.3475,97.5,355.3475" style="stroke:#181818;stroke-width:1;"/></g><!--reverse link event_machine to cfd--><g id="link_event_machine_cfd"><path codeLine="51" d="M174.7771,524.2377 C199.5771,543.0277 214.08,554.0175 240.6,574.1175 " fill="transparent" id="event_machine-backto-cfd" style="stroke:#181818;stroke-width:1;"/><polygon fill="transparent" points="160.43,513.3675,171.1537,529.0201,178.4005,519.4554,160.43,513.3675" style="stroke:#181818;stroke-width:1;"/></g><!--reverse link consumer to cfd--><g id="link_consumer_cfd"><path codeLine="52" d="M324.5,514.8375 C324.5,536.3275 324.5,547.6575 324.5,573.9975 " fill="transparent" id="consumer-backto-cfd" style="stroke:#181818;stroke-width:1;stroke-dasharray:7.0,7.0;"/><polygon fill="transparent" points="324.5,496.8375,318.5,514.8375,330.5,514.8375,324.5,496.8375" style="stroke:#181818;stroke-width:1;"/></g><!--reverse link producer to cfd--><g id="link_producer_cfd"><path codeLine="53" d="M517.7899,515.0089 C485.6599,535.3889 460.94,551.0875 424.65,574.1175 " fill="transparent" id="producer-backto-cfd" style="stroke:#181818;stroke-width:1;stroke-dasharray:7.0,7.0;"/><polygon fill="transparent" points="532.99,505.3675,514.5761,509.9422,521.0037,520.0756,532.99,505.3675" style="stroke:#181818;stroke-width:1;"/></g><!--link cfd to time_info--><g id="link_cfd_time_info"><path codeLine="55" d="M324.5,703.3375 C324.5,728.4775 324.5,750.8575 324.5,774.1575 " fill="transparent" id="cfd-to-time_info" style="stroke:#181818;stroke-width:1;"/><polygon fill="#181818" points="324.5,780.1575,328.5,771.1575,324.5,775.1575,320.5,771.1575,324.5,780.1575" style="stroke:#181818;stroke-width:1;"/><text fill="#000000" font-family="sans-serif" font-size="13" lengthAdjust="spacing" textLength="65.0127" x="325.5" y="746.2544">processes</text></g><!--SRC=[ZLJ1Rjim3BthAuZsac5pJyCEXfT3adOeiBO1chiXoxGZJ9OCYSxGpVltoRATrAaRL2VpWUHx95z2aXJ2scYoHjqfytiZ3p976yDQSUTW8tbfUSMOmX9r3cHgK5WG0__QxxvI6GlZyy06dR2o9caqpBosBuJaUeMonEK8muex1D5nehjS-5EMUrgf9XItCzhF2xtkNZrZWG2kjbJlP8NtkZ1Nm1sG3rBf8-XbmT_0zhccEeP6QlhsjGUK4LobNVeKTyIfSJ5uYFrZZ6UEB1S40rytt0CNUwany6K-JgiUEAFyWVJ8ArnyYi7taBhiuNijgSCoOzGSmzOQ7yd3XAOUmNUudedRqFLWP3v2fZuYCpot1zIqiRwdVis47VmEowCXMRo4mWdNzPEU1RlBc8OkgV0tTqs5Djaj0xqOuZFc9_s0pl4I5pad7iFkGak_mBmHfvRr49-l36dRP4gw_PehbN7nQo66ZyaOGz8CyMc4Czic6v-xUwdn2woQea3xBF_WC5-HmydtWvQewvrc8JMDGKWh6iNjWCntcz_Bc3frmWSd_VWL9wvFsYXwQr3srh8XSU8lDdLRIF0ROaSN9EtDJK2EHpmYh5jb52rV_UJZJeR0xe-7_GS0]--></g></svg>