<svg xmlns="http://www.w3.org/2000/svg" xmlns:xlink="http://www.w3.org/1999/xlink" contentStyleType="text/css" data-diagram-type="SEQUENCE" height="950px" preserveAspectRatio="none" style="width:1103px;height:950px;background:#FFFFFF;" version="1.1" viewBox="0 0 1103 950" width="1103px" zoomAndPan="magnify"><title>Application: Initialization Sequence</title><defs/><g><text fill="#000000" font-family="sans-serif" font-size="14" font-weight="bold" lengthAdjust="spacing" textLength="280.6494" x="407.4033" y="27.9951">Application: Initialization Sequence</text><g><title>Application</title><rect fill="#FFFFFF" height="296.3281" style="stroke:#181818;stroke-width:1;" width="10" x="269.8145" y="268.3438"/></g><g><title>Application</title><rect fill="#FFFFFF" height="288.1953" style="stroke:#181818;stroke-width:1;" width="10" x="269.8145" y="636.9375"/></g><g><title>TimeBaseHandler</title><rect fill="#FFFFFF" height="145.6641" style="stroke:#181818;stroke-width:1;" width="10" x="548.6953" y="297.4766"/></g><g><title>TimeBaseHandler</title><rect fill="#FFFFFF" height="229.9297" style="stroke:#181818;stroke-width:1;" width="10" x="548.6953" y="666.0703"/></g><g><title>PtpMachine</title><rect fill="#FFFFFF" height="29.1328" style="stroke:#181818;stroke-width:1;" width="10" x="783.1953" y="326.6094"/></g><g><title>PtpMachine</title><rect fill="#FFFFFF" height="71.2656" style="stroke:#181818;stroke-width:1;" width="10" x="783.1953" y="795.6016"/></g><g><title>ControlFlowDivider</title><rect fill="#FFFFFF" height="29.1328" style="stroke:#181818;stroke-width:1;" width="10" x="937.3257" y="384.875"/></g><g><title>ControlFlowDivider</title><rect fill="#FFFFFF" height="71.2656" style="stroke:#181818;stroke-width:1;" width="10" x="937.3257" y="695.2031"/></g><g><title>LifecycleManager</title><rect fill="transparent" height="749.0547" width="8" x="69.3901" y="194.0781"/><line style="stroke:#181818;stroke-width:0.5;stroke-dasharray:5.0,5.0;" x1="73" x2="73" y1="194.0781" y2="943.1328"/></g><g><title>Application</title><rect fill="transparent" height="749.0547" width="8" x="270.8145" y="194.0781"/><line style="stroke:#181818;stroke-width:0.5;stroke-dasharray:5.0,5.0;" x1="274.7026" x2="274.7026" y1="194.0781" y2="943.1328"/></g><g><title>TimeBaseHandler</title><rect fill="transparent" height="749.0547" width="8" x="549.6953" y="194.0781"/><line style="stroke:#181818;stroke-width:0.5;stroke-dasharray:5.0,5.0;" x1="552.7412" x2="552.7412" y1="194.0781" y2="943.1328"/></g><g><title>PtpMachine</title><rect fill="transparent" height="749.0547" width="8" x="784.1953" y="194.0781"/><line style="stroke:#181818;stroke-width:0.5;stroke-dasharray:5.0,5.0;" x1="787.4839" x2="787.4839" y1="194.0781" y2="943.1328"/></g><g><title>ControlFlowDivider</title><rect fill="transparent" height="749.0547" width="8" x="938.3257" y="194.0781"/><line style="stroke:#181818;stroke-width:0.5;stroke-dasharray:5.0,5.0;" x1="941.8394" x2="941.8394" y1="194.0781" y2="943.1328"/></g><rect fill="#90EE90" height="30.2969" rx="2.5" ry="2.5" style="stroke:#181818;stroke-width:0.5;" width="136.7803" x="5" y="162.7813"/><text fill="#000000" font-family="sans-serif" font-size="14" lengthAdjust="spacing" textLength="122.7803" x="12" y="182.7764">LifecycleManager</text><rect fill="#E0FFFF" height="30.2969" rx="2.5" ry="2.5" style="stroke:#181818;stroke-width:0.5;" width="92.2236" x="228.7026" y="162.7813"/><text fill="#000000" font-family="sans-serif" font-size="14" lengthAdjust="spacing" textLength="78.2236" x="235.7026" y="182.7764">Application</text><rect fill="#E0FFFF" height="30.2969" rx="2.5" ry="2.5" style="stroke:#181818;stroke-width:0.5;" width="137.9082" x="484.7412" y="162.7813"/><text fill="#000000" font-family="sans-serif" font-size="14" lengthAdjust="spacing" textLength="123.9082" x="491.7412" y="182.7764">TimeBaseHandler</text><rect fill="#F5DEB3" height="30.2969" rx="2.5" ry="2.5" style="stroke:#181818;stroke-width:0.5;" width="95.4229" x="740.4839" y="162.7813"/><text fill="#000000" font-family="sans-serif" font-size="14" lengthAdjust="spacing" textLength="81.4229" x="747.4839" y="182.7764">PtpMachine</text><rect fill="#ADD8E6" height="30.2969" rx="2.5" ry="2.5" style="stroke:#181818;stroke-width:0.5;" width="146.9727" x="868.8394" y="162.7813"/><text fill="#000000" font-family="sans-serif" font-size="14" lengthAdjust="spacing" textLength="132.9727" x="875.8394" y="182.7764">ControlFlowDivider</text><g><title>Application</title><rect fill="#FFFFFF" height="296.3281" style="stroke:#181818;stroke-width:1;" width="10" x="269.8145" y="268.3438"/></g><g><title>Application</title><rect fill="#FFFFFF" height="288.1953" style="stroke:#181818;stroke-width:1;" width="10" x="269.8145" y="636.9375"/></g><g><title>TimeBaseHandler</title><rect fill="#FFFFFF" height="145.6641" style="stroke:#181818;stroke-width:1;" width="10" x="548.6953" y="297.4766"/></g><g><title>TimeBaseHandler</title><rect fill="#FFFFFF" height="229.9297" style="stroke:#181818;stroke-width:1;" width="10" x="548.6953" y="666.0703"/></g><g><title>PtpMachine</title><rect fill="#FFFFFF" height="29.1328" style="stroke:#181818;stroke-width:1;" width="10" x="783.1953" y="326.6094"/></g><g><title>PtpMachine</title><rect fill="#FFFFFF" height="71.2656" style="stroke:#181818;stroke-width:1;" width="10" x="783.1953" y="795.6016"/></g><g><title>ControlFlowDivider</title><rect fill="#FFFFFF" height="29.1328" style="stroke:#181818;stroke-width:1;" width="10" x="937.3257" y="384.875"/></g><g><title>ControlFlowDivider</title><rect fill="#FFFFFF" height="71.2656" style="stroke:#181818;stroke-width:1;" width="10" x="937.3257" y="695.2031"/></g><rect fill="#EEEEEE" height="3" style="stroke:#EEEEEE;stroke-width:1;" width="1096.4561" x="0" y="224.6445"/><line style="stroke:#000000;stroke-width:1;" x1="0" x2="1096.4561" y1="224.6445" y2="224.6445"/><line style="stroke:#000000;stroke-width:1;" x1="0" x2="1096.4561" y1="227.6445" y2="227.6445"/><rect fill="#EEEEEE" height="23.1328" style="stroke:#000000;stroke-width:2;" width="139.0615" x="478.6973" y="214.0781"/><text fill="#000000" font-family="sans-serif" font-size="13" font-weight="bold" lengthAdjust="spacing" textLength="120.5356" x="484.6973" y="230.145">Execution Phase</text><polygon fill="#181818" points="257.8145,264.3438,267.8145,268.3438,257.8145,272.3438,261.8145,268.3438" style="stroke:#181818;stroke-width:1;"/><line style="stroke:#181818;stroke-width:1;" x1="73.3901" x2="263.8145" y1="268.3438" y2="268.3438"/><text fill="#FF0000" font-family="sans-serif" font-size="13" font-weight="bold" lengthAdjust="spacing" textLength="29.9736" x="80.3901" y="263.2778">[01]</text><text fill="#000000" font-family="sans-serif" font-size="13" lengthAdjust="spacing" textLength="103.3906" x="114.3638" y="263.2778">Run(stopToken)</text><polygon fill="#181818" points="536.6953,293.4766,546.6953,297.4766,536.6953,301.4766,540.6953,297.4766" style="stroke:#181818;stroke-width:1;"/><line style="stroke:#181818;stroke-width:1;" x1="279.8145" x2="542.6953" y1="297.4766" y2="297.4766"/><text fill="#FF0000" font-family="sans-serif" font-size="13" font-weight="bold" lengthAdjust="spacing" textLength="29.9736" x="286.8145" y="292.4106">[02]</text><text fill="#000000" font-family="sans-serif" font-size="13" lengthAdjust="spacing" textLength="137.0078" x="320.7881" y="292.4106">RunOnce(stopToken)</text><polygon fill="#181818" points="771.1953,322.6094,781.1953,326.6094,771.1953,330.6094,775.1953,326.6094" style="stroke:#181818;stroke-width:1;"/><line style="stroke:#181818;stroke-width:1;" x1="558.6953" x2="777.1953" y1="326.6094" y2="326.6094"/><text fill="#FF0000" font-family="sans-serif" font-size="13" font-weight="bold" lengthAdjust="spacing" textLength="29.9736" x="565.6953" y="321.5435">[03]</text><text fill="#000000" font-family="sans-serif" font-size="13" lengthAdjust="spacing" textLength="40.4219" x="599.6689" y="321.5435">start()</text><polygon fill="#181818" points="569.6953,351.7422,559.6953,355.7422,569.6953,359.7422,565.6953,355.7422" style="stroke:#181818;stroke-width:1;"/><line style="stroke:#181818;stroke-width:1;stroke-dasharray:2.0,2.0;" x1="563.6953" x2="787.1953" y1="355.7422" y2="355.7422"/><text fill="#FF0000" font-family="sans-serif" font-size="13" font-weight="bold" lengthAdjust="spacing" textLength="29.9736" x="575.6953" y="350.6763">[04]</text><text fill="#000000" font-family="sans-serif" font-size="13" lengthAdjust="spacing" textLength="4.1323" x="609.6689" y="350.6763">&#160;</text><polygon fill="#181818" points="925.3257,380.875,935.3257,384.875,925.3257,388.875,929.3257,384.875" style="stroke:#181818;stroke-width:1;"/><line style="stroke:#181818;stroke-width:1;" x1="558.6953" x2="931.3257" y1="384.875" y2="384.875"/><text fill="#FF0000" font-family="sans-serif" font-size="13" font-weight="bold" lengthAdjust="spacing" textLength="29.9736" x="565.6953" y="379.8091">[05]</text><text fill="#000000" font-family="sans-serif" font-size="13" lengthAdjust="spacing" textLength="40.4219" x="599.6689" y="379.8091">start()</text><polygon fill="#181818" points="569.6953,410.0078,559.6953,414.0078,569.6953,418.0078,565.6953,414.0078" style="stroke:#181818;stroke-width:1;"/><line style="stroke:#181818;stroke-width:1;stroke-dasharray:2.0,2.0;" x1="563.6953" x2="941.3257" y1="414.0078" y2="414.0078"/><text fill="#FF0000" font-family="sans-serif" font-size="13" font-weight="bold" lengthAdjust="spacing" textLength="29.9736" x="575.6953" y="408.9419">[06]</text><text fill="#000000" font-family="sans-serif" font-size="13" lengthAdjust="spacing" textLength="4.1323" x="609.6689" y="408.9419">&#160;</text><polygon fill="#181818" points="290.8145,439.1406,280.8145,443.1406,290.8145,447.1406,286.8145,443.1406" style="stroke:#181818;stroke-width:1;"/><line style="stroke:#181818;stroke-width:1;stroke-dasharray:2.0,2.0;" x1="284.8145" x2="552.6953" y1="443.1406" y2="443.1406"/><text fill="#FF0000" font-family="sans-serif" font-size="13" font-weight="bold" lengthAdjust="spacing" textLength="29.9736" x="296.8145" y="438.0747">[07]</text><text fill="#000000" font-family="sans-serif" font-size="13" lengthAdjust="spacing" textLength="4.1323" x="330.7881" y="438.0747">&#160;</text><path d="M188,456.1406 L188,496.1406 L360,496.1406 L360,466.1406 L350,456.1406 L188,456.1406 " fill="#FEFFDD" style="stroke:#181818;stroke-width:0.5;"/><path d="M350,456.1406 L350,466.1406 L360,466.1406 L350,456.1406 " fill="#FEFFDD" style="stroke:#181818;stroke-width:0.5;"/><text fill="#000000" font-family="sans-serif" font-size="13" lengthAdjust="spacing" textLength="122.5732" x="194" y="473.2075">Monitor stop token</text><text fill="#000000" font-family="sans-serif" font-size="13" lengthAdjust="spacing" textLength="151.6646" x="194" y="488.3403">for termination request</text><line style="stroke:#181818;stroke-width:1;" x1="279.8145" x2="321.8145" y1="522.5391" y2="522.5391"/><line style="stroke:#181818;stroke-width:1;" x1="321.8145" x2="321.8145" y1="522.5391" y2="535.5391"/><line style="stroke:#181818;stroke-width:1;" x1="280.8145" x2="321.8145" y1="535.5391" y2="535.5391"/><polygon fill="#181818" points="290.8145,531.5391,280.8145,535.5391,290.8145,539.5391,286.8145,535.5391" style="stroke:#181818;stroke-width:1;"/><text fill="#FF0000" font-family="sans-serif" font-size="13" font-weight="bold" lengthAdjust="spacing" textLength="29.9736" x="286.8145" y="517.4731">[08]</text><text fill="#000000" font-family="sans-serif" font-size="13" lengthAdjust="spacing" textLength="210.9072" x="320.7881" y="517.4731">wait until stopToken is triggered</text><polygon fill="#181818" points="84.3901,560.6719,74.3901,564.6719,84.3901,568.6719,80.3901,564.6719" style="stroke:#181818;stroke-width:1;"/><line style="stroke:#181818;stroke-width:1;stroke-dasharray:2.0,2.0;" x1="78.3901" x2="273.8145" y1="564.6719" y2="564.6719"/><text fill="#FF0000" font-family="sans-serif" font-size="13" font-weight="bold" lengthAdjust="spacing" textLength="29.9736" x="90.3901" y="559.606">[09]</text><text fill="#000000" font-family="sans-serif" font-size="13" lengthAdjust="spacing" textLength="136.2144" x="124.3638" y="559.606">return when stopped</text><rect fill="#EEEEEE" height="3" style="stroke:#EEEEEE;stroke-width:1;" width="1096.4561" x="0" y="593.2383"/><line style="stroke:#000000;stroke-width:1;" x1="0" x2="1096.4561" y1="593.2383" y2="593.2383"/><line style="stroke:#000000;stroke-width:1;" x1="0" x2="1096.4561" y1="596.2383" y2="596.2383"/><rect fill="#EEEEEE" height="23.1328" style="stroke:#000000;stroke-width:2;" width="140.75" x="477.853" y="582.6719"/><text fill="#000000" font-family="sans-serif" font-size="13" font-weight="bold" lengthAdjust="spacing" textLength="122.2241" x="483.853" y="598.7388">Shutdown Phase</text><polygon fill="#181818" points="257.8145,632.9375,267.8145,636.9375,257.8145,640.9375,261.8145,636.9375" style="stroke:#181818;stroke-width:1;"/><line style="stroke:#181818;stroke-width:1;" x1="73.3901" x2="263.8145" y1="636.9375" y2="636.9375"/><text fill="#FF0000" font-family="sans-serif" font-size="13" font-weight="bold" lengthAdjust="spacing" textLength="29.9736" x="80.3901" y="631.8716">[10]</text><text fill="#000000" font-family="sans-serif" font-size="13" lengthAdjust="spacing" textLength="143.4507" x="114.3638" y="631.8716">(stop token triggered)</text><polygon fill="#181818" points="536.6953,662.0703,546.6953,666.0703,536.6953,670.0703,540.6953,666.0703" style="stroke:#181818;stroke-width:1;"/><line style="stroke:#181818;stroke-width:1;" x1="279.8145" x2="542.6953" y1="666.0703" y2="666.0703"/><text fill="#FF0000" font-family="sans-serif" font-size="13" font-weight="bold" lengthAdjust="spacing" textLength="29.9736" x="286.8145" y="661.0044">[11]</text><text fill="#000000" font-family="sans-serif" font-size="13" lengthAdjust="spacing" textLength="39.6982" x="320.7881" y="661.0044">Stop()</text><polygon fill="#181818" points="925.3257,691.2031,935.3257,695.2031,925.3257,699.2031,929.3257,695.2031" style="stroke:#181818;stroke-width:1;"/><line style="stroke:#181818;stroke-width:1;" x1="558.6953" x2="931.3257" y1="695.2031" y2="695.2031"/><text fill="#FF0000" font-family="sans-serif" font-size="13" font-weight="bold" lengthAdjust="spacing" textLength="29.9736" x="565.6953" y="690.1372">[12]</text><text fill="#000000" font-family="sans-serif" font-size="13" lengthAdjust="spacing" textLength="171.5264" x="599.6689" y="690.1372">stop(stop token triggered)</text><line style="stroke:#181818;stroke-width:1;" x1="947.3257" x2="989.3257" y1="724.3359" y2="724.3359"/><line style="stroke:#181818;stroke-width:1;" x1="989.3257" x2="989.3257" y1="724.3359" y2="737.3359"/><line style="stroke:#181818;stroke-width:1;" x1="948.3257" x2="989.3257" y1="737.3359" y2="737.3359"/><polygon fill="#181818" points="958.3257,733.3359,948.3257,737.3359,958.3257,741.3359,954.3257,737.3359" style="stroke:#181818;stroke-width:1;"/><text fill="#FF0000" font-family="sans-serif" font-size="13" font-weight="bold" lengthAdjust="spacing" textLength="29.9736" x="954.3257" y="719.27">[13]</text><text fill="#000000" font-family="sans-serif" font-size="13" lengthAdjust="spacing" textLength="86.1567" x="988.2993" y="719.27">join activities</text><polygon fill="#181818" points="569.6953,762.4688,559.6953,766.4688,569.6953,770.4688,565.6953,766.4688" style="stroke:#181818;stroke-width:1;"/><line style="stroke:#181818;stroke-width:1;stroke-dasharray:2.0,2.0;" x1="563.6953" x2="941.3257" y1="766.4688" y2="766.4688"/><text fill="#FF0000" font-family="sans-serif" font-size="13" font-weight="bold" lengthAdjust="spacing" textLength="29.9736" x="575.6953" y="761.4028">[14]</text><text fill="#000000" font-family="sans-serif" font-size="13" lengthAdjust="spacing" textLength="4.1323" x="609.6689" y="761.4028">&#160;</text><polygon fill="#181818" points="771.1953,791.6016,781.1953,795.6016,771.1953,799.6016,775.1953,795.6016" style="stroke:#181818;stroke-width:1;"/><line style="stroke:#181818;stroke-width:1;" x1="558.6953" x2="777.1953" y1="795.6016" y2="795.6016"/><text fill="#FF0000" font-family="sans-serif" font-size="13" font-weight="bold" lengthAdjust="spacing" textLength="29.9736" x="565.6953" y="790.5356">[15]</text><text fill="#000000" font-family="sans-serif" font-size="13" lengthAdjust="spacing" textLength="171.5264" x="599.6689" y="790.5356">stop(stop token triggered)</text><line style="stroke:#181818;stroke-width:1;" x1="793.1953" x2="835.1953" y1="824.7344" y2="824.7344"/><line style="stroke:#181818;stroke-width:1;" x1="835.1953" x2="835.1953" y1="824.7344" y2="837.7344"/><line style="stroke:#181818;stroke-width:1;" x1="794.1953" x2="835.1953" y1="837.7344" y2="837.7344"/><polygon fill="#181818" points="804.1953,833.7344,794.1953,837.7344,804.1953,841.7344,800.1953,837.7344" style="stroke:#181818;stroke-width:1;"/><text fill="#FF0000" font-family="sans-serif" font-size="13" font-weight="bold" lengthAdjust="spacing" textLength="29.9736" x="800.1953" y="819.6685">[16]</text><text fill="#000000" font-family="sans-serif" font-size="13" lengthAdjust="spacing" textLength="86.1567" x="834.1689" y="819.6685">join activities</text><polygon fill="#181818" points="569.6953,862.8672,559.6953,866.8672,569.6953,870.8672,565.6953,866.8672" style="stroke:#181818;stroke-width:1;"/><line style="stroke:#181818;stroke-width:1;stroke-dasharray:2.0,2.0;" x1="563.6953" x2="787.1953" y1="866.8672" y2="866.8672"/><text fill="#FF0000" font-family="sans-serif" font-size="13" font-weight="bold" lengthAdjust="spacing" textLength="29.9736" x="575.6953" y="861.8013">[17]</text><text fill="#000000" font-family="sans-serif" font-size="13" lengthAdjust="spacing" textLength="4.1323" x="609.6689" y="861.8013">&#160;</text><polygon fill="#181818" points="290.8145,892,280.8145,896,290.8145,900,286.8145,896" style="stroke:#181818;stroke-width:1;"/><line style="stroke:#181818;stroke-width:1;stroke-dasharray:2.0,2.0;" x1="284.8145" x2="552.6953" y1="896" y2="896"/><text fill="#FF0000" font-family="sans-serif" font-size="13" font-weight="bold" lengthAdjust="spacing" textLength="29.9736" x="296.8145" y="890.9341">[18]</text><text fill="#000000" font-family="sans-serif" font-size="13" lengthAdjust="spacing" textLength="4.1323" x="330.7881" y="890.9341">&#160;</text><polygon fill="#181818" points="84.3901,921.1328,74.3901,925.1328,84.3901,929.1328,80.3901,925.1328" style="stroke:#181818;stroke-width:1;"/><line style="stroke:#181818;stroke-width:1;stroke-dasharray:2.0,2.0;" x1="78.3901" x2="273.8145" y1="925.1328" y2="925.1328"/><text fill="#FF0000" font-family="sans-serif" font-size="13" font-weight="bold" lengthAdjust="spacing" textLength="29.9736" x="90.3901" y="920.0669">[19]</text><text fill="#000000" font-family="sans-serif" font-size="13" lengthAdjust="spacing" textLength="4.1323" x="124.3638" y="920.0669">&#160;</text><rect fill="#DDDDDD" height="95.4844" id="_legend" rx="7.5" ry="7.5" style="stroke:#000000;stroke-width:1;" width="317.5625" x="12" y="54.2969"/><text fill="#000000" font-family="sans-serif" font-size="14" font-weight="bold" lengthAdjust="spacing" textLength="41.2139" x="21.874" y="74.292">Color</text><text fill="#000000" font-family="sans-serif" font-size="14" font-weight="bold" lengthAdjust="spacing" textLength="90.5488" x="106.9541" y="74.292">Description</text><rect fill="#E0FFFF" height="16.2969" style="stroke:transparent;stroke-width:1;" width="85.0801" x="17" y="77.5938"/><text fill="#000000" font-family="sans-serif" font-size="14" lengthAdjust="spacing" textLength="13.3506" x="17" y="90.5889">&#160;&#160;&#160;</text><text fill="#000000" font-family="sans-serif" font-size="14" lengthAdjust="spacing" textLength="164.6299" x="106.5303" y="90.5889">TimeDaemon members</text><rect fill="#F5DEB3" height="16.2969" style="stroke:transparent;stroke-width:1;" width="85.0801" x="17" y="93.8906"/><text fill="#000000" font-family="sans-serif" font-size="14" lengthAdjust="spacing" textLength="31.1514" x="17" y="106.8857">&#160;&#160;&#160;&#160;&#160;&#160;&#160;</text><text fill="#000000" font-family="sans-serif" font-size="14" lengthAdjust="spacing" textLength="81.4229" x="106.5303" y="106.8857">PtpMachine</text><rect fill="#ADD8E6" height="16.2969" style="stroke:transparent;stroke-width:1;" width="85.0801" x="17" y="110.1875"/><text fill="#000000" font-family="sans-serif" font-size="14" lengthAdjust="spacing" textLength="13.3506" x="17" y="123.1826">&#160;&#160;&#160;</text><text fill="#000000" font-family="sans-serif" font-size="14" lengthAdjust="spacing" textLength="132.9727" x="106.5303" y="123.1826">ControlFlowDivider</text><rect fill="#90EE90" height="16.2969" style="stroke:transparent;stroke-width:1;" width="85.0801" x="17" y="126.4844"/><text fill="#000000" font-family="sans-serif" font-size="14" lengthAdjust="spacing" textLength="8.9004" x="17" y="139.4795">&#160;&#160;</text><text fill="#000000" font-family="sans-serif" font-size="14" lengthAdjust="spacing" textLength="171.5889" x="106.5303" y="139.4795">Middleware components</text><line style="stroke:#000000;stroke-width:1;" x1="17" x2="324.5625" y1="61.2969" y2="61.2969"/><line style="stroke:#000000;stroke-width:1;" x1="17" x2="324.5625" y1="77.5938" y2="77.5938"/><line style="stroke:#000000;stroke-width:1;" x1="17" x2="324.5625" y1="93.8906" y2="93.8906"/><line style="stroke:#000000;stroke-width:1;" x1="17" x2="324.5625" y1="110.1875" y2="110.1875"/><line style="stroke:#000000;stroke-width:1;" x1="17" x2="324.5625" y1="126.4844" y2="126.4844"/><line style="stroke:#000000;stroke-width:1;" x1="17" x2="324.5625" y1="142.7813" y2="142.7813"/><line style="stroke:#000000;stroke-width:1;" x1="17" x2="17" y1="61.2969" y2="142.7813"/><line style="stroke:#000000;stroke-width:1;" x1="102.0801" x2="102.0801" y1="61.2969" y2="142.7813"/><line style="stroke:#000000;stroke-width:1;" x1="324.5625" x2="324.5625" y1="61.2969" y2="142.7813"/><!--SRC=[fLJBRjim4BppAnRknJq4o5cm33HnNq2C1dM07jh0eAMLnPOYMMfb9uK_lYl9jkXOgbkKDqepdDtP8KcHHdZZd5Q996LD11-D8YMr-jNiOO4_ApG92f6h526pbbRsIGXPaJLLiK8Feqbc3K5YjVMnntGwMKs_Nby_ZeJGk4QJ0ba76ZCIm6iNmsqDXVtY_GpBn2lN29wjNSkQlBfJwvnkdwMPrdjuK0NE91RCAR0kfEnbVSbHqlJm5Ux9pMMIAuC0bxHkT8MjrYqtwAr-f-rsfZPiX1zclVU8TOaxcAiqrRYL7jcSmbc3Xig0nTQq1WdXf2ULA2VPoD6ToZ1vJZJEfP5hz2EG9UYaW43Wb15Ci05lA5rAvw3px1HVUtSZI_mWwn9Q0LejytOxIElCQnYEtBBOczdwV0e_TwsX9TaotPlO-In47CFR9qog9WNtELS7SSmHuhwlfiUE8lXScN79YNgmFz2y5Z8XjP641uGG1oYpWfuQuYTESY-v0ug0moU4FKPG4lSt3dZ1Rn52hqx4HOgzZ5Efm9SUfUwl2833EW4-bEci3C714S9O_c0t3Du38vXRVXJunjREyMLcwxwPZFU4lb2cVIXy_L2K5Bf_v6-b8gWCAGr7yq5nvBnQSxun3OR6l7ha4Hz8bJUmpHbRinp3WfAFu-RSBFAAKhlzOsp6NV6TRazyXjApOFhuRnBpOepCkg0yCDdmf0Y-MsMWeV3pZEK_P-12h2zNEPZqayFE2_s_Mt4nhYzoqvUGtm00]--></g></svg>