<svg xmlns="http://www.w3.org/2000/svg" xmlns:xlink="http://www.w3.org/1999/xlink" contentStyleType="text/css" data-diagram-type="CLASS" height="935px" preserveAspectRatio="none" style="width:1804px;height:935px;background:#FFFFFF;" version="1.1" viewBox="0 0 1804 935" width="1804px" zoomAndPan="magnify"><title>TimeDaemon: Class Diagram Overview</title><defs/><g><text fill="#000000" font-family="sans-serif" font-size="14" font-weight="bold" lengthAdjust="spacing" textLength="305.1836" x="742.8081" y="22.9951">TimeDaemon: Class Diagram Overview</text><rect fill="#DDDDDD" height="128.0781" id="_legend" rx="7.5" ry="7.5" style="stroke:#000000;stroke-width:1;" width="276.9844" x="12" y="49.2969"/><rect fill="#E0FFFF" height="16.2969" style="stroke:transparent;stroke-width:1;" width="44.502" x="17" y="56.2969"/><text fill="#000000" font-family="sans-serif" font-size="14" lengthAdjust="spacing" textLength="26.7012" x="17" y="69.292">&#160;&#160;&#160;&#160;&#160;&#160;</text><text fill="#000000" font-family="sans-serif" font-size="14" lengthAdjust="spacing" textLength="164.6299" x="65.9521" y="69.292">TimeDaemon members</text><rect fill="#F5DEB3" height="16.2969" style="stroke:transparent;stroke-width:1;" width="44.502" x="17" y="72.5938"/><text fill="#000000" font-family="sans-serif" font-size="14" lengthAdjust="spacing" textLength="44.502" x="17" y="85.5889">&#160;&#160;&#160;&#160;&#160;&#160;&#160;&#160;&#160;&#160;</text><text fill="#000000" font-family="sans-serif" font-size="14" lengthAdjust="spacing" textLength="81.4229" x="65.9521" y="85.5889">PtpMachine</text><rect fill="#ADD8E6" height="16.2969" style="stroke:transparent;stroke-width:1;" width="44.502" x="17" y="88.8906"/><text fill="#000000" font-family="sans-serif" font-size="14" lengthAdjust="spacing" textLength="26.7012" x="17" y="101.8857">&#160;&#160;&#160;&#160;&#160;&#160;</text><text fill="#000000" font-family="sans-serif" font-size="14" lengthAdjust="spacing" textLength="132.9727" x="65.9521" y="101.8857">ControlFlowDivider</text><rect fill="#E6E6FA" height="16.2969" style="stroke:transparent;stroke-width:1;" width="44.502" x="17" y="105.1875"/><text fill="#000000" font-family="sans-serif" font-size="14" lengthAdjust="spacing" textLength="31.1514" x="17" y="118.1826">&#160;&#160;&#160;&#160;&#160;&#160;&#160;</text><text fill="#000000" font-family="sans-serif" font-size="14" lengthAdjust="spacing" textLength="138.3525" x="65.9521" y="118.1826">VerificationMachine</text><rect fill="#FFB6C1" height="16.2969" style="stroke:transparent;stroke-width:1;" width="44.502" x="17" y="121.4844"/><text fill="#000000" font-family="sans-serif" font-size="14" lengthAdjust="spacing" textLength="26.7012" x="17" y="134.4795">&#160;&#160;&#160;&#160;&#160;&#160;</text><text fill="#000000" font-family="sans-serif" font-size="14" lengthAdjust="spacing" textLength="113.292" x="65.9521" y="134.4795">IPC components</text><rect fill="#F08080" height="16.2969" style="stroke:transparent;stroke-width:1;" width="44.502" x="17" y="137.7813"/><text fill="#000000" font-family="sans-serif" font-size="14" lengthAdjust="spacing" textLength="22.251" x="17" y="150.7764">&#160;&#160;&#160;&#160;&#160;</text><text fill="#000000" font-family="sans-serif" font-size="14" lengthAdjust="spacing" textLength="155.627" x="65.9521" y="150.7764">score::communication</text><rect fill="#F5F5DC" height="16.2969" style="stroke:transparent;stroke-width:1;" width="44.502" x="17" y="154.0781"/><text fill="#000000" font-family="sans-serif" font-size="14" lengthAdjust="spacing" textLength="44.502" x="17" y="167.0732">&#160;&#160;&#160;&#160;&#160;&#160;&#160;&#160;&#160;&#160;</text><text fill="#000000" font-family="sans-serif" font-size="14" lengthAdjust="spacing" textLength="89.2021" x="65.9521" y="167.0732">Base classes</text><line style="stroke:#000000;stroke-width:1;" x1="17" x2="283.9844" y1="56.2969" y2="56.2969"/><line style="stroke:#000000;stroke-width:1;" x1="17" x2="283.9844" y1="72.5938" y2="72.5938"/><line style="stroke:#000000;stroke-width:1;" x1="17" x2="283.9844" y1="88.8906" y2="88.8906"/><line style="stroke:#000000;stroke-width:1;" x1="17" x2="283.9844" y1="105.1875" y2="105.1875"/><line style="stroke:#000000;stroke-width:1;" x1="17" x2="283.9844" y1="121.4844" y2="121.4844"/><line style="stroke:#000000;stroke-width:1;" x1="17" x2="283.9844" y1="137.7813" y2="137.7813"/><line style="stroke:#000000;stroke-width:1;" x1="17" x2="283.9844" y1="154.0781" y2="154.0781"/><line style="stroke:#000000;stroke-width:1;" x1="17" x2="283.9844" y1="170.375" y2="170.375"/><line style="stroke:#000000;stroke-width:1;" x1="17" x2="17" y1="56.2969" y2="170.375"/><line style="stroke:#000000;stroke-width:1;" x1="61.502" x2="61.502" y1="56.2969" y2="170.375"/><line style="stroke:#000000;stroke-width:1;" x1="283.9844" x2="283.9844" y1="56.2969" y2="170.375"/><!--class time_info--><g id="elem_time_info"><rect codeLine="14" fill="#F5F5DC" height="129.4844" id="time_info" rx="2.5" ry="2.5" style="stroke:#181818;stroke-width:0.5;" width="250.4648" x="183" y="197.375"/><ellipse cx="261.979" cy="213.375" fill="#ADD1B2" rx="11" ry="11" style="stroke:#181818;stroke-width:1;"/><path d="M264.9478,219.0156 Q264.3696,219.3125 263.729,219.4531 Q263.0884,219.6094 262.3853,219.6094 Q259.8853,219.6094 258.5571,217.9688 Q257.2446,216.3125 257.2446,213.1875 Q257.2446,210.0625 258.5571,208.4063 Q259.8853,206.75 262.3853,206.75 Q263.0884,206.75 263.729,206.9063 Q264.3853,207.0625 264.9478,207.3594 L264.9478,210.0781 Q264.3228,209.5 263.729,209.2344 Q263.1353,208.9531 262.5103,208.9531 Q261.1665,208.9531 260.479,210.0313 Q259.7915,211.0938 259.7915,213.1875 Q259.7915,215.2813 260.479,216.3594 Q261.1665,217.4219 262.5103,217.4219 Q263.1353,217.4219 263.729,217.1563 Q264.3228,216.875 264.9478,216.2969 L264.9478,219.0156 Z " fill="#000000"/><text fill="#000000" font-family="sans-serif" font-size="14" lengthAdjust="spacing" textLength="84.0068" x="282.479" y="218.2217">PtpTimeInfo</text><line style="stroke:#181818;stroke-width:0.5;" x1="184" x2="432.4648" y1="229.375" y2="229.375"/><text fill="#000000" font-family="sans-serif" font-size="14" lengthAdjust="spacing" textLength="224.4648" x="203" y="246.3701">Time information data structure</text><text fill="#000000" font-family="sans-serif" font-size="14" lengthAdjust="spacing" textLength="13.3506" x="203" y="262.667">...</text><ellipse cx="194" cy="275.6172" fill="transparent" rx="3" ry="3" style="stroke:#038048;stroke-width:1;"/><text fill="#000000" font-family="sans-serif" font-size="14" lengthAdjust="spacing" textLength="77.3691" x="203" y="278.9639">ptp: uint64</text><ellipse cx="194" cy="291.9141" fill="transparent" rx="3" ry="3" style="stroke:#038048;stroke-width:1;"/><text fill="#000000" font-family="sans-serif" font-size="14" lengthAdjust="spacing" textLength="125.3574" x="203" y="295.2607">local_time: uint64</text><ellipse cx="194" cy="308.2109" fill="transparent" rx="3" ry="3" style="stroke:#038048;stroke-width:1;"/><text fill="#000000" font-family="sans-serif" font-size="14" lengthAdjust="spacing" textLength="70.4375" x="203" y="311.5576">status: int</text><line style="stroke:#181818;stroke-width:0.5;" x1="184" x2="432.4648" y1="318.8594" y2="318.8594"/></g><!--class tb_handler--><g id="elem_tb_handler"><rect codeLine="22" fill="#E0FFFF" height="113.1875" id="tb_handler" rx="2.5" ry="2.5" style="stroke:#181818;stroke-width:0.5;" width="289.751" x="605" y="403.375"/><ellipse cx="683.6714" cy="419.375" fill="#ADD1B2" rx="11" ry="11" style="stroke:#181818;stroke-width:1;"/><path d="M686.6401,425.0156 Q686.062,425.3125 685.4214,425.4531 Q684.7808,425.6094 684.0776,425.6094 Q681.5776,425.6094 680.2495,423.9688 Q678.937,422.3125 678.937,419.1875 Q678.937,416.0625 680.2495,414.4063 Q681.5776,412.75 684.0776,412.75 Q684.7808,412.75 685.4214,412.9063 Q686.0776,413.0625 686.6401,413.3594 L686.6401,416.0781 Q686.0151,415.5 685.4214,415.2344 Q684.8276,414.9531 684.2026,414.9531 Q682.8589,414.9531 682.1714,416.0313 Q681.4839,417.0938 681.4839,419.1875 Q681.4839,421.2813 682.1714,422.3594 Q682.8589,423.4219 684.2026,423.4219 Q684.8276,423.4219 685.4214,423.1563 Q686.0151,422.875 686.6401,422.2969 L686.6401,425.0156 Z " fill="#000000"/><text fill="#000000" font-family="sans-serif" font-size="14" lengthAdjust="spacing" textLength="123.9082" x="704.1714" y="424.2217">TimeBaseHandler</text><line style="stroke:#181818;stroke-width:0.5;" x1="606" x2="893.751" y1="435.375" y2="435.375"/><text fill="#000000" font-family="sans-serif" font-size="14" lengthAdjust="spacing" textLength="277.751" x="611" y="452.3701">Main handler managing all components</text><text fill="#000000" font-family="sans-serif" font-size="14" lengthAdjust="spacing" textLength="13.3506" x="611" y="468.667">...</text><line style="stroke:#181818;stroke-width:0.5;" x1="606" x2="893.751" y1="475.9688" y2="475.9688"/><ellipse cx="616" cy="489.6172" fill="#84BE84" rx="3" ry="3" style="stroke:#038048;stroke-width:1;"/><text fill="#000000" font-family="sans-serif" font-size="14" lengthAdjust="spacing" textLength="108.3086" x="625" y="492.9639">Initialize(): void</text><ellipse cx="616" cy="505.9141" fill="#84BE84" rx="3" ry="3" style="stroke:#038048;stroke-width:1;"/><text fill="#000000" font-family="sans-serif" font-size="14" lengthAdjust="spacing" textLength="113.3945" x="625" y="509.2607">RunOnce(): void</text></g><!--class msg_broker--><g id="elem_msg_broker"><rect codeLine="29" fill="#AFEEEE" height="129.4844" id="msg_broker" rx="2.5" ry="2.5" style="stroke:#181818;stroke-width:0.5;" width="293.9824" x="562" y="799.375"/><ellipse cx="645.1953" cy="815.375" fill="#ADD1B2" rx="11" ry="11" style="stroke:#181818;stroke-width:1;"/><path d="M648.1641,821.0156 Q647.5859,821.3125 646.9453,821.4531 Q646.3047,821.6094 645.6016,821.6094 Q643.1016,821.6094 641.7734,819.9688 Q640.4609,818.3125 640.4609,815.1875 Q640.4609,812.0625 641.7734,810.4063 Q643.1016,808.75 645.6016,808.75 Q646.3047,808.75 646.9453,808.9063 Q647.6016,809.0625 648.1641,809.3594 L648.1641,812.0781 Q647.5391,811.5 646.9453,811.2344 Q646.3516,810.9531 645.7266,810.9531 Q644.3828,810.9531 643.6953,812.0313 Q643.0078,813.0938 643.0078,815.1875 Q643.0078,817.2813 643.6953,818.3594 Q644.3828,819.4219 645.7266,819.4219 Q646.3516,819.4219 646.9453,819.1563 Q647.5391,818.875 648.1641,818.2969 L648.1641,821.0156 Z " fill="#000000"/><text fill="#000000" font-family="sans-serif" font-size="14" lengthAdjust="spacing" textLength="107.7617" x="665.6953" y="820.2217">MessageBroker</text><rect fill="#FFFFFF" height="15.9688" style="stroke:#181818;stroke-width:1;stroke-dasharray:2.0,2.0;" width="9.3301" x="849.6523" y="796.375"/><text fill="#000000" font-family="sans-serif" font-size="12" font-style="italic" lengthAdjust="spacing" textLength="7.3301" x="850.6523" y="808.5137">T</text><line style="stroke:#181818;stroke-width:0.5;" x1="563" x2="854.9824" y1="831.375" y2="831.375"/><text fill="#000000" font-family="sans-serif" font-size="14" lengthAdjust="spacing" textLength="194.7764" x="568" y="848.3701">Central communication hub</text><text fill="#000000" font-family="sans-serif" font-size="14" lengthAdjust="spacing" textLength="13.3506" x="568" y="864.667">...</text><line style="stroke:#181818;stroke-width:0.5;" x1="563" x2="854.9824" y1="871.9688" y2="871.9688"/><ellipse cx="573" cy="885.6172" fill="#84BE84" rx="3" ry="3" style="stroke:#038048;stroke-width:1;"/><text fill="#000000" font-family="sans-serif" font-size="14" lengthAdjust="spacing" textLength="267.9824" x="582" y="888.9639">AddSubscriber(topic, subscriber): void</text><ellipse cx="573" cy="901.9141" fill="#84BE84" rx="3" ry="3" style="stroke:#038048;stroke-width:1;"/><text fill="#000000" font-family="sans-serif" font-size="14" lengthAdjust="spacing" textLength="246.1211" x="582" y="905.2607">AddProducer(topic, producer): void</text><rect fill="#F24D5C" height="6" style="stroke:#C82930;stroke-width:1;" width="6" x="570" y="915.2109"/><text fill="#000000" font-family="sans-serif" font-size="14" lengthAdjust="spacing" textLength="174.8291" x="582" y="921.5576">Publish(topic, data): void</text></g><!--class base_machine--><g id="elem_base_machine"><rect codeLine="37" fill="#F5F5DC" height="113.1875" id="base_machine" rx="2.5" ry="2.5" style="stroke:#181818;stroke-width:0.5;" width="201.7109" x="468" y="205.375"/><ellipse cx="518.2578" cy="221.375" fill="#A9DCDF" rx="11" ry="11" style="stroke:#181818;stroke-width:1;"/><path d="M518.3672,216.7188 L517.2109,221.7969 L519.5391,221.7969 L518.3672,216.7188 Z M516.8828,214.4844 L519.8672,214.4844 L523.2266,226.875 L520.7734,226.875 L520.0078,223.8125 L516.7266,223.8125 L515.9766,226.875 L513.5391,226.875 L516.8828,214.4844 Z " fill="#000000"/><text fill="#000000" font-family="sans-serif" font-size="14" font-style="italic" lengthAdjust="spacing" textLength="92.6953" x="538.7578" y="226.2217">BaseMachine</text><line style="stroke:#181818;stroke-width:0.5;" x1="469" x2="668.7109" y1="237.375" y2="237.375"/><text fill="#000000" font-family="sans-serif" font-size="14" lengthAdjust="spacing" textLength="189.7109" x="474" y="254.3701">Base class for all machines</text><text fill="#000000" font-family="sans-serif" font-size="14" lengthAdjust="spacing" textLength="13.3506" x="474" y="270.667">...</text><line style="stroke:#181818;stroke-width:0.5;" x1="469" x2="668.7109" y1="277.9688" y2="277.9688"/><ellipse cx="479" cy="291.6172" fill="#84BE84" rx="3" ry="3" style="stroke:#038048;stroke-width:1;"/><text fill="#000000" font-family="sans-serif" font-size="14" lengthAdjust="spacing" textLength="126.5332" x="488" y="294.9639">GetName(): string</text><ellipse cx="479" cy="307.9141" fill="#84BE84" rx="3" ry="3" style="stroke:#038048;stroke-width:1;"/><text fill="#000000" font-family="sans-serif" font-size="14" lengthAdjust="spacing" textLength="72.3789" x="488" y="311.2607">Init(): bool</text></g><!--class consumer--><g id="elem_consumer"><rect codeLine="44" fill="#F5F5DC" height="96.8906" id="consumer" rx="2.5" ry="2.5" style="stroke:#181818;stroke-width:0.5;" width="206.2227" x="930" y="411.375"/><ellipse cx="987.5024" cy="427.375" fill="#A9DCDF" rx="11" ry="11" style="stroke:#181818;stroke-width:1;"/><path d="M987.6118,422.7188 L986.4556,427.7969 L988.7837,427.7969 L987.6118,422.7188 Z M986.1274,420.4844 L989.1118,420.4844 L992.4712,432.875 L990.0181,432.875 L989.2524,429.8125 L985.9712,429.8125 L985.2212,432.875 L982.7837,432.875 L986.1274,420.4844 Z " fill="#000000"/><text fill="#000000" font-family="sans-serif" font-size="14" font-style="italic" lengthAdjust="spacing" textLength="71.3877" x="1008.0024" y="432.2217">Consumer</text><rect fill="#FFFFFF" height="15.9688" style="stroke:#181818;stroke-width:1;stroke-dasharray:2.0,2.0;" width="9.3301" x="1129.8926" y="408.375"/><text fill="#000000" font-family="sans-serif" font-size="12" font-style="italic" lengthAdjust="spacing" textLength="7.3301" x="1130.8926" y="420.5137">T</text><line style="stroke:#181818;stroke-width:0.5;" x1="931" x2="1135.2227" y1="443.375" y2="443.375"/><text fill="#000000" font-family="sans-serif" font-size="14" lengthAdjust="spacing" textLength="138.2773" x="936" y="460.3701">Consumer interface</text><text fill="#000000" font-family="sans-serif" font-size="14" lengthAdjust="spacing" textLength="13.3506" x="936" y="476.667">...</text><line style="stroke:#181818;stroke-width:0.5;" x1="931" x2="1135.2227" y1="483.9688" y2="483.9688"/><ellipse cx="941" cy="497.6172" fill="#84BE84" rx="3" ry="3" style="stroke:#038048;stroke-width:1;"/><text fill="#000000" font-family="sans-serif" font-size="14" lengthAdjust="spacing" textLength="180.2227" x="950" y="500.9639">OnMessage(data: T): void</text></g><!--class producer--><g id="elem_producer"><rect codeLine="50" fill="#F5F5DC" height="96.8906" id="producer" rx="2.5" ry="2.5" style="stroke:#181818;stroke-width:0.5;" width="265.5859" x="304" y="411.375"/><ellipse cx="395.583" cy="427.375" fill="#A9DCDF" rx="11" ry="11" style="stroke:#181818;stroke-width:1;"/><path d="M395.6924,422.7188 L394.5361,427.7969 L396.8643,427.7969 L395.6924,422.7188 Z M394.208,420.4844 L397.1924,420.4844 L400.5518,432.875 L398.0986,432.875 L397.333,429.8125 L394.0518,429.8125 L393.3018,432.875 L390.8643,432.875 L394.208,420.4844 Z " fill="#000000"/><text fill="#000000" font-family="sans-serif" font-size="14" font-style="italic" lengthAdjust="spacing" textLength="62.5898" x="416.083" y="432.2217">Producer</text><rect fill="#FFFFFF" height="15.9688" style="stroke:#181818;stroke-width:1;stroke-dasharray:2.0,2.0;" width="9.3301" x="563.2559" y="408.375"/><text fill="#000000" font-family="sans-serif" font-size="12" font-style="italic" lengthAdjust="spacing" textLength="7.3301" x="564.2559" y="420.5137">T</text><line style="stroke:#181818;stroke-width:0.5;" x1="305" x2="568.5859" y1="443.375" y2="443.375"/><text fill="#000000" font-family="sans-serif" font-size="14" lengthAdjust="spacing" textLength="129.4795" x="310" y="460.3701">Producer interface</text><text fill="#000000" font-family="sans-serif" font-size="14" lengthAdjust="spacing" textLength="13.3506" x="310" y="476.667">...</text><line style="stroke:#181818;stroke-width:0.5;" x1="305" x2="568.5859" y1="483.9688" y2="483.9688"/><ellipse cx="315" cy="497.6172" fill="#84BE84" rx="3" ry="3" style="stroke:#038048;stroke-width:1;"/><text fill="#000000" font-family="sans-serif" font-size="14" lengthAdjust="spacing" textLength="239.5859" x="324" y="500.9639">SetPublishCallback(callback): void</text></g><!--class proactive_machine--><g id="elem_proactive_machine"><rect codeLine="56" fill="#F5F5DC" height="113.1875" id="proactive_machine" rx="2.5" ry="2.5" style="stroke:#181818;stroke-width:0.5;" width="262.0928" x="7" y="403.375"/><ellipse cx="71.8354" cy="419.375" fill="#A9DCDF" rx="11" ry="11" style="stroke:#181818;stroke-width:1;"/><path d="M71.9448,414.7188 L70.7886,419.7969 L73.1167,419.7969 L71.9448,414.7188 Z M70.4604,412.4844 L73.4448,412.4844 L76.8042,424.875 L74.3511,424.875 L73.5854,421.8125 L70.3042,421.8125 L69.5542,424.875 L67.1167,424.875 L70.4604,412.4844 Z " fill="#000000"/><text fill="#000000" font-family="sans-serif" font-size="14" font-style="italic" lengthAdjust="spacing" textLength="123.9219" x="92.3354" y="424.2217">ProactiveMachine</text><line style="stroke:#181818;stroke-width:0.5;" x1="8" x2="268.0928" y1="435.375" y2="435.375"/><text fill="#000000" font-family="sans-serif" font-size="14" lengthAdjust="spacing" textLength="250.0928" x="13" y="452.3701">Machine with own execution thread</text><text fill="#000000" font-family="sans-serif" font-size="14" lengthAdjust="spacing" textLength="13.3506" x="13" y="468.667">...</text><line style="stroke:#181818;stroke-width:0.5;" x1="8" x2="268.0928" y1="475.9688" y2="475.9688"/><ellipse cx="18" cy="489.6172" fill="#84BE84" rx="3" ry="3" style="stroke:#038048;stroke-width:1;"/><text fill="#000000" font-family="sans-serif" font-size="14" lengthAdjust="spacing" textLength="83.918" x="27" y="492.9639">Start(): void</text><ellipse cx="18" cy="505.9141" fill="#84BE84" rx="3" ry="3" style="stroke:#038048;stroke-width:1;"/><text fill="#000000" font-family="sans-serif" font-size="14" lengthAdjust="spacing" textLength="81.5459" x="27" y="509.2607">Stop(): void</text></g><!--class reactive_machine--><g id="elem_reactive_machine"><rect codeLine="63" fill="#F5F5DC" height="64.2969" id="reactive_machine" rx="2.5" ry="2.5" style="stroke:#181818;stroke-width:0.5;" width="202.9619" x="1171.5" y="427.875"/><ellipse cx="1209.6583" cy="443.875" fill="#A9DCDF" rx="11" ry="11" style="stroke:#181818;stroke-width:1;"/><path d="M1209.7677,439.2188 L1208.6114,444.2969 L1210.9396,444.2969 L1209.7677,439.2188 Z M1208.2833,436.9844 L1211.2677,436.9844 L1214.6271,449.375 L1212.1739,449.375 L1211.4083,446.3125 L1208.1271,446.3125 L1207.3771,449.375 L1204.9396,449.375 L1208.2833,436.9844 Z " fill="#000000"/><text fill="#000000" font-family="sans-serif" font-size="14" font-style="italic" lengthAdjust="spacing" textLength="119.499" x="1228.8046" y="448.7217">ReactiveMachine</text><line style="stroke:#181818;stroke-width:0.5;" x1="1172.5" x2="1373.4619" y1="459.875" y2="459.875"/><text fill="#000000" font-family="sans-serif" font-size="14" lengthAdjust="spacing" textLength="190.9619" x="1177.5" y="476.8701">Machine reacting to events</text><line style="stroke:#181818;stroke-width:0.5;" x1="1172.5" x2="1373.4619" y1="484.1719" y2="484.1719"/></g><!--class ptp_machine--><g id="elem_ptp_machine"><rect codeLine="67" fill="#F5DEB3" height="113.1875" id="ptp_machine" rx="2.5" ry="2.5" style="stroke:#181818;stroke-width:0.5;" width="229.7451" x="170" y="601.375"/><ellipse cx="238.6021" cy="617.375" fill="#ADD1B2" rx="11" ry="11" style="stroke:#181818;stroke-width:1;"/><path d="M241.5708,623.0156 Q240.9927,623.3125 240.3521,623.4531 Q239.7114,623.6094 239.0083,623.6094 Q236.5083,623.6094 235.1802,621.9688 Q233.8677,620.3125 233.8677,617.1875 Q233.8677,614.0625 235.1802,612.4063 Q236.5083,610.75 239.0083,610.75 Q239.7114,610.75 240.3521,610.9063 Q241.0083,611.0625 241.5708,611.3594 L241.5708,614.0781 Q240.9458,613.5 240.3521,613.2344 Q239.7583,612.9531 239.1333,612.9531 Q237.7896,612.9531 237.1021,614.0313 Q236.4146,615.0938 236.4146,617.1875 Q236.4146,619.2813 237.1021,620.3594 Q237.7896,621.4219 239.1333,621.4219 Q239.7583,621.4219 240.3521,621.1563 Q240.9458,620.875 241.5708,620.2969 L241.5708,623.0156 Z " fill="#000000"/><text fill="#000000" font-family="sans-serif" font-size="14" lengthAdjust="spacing" textLength="84.041" x="259.1021" y="622.2217">PTPMachine</text><line style="stroke:#181818;stroke-width:0.5;" x1="171" x2="398.7451" y1="633.375" y2="633.375"/><text fill="#000000" font-family="sans-serif" font-size="14" lengthAdjust="spacing" textLength="217.7451" x="176" y="650.3701">Retrieves PTP time information</text><text fill="#000000" font-family="sans-serif" font-size="14" lengthAdjust="spacing" textLength="13.3506" x="176" y="666.667">...</text><line style="stroke:#181818;stroke-width:0.5;" x1="171" x2="398.7451" y1="673.9688" y2="673.9688"/><ellipse cx="181" cy="687.6172" fill="#84BE84" rx="3" ry="3" style="stroke:#038048;stroke-width:1;"/><text fill="#000000" font-family="sans-serif" font-size="14" lengthAdjust="spacing" textLength="72.3789" x="190" y="690.9639">Init(): bool</text><polygon fill="#FFFF44" points="181,698.9141,185,702.9141,181,706.9141,177,702.9141" style="stroke:#B38D22;stroke-width:1;"/><text fill="#000000" font-family="sans-serif" font-size="14" lengthAdjust="spacing" textLength="137.9902" x="190" y="707.2607">PeriodicTask(): void</text></g><!--class control_flow_divider--><g id="elem_control_flow_divider"><rect codeLine="74" fill="#ADD8E6" height="129.4844" id="control_flow_divider" rx="2.5" ry="2.5" style="stroke:#181818;stroke-width:0.5;" width="203.5977" x="435" y="593.375"/><ellipse cx="462.2827" cy="609.375" fill="#ADD1B2" rx="11" ry="11" style="stroke:#181818;stroke-width:1;"/><path d="M465.2515,615.0156 Q464.6733,615.3125 464.0327,615.4531 Q463.3921,615.6094 462.689,615.6094 Q460.189,615.6094 458.8608,613.9688 Q457.5483,612.3125 457.5483,609.1875 Q457.5483,606.0625 458.8608,604.4063 Q460.189,602.75 462.689,602.75 Q463.3921,602.75 464.0327,602.9063 Q464.689,603.0625 465.2515,603.3594 L465.2515,606.0781 Q464.6265,605.5 464.0327,605.2344 Q463.439,604.9531 462.814,604.9531 Q461.4702,604.9531 460.7827,606.0313 Q460.0952,607.0938 460.0952,609.1875 Q460.0952,611.2813 460.7827,612.3594 Q461.4702,613.4219 462.814,613.4219 Q463.439,613.4219 464.0327,613.1563 Q464.6265,612.875 465.2515,612.2969 L465.2515,615.0156 Z " fill="#000000"/><text fill="#000000" font-family="sans-serif" font-size="14" lengthAdjust="spacing" textLength="132.9727" x="479.0122" y="614.2217">ControlFlowDivider</text><rect fill="#FFFFFF" height="15.9688" style="stroke:#181818;stroke-width:1;stroke-dasharray:2.0,2.0;" width="9.3301" x="632.2676" y="590.375"/><text fill="#000000" font-family="sans-serif" font-size="12" font-style="italic" lengthAdjust="spacing" textLength="7.3301" x="633.2676" y="602.5137">T</text><line style="stroke:#181818;stroke-width:0.5;" x1="436" x2="637.5977" y1="625.375" y2="625.375"/><text fill="#000000" font-family="sans-serif" font-size="14" lengthAdjust="spacing" textLength="191.5977" x="441" y="642.3701">Decouples data flow timing</text><text fill="#000000" font-family="sans-serif" font-size="14" lengthAdjust="spacing" textLength="13.3506" x="441" y="658.667">...</text><line style="stroke:#181818;stroke-width:0.5;" x1="436" x2="637.5977" y1="665.9688" y2="665.9688"/><ellipse cx="446" cy="679.6172" fill="#84BE84" rx="3" ry="3" style="stroke:#038048;stroke-width:1;"/><text fill="#000000" font-family="sans-serif" font-size="14" lengthAdjust="spacing" textLength="162.5039" x="455" y="682.9639">OnMessage(data): void</text><polygon fill="#FFFF44" points="446,690.9141,450,694.9141,446,698.9141,442,694.9141" style="stroke:#B38D22;stroke-width:1;"/><text fill="#000000" font-family="sans-serif" font-size="14" lengthAdjust="spacing" textLength="109.7168" x="455" y="699.2607">OnEvent(): void</text><polygon fill="#FFFF44" points="446,707.2109,450,711.2109,446,715.2109,442,711.2109" style="stroke:#B38D22;stroke-width:1;"/><text fill="#000000" font-family="sans-serif" font-size="14" lengthAdjust="spacing" textLength="127.2305" x="455" y="715.5576">OnTimeout(): void</text></g><!--class ver_machine--><g id="elem_ver_machine"><rect codeLine="82" fill="#E6E6FA" height="96.8906" id="ver_machine" rx="2.5" ry="2.5" style="stroke:#181818;stroke-width:0.5;" width="242.9453" x="801.5" y="609.375"/><ellipse cx="844.0682" cy="625.375" fill="#ADD1B2" rx="11" ry="11" style="stroke:#181818;stroke-width:1;"/><path d="M847.037,631.0156 Q846.4588,631.3125 845.8182,631.4531 Q845.1776,631.6094 844.4745,631.6094 Q841.9745,631.6094 840.6463,629.9688 Q839.3338,628.3125 839.3338,625.1875 Q839.3338,622.0625 840.6463,620.4063 Q841.9745,618.75 844.4745,618.75 Q845.1776,618.75 845.8182,618.9063 Q846.4745,619.0625 847.037,619.3594 L847.037,622.0781 Q846.412,621.5 845.8182,621.2344 Q845.2245,620.9531 844.5995,620.9531 Q843.2557,620.9531 842.5682,622.0313 Q841.8807,623.0938 841.8807,625.1875 Q841.8807,627.2813 842.5682,628.3594 Q843.2557,629.4219 844.5995,629.4219 Q845.2245,629.4219 845.8182,629.1563 Q846.412,628.875 847.037,628.2969 L847.037,631.0156 Z " fill="#000000"/><text fill="#000000" font-family="sans-serif" font-size="14" lengthAdjust="spacing" textLength="138.3525" x="864.1945" y="630.2217">VerificationMachine</text><rect fill="#FFFFFF" height="15.9688" style="stroke:#181818;stroke-width:1;stroke-dasharray:2.0,2.0;" width="9.3301" x="1038.1152" y="606.375"/><text fill="#000000" font-family="sans-serif" font-size="12" font-style="italic" lengthAdjust="spacing" textLength="7.3301" x="1039.1152" y="618.5137">T</text><line style="stroke:#181818;stroke-width:0.5;" x1="802.5" x2="1043.4453" y1="641.375" y2="641.375"/><text fill="#000000" font-family="sans-serif" font-size="14" lengthAdjust="spacing" textLength="230.9453" x="807.5" y="658.3701">Validates and qualifies time data</text><text fill="#000000" font-family="sans-serif" font-size="14" lengthAdjust="spacing" textLength="13.3506" x="807.5" y="674.667">...</text><line style="stroke:#181818;stroke-width:0.5;" x1="802.5" x2="1043.4453" y1="681.9688" y2="681.9688"/><ellipse cx="812.5" cy="695.6172" fill="#84BE84" rx="3" ry="3" style="stroke:#038048;stroke-width:1;"/><text fill="#000000" font-family="sans-serif" font-size="14" lengthAdjust="spacing" textLength="162.5039" x="821.5" y="698.9639">OnMessage(data): void</text></g><!--class ipc_publisher--><g id="elem_ipc_publisher"><rect codeLine="88" fill="#FFB6C1" height="96.8906" id="ipc_publisher" rx="2.5" ry="2.5" style="stroke:#181818;stroke-width:0.5;" width="387.1221" x="1079.5" y="609.375"/><ellipse cx="1220.5308" cy="625.375" fill="#ADD1B2" rx="11" ry="11" style="stroke:#181818;stroke-width:1;"/><path d="M1223.4995,631.0156 Q1222.9214,631.3125 1222.2808,631.4531 Q1221.6401,631.6094 1220.937,631.6094 Q1218.437,631.6094 1217.1089,629.9688 Q1215.7964,628.3125 1215.7964,625.1875 Q1215.7964,622.0625 1217.1089,620.4063 Q1218.437,618.75 1220.937,618.75 Q1221.6401,618.75 1222.2808,618.9063 Q1222.937,619.0625 1223.4995,619.3594 L1223.4995,622.0781 Q1222.8745,621.5 1222.2808,621.2344 Q1221.687,620.9531 1221.062,620.9531 Q1219.7183,620.9531 1219.0308,622.0313 Q1218.3433,623.0938 1218.3433,625.1875 Q1218.3433,627.2813 1219.0308,628.3594 Q1219.7183,629.4219 1221.062,629.4219 Q1221.687,629.4219 1222.2808,629.1563 Q1222.8745,628.875 1223.4995,628.2969 L1223.4995,631.0156 Z " fill="#000000"/><text fill="#000000" font-family="sans-serif" font-size="14" lengthAdjust="spacing" textLength="85.2305" x="1241.0308" y="630.2217">IpcPublisher</text><rect fill="#FFFFFF" height="15.9688" style="stroke:#181818;stroke-width:1;stroke-dasharray:2.0,2.0;" width="9.3301" x="1460.292" y="606.375"/><text fill="#000000" font-family="sans-serif" font-size="12" font-style="italic" lengthAdjust="spacing" textLength="7.3301" x="1461.292" y="618.5137">T</text><line style="stroke:#181818;stroke-width:0.5;" x1="1080.5" x2="1465.6221" y1="641.375" y2="641.375"/><text fill="#000000" font-family="sans-serif" font-size="14" lengthAdjust="spacing" textLength="13.3506" x="1085.5" y="658.3701">...</text><line style="stroke:#181818;stroke-width:0.5;" x1="1080.5" x2="1465.6221" y1="665.6719" y2="665.6719"/><text fill="#000000" font-family="sans-serif" font-size="14" lengthAdjust="spacing" textLength="361.1221" x="1099.5" y="682.667">Publishes time data via IPC (score::communication)</text><ellipse cx="1090.5" cy="695.6172" fill="#84BE84" rx="3" ry="3" style="stroke:#038048;stroke-width:1;"/><text fill="#000000" font-family="sans-serif" font-size="14" lengthAdjust="spacing" textLength="162.5039" x="1099.5" y="698.9639">OnMessage(data): void</text></g><!--class ipc_receiver--><g id="elem_ipc_receiver"><rect codeLine="94" fill="#FFB6C1" height="96.8906" id="ipc_receiver" rx="2.5" ry="2.5" style="stroke:#181818;stroke-width:0.5;" width="383.7998" x="1410" y="411.375"/><ellipse cx="1551.0308" cy="427.375" fill="#ADD1B2" rx="11" ry="11" style="stroke:#181818;stroke-width:1;"/><path d="M1553.9995,433.0156 Q1553.4214,433.3125 1552.7808,433.4531 Q1552.1401,433.6094 1551.437,433.6094 Q1548.937,433.6094 1547.6089,431.9688 Q1546.2964,430.3125 1546.2964,427.1875 Q1546.2964,424.0625 1547.6089,422.4063 Q1548.937,420.75 1551.437,420.75 Q1552.1401,420.75 1552.7808,420.9063 Q1553.437,421.0625 1553.9995,421.3594 L1553.9995,424.0781 Q1553.3745,423.5 1552.7808,423.2344 Q1552.187,422.9531 1551.562,422.9531 Q1550.2183,422.9531 1549.5308,424.0313 Q1548.8433,425.0938 1548.8433,427.1875 Q1548.8433,429.2813 1549.5308,430.3594 Q1550.2183,431.4219 1551.562,431.4219 Q1552.187,431.4219 1552.7808,431.1563 Q1553.3745,430.875 1553.9995,430.2969 L1553.9995,433.0156 Z " fill="#000000"/><text fill="#000000" font-family="sans-serif" font-size="14" lengthAdjust="spacing" textLength="81.9082" x="1571.5308" y="432.2217">IpcReceiver</text><rect fill="#FFFFFF" height="15.9688" style="stroke:#181818;stroke-width:1;stroke-dasharray:2.0,2.0;" width="9.3301" x="1787.4697" y="408.375"/><text fill="#000000" font-family="sans-serif" font-size="12" font-style="italic" lengthAdjust="spacing" textLength="7.3301" x="1788.4697" y="420.5137">T</text><line style="stroke:#181818;stroke-width:0.5;" x1="1411" x2="1792.7998" y1="443.375" y2="443.375"/><text fill="#000000" font-family="sans-serif" font-size="14" lengthAdjust="spacing" textLength="13.3506" x="1416" y="460.3701">...</text><line style="stroke:#181818;stroke-width:0.5;" x1="1411" x2="1792.7998" y1="467.6719" y2="467.6719"/><text fill="#000000" font-family="sans-serif" font-size="14" lengthAdjust="spacing" textLength="357.7998" x="1430" y="484.667">Receives time data via IPC (score::communication)</text><ellipse cx="1421" cy="497.6172" fill="#84BE84" rx="3" ry="3" style="stroke:#038048;stroke-width:1;"/><text fill="#000000" font-family="sans-serif" font-size="14" lengthAdjust="spacing" textLength="239.7363" x="1430" y="500.9639">Receive(): optional&lt;PtpTimeInfo&gt;</text></g><!--class mw_svt--><g id="elem_mw_svt"><rect codeLine="100" fill="#90EE90" height="96.8906" id="mw_svt" rx="2.5" ry="2.5" style="stroke:#181818;stroke-width:0.5;" width="155.8828" x="1524" y="213.375"/><ellipse cx="1545.4762" cy="229.375" fill="#ADD1B2" rx="11" ry="11" style="stroke:#181818;stroke-width:1;"/><path d="M1548.445,235.0156 Q1547.8668,235.3125 1547.2262,235.4531 Q1546.5856,235.6094 1545.8825,235.6094 Q1543.3825,235.6094 1542.0543,233.9688 Q1540.7418,232.3125 1540.7418,229.1875 Q1540.7418,226.0625 1542.0543,224.4063 Q1543.3825,222.75 1545.8825,222.75 Q1546.5856,222.75 1547.2262,222.9063 Q1547.8825,223.0625 1548.445,223.3594 L1548.445,226.0781 Q1547.82,225.5 1547.2262,225.2344 Q1546.6325,224.9531 1546.0075,224.9531 Q1544.6637,224.9531 1543.9762,226.0313 Q1543.2887,227.0938 1543.2887,229.1875 Q1543.2887,231.2813 1543.9762,232.3594 Q1544.6637,233.4219 1546.0075,233.4219 Q1546.6325,233.4219 1547.2262,233.1563 Q1547.82,232.875 1548.445,232.2969 L1548.445,235.0156 Z " fill="#000000"/><text fill="#000000" font-family="sans-serif" font-size="14" lengthAdjust="spacing" textLength="109.4912" x="1560.9154" y="234.2217">score::time::svt</text><line style="stroke:#181818;stroke-width:0.5;" x1="1525" x2="1678.8828" y1="245.375" y2="245.375"/><text fill="#000000" font-family="sans-serif" font-size="14" lengthAdjust="spacing" textLength="143.3223" x="1530" y="262.3701">Middleware time API</text><text fill="#000000" font-family="sans-serif" font-size="14" lengthAdjust="spacing" textLength="13.3506" x="1530" y="278.667">...</text><line style="stroke:#181818;stroke-width:0.5;" x1="1525" x2="1678.8828" y1="285.9688" y2="285.9688"/><ellipse cx="1535" cy="299.6172" fill="#84BE84" rx="3" ry="3" style="stroke:#038048;stroke-width:1;"/><text fill="#000000" font-family="sans-serif" font-size="14" lengthAdjust="spacing" textLength="129.8828" x="1544" y="302.9639">Now(): TimeStatus</text></g><!--reverse link base_machine to proactive_machine--><g id="link_base_machine_proactive_machine"><path codeLine="106" d="M451.6211,325.7664 C445.6611,328.7564 455.81,323.595 450,326.375 C391.46,354.355 325.48,382.815 269.32,406.145 " fill="transparent" id="base_machine-backto-proactive_machine" style="stroke:#181818;stroke-width:1;"/><polygon fill="transparent" points="467.71,317.695,448.9306,320.4035,454.3116,331.1294,467.71,317.695" style="stroke:#181818;stroke-width:1;"/></g><!--reverse link base_machine to reactive_machine--><g id="link_base_machine_reactive_machine"><path codeLine="107" d="M687.8618,284.2848 C805.7118,306.7448 987.65,345.875 1153,403.375 C1172.62,410.195 1193.37,419.135 1211.99,427.835 " fill="transparent" id="base_machine-backto-reactive_machine" style="stroke:#181818;stroke-width:1;"/><polygon fill="transparent" points="670.18,280.915,686.7385,290.1787,688.985,278.3909,670.18,280.915" style="stroke:#181818;stroke-width:1;"/></g><!--reverse link proactive_machine to ptp_machine--><g id="link_proactive_machine_ptp_machine"><path codeLine="109" d="M190.53,530.915 C210.39,557.395 223.29,574.595 243.16,601.095 " fill="transparent" id="proactive_machine-backto-ptp_machine" style="stroke:#181818;stroke-width:1;stroke-dasharray:7.0,7.0;"/><polygon fill="transparent" points="179.73,516.515,185.73,534.515,195.33,527.315,179.73,516.515" style="stroke:#181818;stroke-width:1;"/></g><!--reverse link proactive_machine to control_flow_divider--><g id="link_proactive_machine_control_flow_divider"><path codeLine="110" d="M274.3161,524.1506 C323.7761,547.4306 365.24,567.405 417,593.375 C422.79,596.285 428.73,599.295 434.7,602.365 " fill="transparent" id="proactive_machine-backto-control_flow_divider" style="stroke:#181818;stroke-width:1;stroke-dasharray:7.0,7.0;"/><polygon fill="transparent" points="258.03,516.485,271.7609,529.5793,276.8713,518.7219,258.03,516.485" style="stroke:#181818;stroke-width:1;"/></g><!--reverse link reactive_machine to ver_machine--><g id="link_reactive_machine_ver_machine"><path codeLine="111" d="M1234.0708,505.549 C1213.2208,528.239 1194.58,544.785 1162,563.375 C1121.7,586.375 1105.43,577.025 1062,593.375 C1049.21,598.185 1035.94,603.635 1022.91,609.265 " fill="transparent" id="reactive_machine-backto-ver_machine" style="stroke:#181818;stroke-width:1;stroke-dasharray:7.0,7.0;"/><polygon fill="transparent" points="1246.25,492.295,1229.6528,501.4893,1238.4888,509.6087,1246.25,492.295" style="stroke:#181818;stroke-width:1;"/></g><!--reverse link reactive_machine to ipc_publisher--><g id="link_reactive_machine_ipc_publisher"><path codeLine="112" d="M1273,509.935 C1273,541.455 1273,572.665 1273,609.145 " fill="transparent" id="reactive_machine-backto-ipc_publisher" style="stroke:#181818;stroke-width:1;stroke-dasharray:7.0,7.0;"/><polygon fill="transparent" points="1273,491.935,1267,509.935,1279,509.935,1273,491.935" style="stroke:#181818;stroke-width:1;"/></g><!--reverse link consumer to control_flow_divider--><g id="link_consumer_control_flow_divider"><path codeLine="114" d="M973.9811,520.7041 C951.7211,540.9741 936.7,550.705 907,563.375 C807.73,605.745 769.41,562.445 666,593.375 C657.15,596.025 648.17,599.225 639.27,602.785 " fill="transparent" id="consumer-backto-control_flow_divider" style="stroke:#181818;stroke-width:1;stroke-dasharray:7.0,7.0;"/><polygon fill="transparent" points="987.29,508.585,969.9414,516.2678,978.0208,525.1404,987.29,508.585" style="stroke:#181818;stroke-width:1;"/></g><!--reverse link consumer to ver_machine--><g id="link_consumer_ver_machine"><path codeLine="115" d="M1019.7391,525.9212 C1015.2391,543.8112 1013.13,546.445 1004,563.375 C995.33,579.445 983.49,595.145 971.54,608.955 " fill="transparent" id="consumer-backto-ver_machine" style="stroke:#181818;stroke-width:1;stroke-dasharray:7.0,7.0;"/><polygon fill="transparent" points="1024.13,508.465,1013.9204,524.4576,1025.5579,527.3849,1024.13,508.465" style="stroke:#181818;stroke-width:1;"/></g><!--reverse link consumer to ipc_publisher--><g id="link_consumer_ipc_publisher"><path codeLine="116" d="M1125.1014,518.4527 C1142.6214,530.2227 1145.86,533.215 1162,546.375 C1185.49,565.535 1209.58,588.975 1229.28,609.315 " fill="transparent" id="consumer-backto-ipc_publisher" style="stroke:#181818;stroke-width:1;stroke-dasharray:7.0,7.0;"/><polygon fill="transparent" points="1110.16,508.415,1121.7555,523.4331,1128.4473,513.4722,1110.16,508.415" style="stroke:#181818;stroke-width:1;"/></g><!--reverse link producer to ptp_machine--><g id="link_producer_ptp_machine"><path codeLine="118" d="M388.9788,522.7987 C367.2788,550.7787 350.78,572.055 328.09,601.305 " fill="transparent" id="producer-backto-ptp_machine" style="stroke:#181818;stroke-width:1;stroke-dasharray:7.0,7.0;"/><polygon fill="transparent" points="400.01,508.575,384.2376,519.1216,393.72,526.4757,400.01,508.575" style="stroke:#181818;stroke-width:1;"/></g><!--reverse link producer to control_flow_divider--><g id="link_producer_control_flow_divider"><path codeLine="119" d="M449.4444,526.0161 C453.6344,543.8161 455.54,546.315 464,563.375 C469.03,573.525 475.27,583.625 481.96,593.235 " fill="transparent" id="producer-backto-control_flow_divider" style="stroke:#181818;stroke-width:1;stroke-dasharray:7.0,7.0;"/><polygon fill="transparent" points="445.32,508.495,443.604,527.3909,455.2847,524.6413,445.32,508.495" style="stroke:#181818;stroke-width:1;"/></g><!--reverse link producer to ver_machine--><g id="link_producer_ver_machine"><path codeLine="120" d="M580.6238,514.37 C588.5138,517.11 579.35,513.865 587,516.375 C632.7,531.395 646.02,529.305 691,546.375 C738.55,564.415 789.76,588.305 831.94,609.255 " fill="transparent" id="producer-backto-ver_machine" style="stroke:#181818;stroke-width:1;stroke-dasharray:7.0,7.0;"/><polygon fill="transparent" points="563.62,508.465,578.6555,520.038,582.5922,508.7021,563.62,508.465" style="stroke:#181818;stroke-width:1;"/></g><!--link ptp_machine to msg_broker--><g id="link_ptp_machine_msg_broker"><path codeLine="122" d="M363.32,714.635 C391.71,733.445 424.55,753.645 456,769.375 C489.4,786.085 520.9225,799.347 556.2325,812.597 " fill="transparent" id="ptp_machine-to-msg_broker" style="stroke:#181818;stroke-width:1;"/><polygon fill="#181818" points="561.85,814.705,554.829,807.798,557.1687,812.9484,552.0184,815.2881,561.85,814.705" style="stroke:#181818;stroke-width:1;"/><text fill="#000000" font-family="sans-serif" font-size="13" lengthAdjust="spacing" textLength="77.1431" x="457" y="765.4419">produces to</text></g><!--link control_flow_divider to msg_broker--><g id="link_control_flow_divider_msg_broker"><path codeLine="123" d="M535.31,722.535 C537.4,738.845 541.98,755.635 551,769.375 C558.26,780.435 562.8159,786.391 572.9059,795.271 " fill="transparent" id="control_flow_divider-to-msg_broker" style="stroke:#181818;stroke-width:1;"/><polygon fill="#181818" points="577.41,799.235,573.2965,790.2863,573.6566,795.9317,568.0112,796.2918,577.41,799.235" style="stroke:#181818;stroke-width:1;"/><text fill="#000000" font-family="sans-serif" font-size="13" lengthAdjust="spacing" textLength="130.127" x="552" y="765.4419">consumes/produces</text></g><!--link ver_machine to msg_broker--><g id="link_ver_machine_msg_broker"><path codeLine="124" d="M873.1,706.445 C844.07,734.115 811.4621,765.1942 779.9821,795.2142 " fill="transparent" id="ver_machine-to-msg_broker" style="stroke:#181818;stroke-width:1;"/><polygon fill="#181818" points="775.64,799.355,784.9137,796.0386,779.2584,795.9044,779.3927,790.2491,775.64,799.355" style="stroke:#181818;stroke-width:1;"/><text fill="#000000" font-family="sans-serif" font-size="13" lengthAdjust="spacing" textLength="130.127" x="824" y="765.4419">consumes/produces</text></g><!--link ipc_publisher to msg_broker--><g id="link_ipc_publisher_msg_broker"><path codeLine="125" d="M1141.48,706.445 C1056.03,737.355 950.1622,775.644 861.7822,807.614 " fill="transparent" id="ipc_publisher-to-msg_broker" style="stroke:#181818;stroke-width:1;"/><polygon fill="#181818" points="856.14,809.655,865.9639,810.355,860.8418,807.9542,863.2427,802.8321,856.14,809.655" style="stroke:#181818;stroke-width:1;"/><text fill="#000000" font-family="sans-serif" font-size="13" lengthAdjust="spacing" textLength="100.458" x="1009" y="765.4419">consumes from</text></g><!--reverse link mw_svt to ipc_receiver--><g id="link_mw_svt_ipc_receiver"><path codeLine="127" d="M1602,322.575 C1602,353.165 1602,380.735 1602,411.305 " fill="transparent" id="mw_svt-backto-ipc_receiver" style="stroke:#181818;stroke-width:1;"/><polygon fill="#181818" points="1602,310.575,1598,316.575,1602,322.575,1606,316.575,1602,310.575" style="stroke:#181818;stroke-width:1;"/><text fill="#000000" font-family="sans-serif" font-size="13" lengthAdjust="spacing" textLength="29.7832" x="1603" y="369.4419">uses</text></g><!--reverse link tb_handler to msg_broker--><g id="link_tb_handler_msg_broker"><path codeLine="129" d="M736.8528,528.2495 C732.5328,551.8895 730.04,567.995 727,593.375 C718.59,663.565 713.84,744.545 711.36,799.265 " fill="transparent" id="tb_handler-backto-msg_broker" style="stroke:#181818;stroke-width:1;"/><polygon fill="#181818" points="739.01,516.445,733.9966,521.6282,736.8528,528.2495,741.8663,523.0663,739.01,516.445" style="stroke:#181818;stroke-width:1;"/><text fill="#000000" font-family="sans-serif" font-size="13" lengthAdjust="spacing" textLength="55.0278" x="728" y="662.4419">contains</text></g><!--reverse link tb_handler to ptp_machine--><g id="link_tb_handler_ptp_machine"><path codeLine="130" d="M593.6762,520.4705 C534.9662,543.4605 477.96,566.625 417,593.375 C411.18,595.925 405.23,598.595 399.25,601.315 " fill="transparent" id="tb_handler-backto-ptp_machine" style="stroke:#181818;stroke-width:1;"/><polygon fill="#181818" points="604.85,516.095,597.8046,514.5581,593.6762,520.4705,600.7216,522.0074,604.85,516.095" style="stroke:#181818;stroke-width:1;"/><text fill="#000000" font-family="sans-serif" font-size="13" lengthAdjust="spacing" textLength="55.0278" x="527" y="559.4419">contains</text></g><!--reverse link tb_handler to control_flow_divider--><g id="link_tb_handler_control_flow_divider"><path codeLine="131" d="M652.8465,523.5766 C640.1265,532.9966 637.21,535.965 626,546.375 C610.83,560.455 596.04,577.185 583,593.325 " fill="transparent" id="tb_handler-backto-control_flow_divider" style="stroke:#181818;stroke-width:1;"/><polygon fill="#181818" points="662.49,516.435,655.2877,516.7913,652.8465,523.5766,660.0488,523.2203,662.49,516.435" style="stroke:#181818;stroke-width:1;"/><text fill="#000000" font-family="sans-serif" font-size="13" lengthAdjust="spacing" textLength="55.0278" x="627" y="559.4419">contains</text></g><!--reverse link tb_handler to ver_machine--><g id="link_tb_handler_ver_machine"><path codeLine="132" d="M809.4935,525.6621 C818.4035,535.4821 819.47,536.745 828,546.375 C846.12,566.825 865.85,589.695 882.62,609.295 " fill="transparent" id="tb_handler-backto-ver_machine" style="stroke:#181818;stroke-width:1;"/><polygon fill="#181818" points="801.43,516.775,802.4994,523.9064,809.4935,525.6621,808.4241,518.5307,801.43,516.775" style="stroke:#181818;stroke-width:1;"/><text fill="#000000" font-family="sans-serif" font-size="13" lengthAdjust="spacing" textLength="55.0278" x="843" y="559.4419">contains</text></g><!--reverse link tb_handler to ipc_publisher--><g id="link_tb_handler_ipc_publisher"><path codeLine="133" d="M906.5768,519.5563 C985.3168,549.0663 1070.46,580.975 1146.15,609.335 " fill="transparent" id="tb_handler-backto-ipc_publisher" style="stroke:#181818;stroke-width:1;"/><polygon fill="#181818" points="895.34,515.345,899.5546,521.1962,906.5768,519.5563,902.3621,513.7051,895.34,515.345" style="stroke:#181818;stroke-width:1;"/><text fill="#000000" font-family="sans-serif" font-size="13" lengthAdjust="spacing" textLength="55.0278" x="1013" y="559.4419">contains</text></g><!--SRC=[dLPDR-Cs4BthLmms5s-xSIz53uPXOEEqMmFDHaYCxT6WgB5DH2Ar96Ntm_tl7KgKHTfIDgql2OUFV6-6yo4hR86m5YNUCooLdC6oOCR0lM0xpKfuFA0-23mcIO4xb3bOLK61Mvi0_Kuml_bDxFPs-IUJ2u3Mrjy69POPQWF1xtG- -ViUcLq4Ev3Qwe7nlP080xzJp7bNr7ZcN2ffjIf-ATJnNXn4Zdha93kG5wWNPyulgCLMS6Q5ajVa5vofa2zdpbMw1AxAIacKrdn3xL9fLYpyISELnjcC3fUrzDn39-zGx32Aq1qp2Dmz4PgX295pxKCbIOE2TnHJzo0hkLNlW1cmjDW8Ma5xFVpTq3aCEBCkMpavimoCrJMtjSO6CvrEcx_VLxQQGIsa_Ud7rb0epegDkpgs6yjiRMPqiKt-EKjoNCwHNvbJgrjPsMRVBg5FAQ_jWGa9tMx99Di9kGDM547uOu4hAQnWXVWB9-zdS50YR-rFjNoKl3VscXxG6BR3EwrUKC_NYqPKQNQRhB70JSeANDVwQws4wOAs96PwLeWVSbzdiPgFUVvSPuPhGSKmeGeI_0EOioLIIDXKgxpcFRBown1tczPP8So-mxZN2fnY6RqSunQyToxQFhaRnp9QRqgVxL4Uz0a6b0jDa3tk8iIVq7vcPHDAug87wIFlR9bInP0IAbHJbts8kL_7AZgKInpKMyOl4l1H-lUQECTdi7x5zowS7MCNpfYnGuqnFgFr8LzIJ3B6NoRS__CwDwt48Gf-rHc7Nw1hGaTXzw2E4l0Fv7MJMNQlaUKNmYpJDixoPqgAoIkgdl1QbCQtQ6fHL7nM0HwQkkjBA5sdaPkswYzhUhs_x0afN-Yq0JhHzAEmyLmNyZcTdEKcfNwjSi7NpBmCrF7r80WopUrijhIroVsGw4U95tUFNDLLGUAQ1kZ0JcANtoCP68R_vb7-x48pkJ2whgTgEw1vO0Hrecdyza7iXfUN-eKQ796JL6gDyBMcvLPWs-4RzMzHtAjOLTndU1ypKV5DrHcXdu5TqVYjW1CEWZMJSJ8qvDx_PqbFo97ICbAalUrQa4V_Npt-k7iYLRbzLio3-Ra8fFdRcf4tCmVRpelZXlxriZvfnFC44paDhoFJs2hxcAvYvi_gw5WTqtCpCnrLrANdfzlRwzOnWBciv2IvRZZpqtGQ5kWOPAXcagjMqK23J1r1HCb4WUnw_3XJ30aPufsBcyyTViZDO6UGCuQ4d4dOqMvl5-7dmQmRAvHwAXbiDLSdl0_cX-ve4bRx6-1nTOuUWArMPPBuvFoEKYGg8lfYeu_990c-m1pcyYfB7s7c4XH6P1mr68vnU1Y5SLJiV83x5m00]--></g></svg>