<svg xmlns="http://www.w3.org/2000/svg" xmlns:xlink="http://www.w3.org/1999/xlink" contentStyleType="text/css" data-diagram-type="CLASS" height="603px" preserveAspectRatio="none" style="width:1006px;height:603px;background:#FFFFFF;" version="1.1" viewBox="0 0 1006 603" width="1006px" zoomAndPan="magnify"><title>MessageBroker: Class Diagram</title><defs/><g><text fill="#000000" font-family="sans-serif" font-size="14" font-weight="bold" lengthAdjust="spacing" textLength="245.3213" x="373.3555" y="22.9951">MessageBroker: Class Diagram</text><rect fill="#DDDDDD" height="62.8906" id="_legend" rx="7.5" ry="7.5" style="stroke:#000000;stroke-width:1;" width="292.8574" x="12" y="49.2969"/><text fill="#000000" font-family="sans-serif" font-size="14" font-weight="bold" lengthAdjust="spacing" textLength="41.2139" x="21.874" y="69.292">Color</text><text fill="#000000" font-family="sans-serif" font-size="14" font-weight="bold" lengthAdjust="spacing" textLength="90.5488" x="111.8281" y="69.292">Description</text><rect fill="#F5F5DC" height="16.2969" style="stroke:transparent;stroke-width:1;" width="89.9541" x="17" y="72.5938"/><text fill="#000000" font-family="sans-serif" font-size="14" lengthAdjust="spacing" textLength="31.1514" x="17" y="85.5889">&#160;&#160;&#160;&#160;&#160;&#160;&#160;</text><text fill="#000000" font-family="sans-serif" font-size="14" lengthAdjust="spacing" textLength="89.2021" x="111.4043" y="85.5889">Base classes</text><rect fill="#AFEEEE" height="16.2969" style="stroke:transparent;stroke-width:1;" width="89.9541" x="17" y="88.8906"/><text fill="#000000" font-family="sans-serif" font-size="14" lengthAdjust="spacing" textLength="4.4502" x="17" y="101.8857">&#160;</text><text fill="#000000" font-family="sans-serif" font-size="14" lengthAdjust="spacing" textLength="107.7617" x="111.4043" y="101.8857">MessageBroker</text><line style="stroke:#000000;stroke-width:1;" x1="17" x2="299.8574" y1="56.2969" y2="56.2969"/><line style="stroke:#000000;stroke-width:1;" x1="17" x2="299.8574" y1="72.5938" y2="72.5938"/><line style="stroke:#000000;stroke-width:1;" x1="17" x2="299.8574" y1="88.8906" y2="88.8906"/><line style="stroke:#000000;stroke-width:1;" x1="17" x2="299.8574" y1="105.1875" y2="105.1875"/><line style="stroke:#000000;stroke-width:1;" x1="17" x2="17" y1="56.2969" y2="105.1875"/><line style="stroke:#000000;stroke-width:1;" x1="106.9541" x2="106.9541" y1="56.2969" y2="105.1875"/><line style="stroke:#000000;stroke-width:1;" x1="299.8574" x2="299.8574" y1="56.2969" y2="105.1875"/><!--class time_info--><g id="elem_time_info"><rect codeLine="10" fill="#F5F5DC" height="96.8906" id="time_info" rx="2.5" ry="2.5" style="stroke:#181818;stroke-width:0.5;" width="151.3574" x="778.5" y="499.1875"/><ellipse cx="809.4078" cy="515.1875" fill="#ADD1B2" rx="11" ry="11" style="stroke:#181818;stroke-width:1;"/><path d="M812.3765,520.8281 Q811.7984,521.125 811.1578,521.2656 Q810.5171,521.4219 809.814,521.4219 Q807.314,521.4219 805.9859,519.7813 Q804.6734,518.125 804.6734,515 Q804.6734,511.875 805.9859,510.2188 Q807.314,508.5625 809.814,508.5625 Q810.5171,508.5625 811.1578,508.7188 Q811.814,508.875 812.3765,509.1719 L812.3765,511.8906 Q811.7515,511.3125 811.1578,511.0469 Q810.564,510.7656 809.939,510.7656 Q808.5953,510.7656 807.9078,511.8438 Q807.2203,512.9063 807.2203,515 Q807.2203,517.0938 807.9078,518.1719 Q808.5953,519.2344 809.939,519.2344 Q810.564,519.2344 811.1578,518.9688 Q811.7515,518.6875 812.3765,518.1094 L812.3765,520.8281 Z " fill="#000000"/><text fill="#000000" font-family="sans-serif" font-size="14" lengthAdjust="spacing" textLength="84.0068" x="826.9428" y="520.0342">PtpTimeInfo</text><line style="stroke:#181818;stroke-width:0.5;" x1="779.5" x2="928.8574" y1="531.1875" y2="531.1875"/><ellipse cx="789.5" cy="544.8359" fill="transparent" rx="3" ry="3" style="stroke:#038048;stroke-width:1;"/><text fill="#000000" font-family="sans-serif" font-size="14" lengthAdjust="spacing" textLength="77.3691" x="798.5" y="548.1826">ptp: uint64</text><ellipse cx="789.5" cy="561.1328" fill="transparent" rx="3" ry="3" style="stroke:#038048;stroke-width:1;"/><text fill="#000000" font-family="sans-serif" font-size="14" lengthAdjust="spacing" textLength="125.3574" x="798.5" y="564.4795">local_time: uint64</text><ellipse cx="789.5" cy="577.4297" fill="transparent" rx="3" ry="3" style="stroke:#038048;stroke-width:1;"/><text fill="#000000" font-family="sans-serif" font-size="14" lengthAdjust="spacing" textLength="70.4375" x="798.5" y="580.7764">status: int</text><line style="stroke:#181818;stroke-width:0.5;" x1="779.5" x2="928.8574" y1="588.0781" y2="588.0781"/></g><!--class topic--><g id="elem_topic"><rect codeLine="16" fill="#F5F5DC" height="80.5938" id="topic" rx="2.5" ry="2.5" style="stroke:#181818;stroke-width:0.5;" width="127.582" x="7" y="341.1875"/><ellipse cx="48.096" cy="357.1875" fill="#ADD1B2" rx="11" ry="11" style="stroke:#181818;stroke-width:1;"/><path d="M51.0648,362.8281 Q50.4867,363.125 49.846,363.2656 Q49.2054,363.4219 48.5023,363.4219 Q46.0023,363.4219 44.6742,361.7813 Q43.3617,360.125 43.3617,357 Q43.3617,353.875 44.6742,352.2188 Q46.0023,350.5625 48.5023,350.5625 Q49.2054,350.5625 49.846,350.7188 Q50.5023,350.875 51.0648,351.1719 L51.0648,353.8906 Q50.4398,353.3125 49.846,353.0469 Q49.2523,352.7656 48.6273,352.7656 Q47.2835,352.7656 46.596,353.8438 Q45.9085,354.9063 45.9085,357 Q45.9085,359.0938 46.596,360.1719 Q47.2835,361.2344 48.6273,361.2344 Q49.2523,361.2344 49.846,360.9688 Q50.4398,360.6875 51.0648,360.1094 L51.0648,362.8281 Z " fill="#000000"/><text fill="#000000" font-family="sans-serif" font-size="14" lengthAdjust="spacing" textLength="37.5908" x="67.8952" y="362.0342">Topic</text><line style="stroke:#181818;stroke-width:0.5;" x1="8" x2="133.582" y1="373.1875" y2="373.1875"/><rect fill="transparent" height="6" style="stroke:#C82930;stroke-width:1;" width="6" x="15" y="383.8359"/><text fill="#000000" font-family="sans-serif" font-size="14" lengthAdjust="spacing" textLength="96.0586" x="27" y="390.1826">name_: string</text><line style="stroke:#181818;stroke-width:0.5;" x1="8" x2="133.582" y1="397.4844" y2="397.4844"/><ellipse cx="18" cy="411.1328" fill="#84BE84" rx="3" ry="3" style="stroke:#038048;stroke-width:1;"/><text fill="#000000" font-family="sans-serif" font-size="14" lengthAdjust="spacing" textLength="101.582" x="27" y="414.4795">Name(): string</text></g><!--class consumer--><g id="elem_consumer"><rect codeLine="21" fill="#F5F5DC" height="64.2969" id="consumer" rx="2.5" ry="2.5" style="stroke:#181818;stroke-width:0.5;" width="206.2227" x="170" y="349.6875"/><ellipse cx="227.5024" cy="365.6875" fill="#A9DCDF" rx="11" ry="11" style="stroke:#181818;stroke-width:1;"/><path d="M227.6118,361.0313 L226.4556,366.1094 L228.7837,366.1094 L227.6118,361.0313 Z M226.1274,358.7969 L229.1118,358.7969 L232.4712,371.1875 L230.0181,371.1875 L229.2524,368.125 L225.9712,368.125 L225.2212,371.1875 L222.7837,371.1875 L226.1274,358.7969 Z " fill="#000000"/><text fill="#000000" font-family="sans-serif" font-size="14" font-style="italic" lengthAdjust="spacing" textLength="71.3877" x="248.0024" y="370.5342">Consumer</text><rect fill="#FFFFFF" height="15.9688" style="stroke:#181818;stroke-width:1;stroke-dasharray:2.0,2.0;" width="9.3301" x="369.8926" y="346.6875"/><text fill="#000000" font-family="sans-serif" font-size="12" font-style="italic" lengthAdjust="spacing" textLength="7.3301" x="370.8926" y="358.8262">T</text><line style="stroke:#181818;stroke-width:0.5;" x1="171" x2="375.2227" y1="381.6875" y2="381.6875"/><line style="stroke:#181818;stroke-width:0.5;" x1="171" x2="375.2227" y1="389.6875" y2="389.6875"/><ellipse cx="181" cy="403.3359" fill="#84BE84" rx="3" ry="3" style="stroke:#038048;stroke-width:1;"/><text fill="#000000" font-family="sans-serif" font-size="14" lengthAdjust="spacing" textLength="180.2227" x="190" y="406.6826">OnMessage(data: T): void</text></g><!--class producer--><g id="elem_producer"><rect codeLine="25" fill="#F5F5DC" height="64.2969" id="producer" rx="2.5" ry="2.5" style="stroke:#181818;stroke-width:0.5;" width="265.5859" x="411" y="349.6875"/><ellipse cx="502.583" cy="365.6875" fill="#A9DCDF" rx="11" ry="11" style="stroke:#181818;stroke-width:1;"/><path d="M502.6924,361.0313 L501.5361,366.1094 L503.8643,366.1094 L502.6924,361.0313 Z M501.208,358.7969 L504.1924,358.7969 L507.5518,371.1875 L505.0986,371.1875 L504.333,368.125 L501.0518,368.125 L500.3018,371.1875 L497.8643,371.1875 L501.208,358.7969 Z " fill="#000000"/><text fill="#000000" font-family="sans-serif" font-size="14" font-style="italic" lengthAdjust="spacing" textLength="62.5898" x="523.083" y="370.5342">Producer</text><rect fill="#FFFFFF" height="15.9688" style="stroke:#181818;stroke-width:1;stroke-dasharray:2.0,2.0;" width="9.3301" x="670.2559" y="346.6875"/><text fill="#000000" font-family="sans-serif" font-size="12" font-style="italic" lengthAdjust="spacing" textLength="7.3301" x="671.2559" y="358.8262">T</text><line style="stroke:#181818;stroke-width:0.5;" x1="412" x2="675.5859" y1="381.6875" y2="381.6875"/><line style="stroke:#181818;stroke-width:0.5;" x1="412" x2="675.5859" y1="389.6875" y2="389.6875"/><ellipse cx="422" cy="403.3359" fill="#84BE84" rx="3" ry="3" style="stroke:#038048;stroke-width:1;"/><text fill="#000000" font-family="sans-serif" font-size="14" lengthAdjust="spacing" textLength="239.5859" x="431" y="406.6826">SetPublishCallback(callback): void</text></g><!--class subscription--><g id="elem_subscription"><rect codeLine="29" fill="#AFEEEE" height="64.2969" id="subscription" rx="2.5" ry="2.5" style="stroke:#181818;stroke-width:0.5;" width="282.5322" x="712.5" y="349.6875"/><ellipse cx="800.3574" cy="365.6875" fill="#ADD1B2" rx="11" ry="11" style="stroke:#181818;stroke-width:1;"/><path d="M803.3262,371.3281 Q802.748,371.625 802.1074,371.7656 Q801.4668,371.9219 800.7637,371.9219 Q798.2637,371.9219 796.9355,370.2813 Q795.623,368.625 795.623,365.5 Q795.623,362.375 796.9355,360.7188 Q798.2637,359.0625 800.7637,359.0625 Q801.4668,359.0625 802.1074,359.2188 Q802.7637,359.375 803.3262,359.6719 L803.3262,362.3906 Q802.7012,361.8125 802.1074,361.5469 Q801.5137,361.2656 800.8887,361.2656 Q799.5449,361.2656 798.8574,362.3438 Q798.1699,363.4063 798.1699,365.5 Q798.1699,367.5938 798.8574,368.6719 Q799.5449,369.7344 800.8887,369.7344 Q801.5137,369.7344 802.1074,369.4688 Q802.7012,369.1875 803.3262,368.6094 L803.3262,371.3281 Z " fill="#000000"/><text fill="#000000" font-family="sans-serif" font-size="14" lengthAdjust="spacing" textLength="86.9873" x="820.8574" y="370.5342">Subscription</text><rect fill="#FFFFFF" height="15.9688" style="stroke:#181818;stroke-width:1;stroke-dasharray:2.0,2.0;" width="9.3301" x="988.7021" y="346.6875"/><text fill="#000000" font-family="sans-serif" font-size="12" font-style="italic" lengthAdjust="spacing" textLength="7.3301" x="989.7021" y="358.8262">T</text><line style="stroke:#181818;stroke-width:0.5;" x1="713.5" x2="994.0322" y1="381.6875" y2="381.6875"/><line style="stroke:#181818;stroke-width:0.5;" x1="713.5" x2="994.0322" y1="389.6875" y2="389.6875"/><ellipse cx="723.5" cy="403.3359" fill="#84BE84" rx="3" ry="3" style="stroke:#038048;stroke-width:1;"/><text fill="#000000" font-family="sans-serif" font-size="14" lengthAdjust="spacing" textLength="256.5322" x="732.5" y="406.6826">callback_: function&lt;void(const T&amp;)&gt;</text></g><!--class msg_broker--><g id="elem_msg_broker"><rect codeLine="33" fill="#AFEEEE" height="129.4844" id="msg_broker" rx="2.5" ry="2.5" style="stroke:#181818;stroke-width:0.5;" width="293.9824" x="261" y="135.1875"/><ellipse cx="344.1953" cy="151.1875" fill="#ADD1B2" rx="11" ry="11" style="stroke:#181818;stroke-width:1;"/><path d="M347.1641,156.8281 Q346.5859,157.125 345.9453,157.2656 Q345.3047,157.4219 344.6016,157.4219 Q342.1016,157.4219 340.7734,155.7813 Q339.4609,154.125 339.4609,151 Q339.4609,147.875 340.7734,146.2188 Q342.1016,144.5625 344.6016,144.5625 Q345.3047,144.5625 345.9453,144.7188 Q346.6016,144.875 347.1641,145.1719 L347.1641,147.8906 Q346.5391,147.3125 345.9453,147.0469 Q345.3516,146.7656 344.7266,146.7656 Q343.3828,146.7656 342.6953,147.8438 Q342.0078,148.9063 342.0078,151 Q342.0078,153.0938 342.6953,154.1719 Q343.3828,155.2344 344.7266,155.2344 Q345.3516,155.2344 345.9453,154.9688 Q346.5391,154.6875 347.1641,154.1094 L347.1641,156.8281 Z " fill="#000000"/><text fill="#000000" font-family="sans-serif" font-size="14" lengthAdjust="spacing" textLength="107.7617" x="364.6953" y="156.0342">MessageBroker</text><rect fill="#FFFFFF" height="15.9688" style="stroke:#181818;stroke-width:1;stroke-dasharray:2.0,2.0;" width="9.3301" x="548.6523" y="132.1875"/><text fill="#000000" font-family="sans-serif" font-size="12" font-style="italic" lengthAdjust="spacing" textLength="7.3301" x="549.6523" y="144.3262">T</text><line style="stroke:#181818;stroke-width:0.5;" x1="262" x2="553.9824" y1="167.1875" y2="167.1875"/><line style="stroke:#181818;stroke-width:0.5;" x1="262" x2="553.9824" y1="175.1875" y2="175.1875"/><ellipse cx="272" cy="188.8359" fill="#84BE84" rx="3" ry="3" style="stroke:#038048;stroke-width:1;"/><text fill="#000000" font-family="sans-serif" font-size="14" lengthAdjust="spacing" textLength="267.9824" x="281" y="192.1826">AddSubscriber(topic, subscriber): void</text><ellipse cx="272" cy="205.1328" fill="#84BE84" rx="3" ry="3" style="stroke:#038048;stroke-width:1;"/><text fill="#000000" font-family="sans-serif" font-size="14" lengthAdjust="spacing" textLength="246.1211" x="281" y="208.4795">AddProducer(topic, producer): void</text><rect fill="#F24D5C" height="6" style="stroke:#C82930;stroke-width:1;" width="6" x="269" y="218.4297"/><text fill="#000000" font-family="sans-serif" font-size="14" lengthAdjust="spacing" textLength="247.3242" x="281" y="224.7764">Subscribe(topic, subscription): void</text><rect fill="#F24D5C" height="6" style="stroke:#C82930;stroke-width:1;" width="6" x="269" y="234.7266"/><text fill="#000000" font-family="sans-serif" font-size="14" lengthAdjust="spacing" textLength="174.8291" x="281" y="241.0732">Publish(topic, data): void</text><rect fill="#F24D5C" height="6" style="stroke:#C82930;stroke-width:1;" width="6" x="269" y="251.0234"/><text fill="#000000" font-family="sans-serif" font-size="14" lengthAdjust="spacing" textLength="208.5371" x="281" y="257.3701">OnNewData(topic, data): void</text></g><g id="elem_GMN13"><path d="M590.5,172.1875 L590.5,195.6875 L555.16,199.6875 L590.5,203.6875 L590.5,227.5859 A0,0 0 0 0 590.5,227.5859 L777.688,227.5859 A0,0 0 0 0 777.688,227.5859 L777.688,182.1875 L767.688,172.1875 L590.5,172.1875 A0,0 0 0 0 590.5,172.1875 " fill="#FEFFDD" style="stroke:#181818;stroke-width:0.5;"/><path d="M767.688,172.1875 L767.688,182.1875 L777.688,182.1875 L767.688,172.1875 " fill="#FEFFDD" style="stroke:#181818;stroke-width:0.5;"/><text fill="#000000" font-family="sans-serif" font-size="13" lengthAdjust="spacing" textLength="100.0645" x="596.5" y="189.2544">MessageBroker</text><text fill="#000000" font-family="sans-serif" font-size="13" lengthAdjust="spacing" textLength="139.9849" x="596.5" y="204.3872">manages topic-based</text><text fill="#000000" font-family="sans-serif" font-size="13" lengthAdjust="spacing" textLength="166.188" x="596.5" y="219.52">publish-subscribe pattern</text></g><!--reverse link msg_broker to subscription--><g id="link_msg_broker_subscription"><path codeLine="41" d="M566.398,264.6183 C640.488,294.5183 716.11,325.0375 776.97,349.5975 " fill="transparent" id="msg_broker-backto-subscription" style="stroke:#181818;stroke-width:1;"/><polygon fill="#181818" points="555.27,260.1275,559.337,266.0823,566.398,264.6183,562.3309,258.6636,555.27,260.1275" style="stroke:#181818;stroke-width:1;"/><text fill="#000000" font-family="sans-serif" font-size="13" lengthAdjust="spacing" textLength="55.0278" x="671" y="307.2544">contains</text><text fill="#000000" font-family="sans-serif" font-size="13" lengthAdjust="spacing" textLength="8.271" x="563.0773" y="259.915">1</text><text fill="#000000" font-family="sans-serif" font-size="13" lengthAdjust="spacing" textLength="6.5" x="754.5636" y="338.482">*</text></g><!--link msg_broker to topic--><g id="link_msg_broker_topic"><path codeLine="42" d="M288.71,264.3975 C237.02,292.0075 183.8523,320.4105 140.5323,343.5505 " fill="transparent" id="msg_broker-to-topic" style="stroke:#181818;stroke-width:1;"/><polygon fill="#181818" points="135.24,346.3775,145.0631,345.6653,139.6502,344.0217,141.2938,338.6089,135.24,346.3775" style="stroke:#181818;stroke-width:1;"/><text fill="#000000" font-family="sans-serif" font-size="13" lengthAdjust="spacing" textLength="29.7832" x="231" y="307.2544">uses</text></g><!--link msg_broker to consumer--><g id="link_msg_broker_consumer"><path codeLine="43" d="M360.21,264.3975 C338.52,293.3275 317.449,321.4168 299.899,344.8268 " fill="transparent" id="msg_broker-to-consumer" style="stroke:#181818;stroke-width:1;stroke-dasharray:7.0,7.0;"/><polygon fill="#181818" points="296.3,349.6275,304.899,344.8257,299.2992,345.6269,298.498,340.027,296.3,349.6275" style="stroke:#181818;stroke-width:1;"/><text fill="#000000" font-family="sans-serif" font-size="13" lengthAdjust="spacing" textLength="57.1924" x="338" y="307.2544">registers</text></g><!--link msg_broker to producer--><g id="link_msg_broker_producer"><path codeLine="44" d="M456.14,264.3975 C477.99,293.3275 499.234,321.4296 516.914,344.8396 " fill="transparent" id="msg_broker-to-producer" style="stroke:#181818;stroke-width:1;stroke-dasharray:7.0,7.0;"/><polygon fill="#181818" points="520.53,349.6275,518.2979,340.0349,517.5167,345.6375,511.914,344.8563,520.53,349.6275" style="stroke:#181818;stroke-width:1;"/><text fill="#000000" font-family="sans-serif" font-size="13" lengthAdjust="spacing" textLength="57.1924" x="489" y="307.2544">registers</text></g><!--link subscription to time_info--><g id="link_subscription_time_info"><path codeLine="45" d="M854,413.9175 C854,437.9875 854,465.6875 854,493.1075 " fill="transparent" id="subscription-to-time_info" style="stroke:#181818;stroke-width:1;"/><polygon fill="#181818" points="854,499.1075,858,490.1075,854,494.1075,850,490.1075,854,499.1075" style="stroke:#181818;stroke-width:1;"/><text fill="#000000" font-family="sans-serif" font-size="13" lengthAdjust="spacing" textLength="51.2827" x="855" y="465.2544">delivers</text></g><!--SRC=[VLHDRvmm4BtpAqPKgaXQ8bMgUa0fKdVtqaEJbS9zPM2MM34sjOVqqEr_xnWmWIsgJ_RZ-RtvCYH98Vn0vqI3EsjUq6QmLy8vE4ZHMD56aS86TGraEb1ufWXuNRx2tYXZ8Im63kWgApkIHiF6kemNuVxT3cM3UO1X9nn2vJtH_V_YKIWiUlkpDzAnm6KT-CP5ZdkCFee60uYFr1MonU_wR68G3eWF9yad6CE2tuFRXuww37gfwSld4L2c4khawMlSaQ3UPS1Gz6UsAKmdgz70xzRYgHPice4ZAtKpoZmmbDpC62k9alUY8fWazqQxlaLxN-I3S3MThm9_r5DHabgGoA1WqLSZwot9epLrNxr9TjFvIl89wTYNIhhdlL2g5DLBKasRXVYa-TINynW4NRV0ODt5u144kIpdNbV3RQ-S-3G9YlSt-S9arVVWqhhcL8wJiEtnhQwdw4gqoT2OZo4sHa8kWHkg4vYXEajUEWjUwGsvhfXJ2GFFTsVr_L4_uAy3eriCJdsHNlmfXjiqXVWsNjSsyrD1GcgtfATfFeqXZou_ikMtkxlyRP8oiDX8HsZ_uSoZiUIil0UN-JLbKAEIhvuLQKC8LZRF1EQyQDEGzwgL0z8ApS3qSjAI_mvZXRgnWEdSCUW4SHpQFtFm9j5V]--></g></svg>