<svg xmlns="http://www.w3.org/2000/svg" xmlns:xlink="http://www.w3.org/1999/xlink" contentStyleType="text/css" data-diagram-type="SEQUENCE" height="448px" preserveAspectRatio="none" style="width:721px;height:448px;background:#FFFFFF;" version="1.1" viewBox="0 0 721 448" width="721px" zoomAndPan="magnify"><title>Message Broker: Workflow Diagram</title><defs/><g><text fill="#000000" font-family="sans-serif" font-size="14" font-weight="bold" lengthAdjust="spacing" textLength="283.7256" x="220.5437" y="27.9951">Message Broker: Workflow Diagram</text><rect fill="#FFFFE0" height="304.4922" style="stroke:#181818;stroke-width:0.5;" width="568.9526" x="1" y="131.1875"/><text fill="#000000" font-family="sans-serif" font-size="13" font-weight="bold" lengthAdjust="spacing" textLength="149.3667" x="208.53" y="143.2544">VehicleTimeDaemon</text><g><title>MessageBroker</title><rect fill="#FFFFFF" height="210.9297" style="stroke:#181818;stroke-width:1;" width="10" x="290.1616" y="212.75"/></g><g><title>Consumer&lt;T&gt;</title><rect fill="#FFFFFF" height="64.2656" style="stroke:#181818;stroke-width:1;" width="10" x="502.2524" y="323.2813"/></g><rect fill="transparent" height="110.5313" style="stroke:#000000;stroke-width:1.5;" width="491.5322" x="224.2808" y="285.0156"/><g><title>Producer&lt;T&gt;</title><rect fill="transparent" height="260.0625" width="8" x="55.3013" y="181.6172"/><line style="stroke:#181818;stroke-width:0.5;stroke-dasharray:5.0,5.0;" x1="59" x2="59" y1="181.6172" y2="441.6797"/></g><g><title>MessageBroker</title><rect fill="transparent" height="260.0625" width="8" x="291.1616" y="181.6172"/><line style="stroke:#181818;stroke-width:0.5;stroke-dasharray:5.0,5.0;" x1="294.2808" x2="294.2808" y1="181.6172" y2="441.6797"/></g><g><title>Consumer&lt;T&gt;</title><rect fill="transparent" height="260.0625" width="8" x="503.2524" y="181.6172"/><line style="stroke:#181818;stroke-width:0.5;stroke-dasharray:5.0,5.0;" x1="506.5522" x2="506.5522" y1="181.6172" y2="441.6797"/></g><rect fill="#F5F5DC" height="30.2969" rx="2.5" ry="2.5" style="stroke:#181818;stroke-width:0.5;" width="108.6025" x="5" y="150.3203"/><text fill="#000000" font-family="sans-serif" font-size="14" lengthAdjust="spacing" textLength="94.6025" x="12" y="170.3154">Producer&lt;T&gt;</text><rect fill="#AFEEEE" height="30.2969" rx="2.5" ry="2.5" style="stroke:#181818;stroke-width:0.5;" width="121.7617" x="234.2808" y="150.3203"/><text fill="#000000" font-family="sans-serif" font-size="14" lengthAdjust="spacing" textLength="107.7617" x="241.2808" y="170.3154">MessageBroker</text><rect fill="#F5F5DC" height="30.2969" rx="2.5" ry="2.5" style="stroke:#181818;stroke-width:0.5;" width="117.4004" x="448.5522" y="150.3203"/><text fill="#000000" font-family="sans-serif" font-size="14" lengthAdjust="spacing" textLength="103.4004" x="455.5522" y="170.3154">Consumer&lt;T&gt;</text><g><title>MessageBroker</title><rect fill="#FFFFFF" height="210.9297" style="stroke:#181818;stroke-width:1;" width="10" x="290.1616" y="212.75"/></g><g><title>Consumer&lt;T&gt;</title><rect fill="#FFFFFF" height="64.2656" style="stroke:#181818;stroke-width:1;" width="10" x="502.2524" y="323.2813"/></g><polygon fill="#181818" points="278.1616,208.75,288.1616,212.75,278.1616,216.75,282.1616,212.75" style="stroke:#181818;stroke-width:1;"/><line style="stroke:#181818;stroke-width:1;" x1="59.3013" x2="284.1616" y1="212.75" y2="212.75"/><text fill="#FF0000" font-family="sans-serif" font-size="13" font-weight="bold" lengthAdjust="spacing" textLength="29.9736" x="66.3013" y="207.6841">[01]</text><text fill="#000000" font-family="sans-serif" font-size="13" lengthAdjust="spacing" textLength="177.8867" x="100.2749" y="207.6841">publish(topic, PTPTimeInfo)</text><line style="stroke:#181818;stroke-width:1;" x1="300.1616" x2="342.1616" y1="257.0156" y2="257.0156"/><line style="stroke:#181818;stroke-width:1;" x1="342.1616" x2="342.1616" y1="257.0156" y2="270.0156"/><line style="stroke:#181818;stroke-width:1;" x1="301.1616" x2="342.1616" y1="270.0156" y2="270.0156"/><polygon fill="#181818" points="311.1616,266.0156,301.1616,270.0156,311.1616,274.0156,307.1616,270.0156" style="stroke:#181818;stroke-width:1;"/><text fill="#FF0000" font-family="sans-serif" font-size="13" font-weight="bold" lengthAdjust="spacing" textLength="29.9736" x="307.1616" y="244.3833">[02]</text><text fill="#000000" font-family="sans-serif" font-size="13" lengthAdjust="spacing" textLength="144.1172" x="341.1353" y="236.8169">search for subscribers</text><text fill="#000000" font-family="sans-serif" font-size="13" lengthAdjust="spacing" textLength="135.6621" x="341.1353" y="251.9497">on provided &lt;topic&gt;</text><path d="M224.2808,285.0156 L300.9048,285.0156 L300.9048,292.1484 L290.9048,302.1484 L224.2808,302.1484 L224.2808,285.0156 " fill="#EEEEEE" style="stroke:#000000;stroke-width:1.5;"/><rect fill="transparent" height="110.5313" style="stroke:#000000;stroke-width:1.5;" width="491.5322" x="224.2808" y="285.0156"/><text fill="#000000" font-family="sans-serif" font-size="13" font-weight="bold" lengthAdjust="spacing" textLength="31.624" x="239.2808" y="298.0825">loop</text><text fill="#000000" font-family="sans-serif" font-size="11" font-weight="bold" lengthAdjust="spacing" textLength="161.9761" x="315.9048" y="297.2261">[for all found subscribers]</text><polygon fill="#181818" points="490.2524,319.2813,500.2524,323.2813,490.2524,327.2813,494.2524,323.2813" style="stroke:#181818;stroke-width:1;"/><line style="stroke:#181818;stroke-width:1;" x1="300.1616" x2="496.2524" y1="323.2813" y2="323.2813"/><text fill="#FF0000" font-family="sans-serif" font-size="13" font-weight="bold" lengthAdjust="spacing" textLength="29.9736" x="307.1616" y="318.2153">[03]</text><text fill="#000000" font-family="sans-serif" font-size="13" lengthAdjust="spacing" textLength="143.8125" x="341.1353" y="318.2153">callback(PTPTimeInfo)</text><path d="M517,336.2813 L517,361.2813 L705,361.2813 L705,346.2813 L695,336.2813 L517,336.2813 " fill="#FEFFDD" style="stroke:#181818;stroke-width:0.5;"/><path d="M695,336.2813 L695,346.2813 L705,346.2813 L695,336.2813 " fill="#FEFFDD" style="stroke:#181818;stroke-width:0.5;"/><text fill="#000000" font-family="sans-serif" font-size="13" lengthAdjust="spacing" textLength="167.813" x="523" y="353.3481">Process PTPTimeInfo data</text><polygon fill="#181818" points="311.1616,383.5469,301.1616,387.5469,311.1616,391.5469,307.1616,387.5469" style="stroke:#181818;stroke-width:1;"/><line style="stroke:#181818;stroke-width:1;" x1="305.1616" x2="506.2524" y1="387.5469" y2="387.5469"/><text fill="#FF0000" font-family="sans-serif" font-size="13" font-weight="bold" lengthAdjust="spacing" textLength="29.9736" x="317.1616" y="382.481">[04]</text><text fill="#000000" font-family="sans-serif" font-size="13" lengthAdjust="spacing" textLength="4.1323" x="351.1353" y="382.481">&#160;</text><polygon fill="#181818" points="70.3013,419.6797,60.3013,423.6797,70.3013,427.6797,66.3013,423.6797" style="stroke:#181818;stroke-width:1;"/><line style="stroke:#181818;stroke-width:1;stroke-dasharray:2.0,2.0;" x1="64.3013" x2="294.1616" y1="423.6797" y2="423.6797"/><text fill="#FF0000" font-family="sans-serif" font-size="13" font-weight="bold" lengthAdjust="spacing" textLength="29.9736" x="76.3013" y="418.6138">[05]</text><text fill="#000000" font-family="sans-serif" font-size="13" lengthAdjust="spacing" textLength="4.1323" x="110.2749" y="418.6138">&#160;</text><rect fill="#DDDDDD" height="62.8906" id="_legend" rx="7.5" ry="7.5" style="stroke:#000000;stroke-width:1;" width="287.9834" x="12" y="54.2969"/><text fill="#000000" font-family="sans-serif" font-size="14" font-weight="bold" lengthAdjust="spacing" textLength="41.2139" x="21.874" y="74.292">Color</text><text fill="#000000" font-family="sans-serif" font-size="14" font-weight="bold" lengthAdjust="spacing" textLength="90.5488" x="116.7021" y="74.292">Description</text><rect fill="#AFEEEE" height="16.2969" style="stroke:transparent;stroke-width:1;" width="94.8281" x="17" y="77.5938"/><text fill="#000000" font-family="sans-serif" font-size="14" lengthAdjust="spacing" textLength="4.4502" x="17" y="90.5889">&#160;</text><text fill="#000000" font-family="sans-serif" font-size="14" lengthAdjust="spacing" textLength="107.7617" x="116.2783" y="90.5889">MessageBroker</text><rect fill="#F5F5DC" height="16.2969" style="stroke:transparent;stroke-width:1;" width="94.8281" x="17" y="93.8906"/><text fill="#000000" font-family="sans-serif" font-size="14" lengthAdjust="spacing" textLength="40.0518" x="17" y="106.8857">&#160;&#160;&#160;&#160;&#160;&#160;&#160;&#160;&#160;</text><text fill="#000000" font-family="sans-serif" font-size="14" lengthAdjust="spacing" textLength="89.2021" x="116.2783" y="106.8857">Base classes</text><line style="stroke:#000000;stroke-width:1;" x1="17" x2="294.9834" y1="61.2969" y2="61.2969"/><line style="stroke:#000000;stroke-width:1;" x1="17" x2="294.9834" y1="77.5938" y2="77.5938"/><line style="stroke:#000000;stroke-width:1;" x1="17" x2="294.9834" y1="93.8906" y2="93.8906"/><line style="stroke:#000000;stroke-width:1;" x1="17" x2="294.9834" y1="110.1875" y2="110.1875"/><line style="stroke:#000000;stroke-width:1;" x1="17" x2="17" y1="61.2969" y2="110.1875"/><line style="stroke:#000000;stroke-width:1;" x1="111.8281" x2="111.8281" y1="61.2969" y2="110.1875"/><line style="stroke:#000000;stroke-width:1;" x1="294.9834" x2="294.9834" y1="61.2969" y2="110.1875"/><!--SRC=[TLB1Jkim4BpxArRb0j93ubo574elI23rK87G0w6DiqciEjvWEy2X7_ysYI3EA_XYQRtZcTdPQA8bkASGi2ROU3wGNyCZ-qDb-GEs1ckFhLADAGagvbZmfrBOHtPzMv27LLQnYw3Pih_sLEPPaV-zkdfPAMMf9bT2v0uiLL61dECrt0ojy7saigMWlUcYOGSdvpZXihCTMjht_grd4oY7uvVgIVHlg0sPMhg_wx31GA0jXa3X9pQHF0bNIhp20pL62x5fQOlKYiApErCtyOci36XawT17eqs7CeVLpdFPQ_BPFby11cXHDyRHQzSNC8avnIoCJAXGlnQJhwNlK_0Dkz2tfuHX9XnI67DJgPhBFALPWzIi2Ssvv6Nq7zZjTuFfMrVnXK8TpJj6IX3osOnU_BM6GEXr8_lYGMGCuSggX6Sdq-iylyikbP2DFBci2Sk23ArehTozY4r0e-7_c6Q7Qz22Ab0VpXTw1z2iUUuV7nnBqGyXBh-IwBGaaJg74YDE4fAnBjsEpoNzI3UiKIe-KI_ZLYg5pPFz1m00]--></g></svg>