<svg xmlns="http://www.w3.org/2000/svg" xmlns:xlink="http://www.w3.org/1999/xlink" contentStyleType="text/css" data-diagram-type="CLASS" height="726px" preserveAspectRatio="none" style="width:1001px;height:726px;background:#FFFFFF;" version="1.1" viewBox="0 0 1001 726" width="1001px" zoomAndPan="magnify"><title>IPC: Class Diagram</title><defs/><g><text fill="#000000" font-family="sans-serif" font-size="14" font-weight="bold" lengthAdjust="spacing" textLength="149.1055" x="419.4355" y="22.9951">IPC: Class Diagram</text><rect fill="#DDDDDD" height="79.1875" id="_legend" rx="7.5" ry="7.5" style="stroke:#000000;stroke-width:1;" width="313.4336" x="12" y="49.2969"/><text fill="#000000" font-family="sans-serif" font-size="14" font-weight="bold" lengthAdjust="spacing" textLength="41.2139" x="21.874" y="69.292">Color</text><text fill="#000000" font-family="sans-serif" font-size="14" font-weight="bold" lengthAdjust="spacing" textLength="90.5488" x="111.8281" y="69.292">Description</text><rect fill="#F5F5DC" height="16.2969" style="stroke:transparent;stroke-width:1;" width="89.9541" x="17" y="72.5938"/><text fill="#000000" font-family="sans-serif" font-size="14" lengthAdjust="spacing" textLength="31.1514" x="17" y="85.5889">&#160;&#160;&#160;&#160;&#160;&#160;&#160;</text><text fill="#000000" font-family="sans-serif" font-size="14" lengthAdjust="spacing" textLength="89.2021" x="111.4043" y="85.5889">Base classes</text><rect fill="#FFB6C1" height="16.2969" style="stroke:transparent;stroke-width:1;" width="89.9541" x="17" y="88.8906"/><text fill="#000000" font-family="sans-serif" font-size="14" lengthAdjust="spacing" textLength="13.3506" x="17" y="101.8857">&#160;&#160;&#160;</text><text fill="#000000" font-family="sans-serif" font-size="14" lengthAdjust="spacing" textLength="113.292" x="111.4043" y="101.8857">IPC components</text><rect fill="#F08080" height="16.2969" style="stroke:transparent;stroke-width:1;" width="89.9541" x="17" y="105.1875"/><text fill="#000000" font-family="sans-serif" font-size="14" lengthAdjust="spacing" textLength="8.9004" x="17" y="118.1826">&#160;&#160;</text><text fill="#000000" font-family="sans-serif" font-size="14" lengthAdjust="spacing" textLength="155.627" x="111.4043" y="118.1826">score::communication</text><line style="stroke:#000000;stroke-width:1;" x1="17" x2="320.4336" y1="56.2969" y2="56.2969"/><line style="stroke:#000000;stroke-width:1;" x1="17" x2="320.4336" y1="72.5938" y2="72.5938"/><line style="stroke:#000000;stroke-width:1;" x1="17" x2="320.4336" y1="88.8906" y2="88.8906"/><line style="stroke:#000000;stroke-width:1;" x1="17" x2="320.4336" y1="105.1875" y2="105.1875"/><line style="stroke:#000000;stroke-width:1;" x1="17" x2="320.4336" y1="121.4844" y2="121.4844"/><line style="stroke:#000000;stroke-width:1;" x1="17" x2="17" y1="56.2969" y2="121.4844"/><line style="stroke:#000000;stroke-width:1;" x1="106.9541" x2="106.9541" y1="56.2969" y2="121.4844"/><line style="stroke:#000000;stroke-width:1;" x1="320.4336" x2="320.4336" y1="56.2969" y2="121.4844"/><!--class time_info--><g id="elem_time_info"><rect codeLine="11" fill="#F5F5DC" height="96.8906" id="time_info" rx="2.5" ry="2.5" style="stroke:#181818;stroke-width:0.5;" width="151.3574" x="423" y="614.4844"/><ellipse cx="453.9078" cy="630.4844" fill="#ADD1B2" rx="11" ry="11" style="stroke:#181818;stroke-width:1;"/><path d="M456.8765,636.125 Q456.2984,636.4219 455.6578,636.5625 Q455.0171,636.7188 454.314,636.7188 Q451.814,636.7188 450.4859,635.0781 Q449.1734,633.4219 449.1734,630.2969 Q449.1734,627.1719 450.4859,625.5156 Q451.814,623.8594 454.314,623.8594 Q455.0171,623.8594 455.6578,624.0156 Q456.314,624.1719 456.8765,624.4688 L456.8765,627.1875 Q456.2515,626.6094 455.6578,626.3438 Q455.064,626.0625 454.439,626.0625 Q453.0953,626.0625 452.4078,627.1406 Q451.7203,628.2031 451.7203,630.2969 Q451.7203,632.3906 452.4078,633.4688 Q453.0953,634.5313 454.439,634.5313 Q455.064,634.5313 455.6578,634.2656 Q456.2515,633.9844 456.8765,633.4063 L456.8765,636.125 Z " fill="#000000"/><text fill="#000000" font-family="sans-serif" font-size="14" lengthAdjust="spacing" textLength="84.0068" x="471.4428" y="635.3311">PtpTimeInfo</text><line style="stroke:#181818;stroke-width:0.5;" x1="424" x2="573.3574" y1="646.4844" y2="646.4844"/><ellipse cx="434" cy="660.1328" fill="transparent" rx="3" ry="3" style="stroke:#038048;stroke-width:1;"/><text fill="#000000" font-family="sans-serif" font-size="14" lengthAdjust="spacing" textLength="77.3691" x="443" y="663.4795">ptp: uint64</text><ellipse cx="434" cy="676.4297" fill="transparent" rx="3" ry="3" style="stroke:#038048;stroke-width:1;"/><text fill="#000000" font-family="sans-serif" font-size="14" lengthAdjust="spacing" textLength="125.3574" x="443" y="679.7764">local_time: uint64</text><ellipse cx="434" cy="692.7266" fill="transparent" rx="3" ry="3" style="stroke:#038048;stroke-width:1;"/><text fill="#000000" font-family="sans-serif" font-size="14" lengthAdjust="spacing" textLength="70.4375" x="443" y="696.0732">status: int</text><line style="stroke:#181818;stroke-width:0.5;" x1="424" x2="573.3574" y1="703.375" y2="703.375"/></g><!--class base_machine--><g id="elem_base_machine"><rect codeLine="17" fill="#F5F5DC" height="80.5938" id="base_machine" rx="2.5" ry="2.5" style="stroke:#181818;stroke-width:0.5;" width="152.5332" x="7" y="148.4844"/><ellipse cx="34.5271" cy="164.4844" fill="#A9DCDF" rx="11" ry="11" style="stroke:#181818;stroke-width:1;"/><path d="M34.6364,159.8281 L33.4802,164.9063 L35.8083,164.9063 L34.6364,159.8281 Z M33.1521,157.5938 L36.1364,157.5938 L39.4958,169.9844 L37.0427,169.9844 L36.2771,166.9219 L32.9958,166.9219 L32.2458,169.9844 L29.8083,169.9844 L33.1521,157.5938 Z " fill="#000000"/><text fill="#000000" font-family="sans-serif" font-size="14" font-style="italic" lengthAdjust="spacing" textLength="92.6953" x="51.3108" y="169.3311">BaseMachine</text><line style="stroke:#181818;stroke-width:0.5;" x1="8" x2="158.5332" y1="180.4844" y2="180.4844"/><line style="stroke:#181818;stroke-width:0.5;" x1="8" x2="158.5332" y1="188.4844" y2="188.4844"/><ellipse cx="18" cy="202.1328" fill="#84BE84" rx="3" ry="3" style="stroke:#038048;stroke-width:1;"/><text fill="#000000" font-family="sans-serif" font-size="14" lengthAdjust="spacing" textLength="126.5332" x="27" y="205.4795">GetName(): string</text><ellipse cx="18" cy="218.4297" fill="#84BE84" rx="3" ry="3" style="stroke:#038048;stroke-width:1;"/><text fill="#000000" font-family="sans-serif" font-size="14" lengthAdjust="spacing" textLength="72.3789" x="27" y="221.7764">Init(): bool</text></g><!--class reactive_machine--><g id="elem_reactive_machine"><rect codeLine="22" fill="#F5F5DC" height="48" id="reactive_machine" rx="2.5" ry="2.5" style="stroke:#181818;stroke-width:0.5;" width="151.499" x="8" y="306.9844"/><ellipse cx="23" cy="322.9844" fill="#A9DCDF" rx="11" ry="11" style="stroke:#181818;stroke-width:1;"/><path d="M23.1094,318.3281 L21.9531,323.4063 L24.2813,323.4063 L23.1094,318.3281 Z M21.625,316.0938 L24.6094,316.0938 L27.9688,328.4844 L25.5156,328.4844 L24.75,325.4219 L21.4688,325.4219 L20.7188,328.4844 L18.2813,328.4844 L21.625,316.0938 Z " fill="#000000"/><text fill="#000000" font-family="sans-serif" font-size="14" font-style="italic" lengthAdjust="spacing" textLength="119.499" x="37" y="327.8311">ReactiveMachine</text><line style="stroke:#181818;stroke-width:0.5;" x1="9" x2="158.499" y1="338.9844" y2="338.9844"/><line style="stroke:#181818;stroke-width:0.5;" x1="9" x2="158.499" y1="346.9844" y2="346.9844"/></g><!--class consumer--><g id="elem_consumer"><rect codeLine="25" fill="#F5F5DC" height="64.2969" id="consumer" rx="2.5" ry="2.5" style="stroke:#181818;stroke-width:0.5;" width="206.2227" x="194.5" y="298.9844"/><ellipse cx="252.0024" cy="314.9844" fill="#A9DCDF" rx="11" ry="11" style="stroke:#181818;stroke-width:1;"/><path d="M252.1118,310.3281 L250.9556,315.4063 L253.2837,315.4063 L252.1118,310.3281 Z M250.6274,308.0938 L253.6118,308.0938 L256.9712,320.4844 L254.5181,320.4844 L253.7524,317.4219 L250.4712,317.4219 L249.7212,320.4844 L247.2837,320.4844 L250.6274,308.0938 Z " fill="#000000"/><text fill="#000000" font-family="sans-serif" font-size="14" font-style="italic" lengthAdjust="spacing" textLength="71.3877" x="272.5024" y="319.8311">Consumer</text><rect fill="#FFFFFF" height="15.9688" style="stroke:#181818;stroke-width:1;stroke-dasharray:2.0,2.0;" width="9.3301" x="394.3926" y="295.9844"/><text fill="#000000" font-family="sans-serif" font-size="12" font-style="italic" lengthAdjust="spacing" textLength="7.3301" x="395.3926" y="308.123">T</text><line style="stroke:#181818;stroke-width:0.5;" x1="195.5" x2="399.7227" y1="330.9844" y2="330.9844"/><line style="stroke:#181818;stroke-width:0.5;" x1="195.5" x2="399.7227" y1="338.9844" y2="338.9844"/><ellipse cx="205.5" cy="352.6328" fill="#84BE84" rx="3" ry="3" style="stroke:#038048;stroke-width:1;"/><text fill="#000000" font-family="sans-serif" font-size="14" lengthAdjust="spacing" textLength="180.2227" x="214.5" y="355.9795">OnMessage(data: T): void</text></g><!--class receiver--><g id="elem_receiver"><rect codeLine="29" fill="#F5F5DC" height="80.5938" id="receiver" rx="2.5" ry="2.5" style="stroke:#181818;stroke-width:0.5;" width="190.2813" x="647.5" y="290.4844"/><ellipse cx="702.1279" cy="306.4844" fill="#A9DCDF" rx="11" ry="11" style="stroke:#181818;stroke-width:1;"/><path d="M702.2373,301.8281 L701.0811,306.9063 L703.4092,306.9063 L702.2373,301.8281 Z M700.7529,299.5938 L703.7373,299.5938 L707.0967,311.9844 L704.6436,311.9844 L703.8779,308.9219 L700.5967,308.9219 L699.8467,311.9844 L697.4092,311.9844 L700.7529,299.5938 Z " fill="#000000"/><text fill="#000000" font-family="sans-serif" font-size="14" font-style="italic" lengthAdjust="spacing" textLength="61.1953" x="722.6279" y="311.3311">Receiver</text><rect fill="#FFFFFF" height="15.9688" style="stroke:#181818;stroke-width:1;stroke-dasharray:2.0,2.0;" width="9.3301" x="831.4512" y="287.4844"/><text fill="#000000" font-family="sans-serif" font-size="12" font-style="italic" lengthAdjust="spacing" textLength="7.3301" x="832.4512" y="299.623">T</text><line style="stroke:#181818;stroke-width:0.5;" x1="648.5" x2="836.7813" y1="322.4844" y2="322.4844"/><line style="stroke:#181818;stroke-width:0.5;" x1="648.5" x2="836.7813" y1="330.4844" y2="330.4844"/><ellipse cx="658.5" cy="344.1328" fill="#84BE84" rx="3" ry="3" style="stroke:#038048;stroke-width:1;"/><text fill="#000000" font-family="sans-serif" font-size="14" lengthAdjust="spacing" textLength="72.3789" x="667.5" y="347.4795">Init(): bool</text><ellipse cx="658.5" cy="360.4297" fill="#84BE84" rx="3" ry="3" style="stroke:#038048;stroke-width:1;"/><text fill="#000000" font-family="sans-serif" font-size="14" lengthAdjust="spacing" textLength="164.2813" x="667.5" y="363.7764">Receive(): optional&lt;T&gt;</text></g><!--class publisher_impl--><g id="elem_publisher_impl"><rect codeLine="34" fill="#FFB6C1" height="96.8906" id="publisher_impl" rx="2.5" ry="2.5" style="stroke:#181818;stroke-width:0.5;" width="431.1455" x="28" y="432.4844"/><ellipse cx="160.7505" cy="448.4844" fill="#ADD1B2" rx="11" ry="11" style="stroke:#181818;stroke-width:1;"/><path d="M163.7192,454.125 Q163.1411,454.4219 162.5005,454.5625 Q161.8599,454.7188 161.1567,454.7188 Q158.6567,454.7188 157.3286,453.0781 Q156.0161,451.4219 156.0161,448.2969 Q156.0161,445.1719 157.3286,443.5156 Q158.6567,441.8594 161.1567,441.8594 Q161.8599,441.8594 162.5005,442.0156 Q163.1567,442.1719 163.7192,442.4688 L163.7192,445.1875 Q163.0942,444.6094 162.5005,444.3438 Q161.9067,444.0625 161.2817,444.0625 Q159.938,444.0625 159.2505,445.1406 Q158.563,446.2031 158.563,448.2969 Q158.563,450.3906 159.2505,451.4688 Q159.938,452.5313 161.2817,452.5313 Q161.9067,452.5313 162.5005,452.2656 Q163.0942,451.9844 163.7192,451.4063 L163.7192,454.125 Z " fill="#000000"/><text fill="#000000" font-family="sans-serif" font-size="14" lengthAdjust="spacing" textLength="95.0605" x="181.2505" y="453.3311">PublisherImpl</text><rect fill="#FFFFFF" height="15.9688" style="stroke:#181818;stroke-width:1;stroke-dasharray:2.0,2.0;" width="60.084" x="402.0615" y="429.4844"/><text fill="#000000" font-family="sans-serif" font-size="12" font-style="italic" lengthAdjust="spacing" textLength="58.084" x="403.0615" y="441.623">DataType</text><line style="stroke:#181818;stroke-width:0.5;" x1="29" x2="458.1455" y1="464.4844" y2="464.4844"/><rect fill="transparent" height="6" style="stroke:#C82930;stroke-width:1;" width="6" x="36" y="475.1328"/><text fill="#000000" font-family="sans-serif" font-size="14" lengthAdjust="spacing" textLength="405.1455" x="48" y="481.4795">comm_publisher_: score::mw::com::Skeleton&lt;DataType&gt;</text><line style="stroke:#181818;stroke-width:0.5;" x1="29" x2="458.1455" y1="488.7813" y2="488.7813"/><ellipse cx="39" cy="502.4297" fill="#84BE84" rx="3" ry="3" style="stroke:#038048;stroke-width:1;"/><text fill="#000000" font-family="sans-serif" font-size="14" lengthAdjust="spacing" textLength="239.4355" x="48" y="505.7764">OnMessage(data: DataType): void</text><ellipse cx="39" cy="518.7266" fill="#84BE84" rx="3" ry="3" style="stroke:#038048;stroke-width:1;"/><text fill="#000000" font-family="sans-serif" font-size="14" lengthAdjust="spacing" textLength="72.3789" x="48" y="522.0732">Init(): bool</text></g><!--class receiver_impl--><g id="elem_receiver_impl"><rect codeLine="40" fill="#FFB6C1" height="96.8906" id="receiver_impl" rx="2.5" ry="2.5" style="stroke:#181818;stroke-width:0.5;" width="496.4766" x="494.5" y="432.4844"/><ellipse cx="661.5771" cy="448.4844" fill="#ADD1B2" rx="11" ry="11" style="stroke:#181818;stroke-width:1;"/><path d="M664.5459,454.125 Q663.9678,454.4219 663.3271,454.5625 Q662.6865,454.7188 661.9834,454.7188 Q659.4834,454.7188 658.1553,453.0781 Q656.8428,451.4219 656.8428,448.2969 Q656.8428,445.1719 658.1553,443.5156 Q659.4834,441.8594 661.9834,441.8594 Q662.6865,441.8594 663.3271,442.0156 Q663.9834,442.1719 664.5459,442.4688 L664.5459,445.1875 Q663.9209,444.6094 663.3271,444.3438 Q662.7334,444.0625 662.1084,444.0625 Q660.7646,444.0625 660.0771,445.1406 Q659.3896,446.2031 659.3896,448.2969 Q659.3896,450.3906 660.0771,451.4688 Q660.7646,452.5313 662.1084,452.5313 Q662.7334,452.5313 663.3271,452.2656 Q663.9209,451.9844 664.5459,451.4063 L664.5459,454.125 Z " fill="#000000"/><text fill="#000000" font-family="sans-serif" font-size="14" lengthAdjust="spacing" textLength="91.7383" x="682.0771" y="453.3311">ReceiverImpl</text><rect fill="#FFFFFF" height="15.9688" style="stroke:#181818;stroke-width:1;stroke-dasharray:2.0,2.0;" width="60.084" x="933.8926" y="429.4844"/><text fill="#000000" font-family="sans-serif" font-size="12" font-style="italic" lengthAdjust="spacing" textLength="58.084" x="934.8926" y="441.623">DataType</text><line style="stroke:#181818;stroke-width:0.5;" x1="495.5" x2="989.9766" y1="464.4844" y2="464.4844"/><rect fill="transparent" height="6" style="stroke:#C82930;stroke-width:1;" width="6" x="502.5" y="475.1328"/><text fill="#000000" font-family="sans-serif" font-size="14" lengthAdjust="spacing" textLength="470.4766" x="514.5" y="481.4795">comm_subscriber_: score::communication::Subscriber&lt;DataType&gt;</text><line style="stroke:#181818;stroke-width:0.5;" x1="495.5" x2="989.9766" y1="488.7813" y2="488.7813"/><ellipse cx="505.5" cy="502.4297" fill="#84BE84" rx="3" ry="3" style="stroke:#038048;stroke-width:1;"/><text fill="#000000" font-family="sans-serif" font-size="14" lengthAdjust="spacing" textLength="72.3789" x="514.5" y="505.7764">Init(): bool</text><ellipse cx="505.5" cy="518.7266" fill="#84BE84" rx="3" ry="3" style="stroke:#038048;stroke-width:1;"/><text fill="#000000" font-family="sans-serif" font-size="14" lengthAdjust="spacing" textLength="223.4941" x="514.5" y="522.0732">Receive(): optional&lt;DataType&gt;</text></g><!--class comm_publisher--><g id="elem_comm_publisher"><rect codeLine="46" fill="#F08080" height="113.1875" id="comm_publisher" rx="2.5" ry="2.5" style="stroke:#181818;stroke-width:0.5;" width="242.4541" x="122.5" y="606.4844"/><ellipse cx="137.5" cy="622.4844" fill="#ADD1B2" rx="11" ry="11" style="stroke:#181818;stroke-width:1;"/><path d="M140.4688,628.125 Q139.8906,628.4219 139.25,628.5625 Q138.6094,628.7188 137.9063,628.7188 Q135.4063,628.7188 134.0781,627.0781 Q132.7656,625.4219 132.7656,622.2969 Q132.7656,619.1719 134.0781,617.5156 Q135.4063,615.8594 137.9063,615.8594 Q138.6094,615.8594 139.25,616.0156 Q139.9063,616.1719 140.4688,616.4688 L140.4688,619.1875 Q139.8438,618.6094 139.25,618.3438 Q138.6563,618.0625 138.0313,618.0625 Q136.6875,618.0625 136,619.1406 Q135.3125,620.2031 135.3125,622.2969 Q135.3125,624.3906 136,625.4688 Q136.6875,626.5313 138.0313,626.5313 Q138.6563,626.5313 139.25,626.2656 Q139.8438,625.9844 140.4688,625.4063 L140.4688,628.125 Z " fill="#000000"/><text fill="#000000" font-family="sans-serif" font-size="14" lengthAdjust="spacing" textLength="199.124" x="151.5" y="627.3311">score::mw::com::AsSkeleton</text><rect fill="#FFFFFF" height="15.9688" style="stroke:#181818;stroke-width:1;stroke-dasharray:2.0,2.0;" width="9.3301" x="358.624" y="603.4844"/><text fill="#000000" font-family="sans-serif" font-size="12" font-style="italic" lengthAdjust="spacing" textLength="7.3301" x="359.624" y="615.623">T</text><line style="stroke:#181818;stroke-width:0.5;" x1="123.5" x2="363.9541" y1="638.4844" y2="638.4844"/><text fill="#000000" font-family="sans-serif" font-size="14" lengthAdjust="spacing" textLength="193.8945" x="128.5" y="655.4795">Communication abstraction</text><text fill="#000000" font-family="sans-serif" font-size="14" lengthAdjust="spacing" textLength="13.3506" x="128.5" y="671.7764">...</text><line style="stroke:#181818;stroke-width:0.5;" x1="123.5" x2="363.9541" y1="679.0781" y2="679.0781"/><ellipse cx="133.5" cy="692.7266" fill="#84BE84" rx="3" ry="3" style="stroke:#038048;stroke-width:1;"/><text fill="#000000" font-family="sans-serif" font-size="14" lengthAdjust="spacing" textLength="134.2305" x="142.5" y="696.0732">Send(data: T): void</text><ellipse cx="133.5" cy="709.0234" fill="#84BE84" rx="3" ry="3" style="stroke:#038048;stroke-width:1;"/><text fill="#000000" font-family="sans-serif" font-size="14" lengthAdjust="spacing" textLength="136.9854" x="142.5" y="712.3701">OfferService(): bool</text></g><!--class comm_subscriber--><g id="elem_comm_subscriber"><rect codeLine="53" fill="#F08080" height="113.1875" id="comm_subscriber" rx="2.5" ry="2.5" style="stroke:#181818;stroke-width:0.5;" width="220.75" x="632" y="606.4844"/><ellipse cx="647" cy="622.4844" fill="#ADD1B2" rx="11" ry="11" style="stroke:#181818;stroke-width:1;"/><path d="M649.9688,628.125 Q649.3906,628.4219 648.75,628.5625 Q648.1094,628.7188 647.4063,628.7188 Q644.9063,628.7188 643.5781,627.0781 Q642.2656,625.4219 642.2656,622.2969 Q642.2656,619.1719 643.5781,617.5156 Q644.9063,615.8594 647.4063,615.8594 Q648.1094,615.8594 648.75,616.0156 Q649.4063,616.1719 649.9688,616.4688 L649.9688,619.1875 Q649.3438,618.6094 648.75,618.3438 Q648.1563,618.0625 647.5313,618.0625 Q646.1875,618.0625 645.5,619.1406 Q644.8125,620.2031 644.8125,622.2969 Q644.8125,624.3906 645.5,625.4688 Q646.1875,626.5313 647.5313,626.5313 Q648.1563,626.5313 648.75,626.2656 Q649.3438,625.9844 649.9688,625.4063 L649.9688,628.125 Z " fill="#000000"/><text fill="#000000" font-family="sans-serif" font-size="14" lengthAdjust="spacing" textLength="177.4199" x="661" y="627.3311">score::mw::com::AsProxy</text><rect fill="#FFFFFF" height="15.9688" style="stroke:#181818;stroke-width:1;stroke-dasharray:2.0,2.0;" width="9.3301" x="846.4199" y="603.4844"/><text fill="#000000" font-family="sans-serif" font-size="12" font-style="italic" lengthAdjust="spacing" textLength="7.3301" x="847.4199" y="615.623">T</text><line style="stroke:#181818;stroke-width:0.5;" x1="633" x2="851.75" y1="638.4844" y2="638.4844"/><text fill="#000000" font-family="sans-serif" font-size="14" lengthAdjust="spacing" textLength="193.8945" x="638" y="655.4795">Communication abstraction</text><text fill="#000000" font-family="sans-serif" font-size="14" lengthAdjust="spacing" textLength="13.3506" x="638" y="671.7764">...</text><line style="stroke:#181818;stroke-width:0.5;" x1="633" x2="851.75" y1="679.0781" y2="679.0781"/><ellipse cx="643" cy="692.7266" fill="#84BE84" rx="3" ry="3" style="stroke:#038048;stroke-width:1;"/><text fill="#000000" font-family="sans-serif" font-size="14" lengthAdjust="spacing" textLength="164.2813" x="652" y="696.0732">Receive(): optional&lt;T&gt;</text><ellipse cx="643" cy="709.0234" fill="#84BE84" rx="3" ry="3" style="stroke:#038048;stroke-width:1;"/><text fill="#000000" font-family="sans-serif" font-size="14" lengthAdjust="spacing" textLength="131.4414" x="652" y="712.3701">FindService(): bool</text></g><!--reverse link base_machine to reactive_machine--><g id="link_base_machine_reactive_machine"><path codeLine="60" d="M83.5,247.7244 C83.5,272.6244 83.5,285.8544 83.5,306.7744 " fill="transparent" id="base_machine-backto-reactive_machine" style="stroke:#181818;stroke-width:1;"/><polygon fill="transparent" points="83.5,229.7244,77.5,247.7244,89.5,247.7244,83.5,229.7244" style="stroke:#181818;stroke-width:1;"/></g><!--reverse link reactive_machine to publisher_impl--><g id="link_reactive_machine_publisher_impl"><path codeLine="61" d="M121.7144,367.3265 C143.9544,387.8965 163.96,406.4144 191.88,432.2444 " fill="transparent" id="reactive_machine-backto-publisher_impl" style="stroke:#181818;stroke-width:1;"/><polygon fill="transparent" points="108.5,355.1044,117.6403,371.7313,125.7884,362.9217,108.5,355.1044" style="stroke:#181818;stroke-width:1;"/></g><!--reverse link consumer to publisher_impl--><g id="link_consumer_publisher_impl"><path codeLine="62" d="M280.0077,379.923 C272.6777,400.003 269.16,409.6544 260.87,432.3844 " fill="transparent" id="consumer-backto-publisher_impl" style="stroke:#181818;stroke-width:1;stroke-dasharray:7.0,7.0;"/><polygon fill="transparent" points="286.18,363.0144,274.3715,377.8656,285.6439,381.9805,286.18,363.0144" style="stroke:#181818;stroke-width:1;"/></g><!--reverse link receiver to receiver_impl--><g id="link_receiver_receiver_impl"><path codeLine="63" d="M742.5,389.6444 C742.5,408.3144 742.5,412.7244 742.5,432.3044 " fill="transparent" id="receiver-backto-receiver_impl" style="stroke:#181818;stroke-width:1;"/><polygon fill="transparent" points="742.5,371.6444,736.5,389.6444,748.5,389.6444,742.5,371.6444" style="stroke:#181818;stroke-width:1;"/></g><!--link publisher_impl to comm_publisher--><g id="link_publisher_impl_comm_publisher"><path codeLine="65" d="M243.5,529.7444 C243.5,553.2844 243.5,575.8144 243.5,600.3344 " fill="transparent" id="publisher_impl-to-comm_publisher" style="stroke:#181818;stroke-width:1;"/><polygon fill="#181818" points="243.5,606.3344,247.5,597.3344,243.5,601.3344,239.5,597.3344,243.5,606.3344" style="stroke:#181818;stroke-width:1;"/><text fill="#000000" font-family="sans-serif" font-size="13" lengthAdjust="spacing" textLength="29.7832" x="244.5" y="572.5513">uses</text></g><!--link receiver_impl to comm_subscriber--><g id="link_receiver_impl_comm_subscriber"><path codeLine="66" d="M742.5,529.7444 C742.5,553.2844 742.5,575.8144 742.5,600.3344 " fill="transparent" id="receiver_impl-to-comm_subscriber" style="stroke:#181818;stroke-width:1;"/><polygon fill="#181818" points="742.5,606.3344,746.5,597.3344,742.5,601.3344,738.5,597.3344,742.5,606.3344" style="stroke:#181818;stroke-width:1;"/><text fill="#000000" font-family="sans-serif" font-size="13" lengthAdjust="spacing" textLength="29.7832" x="743.5" y="572.5513">uses</text></g><!--link publisher_impl to time_info--><g id="link_publisher_impl_time_info"><path codeLine="68" d="M310.83,529.5144 C347.87,555.6544 388.7877,584.545 425.8877,610.725 " fill="transparent" id="publisher_impl-to-time_info" style="stroke:#181818;stroke-width:1;"/><polygon fill="#181818" points="430.79,614.1844,425.7428,605.7271,426.7047,611.3016,421.1303,612.2635,430.79,614.1844" style="stroke:#181818;stroke-width:1;"/><text fill="#000000" font-family="sans-serif" font-size="13" lengthAdjust="spacing" textLength="65.0127" x="372.5" y="572.5513">processes</text></g><!--link receiver_impl to time_info--><g id="link_receiver_impl_time_info"><path codeLine="69" d="M678.07,529.5144 C642.63,555.6544 603.6084,584.4426 568.1184,610.6226 " fill="transparent" id="receiver_impl-to-time_info" style="stroke:#181818;stroke-width:1;"/><polygon fill="#181818" points="563.29,614.1844,572.9072,612.0606,567.3137,611.2162,568.1581,605.6227,563.29,614.1844" style="stroke:#181818;stroke-width:1;"/><text fill="#000000" font-family="sans-serif" font-size="13" lengthAdjust="spacing" textLength="65.0127" x="636.5" y="572.5513">processes</text></g><!--SRC=[dLHDZzCm4BtxLuoMooBKdX07grHYKu4giL3HtYl7dQRMEdPaEuKLvR_ZE5-DQnQ4J_7ppBpdoHixuIJ2UfDHo2Ip5bQ25OQLX4WiK1t0wGea7Xq1loxl8TDI6-YN1rPekH6L4rf1ObtQH5YyUa1HuBA7uO5P1DvmedqvyRCeJcuZrDCo05uiS5rMMg5ozg-9cJPCBXl0ScsGKfzRrafm5ak-47_Xzjg416Lmjt7LJfIuLaTz1yo2yvkzy3jexmC_0zkRobKKQg7SkxSj83LdSj-4Jt7hcAij1G-HNuImt3h3k8EEh-dA8-CdeJ3mvNw_BriWelo4xWihyVur1Lz3gAA5rqgu1ikrbYc6R-WtuZnXCHrsovGea6bbwnBDOhSCoRpRH_A-gaUqbXLuVs2EKTXvJMSj3cbD73tzKD9q-wZav6e1wH8RK0SBCkbhD1Jz_wjpAUm9pRgiv6BbbUoUAsnPglviB_mXZ3xh-6QDK_PZ5EqTL7uFBg9q-uGIdLPZuVJT- -E-1SaV5VKY8RXloujwRPqt0vbV2vvOtiiUGcBX_zRXCMcK7RVcWnsQC_ZakfjmDPsT_cmocBr7_7SudS_dhQAjdy_OKstNZqSqMpHdmJ7Hs5k56wD_F4_aZStxVtr_y6Gu-oZK8Q5mCkMBosnsCv7aPaH3sDJ2P1Z5nMK-Zm-7eUe8hhn4I3GBizao_b_-6VClDPbwS8YxQbmNc2evlfuKAgCvsdJ9TDnl]--></g></svg>