<svg xmlns="http://www.w3.org/2000/svg" xmlns:xlink="http://www.w3.org/1999/xlink" contentStyleType="text/css" data-diagram-type="DESCRIPTION" height="860px" preserveAspectRatio="none" style="width:930px;height:860px;background:#FFFFFF;" version="1.1" viewBox="0 0 930 860" width="930px" zoomAndPan="magnify"><title>TimeSlave Deployment View</title><defs/><g><text fill="#000000" font-family="Verdana" font-size="22" font-weight="bold" lengthAdjust="spacing" textLength="352.9668" x="284.4797" y="35.4209">TimeSlave Deployment View</text><!--cluster TM--><g id="cluster_TM"><polygon fill="#FFFFFF" points="290,67.6094,300,57.6094,464,57.6094,464,156.6094,454,166.6094,290,166.6094,290,67.6094" style="stroke:#000000;stroke-width:1;"/><line style="stroke:#000000;stroke-width:1;" x1="454" x2="464" y1="67.6094" y2="57.6094"/><line style="stroke:#000000;stroke-width:1;" x1="290" x2="454" y1="67.6094" y2="67.6094"/><line style="stroke:#000000;stroke-width:1;" x1="454" x2="454" y1="67.6094" y2="166.6094"/><text fill="#000000" font-family="Verdana" font-size="14" font-weight="bold" lengthAdjust="spacing" textLength="98.1094" x="323.9453" y="83.6045">Time Master</text></g><!--cluster ECU--><g id="cluster_ECU"><polygon fill="#FFFFFF" points="21,240.6094,31,230.6094,630,230.6094,630,833.6094,620,843.6094,21,843.6094,21,240.6094" style="stroke:#000000;stroke-width:1;"/><line style="stroke:#000000;stroke-width:1;" x1="620" x2="630" y1="240.6094" y2="230.6094"/><line style="stroke:#000000;stroke-width:1;" x1="21" x2="620" y1="240.6094" y2="240.6094"/><line style="stroke:#000000;stroke-width:1;" x1="620" x2="620" y1="240.6094" y2="843.6094"/><text fill="#000000" font-family="Verdana" font-size="14" font-weight="bold" lengthAdjust="spacing" textLength="31.2061" x="305.897" y="256.6045">ECU</text></g><!--cluster TSP--><g id="cluster_TSP"><path d="M47.5,278.6094 L195.999,278.6094 A3.75,3.75 0 0 1 198.499,281.1094 L205.499,300.9063 L603.5,300.9063 A2.5,2.5 0 0 1 606,303.4063 L606,496.6094 A2.5,2.5 0 0 1 603.5,499.1094 L47.5,499.1094 A2.5,2.5 0 0 1 45,496.6094 L45,281.1094 A2.5,2.5 0 0 1 47.5,278.6094 " fill="#FFFFFF" style="stroke:#000000;stroke-width:1;"/><line style="stroke:#000000;stroke-width:1;" x1="45" x2="205.499" y1="300.9063" y2="300.9063"/><text fill="#000000" font-family="Verdana" font-size="14" font-weight="bold" lengthAdjust="spacing" textLength="147.499" x="49" y="293.6045">TimeSlave Process</text></g><!--cluster TDP--><g id="cluster_TDP"><path d="M55.5,577.6094 L225.7852,577.6094 A3.75,3.75 0 0 1 228.2852,580.1094 L235.2852,599.9063 L248.5,599.9063 A2.5,2.5 0 0 1 251,602.4063 L251,809.1094 A2.5,2.5 0 0 1 248.5,811.6094 L55.5,811.6094 A2.5,2.5 0 0 1 53,809.1094 L53,580.1094 A2.5,2.5 0 0 1 55.5,577.6094 " fill="#FFFFFF" style="stroke:#000000;stroke-width:1;"/><line style="stroke:#000000;stroke-width:1;" x1="53" x2="235.2852" y1="599.9063" y2="599.9063"/><text fill="#000000" font-family="Verdana" font-size="14" font-weight="bold" lengthAdjust="spacing" textLength="169.2852" x="57" y="592.6045">TimeDaemon Process</text></g><!--entity GMC--><g id="elem_GMC"><rect fill="#FFFFFF" height="52.5938" rx="2.5" ry="2.5" style="stroke:#000000;stroke-width:1;" width="142.1992" x="306" y="97.6094"/><text fill="#000000" font-family="Verdana" font-size="14" lengthAdjust="spacing" textLength="122.1992" x="316" y="120.6045">PTP Grandmaster</text><text fill="#000000" font-family="Verdana" font-size="14" lengthAdjust="spacing" textLength="38.0352" x="316" y="136.9014">Clock</text></g><!--entity PHCDEV--><g id="elem_PHCDEV"><rect fill="#FFFFFF" height="52.5938" rx="2.5" ry="2.5" style="stroke:#000000;stroke-width:1;" width="101.0742" x="275.5" y="612.1094"/><text fill="#000000" font-family="Verdana" font-size="14" lengthAdjust="spacing" textLength="77.8613" x="285.5" y="635.1045">&#171;hw clock&#187;</text><text fill="#000000" font-family="Verdana" font-size="14" lengthAdjust="spacing" textLength="81.0742" x="285.5" y="651.4014">PHC Device</text></g><!--entity SHM--><g id="elem_SHM"><path d="M416.5,617.6094 C416.5,607.6094 481.9907,607.6094 481.9907,607.6094 C481.9907,607.6094 547.4814,607.6094 547.4814,617.6094 L547.4814,659.2031 C547.4814,669.2031 481.9907,669.2031 481.9907,669.2031 C481.9907,669.2031 416.5,669.2031 416.5,659.2031 L416.5,617.6094 " fill="#E0FFFF" style="stroke:#000000;stroke-width:1;"/><path d="M416.5,617.6094 C416.5,627.6094 481.9907,627.6094 481.9907,627.6094 C481.9907,627.6094 547.4814,627.6094 547.4814,617.6094 " fill="transparent" style="stroke:#000000;stroke-width:1;"/><text fill="#000000" font-family="Verdana" font-size="14" lengthAdjust="spacing" textLength="110.9814" x="426.5" y="644.6045">Shared Memory</text><text fill="#000000" font-family="Verdana" font-size="14" lengthAdjust="spacing" textLength="100.3857" x="426.5" y="660.9014">/gptp_ptp_info</text></g><!--entity GE--><g id="elem_GE"><rect fill="#FFA07A" height="52.5938" rx="2.5" ry="2.5" style="stroke:#000000;stroke-width:1;" width="220.9902" x="266.5" y="313.6094"/><text fill="#000000" font-family="Verdana" font-size="14" lengthAdjust="spacing" textLength="82.0928" x="276.5" y="336.6045">GptpEngine</text><text fill="#000000" font-family="Verdana" font-size="14" lengthAdjust="spacing" textLength="200.9902" x="276.5" y="352.9014">&#171;RxThread + PdelayThread&#187;</text></g><!--entity PHC--><g id="elem_PHC"><rect fill="#E6E6FA" height="36.2969" rx="2.5" ry="2.5" style="stroke:#000000;stroke-width:1;" width="103.3916" x="61.5" y="447.1094"/><text fill="#000000" font-family="Verdana" font-size="14" lengthAdjust="spacing" textLength="83.3916" x="71.5" y="470.1045">PhcAdjuster</text></g><!--entity PUB--><g id="elem_PUB"><rect fill="#FFB6C1" height="36.2969" rx="2.5" ry="2.5" style="stroke:#000000;stroke-width:1;" width="139.3418" x="204.5" y="447.1094"/><text fill="#000000" font-family="Verdana" font-size="14" lengthAdjust="spacing" textLength="119.3418" x="214.5" y="470.1045">GptpIpcPublisher</text></g><!--entity INST--><g id="elem_INST"><rect fill="#F5F5DC" height="36.2969" rx="2.5" ry="2.5" style="stroke:#000000;stroke-width:1;" width="205.876" x="384" y="447.1094"/><text fill="#000000" font-family="Verdana" font-size="14" lengthAdjust="spacing" textLength="185.876" x="394" y="470.1045">ProbeManager + Recorder</text></g><!--entity SHME--><g id="elem_SHME"><rect fill="#FFA07A" height="36.2969" rx="2.5" ry="2.5" style="stroke:#000000;stroke-width:1;" width="124.8154" x="101.5" y="620.6094"/><text fill="#000000" font-family="Verdana" font-size="14" lengthAdjust="spacing" textLength="104.8154" x="111.5" y="643.6045">ShmPTPEngine</text></g><!--entity RCV--><g id="elem_RCV"><rect fill="#FFB6C1" height="36.2969" rx="2.5" ry="2.5" style="stroke:#000000;stroke-width:1;" width="136.0195" x="91" y="751.6094"/><text fill="#000000" font-family="Verdana" font-size="14" lengthAdjust="spacing" textLength="116.0195" x="101" y="774.6045">GptpIpcReceiver</text></g><!--entity NET--><g id="elem_NET"><path d="M655.213,442.8371 C660.0514,436.66 664.1943,435.5151 668.8244,443.0439 C673.2619,435.5655 679.5692,435.4694 685.0937,441.7595 C689.2244,436.4435 693.8058,436.2088 697.967,441.7233 C703.1427,435.3645 707.6876,434.4228 712.2845,442.3052 C716.5944,434.5193 721.932,433.8942 727.352,441.1966 C731.7381,435.1318 738.7946,434.3303 741.9544,442.4583 C748.5911,444.6518 749.5418,448.5081 745.0035,453.7257 C753.1097,455.8118 754.393,459.8943 748.872,466.2049 C753.0447,471.5924 751.294,476.4612 744.639,477.9446 C748.0332,482.6321 746.9179,487.6428 740.8064,489.0495 C736.3063,495.8703 731.1414,496.818 726.1217,489.5928 C722.8826,496.7506 716.5821,498.9523 711.4913,491.4394 C706.3367,497.3599 701.9978,496.8249 697.2562,490.9412 C692.999,496.4697 687.2527,496.3663 684.0323,489.8069 C678.9746,496.9367 673.6589,495.1598 669.3388,488.9919 C664.6548,495.8048 660.3754,495.3549 656.3471,488.3743 C649.0583,487.339 648.0023,482.6637 651.9295,477.1959 C647.0734,473.8058 646.1896,469.8731 651.3972,466.0043 C647.5347,461.7626 648.0346,457.0633 653.662,454.7276 C647.963,450.2029 649.3065,445.8481 655.213,442.8371 " fill="#FFFFFF" style="stroke:#000000;stroke-width:1;"/><text fill="#000000" font-family="Verdana" font-size="14" lengthAdjust="spacing" textLength="58.4541" x="661.5" y="461.6045">Network</text><text fill="#000000" font-family="Verdana" font-size="14" lengthAdjust="spacing" textLength="71.4766" x="661.5" y="477.9014">(Ethernet)</text></g><g id="elem_GMN28"><path d="M646.5,611.1094 L646.5,666.5078 L923.9263,666.5078 L923.9263,621.1094 L913.9263,611.1094 L646.5,611.1094 " fill="#FFFFFF" style="stroke:#000000;stroke-width:1;"/><path d="M913.9263,611.1094 L913.9263,621.1094 L923.9263,621.1094 L913.9263,611.1094 " fill="#FFFFFF" style="stroke:#000000;stroke-width:1;"/><text fill="#000000" font-family="Verdana" font-size="13" lengthAdjust="spacing" textLength="256.4263" x="652.5" y="628.1763">ShmPTPEngine wraps GptpIpcReceiver.</text><text fill="#000000" font-family="Verdana" font-size="13" lengthAdjust="spacing" textLength="245.5527" x="652.5" y="643.3091">Converts GptpIpcData &#8594; PtpTimeInfo.</text><text fill="#000000" font-family="Verdana" font-size="13" lengthAdjust="spacing" textLength="222.5742" x="652.5" y="658.4419">Instantiated as GPTPShmMachine.</text></g><!--link GMC to GE--><g id="link_GMC_GE"><path d="M377,150.9194 C377,192.1694 377,266.4494 377,307.5394 " fill="transparent" id="GMC-to-GE" style="stroke:#800080;stroke-width:1;"/><polygon fill="#800080" points="377,313.5394,381,304.5394,377,308.5394,373,304.5394,377,313.5394" style="stroke:#800080;stroke-width:1;"/><text fill="#000000" font-family="Verdana" font-size="13" lengthAdjust="spacing" textLength="126.9341" x="379.187" y="195.6763">PTP sync messages</text><text fill="#000000" font-family="Verdana" font-size="13" lengthAdjust="spacing" textLength="129.3081" x="378" y="210.8091">(EtherType 0x88F7)</text></g><!--link GE to NET--><g id="link_GE_NET"><path d="M418.66,366.6994 C442.86,380.6694 474.35,397.3694 504,408.6094 C548.45,425.4594 562.35,420.3294 608,433.6094 C620.55,437.2594 628.2598,439.6766 640.7498,443.9266 " fill="transparent" id="GE-to-NET" style="stroke:#0000FF;stroke-width:1;"/><polygon fill="#0000FF" points="646.43,445.8594,639.1983,439.1734,641.6965,444.2487,636.6212,446.7469,646.43,445.8594" style="stroke:#0000FF;stroke-width:1;"/><text fill="#000000" font-family="Verdana" font-size="13" lengthAdjust="spacing" textLength="160.2212" x="505" y="404.6763">PDelayReq / PDelayResp</text></g><!--reverse link GE to NET--><g id="link_GE_NET"><path d="M493.4827,348.9613 C565.2327,355.8313 644.38,368.1494 672,391.6094 C684.28,402.0394 690.54,418.8094 693.72,433.5894 " fill="transparent" id="GE-backto-NET" style="stroke:#0000FF;stroke-width:1;"/><polygon fill="#0000FF" points="487.51,348.3894,496.0878,353.229,492.4872,348.8659,496.8503,345.2654,487.51,348.3894" style="stroke:#0000FF;stroke-width:1;"/></g><!--link GE to PHC--><g id="link_GE_PHC"><path d="M266.03,362.1994 C240.79,369.4694 214.73,379.0594 192,391.6094 C166.09,405.9194 145.8677,425.9274 131.2477,442.4374 " fill="transparent" id="GE-to-PHC" style="stroke:#000000;stroke-width:1;"/><polygon fill="#000000" points="127.27,446.9294,136.2312,442.8433,130.5848,443.1861,130.242,437.5396,127.27,446.9294" style="stroke:#000000;stroke-width:1;"/><text fill="#000000" font-family="Verdana" font-size="13" lengthAdjust="spacing" textLength="110.1318" x="193" y="404.6763">offset / rate ratio</text></g><!--link PHC to PHCDEV--><g id="link_PHC_PHCDEV"><path d="M138.53,483.1394 C165.65,501.5694 209.44,532.2594 245,561.6094 C264.33,577.5694 280.6239,592.7208 296.2039,607.9108 " fill="transparent" id="PHC-to-PHCDEV" style="stroke:#FFA500;stroke-width:1;"/><polygon fill="#FFA500" points="300.5,612.0994,296.8482,602.9525,296.9199,608.6089,291.2635,608.6806,300.5,612.0994" style="stroke:#FFA500;stroke-width:1;"/><text fill="#000000" font-family="Verdana" font-size="13" lengthAdjust="spacing" textLength="97.6016" x="235" y="534.6763">clock_adjtime /</text><text fill="#000000" font-family="Verdana" font-size="13" lengthAdjust="spacing" textLength="68.9546" x="249.3235" y="549.8091">EMAC ioctl</text></g><!--link GE to PUB--><g id="link_GE_PUB"><path d="M350.28,366.6094 C342.52,374.4094 334.2,383.1594 327,391.6094 C311.63,409.6494 299.2087,426.8679 288.9087,441.9179 " fill="transparent" id="GE-to-PUB" style="stroke:#000000;stroke-width:1;"/><polygon fill="#000000" points="285.52,446.8694,293.904,441.7013,288.3439,442.7432,287.3021,437.1831,285.52,446.8694" style="stroke:#000000;stroke-width:1;"/></g><!--link PUB to SHM--><g id="link_PUB_SHM"><path d="M297.04,483.2494 C322.04,502.0094 362.94,533.2194 397,561.6094 C414.64,576.3094 429.2948,589.2694 444.9248,603.4394 " fill="transparent" id="PUB-to-SHM" style="stroke:#008000;stroke-width:1;"/><polygon fill="#008000" points="449.37,607.4694,445.3889,598.461,445.6657,604.1111,440.0156,604.3879,449.37,607.4694" style="stroke:#008000;stroke-width:1;"/><text fill="#000000" font-family="Verdana" font-size="13" lengthAdjust="spacing" textLength="86.0806" x="391.0056" y="534.6763">seqlock write</text><text fill="#000000" font-family="Verdana" font-size="13" lengthAdjust="spacing" textLength="92.0918" x="388" y="549.8091">(GptpIpcData)</text></g><!--reverse link SHM to RCV--><g id="link_SHM_RCV"><path d="M410.6778,668.0944 C346.6678,693.6544 256.83,729.5394 201.99,751.4394 " fill="transparent" id="SHM-backto-RCV" style="stroke:#008000;stroke-width:1;"/><polygon fill="#008000" points="416.25,665.8694,406.4084,665.4922,411.6065,667.7236,409.3751,672.9217,416.25,665.8694" style="stroke:#008000;stroke-width:1;"/><text fill="#000000" font-family="Verdana" font-size="13" lengthAdjust="spacing" textLength="82.9575" x="344.5671" y="707.6763">seqlock read</text><text fill="#000000" font-family="Verdana" font-size="13" lengthAdjust="spacing" textLength="92.0918" x="340" y="722.8091">(GptpIpcData)</text></g><!--link SHME to RCV--><g id="link_SHME_RCV"><path d="M163.34,656.7394 C162.38,681.4094 161.081,714.7082 160.131,739.4182 " fill="transparent" id="SHME-to-RCV" style="stroke:#000000;stroke-width:1;"/><polygon fill="#000000" points="159.67,751.4094,163.8976,745.5675,160.131,739.4182,155.9035,745.2601,159.67,751.4094" style="stroke:#000000;stroke-width:1;"/></g><!--link GE to INST--><g id="link_GE_INST"><path d="M368.13,366.9194 C365.17,380.3094 364.32,396.3694 372,408.6094 C383.2,426.4494 396.4204,436.2905 415.5404,444.6305 " fill="transparent" id="GE-to-INST" style="stroke:#000000;stroke-width:1;stroke-dasharray:7.0,7.0;"/><polygon fill="#000000" points="421.04,447.0294,414.3899,439.7647,416.457,445.0303,411.1914,447.0974,421.04,447.0294" style="stroke:#000000;stroke-width:1;"/><text fill="#000000" font-family="Verdana" font-size="13" lengthAdjust="spacing" textLength="85.7314" x="373" y="404.6763">probe events</text></g><!--link TDP to GMN28--><g id="link_TDP_GMN28"><path d="M63.8393,577.1132 C63.8823,576.9376 63.9258,576.7621 63.9697,576.5867 C64.1451,575.885 64.3272,575.1849 64.5162,574.4869 C66.0282,568.9029 67.9799,563.4526 70.4827,558.3773 C75.4881,548.2269 82.6975,539.5769 93,534.3594 C144.44,508.2994 556.44,518.9094 612,534.3594 C665.38,549.1994 718.77,585.4294 751.82,610.9994 " fill="transparent" id="TDP-GMN28" style="stroke:#000000;stroke-width:1;stroke-dasharray:7.0,7.0;"/></g><!--SRC=[XLJDJjj04BxlKqpXK6Z5pw5LKGv8uAGXKeEi970X22ts46zZpoxhJK9KSUq3z3Lu16uyIf-aCxRvYq2DbDZPdVdcs_c-sGyXmmB1vTgGAgU6dFQw0B8fbkZWo-wBHQzfAejVNoucjd2MaC8mB7C4ZqdGDCbHgM02BunCWSDSpn7Qw7AxB3WKJWqkb98Yi2O1qDTbGBy6keHH7tufuCyJCfp5enYwN3ujghWnHRbDfkSItkr7wlOHgnETL1ZyP90AnUbagYTDdPf8x6s2PLbN6yPDkPMINHTSXoQ6S4mFTuERKUPHf_0PuXHplQp_FjpN73gm_iDCiZ3KUM7fBRWuImxIdpDXNwN4Hn7dC1jAqRzNl-UIU7QPcp9xp3evR2h5XgPlrl7s4lkQ-CYUoGumiJvjidl7mn6i7wAPO9LwgrRx_72NBI2HtZxSZqaujd5k4doatEwSrZcf3lfIbzpMOQOzfj37mlhbc7OcpFj2leQkRDNYuL6_8HqjDRsXIbjpChsMfVsEBCEiO3FKmfmtwF_lVjDCxWQQUTEDGNIwsijRSH8VVvR2sZ66XVNJCMrqU4GyOTYic1rtHafzX95rMpdECOUht2uKkn2sKhkWitKtyox7ywrziKKBnBhbaX8e-6nyvF8HSRHq2BitUtlVlsqg3ctIB_DPbSnr9BijPXlWDUmylPTEoURMp3r7Tpj2waZxTC5or1A2hWmd0_U4pw6YQWlirLM9WL6z3YW_nYhPQLXO7hP9XLohpXaLvWLZ1XdOdJ5r-WSH69k4N6etFYWg7q0lZbxLF3bKujq6VU8HIS356YqeyRhYk_0cyBHjD6grsMERIcIgZlfEaepXQexey-mhGpnqf7DLMQMcz4dabxWUbS7Ff4VI0XBIsnAnlL-FImkSJ1Imr1HAkMUaNU8QRg7Ob8tpqfDy2EtuHdXjk6sEYYpnMtZQ4whmz_SVY8CJjZsU5uaJHfg2OLtIwd9XRAxGrqd6-DkARmmG5keV]--></g></svg>