<svg xmlns="http://www.w3.org/2000/svg" xmlns:xlink="http://www.w3.org/1999/xlink" contentStyleType="text/css" data-diagram-type="CLASS" height="914px" preserveAspectRatio="none" style="width:2563px;height:914px;background:#FFFFFF;" version="1.1" viewBox="0 0 2563 914" width="2563px" zoomAndPan="magnify"><title>gPTP Engine Internal Class Diagram</title><defs/><g><text fill="#000000" font-family="Verdana" font-size="22" font-weight="bold" lengthAdjust="spacing" textLength="446.123" x="1053.9385" y="35.4209">gPTP Engine Internal Class Diagram</text><rect fill="transparent" height="111.7813" id="_legend" rx="7.5" ry="7.5" style="stroke:#000000;stroke-width:1;" width="283.2666" x="10" y="56.6094"/><text fill="#000000" font-family="Verdana" font-size="14" font-weight="bold" lengthAdjust="spacing" textLength="41.2139" x="19.874" y="76.6045">Color</text><text fill="#000000" font-family="Verdana" font-size="14" font-weight="bold" lengthAdjust="spacing" textLength="90.5488" x="114.7021" y="76.6045">Description</text><rect fill="#FFA07A" height="16.2969" style="stroke:transparent;stroke-width:1;" width="94.8281" x="15" y="79.9063"/><text fill="#000000" font-family="Verdana" font-size="14" lengthAdjust="spacing" textLength="8.9004" x="15" y="92.9014">&#160;&#160;</text><text fill="#000000" font-family="Verdana" font-size="14" lengthAdjust="spacing" textLength="121.8369" x="114.2783" y="92.9014">gPTP Engine core</text><rect fill="#F5DEB3" height="16.2969" style="stroke:transparent;stroke-width:1;" width="94.8281" x="15" y="96.2031"/><text fill="#000000" font-family="Verdana" font-size="14" lengthAdjust="spacing" textLength="35.6016" x="15" y="109.1982">&#160;&#160;&#160;&#160;&#160;&#160;&#160;&#160;</text><text fill="#000000" font-family="Verdana" font-size="14" lengthAdjust="spacing" textLength="137.1768" x="114.2783" y="109.1982">Protocol processing</text><rect fill="#E6E6FA" height="16.2969" style="stroke:transparent;stroke-width:1;" width="94.8281" x="15" y="112.5"/><text fill="#000000" font-family="Verdana" font-size="14" lengthAdjust="spacing" textLength="22.251" x="15" y="125.4951">&#160;&#160;&#160;&#160;&#160;</text><text fill="#000000" font-family="Verdana" font-size="14" lengthAdjust="spacing" textLength="112.8203" x="114.2783" y="125.4951">PHC adjustment</text><rect fill="#87CEFA" height="16.2969" style="stroke:transparent;stroke-width:1;" width="94.8281" x="15" y="128.7969"/><text fill="#000000" font-family="Verdana" font-size="14" lengthAdjust="spacing" textLength="4.4502" x="15" y="141.792">&#160;</text><text fill="#000000" font-family="Verdana" font-size="14" lengthAdjust="spacing" textLength="142.8369" x="114.2783" y="141.792">Platform abstraction</text><rect fill="#F5F5DC" height="16.2969" style="stroke:transparent;stroke-width:1;" width="94.8281" x="15" y="145.0938"/><text fill="#000000" font-family="Verdana" font-size="14" lengthAdjust="spacing" textLength="35.6016" x="15" y="158.0889">&#160;&#160;&#160;&#160;&#160;&#160;&#160;&#160;</text><text fill="#000000" font-family="Verdana" font-size="14" lengthAdjust="spacing" textLength="112.4238" x="114.2783" y="158.0889">Instrumentation</text><line style="stroke:#000000;stroke-width:1;" x1="15" x2="288.2666" y1="63.6094" y2="63.6094"/><line style="stroke:#000000;stroke-width:1;" x1="15" x2="288.2666" y1="79.9063" y2="79.9063"/><line style="stroke:#000000;stroke-width:1;" x1="15" x2="288.2666" y1="96.2031" y2="96.2031"/><line style="stroke:#000000;stroke-width:1;" x1="15" x2="288.2666" y1="112.5" y2="112.5"/><line style="stroke:#000000;stroke-width:1;" x1="15" x2="288.2666" y1="128.7969" y2="128.7969"/><line style="stroke:#000000;stroke-width:1;" x1="15" x2="288.2666" y1="145.0938" y2="145.0938"/><line style="stroke:#000000;stroke-width:1;" x1="15" x2="288.2666" y1="161.3906" y2="161.3906"/><line style="stroke:#000000;stroke-width:1;" x1="15" x2="15" y1="63.6094" y2="161.3906"/><line style="stroke:#000000;stroke-width:1;" x1="109.8281" x2="109.8281" y1="63.6094" y2="161.3906"/><line style="stroke:#000000;stroke-width:1;" x1="288.2666" x2="288.2666" y1="63.6094" y2="161.3906"/><!--cluster score::ts::details--><g id="cluster_score::ts::details"><path d="M13.5,180.3906 L148.1563,180.3906 A3.75,3.75 0 0 1 150.6563,182.8906 L157.6563,202.6875 L2273.5,202.6875 A2.5,2.5 0 0 1 2276,205.1875 L2276,904.8906 A2.5,2.5 0 0 1 2273.5,907.3906 L13.5,907.3906 A2.5,2.5 0 0 1 11,904.8906 L11,182.8906 A2.5,2.5 0 0 1 13.5,180.3906 " fill="#FFFFFF" style="stroke:#000000;stroke-width:1;"/><line style="stroke:#000000;stroke-width:1;" x1="11" x2="157.6563" y1="202.6875" y2="202.6875"/><text fill="#000000" font-family="Verdana" font-size="14" font-weight="bold" lengthAdjust="spacing" textLength="133.6563" x="15" y="195.3857">score::ts::details</text></g><!--cluster score::ts::gptp::instrument--><g id="cluster_score::ts::gptp::instrument"><path d="M2302.5,585.8906 L2518.9277,585.8906 A3.75,3.75 0 0 1 2521.4277,588.3906 L2528.4277,608.1875 L2553.5,608.1875 A2.5,2.5 0 0 1 2556,610.6875 L2556,904.8906 A2.5,2.5 0 0 1 2553.5,907.3906 L2302.5,907.3906 A2.5,2.5 0 0 1 2300,904.8906 L2300,588.3906 A2.5,2.5 0 0 1 2302.5,585.8906 " fill="#FFFFFF" style="stroke:#000000;stroke-width:1;"/><line style="stroke:#000000;stroke-width:1;" x1="2300" x2="2528.4277" y1="608.1875" y2="608.1875"/><text fill="#000000" font-family="Verdana" font-size="14" font-weight="bold" lengthAdjust="spacing" textLength="215.4277" x="2304" y="600.8857">score::ts::gptp::instrument</text></g><!--class GptpEngine--><g id="elem_GptpEngine"><rect codeLine="16" fill="#FFA07A" height="321.0469" id="GptpEngine" rx="2.5" ry="2.5" style="stroke:#000000;stroke-width:1;" width="349.459" x="1165.5" y="215.3906"/><ellipse cx="1295.4331" cy="229.3906" fill="#FFFFFF" rx="9" ry="9" style="stroke:#000000;stroke-width:1;"/><path d="M1298.4019,235.0313 Q1297.8237,235.3281 1297.1831,235.4688 Q1296.5425,235.625 1295.8394,235.625 Q1293.3394,235.625 1292.0112,233.9844 Q1290.6987,232.3281 1290.6987,229.2031 Q1290.6987,226.0781 1292.0112,224.4219 Q1293.3394,222.7656 1295.8394,222.7656 Q1296.5425,222.7656 1297.1831,222.9219 Q1297.8394,223.0781 1298.4019,223.375 L1298.4019,226.0938 Q1297.7769,225.5156 1297.1831,225.25 Q1296.5894,224.9688 1295.9644,224.9688 Q1294.6206,224.9688 1293.9331,226.0469 Q1293.2456,227.1094 1293.2456,229.2031 Q1293.2456,231.2969 1293.9331,232.375 Q1294.6206,233.4375 1295.9644,233.4375 Q1296.5894,233.4375 1297.1831,233.1719 Q1297.7769,232.8906 1298.4019,232.3125 L1298.4019,235.0313 Z " fill="#000000"/><text fill="#000000" font-family="Verdana" font-size="14" lengthAdjust="spacing" textLength="82.0928" x="1312.9331" y="234.2373">GptpEngine</text><line style="stroke:#000000;stroke-width:1;" x1="1166.5" x2="1513.959" y1="243.3906" y2="243.3906"/><rect fill="transparent" height="6" style="stroke:#000000;stroke-width:1;" width="6" x="1173.5" y="254.0391"/><text fill="#000000" font-family="Verdana" font-size="14" lengthAdjust="spacing" textLength="186.9629" x="1183.5" y="260.3857">opts_ : GptpEngineOptions</text><rect fill="transparent" height="6" style="stroke:#000000;stroke-width:1;" width="6" x="1173.5" y="270.3359"/><text fill="#000000" font-family="Verdana" font-size="14" lengthAdjust="spacing" textLength="165.1563" x="1183.5" y="276.6826">rx_thread_ : std::thread</text><rect fill="transparent" height="6" style="stroke:#000000;stroke-width:1;" width="6" x="1173.5" y="286.6328"/><text fill="#000000" font-family="Verdana" font-size="14" lengthAdjust="spacing" textLength="198.2559" x="1183.5" y="292.9795">pdelay_thread_ : std::thread</text><rect fill="transparent" height="6" style="stroke:#000000;stroke-width:1;" width="6" x="1173.5" y="302.9297"/><text fill="#000000" font-family="Verdana" font-size="14" lengthAdjust="spacing" textLength="246.2305" x="1183.5" y="309.2764">socket_ : unique_ptr&lt;IRawSocket&gt;</text><rect fill="transparent" height="6" style="stroke:#000000;stroke-width:1;" width="6" x="1173.5" y="319.2266"/><text fill="#000000" font-family="Verdana" font-size="14" lengthAdjust="spacing" textLength="288.873" x="1183.5" y="325.5732">identity_ : unique_ptr&lt;INetworkIdentity&gt;</text><rect fill="transparent" height="6" style="stroke:#000000;stroke-width:1;" width="6" x="1173.5" y="335.5234"/><text fill="#000000" font-family="Verdana" font-size="14" lengthAdjust="spacing" textLength="150.2539" x="1183.5" y="341.8701">codec_ : FrameCodec</text><rect fill="transparent" height="6" style="stroke:#000000;stroke-width:1;" width="6" x="1173.5" y="351.8203"/><text fill="#000000" font-family="Verdana" font-size="14" lengthAdjust="spacing" textLength="205.4131" x="1183.5" y="358.167">parser_ : GptpMessageParser</text><rect fill="transparent" height="6" style="stroke:#000000;stroke-width:1;" width="6" x="1173.5" y="368.1172"/><text fill="#000000" font-family="Verdana" font-size="14" lengthAdjust="spacing" textLength="210.1025" x="1183.5" y="374.4639">sync_sm_ : SyncStateMachine</text><rect fill="transparent" height="6" style="stroke:#000000;stroke-width:1;" width="6" x="1173.5" y="384.4141"/><text fill="#000000" font-family="Verdana" font-size="14" lengthAdjust="spacing" textLength="204.8936" x="1183.5" y="390.7607">pdelay_ : PeerDelayMeasurer</text><rect fill="transparent" height="6" style="stroke:#000000;stroke-width:1;" width="6" x="1173.5" y="400.7109"/><text fill="#000000" font-family="Verdana" font-size="14" lengthAdjust="spacing" textLength="193.8467" x="1183.5" y="407.0576">phc_adjuster_ : PhcAdjuster</text><rect fill="transparent" height="6" style="stroke:#000000;stroke-width:1;" width="6" x="1173.5" y="417.0078"/><text fill="#000000" font-family="Verdana" font-size="14" lengthAdjust="spacing" textLength="212.3721" x="1183.5" y="423.3545">snapshot_mutex_ : std::mutex</text><rect fill="transparent" height="6" style="stroke:#000000;stroke-width:1;" width="6" x="1173.5" y="433.3047"/><text fill="#000000" font-family="Verdana" font-size="14" lengthAdjust="spacing" textLength="236.6328" x="1183.5" y="439.6514">pending_snapshot_ : GptpIpcData</text><rect fill="transparent" height="6" style="stroke:#000000;stroke-width:1;" width="6" x="1173.5" y="449.6016"/><text fill="#000000" font-family="Verdana" font-size="14" lengthAdjust="spacing" textLength="230.7813" x="1183.5" y="455.9482">current_snapshot_ : GptpIpcData</text><line style="stroke:#000000;stroke-width:1;" x1="1166.5" x2="1513.959" y1="463.25" y2="463.25"/><ellipse cx="1176.5" cy="476.8984" fill="#FFFFFF" rx="3" ry="3" style="stroke:#000000;stroke-width:1;"/><text fill="#000000" font-family="Verdana" font-size="14" lengthAdjust="spacing" textLength="113.0391" x="1183.5" y="480.2451">Initialize() : bool</text><ellipse cx="1176.5" cy="493.1953" fill="#FFFFFF" rx="3" ry="3" style="stroke:#000000;stroke-width:1;"/><text fill="#000000" font-family="Verdana" font-size="14" lengthAdjust="spacing" textLength="132.1934" x="1183.5" y="496.542">Deinitialize() : bool</text><ellipse cx="1176.5" cy="509.4922" fill="#FFFFFF" rx="3" ry="3" style="stroke:#000000;stroke-width:1;"/><text fill="#000000" font-family="Verdana" font-size="14" lengthAdjust="spacing" textLength="172.751" x="1183.5" y="512.8389">FinalizeSnapshot() : void</text><ellipse cx="1176.5" cy="525.7891" fill="#FFFFFF" rx="3" ry="3" style="stroke:#000000;stroke-width:1;"/><text fill="#000000" font-family="Verdana" font-size="14" lengthAdjust="spacing" textLength="325.459" x="1183.5" y="529.1357">ReadPTPSnapshot(data : GptpIpcData&amp;) : bool</text></g><!--class IRawSocket--><g id="elem_IRawSocket"><rect codeLine="36" fill="#87CEFA" height="141.7813" id="IRawSocket" rx="2.5" ry="2.5" style="stroke:#000000;stroke-width:1;" width="275.1523" x="27.5" y="596.3906"/><ellipse cx="120.7036" cy="610.3906" fill="#FFFFFF" rx="9" ry="9" style="stroke:#000000;stroke-width:1;"/><path d="M116.6255,606.1563 L116.6255,604 L124.0161,604 L124.0161,606.1563 L121.5474,606.1563 L121.5474,614.2344 L124.0161,614.2344 L124.0161,616.3906 L116.6255,616.3906 L116.6255,614.2344 L119.0942,614.2344 L119.0942,606.1563 L116.6255,606.1563 Z " fill="#000000"/><text fill="#000000" font-family="Verdana" font-size="14" font-style="italic" lengthAdjust="spacing" textLength="81.2451" x="138.2036" y="615.2373">IRawSocket</text><line style="stroke:#000000;stroke-width:1;" x1="28.5" x2="301.6523" y1="624.3906" y2="624.3906"/><line style="stroke:#000000;stroke-width:1;" x1="28.5" x2="301.6523" y1="632.3906" y2="632.3906"/><ellipse cx="38.5" cy="646.0391" fill="#FFFFFF" rx="3" ry="3" style="stroke:#000000;stroke-width:1;"/><text fill="#000000" font-family="Verdana" font-size="14" lengthAdjust="spacing" textLength="125.5488" x="45.5" y="649.3857">Open(iface) : bool</text><ellipse cx="38.5" cy="662.3359" fill="#FFFFFF" rx="3" ry="3" style="stroke:#000000;stroke-width:1;"/><text fill="#000000" font-family="Verdana" font-size="14" lengthAdjust="spacing" textLength="224.3418" x="45.5" y="665.6826">EnableHwTimestamping() : bool</text><ellipse cx="38.5" cy="678.6328" fill="#FFFFFF" rx="3" ry="3" style="stroke:#000000;stroke-width:1;"/><text fill="#000000" font-family="Verdana" font-size="14" lengthAdjust="spacing" textLength="251.1523" x="45.5" y="681.9795">Recv(buf, timeout_ms) : RecvResult</text><ellipse cx="38.5" cy="694.9297" fill="#FFFFFF" rx="3" ry="3" style="stroke:#000000;stroke-width:1;"/><text fill="#000000" font-family="Verdana" font-size="14" lengthAdjust="spacing" textLength="142.6729" x="45.5" y="698.2764">Send(buf, len) : bool</text><ellipse cx="38.5" cy="711.2266" fill="#FFFFFF" rx="3" ry="3" style="stroke:#000000;stroke-width:1;"/><text fill="#000000" font-family="Verdana" font-size="14" lengthAdjust="spacing" textLength="84.6836" x="45.5" y="714.5732">GetFd() : int</text><ellipse cx="38.5" cy="727.5234" fill="#FFFFFF" rx="3" ry="3" style="stroke:#000000;stroke-width:1;"/><text fill="#000000" font-family="Verdana" font-size="14" lengthAdjust="spacing" textLength="92.3057" x="45.5" y="730.8701">Close() : void</text></g><!--class LinuxSocket--><g id="elem_LinuxSocket"><rect codeLine="45" fill="#87CEFA" height="74.8906" id="LinuxSocket" rx="2.5" ry="2.5" style="stroke:#000000;stroke-width:1;" width="245.1328" x="27.5" y="807.3906"/><ellipse cx="107.7583" cy="828.6875" fill="#FFFFFF" rx="9" ry="9" style="stroke:#000000;stroke-width:1;"/><path d="M110.7271,834.3281 Q110.1489,834.625 109.5083,834.7656 Q108.8677,834.9219 108.1646,834.9219 Q105.6646,834.9219 104.3364,833.2813 Q103.0239,831.625 103.0239,828.5 Q103.0239,825.375 104.3364,823.7188 Q105.6646,822.0625 108.1646,822.0625 Q108.8677,822.0625 109.5083,822.2188 Q110.1646,822.375 110.7271,822.6719 L110.7271,825.3906 Q110.1021,824.8125 109.5083,824.5469 Q108.9146,824.2656 108.2896,824.2656 Q106.9458,824.2656 106.2583,825.3438 Q105.5708,826.4063 105.5708,828.5 Q105.5708,830.5938 106.2583,831.6719 Q106.9458,832.7344 108.2896,832.7344 Q108.9146,832.7344 109.5083,832.4688 Q110.1021,832.1875 110.7271,831.6094 L110.7271,834.3281 Z " fill="#000000"/><text fill="#000000" font-family="Verdana" font-size="14" lengthAdjust="spacing" textLength="77.1162" x="125.2583" y="825.3857">RawSocket</text><text fill="#000000" font-family="Verdana" font-size="14" lengthAdjust="spacing" textLength="54.8516" x="136.3906" y="841.6826">&#171;Linux&#187;</text><line style="stroke:#000000;stroke-width:1;" x1="28.5" x2="271.6328" y1="849.9844" y2="849.9844"/><text fill="#000000" font-family="Verdana" font-size="14" lengthAdjust="spacing" textLength="233.1328" x="33.5" y="866.9795">AF_PACKET + SO_TIMESTAMPING</text><line style="stroke:#000000;stroke-width:1;" x1="28.5" x2="271.6328" y1="874.2813" y2="874.2813"/></g><!--class QnxSocket--><g id="elem_QnxSocket"><rect codeLine="49" fill="#87CEFA" height="74.8906" id="QnxSocket" rx="2.5" ry="2.5" style="stroke:#000000;stroke-width:1;" width="162.2813" x="308" y="807.3906"/><ellipse cx="346.8325" cy="828.6875" fill="#FFFFFF" rx="9" ry="9" style="stroke:#000000;stroke-width:1;"/><path d="M349.8013,834.3281 Q349.2231,834.625 348.5825,834.7656 Q347.9419,834.9219 347.2388,834.9219 Q344.7388,834.9219 343.4106,833.2813 Q342.0981,831.625 342.0981,828.5 Q342.0981,825.375 343.4106,823.7188 Q344.7388,822.0625 347.2388,822.0625 Q347.9419,822.0625 348.5825,822.2188 Q349.2388,822.375 349.8013,822.6719 L349.8013,825.3906 Q349.1763,824.8125 348.5825,824.5469 Q347.9888,824.2656 347.3638,824.2656 Q346.02,824.2656 345.3325,825.3438 Q344.645,826.4063 344.645,828.5 Q344.645,830.5938 345.3325,831.6719 Q346.02,832.7344 347.3638,832.7344 Q347.9888,832.7344 348.5825,832.4688 Q349.1763,832.1875 349.8013,831.6094 L349.8013,834.3281 Z " fill="#000000"/><text fill="#000000" font-family="Verdana" font-size="14" lengthAdjust="spacing" textLength="77.1162" x="364.3325" y="825.3857">RawSocket</text><text fill="#000000" font-family="Verdana" font-size="14" lengthAdjust="spacing" textLength="48.2139" x="378.7837" y="841.6826">&#171;QNX&#187;</text><line style="stroke:#000000;stroke-width:1;" x1="309" x2="469.2813" y1="849.9844" y2="849.9844"/><text fill="#000000" font-family="Verdana" font-size="14" lengthAdjust="spacing" textLength="150.2813" x="314" y="866.9795">QNX raw-socket shim</text><line style="stroke:#000000;stroke-width:1;" x1="309" x2="469.2813" y1="874.2813" y2="874.2813"/></g><!--class INetworkIdentity--><g id="elem_INetworkIdentity"><rect codeLine="53" fill="#87CEFA" height="92.8906" id="INetworkIdentity" rx="2.5" ry="2.5" style="stroke:#000000;stroke-width:1;" width="256.873" x="337.5" y="620.8906"/><ellipse cx="404.0674" cy="634.8906" fill="#FFFFFF" rx="9" ry="9" style="stroke:#000000;stroke-width:1;"/><path d="M399.9893,630.6563 L399.9893,628.5 L407.3799,628.5 L407.3799,630.6563 L404.9111,630.6563 L404.9111,638.7344 L407.3799,638.7344 L407.3799,640.8906 L399.9893,640.8906 L399.9893,638.7344 L402.458,638.7344 L402.458,630.6563 L399.9893,630.6563 Z " fill="#000000"/><text fill="#000000" font-family="Verdana" font-size="14" font-style="italic" lengthAdjust="spacing" textLength="116.2383" x="421.5674" y="639.7373">INetworkIdentity</text><line style="stroke:#000000;stroke-width:1;" x1="338.5" x2="593.373" y1="648.8906" y2="648.8906"/><line style="stroke:#000000;stroke-width:1;" x1="338.5" x2="593.373" y1="656.8906" y2="656.8906"/><ellipse cx="348.5" cy="670.5391" fill="#FFFFFF" rx="3" ry="3" style="stroke:#000000;stroke-width:1;"/><text fill="#000000" font-family="Verdana" font-size="14" lengthAdjust="spacing" textLength="143.1445" x="355.5" y="673.8857">Resolve(iface) : bool</text><ellipse cx="348.5" cy="686.8359" fill="#FFFFFF" rx="3" ry="3" style="stroke:#000000;stroke-width:1;"/><text fill="#000000" font-family="Verdana" font-size="14" lengthAdjust="spacing" textLength="232.873" x="355.5" y="690.1826">GetClockIdentity() : ClockIdentity</text><ellipse cx="348.5" cy="703.1328" fill="#FFFFFF" rx="3" ry="3" style="stroke:#000000;stroke-width:1;"/><text fill="#000000" font-family="Verdana" font-size="14" lengthAdjust="spacing" textLength="162.5107" x="355.5" y="706.4795">GetMac() : MacAddress</text></g><!--class NetworkIdentity--><g id="elem_NetworkIdentity"><rect codeLine="59" fill="#87CEFA" height="76.5938" id="NetworkIdentity" rx="2.5" ry="2.5" style="stroke:#000000;stroke-width:1;" width="188.9893" x="505.5" y="806.3906"/><ellipse cx="540.4959" cy="820.3906" fill="#FFFFFF" rx="9" ry="9" style="stroke:#000000;stroke-width:1;"/><path d="M543.4647,826.0313 Q542.8866,826.3281 542.2459,826.4688 Q541.6053,826.625 540.9022,826.625 Q538.4022,826.625 537.0741,824.9844 Q535.7616,823.3281 535.7616,820.2031 Q535.7616,817.0781 537.0741,815.4219 Q538.4022,813.7656 540.9022,813.7656 Q541.6053,813.7656 542.2459,813.9219 Q542.9022,814.0781 543.4647,814.375 L543.4647,817.0938 Q542.8397,816.5156 542.2459,816.25 Q541.6522,815.9688 541.0272,815.9688 Q539.6834,815.9688 538.9959,817.0469 Q538.3084,818.1094 538.3084,820.2031 Q538.3084,822.2969 538.9959,823.375 Q539.6834,824.4375 541.0272,824.4375 Q541.6522,824.4375 542.2459,824.1719 Q542.8397,823.8906 543.4647,823.3125 L543.4647,826.0313 Z " fill="#000000"/><text fill="#000000" font-family="Verdana" font-size="14" lengthAdjust="spacing" textLength="112.1094" x="557.3839" y="825.2373">NetworkIdentity</text><line style="stroke:#000000;stroke-width:1;" x1="506.5" x2="693.4893" y1="834.3906" y2="834.3906"/><line style="stroke:#000000;stroke-width:1;" x1="506.5" x2="693.4893" y1="842.3906" y2="842.3906"/><text fill="#000000" font-family="Verdana" font-size="14" lengthAdjust="spacing" textLength="176.9893" x="511.5" y="859.3857">Derives EUI-64 from MAC</text><text fill="#000000" font-family="Verdana" font-size="14" lengthAdjust="spacing" textLength="134.4219" x="511.5" y="875.6826">(inserts 0xFF 0xFE)</text></g><!--class FrameCodec--><g id="elem_FrameCodec"><rect codeLine="63" fill="#F5DEB3" height="76.5938" id="FrameCodec" rx="2.5" ry="2.5" style="stroke:#000000;stroke-width:1;" width="373.7813" x="630" y="628.8906"/><ellipse cx="769.0522" cy="642.8906" fill="#FFFFFF" rx="9" ry="9" style="stroke:#000000;stroke-width:1;"/><path d="M772.021,648.5313 Q771.4429,648.8281 770.8022,648.9688 Q770.1616,649.125 769.4585,649.125 Q766.9585,649.125 765.6304,647.4844 Q764.3179,645.8281 764.3179,642.7031 Q764.3179,639.5781 765.6304,637.9219 Q766.9585,636.2656 769.4585,636.2656 Q770.1616,636.2656 770.8022,636.4219 Q771.4585,636.5781 772.021,636.875 L772.021,639.5938 Q771.396,639.0156 770.8022,638.75 Q770.2085,638.4688 769.5835,638.4688 Q768.2397,638.4688 767.5522,639.5469 Q766.8647,640.6094 766.8647,642.7031 Q766.8647,644.7969 767.5522,645.875 Q768.2397,646.9375 769.5835,646.9375 Q770.2085,646.9375 770.8022,646.6719 Q771.396,646.3906 772.021,645.8125 L772.021,648.5313 Z " fill="#000000"/><text fill="#000000" font-family="Verdana" font-size="14" lengthAdjust="spacing" textLength="88.1768" x="786.5522" y="647.7373">FrameCodec</text><line style="stroke:#000000;stroke-width:1;" x1="631" x2="1002.7813" y1="656.8906" y2="656.8906"/><line style="stroke:#000000;stroke-width:1;" x1="631" x2="1002.7813" y1="664.8906" y2="664.8906"/><ellipse cx="641" cy="678.5391" fill="#FFFFFF" rx="3" ry="3" style="stroke:#000000;stroke-width:1;"/><text fill="#000000" font-family="Verdana" font-size="14" lengthAdjust="spacing" textLength="308.9707" x="648" y="681.8857">ParseEthernetHeader(buf) : EthernetHeader</text><ellipse cx="641" cy="694.8359" fill="#FFFFFF" rx="3" ry="3" style="stroke:#000000;stroke-width:1;"/><text fill="#000000" font-family="Verdana" font-size="14" lengthAdjust="spacing" textLength="349.7813" x="648" y="698.1826">AddEthernetHeader(buf, dst_mac, src_mac) : void</text></g><!--class GptpMessageParser--><g id="elem_GptpMessageParser"><rect codeLine="68" fill="#F5DEB3" height="60.2969" id="GptpMessageParser" rx="2.5" ry="2.5" style="stroke:#000000;stroke-width:1;" width="271.7275" x="1039" y="637.3906"/><ellipse cx="1101.1582" cy="651.3906" fill="#FFFFFF" rx="9" ry="9" style="stroke:#000000;stroke-width:1;"/><path d="M1104.127,657.0313 Q1103.5488,657.3281 1102.9082,657.4688 Q1102.2676,657.625 1101.5645,657.625 Q1099.0645,657.625 1097.7363,655.9844 Q1096.4238,654.3281 1096.4238,651.2031 Q1096.4238,648.0781 1097.7363,646.4219 Q1099.0645,644.7656 1101.5645,644.7656 Q1102.2676,644.7656 1102.9082,644.9219 Q1103.5645,645.0781 1104.127,645.375 L1104.127,648.0938 Q1103.502,647.5156 1102.9082,647.25 Q1102.3145,646.9688 1101.6895,646.9688 Q1100.3457,646.9688 1099.6582,648.0469 Q1098.9707,649.1094 1098.9707,651.2031 Q1098.9707,653.2969 1099.6582,654.375 Q1100.3457,655.4375 1101.6895,655.4375 Q1102.3145,655.4375 1102.9082,655.1719 Q1103.502,654.8906 1104.127,654.3125 L1104.127,657.0313 Z " fill="#000000"/><text fill="#000000" font-family="Verdana" font-size="14" lengthAdjust="spacing" textLength="139.9111" x="1118.6582" y="656.2373">GptpMessageParser</text><line style="stroke:#000000;stroke-width:1;" x1="1040" x2="1309.7275" y1="665.3906" y2="665.3906"/><line style="stroke:#000000;stroke-width:1;" x1="1040" x2="1309.7275" y1="673.3906" y2="673.3906"/><ellipse cx="1050" cy="687.0391" fill="#FFFFFF" rx="3" ry="3" style="stroke:#000000;stroke-width:1;"/><text fill="#000000" font-family="Verdana" font-size="14" lengthAdjust="spacing" textLength="247.7275" x="1057" y="690.3857">Parse(payload, len, msg_out) : bool</text></g><!--class SyncStateMachine--><g id="elem_SyncStateMachine"><rect codeLine="72" fill="#F5DEB3" height="125.4844" id="SyncStateMachine" rx="2.5" ry="2.5" style="stroke:#000000;stroke-width:1;" width="319.627" x="1346" y="604.8906"/><ellipse cx="1437.3613" cy="618.8906" fill="#FFFFFF" rx="9" ry="9" style="stroke:#000000;stroke-width:1;"/><path d="M1440.3301,624.5313 Q1439.752,624.8281 1439.1113,624.9688 Q1438.4707,625.125 1437.7676,625.125 Q1435.2676,625.125 1433.9395,623.4844 Q1432.627,621.8281 1432.627,618.7031 Q1432.627,615.5781 1433.9395,613.9219 Q1435.2676,612.2656 1437.7676,612.2656 Q1438.4707,612.2656 1439.1113,612.4219 Q1439.7676,612.5781 1440.3301,612.875 L1440.3301,615.5938 Q1439.7051,615.0156 1439.1113,614.75 Q1438.5176,614.4688 1437.8926,614.4688 Q1436.5488,614.4688 1435.8613,615.5469 Q1435.1738,616.6094 1435.1738,618.7031 Q1435.1738,620.7969 1435.8613,621.875 Q1436.5488,622.9375 1437.8926,622.9375 Q1438.5176,622.9375 1439.1113,622.6719 Q1439.7051,622.3906 1440.3301,621.8125 L1440.3301,624.5313 Z " fill="#000000"/><text fill="#000000" font-family="Verdana" font-size="14" lengthAdjust="spacing" textLength="129.4043" x="1454.8613" y="623.7373">SyncStateMachine</text><line style="stroke:#000000;stroke-width:1;" x1="1347" x2="1664.627" y1="632.8906" y2="632.8906"/><rect fill="transparent" height="6" style="stroke:#000000;stroke-width:1;" width="6" x="1354" y="643.5391"/><text fill="#000000" font-family="Verdana" font-size="14" lengthAdjust="spacing" textLength="176.4014" x="1364" y="649.8857">timeout_ : atomic&lt;bool&gt;</text><line style="stroke:#000000;stroke-width:1;" x1="1347" x2="1664.627" y1="657.1875" y2="657.1875"/><ellipse cx="1357" cy="670.8359" fill="#FFFFFF" rx="3" ry="3" style="stroke:#000000;stroke-width:1;"/><text fill="#000000" font-family="Verdana" font-size="14" lengthAdjust="spacing" textLength="137.6211" x="1364" y="674.1826">OnSync(msg) : void</text><ellipse cx="1357" cy="687.1328" fill="#FFFFFF" rx="3" ry="3" style="stroke:#000000;stroke-width:1;"/><text fill="#000000" font-family="Verdana" font-size="14" lengthAdjust="spacing" textLength="295.627" x="1364" y="690.4795">OnFollowUp(msg) : optional&lt;SyncResult&gt;</text><ellipse cx="1357" cy="703.4297" fill="#FFFFFF" rx="3" ry="3" style="stroke:#000000;stroke-width:1;"/><text fill="#000000" font-family="Verdana" font-size="14" lengthAdjust="spacing" textLength="123.4912" x="1364" y="706.7764">IsTimeout() : bool</text><ellipse cx="1357" cy="719.7266" fill="#FFFFFF" rx="3" ry="3" style="stroke:#000000;stroke-width:1;"/><text fill="#000000" font-family="Verdana" font-size="14" lengthAdjust="spacing" textLength="229.8105" x="1364" y="723.0732">GetNeighborRateRatio() : double</text></g><!--class PeerDelayMeasurer--><g id="elem_PeerDelayMeasurer"><rect codeLine="80" fill="#F5DEB3" height="141.7813" id="PeerDelayMeasurer" rx="2.5" ry="2.5" style="stroke:#000000;stroke-width:1;" width="259.293" x="1701.5" y="596.3906"/><ellipse cx="1758.8286" cy="610.3906" fill="#FFFFFF" rx="9" ry="9" style="stroke:#000000;stroke-width:1;"/><path d="M1761.7974,616.0313 Q1761.2192,616.3281 1760.5786,616.4688 Q1759.938,616.625 1759.2349,616.625 Q1756.7349,616.625 1755.4067,614.9844 Q1754.0942,613.3281 1754.0942,610.2031 Q1754.0942,607.0781 1755.4067,605.4219 Q1756.7349,603.7656 1759.2349,603.7656 Q1759.938,603.7656 1760.5786,603.9219 Q1761.2349,604.0781 1761.7974,604.375 L1761.7974,607.0938 Q1761.1724,606.5156 1760.5786,606.25 Q1759.9849,605.9688 1759.3599,605.9688 Q1758.0161,605.9688 1757.3286,607.0469 Q1756.6411,608.1094 1756.6411,610.2031 Q1756.6411,612.2969 1757.3286,613.375 Q1758.0161,614.4375 1759.3599,614.4375 Q1759.9849,614.4375 1760.5786,614.1719 Q1761.1724,613.8906 1761.7974,613.3125 L1761.7974,616.0313 Z " fill="#000000"/><text fill="#000000" font-family="Verdana" font-size="14" lengthAdjust="spacing" textLength="137.1357" x="1776.3286" y="615.2373">PeerDelayMeasurer</text><line style="stroke:#000000;stroke-width:1;" x1="1702.5" x2="1959.793" y1="624.3906" y2="624.3906"/><rect fill="transparent" height="6" style="stroke:#000000;stroke-width:1;" width="6" x="1709.5" y="635.0391"/><text fill="#000000" font-family="Verdana" font-size="14" lengthAdjust="spacing" textLength="141.5176" x="1719.5" y="641.3857">mutex_ : std::mutex</text><rect fill="transparent" height="6" style="stroke:#000000;stroke-width:1;" width="6" x="1709.5" y="651.3359"/><text fill="#000000" font-family="Verdana" font-size="14" lengthAdjust="spacing" textLength="153.0088" x="1719.5" y="657.6826">result_ : PDelayResult</text><line style="stroke:#000000;stroke-width:1;" x1="1702.5" x2="1959.793" y1="664.9844" y2="664.9844"/><ellipse cx="1712.5" cy="678.6328" fill="#FFFFFF" rx="3" ry="3" style="stroke:#000000;stroke-width:1;"/><text fill="#000000" font-family="Verdana" font-size="14" lengthAdjust="spacing" textLength="192.6914" x="1719.5" y="681.9795">SendRequest(socket) : void</text><ellipse cx="1712.5" cy="694.9297" fill="#FFFFFF" rx="3" ry="3" style="stroke:#000000;stroke-width:1;"/><text fill="#000000" font-family="Verdana" font-size="14" lengthAdjust="spacing" textLength="171.7461" x="1719.5" y="698.2764">OnResponse(msg) : void</text><ellipse cx="1712.5" cy="711.2266" fill="#FFFFFF" rx="3" ry="3" style="stroke:#000000;stroke-width:1;"/><text fill="#000000" font-family="Verdana" font-size="14" lengthAdjust="spacing" textLength="235.293" x="1719.5" y="714.5732">OnResponseFollowUp(msg) : void</text><ellipse cx="1712.5" cy="727.5234" fill="#FFFFFF" rx="3" ry="3" style="stroke:#000000;stroke-width:1;"/><text fill="#000000" font-family="Verdana" font-size="14" lengthAdjust="spacing" textLength="185.8555" x="1719.5" y="730.8701">GetResult() : PDelayResult</text></g><!--class PhcAdjuster--><g id="elem_PhcAdjuster"><rect codeLine="89" fill="#E6E6FA" height="125.4844" id="PhcAdjuster" rx="2.5" ry="2.5" style="stroke:#000000;stroke-width:1;" width="263.5449" x="1996" y="604.8906"/><ellipse cx="2082.3267" cy="618.8906" fill="#FFFFFF" rx="9" ry="9" style="stroke:#000000;stroke-width:1;"/><path d="M2085.2954,624.5313 Q2084.7173,624.8281 2084.0767,624.9688 Q2083.436,625.125 2082.7329,625.125 Q2080.2329,625.125 2078.9048,623.4844 Q2077.5923,621.8281 2077.5923,618.7031 Q2077.5923,615.5781 2078.9048,613.9219 Q2080.2329,612.2656 2082.7329,612.2656 Q2083.436,612.2656 2084.0767,612.4219 Q2084.7329,612.5781 2085.2954,612.875 L2085.2954,615.5938 Q2084.6704,615.0156 2084.0767,614.75 Q2083.4829,614.4688 2082.8579,614.4688 Q2081.5142,614.4688 2080.8267,615.5469 Q2080.1392,616.6094 2080.1392,618.7031 Q2080.1392,620.7969 2080.8267,621.875 Q2081.5142,622.9375 2082.8579,622.9375 Q2083.4829,622.9375 2084.0767,622.6719 Q2084.6704,622.3906 2085.2954,621.8125 L2085.2954,624.5313 Z " fill="#000000"/><text fill="#000000" font-family="Verdana" font-size="14" lengthAdjust="spacing" textLength="83.3916" x="2099.8267" y="623.7373">PhcAdjuster</text><line style="stroke:#000000;stroke-width:1;" x1="1997" x2="2258.5449" y1="632.8906" y2="632.8906"/><rect fill="transparent" height="6" style="stroke:#000000;stroke-width:1;" width="6" x="2004" y="643.5391"/><text fill="#000000" font-family="Verdana" font-size="14" lengthAdjust="spacing" textLength="112.0615" x="2014" y="649.8857">cfg_ : PhcConfig</text><rect fill="transparent" height="6" style="stroke:#000000;stroke-width:1;" width="6" x="2004" y="659.8359"/><text fill="#000000" font-family="Verdana" font-size="14" lengthAdjust="spacing" textLength="85.1416" x="2014" y="666.1826">phc_fd_ : int</text><line style="stroke:#000000;stroke-width:1;" x1="1997" x2="2258.5449" y1="673.4844" y2="673.4844"/><ellipse cx="2007" cy="687.1328" fill="#FFFFFF" rx="3" ry="3" style="stroke:#000000;stroke-width:1;"/><text fill="#000000" font-family="Verdana" font-size="14" lengthAdjust="spacing" textLength="122.4453" x="2014" y="690.4795">IsEnabled() : bool</text><ellipse cx="2007" cy="703.4297" fill="#FFFFFF" rx="3" ry="3" style="stroke:#000000;stroke-width:1;"/><text fill="#000000" font-family="Verdana" font-size="14" lengthAdjust="spacing" textLength="203.4375" x="2014" y="706.7764">AdjustOffset(offset_ns) : void</text><ellipse cx="2007" cy="719.7266" fill="#FFFFFF" rx="3" ry="3" style="stroke:#000000;stroke-width:1;"/><text fill="#000000" font-family="Verdana" font-size="14" lengthAdjust="spacing" textLength="239.5449" x="2014" y="723.0732">AdjustFrequency(rate_ratio) : void</text></g><!--class PhcConfig--><g id="elem_PhcConfig"><rect codeLine="97" fill="#E6E6FA" height="92.8906" id="PhcConfig" rx="2.5" ry="2.5" style="stroke:#000000;stroke-width:1;" width="313.6592" x="1946" y="798.3906"/><ellipse cx="2064.1138" cy="812.3906" fill="#FFFFFF" rx="9" ry="9" style="stroke:#000000;stroke-width:1;"/><path d="M2063.5981,812.9531 Q2061.7388,812.25 2061.0825,811.4844 Q2060.4419,810.7031 2060.4419,809.3906 Q2060.4419,807.7031 2061.52,806.7344 Q2062.5981,805.7656 2064.4731,805.7656 Q2065.3325,805.7656 2066.1763,805.9688 Q2067.0356,806.1563 2067.8794,806.5469 L2067.8794,808.9375 Q2067.0981,808.375 2066.27,808.0938 Q2065.4575,807.7969 2064.6606,807.7969 Q2063.7856,807.7969 2063.3013,808.1563 Q2062.8325,808.5156 2062.8325,809.1719 Q2062.8325,809.6875 2063.1763,810.0313 Q2063.52,810.3594 2064.6138,810.7656 L2065.6763,811.1719 Q2067.1606,811.7188 2067.8638,812.625 Q2068.5825,813.5313 2068.5825,814.9063 Q2068.5825,816.7813 2067.4731,817.7031 Q2066.3638,818.625 2064.1138,818.625 Q2063.1919,818.625 2062.27,818.4063 Q2061.3481,818.1875 2060.4888,817.7656 L2060.4888,815.2344 Q2061.4575,815.9219 2062.3794,816.2656 Q2063.3013,816.6094 2064.1919,816.6094 Q2065.0981,816.6094 2065.5981,816.2031 Q2066.0981,815.7813 2066.0981,815.0469 Q2066.0981,814.4844 2065.7544,814.0781 Q2065.4263,813.6563 2064.8013,813.4063 L2063.5981,812.9531 Z " fill="#000000"/><text fill="#000000" font-family="Verdana" font-size="14" lengthAdjust="spacing" textLength="69.9316" x="2081.6138" y="817.2373">PhcConfig</text><line style="stroke:#000000;stroke-width:1;" x1="1947" x2="2258.6592" y1="826.3906" y2="826.3906"/><ellipse cx="1957" cy="840.0391" fill="transparent" rx="3" ry="3" style="stroke:#000000;stroke-width:1;"/><text fill="#000000" font-family="Verdana" font-size="14" lengthAdjust="spacing" textLength="153.8018" x="1964" y="843.3857">enabled : bool = false</text><ellipse cx="1957" cy="856.3359" fill="transparent" rx="3" ry="3" style="stroke:#000000;stroke-width:1;"/><text fill="#000000" font-family="Verdana" font-size="14" lengthAdjust="spacing" textLength="99.791" x="1964" y="859.6826">device : string</text><ellipse cx="1957" cy="872.6328" fill="transparent" rx="3" ry="3" style="stroke:#000000;stroke-width:1;"/><text fill="#000000" font-family="Verdana" font-size="14" lengthAdjust="spacing" textLength="289.6592" x="1964" y="875.9795">step_threshold_ns : int64_t = 100000000</text><line style="stroke:#000000;stroke-width:1;" x1="1947" x2="2258.6592" y1="883.2813" y2="883.2813"/></g><!--class ProbeManager--><g id="elem_ProbeManager"><rect codeLine="118" fill="#F5F5DC" height="92.8906" id="ProbeManager" rx="2.5" ry="2.5" style="stroke:#000000;stroke-width:1;" width="224.416" x="2316" y="620.8906"/><ellipse cx="2373.6431" cy="634.8906" fill="#FFFFFF" rx="9" ry="9" style="stroke:#000000;stroke-width:1;"/><path d="M2376.6118,640.5313 Q2376.0337,640.8281 2375.3931,640.9688 Q2374.7524,641.125 2374.0493,641.125 Q2371.5493,641.125 2370.2212,639.4844 Q2368.9087,637.8281 2368.9087,634.7031 Q2368.9087,631.5781 2370.2212,629.9219 Q2371.5493,628.2656 2374.0493,628.2656 Q2374.7524,628.2656 2375.3931,628.4219 Q2376.0493,628.5781 2376.6118,628.875 L2376.6118,631.5938 Q2375.9868,631.0156 2375.3931,630.75 Q2374.7993,630.4688 2374.1743,630.4688 Q2372.8306,630.4688 2372.1431,631.5469 Q2371.4556,632.6094 2371.4556,634.7031 Q2371.4556,636.7969 2372.1431,637.875 Q2372.8306,638.9375 2374.1743,638.9375 Q2374.7993,638.9375 2375.3931,638.6719 Q2375.9868,638.3906 2376.6118,637.8125 L2376.6118,640.5313 Z " fill="#000000"/><text fill="#000000" font-family="Verdana" font-size="14" lengthAdjust="spacing" textLength="101.6299" x="2391.1431" y="639.7373">ProbeManager</text><line style="stroke:#000000;stroke-width:1;" x1="2317" x2="2539.416" y1="648.8906" y2="648.8906"/><line style="stroke:#000000;stroke-width:1;" x1="2317" x2="2539.416" y1="656.8906" y2="656.8906"/><ellipse cx="2327" cy="670.5391" fill="#FFFFFF" rx="3" ry="3" style="stroke:#000000;stroke-width:1;"/><text fill="#000000" font-family="Verdana" font-size="14" lengthAdjust="spacing" text-decoration="underline" textLength="196.6357" x="2334" y="673.8857">Instance() : ProbeManager&amp;</text><ellipse cx="2327" cy="686.8359" fill="#FFFFFF" rx="3" ry="3" style="stroke:#000000;stroke-width:1;"/><text fill="#000000" font-family="Verdana" font-size="14" lengthAdjust="spacing" textLength="179.5527" x="2334" y="690.1826">Record(point, data) : void</text><ellipse cx="2327" cy="703.1328" fill="#FFFFFF" rx="3" ry="3" style="stroke:#000000;stroke-width:1;"/><text fill="#000000" font-family="Verdana" font-size="14" lengthAdjust="spacing" textLength="200.416" x="2334" y="706.4795">SetRecorder(recorder) : void</text></g><!--class Recorder--><g id="elem_Recorder"><rect codeLine="124" fill="#F5F5DC" height="92.8906" id="Recorder" rx="2.5" ry="2.5" style="stroke:#000000;stroke-width:1;" width="165.5176" x="2345" y="798.3906"/><ellipse cx="2392.2012" cy="812.3906" fill="#FFFFFF" rx="9" ry="9" style="stroke:#000000;stroke-width:1;"/><path d="M2395.1699,818.0313 Q2394.5918,818.3281 2393.9512,818.4688 Q2393.3105,818.625 2392.6074,818.625 Q2390.1074,818.625 2388.7793,816.9844 Q2387.4668,815.3281 2387.4668,812.2031 Q2387.4668,809.0781 2388.7793,807.4219 Q2390.1074,805.7656 2392.6074,805.7656 Q2393.3105,805.7656 2393.9512,805.9219 Q2394.6074,806.0781 2395.1699,806.375 L2395.1699,809.0938 Q2394.5449,808.5156 2393.9512,808.25 Q2393.3574,807.9688 2392.7324,807.9688 Q2391.3887,807.9688 2390.7012,809.0469 Q2390.0137,810.1094 2390.0137,812.2031 Q2390.0137,814.2969 2390.7012,815.375 Q2391.3887,816.4375 2392.7324,816.4375 Q2393.3574,816.4375 2393.9512,816.1719 Q2394.5449,815.8906 2395.1699,815.3125 L2395.1699,818.0313 Z " fill="#000000"/><text fill="#000000" font-family="Verdana" font-size="14" lengthAdjust="spacing" textLength="63.6152" x="2409.7012" y="817.2373">Recorder</text><line style="stroke:#000000;stroke-width:1;" x1="2346" x2="2509.5176" y1="826.3906" y2="826.3906"/><rect fill="transparent" height="6" style="stroke:#000000;stroke-width:1;" width="6" x="2353" y="837.0391"/><text fill="#000000" font-family="Verdana" font-size="14" lengthAdjust="spacing" textLength="135.9053" x="2363" y="843.3857">file_ : std::ofstream</text><rect fill="transparent" height="6" style="stroke:#000000;stroke-width:1;" width="6" x="2353" y="853.3359"/><text fill="#000000" font-family="Verdana" font-size="14" lengthAdjust="spacing" textLength="141.5176" x="2363" y="859.6826">mutex_ : std::mutex</text><line style="stroke:#000000;stroke-width:1;" x1="2346" x2="2509.5176" y1="866.9844" y2="866.9844"/><ellipse cx="2356" cy="880.6328" fill="#FFFFFF" rx="3" ry="3" style="stroke:#000000;stroke-width:1;"/><text fill="#000000" font-family="Verdana" font-size="14" lengthAdjust="spacing" textLength="140.4307" x="2363" y="883.9795">Record(entry) : void</text></g><!--reverse link IRawSocket to LinuxSocket--><g id="link_IRawSocket_LinuxSocket"><path codeLine="103" d="M157.4754,756.4451 C155.4654,779.9351 154.84,787.2406 153.14,807.1306 " fill="transparent" id="IRawSocket-backto-LinuxSocket" style="stroke:#000000;stroke-width:1;stroke-dasharray:7.0,7.0;"/><polygon fill="transparent" points="159.01,738.5106,151.4972,755.9335,163.4535,756.9566,159.01,738.5106" style="stroke:#000000;stroke-width:1;"/></g><!--reverse link IRawSocket to QnxSocket--><g id="link_IRawSocket_QnxSocket"><path codeLine="104" d="M268.6697,749.611 C298.7697,773.191 316.96,787.4506 342.39,807.3706 " fill="transparent" id="IRawSocket-backto-QnxSocket" style="stroke:#000000;stroke-width:1;stroke-dasharray:7.0,7.0;"/><polygon fill="transparent" points="254.5,738.5106,264.9696,754.3343,272.3699,744.8878,254.5,738.5106" style="stroke:#000000;stroke-width:1;"/></g><!--reverse link INetworkIdentity to NetworkIdentity--><g id="link_INetworkIdentity_NetworkIdentity"><path codeLine="105" d="M511.7843,728.3466 C533.6543,756.9866 550.58,779.1606 571.19,806.1606 " fill="transparent" id="INetworkIdentity-backto-NetworkIdentity" style="stroke:#000000;stroke-width:1;stroke-dasharray:7.0,7.0;"/><polygon fill="transparent" points="500.86,714.0406,507.0156,731.988,516.5529,724.7052,500.86,714.0406" style="stroke:#000000;stroke-width:1;"/></g><!--reverse link PhcAdjuster to PhcConfig--><g id="link_PhcAdjuster_PhcConfig"><path codeLine="106" d="M2117.4937,742.1401 C2114.2937,764.5501 2112.45,777.5406 2109.5,798.2906 " fill="transparent" id="PhcAdjuster-backto-PhcConfig" style="stroke:#000000;stroke-width:1;"/><polygon fill="#000000" points="2119.19,730.2606,2114.382,735.6349,2117.4937,742.1401,2122.3017,736.7658,2119.19,730.2606" style="stroke:#000000;stroke-width:1;"/></g><!--reverse link GptpEngine to IRawSocket--><g id="link_GptpEngine_IRawSocket"><path codeLine="108" d="M1153.3103,395.2969 C946.3503,419.3669 605.62,471.4606 320,577.8906 C306.06,583.0806 291.9,589.4406 278.09,596.3406 " fill="transparent" id="GptpEngine-backto-IRawSocket" style="stroke:#000000;stroke-width:1;"/><polygon fill="#000000" points="1165.23,393.9106,1158.8081,390.6306,1153.3103,395.2969,1159.7323,398.577,1165.23,393.9106" style="stroke:#000000;stroke-width:1;"/></g><!--reverse link GptpEngine to INetworkIdentity--><g id="link_GptpEngine_INetworkIdentity"><path codeLine="109" d="M1153.755,413.6749 C1003.605,446.3849 794.82,499.7606 613,577.8906 C585.77,589.5906 557.5,605.5706 533.11,620.7206 " fill="transparent" id="GptpEngine-backto-INetworkIdentity" style="stroke:#000000;stroke-width:1;"/><polygon fill="#000000" points="1165.48,411.1206,1158.7661,408.4894,1153.755,413.6749,1160.4689,416.3061,1165.48,411.1206" style="stroke:#000000;stroke-width:1;"/></g><!--reverse link GptpEngine to FrameCodec--><g id="link_GptpEngine_FrameCodec"><path codeLine="110" d="M1154.9909,479.3017 C1058.8909,532.4917 955.61,589.6706 884.85,628.8306 " fill="transparent" id="GptpEngine-backto-FrameCodec" style="stroke:#000000;stroke-width:1;"/><polygon fill="#000000" points="1165.49,473.4906,1158.3034,472.8965,1154.9909,479.3017,1162.1775,479.8959,1165.49,473.4906" style="stroke:#000000;stroke-width:1;"/></g><!--reverse link GptpEngine to GptpMessageParser--><g id="link_GptpEngine_GptpMessageParser"><path codeLine="111" d="M1243.1088,546.8866 C1220.9988,585.6866 1205.64,612.6206 1191.61,637.2406 " fill="transparent" id="GptpEngine-backto-GptpMessageParser" style="stroke:#000000;stroke-width:1;"/><polygon fill="#000000" points="1249.05,536.4606,1242.604,539.6932,1243.1088,546.8866,1249.5547,543.654,1249.05,536.4606" style="stroke:#000000;stroke-width:1;"/></g><!--reverse link GptpEngine to SyncStateMachine--><g id="link_GptpEngine_SyncStateMachine"><path codeLine="112" d="M1437.4675,546.8716 C1451.3675,571.1216 1458.99,584.4006 1470.66,604.7706 " fill="transparent" id="GptpEngine-backto-SyncStateMachine" style="stroke:#000000;stroke-width:1;"/><polygon fill="#000000" points="1431.5,536.4606,1431.0134,543.6553,1437.4675,546.8716,1437.9541,539.6769,1431.5,536.4606" style="stroke:#000000;stroke-width:1;"/></g><!--reverse link GptpEngine to PeerDelayMeasurer--><g id="link_GptpEngine_PeerDelayMeasurer"><path codeLine="113" d="M1525.1824,484.4921 C1579.4824,516.2021 1629.12,545.3406 1684,577.8906 C1693.99,583.8206 1704.35,589.9906 1714.73,596.2006 " fill="transparent" id="GptpEngine-backto-PeerDelayMeasurer" style="stroke:#000000;stroke-width:1;"/><polygon fill="#000000" points="1514.82,478.4406,1517.9841,484.9205,1525.1824,484.4921,1522.0184,478.0122,1514.82,478.4406" style="stroke:#000000;stroke-width:1;"/></g><!--reverse link GptpEngine to PhcAdjuster--><g id="link_GptpEngine_PhcAdjuster"><path codeLine="114" d="M1526.0957,423.4265 C1656.5957,458.6365 1826.31,510.3106 1978,577.8906 C1995.54,585.7006 2013.61,595.0906 2030.86,604.7806 " fill="transparent" id="GptpEngine-backto-PhcAdjuster" style="stroke:#000000;stroke-width:1;"/><polygon fill="#000000" points="1514.51,420.3006,1519.2609,425.7255,1526.0957,423.4265,1521.3448,418.0017,1514.51,420.3006" style="stroke:#000000;stroke-width:1;"/></g><!--link ProbeManager to Recorder--><g id="link_ProbeManager_Recorder"><path codeLine="130" d="M2428,714.0406 C2428,739.9406 2428,766.2506 2428,792.1606 " fill="transparent" id="ProbeManager-to-Recorder" style="stroke:#000000;stroke-width:1;"/><polygon fill="#000000" points="2428,798.1606,2432,789.1606,2428,793.1606,2424,789.1606,2428,798.1606" style="stroke:#000000;stroke-width:1;"/></g><!--reverse link GptpEngine to ProbeManager--><g id="link_GptpEngine_ProbeManager"><path codeLine="133" d="M1526.5465,399.2573 C1718.1965,425.8073 2020.65,479.0306 2276,577.8906 C2304.9,589.0806 2334.78,605.3106 2360.32,620.8206 " fill="transparent" id="GptpEngine-backto-ProbeManager" style="stroke:#000000;stroke-width:1;"/><polygon fill="#000000" points="1514.66,397.6106,1520.0543,402.3961,1526.5465,399.2573,1521.1521,394.4718,1514.66,397.6106" style="stroke:#000000;stroke-width:1;"/></g><!--SRC=[ZLRjRzeu6F_EN-7hIHExbcadJVk061AZqA8RBGEckm-J8kCy0LyTEsSxj6pj_twF7KYT4Dhb0oJsxtb__Srk80MI2SfbgsMv5K3Mi-MCZEIQIo0JQK5BAiXGK6F89QThJTDMIy0QP4oioeY0nBO8Fe-Vo509fKdvuCab6APvPhcIfF8y5ZIaz_iNljxO1HMfadrt4ifdIaCZqTyReBPVdfEPLbOn9KYc5GDZk5mtIA9Rr1fq_q1qFIGq_ZStDWLfNrJlRlTPvD1tH8BQHEcKq9MnchB0j6UYpy3N4AWtaOZDdHHQTyLZ2tKg_DbgPPJTqJMGC-CixtQjwNPZi9GBSqP-jZn_vaDnbTbixwJGWmWwCEuGbLaJaMw0lVMHC056FqHseu763cXiZ3BzPm39OX1qzohCA7O7rjtdal-NGvHPtPlCwVt2N_G3A8_H4zpkwk0RiFTAtqtsro49Kp4mXnzZ0iBGVOKgKcr07soTOWAW5sV-CDHm9rbaKWTRuEi2Wm5JoZRec6Dp4JG3q9VkOmhKvBh2AzkmgCYTGkvimmRxpr2Yf9dPA1kbkOM7qdV-AsI6mSUCZKhutf19nYwffQ4RSgtHEQyYpp7bkELKy1_GVekWbL8YkBq4_kBzc4j_jzZByPYjud60cMFyiLPBI8mALDLvK-7yLEGlTpqbeGoxIvaSf59cGHAVarjqJfixV8EQ8qbN0gxlbpm5OscQeHURp9a3sxPNUN91B29LZW4n3kREvs1oOGFm0gDHW0N81cPNOCUnbuAc1ET3eGnK7VKKbknPQUvtsUjzuJ9_wFVF23N4lx_YYS4ucWs6VusMJiFRQ3cPZXRBmNGskRbwJTJNct_sWhxAryGWbcXwtocgcPWDJqy4hrQiBuGGFQp45av64HsAlcCbA-_3oaaLZ3Nh8VW_Y6EDrNxiWL_LxX8qtu8Xes-JpiSF9D4g9TF1y3lcdCJkOGrv_p0Ukv_HssCfpys852EfOhTlG2CSiLg2lSPg0UtoogbUFGreqA1ZYWiI6qnPoYw8qSozdCwoemPuKhDsHdT2qTZd-GL9pJh2ocWgsO9plMSUC-wKvOLCg5KfPpt7gn_MitHysYYjeQNSoh4IGjr_omu0vISM5Jr7LPHgo6rYbeN4TdDUtU0WtgoKdgFQSpTxFIvMERQDOmkF6dwJYI-tSkrLz1F1SshiBdF0aMTikoYoHZyWNOQJ6auwwW2eEwm6H1yKAdZ3ZtIgclyymqYvB5LiPybwF-o6IYPyNHk8YLyFgbrnOeec7JT5g11tcoG6R5lvlqYQ1ZCAu5WxnqcsQskCPwHTG9igmIrRp3whsMZDEO52iRrQv1D9g30G06BOScnrBjGQ9qjmWpxA_4Q4aq_4g7DXzySFaKK-VxxVFw5ImRJhFRvx5pRznlkoLnUtzORcCRL3ZmoZ-4Ud4mJBNmUBexjzbjfusoIWXgajPBNRvdsi1chSncgOvcMi3WgsiAVcTNgD5DqkBnVoitrAx4j0gnLg8P4AQy2lyPMK-MdS1i-U_4PF9IlcVKZrfhfsA1stCuMfWJqSDwA6r5wu2dKuxFLw_tAwlH-WnyfrIC85b8r99MWXqFGNErUfBBf4xvhaLrpJwVHBLPodwt48iAt_0G00]--></g></svg>